<svg width="94" height="130" viewBox="0 0 94 130" fill="none" xmlns="http://www.w3.org/2000/svg">
<g id="growth">
<path id="Vector" d="M92.9922 61.8651L73.6085 61.894C73.3855 61.894 73.2109 62.0676 73.2109 62.2894V102.084H73.2206C73.2594 102.672 73.7055 103.28 74.5394 103.762L80.3768 107.108C81.9962 108.033 84.4397 108.139 85.8361 107.329L92.4492 103.53C93.1183 103.145 93.4189 102.624 93.3801 102.074V62.2508C93.3801 62.029 93.2056 61.8555 92.9825 61.8555L92.9922 61.8651Z" fill="#FBB937"/>
<path id="Vector_2" d="M83.4599 108.479C82.2866 108.479 81.0551 108.19 80.0758 107.631L74.2383 104.285C73.482 103.851 72.9584 103.291 72.7354 102.684H72.6093V102.086L72.5996 62.2916C72.5996 61.742 73.0457 61.2985 73.5887 61.2985L92.9724 61.2695C93.5251 61.2695 93.9712 61.7131 93.9712 62.2627V102.674H93.9033C93.7481 103.214 93.3506 103.696 92.7397 104.044L86.1265 107.843C85.3993 108.257 84.449 108.469 83.4502 108.469L83.4599 108.479ZM73.8117 101.999V102.048C73.8408 102.462 74.219 102.896 74.8395 103.253L80.677 106.599C82.1024 107.418 84.3229 107.525 85.535 106.821L92.1482 103.021C92.4585 102.848 92.8173 102.549 92.7785 102.125L92.73 101.488H92.7785V62.4556L73.7923 62.4845V101.99L73.8117 101.999Z" fill="#150035"/>
<path id="Vector_3" d="M92.9913 61.8846H84.0703V107.86C84.7297 107.793 85.3503 107.629 85.8351 107.349L92.4483 103.55C93.1174 103.164 93.418 102.643 93.3792 102.094V62.2703C93.3792 62.0486 93.2046 61.875 92.9816 61.875L92.9913 61.8846Z" fill="#150035"/>
<path id="Vector_4" d="M92.459 63.3528L85.8459 67.1519C84.4495 67.9522 82.006 67.8558 80.3866 66.9301L74.5492 63.5842C72.9298 62.6585 72.7553 61.2507 74.1613 60.4504L80.7745 56.6512C82.1708 55.8509 84.6144 55.9473 86.2337 56.873L92.0711 60.219C93.6905 61.1446 93.865 62.5524 92.459 63.3528Z" fill="white"/>
<path id="Vector_5" d="M83.46 68.2878C82.2867 68.2878 81.0552 67.9985 80.0855 67.4392L74.2481 64.0933C73.2106 63.4955 72.6094 62.6662 72.6094 61.808C72.6094 61.0559 73.0554 60.3906 73.8506 59.9277L80.4637 56.1286C82.054 55.2126 84.7109 55.3186 86.5242 56.3504L92.3616 59.6963C93.3991 60.2942 94.0003 61.1234 94.0003 61.9816C94.0003 62.7337 93.5543 63.399 92.7592 63.8619L86.146 67.661C85.4187 68.0756 84.4588 68.2878 83.4697 68.2878H83.46ZM83.14 56.6975C82.3546 56.6975 81.6176 56.8518 81.0746 57.1603L74.4615 60.9595C74.1706 61.1331 73.8118 61.4127 73.8118 61.808C73.8118 62.2227 74.1996 62.6951 74.8493 63.0616L80.6867 66.4075C82.1122 67.2271 84.3327 67.3235 85.5448 66.6293L92.158 62.8301C92.4489 62.6566 92.8076 62.3769 92.8076 61.9816C92.8076 61.567 92.4198 61.0945 91.7701 60.7281L85.9327 57.3821C85.1472 56.9289 84.1097 56.6975 83.14 56.6975Z" fill="#150035"/>
<path id="Vector_6" d="M81.597 67.2266H80.4043V107.388H81.597V67.2266Z" fill="#150035"/>
<path id="Vector_7" d="M91.5852 65.625H90.6641V102.565H91.5852V65.625Z" fill="#FBB937"/>
<path id="Vector_8" d="M78.127 93.6776L58.7433 93.7065C58.5202 93.7065 58.3457 93.8801 58.3457 94.1019V113.773H58.3554C58.3942 114.361 58.8402 114.968 59.6742 115.45L65.5116 118.796C67.1309 119.722 69.5745 119.828 70.9708 119.018L77.584 115.219C78.2531 114.833 78.5537 114.313 78.5149 113.763V94.0633C78.5149 93.8415 78.3403 93.668 78.1173 93.668L78.127 93.6776Z" fill="#FBB937"/>
<path id="Vector_9" d="M68.5948 120.164C67.4215 120.164 66.19 119.875 65.2106 119.315L59.3732 115.969C58.6168 115.535 58.0932 114.976 57.8702 114.369H57.7538V113.771L57.7441 94.1002C57.7441 93.5506 58.1902 93.1071 58.7429 93.1071L78.1266 93.0781C78.3885 93.0781 78.6406 93.1842 78.8248 93.3674C79.0187 93.5506 79.1157 93.8013 79.1157 94.0713V114.369H79.0478C78.8927 114.909 78.4951 115.391 77.8842 115.738L71.2711 119.537C70.5438 119.952 69.5935 120.164 68.5948 120.164ZM58.9465 113.684V113.732C58.9756 114.147 59.3538 114.581 59.9744 114.938L65.8118 118.284C67.2372 119.103 69.4578 119.2 70.6699 118.505L77.283 114.706C77.5933 114.533 77.9521 114.234 77.9133 113.809L77.8648 113.173H77.9133V94.2642L58.9271 94.2931V113.674L58.9465 113.684Z" fill="#150035"/>
<path id="Vector_10" d="M78.1261 93.6971H69.2051V119.549C69.8645 119.481 70.485 119.317 70.9699 119.038L77.583 115.238C78.2521 114.853 78.5527 114.332 78.5139 113.782V94.0828C78.5139 93.8611 78.3394 93.6875 78.1164 93.6875L78.1261 93.6971Z" fill="#150035"/>
<path id="Vector_11" d="M77.584 95.1614L70.9709 98.9605C69.5745 99.7608 67.131 99.6644 65.5116 98.7387L59.6742 95.3928C58.0548 94.4671 57.8803 93.0593 59.2863 92.259L65.8995 88.4598C67.2958 87.6595 69.7394 87.7559 71.3587 88.6816L77.1961 92.0275C78.8155 92.9532 78.99 94.361 77.584 95.1614Z" fill="white"/>
<path id="Vector_12" d="M68.5947 100.1C67.4214 100.1 66.1899 99.811 65.2105 99.2517L59.3731 95.9058C58.3356 95.308 57.7344 94.4787 57.7344 93.6205C57.7344 92.8684 58.1804 92.2031 58.9756 91.7402L65.5887 87.9411C67.179 87.0251 69.8359 87.1311 71.6492 88.1629L77.4866 91.5088C78.5241 92.1067 79.1253 92.9359 79.1253 93.7941C79.1253 94.5462 78.6793 95.2115 77.8842 95.6647L71.271 99.4639C70.5437 99.8785 69.5838 100.091 68.5947 100.091V100.1ZM68.265 88.51C67.4796 88.51 66.7426 88.6643 66.1996 88.9728L59.5864 92.772C59.2955 92.9456 58.9368 93.2252 58.9368 93.6205C58.9368 94.0352 59.3246 94.5076 59.9743 94.8741L65.8117 98.22C67.2372 99.0396 69.4577 99.136 70.6698 98.4418L77.283 94.6426C77.5739 94.4691 77.9326 94.1894 77.9326 93.7941C77.9326 93.3795 77.5448 92.907 76.8951 92.5309L71.0577 89.185C70.2722 88.7318 69.2347 88.5004 68.265 88.5004V88.51Z" fill="#150035"/>
<path id="Vector_13" d="M66.7337 99.0391H65.541V119.076H66.7337V99.0391Z" fill="#150035"/>
<path id="Vector_14" d="M76.72 97.4375H75.7988V114.254H76.72V97.4375Z" fill="#FBB937"/>
<path id="Vector_15" d="M89.9266 38.5797C89.8684 38.493 89.7326 38.5026 89.626 38.6955L80.8408 54.3645L80.1135 54.4416L77.7378 53.0242L77.2142 52.4071L73.8979 50.7293C73.7428 50.6329 73.4809 51.0089 73.5973 51.1728L80.3656 60.9889L83.4492 62.6474C83.4492 62.6474 83.517 62.6474 83.517 62.6088L84.1182 57.8165L92.1277 42.4946L93.2235 40.325C93.2526 40.2575 93.2235 40.1804 93.1653 40.1418L89.946 38.5797H89.9266Z" fill="#FBB937"/>
<path id="Vector_16" d="M83.4796 63.1504L83.2178 63.0347L80.0373 61.328L79.9694 61.2316L73.2011 51.4155C72.9878 51.1166 73.1138 50.7116 73.3465 50.4706C73.5696 50.2295 73.8799 50.1716 74.132 50.3259L77.5646 52.1001L78.0301 52.6594L80.2021 53.9611L80.5415 53.9322L89.2104 38.4753C89.3558 38.2246 89.5789 38.0703 89.8213 38.0703C89.957 38.0703 90.1025 38.1185 90.2091 38.2053L93.3509 39.7288C93.4963 39.7963 93.603 39.9217 93.6515 40.076C93.7 40.2302 93.6903 40.3942 93.6224 40.5388L92.5364 42.7083L84.5657 57.9628L83.9451 62.919L83.4796 63.1793V63.1504ZM80.6773 60.6144L83.1305 61.9355L83.7026 57.5867L92.643 40.4038L89.9279 39.0924L81.1233 54.8L79.9985 54.9157L77.3707 53.3151L76.9149 52.7751L74.3744 51.4927L80.6773 60.6337V60.6144Z" fill="#150035"/>
<path id="Vector_17" d="M76.9039 52.8329L83.6723 62.6489C83.6723 62.6489 83.7498 62.6489 83.7692 62.5911L93.2332 40.4616C93.3593 40.1626 93.0975 40.0759 92.9326 40.3651L83.9729 56.3427C83.9729 56.3427 83.9147 56.4102 83.8856 56.3909L77.2045 52.3893C77.0494 52.2929 76.7876 52.6689 76.9039 52.8329Z" fill="#150035"/>
<path id="Vector_18" d="M83.4685 63.1491L83.2843 62.9081L76.516 53.092C76.3027 52.7931 76.4287 52.3881 76.6518 52.1471C76.8748 51.906 77.1851 51.8482 77.4372 51.9928L83.7498 55.7726L92.5156 40.1422C92.7386 39.7372 93.1265 39.66 93.398 39.7854C93.6404 39.9011 93.8343 40.229 93.6501 40.6436L84.1861 62.7731C84.0988 62.9659 83.9243 63.1009 83.7304 63.1202L83.4588 63.1491H83.4685ZM77.7669 53.2656L83.6237 61.7606L90.5471 45.5805L84.2928 56.7369L84.0503 56.843C83.9243 56.8815 83.7788 56.8622 83.6625 56.7947L77.7669 53.2656Z" fill="#150035"/>
<path id="Vector_19" d="M89.9275 47.0267L87.2363 53.3281L88.0931 53.69L90.7843 47.3885L89.9275 47.0267Z" fill="#FBB937"/>
<path id="Vector_20" d="M64.4922 117.232L45.1085 117.261C44.8855 117.261 44.7109 117.435 44.7109 117.657V123.606H44.7206C44.7594 124.194 45.2055 124.802 46.0394 125.284L51.8768 128.63C53.4962 129.555 55.9397 129.661 57.3361 128.851L63.9492 125.052C64.6183 124.667 64.9189 124.146 64.8801 123.596V117.618C64.8801 117.396 64.7056 117.223 64.4825 117.223L64.4922 117.232Z" fill="#FBB937"/>
<path id="Vector_21" d="M54.9619 130.001C53.7886 130.001 52.5571 129.712 51.5777 129.153L45.7403 125.807C44.984 125.373 44.4603 124.814 44.2373 124.206H44.1113V123.608L44.1016 117.659C44.1016 117.109 44.5476 116.666 45.1003 116.666L64.4841 116.637C64.7459 116.637 64.998 116.743 65.1822 116.926C65.3762 117.109 65.4731 117.36 65.4731 117.63V124.206H65.4053C65.2501 124.746 64.8525 125.228 64.2416 125.575L57.6285 129.374C56.9012 129.789 55.951 130.001 54.9522 130.001H54.9619ZM45.3137 123.521V123.57C45.3524 123.984 45.7209 124.418 46.3415 124.775L52.1789 128.121C53.6043 128.941 55.8249 129.037 57.037 128.343L63.6501 124.544C63.9604 124.37 64.3192 124.071 64.2804 123.647L64.232 123.01H64.2804V117.823L45.2943 117.852V123.512L45.3137 123.521Z" fill="#150035"/>
<path id="Vector_22" d="M64.4932 117.252H55.5723V129.382C56.2316 129.315 56.8522 129.151 57.3371 128.871L63.9502 125.072C64.6193 124.686 64.9199 124.165 64.8811 123.616V117.638C64.8811 117.416 64.7066 117.242 64.4836 117.242L64.4932 117.252Z" fill="#150035"/>
<path id="Vector_23" d="M63.9492 118.72L57.3361 122.519C55.9398 123.319 53.4962 123.223 51.8768 122.297L46.0394 118.951C44.4201 118.026 44.2455 116.618 45.6515 115.818L52.2647 112.018C53.661 111.218 56.1046 111.315 57.724 112.24L63.5614 115.586C65.1807 116.512 65.3553 117.92 63.9492 118.72Z" fill="white"/>
<path id="Vector_24" d="M54.9619 123.655C53.7886 123.655 52.5571 123.366 51.5777 122.806L45.7403 119.46C44.7028 118.863 44.1016 118.033 44.1016 117.175C44.1016 116.423 44.5476 115.758 45.3427 115.295L51.9559 111.496C53.5462 110.58 56.2031 110.686 58.0164 111.718L63.8538 115.064C64.8913 115.661 65.4925 116.491 65.4925 117.349C65.4925 118.101 65.0465 118.766 64.2513 119.219L57.6382 123.019C56.9109 123.433 55.9607 123.645 54.9619 123.645V123.655ZM54.6322 112.065C53.8468 112.065 53.1098 112.219 52.5668 112.528L45.9536 116.327C45.6627 116.5 45.304 116.78 45.304 117.175C45.304 117.59 45.6918 118.062 46.3415 118.429L52.1789 121.775C53.6043 122.594 55.8249 122.691 57.037 121.996L63.6501 118.197C63.9411 118.024 64.2998 117.744 64.2998 117.349C64.2998 116.934 63.912 116.462 63.2623 116.086L57.4249 112.74C56.6394 112.286 55.6019 112.055 54.6322 112.055V112.065Z" fill="#150035"/>
<path id="Vector_25" d="M53.0989 122.605H51.9062V128.921H53.0989V122.605Z" fill="#150035"/>
<path id="Vector_26" d="M63.0872 121.004H62.166V124.099H63.0872V121.004Z" fill="#FBB937"/>
<path id="Vector_27" d="M55.4552 0.65625L48.3572 4.86037L46.4082 17.9067L57.414 61.1146C57.414 61.1146 57.414 61.1146 57.4237 61.1146L64.5217 56.9105V36.6227C64.5217 36.6227 64.5217 36.6131 64.5314 36.6227L66.8198 37.9341L73.9178 33.73C73.9178 33.73 73.9178 33.73 73.9178 33.7203L55.4649 0.65625C55.4649 0.65625 55.4649 0.65625 55.4552 0.65625Z" fill="white"/>
<path id="Vector_28" d="M57.4817 61.7987L56.9386 61.5962L56.8417 61.3166L45.865 18.2243L45.5547 17.9157L45.8359 17.6265L47.7849 4.63804L47.8722 4.4259L48.0855 4.31983L55.3678 0L55.9011 0.163922L56.0174 0.414627L74.6061 33.6716L74.4121 34.1826L74.2085 34.2694L66.8196 38.6471L66.4996 38.4349L65.1324 37.6539V57.2378L64.8609 57.421L57.4914 61.789L57.4817 61.7987ZM47.0189 17.8868L57.8016 60.2173L63.93 56.5917V36.275L64.57 35.9279L64.8803 36.1304L66.839 37.2489L73.1419 33.5076L55.2417 1.4753L48.9098 5.22623L47.0189 17.8772V17.8868Z" fill="#150035"/>
<path id="Vector_29" d="M48.3473 4.87109L29.8848 16.7217V16.7314L39.2906 22.1311V50.7308L57.3944 61.1254H57.4041V32.545C57.4041 32.545 57.4041 32.5354 57.4138 32.545L66.8002 37.9352C66.8002 37.9352 66.8196 37.9352 66.8099 37.9255L48.357 4.87109C48.357 4.87109 48.357 4.87109 48.3473 4.87109Z" fill="#FBB937"/>
<path id="Vector_30" d="M57.3764 61.8265L57.0661 61.624L38.6908 51.0751V50.7183V22.4659L29.2947 17.0757L29.2656 16.4007L29.5468 16.2079L48.5233 4.03906L48.8627 4.53083L67.5677 37.9999L66.9374 38.6652L66.5204 38.4435L58.0164 33.5644V61.4793L57.3764 61.8265ZM39.8932 50.3905L56.814 60.1005V32.2144L57.3861 31.8576L57.6964 32.0023L65.2501 36.3414L48.1354 5.70721L31.0207 16.69L39.8835 21.7812V22.138V50.3905H39.8932Z" fill="#150035"/>
<path id="Vector_31" d="M57.4141 32.543V61.1233C57.4141 61.1233 57.4141 61.1329 57.4238 61.1233L64.5218 56.9192V36.6217L57.4238 32.543H57.4141Z" fill="#150035"/>
<path id="Vector_32" d="M57.4428 61.8186L56.8125 61.4907V61.1243V32.2161L57.3846 31.8594L57.6949 32.004L64.9481 36.1888L65.1226 36.3624V36.6228V57.248L64.8511 57.4312L57.4331 61.8186H57.4428ZM58.0149 33.5661V60.0829L63.9202 56.5827V36.9603L58.0149 33.5661Z" fill="#150035"/>
<path id="Vector_33" d="M60.1777 26.0238L67.3339 21.9258C67.3339 21.9258 67.3339 21.9258 67.3436 21.9258L73.9374 33.7185C73.9374 33.7185 73.9374 33.7185 73.9374 33.7282L66.8394 37.9323C66.8394 37.9323 66.8394 37.9323 66.8297 37.9323L60.1777 26.0335C60.1777 26.0335 60.1777 26.0335 60.1777 26.0238Z" fill="#FBB937"/>
<path id="Vector_34" d="M66.926 38.5874L66.4121 38.4428L66.286 38.2017L59.5371 26.1197L59.6535 25.6183L59.8862 25.4929L67.2557 21.2695L67.7793 21.4238L67.8957 21.6745L74.5961 33.6698L74.4022 34.1808L74.1985 34.2676L66.9163 38.5874H66.926ZM60.9916 26.2547L67.0618 37.1121L73.1416 33.5155L67.1199 22.7448L60.9916 26.2547Z" fill="#150035"/>
<path id="Vector_35" d="M57.4141 61.1227V54.8551L64.5121 50.6992H64.5218V56.9186L57.4238 61.1227H57.4141Z" fill="#FBB937"/>
<path id="Vector_36" d="M57.4428 61.8199L56.8125 61.492V61.1256V54.5398L57.084 54.3566L64.5214 50.0078L65.1226 50.3742V50.7117V57.2493L64.8511 57.4325L57.4331 61.8199H57.4428ZM58.0149 55.1955V60.0842L63.9202 56.584V51.7338L58.0149 55.1955Z" fill="#150035"/>
<path id="Vector_37" d="M63.3997 47.6375L58.0703 50.7617L58.5431 51.5591L63.8724 48.435L63.3997 47.6375Z" fill="#FBB937"/>
<path id="Vector_38" d="M65.1425 34.9058L72.3472 30.8945C72.3472 30.8945 72.3472 30.8945 72.3569 30.8945L73.9277 33.7101C73.9277 33.7101 73.9277 33.7101 73.9277 33.7198L66.8297 37.9239C66.8297 37.9239 66.8297 37.9239 66.82 37.9239L65.1328 34.9058C65.1328 34.9058 65.1328 34.9058 65.1328 34.8962L65.1425 34.9058Z" fill="#150035"/>
<path id="Vector_39" d="M66.9268 38.5911L66.4129 38.4465L66.2869 38.2054L64.3281 34.7052L64.8517 34.387L72.5219 30.125L72.8515 30.5493L74.6067 33.6831L74.4127 34.1941L74.2091 34.2809L66.9268 38.6007V38.5911ZM65.9572 35.1487L67.0626 37.1158L73.1424 33.5192L72.134 31.716L65.9572 35.1584V35.1487Z" fill="#150035"/>
<path id="Vector_40" d="M66.8645 35.4045L66.0605 35.8711L67.0381 37.5367L67.8421 37.07L66.8645 35.4045Z" fill="#FBB937"/>
<path id="Vector_41" d="M26.1916 45.543L19.0936 49.7471L17.1445 62.7934L28.1503 106.001C28.1503 106.001 28.1503 106.001 28.16 106.001L35.258 101.797V81.5094C35.258 81.5094 35.258 81.4998 35.2677 81.5094L37.5561 82.8208L44.6541 78.6167C44.6541 78.6167 44.6541 78.6167 44.6541 78.6071L26.1819 45.543C26.1819 45.543 26.1819 45.543 26.1722 45.543H26.1916Z" fill="white"/>
<path id="Vector_42" d="M28.1887 106.705L27.6069 106.435L27.5487 106.117L16.5332 62.8027L18.521 49.4189L18.7247 49.2647L26.036 44.9062L26.5499 44.993L26.6954 45.2148L45.3034 78.52L45.2064 78.9924L44.9834 79.1371L37.5848 83.5148L37.2842 83.3701L35.8588 82.5505V102.192L35.5194 102.366L28.1887 106.715V106.705ZM17.755 62.7834L28.5377 105.114L34.6661 101.488V81.2006L35.2382 80.8438L35.5485 80.9884L37.5751 82.1455L43.878 78.4042L25.9778 46.3719L19.6362 50.1228L17.755 62.7738V62.7834Z" fill="#150035"/>
<path id="Vector_43" d="M19.0836 49.7539L0.621094 61.6045V61.6142L10.0269 67.014V95.6136L28.1307 106.008H28.1404V77.4278C28.1404 77.4278 28.1404 77.4182 28.1501 77.4278L37.5365 82.818C37.5365 82.818 37.5559 82.818 37.5462 82.8083L19.0836 49.7636C19.0836 49.7636 19.0836 49.7636 19.074 49.7636L19.0836 49.7539Z" fill="#FBB937"/>
<path id="Vector_44" d="M28.1399 106.712L27.8296 106.538L9.42521 95.9698V95.613V67.3605L0.0290902 61.9704L0 61.2954L0.281205 61.1026L19.0056 49.0977L19.5389 49.2712L19.6456 49.5316L38.302 82.9139L37.6427 83.5503L37.2451 83.3381L28.7508 78.459V106.364L28.1399 106.721V106.712ZM10.6276 95.2755L27.5484 104.986V77.0802L28.1593 76.7234L28.4696 76.8969L35.9942 81.2168L18.8795 50.5922L1.75511 61.5847L10.6179 66.6759V67.0327V95.2852L10.6276 95.2755Z" fill="#150035"/>
<path id="Vector_45" d="M28.1504 77.4375V106.018C28.1504 106.018 28.1504 106.027 28.1601 106.018L35.2581 101.814V81.5163L28.1601 77.4375H28.1504Z" fill="#150035"/>
<path id="Vector_46" d="M28.1791 106.713L27.5488 106.385V106.019V77.0911L28.1597 76.7344L28.47 76.9079L35.8686 81.1506V81.5074V102.181L35.5292 102.354L28.1791 106.713ZM28.7512 78.4604V104.977L34.6565 101.477V81.8545L28.7512 78.4604Z" fill="#150035"/>
<path id="Vector_47" d="M30.9141 70.9106L38.0702 66.8125C38.0702 66.8125 38.0702 66.8125 38.0799 66.8125L44.6737 78.6053C44.6737 78.6053 44.6737 78.6053 44.6737 78.6149L37.5757 82.819C37.5757 82.819 37.5757 82.819 37.566 82.819L30.9141 70.9202C30.9141 70.9202 30.9141 70.9202 30.9141 70.9106Z" fill="#FBB937"/>
<path id="Vector_48" d="M37.3914 83.6384L37.0617 83.1659L30.0801 70.6789L30.6231 70.3993L38.2544 66.0312L38.5841 66.5037L45.3039 78.5375L45.207 79.01L44.9839 79.1547L37.3817 83.6577L37.3914 83.6384ZM31.7188 71.1418L37.789 81.9992L43.8688 78.3929L37.8471 67.6223L31.7188 71.1321V71.1418Z" fill="#150035"/>
<path id="Vector_49" d="M28.1504 106.017V99.7497L35.2484 95.5938H35.2581V101.813L28.1601 106.017H28.1504Z" fill="#FBB937"/>
<path id="Vector_50" d="M28.1791 106.713L27.5488 106.385V106.018V99.4518L27.7912 99.2686L35.2383 94.9102L35.8589 95.238V95.6044V102.19L35.5195 102.364L28.1694 106.722L28.1791 106.713ZM28.7512 100.088V104.977L34.6565 101.477V96.6265L28.7512 100.088Z" fill="#150035"/>
<path id="Vector_51" d="M34.122 92.5231L28.791 95.6445L29.2633 96.4422L34.5944 93.3208L34.122 92.5231Z" fill="#FBB937"/>
<path id="Vector_52" d="M35.8788 79.8003L43.0835 75.7891C43.0835 75.7891 43.0835 75.7891 43.0932 75.7891L44.6641 78.6143C44.6641 78.6143 44.6641 78.6143 44.6641 78.624L37.5661 82.8281C37.5661 82.8281 37.5661 82.8281 37.5564 82.8281L35.8691 79.81C35.8691 79.81 35.8691 79.81 35.8691 79.8003H35.8788Z" fill="#150035"/>
<path id="Vector_53" d="M37.3898 83.6396L37.0601 83.1671L35.0723 79.609L35.5862 79.2812L43.0236 75.1445L43.5375 75.2988L43.6539 75.5495L45.312 78.5194L45.215 78.9919L44.992 79.1269L37.3898 83.6299V83.6396ZM36.6916 80.0429L37.797 82.01L43.8769 78.4037L42.8684 76.6005L36.6916 80.0333V80.0429Z" fill="#150035"/>
<path id="Vector_54" d="M37.5933 80.2838L36.7891 80.75L37.7658 82.4161L38.57 81.9499L37.5933 80.2838Z" fill="#FBB937"/>
</g>
</svg>
