<svg width="20" height="20" viewBox="0 0 20 20" fill="none" xmlns="http://www.w3.org/2000/svg">
<g id="event_available_FILL1_wght400_GRAD0_opsz24 1">
<path id="Vector" d="M9.125 12.8763L12.0208 9.98047C12.1875 9.8138 12.3889 9.73047 12.625 9.73047C12.8611 9.73047 13.0625 9.8138 13.2292 9.98047C13.3958 10.1471 13.4792 10.3485 13.4792 10.5846C13.4792 10.8207 13.3958 11.0221 13.2292 11.1888L9.70833 14.7096C9.54167 14.8763 9.34722 14.9596 9.125 14.9596C8.90278 14.9596 8.70833 14.8763 8.54167 14.7096L6.77083 12.9388C6.60417 12.7721 6.52083 12.5707 6.52083 12.3346C6.52083 12.0985 6.60417 11.8971 6.77083 11.7305C6.9375 11.5638 7.13889 11.4805 7.375 11.4805C7.61111 11.4805 7.8125 11.5638 7.97917 11.7305L9.125 12.8763ZM4.16667 18.3346C3.70833 18.3346 3.31597 18.1714 2.98958 17.8451C2.66319 17.5187 2.5 17.1263 2.5 16.668V5.0013C2.5 4.54297 2.66319 4.15061 2.98958 3.82422C3.31597 3.49783 3.70833 3.33464 4.16667 3.33464H5V2.5013C5 2.26519 5.07986 2.06727 5.23958 1.90755C5.39931 1.74783 5.59722 1.66797 5.83333 1.66797C6.06944 1.66797 6.26736 1.74783 6.42708 1.90755C6.58681 2.06727 6.66667 2.26519 6.66667 2.5013V3.33464H13.3333V2.5013C13.3333 2.26519 13.4132 2.06727 13.5729 1.90755C13.7326 1.74783 13.9306 1.66797 14.1667 1.66797C14.4028 1.66797 14.6007 1.74783 14.7604 1.90755C14.9201 2.06727 15 2.26519 15 2.5013V3.33464H15.8333C16.2917 3.33464 16.684 3.49783 17.0104 3.82422C17.3368 4.15061 17.5 4.54297 17.5 5.0013V16.668C17.5 17.1263 17.3368 17.5187 17.0104 17.8451C16.684 18.1714 16.2917 18.3346 15.8333 18.3346H4.16667ZM4.16667 16.668H15.8333V8.33464H4.16667V16.668Z" fill="black"/>
</g>
</svg>
