<svg width="90" height="90" viewBox="0 0 90 90" fill="none" xmlns="http://www.w3.org/2000/svg">
<path d="M31.4564 82.0816L30.3043 86.5941L29.6486 86.3198L30.7322 82.2983L30.6362 82.2571L28.3868 85.7903L27.2401 85.3103L28.1756 81.2284L28.0795 81.1873L25.9837 84.7863L25.3281 84.512L27.7312 80.5234L28.8805 81.0035L27.9314 85.1457L28.0274 85.1868L30.3043 81.6015L31.4591 82.0843L31.4564 82.0816Z" fill="#191A23"/>
<path d="M26.3358 79.7883L24.0397 83.7851L21.5215 82.3394L21.8424 81.7798L23.7435 82.8716L24.4018 81.725L22.6599 80.7237L22.9809 80.1641L24.7228 81.1654L25.3949 79.994L23.4664 78.8858L23.7874 78.3262L26.333 79.7883H26.3358Z" fill="#191A23"/>
<path d="M22.9831 77.7898L20.3112 81.5452L19.7324 81.1338L22.0312 77.905L20.2234 76.6185L20.5965 76.0918L22.9831 77.7898Z" fill="#191A23"/>
<path d="M18.7967 74.444C19.2192 74.8143 19.4496 75.2258 19.488 75.6839C19.5264 76.1393 19.3481 76.5946 18.9503 77.0473L18.2398 77.8593C17.8448 78.3119 17.4169 78.5505 16.9615 78.5725C16.5061 78.5944 16.0645 78.4216 15.642 78.0513C15.2251 77.6864 15.0056 77.2914 14.9809 76.8607C14.9562 76.4328 15.1208 76.0158 15.4692 75.6181L15.4939 75.5879L16.0233 76.0515L15.9849 76.0954C15.7792 76.3313 15.675 76.5782 15.6722 76.836C15.6722 77.0966 15.7984 77.3408 16.059 77.5685C16.3223 77.7989 16.5994 77.9004 16.8874 77.8702C17.1755 77.84 17.4443 77.6837 17.6939 77.3984L18.4236 76.5645C18.6678 76.2847 18.7885 75.9966 18.7802 75.7059C18.772 75.4151 18.6376 75.1517 18.3743 74.9213C18.1136 74.6936 17.853 74.5976 17.5952 74.6388C17.3373 74.6772 17.1069 74.8116 16.9039 75.0447L16.8298 75.1298L16.3004 74.6662L16.3608 74.5976C16.7091 74.1971 17.0987 73.9804 17.5266 73.9475C17.9545 73.9146 18.377 74.0791 18.794 74.444H18.7967Z" fill="#191A23"/>
<path d="M15.6255 71.3305C16.0069 71.7502 16.1906 72.1892 16.1824 72.65C16.1742 73.1109 15.9438 73.5443 15.4994 73.9475L14.7011 74.6745C14.2567 75.0805 13.8041 75.267 13.3432 75.2341C12.8824 75.2012 12.4627 74.9762 12.0814 74.5565C11.7001 74.1368 11.5135 73.6979 11.5217 73.2343C11.53 72.7707 11.7577 72.3373 12.2021 71.934L13.0003 71.2071C13.4447 70.8011 13.8973 70.6173 14.3582 70.6502C14.8191 70.6832 15.2415 70.9108 15.6228 71.3305H15.6255ZM15.1537 71.7612C14.9096 71.4924 14.6407 71.3552 14.35 71.3525C14.0592 71.3497 13.7794 71.4732 13.5051 71.7201L12.6684 72.4827C12.3968 72.7296 12.2487 72.9984 12.224 73.2892C12.1993 73.5772 12.309 73.857 12.5559 74.1258C12.7946 74.3892 13.0607 74.5236 13.3542 74.5291C13.6477 74.5346 13.9303 74.4139 14.2018 74.1642L15.0385 73.4016C15.3101 73.152 15.4582 72.8832 15.4802 72.5897C15.5021 72.2961 15.3924 72.0191 15.1537 71.7557V71.7612Z" fill="#191A23"/>
<path d="M13.6338 69.2353L9.84824 71.8633L9.08563 70.766L11.9084 67.5812L11.848 67.4934L7.87589 69.0241L7.11328 67.9268L10.8989 65.2988L11.2939 65.8667L7.91978 68.2093L7.98013 68.2944L11.9248 66.7747L12.6079 67.7595L9.80434 70.9251L9.86469 71.0129L13.2388 68.6702L13.6338 69.238V69.2353Z" fill="#191A23"/>
<path d="M10.3545 64.2689L6.27543 66.4113L4.92578 63.8409L5.49636 63.5419L6.51408 65.4841L7.68542 64.8696L6.75274 63.0921L7.32332 62.793L8.25601 64.5706L9.45203 63.9424L8.41785 61.9728L8.98844 61.6738L10.3518 64.2744L10.3545 64.2689Z" fill="#191A23"/>
<path d="M7.53732 58.1171L3.79836 59.431L4.26744 60.767L3.65846 60.9809L2.48438 57.6397L3.09336 57.4258L3.56245 58.7617L7.3014 57.4477L7.53732 58.1198V58.1171Z" fill="#191A23"/>
<path d="M6.3378 53.7635C6.46673 54.3149 6.41736 54.7895 6.18418 55.1872C5.95101 55.585 5.54228 55.8538 4.95798 55.991L3.90734 56.2406C3.32305 56.3778 2.8375 56.3229 2.45071 56.0705C2.06392 55.8182 1.80606 55.4177 1.67439 54.8663C1.54272 54.3149 1.59484 53.8403 1.82801 53.4398C2.06118 53.0393 2.46992 52.7705 3.05421 52.6306L4.10485 52.381C4.68915 52.2411 5.17469 52.2987 5.56148 52.5538C5.94827 52.8062 6.20613 53.2094 6.3378 53.7608V53.7635ZM5.7151 53.9117C5.63006 53.5578 5.46273 53.3082 5.21036 53.1655C4.95798 53.0229 4.65075 52.9927 4.29413 53.0777L3.19137 53.3383C2.83202 53.4234 2.57141 53.5852 2.40956 53.8266C2.24772 54.068 2.20931 54.3643 2.29161 54.7209C2.3739 55.0665 2.54124 55.3134 2.79635 55.4616C3.04873 55.6097 3.35596 55.6399 3.71532 55.5548L4.81808 55.2942C5.17744 55.2092 5.4353 55.0446 5.59714 54.7977C5.75625 54.5536 5.7974 54.2573 5.7151 53.9117Z" fill="#191A23"/>
<path d="M5.38618 49.0045L0.788604 49.3145L0.74197 48.604L2.71158 48.4723L2.58265 46.5411L0.61304 46.6728L0.566406 45.9623L5.16398 45.6523L5.21062 46.3628L3.22729 46.4972L3.35622 48.4284L5.33954 48.294L5.38618 49.0045Z" fill="#191A23"/>
<path d="M5.1353 44.8265L0.589844 43.3068L0.644708 42.0586L5.30538 40.9531L5.27246 41.6828L4.17518 41.9379L4.09563 43.7402L5.16822 44.0913L5.1353 44.8292V44.8265ZM3.4455 43.5317L3.50859 42.0833L1.05893 42.6457L1.05344 42.7499L3.44275 43.529L3.4455 43.5317Z" fill="#191A23"/>
<path d="M5.73718 38.5849C5.68506 38.9278 5.57807 39.2213 5.41623 39.4682C5.25438 39.7151 5.04315 39.8934 4.78529 40.0086C4.52743 40.1238 4.22568 40.154 3.88827 40.1019L3.72643 40.0772L3.83067 39.3804L3.99251 39.4051C4.31347 39.4545 4.56858 39.3942 4.75786 39.2241C4.94714 39.054 5.06784 38.8099 5.11448 38.4889C5.16385 38.1625 5.13368 37.9073 5.02121 37.7236C4.90874 37.537 4.74415 37.4273 4.52743 37.3944C4.38479 37.3724 4.26135 37.3944 4.15711 37.4575C4.05286 37.5206 3.96508 37.6221 3.88827 37.7565C3.81146 37.8909 3.73465 38.0555 3.65785 38.2475L3.56183 38.4779C3.44936 38.7577 3.32318 38.9991 3.18876 39.1966C3.05435 39.3969 2.8925 39.5423 2.70596 39.6328C2.51942 39.7233 2.29448 39.7508 2.0284 39.7096C1.75956 39.6685 1.54011 39.567 1.36729 39.4051C1.19721 39.2433 1.07651 39.0375 1.00793 38.7879C0.939351 38.5383 0.928379 38.2557 0.977756 37.9375C1.02439 37.6221 1.12314 37.345 1.26853 37.1118C1.41392 36.8787 1.60594 36.7058 1.83912 36.5961C2.07229 36.4864 2.35209 36.4535 2.67304 36.5028L2.90621 36.5385L2.80197 37.2353L2.5688 37.1996C2.37404 37.1694 2.20945 37.1859 2.07503 37.249C1.94061 37.3121 1.83637 37.4081 1.75682 37.5425C1.67727 37.6769 1.62515 37.8388 1.59497 38.0308C1.55382 38.3079 1.57851 38.5328 1.66904 38.7056C1.75956 38.8784 1.90769 38.9772 2.11343 39.0101C2.25334 39.0321 2.37129 39.0156 2.47005 38.9607C2.5688 38.9059 2.65658 38.8181 2.73339 38.6974C2.8102 38.5767 2.88427 38.4203 2.95833 38.231L3.05435 38.0006C3.16407 37.7153 3.28752 37.4684 3.42467 37.2572C3.56183 37.046 3.72642 36.8896 3.91845 36.7854C4.11047 36.6811 4.34364 36.651 4.61796 36.6921C4.89228 36.7333 5.11996 36.8375 5.30376 37.0048C5.48755 37.1722 5.61648 37.3916 5.69329 37.6605C5.7701 37.9293 5.78107 38.2365 5.73169 38.5794L5.73718 38.5849Z" fill="#191A23"/>
<path d="M6.09556 35.9634L1.64062 34.7784L1.82442 34.0898L3.73367 34.5973L4.23019 32.7265L2.32093 32.219L2.50473 31.5332L6.95691 32.7183L6.77312 33.4041L4.85289 32.8938L4.35638 34.7647L6.27661 35.2749L6.09281 35.9607L6.09556 35.9634Z" fill="#191A23"/>
<path d="M7.33842 31.6038L3.03711 29.9525L4.07678 27.2422L4.68028 27.4726L3.89298 29.519L5.12741 29.9936L5.84613 28.12L6.44963 28.3504L5.73092 30.224L6.99004 30.7068L7.7883 28.6302L8.3918 28.8607L7.33842 31.6011V31.6038Z" fill="#191A23"/>
<path d="M8.69871 28.1362L8.13636 27.8482L8.41891 27.2968L5.44256 25.7689L5.16001 26.3202L4.59766 26.0322L5.43981 24.3918C5.71962 23.8459 6.07349 23.4975 6.50142 23.3494C6.92662 23.2012 7.42039 23.2698 7.97726 23.5551L8.74535 23.9501C9.30496 24.2354 9.64511 24.5948 9.7713 25.0282C9.89749 25.4616 9.82068 25.9499 9.53813 26.4958L8.69597 28.1362H8.69871ZM8.73438 26.6522L8.96755 26.1941C9.1486 25.8402 9.19523 25.5302 9.1047 25.2641C9.01418 25.0008 8.78924 24.7758 8.43537 24.5948L7.62613 24.1806C7.26677 23.9968 6.95405 23.9446 6.6907 24.0269C6.42736 24.1092 6.20242 24.326 6.02137 24.6826L5.7882 25.1407L8.73438 26.6522Z" fill="#191A23"/>
<path d="M11.9967 22.2966L8.28516 19.5672L9.36871 18.0913C9.53605 17.8636 9.72807 17.6963 9.95027 17.5838C10.1725 17.4714 10.4029 17.4247 10.6388 17.4467C10.8775 17.4659 11.1106 17.5619 11.3411 17.7292L11.4096 17.7786C11.6401 17.9487 11.7992 18.1462 11.8897 18.3711C11.9802 18.5988 12.0022 18.832 11.961 19.0734C11.9199 19.3148 11.8156 19.548 11.6538 19.7702L10.9899 20.6727L12.4164 21.7233L11.9939 22.2966H11.9967ZM10.4715 20.2914L11.0914 19.4492C11.2396 19.249 11.3054 19.0487 11.2862 18.8485C11.267 18.6482 11.1682 18.4836 10.9844 18.3492L10.9323 18.3108C10.7458 18.1736 10.5538 18.1242 10.359 18.1681C10.1642 18.2093 9.99416 18.3327 9.84603 18.533L9.22607 19.3751L10.4715 20.2914Z" fill="#191A23"/>
<path d="M15.7567 17.7443C15.3727 18.1612 14.9502 18.3834 14.4921 18.4136C14.0313 18.4438 13.5814 18.2545 13.1397 17.8458L12.347 17.1133C11.9053 16.7046 11.6804 16.2712 11.6721 15.8103C11.6639 15.3495 11.8532 14.9106 12.2372 14.4936C12.6213 14.0766 13.0437 13.8544 13.5046 13.8215C13.9654 13.7913 14.4181 13.9779 14.8597 14.3866L15.6525 15.119C16.0941 15.5278 16.3191 15.9612 16.3246 16.4248C16.3301 16.8884 16.1408 17.3273 15.7595 17.7443H15.7567ZM15.2876 17.3108C15.5345 17.042 15.647 16.7649 15.6251 16.4742C15.6031 16.1834 15.455 15.9146 15.1834 15.6649L14.3522 14.8968C14.0806 14.6472 13.8008 14.521 13.5101 14.5238C13.2193 14.5238 12.9505 14.6582 12.7036 14.927C12.4622 15.1876 12.3524 15.4647 12.3716 15.7582C12.3908 16.0517 12.5362 16.3233 12.8078 16.5729L13.6417 17.341C13.9133 17.5906 14.1959 17.7141 14.4894 17.7086C14.7829 17.7059 15.049 17.5714 15.2904 17.3108H15.2876Z" fill="#191A23"/>
<path d="M18.4085 15.0012L15.7915 12.0248L14.7299 12.9602L14.3047 12.4747L16.9628 10.1348L17.388 10.6203L16.3264 11.5557L18.9462 14.5321L18.4112 15.0012H18.4085Z" fill="#191A23"/>
<path d="M20.0498 13.5481L18.4121 9.04377L19.4243 8.30859L23.1907 11.2712L22.5982 11.6992L21.7149 10.9969L20.2555 12.0558L20.6478 13.1119L20.0498 13.5453V13.5481ZM20.0114 11.4194L21.1827 10.569L19.2159 9.00262L19.1308 9.06297L20.0086 11.4194H20.0114Z" fill="#191A23"/>
<path d="M24.4817 10.5158L22.471 7.10057L21.253 7.81928L20.9238 7.26242L23.9742 5.46289L24.3007 6.01976L23.08 6.73847L25.0935 10.1537L24.4817 10.5158Z" fill="#191A23"/>
<path d="M28.5198 8.49767C28.0041 8.73359 27.5295 8.77474 27.0934 8.62386C26.6572 8.47299 26.317 8.1246 26.0674 7.57597L25.6203 6.59391C25.3706 6.04527 25.3322 5.55973 25.5023 5.13179C25.6724 4.70385 26.018 4.37193 26.531 4.13876C27.0467 3.90284 27.5213 3.8617 27.9602 4.01257C28.3964 4.16345 28.742 4.51183 28.9916 5.05772L29.4388 6.03978C29.6884 6.58842 29.7268 7.07396 29.554 7.50464C29.3812 7.93258 29.0355 8.2645 28.5198 8.50042V8.49767ZM28.2537 7.91612C28.5856 7.76525 28.7969 7.55128 28.8874 7.27696C28.9779 7.00264 28.9478 6.6954 28.7941 6.36074L28.325 5.3293C28.1714 4.99463 27.9602 4.76969 27.6941 4.65722C27.428 4.54475 27.1263 4.56395 26.7944 4.71483C26.4707 4.86296 26.2622 5.07418 26.1662 5.35124C26.0702 5.62831 26.1003 5.93554 26.2512 6.27021L26.7203 7.30165C26.8739 7.63632 27.0851 7.86126 27.3594 7.97098C27.631 8.08071 27.93 8.06151 28.2537 7.91338V7.91612Z" fill="#191A23"/>
<path d="M34.6795 6.2837C34.1363 6.42909 33.6645 6.39343 33.264 6.17123C32.8635 5.94903 32.5837 5.54853 32.4273 4.96972L32.1448 3.9273C31.9884 3.34575 32.0268 2.86021 32.2627 2.46793C32.4986 2.07566 32.8854 1.80408 33.4286 1.65869C33.9635 1.5133 34.4134 1.55171 34.7837 1.77116C35.154 1.99062 35.4091 2.35546 35.5463 2.86844L35.5573 2.90684L34.877 3.09063L34.8605 3.03303C34.7782 2.73128 34.6301 2.50908 34.4161 2.36095C34.2021 2.21282 33.9251 2.18538 33.5932 2.27591C33.253 2.36643 33.0171 2.542 32.8827 2.79986C32.7483 3.05772 32.729 3.3677 32.8278 3.73254L33.1158 4.79964C33.2118 5.15899 33.3847 5.41685 33.6316 5.57321C33.8784 5.72958 34.172 5.7625 34.5094 5.66923C34.844 5.5787 35.0662 5.41411 35.1787 5.1782C35.2912 4.94228 35.3049 4.67345 35.2253 4.37719L35.1952 4.2702L35.8755 4.08641L35.9002 4.17419C36.0373 4.68717 36.0017 5.13156 35.7932 5.50464C35.582 5.88045 35.2116 6.13831 34.6767 6.2837H34.6795Z" fill="#191A23"/>
<path d="M37.3215 5.55794L36.5918 1.007L37.2941 0.894531L37.9222 4.80905L40.114 4.45793L40.2155 5.09434L37.3242 5.55794H37.3215Z" fill="#191A23"/>
<path d="M42.687 5.00328C42.3221 5.02248 42.0066 4.97585 41.7378 4.85789C41.469 4.73993 41.2578 4.56163 41.1014 4.32297C40.945 4.08431 40.8573 3.78531 40.838 3.43144L40.668 0.408447L41.3839 0.367299L41.554 3.40949C41.5732 3.73318 41.6747 3.98007 41.864 4.14466C42.0533 4.30925 42.3139 4.38332 42.6485 4.36412C42.9805 4.34491 43.2328 4.24342 43.4029 4.05688C43.573 3.87034 43.6498 3.61797 43.6306 3.29153L43.4605 0.249342L44.171 0.210938L44.3411 3.23393C44.3603 3.5878 44.3082 3.89503 44.182 4.15015C44.0558 4.40526 43.8638 4.60552 43.6087 4.75365C43.3535 4.90178 43.0463 4.98133 42.687 5.00328Z" fill="#191A23"/>
<path d="M45.3926 4.80735L45.4282 4.17642L46.0455 4.21208L46.243 0.873625L45.6258 0.837964L45.6614 0.207031L47.9959 0.34419C48.2729 0.360649 48.5116 0.421 48.7091 0.527984C48.9093 0.634968 49.063 0.777614 49.1699 0.958664C49.2769 1.13971 49.3208 1.3482 49.3071 1.58411V1.64995C49.2906 1.86117 49.2413 2.03125 49.1535 2.16292C49.0657 2.29459 48.9642 2.39335 48.849 2.46193C48.7338 2.53051 48.6241 2.57714 48.5198 2.60183L48.5143 2.70607C48.6131 2.73899 48.7201 2.7966 48.8298 2.87889C48.9423 2.96119 49.0328 3.07366 49.1069 3.21356C49.1809 3.35346 49.2111 3.53451 49.1974 3.75397V3.8198C49.1782 4.07492 49.1068 4.28615 48.9779 4.45897C48.849 4.63179 48.6789 4.76072 48.4649 4.84301C48.251 4.92805 48.0096 4.96097 47.738 4.94451L45.3926 4.80735ZM46.7642 4.24225L47.6914 4.29712C47.9273 4.31083 48.1166 4.2642 48.2592 4.15996C48.4018 4.05572 48.4787 3.89936 48.4896 3.6991V3.63875C48.5061 3.4385 48.4485 3.27665 48.3223 3.15321C48.1961 3.03251 48.0123 2.96393 47.7709 2.95021L46.8437 2.89535L46.7642 4.24225ZM46.8821 2.24522L47.8093 2.30008C48.0315 2.3138 48.2153 2.26716 48.358 2.16292C48.5006 2.05868 48.5774 1.91055 48.5884 1.71853V1.65269C48.6048 1.46067 48.5445 1.3043 48.4183 1.1836C48.2921 1.0629 48.1138 0.997068 47.8861 0.983352L46.9589 0.928489L46.8821 2.24247V2.24522Z" fill="#191A23"/>
<path d="M50.5624 5.34128C50.4115 5.31933 50.2908 5.25075 50.203 5.13828C50.1152 5.02307 50.0823 4.88865 50.1042 4.73229C50.1262 4.57593 50.1948 4.45523 50.3127 4.37293C50.4279 4.29064 50.5624 4.25772 50.716 4.27967C50.8668 4.30161 50.9875 4.37019 51.0753 4.48266C51.1631 4.59787 51.196 4.72955 51.1741 4.88317C51.1521 5.03953 51.0836 5.16023 50.9656 5.24527C50.8504 5.33031 50.716 5.36322 50.5624 5.34128ZM50.4224 3.83801L50.8778 0.636719L51.5636 0.73273L51.1082 3.93402L50.4252 3.83801H50.4224Z" fill="#191A23"/>
<path d="M54.6307 4.65248C54.4826 4.61682 54.3673 4.53726 54.2905 4.41382C54.2137 4.29038 54.1945 4.15322 54.2302 3.9996C54.2686 3.84598 54.3481 3.73351 54.4716 3.66219C54.595 3.59087 54.7322 3.57166 54.8803 3.60732C55.0284 3.64299 55.1437 3.72254 55.2205 3.84598C55.2973 3.96942 55.3165 4.10384 55.2808 4.25472C55.2424 4.40833 55.1629 4.5208 55.0394 4.59487C54.916 4.66894 54.7788 4.68814 54.6307 4.65248Z" fill="#191A23"/>
<path d="M57.8867 6.95087L58.973 2.42188L59.6341 2.68796L58.6109 6.72593L58.7097 6.76433L60.907 3.1982L62.0618 3.66179L61.184 7.75737L61.2828 7.79577L63.3265 4.16654L63.9876 4.42988L61.6421 8.45413L60.4873 7.99054L61.3733 3.83461L61.2746 3.79621L59.0498 7.41447L57.8895 6.94813L57.8867 6.95087Z" fill="#191A23"/>
<path d="M63.0418 9.17036L65.2775 5.14062L67.8149 6.55062L67.5022 7.11572L65.5847 6.05136L64.9428 7.20899L66.6985 8.18282L66.3857 8.74791L64.6301 7.77408L63.9745 8.95365L65.9194 10.0345L65.6067 10.5996L63.0391 9.1731L63.0418 9.17036Z" fill="#191A23"/>
<path d="M66.4246 11.118L69.0416 7.32422L69.6259 7.72747L67.3738 10.9891L69.2007 12.2482L68.8331 12.7804L66.4219 11.1153L66.4246 11.118Z" fill="#191A23"/>
<path d="M70.6574 14.3977C70.2294 14.0328 69.9935 13.6241 69.9469 13.1687C69.9003 12.7133 70.0731 12.2552 70.4626 11.7971L71.1621 10.9742C71.5517 10.5161 71.9741 10.2719 72.4322 10.2417C72.8903 10.2116 73.332 10.3789 73.7599 10.7437C74.1824 11.1004 74.4073 11.4954 74.4375 11.9233C74.4677 12.3512 74.3113 12.7682 73.9684 13.1742L73.9437 13.2044L73.406 12.749L73.4444 12.7024C73.6447 12.4637 73.7462 12.2168 73.7462 11.9562C73.7462 11.6956 73.6118 11.4542 73.3484 11.2293C73.0796 11.0016 72.8025 10.9056 72.5145 10.9413C72.2265 10.9742 71.9604 11.136 71.7162 11.4241L71.0003 12.2662C70.7589 12.5515 70.6437 12.8395 70.6546 13.1303C70.6656 13.4211 70.8055 13.6817 71.0743 13.9094C71.3377 14.1343 71.601 14.2248 71.8589 14.181C72.1167 14.1371 72.3444 13.9999 72.5447 13.7667L72.616 13.6817L73.1537 14.1371L73.0933 14.2084C72.7504 14.6144 72.3636 14.8366 71.9357 14.875C71.5078 14.9134 71.0826 14.7543 70.6629 14.3977H70.6574Z" fill="#191A23"/>
<path d="M73.8749 17.4679C73.4881 17.0537 73.2961 16.6175 73.2989 16.1566C73.3016 15.6958 73.5238 15.2596 73.9627 14.8481L74.75 14.1102C75.1889 13.6987 75.6388 13.5067 76.0997 13.5314C76.5605 13.5561 76.983 13.7755 77.3697 14.1898C77.7565 14.604 77.9486 15.0402 77.9458 15.5038C77.9458 15.9674 77.7236 16.4035 77.2847 16.815L76.4974 17.5529C76.0585 17.9644 75.6086 18.1564 75.1478 18.129C74.6869 18.1015 74.2617 17.8821 73.8749 17.4679ZM74.3413 17.0317C74.5909 17.2978 74.8597 17.4295 75.1505 17.4295C75.4413 17.4295 75.7211 17.3005 75.9899 17.0482L76.8156 16.2746C77.0845 16.0222 77.2298 15.7506 77.249 15.4626C77.2682 15.1718 77.1558 14.8948 76.9061 14.6287C76.662 14.3681 76.3959 14.2391 76.1024 14.2364C75.8089 14.2364 75.5291 14.3598 75.2602 14.6122L74.4345 15.3858C74.1657 15.6382 74.0231 15.9097 74.0039 16.2033C73.9874 16.4968 74.0999 16.7711 74.344 17.0317H74.3413Z" fill="#191A23"/>
<path d="M75.8934 19.5344L79.6406 16.8516L80.4196 17.9379L77.6435 21.1638L77.7039 21.2489L81.6513 19.6606L82.4276 20.7469L78.6804 23.4297L78.2772 22.8674L81.6184 20.4753L81.558 20.3903L77.6353 21.9676L76.9385 20.9938L79.6954 17.7897L79.6351 17.7047L76.2939 20.0967L75.8906 19.5344H75.8934Z" fill="#191A23"/>
<path d="M79.2461 24.4489L83.295 22.2461L84.6831 24.7973L84.1152 25.1045L83.0674 23.1788L81.9042 23.8125L82.8644 25.5763L82.2965 25.8836L81.3364 24.1197L80.1513 24.7643L81.2157 26.7202L80.6479 27.0275L79.2461 24.4489Z" fill="#191A23"/>
<path d="M82.1504 30.5555L85.8701 29.1866L85.3819 27.8589L85.9881 27.6367L87.2116 30.9615L86.6053 31.1837L86.117 29.856L82.3973 31.2248L82.1504 30.5582V30.5555Z" fill="#191A23"/>
<path d="M83.4217 34.9008C83.2845 34.3521 83.3284 33.8776 83.5534 33.4743C83.781 33.0738 84.1843 32.7995 84.7686 32.6514L85.8165 32.388C86.398 32.2399 86.8863 32.2893 87.2759 32.5361C87.6654 32.7803 87.9315 33.1781 88.0686 33.7267C88.2058 34.2753 88.1619 34.7526 87.937 35.1559C87.7093 35.5591 87.306 35.8334 86.7217 35.9816L85.6738 36.2449C85.0923 36.3931 84.604 36.3409 84.2117 36.0941C83.8222 35.8472 83.5561 35.4494 83.4189 34.898L83.4217 34.9008ZM84.0416 34.7444C84.1294 35.0983 84.3022 35.3452 84.5574 35.4823C84.8125 35.6195 85.117 35.6469 85.4763 35.5564L86.5736 35.2793C86.9302 35.1888 87.1881 35.0215 87.3472 34.7801C87.5063 34.5359 87.5392 34.2369 87.4514 33.8858C87.3636 33.5401 87.1936 33.296 86.9384 33.1534C86.6833 33.0107 86.3761 32.9833 86.0195 33.0738L84.9222 33.3509C84.5656 33.4414 84.3077 33.6087 84.1514 33.8584C83.995 34.1052 83.9593 34.4015 84.0471 34.7471L84.0416 34.7444Z" fill="#191A23"/>
<path d="M84.4383 39.6383L89.0304 39.2598L89.088 39.9675L87.1184 40.1294L87.2775 42.0578L89.2443 41.896L89.302 42.6037L84.7099 42.9795L84.6523 42.2718L86.6328 42.1099L86.4737 40.1815L84.4932 40.3433L84.4355 39.6356L84.4383 39.6383Z" fill="#191A23"/>
<path d="M84.7492 43.8184L89.3166 45.2722L89.2809 46.5231L84.6367 47.6945L84.6587 46.9648L85.7532 46.6932L85.8081 44.8909L84.73 44.5563L84.7519 43.8184H84.7492ZM86.4555 45.0885L86.4116 46.5369L88.853 45.9388V45.8346L86.4555 45.0912V45.0885Z" fill="#191A23"/>
<path d="M84.2407 50.0564C84.2874 49.7135 84.3889 49.4173 84.548 49.1676C84.7071 48.918 84.9128 48.7369 85.1707 48.619C85.4285 48.501 85.7275 48.4654 86.065 48.512L86.2268 48.534L86.1308 49.2307L85.9689 49.2088C85.648 49.1649 85.3929 49.228 85.2036 49.4008C85.0171 49.5709 84.9018 49.8178 84.8552 50.1415C84.8113 50.4679 84.847 50.723 84.9595 50.9068C85.0719 51.0906 85.2393 51.1976 85.456 51.2278C85.5986 51.247 85.7221 51.225 85.8236 51.1592C85.9251 51.0933 86.0128 50.9918 86.0869 50.8574C86.161 50.723 86.235 50.5557 86.3118 50.3637L86.4024 50.1305C86.5121 49.8479 86.6328 49.6065 86.7645 49.4063C86.8961 49.206 87.0553 49.0579 87.2418 48.9619C87.4283 48.8686 87.6533 48.8384 87.9166 48.8741C88.1854 48.9098 88.4076 49.0085 88.5805 49.1676C88.7533 49.3267 88.8767 49.5297 88.948 49.7794C89.0194 50.029 89.0358 50.3115 88.9919 50.6297C88.948 50.948 88.8548 51.2223 88.7121 51.4582C88.5695 51.6941 88.3802 51.8697 88.1498 51.9821C87.9166 52.0973 87.6395 52.1303 87.3186 52.0864L87.0827 52.0535L87.1787 51.3567L87.4146 51.3896C87.6094 51.417 87.774 51.3978 87.9084 51.3347C88.0401 51.2716 88.147 51.1702 88.2211 51.0357C88.2979 50.8986 88.3473 50.7367 88.3747 50.5447C88.4131 50.2676 88.3857 50.0427 88.2897 49.8726C88.1964 49.7025 88.0455 49.6038 87.8425 49.5764C87.7026 49.5572 87.5847 49.5764 87.4859 49.6312C87.3872 49.6861 87.3021 49.7766 87.2281 49.8973C87.154 50.0208 87.0799 50.1771 87.0114 50.3664L86.9208 50.5996C86.8138 50.8849 86.6959 51.1372 86.5642 51.3485C86.4298 51.5597 86.268 51.7188 86.0759 51.8258C85.8839 51.9328 85.6507 51.9657 85.3764 51.93C85.1021 51.8916 84.8717 51.7901 84.6879 51.6255C84.5013 51.4609 84.3697 51.2442 84.2874 50.9754C84.2078 50.7066 84.1886 50.4021 84.238 50.0592L84.2407 50.0564Z" fill="#191A23"/>
<path d="M83.9182 52.6953L88.3896 53.8145L88.2168 54.5031L86.3021 54.023L85.833 55.8993L87.7477 56.3794L87.5749 57.0679L83.1035 55.9487L83.2763 55.2602L85.2048 55.743L85.6739 53.8667L83.7454 53.3839L83.9182 52.6953Z" fill="#191A23"/>
<path d="M82.7404 57.0684L87.0664 58.6567L86.0651 61.3834L85.4589 61.1612L86.2132 59.1038L84.9706 58.6484L84.2793 60.533L83.6731 60.3108L84.3643 58.4262L83.097 57.9599L82.3289 60.0502L81.7227 59.828L82.7349 57.0711L82.7404 57.0684Z" fill="#191A23"/>
<path d="M81.4313 60.5547L81.9992 60.8345L81.7248 61.3886L84.7231 62.8727L84.9975 62.3186L85.5626 62.5984L84.7451 64.2498C84.4735 64.8011 84.1251 65.1523 83.6999 65.3086C83.2747 65.4622 82.781 65.4019 82.2186 65.1248L81.445 64.7435C80.8827 64.4665 80.5343 64.1099 80.4026 63.6792C80.271 63.2485 80.3395 62.7575 80.6139 62.2088L81.4313 60.5574V60.5547ZM81.4176 62.0388L81.1899 62.4996C81.0144 62.8562 80.9732 63.1689 81.0665 63.4295C81.1598 63.6901 81.3874 63.9123 81.7468 64.0879L82.5615 64.4912C82.9236 64.6695 83.2363 64.7161 83.4997 64.6311C83.763 64.546 83.9825 64.3238 84.1608 63.9672L84.3885 63.5064L81.4204 62.0388H81.4176Z" fill="#191A23"/>
<path d="M78.2228 66.441L81.9755 69.1156L80.9139 70.6052C80.752 70.8329 80.56 71.0057 80.3406 71.1209C80.1211 71.2361 79.8907 71.2855 79.652 71.269C79.4134 71.2526 79.1774 71.162 78.9443 70.9947L78.8757 70.9453C78.6425 70.7807 78.4807 70.5832 78.3874 70.3583C78.2941 70.1334 78.2667 69.9002 78.3051 69.656C78.3435 69.4146 78.4423 69.1787 78.6014 68.9538L79.2515 68.0431L77.8086 67.0144L78.2201 66.4355L78.2228 66.441ZM79.7782 68.4216L79.1692 69.2747C79.0238 69.4777 78.9607 69.678 78.9827 69.8782C79.0046 70.0757 79.1061 70.2403 79.2927 70.3748L79.3475 70.4132C79.5368 70.5476 79.7288 70.5942 79.9236 70.5476C80.1184 70.5009 80.2884 70.3775 80.4311 70.1745L81.0373 69.3214L79.7782 68.4244V68.4216Z" fill="#191A23"/>
<path d="M74.524 71.0476C74.9025 70.6252 75.3195 70.3975 75.7803 70.3618C76.2412 70.3262 76.6938 70.5072 77.141 70.9105L77.9447 71.6319C78.3918 72.0324 78.625 72.4631 78.6387 72.924C78.6525 73.3848 78.4714 73.8265 78.0928 74.2489C77.7143 74.6714 77.2973 74.9018 76.8337 74.9374C76.3729 74.9759 75.9175 74.7948 75.4704 74.3916L74.6666 73.6728C74.2195 73.2723 73.989 72.8389 73.9753 72.3781C73.9616 71.9145 74.1454 71.4728 74.5212 71.0531L74.524 71.0476ZM75.0013 71.4728C74.7571 71.7444 74.6501 72.0242 74.6776 72.3122C74.705 72.6003 74.8559 72.8691 75.1302 73.116L75.9751 73.8704C76.2494 74.1172 76.532 74.2352 76.8227 74.2325C77.1135 74.227 77.3796 74.0898 77.6238 73.8182C77.8597 73.5521 77.9667 73.2751 77.9447 72.9816C77.92 72.688 77.7719 72.4192 77.4976 72.1751L76.6527 71.4207C76.3784 71.1738 76.0931 71.0558 75.7995 71.0641C75.506 71.0723 75.2399 71.2095 75.004 71.4756L75.0013 71.4728Z" fill="#191A23"/>
<path d="M71.9154 73.8301L74.5762 76.768L75.6241 75.8189L76.0576 76.2962L73.4323 78.6745L72.9989 78.1972L74.0496 77.2481L71.3887 74.3101L71.9154 73.8328V73.8301Z" fill="#191A23"/>
<path d="M70.2928 75.3086L71.9963 79.7882L70.995 80.5371L67.1875 77.6293L67.7718 77.1932L68.6633 77.8817L70.109 76.8009L69.7003 75.7503L70.29 75.3086H70.2928ZM70.3614 77.4346L69.201 78.3014L71.1898 79.8403L71.2748 79.7772L70.3614 77.4346Z" fill="#191A23"/>
<path d="M65.909 78.4023L67.9719 81.7874L69.1816 81.0523L69.5163 81.6036L66.4905 83.4471L66.1559 82.8957L67.3656 82.1605L65.3027 78.7754L65.909 78.4051V78.4023Z" fill="#191A23"/>
<path d="M61.8955 80.4847C62.4057 80.2433 62.8803 80.194 63.3192 80.3394C63.7554 80.4847 64.1037 80.8276 64.3616 81.3708L64.8252 82.3474C65.0831 82.8905 65.1297 83.3788 64.9624 83.8095C64.7978 84.2402 64.4576 84.5748 63.9474 84.819C63.4344 85.0604 62.9598 85.1097 62.5209 84.9671C62.082 84.8245 61.7336 84.4788 61.4758 83.9357L61.0149 82.9591C60.7571 82.4159 60.7132 81.9277 60.8805 81.497C61.0478 81.0663 61.388 80.7289 61.8982 80.4875L61.8955 80.4847ZM62.1698 81.0608C61.8406 81.2172 61.6321 81.4339 61.5444 81.7109C61.4566 81.988 61.4922 82.2925 61.6513 82.6272L62.1369 83.6504C62.296 83.9823 62.5072 84.2045 62.7788 84.3115C63.0476 84.4185 63.3466 84.3965 63.6758 84.2402C63.9968 84.0893 64.2025 83.8726 64.2958 83.5928C64.3863 83.313 64.3534 83.0085 64.197 82.6738L63.7115 81.6506C63.5524 81.3187 63.3384 81.0992 63.0641 80.9922C62.7898 80.8852 62.4935 80.9099 62.1725 81.0608H62.1698Z" fill="#191A23"/>
<path d="M55.7678 82.7877C56.3082 82.6341 56.78 82.6643 57.1833 82.8782C57.5865 83.0949 57.8718 83.49 58.0364 84.0688L58.3327 85.1084C58.4972 85.6872 58.4671 86.1728 58.2366 86.5705C58.0062 86.9656 57.6222 87.2426 57.0818 87.3962C56.5496 87.5471 56.097 87.517 55.7239 87.3057C55.3508 87.0945 55.0902 86.7324 54.9448 86.2194L54.9339 86.181L55.6114 85.9862L55.6279 86.0439C55.7129 86.3429 55.8638 86.5651 56.0805 86.7077C56.2972 86.8504 56.5715 86.875 56.9062 86.779C57.2436 86.683 57.4768 86.5047 57.6085 86.2469C57.7401 85.989 57.7538 85.6763 57.6496 85.3142L57.3451 84.2498C57.2436 83.8905 57.0681 83.6353 56.8184 83.4845C56.5688 83.3308 56.2753 83.3034 55.9379 83.3994C55.6059 83.4954 55.3837 83.6628 55.2768 83.9014C55.1698 84.1401 55.1588 84.4062 55.2411 84.7024L55.2713 84.8094L54.5937 85.0042L54.569 84.9164C54.4236 84.4062 54.4538 83.9618 54.6568 83.5832C54.8625 83.2047 55.2301 82.9413 55.7623 82.7877H55.7678Z" fill="#191A23"/>
<path d="M53.1448 83.5508L53.9431 88.0907L53.2436 88.2142L52.5578 84.3106L50.3742 84.6947L50.2617 84.0583L53.1475 83.5508H53.1448Z" fill="#191A23"/>
<path d="M47.788 84.1844C48.1501 84.1597 48.4683 84.2036 48.7371 84.3161C49.006 84.4285 49.2227 84.6041 49.3818 84.8428C49.5409 85.0787 49.6341 85.3749 49.6588 85.7316L49.8728 88.7518L49.1568 88.8012L48.9429 85.7617C48.9209 85.438 48.8139 85.1939 48.6219 85.032C48.4299 84.8702 48.1665 84.7989 47.8346 84.8236C47.5027 84.8482 47.2531 84.9525 47.0857 85.1418C46.9184 85.3283 46.8471 85.5862 46.869 85.9099L47.083 88.9493L46.3725 88.9987L46.1585 85.9784C46.1338 85.6246 46.1832 85.3173 46.3039 85.0595C46.4246 84.8016 46.6139 84.5986 46.869 84.4477C47.1214 84.2969 47.4286 84.2091 47.788 84.1844Z" fill="#191A23"/>
<path d="M45.0817 84.4179L45.0542 85.0488L44.437 85.0214L44.2889 88.3626L44.9061 88.39L44.8787 89.0209L42.5442 88.9167C42.2672 88.9057 42.0285 88.8454 41.8282 88.7439C41.6253 88.6396 41.4716 88.4997 41.3619 88.3214C41.2549 88.1431 41.2055 87.9346 41.2138 87.6987V87.6329C41.2275 87.4217 41.2741 87.2516 41.3592 87.1199C41.4442 86.9882 41.543 86.8867 41.6582 86.8182C41.7734 86.7496 41.8831 86.7002 41.9846 86.6755L41.9901 86.5713C41.8913 86.5411 41.7844 86.4835 41.6719 86.4012C41.5594 86.3189 41.4661 86.2092 41.3893 86.0693C41.3153 85.9294 41.2824 85.7511 41.2906 85.5316V85.4658C41.3043 85.2107 41.3729 84.9967 41.4991 84.8239C41.6252 84.6483 41.7953 84.5194 42.0066 84.4316C42.2178 84.3438 42.4619 84.3054 42.7335 84.3191L45.0817 84.4234V84.4179ZM43.6305 87.002L42.7033 86.9608C42.4811 86.9498 42.2973 86.9992 42.1574 87.1034C42.0175 87.2104 41.9407 87.3586 41.9325 87.5506V87.6164C41.9215 87.8084 41.9819 87.9648 42.1108 88.0828C42.2397 88.2007 42.418 88.2638 42.6457 88.2748L43.5729 88.3159L43.6305 87.002ZM43.7183 85.0022L42.7911 84.961C42.5552 84.9501 42.3659 84.9994 42.226 85.1064C42.0861 85.2134 42.0093 85.3698 42.0011 85.57V85.6276C41.9901 85.8306 42.0504 85.9897 42.1794 86.1104C42.3083 86.2311 42.4921 86.297 42.7335 86.3052L43.6607 86.3463L43.721 84.9967L43.7183 85.0022Z" fill="#191A23"/>
<path d="M40.0672 85.4601L39.6585 88.6669L38.9727 88.5791L39.3814 85.3723L40.0672 85.4601ZM39.9081 83.9596C40.0617 83.9788 40.1824 84.0446 40.2702 84.1598C40.3607 84.2723 40.3936 84.4067 40.3744 84.5658C40.3552 84.7249 40.2866 84.8429 40.1714 84.9279C40.0562 85.013 39.9245 85.0459 39.7709 85.0267C39.6173 85.0075 39.4966 84.9416 39.4088 84.8264C39.3183 84.714 39.2854 84.5795 39.3046 84.4287C39.3238 84.2723 39.3924 84.1489 39.5076 84.0638C39.6228 83.976 39.7572 83.9431 39.9081 83.9623V83.9596Z" fill="#191A23"/>
<path d="M35.8507 84.7088C36.0015 84.7417 36.114 84.8212 36.1936 84.9419C36.2731 85.0626 36.2923 85.1998 36.2594 85.3534C36.2237 85.507 36.1469 85.6223 36.0235 85.6963C35.9 85.7704 35.7656 85.7896 35.6147 85.7567C35.4639 85.7238 35.3514 85.6442 35.2718 85.5235C35.1923 85.4028 35.1703 85.2656 35.206 85.1175C35.2417 84.9639 35.3212 84.8487 35.4419 84.7719C35.5626 84.6951 35.6998 84.6759 35.8507 84.7088Z" fill="#191A23"/>
</svg>
