<svg width="116" height="102" viewBox="0 0 116 102" fill="none" xmlns="http://www.w3.org/2000/svg">
<g id="openness" clip-path="url(#clip0_1309_11194)">
<g id="Clip path group">
<mask id="mask0_1309_11194" style="mask-type:luminance" maskUnits="userSpaceOnUse" x="67" y="52" width="33" height="19">
<g id="clippath">
<path id="Vector" d="M68.8891 57.941L89.4391 69.811C91.5091 71.011 95.1391 70.861 97.5291 69.471C99.9291 68.091 100.189 65.991 98.1091 64.801L77.5591 52.931C75.4891 51.731 71.8591 51.881 69.4691 53.271C67.0691 54.651 66.8091 56.751 68.8891 57.941Z" fill="white"/>
</g>
</mask>
<g mask="url(#mask0_1309_11194)">
<g id="Group">
<path id="Vector_2" d="M89.7463 45.6647L53.4238 66.6523L53.729 67.1805L90.0515 46.1928L89.7463 45.6647Z" fill="#150035"/>
<path id="Vector_3" d="M91.4199 46.5538L55.0938 67.5352L55.3988 68.0634L91.7249 47.082L91.4199 46.5538Z" fill="#150035"/>
<path id="Vector_4" d="M92.9277 47.503L56.6016 68.4844L56.9067 69.0126L93.2328 48.0313L92.9277 47.503Z" fill="#150035"/>
<path id="Vector_5" d="M94.6227 48.3766L58.293 69.3516L58.598 69.8798L94.9277 48.9048L94.6227 48.3766Z" fill="#150035"/>
<path id="Vector_6" d="M96.0173 49.3609L59.6875 70.3359L59.9925 70.8642L96.3223 49.8892L96.0173 49.3609Z" fill="#150035"/>
<path id="Vector_7" d="M97.6833 50.2359L61.3535 71.2109L61.6585 71.7392L97.9883 50.7642L97.6833 50.2359Z" fill="#150035"/>
<path id="Vector_8" d="M99.197 51.1852L62.8672 72.1602L63.1722 72.6884L99.502 51.7134L99.197 51.1852Z" fill="#150035"/>
<path id="Vector_9" d="M100.881 52.0343L64.5547 73.0156L64.8598 73.5438L101.186 52.5625L100.881 52.0343Z" fill="#150035"/>
<path id="Vector_10" d="M102.393 52.9913L66.0664 73.9727L66.3715 74.5009L102.698 53.5195L102.393 52.9913Z" fill="#150035"/>
<path id="Vector_11" d="M104.086 53.8805L67.7559 74.8555L68.0609 75.3837L104.391 54.4087L104.086 53.8805Z" fill="#150035"/>
<path id="Vector_12" d="M105.599 54.8258L69.2695 75.8008L69.5745 76.3291L105.904 55.3541L105.599 54.8258Z" fill="#150035"/>
<path id="Vector_13" d="M107.283 55.6852L70.9531 76.6602L71.2581 77.1884L107.588 56.2134L107.283 55.6852Z" fill="#150035"/>
<path id="Vector_14" d="M108.685 56.6656L72.3555 77.6406L72.6605 78.1689L108.99 57.1939L108.685 56.6656Z" fill="#150035"/>
<path id="Vector_15" d="M110.344 57.5343L74.0176 78.5156L74.3227 79.0438L110.649 58.0625L110.344 57.5343Z" fill="#150035"/>
<path id="Vector_16" d="M111.855 58.4835L75.5293 79.4648L75.8344 79.9931L112.16 59.0117L111.855 58.4835Z" fill="#150035"/>
<path id="Vector_17" d="M113.552 59.3688L77.2227 80.3438L77.5277 80.872L113.857 59.897L113.552 59.3688Z" fill="#150035"/>
<path id="Vector_18" d="M115.052 60.3141L78.7227 81.2891L79.0277 81.8173L115.357 60.8423L115.052 60.3141Z" fill="#150035"/>
<path id="Vector_19" d="M83.2966 42.0953L46.9668 63.0703L47.2718 63.5986L83.6016 42.6236L83.2966 42.0953Z" fill="#150035"/>
<path id="Vector_20" d="M84.9589 42.9679L48.6328 63.9492L48.9379 64.4774L85.264 43.4961L84.9589 42.9679Z" fill="#150035"/>
<path id="Vector_21" d="M86.4667 43.9054L50.1406 64.8867L50.4457 65.4149L86.7718 44.4336L86.4667 43.9054Z" fill="#150035"/>
<path id="Vector_22" d="M88.1559 44.7906L51.8262 65.7656L52.1312 66.2939L88.4609 45.3189L88.1559 44.7906Z" fill="#150035"/>
<path id="Vector_23" d="M89.6637 45.732L53.334 66.707L53.639 67.2353L89.9687 46.2603L89.6637 45.732Z" fill="#150035"/>
</g>
</g>
</g>
<path id="Vector_24" d="M91.7302 12.109L72.6402 1.089C71.5502 0.458999 70.5602 0.378999 69.8302 0.748999L63.6002 4.589C63.5702 4.609 63.5602 4.639 63.5702 4.669C63.8502 5.249 66.4402 10.669 66.6702 11.669C66.7702 12.089 67.5802 16.229 68.5202 21.059C68.5202 21.059 68.5202 21.059 68.5202 21.069V23.489C68.5202 24.849 69.0102 26.349 69.8002 27.669C69.8002 27.669 69.8002 27.679 69.8002 27.689C70.7802 32.719 71.6102 37.019 71.6302 37.129L80.4002 40.079H81.0202C81.0202 40.079 81.0602 40.019 81.0502 39.989L80.5702 38.629C80.5702 38.629 80.5702 38.629 80.5702 38.619C80.4402 37.969 80.3502 37.239 80.3102 36.509L88.5502 45.669C88.5502 45.669 88.6102 45.699 88.6402 45.679L94.6602 41.959C94.6602 41.959 94.7202 41.919 94.7502 41.899C95.4602 41.449 95.9002 40.549 95.9002 39.269V19.289C95.9002 16.649 94.0302 13.399 91.7402 12.079L91.7302 12.109Z" fill="#FBB937"/>
<path id="Vector_25" d="M88.5998 46.2406C88.4298 46.2406 88.2698 46.1706 88.1498 46.0406L81.0198 38.1106C81.0398 38.2506 81.0698 38.4006 81.0998 38.5406L81.5598 39.8406C81.6498 40.1106 81.5398 40.4106 81.2998 40.5506L81.1798 40.6206L80.3298 40.6406L71.2198 37.5706L71.1398 37.3206L70.9198 36.2206L69.3098 27.8906C68.4598 26.4406 67.9998 24.8906 67.9998 23.5106V21.1306C66.8998 15.4706 66.2498 12.1606 66.1598 11.8106C65.9998 11.1406 64.5098 7.87065 63.0998 4.92065C62.9698 4.64065 63.0698 4.32064 63.3298 4.16065L69.8498 0.110645L69.8998 0.150645C70.7798 -0.149355 71.8298 0.0106454 72.9098 0.630645L91.9898 11.6506C94.4298 13.0606 96.4198 16.5006 96.4198 19.3106V39.2906C96.4198 40.7106 95.9198 41.8006 95.0298 42.3706C94.9698 42.4106 94.9398 42.4306 94.8998 42.4506L88.9098 46.1506C88.8098 46.2106 88.6998 46.2406 88.5898 46.2406H88.5998ZM79.6998 35.0506L88.6798 45.0406L94.3698 41.5206L94.7398 41.9106L94.4598 41.4606C95.0398 41.0906 95.3598 40.3206 95.3598 39.2806V19.3006C95.3598 16.8606 93.5798 13.7706 91.4598 12.5506L72.3798 1.55065C71.4898 1.04065 70.6698 0.920645 70.0698 1.23065L70.0298 1.25065L64.2298 4.83065C65.0498 6.56065 66.9698 10.6406 67.1898 11.5606C67.2998 12.0306 68.2598 16.9406 69.0398 20.9706V21.0706L69.0498 23.5006C69.0498 24.7006 69.4898 26.1306 70.2598 27.4106L70.3298 27.5906L72.0998 36.7506L80.3298 39.5206L80.0598 38.7406C79.9198 38.0106 79.8198 37.2606 79.7898 36.5606L79.7098 35.0606L79.6998 35.0506Z" fill="#150035"/>
<path id="Vector_26" d="M91.7102 12.1097L73.2402 1.42969L64.2402 7.07969L83.9702 17.5397L87.9902 18.1797L94.1802 14.4997C93.4902 13.4997 92.6302 12.6397 91.7002 12.1097H91.7102Z" fill="white"/>
<path id="Vector_27" d="M88.1095 18.7303L83.7295 18.0103L63.1895 7.12031L73.2295 0.820312L91.9795 11.6503C92.9395 12.2103 93.8595 13.0903 94.6295 14.2003L94.9495 14.6703L88.1095 18.7403V18.7303ZM84.1495 17.0303L87.8995 17.6203L93.4195 14.3403C92.8195 13.5703 92.1395 12.9603 91.4495 12.5603L73.2595 2.04031L65.3095 7.03031L84.1595 17.0203L84.1495 17.0303Z" fill="#150035"/>
<path id="Vector_28" d="M89.55 21.4608C89.55 21.4608 81.82 23.2808 81.32 23.4708C80.91 23.6308 73.34 29.7308 70.75 32.5908C71.27 35.2808 78.89 39.9508 78.89 39.9608L81.8 47.0008L88.35 43.1208L88.54 45.6908C88.54 45.6908 88.59 45.6908 88.62 45.7008L94.64 41.9808C94.64 41.9808 94.7 41.9408 94.73 41.9208C95.44 41.4708 95.88 40.5708 95.88 39.2908V19.3108C95.88 18.8208 95.82 18.3108 95.7 17.8008L89.54 21.4608H89.55Z" fill="#150035"/>
<path id="Vector_29" d="M95.0103 20.5387L90.4355 23.3125L90.9851 24.2189L95.5599 21.4451L95.0103 20.5387Z" fill="#FBB937"/>
<path id="Vector_30" d="M95.0122 39.0035L90.4375 41.7773L90.9871 42.6837L95.5618 39.9099L95.0122 39.0035Z" fill="#FBB937"/>
<path id="Vector_31" d="M66.5091 4.87815L85.6291 15.9181C87.9091 17.2381 89.7591 20.4381 89.7591 23.0681V43.0882C89.7591 45.7182 87.9091 46.7882 85.6291 45.4682L83.4491 44.2081C83.0591 43.9781 82.7191 44.1081 82.6391 44.5081C82.3991 45.7081 81.5491 47.8881 78.4491 46.6181C77.8491 46.3681 77.3691 45.4282 77.5391 44.8582C77.7591 44.1682 77.9791 43.1781 77.9791 42.0081C77.9791 41.4881 77.6091 40.8382 77.1491 40.5782L66.4991 34.4282C64.2191 33.1082 62.3691 29.9081 62.3691 27.2782V7.25815C62.3691 4.62815 64.2191 3.55815 66.4991 4.87815H66.5091Z" fill="#FBB937"/>
<path id="Vector_32" d="M80.1494 47.531C79.5794 47.531 78.9394 47.391 78.2494 47.101C77.3894 46.741 76.7794 45.531 77.0394 44.691C77.2294 44.091 77.4494 43.1411 77.4594 41.9911C77.4594 41.661 77.1894 41.191 76.8994 41.021L66.2494 34.871C63.7894 33.451 61.8594 30.111 61.8594 27.261V7.26105C61.8594 5.79105 62.3794 4.68105 63.3294 4.13105C64.2794 3.58105 65.4994 3.68105 66.7794 4.42105L85.8994 15.461C88.3594 16.881 90.2894 20.221 90.2894 23.071V43.091C90.2894 44.5611 89.7694 45.6711 88.8194 46.2211C87.8694 46.771 86.6494 46.6711 85.3694 45.931L83.1894 44.671C83.1894 44.671 83.1694 44.661 83.1594 44.6511C82.9694 45.541 82.5394 46.6511 81.5094 47.201C81.1094 47.4211 80.6494 47.521 80.1494 47.521V47.531ZM64.6694 4.84105C64.3694 4.84105 64.0894 4.91105 63.8594 5.04105C63.2494 5.39105 62.9194 6.18105 62.9194 7.25105V27.271C62.9194 29.731 64.6494 32.731 66.7794 33.961L77.4294 40.111C78.0594 40.4711 78.5294 41.281 78.5194 42.001C78.5194 43.281 78.2594 44.341 78.0494 45.011C77.9594 45.301 78.2794 45.971 78.6494 46.121C79.6394 46.531 80.4294 46.5811 80.9994 46.271C81.7294 45.8811 82.0194 44.931 82.1194 44.4011C82.1894 44.0511 82.3894 43.7811 82.6794 43.6511C82.9894 43.5111 83.3594 43.551 83.7094 43.751L85.8894 45.011C86.8194 45.551 87.6694 45.651 88.2794 45.301C88.8894 44.951 89.2194 44.161 89.2194 43.091V23.071C89.2194 20.611 87.4894 17.611 85.3594 16.381L66.2394 5.34105C65.6694 5.01105 65.1294 4.85105 64.6594 4.85105L64.6694 4.84105Z" fill="#150035"/>
<path id="Vector_33" d="M70.12 20.6107C70.12 20.6107 68.61 20.7007 68.86 24.2207C69.11 27.7407 70.4 29.3807 70.4 29.3807L73.33 30.3907C73.33 30.3907 73.39 30.4807 73.5 30.6407C75.34 33.2907 77.88 34.7107 79.73 34.1907L80.85 33.8807L80.63 26.2907C80.63 26.2907 79 24.9607 78.23 23.5207C77.46 22.0807 78.48 21.9207 78.41 20.2107C78.35 18.5007 77.09 15.5007 75.76 15.4807C74.43 15.4607 75.02 16.9407 75.3 18.3107C75.58 19.6807 74.87 20.9407 73.85 21.4607C72.83 21.9807 72.56 22.5607 72.56 22.5607C72.56 22.5607 71.97 21.4807 70.13 20.6307L70.12 20.6107Z" fill="white"/>
<path id="Vector_34" d="M78.92 34.8214C76.99 34.8214 74.74 33.3614 73.05 30.9414C73.02 30.9014 73 30.8614 72.98 30.8314L70.08 29.8214L69.98 29.7014C69.92 29.6314 68.58 27.8914 68.33 24.2514C68.21 22.5614 68.46 21.3414 69.08 20.6414C69.52 20.1314 70 20.0814 70.09 20.0814H70.22L70.34 20.1314C71.46 20.6514 72.16 21.2614 72.56 21.6914C72.8 21.4714 73.13 21.2114 73.6 20.9714C74.36 20.5814 75.01 19.5814 74.77 18.4014C74.73 18.2014 74.68 17.9914 74.63 17.7814C74.41 16.8414 74.2 15.9514 74.67 15.3814C74.91 15.0814 75.3 14.9414 75.76 14.9414C77.51 14.9614 78.86 18.3514 78.93 20.1814C78.96 21.0114 78.77 21.5214 78.61 21.9314C78.43 22.4114 78.35 22.6314 78.68 23.2514C79.39 24.5814 80.93 25.8514 80.95 25.8614L81.14 26.0114L81.37 34.2614L79.85 34.6814C79.55 34.7614 79.24 34.8014 78.91 34.8014L78.92 34.8214ZM70.73 28.9314L73.67 29.9514L73.77 30.1114C73.77 30.1114 73.83 30.2014 73.92 30.3414C75.61 32.7714 77.93 34.1414 79.57 33.6814L80.29 33.4814L80.09 26.5414C79.62 26.1314 78.4 25.0014 77.74 23.7714C77.18 22.7314 77.4 22.1414 77.61 21.5814C77.74 21.2214 77.88 20.8514 77.86 20.2414C77.8 18.5214 76.55 16.0314 75.73 16.0214C75.54 15.9914 75.49 16.0514 75.48 16.0714C75.34 16.2414 75.53 17.0714 75.65 17.5714C75.7 17.7814 75.75 18.0014 75.79 18.2214C76.09 19.7214 75.37 21.2814 74.06 21.9414C73.25 22.3514 73 22.8014 73 22.8014L72.54 23.6714L72.06 22.8114C72.06 22.8114 71.55 21.9314 70.05 21.1914C69.74 21.3614 69.21 22.1014 69.36 24.2014C69.55 26.9814 70.44 28.5314 70.71 28.9514L70.73 28.9314Z" fill="#150035"/>
<path id="Vector_35" d="M72.8604 30.6398C72.2904 29.5798 72.1604 27.9898 72.1504 27.9298L73.2004 27.8398C73.2004 27.8398 73.3204 29.2698 73.7904 30.1398L72.8604 30.6398Z" fill="#150035"/>
<path id="Vector_36" d="M72.8706 24.1083L71.8105 24.0783C71.8305 23.1183 71.9406 22.4983 72.1206 22.2383L72.9806 22.8483C72.9406 22.9483 72.8805 23.5583 72.8605 24.1083H72.8706Z" fill="#150035"/>
<path id="Vector_37" d="M82.2498 29.9585L78.5598 27.8285C77.9798 27.4985 77.5098 26.5985 77.5098 25.8285C77.5098 25.0585 77.9798 24.6985 78.5598 25.0385L82.2498 27.1685C82.8298 27.4985 83.2998 28.3985 83.2998 29.1685C83.2998 29.9385 82.8298 30.2985 82.2498 29.9585Z" fill="white"/>
<path id="Vector_38" d="M82.6702 30.6188C82.4502 30.6188 82.2102 30.5488 81.9902 30.4188L78.3002 28.2888C77.5502 27.8588 76.9902 26.7988 76.9902 25.8288C76.9902 25.2288 77.2202 24.7488 77.6202 24.5188C77.9702 24.3088 78.4202 24.3288 78.8302 24.5788L82.5202 26.7088C83.2702 27.1388 83.8302 28.1988 83.8302 29.1688C83.8302 29.7688 83.6002 30.2488 83.2002 30.4788C83.0402 30.5688 82.8602 30.6188 82.6702 30.6188ZM78.1402 25.4388C78.1202 25.4488 78.0402 25.5588 78.0402 25.8288C78.0402 26.4088 78.4102 27.1388 78.8202 27.3788L82.5102 29.5088C82.6002 29.5588 82.6602 29.5688 82.6702 29.5588C82.6902 29.5488 82.7702 29.4388 82.7702 29.1688C82.7702 28.5888 82.4002 27.8588 81.9902 27.6188L78.3002 25.4888C78.2202 25.4388 78.1702 25.4388 78.1502 25.4388H78.1402Z" fill="#150035"/>
<path id="Vector_39" d="M82.0092 32.1317L78.8092 30.2817C78.3292 30.0017 77.9492 29.2617 77.9492 28.6317C77.9492 27.9917 78.3392 27.7017 78.8092 27.9817L82.0092 29.8317C82.4892 30.1117 82.8692 30.8517 82.8692 31.4817C82.8692 32.1217 82.4792 32.4117 82.0092 32.1317Z" fill="white"/>
<path id="Vector_40" d="M82.3502 32.7597C82.1502 32.7597 81.9402 32.6997 81.7402 32.5897L78.5402 30.7397C77.9002 30.3697 77.4102 29.4597 77.4102 28.6297C77.4102 28.0997 77.6202 27.6797 77.9702 27.4697C78.2902 27.2797 78.6902 27.2997 79.0602 27.5197L82.2602 29.3697C82.9002 29.7397 83.3902 30.6497 83.3902 31.4797C83.3902 32.0097 83.1802 32.4297 82.8302 32.6397C82.6802 32.7297 82.5201 32.7697 82.3401 32.7697L82.3502 32.7597ZM82.2701 31.6697C82.2701 31.6697 82.3202 31.6897 82.3302 31.6997C82.3102 31.6797 82.3302 31.5997 82.3302 31.4797C82.3302 30.9997 82.0102 30.4497 81.7302 30.2897L78.5302 28.4397C78.5302 28.4397 78.4802 28.4197 78.4702 28.4097C78.4902 28.4297 78.4702 28.5097 78.4702 28.6297C78.4702 29.1097 78.7902 29.6597 79.0702 29.8197L82.2701 31.6697Z" fill="#150035"/>
<path id="Vector_41" d="M81.6392 34.2203L78.8092 32.5903C78.3292 32.3103 77.9492 31.5703 77.9492 30.9403C77.9492 30.3003 78.3392 30.0103 78.8092 30.2903L81.6392 31.9203C82.1192 32.2003 82.4992 32.9403 82.4992 33.5703C82.4992 34.2103 82.1092 34.5003 81.6392 34.2203Z" fill="white"/>
<path id="Vector_42" d="M81.9802 34.8483C81.7802 34.8483 81.5702 34.7883 81.3702 34.6783L78.5402 33.0483C77.9002 32.6783 77.4102 31.7683 77.4102 30.9383C77.4102 30.4083 77.6202 29.9883 77.9702 29.7783C78.2902 29.5883 78.6902 29.6083 79.0602 29.8283L81.8902 31.4583C82.5302 31.8283 83.0201 32.7383 83.0201 33.5683C83.0201 34.0983 82.8102 34.5183 82.4602 34.7283C82.3102 34.8183 82.1502 34.8583 81.9702 34.8583L81.9802 34.8483ZM81.9002 33.7583C81.9002 33.7583 81.9502 33.7783 81.9602 33.7883C81.9402 33.7683 81.9602 33.6883 81.9602 33.5683C81.9602 33.0783 81.6402 32.5383 81.3602 32.3783L78.5302 30.7483C78.5302 30.7483 78.4802 30.7283 78.4702 30.7183C78.4902 30.7383 78.4702 30.8183 78.4702 30.9383C78.4702 31.4183 78.7902 31.9683 79.0702 32.1283L81.9002 33.7583Z" fill="#150035"/>
<path id="Vector_43" d="M81.1393 36.2403L79.1393 35.0903C78.6593 34.8103 78.2793 34.0703 78.2793 33.4403C78.2793 32.8003 78.6693 32.5103 79.1393 32.7903L81.1393 33.9403C81.6193 34.2203 81.9993 34.9603 81.9993 35.5903C81.9993 36.2303 81.6093 36.5203 81.1393 36.2403Z" fill="white"/>
<path id="Vector_44" d="M81.49 36.8683C81.29 36.8683 81.08 36.8083 80.88 36.6983L78.88 35.5483C78.24 35.1783 77.75 34.2683 77.75 33.4383C77.75 32.9083 77.96 32.4883 78.31 32.2783C78.63 32.0883 79.03 32.1083 79.4 32.3283L81.4 33.4783C82.04 33.8483 82.53 34.7583 82.53 35.5883C82.53 36.1183 82.32 36.5383 81.97 36.7483C81.82 36.8383 81.66 36.8783 81.48 36.8783L81.49 36.8683ZM81.41 35.7783C81.41 35.7783 81.46 35.7983 81.47 35.8083C81.45 35.7883 81.47 35.7083 81.47 35.5883C81.47 35.0983 81.15 34.5583 80.87 34.3883L78.87 33.2383C78.87 33.2383 78.82 33.2183 78.81 33.2083C78.83 33.2283 78.81 33.3083 78.81 33.4283C78.81 33.9083 79.13 34.4583 79.41 34.6183L81.41 35.7683V35.7783Z" fill="#150035"/>
<path id="Vector_45" d="M80.6894 86.2388C80.6894 81.5388 77.3894 75.8288 73.3194 73.4788C72.8894 73.2288 72.4594 73.0388 72.0494 72.8788C72.1894 72.1588 72.2694 71.3788 72.2694 70.5288C72.2694 63.7588 67.5194 55.5388 61.6594 52.1588C59.9294 51.1588 58.2994 50.7088 56.8494 50.7188C55.6994 41.0788 49.0194 30.3088 40.9294 25.6388C36.4594 23.0588 32.4994 22.7788 29.5794 24.4888L19.0494 31.0688L22.2894 36.5388C22.1894 36.4788 22.0894 36.3988 21.9894 36.3388C18.9294 34.5688 16.1794 34.4888 14.2394 35.7688L3.85938 42.2388L7.96937 49.9988L13.4894 50.9988C15.4194 55.1088 18.4994 58.8288 21.9894 60.8388L67.5594 87.1488L61.9694 90.6188L67.9494 97.6088L78.7094 90.8888L78.9594 90.6888C80.1894 89.8788 80.6994 88.4788 80.6994 86.2288L80.6894 86.2388Z" fill="#FBB937"/>
<path id="Vector_46" d="M67.8009 98.4791L60.9609 90.4691L66.2609 87.1791L21.6409 61.4191C18.2409 59.4591 15.1109 55.8891 13.0209 51.5991L7.51094 50.6091L2.96094 42.0191L14.4009 34.8691L14.4209 34.8991C16.1409 34.0291 18.2909 34.0491 20.5509 34.9291L18.1409 30.8591L29.2609 23.9091C32.4409 22.0391 36.7109 22.4491 41.2509 25.0691C49.3109 29.7291 56.0509 40.1691 57.4209 50.0791C58.8809 50.1691 60.4109 50.6791 61.9809 51.5891C68.0109 55.0691 72.9209 63.5691 72.9209 70.5291C72.9209 71.2091 72.8709 71.8591 72.7809 72.4691C73.0809 72.5991 73.3609 72.7491 73.6409 72.9091C77.8909 75.3591 81.3409 81.3391 81.3409 86.2391C81.3409 88.7791 80.7109 90.3291 79.3009 91.2491L79.1009 91.4191L67.8009 98.4891V98.4791ZM62.9509 90.7791L68.0609 96.7591L78.5309 90.1791C79.5909 89.4791 80.0209 88.3091 80.0209 86.2291C80.0209 81.7491 76.8609 76.2791 72.9809 74.0291C72.6109 73.8191 72.2309 73.6391 71.8109 73.4791L71.2909 73.2791L71.4009 72.7291C71.5409 72.0491 71.6009 71.2991 71.6009 70.5091C71.6009 63.9591 66.9909 55.9791 61.3209 52.7091C59.7709 51.8091 58.2909 51.3591 56.9209 51.3591C56.9009 51.3591 56.2609 51.3591 56.2609 51.3591L56.1909 50.7691C55.0609 41.2391 48.3509 30.6591 40.5909 26.1791C36.4809 23.8091 32.6809 23.3991 29.9009 25.0291L19.9209 31.2591L24.1709 38.4491C24.1709 38.4491 21.6709 36.8991 21.6309 36.8791C18.8909 35.2991 16.3909 35.0891 14.5709 36.2891L14.0209 36.6491L14.0009 36.6291L4.69094 42.4491L8.37094 49.3891L13.9109 50.3891L14.0509 50.6991C15.9909 54.8291 19.0709 58.3991 22.2809 60.2491L68.8009 87.1091L62.9309 90.7591L62.9509 90.7791Z" fill="#150035"/>
<path id="Vector_47" d="M73.5001 73.7717C73.0701 73.5217 72.6401 73.3317 72.2301 73.1717C72.2501 73.0517 71.7901 73.0117 71.7901 73.0117L61.0801 79.7017L57.3301 81.4517L65.1201 85.9517L66.9801 84.3817L77.6801 77.6817C76.4901 76.0517 75.0601 74.6717 73.5101 73.7817L73.5001 73.7717Z" fill="white"/>
<path id="Vector_48" d="M65.1902 86.7516L55.9102 81.3916L60.8102 79.1116L71.6302 72.3516H71.8402C72.2902 72.4016 72.5202 72.5216 72.6602 72.6316C73.0702 72.8016 73.4602 72.9816 73.8402 73.2016C75.4102 74.1116 76.9302 75.5216 78.2102 77.2916L78.6302 77.8616L67.3302 84.9316L65.1902 86.7516ZM58.7502 81.5116L65.0402 85.1416L66.5502 83.8716L76.7102 77.5016C75.6302 76.1516 74.4202 75.0616 73.1702 74.3416C72.8002 74.1316 72.4202 73.9416 72.0002 73.7916L71.8702 73.7416L61.4302 80.2616L58.7502 81.5116Z" fill="#150035"/>
<path id="Vector_49" d="M61.4603 52.1198C59.7303 51.1198 58.1003 50.6698 56.6503 50.6798C56.6403 50.5998 56.2403 50.5898 56.2403 50.5898L33.8203 64.3598L45.4603 71.2398L49.1803 68.0498L67.2603 57.4698C65.5903 55.2498 63.6003 53.3598 61.4603 52.1198Z" fill="white"/>
<path id="Vector_50" d="M45.5408 72.0497L32.5508 64.3697L56.0608 49.9297H56.2508C56.4808 49.9297 56.6708 49.9697 56.8208 50.0297C58.3908 50.0497 60.0608 50.5597 61.7808 51.5497C63.9208 52.7897 66.0008 54.6997 67.7808 57.0797L68.2208 57.6697L49.5608 68.5897L45.5308 72.0497H45.5408ZM35.1008 64.3497L45.4008 70.4397L48.8608 67.4897L66.2908 57.2897C64.7208 55.3197 62.9508 53.7497 61.1408 52.6997C59.5608 51.7897 58.0608 51.3297 56.6708 51.3497H56.2808L35.1108 64.3497H35.1008Z" fill="#150035"/>
<path id="Vector_51" d="M7.57984 49.2986C10.8098 49.9686 15.6398 50.9586 15.6398 50.9586L20.4098 45.6986L46.5598 30.0686C44.7998 28.2886 42.8998 26.7786 40.9098 25.6286C36.4398 23.0486 32.4598 22.7786 29.5398 24.4886L19.0298 31.0686L22.2698 36.5386C22.1698 36.4786 22.0698 36.3986 21.9698 36.3386C18.9098 34.5686 16.1598 34.4886 14.2198 35.7686L3.83984 42.2386L7.57984 49.2886V49.2986Z" fill="white"/>
<path id="Vector_52" d="M15.8805 51.6798L7.15047 49.8798L2.98047 42.0098L14.4205 34.8598L14.4405 34.8898C16.1605 34.0198 18.3105 34.0398 20.5705 34.9198L18.1605 30.8498L29.2605 23.9098C32.4605 22.0398 36.7305 22.4498 41.2705 25.0598C43.2605 26.2098 45.2005 27.7298 47.0505 29.5998L47.6405 30.1998L20.8505 46.2098L15.8905 51.6798H15.8805ZM8.02047 48.7198L15.4105 50.2398L20.0805 45.1298L45.5005 29.9398C43.9105 28.4198 42.2705 27.1698 40.5905 26.1998C36.4805 23.8298 32.6805 23.4198 29.8805 25.0598L19.9305 31.2898L24.1805 38.4798C24.1805 38.4798 21.6805 36.9298 21.6405 36.9098C18.9005 35.3298 16.4005 35.1198 14.5805 36.3198L14.0305 36.6798L14.0105 36.6598L4.70047 42.4798L8.01047 48.7198H8.02047Z" fill="#150035"/>
<path id="Vector_53" d="M56.4409 50.6317C55.8509 45.6417 53.7609 40.3517 50.7709 35.7617L32.8809 46.5117L41.8509 59.1317L45.7309 57.3117L56.4409 50.6217V50.6317Z" fill="#150035"/>
<path id="Vector_54" d="M41.6297 59.9611L31.9297 46.3111L50.9697 34.8711L51.3197 35.4011C54.4497 40.2111 56.4997 45.5911 57.0897 50.5511L57.1397 50.9611L46.0797 57.8711L41.6397 59.9611H41.6297ZM33.8297 46.7111L42.0697 58.3111L45.4497 56.7311L55.7297 50.3011C55.1297 45.8311 53.2997 41.0311 50.5597 36.6611L33.8297 46.7111Z" fill="#150035"/>
<path id="Vector_55" d="M71.8193 70.3817C71.8193 67.7717 71.1093 64.9417 69.8993 62.2617L49.7793 74.0417L57.7293 80.3117L60.8993 79.4217L71.6093 72.7317C71.7493 72.0117 71.8293 71.2317 71.8293 70.3817H71.8193Z" fill="#150035"/>
<path id="Vector_56" d="M57.5794 81.0203L48.6094 73.9503L70.1994 61.3203L70.4994 61.9903C71.7894 64.8703 72.4794 67.7703 72.4794 70.3803C72.4794 71.2503 72.3994 72.0803 72.2494 72.8503L72.1894 73.1303L61.0694 80.0403L57.5794 81.0203ZM50.9394 74.1103L57.8694 79.5703L60.6294 78.8003L71.0094 72.3203C71.1094 71.7103 71.1594 71.0603 71.1594 70.3803C71.1594 68.1603 70.6194 65.6903 69.5894 63.2003L50.9394 74.1103Z" fill="#150035"/>
<path id="Vector_57" d="M67.9307 97.6298L78.6907 90.9099L78.9407 90.7098C80.1707 89.8998 80.6807 88.4998 80.6807 86.2498C80.6807 84.7498 80.3407 83.1498 79.7507 81.5898L68.9707 88.0898L63.8307 89.4698L62.6607 90.1898L62.4707 91.2598L67.9207 97.6298H67.9307Z" fill="#150035"/>
<path id="Vector_58" d="M67.7993 98.4816L61.7793 91.4416L62.0693 89.7816L63.6593 88.8216L68.7093 87.4616L80.0793 80.6016L80.3593 81.3416C80.9893 83.0216 81.3293 84.7116 81.3293 86.2316C81.3293 88.7716 80.6993 90.3216 79.2893 91.2416L79.0893 91.4116L67.7893 98.4816H67.7993ZM63.1893 91.0616L68.0693 96.7716L78.5393 90.1916C79.5993 89.4916 80.0293 88.3216 80.0293 86.2416C80.0293 85.1016 79.8193 83.8416 79.4093 82.5616L69.1593 88.7116L64.1093 90.0716L63.2793 90.5916L63.1993 91.0616H63.1893Z" fill="#150035"/>
<path id="Vector_59" d="M11.2597 43.0405C12.3497 43.6705 13.3897 44.4605 14.3797 45.3805H14.3997C14.1897 44.0105 14.0797 42.6705 14.0997 41.3705C14.2297 31.1505 21.3597 27.2205 30.2097 32.3305C38.3097 37.0005 44.9897 47.7605 46.1297 57.4105C48.4997 57.3805 51.3797 58.6205 54.3797 61.4705C57.6697 64.6005 60.0197 68.6505 61.0397 73.0705C61.6197 75.6105 61.6797 77.7905 61.3297 79.5605C61.7397 79.7205 62.1697 79.9105 62.5997 80.1605C66.6197 82.4805 69.8897 88.0905 69.9697 92.7505C70.0497 97.5705 66.6997 99.5405 62.5197 97.1305L11.2597 67.5305C5.45968 64.1805 0.739678 56.0805 0.649678 49.3505C0.559678 42.5705 5.37968 39.6405 11.2597 43.0305V43.0405Z" fill="#FBB937"/>
<path id="Vector_60" d="M65.8895 98.83C64.7495 98.83 63.4895 98.45 62.1995 97.71L10.9395 68.11C4.89948 64.62 0.0894806 56.39 -0.000519385 49.37C-0.0505194 45.86 1.20948 43.1 3.42948 41.79C5.65948 40.48 8.55948 40.72 11.5895 42.47C12.2495 42.85 12.8995 43.29 13.5395 43.8C13.4595 42.96 13.4295 42.15 13.4395 41.37C13.5095 36.22 15.3095 32.39 18.4995 30.57C21.7295 28.73 26.0095 29.16 30.5295 31.77C38.5995 36.43 45.3295 46.87 46.7095 56.77C49.2895 56.94 52.0895 58.39 54.8295 61C58.2595 64.26 60.6295 68.39 61.6695 72.93C62.1995 75.24 62.3295 77.33 62.0595 79.16C62.3595 79.29 62.6395 79.44 62.9195 79.6C67.1495 82.04 70.5295 87.82 70.6195 92.75C70.6595 95.33 69.7895 97.27 68.1695 98.23C67.4895 98.63 66.7095 98.83 65.8795 98.83H65.8895ZM6.60948 42.28C5.68948 42.28 4.84948 42.5 4.10948 42.93C2.29948 43.99 1.27948 46.33 1.32948 49.35C1.41948 55.84 6.02948 63.75 11.6095 66.97L62.8695 96.57C64.6795 97.61 66.3295 97.8 67.5295 97.09C68.7295 96.39 69.3695 94.85 69.3295 92.77C69.2595 88.33 66.0995 82.93 62.2895 80.73C61.9195 80.52 61.5395 80.33 61.1195 80.18L60.5995 79.98L60.7095 79.43C61.0595 77.66 60.9595 75.57 60.4195 73.21C59.4295 68.92 57.1995 65.02 53.9495 61.94C51.2895 59.41 48.5295 58.07 46.1595 58.06H45.5695L45.4995 57.48C44.3695 47.94 37.6595 37.38 29.8995 32.9C25.7895 30.53 21.9795 30.1 19.1695 31.7C16.3895 33.28 14.8295 36.72 14.7695 41.38C14.7495 42.59 14.8495 43.9 15.0595 45.27L15.1295 45.73L14.3195 46.18L13.9595 45.88C12.9695 44.96 11.9595 44.2 10.9495 43.62C9.41948 42.73 7.93948 42.29 6.61948 42.29L6.60948 42.28Z" fill="#150035"/>
<path id="Vector_61" d="M38.3301 82.6213L24.8301 74.8313V48.5513C24.8301 48.5513 24.8301 48.5413 24.8401 48.5513L38.3401 56.3413V82.6213C38.3401 82.6213 38.3401 82.6313 38.3301 82.6213Z" fill="#FBB937"/>
<path id="Vector_62" d="M38.3097 83.0903L38.1197 82.9603L24.4297 75.0603V74.8203V48.3103L24.8397 48.0703L25.0497 48.1803L38.7497 56.0903V56.3303V82.8603L38.2997 83.1003L38.3097 83.0903ZM25.2397 74.5803L37.9397 81.9103V56.5503L25.2397 49.2203V74.5803Z" fill="#150035"/>
<path id="Vector_63" d="M36.19 78.5516L27 73.2416V52.6016L36.19 57.9016V78.5516Z" fill="white"/>
<path id="Vector_64" d="M36.5898 79.2489L26.5898 73.4689V51.8789L36.5898 57.6589V79.2489ZM27.3998 72.9989L35.7798 77.8389V58.1289L27.3998 53.2889V72.9989Z" fill="#150035"/>
<path id="Vector_65" d="M29.16 71.8516V53.8416L27 52.6016V73.2416L36.19 78.5516V75.9116L29.16 71.8516Z" fill="#FBB937"/>
<path id="Vector_66" d="M36.5898 79.2489L26.5898 73.4689V51.8789L29.5698 53.5989V71.6089L36.5998 75.6689V79.2489H36.5898ZM27.3998 72.9989L35.7798 77.8389V76.1389L28.7498 72.0789V54.0689L27.3998 53.2889V72.9989Z" fill="#150035"/>
<path id="Vector_67" d="M21.9991 54.7992V50.6292C21.9991 50.6292 21.9791 50.5792 21.9491 50.5792H21.3691C20.5091 50.3692 19.6091 50.3592 18.7491 50.5792H18.1691C18.1391 50.5792 18.1191 50.5992 18.1191 50.6292V54.8092C18.1191 55.2192 18.5091 55.6392 19.2991 55.8492C19.7991 55.9792 20.3391 55.9792 20.8391 55.8492C21.6191 55.6392 22.0191 55.2292 22.0191 54.8092L21.9991 54.7992Z" fill="white"/>
<path id="Vector_68" d="M20.0492 56.3492C19.7592 56.3492 19.4592 56.3092 19.1792 56.2292C18.2492 55.9792 17.6992 55.4492 17.6992 54.7992V50.2192L18.1592 50.1692H18.6992C19.5892 49.9592 20.5292 49.9592 21.4192 50.1692H22.3592L22.4092 50.6292V54.7992C22.4092 55.4492 21.8592 55.9792 20.9292 56.2292C20.6392 56.3092 20.3492 56.3492 20.0592 56.3492H20.0492ZM18.5092 50.9792V54.7992C18.5092 54.9992 18.7792 55.2792 19.3892 55.4392C19.8192 55.5592 20.2792 55.5592 20.7192 55.4392C21.3292 55.2792 21.5992 54.9992 21.5992 54.7992V50.9792H21.2792C20.4892 50.7692 19.6492 50.7692 18.8492 50.9592H18.7492L18.5192 50.9692L18.5092 50.9792Z" fill="#150035"/>
<path id="Vector_69" d="M20.2598 55.9198C20.6898 55.8898 21.1098 55.7898 21.4298 55.5998C21.8098 55.3798 21.9998 55.0898 21.9998 54.8098V50.5898H20.2598V55.9198Z" fill="#150035"/>
<path id="Vector_70" d="M21.4903 49.8206C20.7203 49.3306 19.3903 49.3306 18.6203 49.8206C17.9703 50.2306 17.9703 50.9306 18.6203 51.3406C19.3903 51.8306 20.7203 51.8306 21.4903 51.3406C22.1403 50.9306 22.1403 50.2306 21.4903 49.8206Z" fill="white"/>
<path id="Vector_71" d="M20.0505 52.1083C19.4505 52.1083 18.8605 51.9683 18.4005 51.6783C17.9705 51.4083 17.7305 51.0083 17.7305 50.5783C17.7305 50.1483 17.9805 49.7383 18.4005 49.4783C19.3105 48.9083 20.7905 48.9083 21.7005 49.4783C22.1305 49.7483 22.3705 50.1483 22.3705 50.5783C22.3705 51.0083 22.1205 51.4183 21.7005 51.6783C21.2405 51.9683 20.6505 52.1083 20.0505 52.1083ZM20.0505 49.8583C19.6005 49.8583 19.1505 49.9583 18.8305 50.1583C18.6405 50.2783 18.5405 50.4283 18.5405 50.5783C18.5405 50.7283 18.6505 50.8783 18.8305 50.9983C19.4705 51.3983 20.6305 51.3983 21.2705 50.9983C21.4605 50.8783 21.5605 50.7283 21.5605 50.5783C21.5605 50.4283 21.4505 50.2783 21.2705 50.1583C20.9505 49.9583 20.5005 49.8583 20.0505 49.8583Z" fill="#150035"/>
<path id="Vector_72" d="M20.4604 50.5814H19.6504V47.2314C19.6504 46.3714 20.1104 45.5614 20.8504 45.1214L23.2304 43.6914L23.6504 44.3914L21.2704 45.8214C20.7804 46.1214 20.4704 46.6614 20.4704 47.2414V50.5914L20.4604 50.5814Z" fill="#150035"/>
<path id="Vector_73" d="M23.6699 100.869L38.3499 92.399V82.649C38.3499 82.649 38.3499 82.639 38.3399 82.649L29.2599 87.889V91.109L26.4699 92.749V95.969L23.6799 97.629V100.839C23.6799 100.839 23.6799 100.849 23.6899 100.839L23.6699 100.869Z" fill="#150035"/>
<path id="Vector_74" d="M23.68 101.34L23.25 101.11V100.86V97.4302L23.44 97.3002L26.05 95.7402V92.5302L26.24 92.4002L28.85 90.8702V87.6301L29.08 87.5102L38.35 82.1602L38.76 82.4002V82.6402V92.6402L38.53 92.7602L23.68 101.34ZM24.06 97.8801V100.17L37.94 92.1602V83.3302L29.65 88.1202V91.3602L29.42 91.4802L26.85 92.9902V96.2001L26.66 96.3302L24.05 97.8902L24.06 97.8801Z" fill="#150035"/>
<path id="Vector_75" d="M10.1406 93.1787L23.6406 100.869H23.6506V97.6588L10.1506 89.9688H10.1406V93.1787Z" fill="#FBB937"/>
<path id="Vector_76" d="M23.6502 101.338L23.4402 101.218L9.74023 93.3983V93.1683V89.7383L10.1302 89.4883L10.3402 89.5883L24.0602 97.3983V97.6383V101.078L23.6502 101.318V101.338ZM10.5402 92.9483L23.2402 100.178V97.8883L10.5402 90.6583V92.9483Z" fill="#150035"/>
<path id="Vector_77" d="M12.9402 88.2891L26.4402 95.9791C26.4402 95.9791 26.4402 95.9891 26.4402 95.9991L23.6602 97.6591L10.1602 89.9691C10.1602 89.9691 10.1602 89.9591 10.1602 89.9491L12.9402 88.2891Z" fill="white"/>
<path id="Vector_78" d="M23.6805 98.1086L23.4705 98.0086L9.76047 90.1986L9.73047 89.7286L9.94047 89.5886L12.9205 87.8086L13.1505 87.9186L26.8405 95.7186L26.8705 96.1886L26.6605 96.3286L23.6805 98.1086ZM10.9505 89.9386L23.6505 97.1686L25.6405 95.9786L12.9405 88.7386L10.9505 89.9286V89.9386Z" fill="#150035"/>
<path id="Vector_79" d="M12.9495 85.0591L26.4495 92.7491V95.9591C26.4495 95.9591 26.4495 95.9691 26.4395 95.9591L12.9395 88.2691V85.0591C12.9395 85.0591 12.9395 85.0491 12.9495 85.0591Z" fill="#FBB937"/>
<path id="Vector_80" d="M26.4691 96.4394L26.2591 96.3394L12.5391 88.5294V88.2894V84.8494L12.9491 84.6094L13.1591 84.7294L26.8591 92.5294V92.7694V96.1994L26.4691 96.4494V96.4394ZM13.3491 88.0494L26.0491 95.2794V92.9894L13.3491 85.7594V88.0494Z" fill="#150035"/>
<path id="Vector_81" d="M15.7409 83.4102L29.2409 91.1002C29.2409 91.1002 29.2409 91.1102 29.2409 91.1202L26.4609 92.7502L12.9609 85.0602C12.9609 85.0602 12.9609 85.0502 12.9609 85.0402L15.7409 83.4102Z" fill="white"/>
<path id="Vector_82" d="M26.4395 93.2309L26.2195 93.0909L12.5595 85.3109L12.5195 84.8609L12.7095 84.7209L15.7095 82.9609L15.9395 83.0709L29.6295 90.8709L29.6595 91.3209L29.4695 91.4609L26.4395 93.2409V93.2309ZM13.7495 85.0509L26.4495 92.2809L28.4395 91.1109L15.7395 83.8809L13.7495 85.0509Z" fill="#150035"/>
<path id="Vector_83" d="M15.7405 80.1919L29.2405 87.8819V91.0919C29.2405 91.0919 29.2405 91.1019 29.2305 91.0919L15.7305 83.4019V80.1919C15.7305 80.1919 15.7305 80.1819 15.7405 80.1919Z" fill="#FBB937"/>
<path id="Vector_84" d="M29.2401 91.5705L29.0301 91.4505L15.3301 83.6505V83.4105V79.9805L15.7201 79.7305L15.9501 79.8405L29.6501 87.6405V87.8805V91.3205L29.2401 91.5605V91.5705ZM16.1301 83.1805L28.8301 90.4105V88.1205L16.1301 80.8905V83.1805Z" fill="#150035"/>
<path id="Vector_85" d="M24.8398 74.9297L38.3398 82.6197C38.3398 82.6197 38.3398 82.6297 38.3398 82.6397L29.2598 87.8797L15.7598 80.1897C15.7598 80.1897 15.7598 80.1797 15.7598 80.1697L24.8398 74.9297Z" fill="white"/>
<path id="Vector_86" d="M29.2603 88.3387L29.0603 88.2387L15.3503 80.4287L15.3203 79.9788L15.5103 79.8387L24.8203 74.4688L25.0403 74.5788L38.7503 82.3887L38.7303 82.8688L38.5303 82.9887L29.2603 88.3387ZM16.5403 80.1787L29.2403 87.4088L37.5303 82.6188L24.8303 75.3887L16.5403 80.1687V80.1787Z" fill="#150035"/>
<path id="Vector_87" d="M29.2709 83.6213L22.6309 79.7812L26.0909 77.7812L32.7309 81.6213L29.2709 83.6213Z" fill="#FBB937"/>
<path id="Vector_88" d="M29.2695 83.9797L22.0195 79.7797L26.0895 77.4297L33.3395 81.6297L29.2695 83.9797ZM23.2395 79.7797L29.2695 83.2697L32.1195 81.6197L26.0895 78.1297L23.2395 79.7797Z" fill="#150035"/>
</g>
<defs>
<clipPath id="clip0_1309_11194">
<rect width="115.38" height="101.34" fill="white"/>
</clipPath>
</defs>
</svg>
