<svg xmlns="http://www.w3.org/2000/svg" width="39" height="39" viewBox="0 0 39 39" fill="none">
  <path d="M27.9201 11.9799C27.9201 11.9799 25.8981 10.6239 22.6982 10.4236L22.253 11.6906C22.2564 11.682 20.832 11.4697 20.7395 11.4594C19.9331 11.3807 19.0736 11.3892 18.2655 11.4509C18.1713 11.4577 16.7434 11.6871 16.7434 11.6888L16.2983 10.4219C13.0984 10.6222 11.0764 11.9782 11.0764 11.9782C6.29785 19.3557 7.58707 25.4234 7.58707 25.4234C9.1879 27.1115 13.7866 28.5788 13.7866 28.5788L15.0091 26.4455L13.0538 25.5569L13.3432 24.98C15.0245 25.8206 16.9489 26.2812 18.8254 26.3822C20.5015 26.4712 22.2171 26.2127 23.8162 25.7145C24.1312 25.6169 24.4411 25.5073 24.7476 25.3857C24.8349 25.3515 25.6293 24.9577 25.6533 24.9817L25.9426 25.5587L23.9874 26.4472L25.2098 28.5805C25.2098 28.5805 29.8103 27.1133 31.4094 25.4251C31.4094 25.4251 32.6986 19.3574 27.9201 11.9799ZM15.5227 22.6909C14.3225 22.6909 13.35 21.6311 13.35 20.3247C13.35 19.0184 14.3225 17.9586 15.5227 17.9586C16.7229 17.9586 17.6954 19.0184 17.6954 20.3247C17.6954 21.6311 16.7229 22.6909 15.5227 22.6909ZM23.4755 22.6909C22.2753 22.6909 21.3028 21.6311 21.3028 20.3247C21.3028 19.0184 22.2753 17.9586 23.4755 17.9586C24.6757 17.9586 25.6481 19.0184 25.6481 20.3247C25.6481 21.6311 24.6757 22.6909 23.4755 22.6909Z" fill="#F3F3F3"/>
  <path d="M19.5 38C29.7173 38 38 29.7173 38 19.5C38 9.28273 29.7173 1 19.5 1C9.28273 1 1 9.28273 1 19.5C1 29.7173 9.28273 38 19.5 38Z" stroke="#F3F3F3" stroke-width="2" stroke-miterlimit="10"/>
</svg>
