<svg xmlns="http://www.w3.org/2000/svg" width="102" height="102" viewBox="0 0 102 102" fill="none">
  <path d="M73.7582 30.6718C73.7582 30.6718 68.2933 27.007 59.6448 26.4656L58.4417 29.8898C58.4509 29.8667 54.601 29.2929 54.3511 29.2651C52.1717 29.0522 49.8487 29.0754 47.6646 29.242C47.4101 29.2605 43.5509 29.8805 43.5509 29.8852L42.3478 26.4609C33.6994 27.0023 28.2345 30.6672 28.2345 30.6672C15.3196 50.6063 18.804 67.0056 18.804 67.0056C23.1305 71.5681 35.5595 75.5338 35.5595 75.5338L38.8635 69.7681L33.579 67.3665L34.3611 65.8071C38.9051 68.0791 44.1062 69.3239 49.1778 69.5969C53.7079 69.8375 58.3445 69.1388 62.6664 67.7923C63.5179 67.5285 64.3554 67.2323 65.1837 66.9038C65.4197 66.8113 67.5668 65.747 67.6316 65.8118L68.4136 67.3712L63.1292 69.7728L66.4331 75.5384C66.4331 75.5384 78.8667 71.5728 83.1887 67.0102C83.1887 67.0102 86.673 50.611 73.7582 30.6718ZM40.2517 59.6204C37.0079 59.6204 34.3796 56.7561 34.3796 53.2254C34.3796 49.6948 37.0079 46.8304 40.2517 46.8304C43.4954 46.8304 46.1237 49.6948 46.1237 53.2254C46.1237 56.7561 43.4954 59.6204 40.2517 59.6204ZM61.7456 59.6204C58.5018 59.6204 55.8735 56.7561 55.8735 53.2254C55.8735 49.6948 58.5018 46.8304 61.7456 46.8304C64.9894 46.8304 67.6177 49.6948 67.6177 53.2254C67.6177 56.7561 64.9894 59.6204 61.7456 59.6204Z" fill="#191A23"/>
  <path d="M51 101C78.6142 101 101 78.6142 101 51C101 23.3858 78.6142 1 51 1C23.3858 1 1 23.3858 1 51C1 78.6142 23.3858 101 51 101Z" stroke="#191A23" stroke-width="2" stroke-miterlimit="10"/>
</svg>