<svg width="276" height="269" viewBox="0 0 276 269" fill="none" xmlns="http://www.w3.org/2000/svg">
<g clip-path="url(#clip0_1348_21113)">
<path fill-rule="evenodd" clip-rule="evenodd" d="M176.86 256.877C176.86 264.11 156.364 269.999 131.167 269.999C105.97 269.999 85.4745 264.11 85.4745 256.877C85.4745 249.644 105.97 243.754 131.167 243.754C156.364 243.754 176.86 249.644 176.86 256.877Z" fill="black"/>
<path fill-rule="evenodd" clip-rule="evenodd" d="M143.309 240.278C143.309 247.517 122.424 253.406 96.7548 253.406C71.0857 253.406 50.2007 247.517 50.2007 240.278C50.2007 233.04 71.0857 227.15 96.7548 227.15C122.424 227.15 143.309 233.04 143.309 240.278Z" fill="black"/>
<path d="M88.7745 201.633C88.842 209.935 91.0939 215.959 90.6788 224.142L89.3712 233.99C89.3712 233.99 109.203 227.561 109.478 227.406C109.753 227.25 108.741 222.57 108.668 222.212C108.632 222.04 108.627 221.864 108.565 221.708C101.881 204.959 106.136 187.213 110.817 185.06C116.099 182.631 112.98 170.017 105.944 170.645C96.6926 171.465 88.6655 187.41 88.7797 201.628L88.7745 201.633Z" fill="#FB9D1C"/>
<path d="M89.3711 234.774C89.4542 234.774 89.532 234.763 89.6098 234.737C109.514 228.288 109.774 228.142 109.857 228.096C110.407 227.784 110.614 227.67 109.457 222.206L109.426 222.066C109.416 222.025 109.41 221.983 109.405 221.937C109.384 221.797 109.358 221.62 109.281 221.428C102.629 204.746 107.195 187.587 111.133 185.776C114.257 184.339 114.739 180.25 113.831 176.83C112.84 173.105 109.986 169.519 105.866 169.877C95.6652 170.785 87.8768 187.696 87.9909 201.638C88.0221 205.488 88.5202 208.866 88.9975 212.135C89.5735 216.037 90.1131 219.721 89.8952 224.069L88.5928 233.887C88.5565 234.151 88.6603 234.416 88.8678 234.587C89.0079 234.706 89.1843 234.769 89.366 234.769L89.3711 234.774ZM108.731 226.856C106.572 227.587 97.253 230.623 90.3051 232.875L91.4467 224.246C91.4467 224.246 91.4467 224.204 91.4519 224.183C91.6853 219.664 91.1042 215.726 90.5438 211.912C90.0716 208.7 89.5839 205.374 89.5527 201.633C89.4386 187.14 97.5902 172.181 106.012 171.434C109.229 171.149 111.512 174.142 112.337 177.24C113.053 179.938 112.783 183.316 110.495 184.37C105.514 186.658 100.875 204.539 107.843 222.009C107.854 222.035 107.864 222.113 107.874 222.175C107.885 222.243 107.895 222.315 107.911 222.383L107.942 222.533C108.502 225.185 108.684 226.358 108.736 226.861L108.731 226.856Z" fill="black"/>
<path d="M104.901 208.642C98.1143 213.638 90.3986 211.625 89.8537 211.454C89.1066 211.22 89.3349 212.668 89.5113 213.514C90.2896 217.172 91.6906 225.111 90.0976 228.484C87.9961 232.941 104.725 235.037 107.781 229.22C110.832 223.404 109.509 222.273 109.509 222.273C109.509 222.273 108.201 216.056 107.387 211.859C106.697 208.33 105.815 207.967 104.896 208.642H104.901Z" fill="white"/>
<path d="M98.8612 233.558C102.846 233.558 106.956 232.468 108.471 229.578C111.102 224.561 110.728 222.636 110.23 221.92C110.007 220.845 108.876 215.439 108.149 211.708C107.672 209.254 107.07 208.05 106.141 207.687C105.762 207.541 105.16 207.479 104.434 208.014C97.7716 212.922 90.1596 210.738 90.0818 210.712C89.6719 210.582 89.2723 210.66 88.9817 210.924C88.494 211.365 88.4265 212.165 88.7483 213.674C89.4436 216.959 90.9016 224.95 89.3917 228.151C89.0544 228.867 88.577 230.699 91.4672 232.136C93.1951 232.998 95.997 233.558 98.8561 233.558H98.8612ZM108.933 222.791C108.995 222.926 109.504 224.27 107.096 228.857C105.171 232.52 96.1267 232.717 92.1677 230.741C90.9483 230.133 90.4917 229.485 90.8082 228.815C92.4583 225.318 91.1818 217.623 90.2789 213.353C90.1752 212.87 90.1337 212.538 90.1233 212.32C92.0328 212.746 99.1051 213.877 105.368 209.264C105.529 209.145 105.602 209.139 105.607 209.134C105.602 209.134 106.126 209.394 106.634 211.999C107.444 216.15 108.746 222.361 108.762 222.423C108.787 222.558 108.855 222.682 108.943 222.781L108.933 222.791ZM89.6252 212.206C89.6252 212.206 89.6252 212.206 89.6303 212.206C89.6303 212.206 89.6304 212.206 89.6252 212.206Z" fill="black"/>
<path d="M110.178 219.544C111.429 219.223 110.951 223.228 111.776 224.401C115.424 229.564 114.495 237.814 114.371 241.545C114.147 248.218 97.3772 249.442 93.8852 247.689C93.8852 247.689 86.9373 248.674 85.3547 248.97C76.347 250.636 58.8295 246.096 52.3227 243.434C50.7246 242.78 50.1279 239.999 50.7246 238.25C53.2048 230.965 61.2734 216.815 81.4787 223.561C82.257 223.82 84.7113 221.911 86.5637 220.172C88.0477 218.782 89.7445 218.221 90.1388 218.771C93.7814 223.841 100.024 224.188 105.576 221.599C107.272 220.811 110.188 219.809 110.173 219.544H110.178Z" fill="#FF8530"/>
<path d="M80.9134 250.096C82.5945 250.096 84.146 249.981 85.5055 249.732C86.8909 249.478 92.5726 248.663 93.7764 248.492C96.9987 249.841 106.769 249.333 111.813 246.329C113.966 245.047 115.092 243.449 115.154 241.57C115.17 241.145 115.196 240.662 115.222 240.128C115.44 235.868 115.803 228.738 112.42 223.949C112.186 223.617 112.067 222.59 111.979 221.842C111.828 220.55 111.699 219.435 111.003 218.958C110.708 218.755 110.35 218.693 109.991 218.791C109.82 218.833 109.675 218.932 109.571 219.066C109.26 219.243 108.3 219.632 107.584 219.917C106.774 220.244 105.939 220.576 105.259 220.893C100.688 223.026 94.4821 223.467 90.7825 218.314C90.632 218.101 90.3363 217.842 89.807 217.79C88.8211 217.686 87.3008 218.418 86.0451 219.601C83.7932 221.713 82.1379 222.74 81.6813 222.797C59.5925 215.46 51.8508 232.568 49.9984 237.995C49.2772 240.107 50.0295 243.324 52.0376 244.149C57.901 246.552 71.4594 250.096 80.9186 250.096H80.9134ZM93.8906 246.91C93.8543 246.91 93.8179 246.91 93.7816 246.915C93.4962 246.956 86.7975 247.906 85.2201 248.202C76.5392 249.805 59.385 245.478 52.624 242.707C51.472 242.235 50.9895 239.894 51.4668 238.493C53.1999 233.408 60.4642 217.359 81.2403 224.292C82.2469 224.629 84.2238 223.43 87.1036 220.732C88.2088 219.694 89.2518 219.336 89.5943 219.331C93.1693 224.193 99.4063 225.329 105.913 222.299C106.551 222.003 107.371 221.671 108.16 221.355C109.115 220.971 109.763 220.711 110.194 220.488C110.303 220.888 110.381 221.567 110.433 222.019C110.562 223.135 110.687 224.188 111.149 224.847C114.22 229.195 113.878 235.987 113.67 240.045C113.644 240.584 113.618 241.077 113.603 241.513C113.561 242.826 112.69 243.994 111.024 244.985C106.115 247.901 96.5161 248.124 94.2434 246.987C94.1345 246.93 94.0151 246.904 93.8958 246.904L93.8906 246.91Z" fill="black"/>
<path d="M50.59 238.561C50.1282 240.025 49.7027 243.055 53.1481 245.167C61.0092 249.987 74.1888 250.776 85.4122 248.706C86.9896 248.415 93.9426 247.424 93.9426 247.424C97.4347 249.178 114.205 247.953 114.428 241.28C114.454 240.45 114.485 238.183 114.485 238.183C107.631 242.972 98.597 243.055 94.9596 241.882C94.9596 241.882 84.6287 245.608 71.1689 244.918C64.4545 244.57 55.6076 243.237 51.1712 238.489L50.7301 238.245L50.59 238.561Z" fill="#FFD4B7"/>
<path d="M73.6644 250.568C77.5352 250.568 81.5618 250.21 85.552 249.473C86.9374 249.219 92.6191 248.405 93.8229 248.233C97.0452 249.582 106.811 249.074 111.859 246.075C114.013 244.793 115.139 243.195 115.201 241.317C115.227 240.481 115.258 238.203 115.258 238.203C115.258 237.913 115.102 237.643 114.843 237.503C114.583 237.368 114.272 237.384 114.033 237.555C107.34 242.23 98.4565 242.204 95.1928 241.151C95.0267 241.099 94.8503 241.099 94.6895 241.161C94.5857 241.197 84.3378 244.819 71.1997 244.15C61.7924 243.667 55.0573 241.529 51.7313 237.965C51.6742 237.902 51.6119 237.856 51.5393 237.814L51.0982 237.57C50.9062 237.461 50.6779 237.446 50.4704 237.513C50.2628 237.586 50.0968 237.742 50.0086 237.939L49.8685 238.255C49.8685 238.255 49.8477 238.302 49.8425 238.328C49.3859 239.77 48.7529 243.387 52.7379 245.831C57.7711 248.918 65.3623 250.563 73.6592 250.563L73.6644 250.568ZM93.9423 246.651C93.906 246.651 93.8696 246.651 93.8333 246.656C93.5479 246.697 86.8492 247.647 85.2718 247.943C73.078 250.195 60.6301 248.846 53.5577 244.508C51.1761 243.045 50.8595 241.13 51.1449 239.563C54.9276 243.143 61.6419 245.203 71.1322 245.696C83.6113 246.339 93.2885 243.278 94.9801 242.702C98.9235 243.849 107.111 243.584 113.691 239.63C113.681 240.237 113.67 240.891 113.655 241.254C113.613 242.567 112.741 243.735 111.071 244.726C106.162 247.642 96.5678 247.865 94.2951 246.729C94.1862 246.671 94.0668 246.646 93.9475 246.646L93.9423 246.651Z" fill="black"/>
<path d="M132.35 236.054C133.346 230.196 134.145 213.187 132.147 198.897C130.425 186.589 127.882 176.969 127.882 176.969C132.542 169.42 141.368 168.268 146.754 175.319C146.754 175.319 147.921 183.668 149.001 194.227C150.49 208.886 152.031 228.048 152.036 237.248C152.036 237.248 136.169 239.256 131.904 231.146L132.35 236.054Z" fill="#FB9D1C"/>
<path d="M147.75 238.26C150.174 238.26 151.917 238.047 152.13 238.021C152.519 237.974 152.809 237.642 152.809 237.248C152.804 228.038 151.279 208.969 149.769 194.15C148.705 183.699 147.532 175.294 147.522 175.211C147.501 175.076 147.449 174.951 147.372 174.847C144.767 171.438 141.27 169.669 137.508 169.856C133.476 170.058 129.724 172.502 127.218 176.565C127.104 176.746 127.073 176.964 127.13 177.172C127.156 177.271 129.683 186.896 131.374 199.012C132.941 210.214 132.765 222.745 132.189 230.425C132.033 230.362 131.852 230.352 131.681 230.404C131.323 230.508 131.094 230.85 131.125 231.219L131.572 236.127C131.608 236.516 131.924 236.817 132.319 236.833C132.713 236.854 133.05 236.573 133.118 236.184C133.211 235.645 133.3 234.996 133.393 234.244C137.222 237.611 143.521 238.255 147.756 238.255L147.75 238.26ZM151.253 236.548C148.472 236.786 137.98 237.305 133.6 232.256C134.291 224.712 134.623 210.967 132.921 198.799C131.39 187.851 129.18 178.91 128.723 177.11C130.949 173.659 134.166 171.589 137.591 171.418C140.766 171.257 143.75 172.756 146.017 175.641C146.204 176.985 147.263 184.799 148.228 194.316C149.696 208.725 151.175 227.156 151.253 236.553V236.548Z" fill="black"/>
<path d="M149.815 218.901C140.33 223.768 137.492 220.219 134.244 218.19C132.895 217.35 132.044 218.668 132.013 219.612C131.878 223.182 131.852 229.04 131.629 231.567C131.322 235.064 132.698 251.995 153.411 247.222L156.032 242.209C156.032 242.209 154.516 226.814 153.064 220.323C152.394 217.329 150.594 218.502 149.815 218.901Z" fill="white"/>
<path d="M146.64 248.845C148.768 248.845 151.082 248.559 153.588 247.978C153.811 247.926 153.998 247.781 154.102 247.579L156.722 242.566C156.795 242.431 156.821 242.281 156.805 242.13C156.743 241.497 155.269 226.616 153.822 220.151C153.536 218.879 153.028 218.091 152.265 217.738C151.232 217.26 150.169 217.826 149.598 218.127L149.453 218.205C141.534 222.268 138.649 220.27 135.858 218.334C135.453 218.054 135.054 217.779 134.649 217.525C133.673 216.918 132.895 217.162 132.516 217.359C131.665 217.81 131.255 218.796 131.224 219.575C131.172 220.903 131.141 222.506 131.105 224.203C131.043 227.015 130.98 229.926 130.845 231.493C130.638 233.88 131.188 241.015 136.159 245.337C138.841 247.667 142.349 248.839 146.635 248.839L146.64 248.845ZM152.888 246.541C146.023 248.056 140.741 247.262 137.186 244.17C132.703 240.278 132.215 233.802 132.402 231.639C132.542 230.02 132.604 227.083 132.667 224.244C132.703 222.553 132.739 220.955 132.786 219.642C132.802 219.279 133.014 218.869 133.253 218.739C133.305 218.713 133.471 218.625 133.829 218.848C134.213 219.087 134.592 219.351 134.976 219.616C137.85 221.603 141.42 224.078 150.169 219.59L150.329 219.502C150.687 219.315 151.279 218.993 151.616 219.149C151.891 219.274 152.14 219.761 152.301 220.483C153.63 226.429 155.036 240.102 155.228 242.047L152.882 246.536L152.888 246.541Z" fill="black"/>
<path d="M151.637 238.457C151.673 238.457 151.715 238.457 151.751 238.447C152.177 238.384 152.467 237.985 152.405 237.559C151.569 231.966 150.687 223.051 150.552 219.673C150.537 219.243 150.158 218.905 149.743 218.926C149.312 218.942 148.98 219.305 148.996 219.736C149.146 223.565 150.075 232.505 150.864 237.788C150.921 238.172 151.253 238.452 151.632 238.452L151.637 238.457Z" fill="black"/>
<path d="M139.262 234.904C139.635 234.904 139.967 234.634 140.03 234.25C140.585 230.893 140.46 227.068 140.305 223.742C140.284 223.312 139.936 222.98 139.49 223C139.059 223.021 138.727 223.384 138.748 223.815C138.904 227.058 139.023 230.789 138.494 233.996C138.426 234.421 138.712 234.821 139.137 234.888C139.179 234.893 139.225 234.898 139.267 234.898L139.262 234.904Z" fill="black"/>
<path d="M133.735 236.532C134.062 236.532 134.363 236.324 134.472 235.997C135.712 232.272 135.904 225.127 135.728 221.5C135.707 221.069 135.36 220.747 134.913 220.758C134.483 220.778 134.151 221.142 134.171 221.572C134.353 225.35 134.104 232.168 132.993 235.504C132.859 235.914 133.076 236.355 133.486 236.49C133.569 236.516 133.652 236.532 133.73 236.532H133.735Z" fill="black"/>
<path d="M145.706 241.062C145.706 241.062 145.722 241.062 145.732 241.062C146.163 241.046 146.5 240.688 146.485 240.257C146.459 239.381 146.402 237.388 146.35 235.38C146.293 233.315 146.241 231.229 146.21 230.331C146.194 229.901 145.81 229.568 145.405 229.579C144.975 229.594 144.637 229.952 144.653 230.383C144.684 231.286 144.736 233.361 144.793 235.427C144.845 237.44 144.902 239.432 144.928 240.309C144.944 240.73 145.286 241.062 145.706 241.062Z" fill="black"/>
<path d="M145.208 226.399C145.208 226.399 145.229 226.399 145.234 226.399C145.665 226.384 146.002 226.026 145.986 225.595L145.862 222.077C145.846 221.646 145.499 221.299 145.058 221.325C144.627 221.34 144.295 221.698 144.305 222.129L144.43 225.647C144.445 226.067 144.788 226.399 145.208 226.399Z" fill="black"/>
<path d="M121.007 266.725C132.76 264.084 135.588 260.602 148.949 260.031C154.626 259.787 158.865 258.36 163.639 255.283C163.639 255.283 166.394 244.937 158.912 233.221C158.771 232.997 158.097 229.059 157.038 228.104C154.963 226.242 154.164 228.888 153.261 231.597C151.372 237.258 144.372 238.638 138.68 236.842C138.587 236.811 138.494 236.785 138.4 236.754C131.603 234.523 131.281 227.731 131.281 227.731L117.261 234.383C117.261 234.383 94.8816 226.335 87.5498 246.317C86.1592 250.105 84.7374 255.942 86.3304 259.652C88.1413 263.871 102.831 270.819 121.007 266.73V266.725Z" fill="#FF8530"/>
<path d="M110.017 268.728C113.551 268.728 117.307 268.354 121.178 267.483C125.636 266.481 128.889 265.334 131.758 264.323C136.584 262.626 140.751 261.157 148.98 260.805C154.708 260.561 159.072 259.149 164.059 255.932C164.22 255.829 164.339 255.668 164.391 255.476C164.505 255.04 167.136 244.699 159.612 232.863C159.581 232.754 159.524 232.51 159.472 232.292C159.02 230.409 158.465 228.328 157.557 227.518C156.779 226.823 156.026 226.569 155.316 226.756C153.925 227.124 153.313 228.971 152.602 231.104L152.524 231.343C150.817 236.464 144.263 237.777 138.919 236.09L138.649 236.002C132.428 233.958 132.064 227.741 132.064 227.679C132.054 227.42 131.909 227.181 131.686 227.046C131.463 226.911 131.188 226.901 130.949 227.01L117.214 233.527C114.412 232.64 93.854 226.87 86.8232 246.032C85.8269 248.741 83.7203 255.522 85.6142 259.943C87.2538 263.757 97.1333 268.718 110.012 268.718L110.017 268.728ZM162.953 254.796C158.33 257.728 154.241 259.025 148.918 259.253C140.455 259.616 136.19 261.116 131.245 262.859C128.277 263.902 125.205 264.987 120.841 265.968C103.277 269.921 88.7534 263.306 87.0515 259.341C85.3288 255.325 87.56 248.559 88.2864 246.582C91.2077 238.622 96.8895 234.264 105.176 233.631C111.449 233.153 116.955 235.089 117.007 235.11C117.204 235.182 117.416 235.167 117.603 235.078L130.669 228.878C131.099 231.026 132.661 235.68 138.161 237.486L138.452 237.579C144.429 239.468 151.917 238.093 154.003 231.835L154.081 231.597C154.527 230.253 155.139 228.416 155.715 228.26C155.876 228.219 156.177 228.375 156.519 228.675C157.142 229.231 157.734 231.716 157.957 232.655C158.107 233.294 158.149 233.465 158.258 233.631C164.795 243.868 163.306 253.078 162.953 254.791V254.796Z" fill="black"/>
<path d="M85.6611 256.588C85.7337 257.693 85.9413 258.736 86.3356 259.644C88.1465 263.862 102.836 270.81 121.012 266.721C132.765 264.08 135.609 260.915 148.954 260.028C157.801 259.441 161.428 257.179 163.748 255.166C164.91 254.159 165.346 253.121 165.247 251.352C165.2 250.491 165.091 248.82 164.069 248.701C163.893 248.68 162.523 249.707 162.03 250.076C157.972 253.111 153.162 253.827 149.011 254.112C144.419 254.429 139.863 255.394 135.707 257.371C125.942 262.02 115.222 263.899 108.456 263.779C101.912 263.665 90.7409 262.051 85.8583 254.133C85.8583 254.133 85.6248 255.934 85.6663 256.588H85.6611Z" fill="#FFD4B7"/>
<path d="M110.017 268.73C113.551 268.73 117.307 268.356 121.178 267.484C125.656 266.478 128.92 265.372 131.8 264.397C136.625 262.763 140.792 261.351 149.001 260.806C157.993 260.21 161.76 257.916 164.251 255.758C165.615 254.575 166.129 253.288 166.015 251.311C165.963 250.356 165.833 248.125 164.147 247.928C163.804 247.891 163.654 247.876 161.552 249.448C157.645 252.375 152.986 253.054 148.944 253.334C143.833 253.687 139.261 254.808 135.359 256.666C125.179 261.512 114.495 263.115 108.455 263.001C103.521 262.913 91.5087 261.839 86.5067 253.724C86.3354 253.443 86.0033 253.303 85.6816 253.371C85.3599 253.438 85.1161 253.703 85.0745 254.03C85.0486 254.222 84.8359 255.929 84.8774 256.635C84.9604 257.89 85.2043 259.006 85.609 259.95C87.2487 263.769 97.1282 268.724 110.007 268.724L110.017 268.73ZM164.09 249.552C164.214 249.702 164.391 250.143 164.463 251.399C164.546 252.888 164.225 253.718 163.234 254.58C160.935 256.572 157.433 258.684 148.897 259.255C140.486 259.815 136.231 261.258 131.302 262.923C128.318 263.935 125.231 264.978 120.836 265.969C103.272 269.923 88.7482 263.307 87.0463 259.343C86.7142 258.565 86.5067 257.62 86.434 256.541C86.434 256.474 86.434 256.391 86.434 256.292C92.3389 263.473 103.609 264.48 108.429 264.563C114.64 264.667 125.604 263.038 136.029 258.077C139.754 256.302 144.134 255.234 149.053 254.891C153.323 254.595 158.252 253.864 162.486 250.699C163.405 250.014 163.862 249.697 164.09 249.552Z" fill="black"/>
<path d="M105.861 219.341C105.861 219.341 105.908 219.341 105.934 219.341C106.365 219.3 106.676 218.921 106.634 218.496C106.406 216.052 105.83 213.66 104.917 211.377C104.756 210.977 104.305 210.785 103.905 210.941C103.505 211.102 103.314 211.553 103.469 211.953C104.325 214.095 104.865 216.342 105.083 218.636C105.119 219.04 105.462 219.341 105.856 219.341H105.861Z" fill="black"/>
<path d="M92.7645 219.289C92.7904 219.289 92.8164 219.289 92.8475 219.289C93.273 219.248 93.5843 218.864 93.5428 218.433L93.0706 213.826C93.0291 213.395 92.6399 213.089 92.2145 213.13C91.789 213.172 91.4777 213.556 91.5192 213.986L91.9913 218.594C92.0329 218.994 92.3701 219.295 92.7645 219.295V219.289Z" fill="black"/>
<path d="M102.219 222.527C102.219 222.527 102.255 222.527 102.27 222.527C102.701 222.496 103.023 222.128 102.997 221.697C102.846 219.404 101.845 213.789 100.947 211.465C100.792 211.065 100.34 210.863 99.9406 211.018C99.5411 211.174 99.3387 211.625 99.4944 212.025C100.304 214.121 101.295 219.653 101.44 221.801C101.466 222.211 101.809 222.527 102.219 222.527Z" fill="black"/>
<path d="M97.4709 220.883C97.5228 220.883 97.5799 220.883 97.6318 220.868C98.052 220.779 98.3219 220.369 98.2337 219.944C98.0365 219.01 97.8341 217.459 97.6369 215.959C97.4398 214.433 97.2322 212.851 97.0247 211.86C96.9364 211.44 96.5213 211.17 96.101 211.258C95.6808 211.346 95.4109 211.756 95.4992 212.182C95.6963 213.116 95.8987 214.667 96.0959 216.167C96.293 217.692 96.5006 219.275 96.7081 220.266C96.786 220.634 97.1077 220.883 97.4709 220.883Z" fill="black"/>
<path d="M123.353 240.434C124.261 236.931 120.302 233.662 116.965 234.212C116.898 234.223 116.882 234.316 116.944 234.347C119.502 235.774 122.133 237.642 123.207 240.48C123.244 240.563 123.347 240.527 123.358 240.434H123.353Z" fill="black"/>
<path d="M123.348 241.207C123.42 241.207 123.498 241.196 123.571 241.176C123.981 241.051 124.214 240.62 124.095 240.205C122.865 236.111 117.593 233.647 117.37 233.543C116.981 233.361 116.519 233.532 116.338 233.922C116.156 234.311 116.327 234.773 116.716 234.954C116.763 234.975 121.573 237.232 122.6 240.651C122.699 240.989 123.01 241.207 123.348 241.207Z" fill="black"/>
<path d="M1.02079 63.1884C0.828804 61.7355 1.26984 59.494 2.01184 58.1916C3.00291 56.4429 4.52843 55.291 6.3082 54.9538C7.50163 54.7306 8.0724 54.7099 9.06865 54.8344C8.4408 53.2103 7.81294 51.2074 7.66247 49.7442C7.26812 45.9875 8.89742 43.7303 10.3347 42.5006C12.3895 40.7364 15.2537 40.067 16.7222 40.4562C18.9326 41.0425 20.8057 42.5421 22.1911 43.7822C23.7945 45.2195 25.1176 46.6983 26.1347 48.2083L26.4304 48.6753L31.365 51.5603C31.9617 51.9027 32.5792 52.2556 33.2278 52.6499L33.5443 52.8004C34.0839 52.8886 34.6339 53.0235 35.1788 53.2103C40.0044 54.8344 43.9634 59.4888 45.5149 65.3521C47.1649 71.5787 45.9455 77.6133 44.5757 81.6761C45.4111 83.4196 50.4546 93.1746 59.9605 95.5562C66.3947 97.17 73.4722 96.1841 79.8856 92.7906C80.2644 92.5934 80.7365 92.7335 80.9389 93.1123C81.1413 93.4911 80.996 93.9633 80.6172 94.1656C80.6016 94.1708 80.5913 94.1812 80.5757 94.1864L85.6504 105.327C85.9461 105.192 86.3042 105.244 86.5428 105.498C86.8334 105.815 86.8178 106.307 86.5013 106.598C80.4356 112.218 72.4396 115.123 63.3852 115.123C60.2148 115.123 56.9199 114.765 53.5264 114.044C42.5261 111.704 34.7325 106.359 27.4785 96.1789L27.1776 95.9661C23.4935 94.7831 19.8043 93.4548 16.2033 92.0278C13.3079 90.8759 10.2621 89.5735 7.70399 87.4202C5.64403 85.6871 3.94727 83.43 2.79536 80.8874C2.43733 80.0987 2.21421 79.0143 2.01704 78.0544C1.95996 77.769 1.90288 77.5043 1.85099 77.2605C1.08305 73.8877 2.97697 71.3971 4.06143 70.2919C2.02741 68.3565 1.47224 66.5092 1.03638 63.204L1.02079 63.1884Z" fill="#FB9D1C"/>
<path d="M1.02104 63.1884C0.829056 61.7355 1.27009 59.494 2.01209 58.1916C3.00315 56.4429 4.52868 55.291 6.30844 54.9538C7.50187 54.7306 8.07265 54.7099 9.0689 54.8344C8.44105 53.2103 7.81319 51.2074 7.66272 49.7442C7.26836 45.9875 8.89767 43.7303 10.335 42.5006C12.3897 40.7364 15.254 40.067 16.7224 40.4562C18.9328 41.0425 20.806 42.5421 22.1914 43.7822C23.7947 45.2195 25.1179 46.6983 26.1349 48.2083L26.4307 48.6753L31.3652 51.5603C31.9619 51.9027 32.5794 52.2556 33.228 52.6499L33.5445 52.8004C34.0842 52.8886 34.6342 53.0235 35.179 53.2103C40.0046 54.8344 43.9637 59.4888 45.5151 65.3521C47.1652 71.5787 45.9458 77.6133 44.576 81.6762C45.4114 83.4196 50.4549 93.1746 59.9608 95.5562C66.3949 97.17 73.4725 96.1841 79.8858 92.7906C80.2646 92.5934 80.7368 92.7335 80.9392 93.1123C81.1415 93.4911 80.9962 93.9633 80.6175 94.1656C80.6019 94.1708 80.5915 94.1812 80.576 94.1864C73.8305 97.7459 66.3793 98.7681 59.5872 97.0662C48.452 94.2798 43.2424 82.5271 43.0245 82.029C42.9467 81.8526 42.9415 81.6502 43.0037 81.4634C44.3425 77.6081 45.5981 71.7499 44.0104 65.7465C42.5886 60.3813 39.0135 56.142 34.6809 54.6839C34.3332 54.5646 33.9908 54.4816 33.6431 54.4089L33.5912 54.274C33.4719 54.3207 33.337 54.3415 33.1969 54.3207C32.1332 54.1599 30.6077 54.1651 29.352 55.0783C27.9147 56.4637 26.8043 59.7794 26.4722 61.7096C26.3476 62.436 26.2127 63.8422 26.6642 65.2328C27.0637 66.0682 27.6656 66.9503 28.3194 67.6404C30.1095 69.057 32.0346 68.7404 32.1228 68.7249C32.1332 68.7249 32.1435 68.7249 32.1539 68.7249C33.7676 68.3098 35.7705 67.1838 37.1767 64.9007C37.405 64.5323 37.8824 64.4233 38.2456 64.6465C38.614 64.8696 38.723 65.3521 38.4999 65.7154C37.1559 67.8947 35.2932 69.223 33.5393 69.9027L33.6016 69.9494C32.6988 71.1792 32.2473 72.8085 32.3096 74.3962C32.3459 74.8217 32.3926 75.2265 32.4497 75.5845C32.4964 75.8699 32.3771 76.1604 32.1436 76.3317C31.9101 76.5029 31.5987 76.5289 31.3341 76.3991C31.2978 76.3784 27.842 74.692 24.8896 75.8387C24.1891 76.1086 23.4834 77.0373 22.7985 77.935C22.1239 78.8171 21.4286 79.7252 20.5881 80.244C19.1248 81.1469 17.4385 82.0497 16.6549 82.2729C16.4318 82.3559 16.2191 82.4285 16.0167 82.496C16.3073 82.7243 16.4007 83.1342 16.2243 83.4715C16.0842 83.7361 15.8144 83.8866 15.5342 83.8866C15.4096 83.8866 15.2851 83.8555 15.1709 83.7984C14.7455 83.5753 13.9256 82.8903 13.7648 82.7554C13.5365 82.5634 13.4379 82.2521 13.5157 81.9615C13.5936 81.671 13.827 81.4478 14.1228 81.396C14.5742 81.3077 15.3007 81.1209 16.079 80.8304C16.1361 80.8044 18.7876 79.6836 19.514 77.7949C19.7838 77.0892 19.7423 76.368 19.3894 75.5949C19.3843 75.5793 19.3739 75.5689 19.3687 75.5533L18.5489 74.3599C15.9804 71.2518 7.36178 70.3542 5.59758 70.9561C5.09945 71.3712 2.60882 73.6335 3.35601 76.8973C3.41309 77.1463 3.47018 77.4265 3.53244 77.7223C3.71405 78.5992 3.9164 79.5954 4.20179 80.2233C5.26031 82.5531 6.81693 84.6234 8.69529 86.2112C11.077 88.2141 13.9879 89.4594 16.7691 90.5646C20.3753 91.9967 24.0749 93.325 27.759 94.5081C27.8368 94.534 27.9043 94.5704 27.9717 94.6119L28.4803 94.9699C28.5529 95.0218 28.6152 95.084 28.667 95.1567C35.6927 105.062 43.2217 110.251 53.8432 112.513C66.4053 115.186 77.6235 112.674 85.4327 105.446C85.4949 105.389 85.5676 105.353 85.6402 105.316C85.936 105.181 86.294 105.233 86.5327 105.488C86.8233 105.804 86.8077 106.297 86.4912 106.588C80.4255 112.207 72.4295 115.113 63.375 115.113C60.2047 115.113 56.9098 114.755 53.5163 114.034C42.516 111.693 34.7224 106.349 27.4684 96.1685L27.1675 95.9558C23.4834 94.7727 19.7942 93.4444 16.1931 92.0175C13.2978 90.8655 10.2519 89.5632 7.69385 87.4098C5.63389 85.6767 3.93716 83.4196 2.78525 80.8771C2.42722 80.0884 2.2041 79.0039 2.00693 78.044C1.94985 77.7586 1.89277 77.494 1.84088 77.2501C1.07294 73.8774 2.96686 71.3867 4.05132 70.2815C2.0173 68.3461 1.4621 66.4989 1.02624 63.1936L1.02104 63.1884ZM11.3416 43.6836C9.66042 45.1209 8.94437 47.1083 9.20381 49.5833C9.35429 51.0258 10.0911 53.2518 10.7968 54.9745C13.1577 55.3844 15.7106 56.3859 18.4036 57.9736L19.1819 58.4303C20.78 59.3591 22.264 60.2308 23.4782 61.3879C23.4886 61.3775 23.4938 61.3671 23.5042 61.3619C23.5146 61.3568 24.6457 60.5784 25.4811 58.4199C25.6575 57.8854 25.8703 57.3302 26.1245 56.7854C26.5033 55.758 26.8821 54.4816 26.8146 53.5113C26.6693 51.3527 25.2891 49.7805 25.2787 49.7649C25.2736 49.7598 25.2684 49.7494 25.2632 49.7442C25.2424 49.7182 25.2165 49.6923 25.1957 49.6612L24.8118 49.0541C23.883 47.6738 22.6428 46.2884 21.1329 44.9393C19.8772 43.8134 18.196 42.4643 16.3073 41.961C15.4926 41.743 13.1369 42.1374 11.3312 43.6836H11.3416ZM19.5036 73.0938C20.3597 73.042 22.6428 72.7773 23.94 71.5009C23.9971 71.4386 24.049 71.3815 24.1009 71.3141C24.5108 70.7952 24.7599 70.1518 24.8636 69.3994C24.9311 68.0763 24.6353 66.5767 24.2773 65.3002C23.2395 62.5969 21.1588 61.3775 18.4036 59.769L17.6201 59.3072C14.953 57.7298 12.452 56.7698 10.1897 56.4378H9.42173C9.38541 56.4378 9.34908 56.4378 9.31276 56.4274C8.0882 56.2561 7.73537 56.2613 6.59901 56.4741C5.28106 56.7231 4.13435 57.6 3.37159 58.9491C2.79563 59.9661 2.42201 61.8497 2.57249 62.9757C2.98241 66.063 3.37158 67.5833 5.40559 69.3942C8.22312 68.7612 16.437 69.8457 19.5088 73.0835L19.5036 73.0938Z" fill="black"/>
<path d="M59.8465 124.189C57.1846 117.402 69.8972 110.729 72.6369 104.617C75.4752 98.2711 69.9958 93.0148 70.7274 86.0825C71.2463 81.148 71.7756 72.1973 71.8067 67.2108C71.8586 59.3601 68.7713 56.361 74.1365 50.6377C74.178 50.2797 75.8955 47.9863 76.1757 47.758C72.4605 42.7819 73.2803 35.502 76.9592 30.5C78.1163 28.9277 79.5432 27.2258 80.5966 25.3682C80.8301 24.9583 80.9857 24.5121 81.1258 24.0606C82.7707 18.794 87.5599 14.7415 92.9874 13.7556C97.0036 13.024 101.072 13.8335 105.041 15.058C106.468 15.2085 107.885 15.5043 109.249 15.9765H109.275C109.945 15.7533 110.806 15.4628 110.941 15.5354C116.498 10.2636 125.184 9.57865 132.469 12.0382C133.844 12.5 135.935 12.9877 136.937 12.1056C137.523 11.5867 137.399 10.6891 137.757 9.94706C138.582 8.24513 141.098 8.75363 142.8 9.53195C143.21 9.71875 143.62 9.90555 144.035 10.0923C144.045 10.0923 144.056 10.1027 144.066 10.1027C144.855 10.44 145.664 10.7825 146.479 11.1301C147.143 11.3947 147.818 11.6697 148.492 11.9551C149.068 12.1782 149.655 12.4066 150.246 12.6504C150.786 12.8528 151.33 13.0655 151.881 13.2887C152.379 13.4703 152.882 13.6571 153.39 13.8646C153.712 13.9788 154.034 14.0981 154.361 14.2226C155.025 14.2434 155.627 14.2693 155.689 14.3057C159.586 13.0915 168.101 16.7755 168.422 17.009C175.183 18.0987 173.419 23.6248 173.86 23.8842C188.109 24.2267 188.783 34.2411 188.783 34.2411C188.783 34.2411 198.938 33.2967 199.021 43.2956C205.081 48.4948 202.617 59.3186 202.617 59.3186C204.677 60.647 205.704 63.1117 205.19 65.5089L204.786 67.3976C204.786 67.3976 209.949 73.4011 211.007 78.7611C213.581 91.7695 207.78 97.7055 208.184 98.8782C214.437 117.132 202.876 126.249 202.876 126.249C204.443 131.402 202.02 137.436 197.397 140.223C197.168 140.404 196.935 140.575 196.696 140.742C197.277 150.564 195.659 153.195 191.58 155.27C191.243 155.478 186.827 163.251 186.526 163.411C186.168 163.64 185.831 163.837 185.525 164.008C185.38 164.102 185.245 164.195 185.11 164.278C186.469 169.503 175.998 172.175 175.998 172.175C175.998 172.175 176.917 179.938 172.065 184.239C167.338 188.432 160.795 187.846 160.795 187.846C160.795 187.846 159.041 191.68 147.045 187.872C146.505 187.778 145.965 187.664 145.441 187.519C145.171 187.462 144.907 187.394 144.637 187.327C144.31 187.384 143.983 187.43 143.656 187.462C143.376 187.519 143.096 187.555 142.81 187.591C142.53 187.643 142.25 187.685 141.965 187.716C141.664 187.773 141.363 187.82 141.057 187.856C137.783 188.479 134.29 188.001 131.416 186.403C130.918 186.439 130.42 186.424 129.927 186.367C129.704 186.367 129.48 186.351 129.257 186.325C129.06 186.325 128.858 186.315 128.661 186.294C128.479 186.294 128.297 186.289 128.116 186.279C127.945 186.279 127.768 186.279 127.592 186.279C127.415 186.289 127.239 186.289 127.057 186.284C126.87 186.299 126.684 186.305 126.492 186.305C126.269 186.325 126.045 186.336 125.817 186.336C125.62 186.367 125.418 186.382 125.22 186.388C125.018 186.419 124.816 186.434 124.608 186.445C124.032 186.626 123.389 186.746 122.704 186.849C122.512 186.901 122.32 186.948 122.117 186.995C121.749 187.124 121.365 187.228 120.966 187.316C120.602 187.441 120.229 187.545 119.84 187.628C118.506 188.089 117.012 188.24 115.574 188.084C112.627 187.763 110.007 185.879 108.066 183.591C106.556 181.811 105.363 179.71 103.604 178.143C103.106 177.707 102.535 177.328 101.928 177.032C101.627 177.12 101.321 177.203 101.015 177.271C100.599 177.416 100.179 177.546 99.7485 177.634C99.3334 177.805 98.9079 177.93 98.472 178.028C98.1399 178.158 97.8027 178.262 97.455 178.319C97.097 178.48 96.7338 178.594 96.355 178.646C96.0022 178.812 95.6441 178.931 95.2705 178.973C94.9229 179.149 94.57 179.268 94.1964 179.3C93.5375 179.658 92.837 179.782 92.0587 179.362C91.4308 179.025 90.9794 178.433 90.7199 177.769C89.8586 175.569 87.8246 173.971 85.5674 173.384C85.417 173.421 85.2717 173.457 85.1264 173.504C85.1056 173.441 85.0589 173.358 84.9967 173.26C84.6127 173.307 84.2391 173.395 83.8707 173.519C83.85 173.462 83.7981 173.369 83.7202 173.255C83.3466 173.317 82.973 173.405 82.615 173.535C82.5994 173.488 82.532 173.39 82.4386 173.255C82.0702 173.322 79.2942 170.857 78.8635 170.499C78.6559 170.52 61.8442 151.187 63.9145 146.133C52.3953 137.426 59.722 124.407 59.8517 124.194L59.8465 124.189Z" fill="#FB9D1C"/>
<path d="M151.222 191.815C151.222 191.815 144.86 200.454 130.985 188.011C117.11 175.569 152.187 173.742 152.187 173.742L151.222 191.815Z" fill="black"/>
<path d="M155.923 190.342C159.207 190.342 160.613 189.309 161.174 188.656C162.793 188.708 168.329 188.593 172.568 184.832C176.87 181.018 176.922 174.807 176.813 172.762C178.593 172.228 183.579 170.51 185.348 167.511C185.888 166.598 186.096 165.638 185.966 164.657C186.256 164.491 186.573 164.305 186.91 164.092C187.175 163.947 187.299 163.796 189.65 159.842C190.532 158.363 191.715 156.371 192.058 155.904C196.541 153.538 199.737 147.446 197.615 141.043C197.687 140.986 197.76 140.934 197.833 140.877C202.643 137.951 205.123 131.864 203.753 126.52C205.777 124.641 214.567 115.255 208.947 98.7179C208.994 98.4948 209.269 97.9344 209.508 97.4311C210.888 94.5773 213.757 88.6464 211.77 78.6165C210.805 73.7442 206.695 68.5035 205.626 67.1959L205.953 65.6807C206.493 63.159 205.507 60.5334 203.483 58.982C203.898 56.7248 205.128 47.8364 199.794 42.9434C199.701 39.965 198.73 37.6248 196.909 35.98C194.403 33.7176 191.009 33.4374 189.494 33.4374H189.442C188.939 31.035 186.433 23.6825 174.556 23.1325C174.566 21.498 174.556 17.2587 168.651 16.2573C167.203 15.5672 159.617 12.4435 155.653 13.5072C155.435 13.4813 155.098 13.4657 154.527 13.4449C154.236 13.336 153.946 13.227 153.66 13.1232C153.178 12.9261 152.664 12.7341 152.161 12.5473C151.632 12.3293 151.076 12.1166 150.531 11.9142C149.961 11.6807 149.369 11.4421 148.788 11.2189C148.129 10.9439 147.449 10.6637 146.785 10.3991L144.393 9.37691C144.393 9.37691 144.352 9.36134 144.346 9.35615C143.962 9.18492 143.553 8.99812 143.148 8.81133C141 7.82545 138.12 7.44148 137.077 9.58965C136.895 9.96843 136.812 10.3524 136.74 10.6897C136.662 11.0529 136.6 11.3642 136.439 11.5043C135.909 11.9713 134.529 11.8883 132.739 11.2864C124.587 8.53113 115.953 9.89579 110.64 14.7525C110.334 14.8044 109.919 14.9341 109.28 15.1469C108.004 14.7266 106.634 14.4308 105.212 14.2752C101.824 13.2322 97.3773 12.1529 92.863 12.9728C87.1034 14.0209 82.091 18.3743 80.3943 23.807C80.2697 24.1962 80.1297 24.6061 79.9325 24.9641C79.1749 26.2976 78.2202 27.5481 77.2914 28.7623C76.9645 29.1878 76.648 29.6081 76.347 30.018C72.3568 35.4403 71.9158 42.7617 75.2055 47.6963C74.6503 48.3812 73.7993 49.5176 73.4932 50.1869C69.5912 54.4054 70.0011 57.306 70.5615 61.3118C70.795 62.9826 71.0596 64.8765 71.0441 67.1907C71.0129 71.9903 70.4992 80.9462 69.97 85.9846C69.6327 89.1809 70.5303 91.9725 71.3917 94.6758C72.4346 97.924 73.4153 100.991 71.9417 104.286C70.9714 106.46 68.6053 108.753 66.1043 111.187C61.8806 115.296 57.5116 119.541 59.0112 124.112C57.9163 126.26 52.5926 138.08 63.017 146.393C62.7004 147.83 63.0273 151.483 70.9506 162.063C73.0365 164.844 74.9824 167.205 75.9579 168.367C77.3952 170.08 78.0178 170.791 78.3758 171.081C78.4485 171.138 78.5782 171.258 78.7598 171.408C80.607 173.001 81.4528 173.655 81.9509 173.899C82.0287 174.039 82.1481 174.153 82.2986 174.22C82.4854 174.309 82.7033 174.319 82.9005 174.252C83.0509 174.194 83.2118 174.148 83.3778 174.106C83.4297 174.153 83.492 174.194 83.5595 174.226C83.7462 174.314 83.9538 174.309 84.1458 174.236C84.3067 174.179 84.4779 174.132 84.6491 174.091C84.8463 174.252 85.1213 174.309 85.3911 174.22C85.4534 174.2 85.5156 174.184 85.5831 174.163C87.6223 174.755 89.3139 176.218 90.0247 178.029C90.3724 178.916 90.9743 179.622 91.7163 180.027C92.5932 180.499 93.5116 180.504 94.4508 180.037C94.8036 179.99 95.1565 179.881 95.5249 179.71C95.8829 179.658 96.2357 179.549 96.6093 179.383C96.9674 179.321 97.3306 179.212 97.7042 179.051C98.0311 178.989 98.3631 178.89 98.7212 178.755C99.1882 178.646 99.6085 178.522 99.9976 178.361C100.382 178.278 100.786 178.159 101.248 177.998C101.456 177.951 101.658 177.899 101.866 177.842C102.312 178.086 102.737 178.382 103.106 178.704C104.159 179.638 104.994 180.779 105.882 181.983C106.39 182.678 106.92 183.399 107.49 184.074C109.841 186.84 112.684 188.531 115.507 188.837C117.074 189.009 118.651 188.842 120.063 188.36C120.462 188.272 120.841 188.168 121.189 188.049C121.583 187.96 121.967 187.851 122.341 187.727C122.522 187.685 122.699 187.644 122.875 187.597C123.633 187.483 124.235 187.358 124.753 187.203C124.935 187.192 125.117 187.177 125.298 187.151C125.527 187.141 125.719 187.125 125.895 187.099C126.134 187.099 126.346 187.083 126.544 187.068C126.725 187.068 126.912 187.063 127.088 187.047C127.26 187.047 127.431 187.047 127.602 187.042C127.773 187.047 127.939 187.047 128.105 187.042C128.282 187.052 128.458 187.058 128.635 187.058C128.827 187.073 129.024 187.083 129.216 187.083C129.439 187.109 129.662 187.12 129.885 187.125C130.342 187.177 130.798 187.192 131.25 187.172C134.176 188.728 137.793 189.252 141.212 188.599C141.482 188.567 141.804 188.521 142.12 188.459C142.369 188.433 142.665 188.386 142.961 188.334C143.21 188.303 143.495 188.267 143.786 188.209C144.108 188.173 144.372 188.137 144.616 188.095C144.834 188.152 145.047 188.204 145.265 188.251C145.773 188.391 146.303 188.51 146.868 188.609C150.874 189.875 153.806 190.316 155.938 190.316L155.923 190.342ZM160.785 187.073C160.484 187.073 160.203 187.25 160.074 187.53C160.074 187.53 158.211 190.607 147.268 187.135C147.231 187.125 147.2 187.115 147.164 187.109C146.619 187.016 146.121 186.907 145.638 186.772C145.623 186.772 145.607 186.762 145.587 186.762C145.332 186.71 145.078 186.642 144.824 186.58C144.715 186.554 144.601 186.549 144.487 186.57C144.222 186.616 143.937 186.658 143.558 186.699C143.537 186.699 143.511 186.705 143.49 186.71C143.231 186.762 142.966 186.798 142.702 186.829C142.39 186.886 142.126 186.923 141.861 186.954C141.524 187.016 141.238 187.058 140.953 187.094C137.757 187.701 134.436 187.203 131.789 185.734C131.66 185.662 131.509 185.625 131.359 185.641C130.918 185.672 130.461 185.662 130.01 185.61C129.984 185.61 129.958 185.61 129.932 185.61C129.735 185.61 129.538 185.594 129.34 185.574C129.314 185.574 129.288 185.574 129.263 185.574C129.081 185.574 128.899 185.563 128.723 185.548C128.702 185.548 128.671 185.548 128.655 185.548C128.495 185.542 128.323 185.548 128.163 185.532C128.142 185.532 128.121 185.532 128.095 185.532C127.939 185.532 127.779 185.532 127.623 185.532C127.602 185.532 127.576 185.532 127.555 185.532C127.395 185.542 127.234 185.542 127.073 185.537C127.047 185.537 127.026 185.537 127 185.537C126.834 185.548 126.673 185.548 126.497 185.553C126.471 185.537 126.44 185.553 126.414 185.553C126.217 185.574 126.014 185.579 125.812 185.584C125.77 185.584 125.729 185.584 125.687 185.594C125.553 185.615 125.402 185.631 125.195 185.636C125.163 185.636 125.137 185.636 125.106 185.641C124.93 185.667 124.753 185.682 124.572 185.688C124.504 185.688 124.437 185.703 124.375 185.724C123.902 185.869 123.337 185.989 122.59 186.103C122.559 186.103 122.527 186.113 122.496 186.124C122.32 186.17 122.133 186.217 121.951 186.258C121.92 186.264 121.894 186.274 121.863 186.284C121.521 186.404 121.163 186.502 120.8 186.58C120.768 186.585 120.737 186.596 120.711 186.606C120.395 186.715 120.047 186.808 119.679 186.891C119.648 186.897 119.617 186.907 119.585 186.917C118.392 187.333 116.996 187.478 115.657 187.333C113.234 187.068 110.749 185.568 108.658 183.109C108.123 182.476 107.61 181.781 107.117 181.106C106.224 179.887 105.295 178.626 104.118 177.583C103.562 177.095 102.945 176.685 102.265 176.353C102.094 176.27 101.892 176.249 101.71 176.306C101.425 176.389 101.134 176.467 100.843 176.535C100.812 176.54 100.786 176.55 100.755 176.561C100.309 176.716 99.9405 176.825 99.5877 176.898C99.541 176.908 99.4943 176.924 99.4476 176.939C99.1051 177.079 98.7316 177.199 98.3009 177.292C98.2594 177.303 98.223 177.313 98.1815 177.328C97.8702 177.453 97.59 177.531 97.3254 177.578C97.2579 177.588 97.1957 177.609 97.1334 177.635C96.8169 177.775 96.5263 177.863 96.2461 177.904C96.1683 177.915 96.0904 177.941 96.0178 177.972C95.722 178.117 95.447 178.2 95.1876 178.226C95.0942 178.237 95.0008 178.262 94.9178 178.309C94.6376 178.454 94.3833 178.532 94.1394 178.553C94.0305 178.563 93.9215 178.595 93.8281 178.646C93.2937 178.937 92.8889 178.953 92.4323 178.709C92.012 178.48 91.6644 178.06 91.4516 177.515C90.5436 175.196 88.3695 173.333 85.7699 172.659C85.6609 172.633 85.552 172.622 85.443 172.643C85.2873 172.539 85.0953 172.487 84.9034 172.513C84.6543 172.544 84.4104 172.591 84.1717 172.648C84.0109 172.534 83.8033 172.482 83.5958 172.513C83.3519 172.55 83.1236 172.601 82.9005 172.659C82.8019 172.586 82.6825 172.534 82.5632 172.513C82.2259 172.337 81.2868 171.584 79.7612 170.272C79.5744 170.111 79.4292 169.986 79.3565 169.924C79.341 169.914 79.3254 169.898 79.3098 169.888C77.7947 168.471 62.9235 150.622 64.6307 146.45C64.7656 146.123 64.6618 145.749 64.3816 145.537C53.3502 137.198 60.4433 124.74 60.5159 124.615C60.6353 124.408 60.656 124.154 60.573 123.936C59.1046 120.194 63.2089 116.204 67.1732 112.349C69.7832 109.812 72.2478 107.414 73.3427 104.97C75.0602 101.131 73.9394 97.6335 72.8549 94.2504C72.0403 91.7027 71.1945 89.0719 71.4955 86.2025C72.0299 81.1279 72.5488 72.0941 72.5799 67.253C72.5955 64.8298 72.3205 62.8736 72.0818 61.1509C71.537 57.2749 71.2101 54.9347 74.7021 51.2039C74.7955 51.1054 74.8578 50.986 74.889 50.8563C75.0809 50.4256 76.4145 48.6355 76.6791 48.3812C77.0008 48.1166 77.0423 47.66 76.7932 47.3279C73.5139 42.9382 73.846 36.0734 77.5768 30.9935C77.8725 30.594 78.1839 30.1789 78.5056 29.7586C79.4655 28.5029 80.4565 27.2057 81.2608 25.7788C81.5358 25.2962 81.707 24.7929 81.8575 24.3207C83.3882 19.4225 87.9129 15.4945 93.1172 14.5502C97.3254 13.7874 101.575 14.8355 104.802 15.8318C104.849 15.8474 104.901 15.8577 104.953 15.8629C106.375 16.0134 107.734 16.3092 108.99 16.745C109.151 16.8021 109.353 16.8021 109.514 16.745L109.581 16.7243C109.945 16.6049 110.609 16.3818 110.847 16.3403C111.071 16.3662 111.299 16.2936 111.47 16.1327C116.348 11.5043 124.494 10.2019 132.215 12.8067C134.68 13.6369 136.439 13.611 137.445 12.7185C137.99 12.2359 138.13 11.5822 138.239 11.0581C138.296 10.7831 138.353 10.5236 138.452 10.3161C139.043 9.09671 141.259 9.71418 142.473 10.2694C142.883 10.4562 143.298 10.643 143.713 10.8298C143.724 10.8298 143.755 10.8453 143.765 10.8505L146.168 11.8779C146.842 12.1477 147.517 12.4227 148.191 12.7029C148.783 12.9312 149.364 13.1596 149.945 13.4034C150.506 13.611 151.04 13.8185 151.585 14.0417C152.104 14.2285 152.597 14.4152 153.095 14.6176C153.442 14.7421 153.759 14.8563 154.075 14.9808C154.158 15.012 154.241 15.0275 154.33 15.0327C154.594 15.0431 155.269 15.0638 155.466 15.0898C155.611 15.1313 155.767 15.1313 155.912 15.0898C159.264 14.0468 167.125 17.212 168.002 17.7101C168.101 17.7828 168.173 17.7984 168.293 17.8191C173.02 18.5819 172.999 21.581 172.994 23.1895C172.994 23.8174 172.989 24.3155 173.461 24.5957C173.575 24.6632 173.705 24.6995 173.84 24.7047C187.159 25.0264 187.979 33.9563 188.005 34.3351C188.021 34.5427 188.119 34.7398 188.28 34.8747C188.441 35.0097 188.649 35.0771 188.856 35.0564C188.898 35.0564 193.137 34.7035 195.871 37.1786C197.423 38.5848 198.217 40.6551 198.243 43.3429C198.243 43.566 198.341 43.7788 198.512 43.9292C204.153 48.7652 201.88 59.0858 201.859 59.1895C201.787 59.5112 201.922 59.8381 202.197 60.0146C203.976 61.1613 204.874 63.3198 204.428 65.385L204.023 67.2737C203.971 67.5124 204.033 67.7615 204.194 67.9431C204.246 68.0001 209.238 73.8583 210.244 78.9485C212.128 88.47 209.414 94.0843 208.107 96.7825C207.546 97.9344 207.24 98.5726 207.442 99.1694C213.43 116.65 202.84 125.316 202.389 125.679C202.139 125.876 202.036 126.208 202.129 126.514C203.592 131.324 201.382 136.949 196.992 139.595C196.966 139.611 196.935 139.632 196.909 139.653C196.696 139.824 196.478 139.985 196.25 140.135C195.954 140.337 195.835 140.716 195.96 141.053C198.409 147.498 194.662 152.863 191.217 154.607C191.196 154.617 191.181 154.627 191.165 154.638C190.885 154.809 190.745 154.985 188.316 159.069C187.471 160.496 186.324 162.421 186.018 162.841C185.706 163.038 185.411 163.21 185.141 163.36C185.125 163.371 185.105 163.381 185.089 163.391C184.949 163.485 184.819 163.568 184.689 163.651C184.404 163.832 184.269 164.175 184.352 164.507C184.555 165.28 184.44 166.012 184.01 166.738C182.214 169.779 175.863 171.434 175.796 171.45C175.417 171.548 175.168 171.906 175.215 172.295C175.225 172.368 176.019 179.71 171.536 183.685C167.125 187.592 160.914 187.099 160.852 187.094C160.831 187.094 160.805 187.094 160.785 187.094V187.073ZM186.148 162.732C186.148 162.732 186.137 162.738 186.132 162.743C186.132 162.743 186.142 162.738 186.148 162.732Z" fill="black"/>
<path d="M106.364 190.295C106.364 190.295 99.619 192.074 92.4636 183.772C85.3082 175.47 107.366 168.258 107.366 168.258L109.799 183.191C109.799 183.191 108.819 184.717 106.364 190.295Z" fill="black"/>
<path d="M56.9615 128.761C57.8799 126.136 58.8554 124.418 58.8554 124.418C57.9993 121.901 57.4441 119.686 57.2158 117.558L57.029 117.398C56.7851 114.871 57.0082 112.453 57.7554 109.76C57.8073 109.76 57.8644 109.76 57.9214 109.76C58.2016 108.737 58.5545 107.679 58.9903 106.558C61.8546 99.1848 67.5415 96.881 67.5415 96.881C66.0679 93.612 66.7061 89.7723 69.1552 87.1572L70.2293 86.0104C67.5882 80.8994 67.3132 74.9116 69.4302 69.6034L69.3109 69.4996C69.4614 69.1364 69.617 68.7732 69.7883 68.4203L70.4991 66.9312C70.4991 66.9312 69.5963 63.9476 69.5496 60.2687L69.726 60.4192C69.6534 57.0413 70.2812 53.0355 73.0001 50.2076L74.9408 47.9193C71.0388 42.6371 71.3501 34.6567 75.6568 29.7014C76.6635 28.5443 77.8517 27.5325 78.6611 26.2353C78.6611 26.1523 78.6508 26.0744 78.6508 25.9914C79.2475 24.9277 79.5796 23.7395 80.0362 22.6083C80.1244 22.3852 80.2282 22.1672 80.3319 21.9441C80.4202 21.8611 80.5084 21.7781 80.6018 21.7003C82.7551 17.2431 87.1449 13.917 92.0327 13.1024C97.3149 12.2826 102.608 14.2128 107.615 16.1067L107.719 16.0548C107.719 16.0548 107.765 16.0704 107.786 16.0808L109.644 15.1364C112.721 11.1306 116.54 9.34568 120.301 8.76453C128.111 7.623 135.603 11.6132 135.603 11.6132C135.603 11.6132 135.614 11.5717 135.629 11.5094C135.723 11.5561 135.78 11.5873 135.78 11.5873C135.78 11.5873 136.132 10.0099 136.475 9.27304C136.771 8.62963 137.31 8.29754 137.959 8.17301C139.08 8.02253 140.481 8.44283 141.555 8.9669C144.865 10.591 148.176 12.2099 151.486 13.834L154.397 13.7458C154.428 13.7354 154.459 13.7302 154.491 13.7199H154.568C155.108 13.5486 155.658 13.4189 156.213 13.3203C160.24 12.6769 164.557 13.917 167.556 16.6879C171.017 19.879 170.56 31.5434 169.512 36.1355C173.762 36.286 176.917 37.3601 178.842 39.1347C181.348 41.4437 182.873 44.1315 183.787 46.7674C183.231 50.659 181.384 54.4002 178.613 57.1814L176.616 55.4483C175.132 54.1615 172.869 54.3275 171.582 55.8063C170.296 57.2852 170.462 59.5527 171.94 60.8395L176.04 64.3938C176.232 64.6429 176.424 64.8971 176.61 65.1566C175.474 65.0217 174.286 65.4316 173.482 66.3604C172.21 67.8288 172.356 70.06 173.803 71.352L181.41 77.9418C182.894 79.2287 183.055 81.491 181.768 82.975C180.481 84.459 178.219 84.6198 176.735 83.333L174.883 81.7245C173.456 80.9825 171.64 81.2834 170.545 82.5495C169.258 84.0335 169.424 86.2958 170.903 87.5826L181.586 96.8395C181.586 96.8395 181.586 96.8499 181.586 96.8602L185.011 99.8282C186.495 101.115 186.656 103.377 185.369 104.861C184.357 106.029 182.738 106.377 181.369 105.842L184.155 108.255C185.639 109.542 185.8 111.804 184.513 113.288C183.226 114.772 180.964 114.933 179.48 113.646L176.47 111.036C175.085 110.45 173.414 110.787 172.376 111.98C171.09 113.464 171.256 115.727 172.734 117.014L176.87 120.594C175.739 122.586 174.421 123.894 173.056 123.889C175.708 128.554 174.986 134.656 171.93 138.999L172.641 139.616C174.125 140.903 174.286 143.165 172.999 144.649C172.096 145.692 170.706 146.076 169.445 145.77C171.23 148.219 171.925 151.488 171.069 154.409C170.384 156.755 168.729 158.752 166.643 160.019L160.572 154.762C159.088 153.475 156.825 153.641 155.539 155.12C154.252 156.599 154.418 158.867 155.897 160.153L162.025 165.462C162.097 168.072 161.651 170.671 160.401 172.939C161.205 174.231 161.122 175.959 160.074 177.168C158.787 178.652 156.525 178.812 155.041 177.526L155.03 177.515C153.468 178.07 151.787 178.185 150.189 177.676C151.17 180.462 148.305 183.394 145.358 183.648C142.416 183.903 139.64 182.382 137.077 180.914C136.574 184.738 132.153 187.509 128.489 186.295L128.313 186.378C126.829 185.392 125.952 184.577 125.952 184.577C125.952 184.577 125.931 184.624 125.895 184.707C125.822 184.639 125.781 184.603 125.781 184.603C125.781 184.603 124.011 189.232 118.299 190.145C117.235 190.3 116.031 190.326 114.687 190.166C111.657 189.813 109.083 187.675 107.194 185.283C105.736 183.441 95.2394 187.908 89.2515 181.23C88.3331 180.208 87.4354 176.529 85.4689 175.45C85.2613 175.336 85.033 175.268 84.7839 175.227C83.632 174.75 83.5075 175.414 79.2319 174.303C73.4204 172.793 72.7615 163.391 72.7615 163.391C72.7615 163.391 67.3962 161.004 65.4245 157.569C64.0858 155.24 63.0999 151.867 62.8301 149.33C62.7159 148.276 62.7263 147.363 62.8872 146.74C59.1616 143.933 57.3455 140.711 56.6139 137.603C55.8407 134.313 56.2818 131.158 56.9511 128.761H56.9615Z" fill="#FFDC5A"/>
<path d="M65.8451 130.224C64.5583 128.74 64.7243 126.478 66.2031 125.191L73.9604 118.471C75.4444 117.185 77.7067 117.351 78.9936 118.829C80.2804 120.313 80.1144 122.576 78.6355 123.863L70.8783 130.582C69.3943 131.869 67.1319 131.703 65.8451 130.224Z" fill="#FB9D1C"/>
<path d="M75.3298 101.088L70.1721 96.6207C68.6881 95.3339 68.5272 93.0715 69.8141 91.5875C71.1009 90.1035 73.3632 89.9427 74.8472 91.2295L80.0049 95.6971C81.4889 96.9839 81.6497 99.2462 80.3629 100.73C79.0761 102.214 76.8138 102.375 75.3298 101.088Z" fill="#FB9D1C"/>
<path d="M65.3831 115.198C66.8671 116.484 67.0279 118.747 65.7411 120.231C64.4543 121.715 62.1919 121.876 60.7079 120.589L57.2107 117.559L57.0239 117.398C56.78 114.871 57.0031 112.453 57.7503 109.76C57.8022 109.76 57.8593 109.76 57.9163 109.76C58.6947 109.791 59.473 110.071 60.106 110.621L65.3831 115.192V115.198Z" fill="#FB9D1C"/>
<path d="M59.172 138.465L61.9688 140.888C62.0985 141.043 62.2386 141.194 62.3943 141.329L64.9835 143.57C66.0576 144.888 66.068 146.834 64.9212 148.157C64.366 148.801 63.624 149.195 62.8457 149.33C62.7315 148.277 62.7419 147.363 62.9028 146.741C59.1772 143.934 57.3611 140.711 56.6295 137.603C57.5272 137.551 58.4456 137.832 59.1772 138.459L59.172 138.465Z" fill="#FB9D1C"/>
<path d="M61.969 140.881C60.895 139.564 60.8846 137.618 62.0313 136.295C63.3181 134.811 65.5805 134.65 67.0645 135.937L72.3986 140.555C73.8826 141.841 74.0434 144.104 72.7566 145.588C71.4698 147.072 69.2074 147.233 67.7234 145.946L64.9786 143.569L62.3893 141.328C62.2337 141.193 62.0936 141.042 61.9639 140.887L61.969 140.881Z" fill="#FBB937"/>
<path d="M72.9275 102.667C74.2144 104.151 74.0483 106.413 72.5695 107.7L69.1449 110.668C67.6609 111.955 65.3985 111.789 64.1117 110.31C62.8249 108.826 62.9909 106.564 64.4697 105.277L67.8944 102.309C69.3784 101.022 71.6407 101.188 72.9275 102.667Z" fill="#FBB937"/>
<path d="M78.9933 73.178C77.7065 74.662 75.4441 74.8229 73.9601 73.536L69.4251 69.6081L69.3058 69.5043C69.4562 69.1411 69.6119 68.7779 69.7831 68.4251L70.494 66.9359C70.494 66.9359 69.5911 63.9523 69.5444 60.2734L69.7209 60.4239L78.6353 68.1501C80.1193 69.4369 80.2801 71.6992 78.9933 73.1832V73.178Z" fill="#FBB937"/>
<path d="M184.503 113.276C183.216 114.76 180.954 114.921 179.47 113.634L176.46 111.024L173.741 108.669C172.257 107.382 172.097 105.119 173.383 103.635C174.395 102.468 176.014 102.12 177.384 102.655L180.331 105.208C180.648 105.477 180.995 105.685 181.364 105.825L184.15 108.238C185.634 109.525 185.795 111.787 184.508 113.271L184.503 113.276Z" fill="#FBB937"/>
<path d="M138.774 153.123L149.151 162.11C150.635 163.396 150.796 165.659 149.51 167.143C148.223 168.627 145.96 168.788 144.476 167.501L134.099 158.514C132.615 157.227 132.454 154.965 133.741 153.481C135.028 151.997 137.29 151.836 138.774 153.123Z" fill="#FBB937"/>
<path d="M147.32 153.668C146.033 152.184 146.199 149.921 147.678 148.634L152.016 144.878C153.5 143.591 155.762 143.757 157.049 145.236C158.336 146.714 158.17 148.982 156.691 150.269L152.353 154.026C150.869 155.312 148.607 155.146 147.32 153.668Z" fill="#FBB937"/>
<path d="M77.7686 62.5824C76.4818 61.0984 76.6478 58.8361 78.1266 57.5493L88.5042 48.5622C89.9882 47.2754 92.2506 47.4414 93.5374 48.9202C94.8242 50.4043 94.6582 52.6666 93.1794 53.9534L82.8017 62.9404C81.3177 64.2273 79.0554 64.0612 77.7686 62.5824Z" fill="#FBB937"/>
<path d="M172.999 144.638C172.096 145.681 170.706 146.065 169.445 145.759C168.915 145.63 168.407 145.38 167.966 144.997L165.475 142.838C163.991 141.551 163.83 139.289 165.117 137.805C166.404 136.321 168.666 136.16 170.15 137.447L171.93 138.988L172.641 139.605C174.125 140.892 174.286 143.154 172.999 144.638Z" fill="#FBB937"/>
<path d="M160.084 177.158C158.797 178.642 156.535 178.802 155.051 177.516L155.041 177.505L152.56 175.357C151.076 174.07 150.916 171.808 152.202 170.324C153.489 168.84 155.752 168.679 157.236 169.966L159.726 172.124C160.001 172.363 160.229 172.633 160.411 172.929C161.215 174.221 161.132 175.949 160.084 177.158Z" fill="#FBB937"/>
<path d="M89.3557 23.309C94.7106 19.0126 105.737 20.1075 109.026 25.6128C110.339 27.8077 109.893 30.9469 107.672 32.213C104.139 34.2314 101.674 30.9728 97.4347 30.5162C93.5794 30.1011 90.8864 32.0002 88.4373 29.9195C87.3995 30.9988 85.9467 31.6733 84.3381 31.6733C81.2819 31.6733 78.7913 29.2605 78.6616 26.2354C78.6616 26.1524 78.6512 26.0746 78.6512 25.9916C79.2479 24.9279 79.58 23.7396 80.0366 22.6085C80.1248 22.3853 80.2286 22.1674 80.3324 21.9443C80.4206 21.8613 80.5088 21.7783 80.6022 21.7004C81.6036 20.8235 82.9112 20.2891 84.3485 20.2891C86.5226 20.2891 88.4165 21.5136 89.3713 23.309H89.3557Z" fill="#FBB937"/>
<path d="M75.247 35.9591C77.9919 34.1534 82.5166 36.0525 82.6048 39.337C84.2341 38.6366 84.5817 38.4134 85.853 36.6389C85.8841 38.2474 86.0865 41.4697 89.9937 42.9952C92.7333 44.0641 96.9415 43.5296 98.5033 41.039C98.5033 47.4108 106.39 47.717 107.968 44.5933C108.212 46.3575 112.555 49.0713 114.267 49.5486C115.984 50.026 120.042 49.8185 123.363 48.2981C126.684 46.7778 128.147 43.0937 127.28 39.5394C129.039 41.1998 133.486 40.847 135.365 38.7974C137.975 35.9436 136.605 31.476 136.605 31.476C138.685 32.2854 141.078 32.493 142.515 30.7029C143.729 29.1877 145.509 28.1188 147.439 27.8542C149.374 27.5896 150.921 27.9372 151.476 29.3434C152.337 31.5279 153.967 31.9326 155.17 31.5538C156.073 31.2736 157.334 30.5368 157.334 30.5368C157.334 30.5368 156.893 33.1572 159.026 36.945C159.14 37.0643 159.259 37.1837 159.373 37.3134C160.458 38.5224 160.94 40.6031 161.485 43.1768C162.507 48.0543 152.612 51.8732 150.433 41.781C149.437 37.1681 144.305 36.2134 141.679 38.237C138.494 40.6965 145.545 49.5798 136.574 53.9436C133.455 55.4587 130.311 53.3365 130.311 53.3365C130.311 53.3365 128.889 56.3823 121.059 56.787C121.002 56.787 115.486 56.6833 112.14 54.6544C110.739 53.8087 109.908 60.056 109.908 60.056C109.908 60.056 107.817 58.2918 104.019 57.804C101.295 57.4512 98.2854 59.8484 97.6212 60.056C87.1865 63.3613 81.8109 55.4898 83.5388 51.2454C81.7434 51.152 79.2165 50.6227 77.3174 49.2529C75.6466 48.0439 74.2197 46.8089 73.4102 44.6867C72.2427 41.6201 72.5073 37.7648 75.2522 35.9591H75.247ZM140.714 38.3512C140.18 38.6884 139.614 39.0776 139.033 39.5342C137.7 40.5824 137.57 41.6046 137.326 42.8914L139.033 39.5342L140.714 38.3512ZM128.863 52.4699C128.78 52.5063 128.692 52.5478 128.609 52.5841C128.697 52.6048 128.739 52.6152 128.728 52.6152L128.863 52.4699Z" fill="#FB9D1C"/>
<path d="M169.227 40.2498C171.256 40.6597 176.128 42.1282 177.27 48.0175C178.136 52.5058 172.984 52.485 172.325 49.5378C171.401 45.4127 169.227 45.0754 167.048 44.6136C164.599 44.0947 164.204 39.2328 169.232 40.2498H169.227Z" fill="#FBEEC4"/>
<path d="M162.959 32.2855C161.515 32.2855 160.344 31.1147 160.344 29.6703C160.344 28.226 161.515 27.0552 162.959 27.0552C164.403 27.0552 165.574 28.226 165.574 29.6703C165.574 31.1147 164.403 32.2855 162.959 32.2855Z" fill="#FBEEC4"/>
<path d="M159.731 26.2982C160.831 25.3798 161.081 23.8232 160.25 22.6557C158.569 20.3051 155.321 17.8145 149.753 18.5409C148.332 18.7277 147.33 19.5943 147.507 21.016C147.704 22.5934 148.71 23.0812 150.143 23.2005C153.795 23.5066 155.648 25.3072 156.11 25.7897C156.696 26.402 158.465 27.3619 159.731 26.3034V26.2982Z" fill="#FBEEC4"/>
<path d="M116.031 21.0675C122.299 16.4028 128.193 19.9 129.169 16.8075C129.6 15.448 128.723 14.0159 127.348 13.6423C126.99 13.5437 118.464 11.3385 112.383 17.4198C111.377 18.4264 111.377 20.0609 112.383 21.0675C112.886 21.5708 114.78 21.9963 116.031 21.0675Z" fill="#FBEEC4"/>
<path d="M126.855 27.2989C127.898 27.2989 128.884 26.6659 129.278 25.6333C129.792 24.2946 129.122 22.795 127.784 22.2813C126.767 21.8922 125.703 21.778 124.608 21.944C123.192 22.1568 122.216 23.4799 122.429 24.8965C122.642 26.313 123.96 27.2885 125.381 27.0758C125.584 27.0447 125.75 27.0602 125.921 27.1277C126.227 27.247 126.538 27.2989 126.85 27.2989H126.855Z" fill="#FBEEC4"/>
<path d="M114.573 37.1718C112.438 37.1718 110.707 35.441 110.707 33.3061C110.707 31.1711 112.438 29.4404 114.573 29.4404C116.708 29.4404 118.439 31.1711 118.439 33.3061C118.439 35.441 116.708 37.1718 114.573 37.1718Z" fill="#FBB937"/>
<path d="M183.122 133.627C189.007 130.649 191.627 122.964 189.261 116.862L188.939 118.528C189.214 118.263 189.391 118.071 189.598 117.843C195.596 111.025 196.759 100.964 193.926 92.5267C193.303 90.612 192.504 88.7648 191.617 86.9643C191.596 86.9176 191.642 87.0058 191.653 87.0473C191.689 87.1148 191.71 87.286 191.715 87.3483C191.725 87.3638 191.715 87.5455 191.7 87.5143C192.322 85.4751 193.277 83.2854 193.568 81.1113C194.351 76.5867 193.536 71.9531 191.648 68.0251C191.627 67.9681 191.559 67.9369 191.502 67.9629C191.456 67.9836 191.435 68.0407 191.45 68.0874C193.682 74.6928 192.95 80.6651 190.075 86.8969C190.013 87.1148 189.941 87.3379 189.987 87.5766C190.013 87.6856 190.039 87.7426 190.065 87.7997L190.392 88.5365C194.642 97.6688 194.693 109.515 187.756 117.345C187.709 117.392 187.699 117.464 187.725 117.516C190.112 123.032 188.015 130.114 183.008 133.451C182.962 133.482 182.946 133.549 182.977 133.596C183.008 133.643 183.071 133.658 183.122 133.627Z" fill="black"/>
<path d="M183.289 134.317C183.439 134.317 183.584 134.276 183.719 134.188C188.996 130.696 191.254 123.499 188.996 117.61C190.854 115.435 199.083 104.383 191.139 87.3846C191.181 87.1408 191.435 86.5389 191.658 86.0044C192.909 83.0364 195.508 76.8617 192.514 67.8072C192.379 67.3973 191.944 67.1794 191.534 67.3143C191.124 67.4492 190.906 67.8903 191.041 68.295C193.848 76.7943 191.404 82.6057 190.226 85.3973C189.697 86.653 189.406 87.3483 189.686 87.9502C198.139 105.929 187.979 116.463 187.544 116.904C187.32 117.127 187.253 117.469 187.377 117.76C189.614 122.97 187.585 129.757 182.858 132.891C182.5 133.129 182.401 133.612 182.64 133.97C182.791 134.198 183.04 134.317 183.289 134.317Z" fill="black"/>
<path d="M166.041 169.042C166.072 169.042 166.103 169.042 166.134 169.037C169.491 168.632 171.375 166.712 172.371 165.171C173.886 162.815 174.187 160.024 173.705 158.488C173.575 158.078 173.139 157.85 172.729 157.979C172.319 158.109 172.091 158.545 172.221 158.955C172.537 159.951 172.387 162.276 171.063 164.33C170.254 165.591 168.708 167.163 165.952 167.496C165.527 167.547 165.221 167.937 165.273 168.362C165.319 168.756 165.657 169.047 166.046 169.047L166.041 169.042Z" fill="black"/>
<path d="M116.291 191.074C122.185 191.074 125.008 187.55 126.04 185.817C128.77 187.971 138.229 194.348 147.102 187.39C147.403 187.156 147.678 186.902 147.942 186.658C148.43 186.212 148.892 185.786 149.416 185.553C149.572 185.532 150.013 185.558 150.376 185.579C153.733 185.76 162.653 186.253 165.257 173.904C165.346 173.483 165.076 173.068 164.656 172.98C164.235 172.892 163.82 173.162 163.732 173.582C161.402 184.624 153.728 184.204 150.459 184.022C149.639 183.98 149.188 183.955 148.845 184.1C148.057 184.437 147.465 184.982 146.889 185.511C146.635 185.745 146.391 185.968 146.142 186.165C136.724 193.549 126.43 184.126 126.326 184.032C126.134 183.856 125.869 183.783 125.62 183.846C125.366 183.903 125.163 184.084 125.07 184.328C124.977 184.572 122.626 190.352 114.615 189.424C111.574 189.071 109.146 186.731 107.641 184.831C106.883 183.877 105.27 183.991 102.82 184.167C98.8199 184.453 93.3456 184.842 89.6668 180.743C89.4644 180.52 89.1842 179.746 88.9352 179.061C88.2658 177.219 87.3526 174.703 85.3134 174.703C85.2615 174.703 85.2044 174.703 85.1525 174.703C81.6189 174.703 78.8222 173.696 76.84 171.709C73.5451 168.414 73.5451 163.454 73.5451 163.402C73.5451 163.049 73.3168 162.737 72.9744 162.644C72.5696 162.53 63.0637 159.681 63.6708 146.782C63.6812 146.522 63.567 146.279 63.3595 146.123C52.0998 137.644 59.0476 125.362 59.3485 124.844C59.4627 124.646 59.4834 124.413 59.4108 124.2C57.1018 117.408 57.1329 113.039 59.5301 106.875C62.2283 99.9268 67.5988 97.6593 67.6506 97.6334C67.8478 97.5555 68.0035 97.3947 68.0813 97.2027C68.1591 97.0055 68.154 96.7876 68.0709 96.5956C66.7218 93.6017 67.2978 90.12 69.5446 87.7227L70.6186 86.576C70.8418 86.3373 70.8936 85.9793 70.7432 85.6887C68.0242 80.4273 67.9256 74.1021 70.4837 68.7576L71.1946 67.2684C71.2776 67.092 71.2932 66.8948 71.2361 66.708C71.205 66.6043 68.154 56.2163 73.3791 50.7732L75.3508 48.4486C75.5843 48.1736 75.5999 47.7741 75.382 47.4835C71.6927 42.497 71.9937 34.9214 76.0617 30.241C76.3834 29.8726 76.7207 29.525 77.0787 29.1514C77.8415 28.3627 78.6302 27.5429 79.2217 26.5518C79.7146 25.7268 80.0312 24.8447 80.3373 23.9885C80.467 23.6253 80.5967 23.2621 80.742 22.9041C82.6308 18.2289 87.0724 14.6902 92.0484 13.8911C97.2995 13.0453 102.623 15.0638 107.319 16.8435C107.522 16.9214 107.75 16.911 107.947 16.8124L109.805 15.868C109.908 15.8161 109.997 15.7383 110.069 15.6501C119.077 3.93894 134.56 11.9608 135.214 12.3085C135.427 12.4226 135.686 12.4278 135.904 12.3293C136.122 12.2255 136.283 12.0283 136.34 11.7948C136.434 11.3797 136.729 10.1759 136.984 9.63626C137.118 9.34049 137.331 9.1537 137.648 9.03954C138.436 8.75935 139.827 9.00841 141.187 9.67777L151.118 14.5449C151.232 14.602 151.351 14.6331 151.486 14.6227L154.397 14.5345C154.47 14.5345 154.537 14.5189 154.61 14.4982C158.865 13.1595 163.732 14.2491 167.011 17.269C168.558 18.6959 169.455 22.5253 169.476 27.7815C169.476 28.2122 169.824 28.5547 170.254 28.5547C170.685 28.5547 171.033 28.2018 171.027 27.7712C171.012 24.4296 170.607 18.4728 168.059 16.1223C164.406 12.7495 158.989 11.5198 154.242 12.9779L151.626 13.0557L141.871 8.2716C141.207 7.9447 138.903 6.93288 137.129 7.56592C136.423 7.81498 135.884 8.30792 135.572 8.97728C135.38 9.38719 135.199 9.99947 135.059 10.508C131.421 8.87869 117.479 3.65874 108.948 14.5553L107.553 15.2661C102.971 13.5331 97.341 11.4679 91.8046 12.3552C86.2992 13.2373 81.3906 17.1549 79.2995 22.3229C79.1491 22.6965 79.009 23.0805 78.8741 23.4645C78.5783 24.2843 78.2981 25.0626 77.883 25.7579C77.3849 26.5985 76.6896 27.3146 75.9579 28.0721C75.5999 28.4405 75.2367 28.8245 74.889 29.2188C70.4993 34.2728 70.0531 42.3569 73.7734 47.9038L72.222 49.7302C66.8568 55.3186 69.1554 65.0113 69.6639 66.8585L69.0776 68.0831C66.3949 73.6974 66.4157 80.3131 69.1139 85.9015L68.4082 86.6538C65.902 89.3261 65.1392 93.1295 66.3638 96.5282C64.693 97.4155 60.4641 100.176 58.0825 106.309C55.5711 112.769 55.5036 117.366 57.8334 124.377C56.7437 126.494 51.2125 138.594 62.0986 147.109C61.7198 159.11 69.7936 163.085 72.0041 163.941C72.0923 165.456 72.6267 169.68 75.7244 172.788C78.0127 175.087 81.1831 176.249 85.1525 176.249C85.2044 176.249 85.2615 176.26 85.3134 176.249C86.2629 176.249 86.9634 178.174 87.4719 179.586C87.8248 180.556 88.0998 181.324 88.5045 181.775C92.6919 186.44 98.851 186.004 102.929 185.714C104.284 185.615 106.136 185.485 106.416 185.791C108.103 187.924 110.858 190.549 114.433 190.965C115.082 191.037 115.699 191.074 116.285 191.074H116.291Z" fill="black"/>
<path d="M184.809 58.8051C189.308 52.921 187.486 41.0801 179.454 39.4145C179.314 39.3678 179.174 39.4975 179.299 39.6221C184.259 43.4359 185.229 50.2799 184.835 56.1588C184.783 57.0254 184.7 57.8971 184.56 58.7481C184.534 58.8674 184.71 58.9504 184.778 58.8466L184.809 58.8051Z" fill="black"/>
<path d="M98.4567 54.9184C102.286 57.3623 108.097 56.4647 111.237 52.8014C111.787 52.1683 111.989 51.6598 112.57 51.2966C112.539 51.307 112.415 51.3329 112.337 51.3174C112.29 51.3122 112.249 51.3018 112.259 51.3018H112.254L112.243 51.2862C112.269 51.2862 112.311 51.2914 112.368 51.3122C112.477 51.3433 112.601 51.39 112.726 51.4315C115.85 52.573 118.911 53.7665 122.279 54.192C125.724 54.659 129.242 53.7717 132.262 52.0542C135.92 49.9631 137.767 45.7653 138.172 41.7232C138.25 40.2704 139.272 39.0769 140.59 38.3661C140.657 38.3349 140.688 38.2519 140.657 38.1845C140.631 38.1378 140.585 38.1118 140.533 38.1118C139.957 38.1326 139.381 38.309 138.857 38.5788C137.762 39.1288 136.818 40.1199 136.496 41.3496C135.105 45.7342 132.537 49.4701 128.204 51.1773C122.455 53.5901 117.93 53.5226 112.767 49.7815L112.658 49.74L112.601 49.7244C112.601 49.7244 112.539 49.7088 112.477 49.7036C112.332 49.6881 112.176 49.714 112.072 49.74C111.117 49.9112 110.261 50.7985 109.68 51.3018C106.826 53.891 102.857 55.2557 98.5553 54.6745C98.4255 54.6486 98.3425 54.8509 98.467 54.9184H98.4567Z" fill="black"/>
<path d="M90.5021 49.2272C87.7468 51.6711 83.6269 51.6348 80.3476 50.4206C76.5026 48.9107 73.4828 45.8337 72.2011 41.8228C72.1855 43.8568 72.9276 45.9323 74.1729 47.6238C76.046 50.1819 78.9725 51.998 82.1325 52.4494C85.1524 52.8646 88.8935 52.0395 90.5021 49.2272Z" fill="black"/>
<path d="M144.539 35.6475C148.29 33.1258 153.842 33.2244 157.044 36.4985C158.979 38.3976 160.453 40.5873 161.376 43.1869C161.407 43.2855 161.563 43.2751 161.584 43.1765C161.828 42.1958 161.807 41.1477 161.605 40.1411C160.681 34.8381 154.6 31.8441 149.629 32.8819C147.667 33.2711 145.815 34.148 144.404 35.4867C144.316 35.5697 144.43 35.7202 144.533 35.6475H144.539Z" fill="black"/>
<path d="M189.531 64.866C189.66 64.866 189.79 64.8349 189.909 64.7674C190.283 64.5599 190.423 64.0825 190.21 63.7089L189.417 62.2768C189.209 61.898 188.732 61.7631 188.358 61.9758C187.984 62.1834 187.844 62.6608 188.057 63.0344L188.851 64.4665C188.991 64.7207 189.261 64.866 189.531 64.866Z" fill="black"/>
<path d="M174.711 152.8C174.872 152.8 175.038 152.748 175.178 152.644C177.43 150.953 179.288 148.67 180.549 146.049C180.736 145.66 180.57 145.198 180.186 145.011C179.796 144.825 179.335 144.991 179.148 145.375C177.996 147.772 176.299 149.853 174.244 151.399C173.902 151.658 173.829 152.146 174.089 152.489C174.239 152.691 174.478 152.8 174.711 152.8Z" fill="black"/>
<path d="M181.239 142.35C181.602 142.35 181.929 142.095 182.002 141.722C182.194 140.772 182.303 139.807 182.329 138.858C182.344 138.427 182.007 138.069 181.576 138.058C181.146 138.033 180.788 138.38 180.777 138.811C180.751 139.677 180.648 140.554 180.476 141.421C180.393 141.841 180.668 142.251 181.089 142.334C181.141 142.344 181.192 142.35 181.244 142.35H181.239Z" fill="black"/>
<path d="M161.553 42.8859C161.739 43.9289 161.542 44.8628 160.759 45.5789C159.197 47.0058 159.104 43.877 159.7 42.4189C161.112 38.9735 158.164 36.1353 158.164 36.1353C158.164 36.1353 160.738 38.3405 161.547 42.8859H161.553Z" fill="black"/>
<path d="M160.063 46.7205C160.395 46.7205 160.811 46.5908 161.288 46.155C162.212 45.3092 162.564 44.1365 162.321 42.7511C161.475 37.993 158.792 35.6424 158.678 35.549C158.356 35.274 157.879 35.3052 157.594 35.6165C157.308 35.9278 157.324 36.4104 157.63 36.7009C157.734 36.7995 160.172 39.2279 158.984 42.1284C158.528 43.244 158.253 45.7295 159.358 46.5026C159.487 46.596 159.731 46.7257 160.058 46.7257L160.063 46.7205ZM160.613 42.1907C160.676 42.4553 160.738 42.7355 160.79 43.0209C160.945 43.8875 160.769 44.5205 160.24 45.0031C160.229 45.0134 160.219 45.0238 160.209 45.0342C160.095 44.5309 160.131 43.4412 160.432 42.7148C160.504 42.5384 160.567 42.3619 160.619 42.1907H160.613Z" fill="black"/>
<path d="M197.028 143.493C197.028 143.493 195.353 139.606 193.858 137.671C192.551 135.979 190.999 132.679 190.999 132.679L205.499 123.5L202.819 132.679C201.797 136.016 199.623 138.88 196.691 140.763L197.028 143.498V143.493Z" fill="black"/>
<path d="M190.314 132.378C190.548 132.123 190.906 132.071 191.202 132.206L196.276 121.066C196.276 121.066 196.25 121.05 196.235 121.045C195.856 120.843 195.711 120.371 195.913 119.992C196.115 119.613 196.582 119.468 196.966 119.67C203.38 123.064 210.457 124.044 216.891 122.436C226.382 120.059 231.441 110.299 232.276 108.556C230.906 104.493 229.687 98.4583 231.337 92.2317C232.889 86.3684 236.853 81.714 241.673 80.0899C242.218 79.9083 242.768 79.7682 243.308 79.68L243.624 79.5295C244.262 79.1403 244.875 78.7875 245.461 78.4554L250.416 75.5549L250.723 75.0671C251.724 73.5831 253.047 72.0991 254.65 70.667C256.036 69.4269 257.909 67.9273 260.119 67.341C261.588 66.9518 264.447 67.6212 266.507 69.3854C267.944 70.6151 269.573 72.8722 269.179 76.6289C269.023 78.0922 268.396 80.0899 267.773 81.7192C268.769 81.5946 269.34 81.6154 270.533 81.8385C272.313 82.1758 273.839 83.3225 274.83 85.0763C275.567 86.3787 276.013 88.6203 275.816 90.0784C275.38 93.3836 274.825 95.2308 272.791 97.1663C273.875 98.2715 275.774 100.762 275.001 104.135C274.944 104.374 274.892 104.643 274.835 104.929C274.638 105.889 274.415 106.973 274.057 107.762C272.905 110.304 271.203 112.561 269.143 114.295C266.58 116.448 263.539 117.755 260.644 118.902C257.042 120.334 253.348 121.657 249.669 122.841L249.368 123.053C242.119 133.234 234.321 138.578 223.32 140.918C219.932 141.64 216.632 141.998 213.462 141.998C204.412 141.998 196.416 139.092 190.351 133.472C190.034 133.182 190.019 132.689 190.309 132.372L190.314 132.378Z" fill="#FB9D1C"/>
<path d="M190.314 132.378C190.548 132.123 190.906 132.071 191.202 132.206C191.274 132.237 191.347 132.279 191.414 132.336C199.218 139.564 210.442 142.075 223.004 139.403C233.625 137.141 241.159 131.952 248.18 122.052C248.232 121.979 248.294 121.917 248.367 121.865L248.875 121.507C248.938 121.46 249.01 121.424 249.088 121.403C252.777 120.22 256.472 118.892 260.078 117.46C262.854 116.36 265.77 115.114 268.152 113.106C270.035 111.524 271.587 109.453 272.65 107.118C272.936 106.491 273.138 105.494 273.32 104.617C273.382 104.322 273.439 104.041 273.496 103.787C274.243 100.523 271.748 98.2611 271.249 97.846C269.485 97.2441 260.867 98.1418 258.298 101.25L257.478 102.443C257.478 102.443 257.463 102.469 257.458 102.485C257.105 103.258 257.063 103.979 257.333 104.685C258.059 106.584 260.742 107.71 260.768 107.72C261.546 108.011 262.273 108.198 262.724 108.281C263.02 108.338 263.259 108.556 263.331 108.846C263.404 109.137 263.311 109.448 263.082 109.64C262.921 109.775 262.102 110.46 261.676 110.683C261.562 110.745 261.437 110.771 261.313 110.771C261.033 110.771 260.763 110.621 260.623 110.356C260.446 110.019 260.54 109.609 260.83 109.381C260.628 109.313 260.41 109.241 260.182 109.158C259.393 108.929 257.717 108.026 256.259 107.129C255.418 106.61 254.723 105.702 254.048 104.82C253.364 103.922 252.653 102.999 251.957 102.724C249.005 101.582 245.549 103.268 245.513 103.284C245.253 103.414 244.942 103.388 244.703 103.216C244.47 103.045 244.351 102.755 244.392 102.464C244.449 102.106 244.496 101.696 244.532 101.265C244.594 99.6829 244.143 98.0588 243.24 96.829L243.308 96.7823C241.554 96.1026 239.691 94.7742 238.347 92.5949C238.124 92.2265 238.238 91.7492 238.601 91.526C238.965 91.3029 239.447 91.4171 239.67 91.7803C241.076 94.0634 243.079 95.1945 244.688 95.6044C244.703 95.6044 244.714 95.6044 244.729 95.6044C244.75 95.6096 246.712 95.9573 248.528 94.52C249.187 93.8299 249.783 92.9478 250.183 92.1124C250.634 90.7218 250.499 89.3156 250.375 88.5892C250.043 86.6589 248.927 83.3433 247.495 81.9579C246.245 81.0446 244.719 81.0394 243.65 81.2003C243.51 81.2211 243.38 81.2003 243.256 81.1536L243.204 81.2885C242.861 81.3611 242.514 81.4442 242.171 81.5635C237.839 83.0268 234.264 87.266 232.842 92.6261C231.249 98.6295 232.51 104.483 233.848 108.343C233.911 108.53 233.906 108.727 233.828 108.909C233.61 109.407 228.4 121.154 217.27 123.946C210.478 125.648 203.022 124.625 196.281 121.066C196.266 121.061 196.255 121.05 196.24 121.045C195.861 120.843 195.716 120.371 195.918 119.992C196.121 119.613 196.588 119.468 196.972 119.67C203.385 123.064 210.462 124.044 216.897 122.436C226.387 120.059 231.446 110.299 232.281 108.556C230.912 104.493 229.692 98.4583 231.342 92.2317C232.894 86.3684 236.858 81.714 241.678 80.0899C242.223 79.9083 242.773 79.7682 243.313 79.68L243.629 79.5295C244.268 79.1403 244.88 78.7875 245.466 78.4554L250.422 75.5549L250.728 75.0671C251.729 73.5831 253.052 72.0991 254.656 70.667C256.041 69.4269 257.914 67.9273 260.125 67.341C261.593 66.9518 264.452 67.6212 266.512 69.3854C267.949 70.6151 269.579 72.8722 269.184 76.6289C269.029 78.0922 268.401 80.0899 267.778 81.7192C268.774 81.5946 269.345 81.6154 270.539 81.8385C272.318 82.1758 273.844 83.3225 274.835 85.0763C275.572 86.3787 276.018 88.6203 275.821 90.0784C275.385 93.3836 274.83 95.2308 272.796 97.1663C273.88 98.2715 275.779 100.762 275.006 104.135C274.949 104.374 274.897 104.643 274.84 104.929C274.643 105.889 274.42 106.973 274.062 107.762C272.91 110.304 271.208 112.562 269.148 114.295C266.585 116.448 263.544 117.755 260.649 118.902C257.048 120.334 253.353 121.657 249.674 122.841L249.373 123.053C242.125 133.234 234.326 138.578 223.326 140.918C219.937 141.64 216.637 141.998 213.467 141.998C204.417 141.998 196.422 139.092 190.356 133.472C190.039 133.182 190.024 132.689 190.314 132.372V132.378ZM267.534 83.3277C267.498 83.3277 267.462 83.3329 267.425 83.3329H266.657C264.395 83.665 261.894 84.6249 259.227 86.2023L258.443 86.6641C255.683 88.2727 253.602 89.492 252.564 92.2058C252.206 93.477 251.916 94.9714 251.983 96.2946C252.087 97.0469 252.336 97.6904 252.746 98.2092C252.777 98.2507 252.814 98.2871 252.85 98.3286C254.137 99.6569 256.477 99.9319 257.343 99.9838C260.42 96.7512 268.629 95.6615 271.447 96.2946C273.481 94.4837 273.875 92.9633 274.28 89.876C274.43 88.7448 274.057 86.8665 273.481 85.8495C272.718 84.5056 271.571 83.6235 270.253 83.3744C269.117 83.1565 268.759 83.1513 267.539 83.3277H267.534ZM265.5 70.5736C263.694 69.0273 261.339 68.6382 260.524 68.8509C258.635 69.349 256.949 70.7085 255.693 71.8293C254.183 73.1784 252.948 74.5638 252.03 75.9233L251.636 76.5511C251.615 76.5822 251.594 76.6082 251.573 76.6341C251.568 76.6393 251.563 76.6497 251.558 76.6549C251.542 76.6705 250.167 78.2427 250.022 80.4012C249.955 81.3767 250.338 82.6532 250.712 83.6806C250.966 84.2202 251.179 84.7702 251.355 85.3046C252.191 87.4632 253.322 88.2415 253.327 88.2467C253.343 88.2571 253.348 88.2675 253.358 88.2778C254.573 87.1207 256.062 86.249 257.66 85.3202L258.438 84.8636C261.131 83.2758 263.689 82.2692 266.045 81.8645C266.756 80.1418 267.488 77.9158 267.638 76.4733C267.897 73.9982 267.181 72.0109 265.5 70.5736Z" fill="black"/>
<path d="M118.335 90.778C119.959 81.1579 124.873 74.7341 130.855 74.4176C134.379 74.2256 137.212 75.2323 139.287 77.396C144.31 82.6367 143.874 93.3879 143.454 97.7725C143.07 101.752 141.84 105.545 139.9 108.752C139.209 109.888 138.509 110.833 137.824 111.554C135.385 114.112 131.769 115.544 128.152 115.383C125.101 115.248 122.476 113.977 120.748 111.808C117.437 107.647 116.648 100.772 118.34 90.778H118.335Z" fill="white"/>
<path d="M116.799 90.5191C118.553 80.1519 124.037 73.2196 130.772 72.8616C134.768 72.654 138.006 73.8111 140.408 76.3173C145.68 81.8175 145.545 92.2107 145 97.9184C144.595 102.126 143.293 106.153 141.223 109.557C140.475 110.792 139.708 111.824 138.945 112.623C136.34 115.358 132.547 116.951 128.697 116.951C128.489 116.951 128.282 116.951 128.074 116.935C124.572 116.78 121.531 115.301 119.523 112.774C115.922 108.249 115.03 100.969 116.799 90.5191ZM128.147 115.384C131.763 115.54 135.38 114.113 137.819 111.555C138.504 110.833 139.204 109.889 139.894 108.753C141.84 105.546 143.07 101.748 143.449 97.7731C143.869 93.3937 144.305 82.6373 139.282 77.3966C137.207 75.2329 134.379 74.2262 130.85 74.4182C124.873 74.7347 119.959 81.1585 118.33 90.7786C116.638 100.767 117.427 107.647 120.737 111.809C122.465 113.978 125.091 115.249 128.142 115.384H128.147Z" fill="black"/>
<path d="M95.4522 109.146C92.3649 105.27 91.3427 98.3632 92.4116 88.6186C93.4546 79.1179 97.5433 72.6008 102.82 72.0144C105.726 71.6927 108.144 72.414 110.012 74.1626C115.056 78.8844 115.144 89.8276 114.947 94.316C114.775 98.2387 113.836 102.027 112.233 105.264C111.667 106.411 111.081 107.371 110.5 108.108C108.445 110.713 105.311 112.269 102.115 112.28H102.089C99.4113 112.28 97.0556 111.169 95.4471 109.151L95.4522 109.146Z" fill="white"/>
<path d="M90.8654 88.4474C91.9914 78.1943 96.6198 71.1375 102.649 70.4682C106.022 70.0946 108.86 70.9559 111.076 73.0262C116.394 78.0023 116.758 88.5408 116.498 94.3834C116.317 98.5241 115.32 102.519 113.624 105.949C113.006 107.195 112.368 108.243 111.719 109.063C109.374 112.036 105.783 113.816 102.12 113.826H102.089C98.9288 113.826 96.1424 112.508 94.2329 110.111C90.8343 105.846 89.729 98.7576 90.8654 88.4422V88.4474ZM102.115 112.274C105.311 112.264 108.445 110.707 110.5 108.103C111.081 107.366 111.662 106.411 112.233 105.259C113.836 102.021 114.77 98.2387 114.947 94.3108C115.144 89.8224 115.056 78.8792 110.012 74.1574C108.144 72.4088 105.726 71.6875 102.82 72.0092C97.5434 72.5956 93.4546 79.1127 92.4117 88.6134C91.3428 98.3632 92.365 105.27 95.4523 109.14C97.0608 111.159 99.4166 112.269 102.094 112.269H102.12L102.115 112.274Z" fill="black"/>
<path d="M116.996 88.7912C118.153 85.4963 121.147 82.4401 124.624 82.9797C128.157 83.5297 130.612 88.0544 131.131 92.0342C131.717 96.5485 131.131 105.053 125.221 108.296C124.027 108.95 122.979 109.204 122.081 109.204C120.748 109.204 119.736 108.654 119.025 108.052C115.04 104.674 114.76 95.189 116.996 88.7964V88.7912Z" fill="black"/>
<path d="M91.0938 86.6948C91.9914 83.3895 94.5599 80.2347 97.751 80.6135C100.968 80.9923 103.376 85.325 104.004 89.2114C104.72 93.6011 104.554 101.955 99.4063 105.411C98.2492 106.189 97.2321 106.469 96.3708 106.469C95.3953 106.469 94.6066 106.106 94.0254 105.691C90.1494 102.91 89.2777 93.3676 91.0886 86.6896L91.0938 86.6948Z" fill="black"/>
<path d="M108.445 123.993L111.626 123.915L112.466 123.894L113.328 123.873C113.431 124.065 113.535 124.231 113.639 124.387C113.909 124.786 114.142 125.035 114.147 125.041C114.23 125.124 114.288 125.227 114.324 125.336C114.734 126.571 118.797 129.29 124.209 130.043C127.924 130.556 134.768 130.396 139.64 123.764C139.765 123.593 139.889 123.417 140.014 123.235L140.958 123.214L141.866 123.193L142.956 123.167C143.153 126.784 142.919 130.484 141.996 133.971C141.928 134.225 141.856 134.474 141.783 134.723C141.71 134.972 141.627 135.221 141.55 135.465C141.389 135.403 141.233 135.34 141.072 135.289C132.915 132.419 123.254 134.713 117.302 141.012L117.032 141.297C116.436 141.925 115.787 142.61 115.232 143.326C115.123 143.466 115.019 143.606 114.921 143.752C114.734 143.565 114.547 143.378 114.365 143.181C114.184 142.984 114.002 142.792 113.831 142.589C113.156 141.806 112.549 140.965 112.02 140.088C109.14 135.32 108.274 129.565 108.455 123.998L108.445 123.993Z" fill="black"/>
<path d="M124.209 130.042C114.91 128.631 113.909 124.786 113.639 124.386C113.535 124.236 113.431 124.065 113.328 123.873L140.014 123.234C139.889 123.416 139.765 123.592 139.64 123.764C134.768 130.395 127.919 130.608 124.209 130.042Z" fill="white"/>
<path d="M117.017 141.297L117.287 141.012C123.244 134.713 132.9 132.419 141.057 135.289C141.218 135.346 141.379 135.408 141.534 135.465C141.031 136.98 140.393 138.443 139.583 139.829C136.678 144.789 131.349 148.562 125.6 148.515C121.578 148.484 117.79 146.585 114.905 143.741C115.004 143.601 115.108 143.456 115.217 143.316C115.767 142.6 116.421 141.915 117.017 141.287V141.297Z" fill="#FB9D1C"/>
<path d="M106.172 123.208C106.842 123.234 133.289 122.616 133.289 122.616C134.991 122.482 136.693 122.326 138.39 122.155C138.109 121.236 137.969 120.282 138.021 119.316C140.003 122.528 142.359 125.206 145.493 127.266C146.505 127.945 147.589 128.542 148.788 129.17C147.039 129.419 145.275 129.056 143.693 128.272C143.371 132.864 142.224 136.87 140.258 140.222C137.02 145.743 131.317 149.297 125.703 149.297C125.667 149.297 125.63 149.297 125.599 149.297C120.063 149.256 114.599 145.878 111.346 140.487C108.803 136.279 107.568 131.007 107.651 124.806C107.143 124.791 106.629 124.785 106.115 124.765C105.685 124.749 105.353 124.391 105.363 123.96C105.378 123.53 105.742 123.192 106.167 123.208H106.172ZM112.674 139.683C115.606 144.539 120.68 147.704 125.604 147.741C125.636 147.741 125.667 147.741 125.698 147.741C130.773 147.741 135.951 144.493 138.909 139.439C140.865 136.102 141.96 132.05 142.183 127.359C140.969 126.472 139.936 125.33 139.199 124.038L133.299 124.178C127.078 124.666 120.826 124.92 114.583 124.92C112.788 124.92 110.993 124.894 109.197 124.853C109.12 130.747 110.282 135.734 112.669 139.688L112.674 139.683Z" fill="black"/>
<path d="M138.022 119.317C138.022 119.317 142.219 110.392 149.001 112.763C155.783 115.129 160.448 120.235 158.735 125.906C157.023 131.578 148.794 129.175 148.794 129.175C147.595 128.547 146.51 127.951 145.499 127.271C142.365 125.211 140.009 122.534 138.027 119.322L138.022 119.317Z" fill="#FFDC5A"/>
<path d="M161.044 120.359C159.789 120.359 158.771 119.342 158.771 118.087C158.771 116.831 159.789 115.814 161.044 115.814C162.299 115.814 163.317 116.831 163.317 118.087C163.317 119.342 162.299 120.359 161.044 120.359Z" fill="#FBB937"/>
<path d="M150.9 114.289C149.645 114.289 148.627 113.272 148.627 112.016C148.627 110.761 149.645 109.744 150.9 109.744C152.155 109.744 153.173 110.761 153.173 112.016C153.173 113.272 152.155 114.289 150.9 114.289Z" fill="#FBB937"/>
<path d="M152.399 122.914C151.144 122.914 150.127 121.896 150.127 120.641C150.127 119.386 151.144 118.368 152.399 118.368C153.655 118.368 154.672 119.386 154.672 120.641C154.672 121.896 153.655 122.914 152.399 122.914Z" fill="#FBB937"/>
<path d="M178.416 147.025C178.889 146.512 180.466 145.993 180.108 146.833C179.081 149.257 181.151 150.663 182.365 151.249C187.922 153.921 189.749 149.801 189.749 149.801C189.749 149.801 193.563 153.475 196.084 148.914L195.545 151.669L191.57 155.286L189.131 165.16L159.088 163.775L153.505 152.977C153.505 152.977 159.975 151.815 164.069 148.733C164.837 148.151 165.849 148.001 166.742 148.364C169.331 149.417 174.8 150.938 178.411 147.025H178.416Z" fill="black"/>
<path d="M71.8847 149.292C71.8847 149.292 75.2367 150.875 77.8726 153.92C79.3359 155.607 83.6115 160.547 84.5143 161.849C85.936 163.893 88.1257 165.419 91.623 165.362C92.4947 165.346 93.2938 165.87 93.5636 166.7C94.2537 168.838 96.1632 172.668 101.119 173.747C106.074 174.826 108.559 173.892 109.67 173.119C110.017 172.875 110.505 172.953 110.744 173.301C111.091 173.804 111.844 174.375 113.468 174.676C116.758 175.283 119.601 174.676 119.601 174.676L114.729 178.739L76.2537 169.399L71.8899 149.297L71.8847 149.292Z" fill="black"/>
<path d="M81.3545 156.906C81.3545 156.906 77.0996 154.244 76.7623 150.783C76.3576 146.616 75.3354 151.509 71.4853 147.97C69.3371 145.999 70.0688 146.72 65.7724 146.139C61.4761 145.558 66.364 153.917 66.364 153.917L85.8013 164.419L81.3596 156.906H81.3545Z" fill="black"/>
<path d="M61.8288 150.818C61.0712 143.491 67.7232 145.945 72.9951 150.211C79.5849 155.534 82.6722 162.031 88.7743 168.263C95.94 175.589 111.47 179.003 125.931 173.768C142.536 167.759 141.83 155.69 158.777 152.022C176.237 148.244 177.306 151.497 191.575 155.285C191.575 155.285 188.01 171.256 182.79 186.216C181.088 191.093 181.239 195.893 163.945 201.17C163.945 201.17 123.534 204.024 112.591 201.17C112.492 197.823 110.915 196.147 110.256 192.572L112.42 199.717C84.7789 201.601 70.5096 192.115 67.5157 189.563C63.0481 185.754 62.2283 185.832 63.0481 173.742C63.4529 167.754 61.8288 150.818 61.8288 150.818Z" fill="#FF5100"/>
<path d="M191.57 155.286L176.169 150.782L163.945 201.17C163.945 201.17 179.086 197.31 181.675 189.563C184.264 181.816 191.575 155.286 191.575 155.286H191.57Z" fill="#B80000"/>
<path d="M119.684 183.602C125.329 183.602 130.601 183.254 135.323 182.735C155.99 180.468 170.866 174.526 171.017 174.464C171.416 174.303 171.608 173.852 171.448 173.452C171.287 173.053 170.835 172.861 170.436 173.022C170.29 173.079 155.58 178.952 135.11 181.194C116.259 183.254 88.5303 182.569 63.4527 167.594C63.0843 167.376 62.607 167.496 62.3838 167.864C62.1659 168.232 62.2852 168.71 62.6537 168.933C81.8211 180.379 102.493 183.602 119.689 183.602H119.684Z" fill="white"/>
<path d="M170.721 174.521H186.75C187.18 174.521 187.528 174.173 187.528 173.742C187.528 173.312 187.18 172.964 186.75 172.964H170.721C170.291 172.964 169.943 173.312 169.943 173.742C169.943 174.173 170.291 174.521 170.721 174.521Z" fill="#D9A1A1"/>
<path d="M163.945 201.947C164.282 201.947 164.593 201.724 164.692 201.382C165.46 198.704 166.217 195.882 167.006 192.763C167.11 192.348 166.861 191.923 166.44 191.819C166.02 191.715 165.6 191.964 165.496 192.384C164.713 195.493 163.96 198.295 163.192 200.956C163.073 201.372 163.312 201.802 163.727 201.922C163.799 201.942 163.872 201.953 163.945 201.953V201.947Z" fill="black"/>
<path d="M166.254 193.351C166.601 193.351 166.918 193.117 167.006 192.764C167.255 191.778 167.504 190.777 167.753 189.75C167.857 189.335 167.603 188.909 167.183 188.81C166.767 188.707 166.342 188.966 166.243 189.381C165.994 190.398 165.745 191.4 165.496 192.38C165.392 192.795 165.641 193.221 166.062 193.325C166.124 193.34 166.191 193.351 166.254 193.351Z" fill="black"/>
<path d="M167.862 186.646C168.215 186.646 168.537 186.407 168.62 186.044C169.253 183.362 169.917 180.508 170.633 177.41L171.801 172.392C171.899 171.972 171.64 171.557 171.219 171.458C170.799 171.36 170.384 171.619 170.285 172.04L169.118 177.057C168.402 180.155 167.738 183.009 167.105 185.686C167.006 186.106 167.266 186.522 167.686 186.62C167.748 186.636 167.805 186.641 167.868 186.641L167.862 186.646Z" fill="black"/>
<path d="M171.852 170.203C172.205 170.203 172.527 169.959 172.61 169.601L172.869 168.491C172.968 168.07 172.709 167.655 172.288 167.557C171.868 167.458 171.453 167.717 171.354 168.138L171.095 169.248C170.996 169.668 171.256 170.084 171.676 170.182C171.738 170.198 171.795 170.203 171.852 170.203Z" fill="black"/>
<path d="M173.534 161.482C173.887 161.482 174.208 161.243 174.291 160.88C175.013 157.829 175.796 154.555 176.647 151.026C176.751 150.606 176.491 150.186 176.076 150.087C175.656 149.989 175.236 150.243 175.137 150.658C174.281 154.191 173.497 157.466 172.776 160.522C172.678 160.942 172.937 161.357 173.357 161.456C173.42 161.471 173.477 161.477 173.539 161.477L173.534 161.482Z" fill="black"/>
<path d="M130.856 203.226C145.649 203.226 162.907 202.027 163.997 201.95C164.054 201.95 164.111 201.934 164.168 201.918C180.201 197.025 181.659 192.361 183.071 187.852C183.216 187.395 183.356 186.933 183.517 186.477C188.69 171.647 192.291 155.624 192.328 155.463C192.421 155.053 192.172 154.648 191.767 154.539C188.446 153.657 185.862 152.812 183.579 152.064C175.993 149.579 172.18 148.328 158.606 151.27C149.453 153.253 145.359 157.58 141.021 162.162C137.254 166.147 133.352 170.261 125.662 173.048C110.728 178.455 95.795 174.345 89.3297 167.729C86.7872 165.13 84.7532 162.458 82.7866 159.873C80.0002 156.21 77.3643 152.749 73.4831 149.615C71.8175 148.266 66.1149 144.006 62.8149 145.796C61.3724 146.58 60.7809 148.297 61.0507 150.902C61.0766 151.151 62.6644 167.859 62.27 173.702C61.4917 185.174 62.1559 186.077 66.2862 189.559C66.5145 189.751 66.7532 189.953 67.0074 190.171C68.4914 191.432 82.2366 202.38 111.766 200.554C111.787 200.772 111.802 200.99 111.813 201.208C111.823 201.555 112.062 201.851 112.394 201.939C116.135 202.915 123.166 203.242 130.856 203.242V203.226ZM163.8 200.403C161.719 200.549 124.51 203.06 113.328 200.554C113.162 198.738 112.513 196.968 111.88 195.256C111.865 195.215 111.849 195.173 111.834 195.137L110.536 190.851C110.417 190.456 110.007 190.223 109.608 190.321C109.208 190.42 108.949 190.814 109.026 191.219C109.312 192.765 109.841 194.223 110.36 195.635L111.382 199.018C82.1588 200.741 68.5848 189.476 68.0141 188.988C67.7598 188.77 67.5159 188.568 67.2876 188.37C63.6347 185.293 63.0743 184.821 63.8215 173.811C64.2262 167.828 62.6696 151.452 62.6021 150.757C62.6021 150.757 62.6021 150.757 62.6021 150.752C62.4672 149.428 62.5191 147.732 63.5621 147.166C65.1187 146.325 68.7976 147.825 72.5076 150.824C76.2435 153.839 78.8172 157.227 81.5465 160.813C83.5442 163.433 85.6041 166.147 88.2141 168.814C92.8477 173.551 101.565 177.085 111.559 177.085C116.249 177.085 121.225 176.306 126.191 174.506C134.229 171.595 138.255 167.34 142.152 163.225C146.318 158.825 150.252 154.669 158.938 152.786C172.102 149.937 175.781 151.141 183.097 153.538C185.229 154.238 187.627 155.022 190.647 155.842C189.884 159.131 186.573 173.006 182.054 185.958C181.888 186.435 181.737 186.907 181.592 187.379C180.243 191.686 178.972 195.759 163.805 200.398L163.8 200.403Z" fill="black"/>
<path d="M93.7713 198.456C93.7713 198.456 93.7869 198.456 93.7921 198.456L98.8408 198.586C101.814 198.487 104.938 198.124 107.117 197.569C110.184 196.791 109.971 194.44 109.934 194.17C109.877 193.771 110.137 193.392 110.536 193.304C110.936 193.216 111.335 193.449 111.45 193.838L113.162 199.494C113.235 199.733 113.188 199.992 113.037 200.189C112.892 200.381 112.659 200.495 112.42 200.495C112.415 200.495 112.404 200.495 112.399 200.495L98.9187 200.148C97.0455 200.21 95.2242 200.169 93.6935 200.008C93.2784 199.966 92.9723 199.598 92.9982 199.183C93.0242 198.773 93.3666 198.456 93.7765 198.456H93.7713Z" fill="black"/>
<path d="M132.132 35.3822C132.189 35.0605 132.433 34.8115 132.749 34.7492C133.351 34.6351 147.631 31.994 161.07 40.0885C166.97 43.6428 169.683 47.8302 170.472 51.4364C179.833 50.3883 195.166 52.9879 196.037 53.1384L196.11 53.1695C196.203 53.237 205.725 60.0343 209.425 67.9991C213.311 76.3739 213.934 86.7827 210.94 93.3102L210.53 94.2027L210.592 93.222C210.597 93.0974 211.126 80.9971 193.132 78.8749C179.345 77.2508 177.98 75.471 172.9 68.8449C171.282 66.7383 169.289 64.1439 166.404 60.906C165.247 61.4664 163.913 61.7726 162.45 61.7778H162.388C157.184 61.7778 156.016 58.623 155.165 56.3191C154.875 55.5304 154.6 54.7884 154.216 54.2643C148.643 46.6731 144.86 42.9735 141.96 42.2782C139.235 41.6244 138.281 42.9839 138.244 43.0306C138.068 43.3159 137.725 43.4509 137.404 43.373C137.077 43.2952 136.838 43.0202 136.812 42.6829C136.449 38.563 132.547 36.2021 132.506 36.1813C132.225 36.0153 132.08 35.6988 132.132 35.3771V35.3822Z" fill="black"/>
<path d="M196.551 57.9646C196.66 57.5599 197.075 57.3212 197.48 57.4094C197.553 57.4249 197.636 57.4509 197.724 57.482L219.252 64.269C221.172 64.2067 223.984 64.1081 224.234 64.0874C233.791 63.3973 239.577 64.2379 241.938 66.661C242.825 67.5743 243.209 68.6795 243.079 69.9559C242.929 71.4555 241.725 73.2872 239.945 74.7348C238.472 75.9335 235.472 77.7807 231.041 77.7807C230.476 77.7807 229.884 77.7495 229.272 77.6821C227.954 77.542 226.823 77.2877 225.816 76.9038C218.505 74.1329 209.44 67.5328 203.447 63.169C200.728 61.1868 198.149 59.3085 197.283 58.9608L197.08 58.8986C196.681 58.774 196.453 58.3537 196.562 57.949L196.551 57.9646Z" fill="black"/>
<path d="M212.73 63.1573L233.957 64.9371C236.645 65.1498 239.156 65.814 240.36 66.5404C243.24 68.2839 243.048 70.6759 241.87 71.257C239.042 72.6528 238.3 69.7419 233.957 69.5032C227.674 69.1608 223.725 70.1414 219.813 73.1821C215.537 76.5133 211.158 83.0045 201.008 83.8814C193.697 84.5093 189.074 82.0394 184.762 78.1322C181.052 74.7751 179.693 70.5773 172.703 68.6159C163.727 66.0942 158.164 51.9287 158.164 51.9287C158.164 51.9287 171.245 60.07 184.217 61.9327C193.391 63.2507 206.057 63.8319 212.73 63.1573Z" fill="#E03500"/>
<path d="M208.854 57.9634L234.502 64.6362L236.106 65.0514C229.09 64.3768 222.096 66.442 216.533 70.7694C212.258 74.1006 206.088 80.1145 197.132 78.6824C189.889 77.5253 189.168 73.5921 183.756 69.4982C179.703 66.4368 174.006 66.3537 168.827 63.4169C160.717 58.8144 158.159 51.9185 158.159 51.9185C158.159 51.9185 167.369 54.8657 180.341 56.7337C189.515 58.0516 202.181 58.6328 208.854 57.9582V57.9634Z" fill="#FF4800"/>
<path d="M198.865 84.7549C199.576 84.7549 200.308 84.7238 201.076 84.6563C209.279 83.9507 213.825 79.701 217.472 76.292C218.458 75.3736 219.387 74.5018 220.29 73.8013C224.021 70.9008 227.71 69.9461 233.911 70.2833C235.732 70.3819 236.853 70.9942 237.844 71.5338C239.12 72.2291 240.324 72.8881 242.213 71.9593C242.95 71.5961 243.411 70.8282 243.453 69.9045C243.484 69.2041 243.282 67.4035 240.76 65.878C239.509 65.1205 235.187 64.0101 234.699 63.8855L209.056 57.2127C208.641 57.1037 208.216 57.3528 208.107 57.7679C207.998 58.183 208.247 58.6085 208.662 58.7175L234.31 65.3903C236.142 65.8573 239.157 66.7238 239.956 67.2064C241.813 68.3323 241.912 69.4998 241.901 69.8319C241.886 70.1744 241.746 70.4494 241.528 70.5583C240.366 71.1343 239.774 70.8074 238.596 70.164C237.517 69.5777 236.178 68.8408 234.004 68.7215C227.461 68.3635 223.351 69.4427 219.34 72.5664C218.381 73.3136 217.426 74.2061 216.414 75.1504C212.937 78.3986 208.615 82.4407 200.946 83.1049C193.303 83.7535 188.903 80.827 185.291 77.5581C184.259 76.6241 183.387 75.5863 182.541 74.5849C180.367 72.0008 178.115 69.3286 172.921 67.8705C164.92 65.6238 159.581 53.2951 159 51.8994C158.937 51.7489 158.901 51.6659 158.901 51.6555C158.745 51.2559 158.299 51.0536 157.9 51.2041C157.5 51.3545 157.298 51.806 157.448 52.2055C157.448 52.2055 157.49 52.3145 157.568 52.5013C158.564 54.8933 163.981 66.9729 172.506 69.3649C177.244 70.6932 179.241 73.0697 181.358 75.5811C182.235 76.6241 183.143 77.6981 184.254 78.71C187.6 81.7402 191.933 84.7549 198.881 84.7549H198.865Z" fill="black"/>
<path d="M106.006 13.4021C106.006 13.4021 106.78 12.1775 108.445 10.5898C109.561 9.52087 111.071 8.29631 113.027 7.15477C116.96 4.86132 124.167 4.4514 131.556 5.58256C137.388 6.48023 139.225 0.710264 147.143 0.782907C165.859 0.954138 170.986 14.0974 189.775 21.4188C208.895 28.8752 209.653 47.7106 209.181 55.0112C209.061 56.8584 208.864 57.9637 208.864 57.9637C204.101 58.1401 201.683 58.3165 197.314 58.166C194.242 58.0622 191.186 57.8703 188.171 57.6056C176.839 56.6094 166.114 54.539 157.656 51.789C156.945 51.5555 156.234 51.3168 155.539 51.0677C145.452 47.4874 144.466 41.8057 136.345 37.1357C126.637 31.5526 115.549 34.4739 108.16 29.3681C98.1609 22.4618 106.017 13.4021 106.017 13.4021H106.006Z" fill="#FF4800"/>
<path d="M208.838 58.7329L230.294 64.3161C228.525 64.5184 226.781 64.8972 225.084 65.4265L203.733 58.9924C205.652 58.9612 207.385 58.873 208.844 58.7329H208.838Z" fill="#FFBD94"/>
<path d="M191.331 39.3147C188.203 35.5891 184.591 34.4995 184.337 34.4735H184.332C176.367 32.206 180.067 26.5813 184.928 27.2299C185.276 27.2766 193.142 28.2106 197.755 35.916C199.742 39.2369 196.199 45.1158 191.331 39.3147Z" fill="#FFBD94"/>
<path d="M172.802 29.3953C170.659 29.3953 168.921 27.657 168.921 25.514C168.921 23.3711 170.659 21.6328 172.802 21.6328C174.945 21.6328 176.683 23.3711 176.683 25.514C176.683 27.657 174.945 29.3953 172.802 29.3953Z" fill="#FFBD94"/>
<path d="M155.528 51.0732C156.224 51.3223 156.935 51.5558 157.646 51.7945C156.924 51.561 156.213 51.3171 155.528 51.0732Z" fill="#E03500"/>
<path d="M208.854 57.964C204.09 58.1404 201.672 58.3168 197.303 58.1664C194.232 58.0626 191.175 57.8706 188.161 57.606C194.6 58.0937 201.486 58.239 208.854 57.964Z" fill="#E03500"/>
<path d="M117.349 30.0477C123.705 32.1855 127.234 27.1005 137.575 29.809C147.916 32.5228 145.763 42.174 153.37 46.5533C159.14 49.8742 164.593 53.4908 189.001 46.5533C206.332 41.6292 209.051 49.8327 209.17 55.0059C209.051 56.8531 208.854 57.9584 208.854 57.9584C201.486 58.2334 194.6 58.0881 188.161 57.6003C176.829 56.6041 166.103 54.5337 157.645 51.7837C156.935 51.5502 156.224 51.3115 155.528 51.0624C145.441 47.4821 144.456 41.8004 136.335 37.1304C126.627 31.5473 115.538 34.4686 108.149 29.3628C98.1505 22.4565 106.006 13.3968 106.006 13.3968C106.006 13.3968 106.78 12.1723 108.445 10.5845C101.077 18.4144 110.998 27.9151 117.349 30.0477Z" fill="#E03500"/>
<path d="M189.032 58.4572C189.437 58.4572 189.78 58.1459 189.806 57.736C189.837 57.3053 189.515 56.9369 189.084 56.9058C188.104 56.8383 187.128 56.7605 186.168 56.6723C185.743 56.636 185.364 56.9525 185.322 57.378C185.286 57.8086 185.603 58.1822 186.028 58.2237C186.998 58.3119 187.979 58.3898 188.975 58.4572C188.996 58.4572 189.012 58.4572 189.032 58.4572Z" fill="black"/>
<path d="M182.121 57.8143C182.51 57.8143 182.848 57.5237 182.894 57.1242C182.941 56.6987 182.635 56.3095 182.209 56.2628C181.613 56.1954 181.021 56.1227 180.43 56.0449C179.999 55.993 179.615 56.2939 179.558 56.7194C179.501 57.1449 179.807 57.5341 180.232 57.5911C180.829 57.669 181.426 57.7416 182.028 57.8091C182.059 57.8091 182.09 57.8091 182.116 57.8091L182.121 57.8143Z" fill="black"/>
<path d="M201.423 58.8827C203.867 58.8827 206.373 58.836 208.885 58.7426C209.253 58.727 209.559 58.4624 209.622 58.1044C209.673 57.819 210.846 51.0579 209.056 43.0257C207.396 35.5693 202.746 25.6431 190.049 20.693C182.469 17.7406 177.243 13.8956 172.184 10.1805C164.827 4.77371 158.47 0.103776 147.143 0C147.091 0 147.039 0 146.987 0C142.805 0 140.252 1.54627 138 2.91611C135.894 4.19256 134.233 5.19919 131.665 4.81003C123.643 3.58028 116.529 4.20294 112.627 6.48083C107.91 9.2309 105.679 12.4791 105.378 12.9409C104.968 13.4287 101.762 17.424 102.364 22.2029C102.742 25.2021 104.538 27.8328 107.703 30.0173C111.517 32.648 116.176 33.224 121.106 33.8311C126.056 34.4434 131.172 35.0712 135.94 37.8161C139.272 39.7308 141.394 41.8478 143.454 43.8974C146.308 46.7408 149.255 49.6777 155.264 51.8103C161.869 54.1557 169.133 55.9458 176.854 57.1237C177.28 57.1911 177.674 56.8954 177.742 56.4699C177.809 56.0444 177.513 55.65 177.088 55.5826C169.46 54.4151 162.294 52.6561 155.782 50.3419C150.106 48.3286 147.408 45.6408 144.549 42.7922C142.421 40.6751 140.221 38.4803 136.714 36.467C131.67 33.5664 126.393 32.9127 121.292 32.2848C116.555 31.6985 112.077 31.1485 108.58 28.7357C105.804 26.8158 104.226 24.5587 103.905 22.0213C103.355 17.725 106.556 13.9579 106.587 13.9216C106.613 13.8905 106.634 13.8593 106.655 13.8282C106.676 13.7971 108.777 10.5385 113.405 7.83511C116.955 5.76477 123.861 5.19919 131.426 6.36149C134.555 6.83886 136.62 5.58835 138.805 4.26002C141.01 2.9213 143.277 1.53589 147.122 1.57221C157.941 1.6708 164.111 6.20063 171.256 11.4517C176.154 15.0528 181.706 19.1312 189.479 22.1562C199.14 25.9233 205.211 33.0476 207.52 43.3266C208.952 49.7037 208.413 55.3906 208.174 57.2223C205.554 57.3105 202.954 57.3468 200.417 57.3364C200.002 57.3208 199.638 57.6789 199.633 58.1095C199.633 58.5402 199.976 58.8879 200.406 58.8931C200.744 58.8931 201.081 58.8931 201.418 58.8931L201.423 58.8827Z" fill="black"/>
</g>
<defs>
<clipPath id="clip0_1348_21113">
<rect width="274.893" height="270" fill="white" transform="matrix(-1 0 0 1 275.867 0)"/>
</clipPath>
</defs>
</svg>
