<svg width="100" height="100" viewBox="0 0 100 100" fill="none" xmlns="http://www.w3.org/2000/svg">
<mask id="mask0_1086_16355" style="mask-type:luminance" maskUnits="userSpaceOnUse" x="0" y="0" width="100" height="100">
<path d="M50 100C77.6142 100 100 77.6142 100 50C100 22.3858 77.6142 0 50 0C22.3858 0 0 22.3858 0 50C0 77.6142 22.3858 100 50 100Z" fill="white"/>
</mask>
<g mask="url(#mask0_1086_16355)">
<path d="M50 100C77.6142 100 100 77.6142 100 50C100 22.3858 77.6142 0 50 0C22.3858 0 0 22.3858 0 50C0 77.6142 22.3858 100 50 100Z" fill="#FFDC5A"/>
<path d="M36.877 47.207C37.2034 48.8228 37.8288 50.3672 38.9042 51.6702L36.877 47.207Z" fill="#FFBF35"/>
<path d="M39.2969 51.6671C39.2969 51.7796 39.2475 51.892 39.1542 51.9716C38.9869 52.1087 38.74 52.0868 38.6001 51.9195C37.5714 50.6741 36.8609 49.1132 36.4906 47.2862C36.4467 47.0723 36.5839 46.8665 36.7978 46.8226C37.0118 46.7787 37.2175 46.9159 37.2614 47.1299C37.6071 48.8306 38.2599 50.2736 39.2063 51.4202C39.2667 51.4943 39.2969 51.5821 39.2969 51.6698V51.6671Z" fill="black"/>
<path d="M35.7569 110.358C44.8999 109.928 52.0651 104.236 56.8163 96.7768C60.7857 90.5443 62.7251 83.7659 60.8954 73.5421L60.9722 73.0757C62.3027 70.4341 63.5454 67.743 64.6975 65.0108C65.6192 62.8272 66.4888 60.5751 66.6781 58.1556C66.8289 56.2079 66.5245 54.1862 65.7948 52.2906C65.515 51.5664 64.8182 50.6255 64.393 49.9617C62.6785 47.2816 59.3318 47.7644 59.3318 47.7644C59.5266 45.3202 58.8573 44.1434 57.2662 42.1025C56.6435 41.3069 55.3076 40.4456 54.3529 40.1877C53.0856 39.8476 51.8237 40.0012 50.8142 40.7034C50.0242 41.2521 49.7855 41.4962 49.2095 42.278L48.7706 42.7252C48.5977 42.3054 47.8461 39.1563 47.3633 37.0961C47.0945 35.9522 47.0259 34.7864 47.1658 33.6205C47.4868 30.8993 50.1998 25.4321 46.5129 23.0428C39.8827 18.7497 37.3617 28.6005 37.1066 34.8001C37.0435 36.3088 37.0105 47.7534 37.0105 47.7534C36.5607 49.9288 36.0175 51.5363 35.51 53.6951L35.3838 54.0545C35.137 54.3947 34.9202 54.7595 34.7392 55.1353C33.0658 58.589 33.6748 63.0494 35.7843 66.6073C37.8938 70.168 41.3393 72.8727 45.0618 74.6394C45.0618 74.6394 48.7377 83.7193 44.4281 91.0491C41.7178 95.6576 37.1861 98.9686 32.0234 100.606" fill="#FB9D1C"/>
<path d="M67.3038 57.1781C67.3038 57.521 67.2901 57.8612 67.2654 58.1986C67.0707 60.7251 66.1572 63.0623 65.241 65.2376C64.0998 67.9451 62.8544 70.6444 61.5404 73.2587L61.4965 73.5357C63.1452 82.8571 61.8915 89.9071 57.3159 97.0915C51.8762 105.628 44.2309 110.55 35.7874 110.945C35.461 110.961 35.1866 110.709 35.1702 110.382C35.1482 110.042 35.4061 109.781 35.7325 109.765C43.7838 109.386 51.0971 104.66 56.3229 96.455C60.7421 89.5175 61.9382 82.6952 60.3197 73.64C60.3087 73.5742 60.3087 73.5083 60.3197 73.4425L60.3965 72.9761C60.4075 72.9158 60.4239 72.8582 60.4514 72.8061C61.7681 70.1891 63.0162 67.487 64.1574 64.7768C65.038 62.6892 65.9103 60.4563 66.0941 58.1053C66.2395 56.2482 65.9459 54.3088 65.2492 52.4983C65.0599 52.01 64.632 51.3708 64.2534 50.8085C64.1272 50.6192 64.0038 50.4381 63.8995 50.2736C62.4155 47.9556 59.5379 48.3231 59.4172 48.3424C59.2389 48.367 59.0606 48.3094 58.9316 48.186C58.8027 48.0625 58.7314 47.887 58.7478 47.7114C58.9316 45.4318 58.3281 44.4141 56.8057 42.461C56.2762 41.7807 55.061 40.9824 54.2051 40.7547C53.0749 40.453 51.9914 40.6038 51.1547 41.1854C50.436 41.6846 50.244 41.8739 49.6871 42.6256C49.6706 42.6475 49.6542 42.6694 49.635 42.6887L49.1961 43.1358C49.0562 43.2784 48.8559 43.3388 48.6612 43.3004C48.4664 43.262 48.3045 43.1276 48.2277 42.9465C48.1729 42.8148 48.011 42.4143 46.7903 37.2297C46.505 36.02 46.4337 34.7828 46.5791 33.5484C46.6586 32.8818 46.8671 32.0725 47.0893 31.2194C47.7943 28.5119 48.6694 25.1405 46.1895 23.5357C44.6314 22.5263 43.2488 22.3178 42.0885 22.9185C39.348 24.3368 37.8887 30.081 37.6912 34.8212C37.6308 36.3025 37.5979 47.6374 37.5979 47.7526C37.5979 47.791 37.5924 47.8321 37.5869 47.8705C37.3263 49.1379 37.0383 50.1885 36.7365 51.3022C36.5198 52.0978 36.2976 52.918 36.0809 53.8287C36.0754 53.8479 36.0699 53.8699 36.0645 53.8891L35.9383 54.2484C35.9191 54.3033 35.8916 54.3527 35.8587 54.3993C35.642 54.6983 35.4418 55.033 35.2689 55.3923C33.7547 58.5086 34.1497 62.6919 36.2921 66.3075C38.6897 70.3537 42.5219 72.7841 45.3145 74.1091C45.4489 74.1722 45.5531 74.2846 45.608 74.4218C45.7616 74.8031 49.3415 83.8583 44.9359 91.35C42.2421 95.9311 37.7186 99.4204 32.2021 101.168C31.8921 101.267 31.5601 101.094 31.4614 100.784C31.3626 100.471 31.5355 100.142 31.8454 100.043C37.0849 98.3808 41.3753 95.0807 43.9209 90.7492C47.6846 84.3521 45.095 76.4435 44.5958 75.0692C41.677 73.651 37.768 71.1053 35.2799 66.9082C32.9372 62.9553 32.5285 58.3467 34.2128 54.8766C34.4021 54.4843 34.6215 54.114 34.8602 53.7793L34.948 53.5297C35.1647 52.6107 35.3896 51.7905 35.6063 50.9923C35.8999 49.9142 36.1769 48.8965 36.4293 47.6895C36.4293 46.6992 36.465 36.2339 36.5253 34.7718C36.7256 29.9164 38.1657 23.6263 41.5563 21.8706C43.1227 21.0614 44.9002 21.2891 46.8397 22.5455C50.0327 24.6138 48.9958 28.6024 48.2387 31.5157C48.0275 32.3304 47.8272 33.0985 47.7586 33.6855C47.6297 34.7828 47.6928 35.8828 47.9452 36.9581C48.5158 39.3831 48.8532 40.7492 49.0507 41.5201C49.4649 40.9961 49.7831 40.7053 50.4854 40.217C51.6128 39.4352 53.042 39.2213 54.5151 39.6163C55.6096 39.9098 57.058 40.8617 57.7411 41.7368C59.2965 43.7283 59.9987 45.0066 59.9631 47.1354C61.1371 47.1354 63.4881 47.4344 64.9008 49.6399C65.0023 49.7962 65.1175 49.9691 65.241 50.1501C65.6552 50.7646 66.1215 51.4614 66.3574 52.0731C66.9911 53.719 67.3175 55.4637 67.3175 57.1754L67.3038 57.1781Z" fill="black"/>
<path d="M35.3789 54.0575C36.0812 53.0891 37.0468 52.3292 38.2455 52.14C39.6473 51.9205 41.1176 52.5158 42.4344 53.2235C43.8032 53.9587 45.1995 54.9408 45.7427 56.3809C46.2172 57.6428 46.5053 59.67 45.8579 60.7453C45.2077 61.8234 42.673 63.5105 39.3263 62.7451" fill="#FB9D1C"/>
<path d="M46.8224 59.0473C46.8224 59.7715 46.699 60.4847 46.3588 61.0498C45.5249 62.4351 42.6692 64.1139 39.1909 63.3211C38.8727 63.2498 38.6752 62.9316 38.7465 62.6161C38.8178 62.2979 39.136 62.1004 39.4515 62.1717C42.4662 62.8603 44.7787 61.3844 45.3466 60.4408C45.8431 59.6151 45.6538 57.832 45.1847 56.5866C44.669 55.2205 43.2069 54.3098 42.1508 53.7419C41.1495 53.2043 39.6627 52.513 38.3295 52.7215C37.1554 52.9053 36.3325 53.7365 35.8497 54.4031C35.6577 54.6664 35.2901 54.724 35.0267 54.532C34.7634 54.34 34.703 53.9724 34.8978 53.709C35.7811 52.4965 36.9031 51.7504 38.1485 51.5556C39.8136 51.295 41.4595 52.0329 42.7076 52.7023C43.9311 53.3579 45.6346 54.4332 46.2875 56.1697C46.5289 56.8116 46.8197 57.939 46.8197 59.0473H46.8224Z" fill="black"/>
<path d="M48.7676 42.7246C47.5387 44.3897 46.7569 46.4718 46.2521 48.499C45.5115 51.4809 44.7297 53.7741 46.4633 56.5503C48.9432 60.5224 51.9168 59.1947 53.8699 57.2168" fill="#FB9D1C"/>
<path d="M54.457 57.2193C54.457 57.3674 54.3993 57.5183 54.2869 57.6335C53.2472 58.6869 51.6123 59.8994 49.7304 59.6909C48.3013 59.5318 47.0339 58.5826 45.9613 56.8654C44.2249 54.0866 44.8229 51.7384 45.5114 49.0199L45.6788 48.3588C46.285 45.9146 47.1656 43.9011 48.293 42.3759C48.485 42.1153 48.8554 42.0577 49.116 42.2525C49.3793 42.4445 49.4342 42.8148 49.2394 43.0754C48.2052 44.4772 47.3933 46.3508 46.8227 48.6413L46.6553 49.3107C45.9805 51.9688 45.495 53.889 46.9626 56.24C47.8349 57.6362 48.8087 58.4016 49.8621 58.5195C51.3489 58.6841 52.748 57.5155 53.4502 56.805C53.6779 56.5719 54.051 56.5719 54.2841 56.7996C54.4021 56.9148 54.4597 57.0684 54.4597 57.2193H54.457Z" fill="black"/>
<path d="M60.7799 60.1527C60.8705 59.8454 60.939 58.9621 60.939 58.9621C60.939 58.9621 54.5419 63.4143 53.8671 57.2175C53.505 53.879 57.8338 48.3817 59.3261 47.7617" fill="#FB9D1C"/>
<path d="M61.5292 58.9653C61.5292 58.979 61.5292 58.9955 61.5292 59.0119C61.5182 59.171 61.4497 59.9775 61.3454 60.3259C61.2522 60.6386 60.923 60.8142 60.613 60.7209C60.3359 60.6386 60.1659 60.3671 60.196 60.0928C58.9616 60.7374 56.9124 61.5384 55.3214 60.8142C54.1665 60.2875 53.4807 59.1025 53.2832 57.2865C52.8964 53.7066 57.4007 47.9322 59.1015 47.2217C59.4032 47.0955 59.7461 47.2382 59.8723 47.5399C59.9958 47.8417 59.8559 48.1873 59.5541 48.3108C58.3608 48.8073 54.1171 54.0715 54.4545 57.1603C54.6027 58.5319 55.058 59.4015 55.8069 59.7416C57.2828 60.4164 59.7708 59.0613 60.6048 58.4825C60.7913 58.3536 61.0382 58.3426 61.2329 58.4551C61.4167 58.5593 61.5292 58.7568 61.5292 58.9653Z" fill="black"/>
<path d="M44.1621 62.3418C45.7559 62.575 47.2893 63.5625 48.2028 64.9451L44.1621 62.3418Z" fill="#FFBF35"/>
<path d="M48.6976 64.6209L47.7128 65.271C46.8954 64.0311 45.5018 63.1314 44.0781 62.9256L44.2482 61.7598C46.0203 62.0176 47.6827 63.0875 48.6976 64.6236V64.6209Z" fill="black"/>
<path d="M44.5474 61.9515C44.5474 61.9515 46.026 60.9228 46.2317 58.8709C46.4649 56.5529 44.8382 54.9591 43.7546 54.2103C42.6464 53.4422 40.0513 52.0678 38.2463 52.1419C36.4413 52.216 35.5059 53.6973 35.5059 53.6973L36.8775 47.2069C36.8775 47.2069 36.6223 49.4234 40.065 51.5768C43.889 53.9661 45.0796 51.8072 45.8559 49.4646C46.3881 47.8571 47.019 46.0273 47.019 46.0273C47.019 46.0273 45.4115 49.6154 45.4389 52.4958C45.4636 55.3789 47.1232 57.5569 48.0587 58.3799C50.5632 60.5827 53.8687 57.2195 53.8687 57.2195L54.0964 58.3881C55.254 61.5977 59.4923 59.7789 59.4923 59.7789C59.4319 59.8448 58.4279 60.2919 56.4062 60.7884C55.0483 61.1231 52.873 60.2535 51.6413 60.8104C49.1806 61.9213 48.2041 64.9443 48.2041 64.9443C48.2041 64.9443 45.9766 61.9296 44.5447 61.9515H44.5474Z" fill="black"/>
<path d="M60.0834 59.7789C60.0834 59.9243 60.0285 60.0696 59.9243 60.1821C59.6472 60.4784 58.0177 61.0023 56.5501 61.3617C55.8232 61.54 54.9618 61.433 54.1279 61.3288C53.2803 61.2218 52.4024 61.1148 51.8867 61.348C49.7032 62.3355 48.776 65.1006 48.7677 65.1281C48.6992 65.3393 48.5181 65.4929 48.3014 65.5286C48.0847 65.5642 47.8652 65.4737 47.7336 65.2981C46.9079 64.1817 45.325 62.533 44.5569 62.544C44.2991 62.5495 44.0659 62.3821 43.9864 62.1353C43.9068 61.8884 43.9973 61.6195 44.2086 61.4714C44.2607 61.433 45.4704 60.5524 45.646 58.8133C45.8654 56.6379 44.1619 55.2087 43.4185 54.6957C42.1896 53.8426 39.7783 52.6713 38.2696 52.7316C36.8102 52.792 36.0366 53.9661 36.0037 54.0154C35.8501 54.2541 35.5456 54.3501 35.2822 54.2431C35.0189 54.1361 34.8708 53.8563 34.9284 53.5765L36.3 47.0862C36.3658 46.7789 36.6621 46.5759 36.972 46.6253C37.282 46.6774 37.4905 46.9682 37.4631 47.2754C37.4548 47.3385 37.3424 49.1819 40.3791 51.0775C41.715 51.9114 42.7684 52.1994 43.5118 51.9306C44.4061 51.6069 44.9081 50.4493 45.2784 49.3383C45.7475 47.44 46.4388 45.8846 46.4827 45.7859C46.6116 45.4979 46.9435 45.3634 47.237 45.4786C47.5306 45.5939 47.6814 45.9203 47.5772 46.2193C47.5772 46.2193 46.949 48.0408 46.4196 49.6428C46.1891 50.57 46.0163 51.5822 46.0273 52.4902C46.052 55.1319 47.5607 57.1564 48.4468 57.9382C50.4987 59.7432 53.4202 56.8354 53.4476 56.8053C53.6012 56.6489 53.8289 56.5913 54.0374 56.6544C54.2459 56.7175 54.405 56.8903 54.4461 57.1043L54.6656 58.2262C54.896 58.8379 55.2663 59.2467 55.7958 59.4799C57.2085 60.0943 59.2412 59.2439 59.2604 59.2357C59.5155 59.126 59.8145 59.211 59.9736 59.4415C60.045 59.5429 60.0806 59.6609 60.0806 59.7789H60.0834ZM48.049 63.8004C48.5702 62.736 49.6263 61.0736 51.4012 60.2726C52.2214 59.9023 53.2638 60.034 54.276 60.1574C54.4242 60.1766 54.5723 60.1931 54.7177 60.2123C54.1883 59.8282 53.796 59.2823 53.5436 58.5856C53.5326 58.5581 53.5244 58.528 53.5189 58.4978L53.486 58.3332C51.9882 59.4744 49.5825 60.5031 47.6677 58.8215C47.4153 58.5993 47.1191 58.2893 46.8146 57.9053C46.8502 58.229 46.853 58.5719 46.8146 58.9285C46.6884 60.1876 46.1398 61.1066 45.6597 61.6854C46.5622 62.1709 47.4537 63.1036 48.0463 63.8004H48.049ZM43.2347 53.1897C43.5941 53.3955 43.8876 53.5848 44.0879 53.7219C44.3649 53.9139 44.749 54.2102 45.144 54.608C44.9657 53.9551 44.856 53.2473 44.8477 52.4985V52.4683C44.5789 52.7124 44.2689 52.9072 43.9096 53.0361C43.6928 53.1129 43.4679 53.165 43.2347 53.1897ZM36.4536 52.0541C36.9282 51.788 37.5152 51.5795 38.2202 51.5493C38.4835 51.5383 38.7579 51.5548 39.0377 51.5905C38.0419 50.8635 37.4055 50.1338 36.9967 49.4837L36.4536 52.0541Z" fill="black"/>
</g>
</svg>
