<svg width="129" height="104" viewBox="0 0 129 104" fill="none" xmlns="http://www.w3.org/2000/svg">
<g id="Adaptability" clip-path="url(#clip0_1309_2596)">
<path id="Vector" d="M68.6296 89.1084H68.6196C66.8696 89.0684 65.0896 88.9784 63.3496 88.8484C63.0996 88.8284 62.9096 88.6084 62.9296 88.3584C62.9496 88.1084 63.1696 87.9084 63.4196 87.9384C65.1496 88.0684 66.9096 88.1584 68.6496 88.1984C68.8996 88.1984 69.0996 88.4084 69.0996 88.6684C69.0996 88.9184 68.8896 89.1184 68.6396 89.1184L68.6296 89.1084ZM73.8896 89.1084C73.6396 89.1084 73.4396 88.9084 73.4296 88.6684C73.4296 88.4184 73.6196 88.2084 73.8696 88.1984C75.6096 88.1584 77.3696 88.0684 79.0996 87.9384C79.3596 87.9084 79.5696 88.1084 79.5896 88.3584C79.6096 88.6084 79.4196 88.8284 79.1696 88.8484C77.4296 88.9784 75.6496 89.0684 73.8996 89.1084H73.8896ZM58.1596 88.3184C58.1596 88.3184 58.1196 88.3184 58.0996 88.3184C56.3396 88.0984 54.5896 87.8184 52.8796 87.5084C52.6296 87.4584 52.4696 87.2284 52.5096 86.9784C52.5496 86.7284 52.7996 86.5584 53.0396 86.6084C54.7296 86.9184 56.4696 87.1884 58.2096 87.4184C58.4596 87.4484 58.6396 87.6784 58.5996 87.9284C58.5696 88.1584 58.3696 88.3284 58.1496 88.3284L58.1596 88.3184ZM84.3696 88.3184C84.1396 88.3184 83.9496 88.1484 83.9196 87.9184C83.8896 87.6684 84.0596 87.4384 84.3096 87.4084C86.0596 87.1784 87.7996 86.9084 89.4796 86.5984C89.7296 86.5484 89.9696 86.7184 90.0096 86.9684C90.0596 87.2184 89.8896 87.4584 89.6396 87.4984C87.9496 87.8084 86.1896 88.0884 84.4196 88.3184C84.3996 88.3184 84.3796 88.3184 84.3596 88.3184H84.3696ZM47.8296 86.4184C47.8296 86.4184 47.7596 86.4184 47.7196 86.4084C45.9896 85.9784 44.2796 85.5084 42.6296 84.9884C42.3896 84.9084 42.2596 84.6584 42.3296 84.4184C42.3996 84.1784 42.6596 84.0484 42.8996 84.1184C44.5296 84.6284 46.2296 85.1084 47.9296 85.5284C48.1696 85.5884 48.3196 85.8384 48.2596 86.0784C48.2096 86.2884 48.0196 86.4284 47.8196 86.4284L47.8296 86.4184ZM94.6996 86.3984C94.4896 86.3984 94.3096 86.2584 94.2596 86.0484C94.1996 85.7984 94.3496 85.5584 94.5896 85.4984C96.2896 85.0784 97.9796 84.6084 99.6196 84.0884C99.8596 84.0084 100.12 84.1484 100.19 84.3884C100.27 84.6284 100.13 84.8884 99.8896 84.9584C98.2296 85.4784 96.5196 85.9584 94.7996 86.3884C94.7596 86.3884 94.7296 86.3984 94.6896 86.3984H94.6996ZM37.8096 83.2484C37.7496 83.2484 37.6996 83.2484 37.6396 83.2184C35.9696 82.5584 34.3396 81.8384 32.7996 81.0784C32.5696 80.9684 32.4796 80.6984 32.5896 80.4684C32.6996 80.2384 32.9796 80.1484 33.1996 80.2584C34.7096 81.0084 36.3196 81.7084 37.9696 82.3684C38.1996 82.4584 38.3196 82.7284 38.2296 82.9584C38.1596 83.1384 37.9896 83.2484 37.8096 83.2484ZM104.71 83.2184C104.53 83.2184 104.36 83.1084 104.29 82.9284C104.2 82.6984 104.31 82.4284 104.55 82.3384C106.2 81.6884 107.81 80.9684 109.32 80.2284C109.54 80.1184 109.82 80.2084 109.93 80.4384C110.04 80.6684 109.95 80.9384 109.72 81.0484C108.18 81.8084 106.56 82.5284 104.88 83.1884C104.83 83.2084 104.77 83.2184 104.71 83.2184ZM28.3996 78.5784C28.3196 78.5784 28.2296 78.5584 28.1596 78.5084C26.5996 77.5484 25.1396 76.5184 23.8096 75.4684C23.6096 75.3084 23.5796 75.0284 23.7396 74.8284C23.8996 74.6284 24.1796 74.5984 24.3796 74.7584C25.6796 75.7884 27.1096 76.7984 28.6396 77.7384C28.8496 77.8684 28.9196 78.1484 28.7896 78.3684C28.6996 78.5084 28.5496 78.5884 28.3996 78.5884V78.5784ZM114.11 78.5384C113.96 78.5384 113.81 78.4584 113.72 78.3184C113.59 78.1084 113.65 77.8184 113.87 77.6884C115.39 76.7484 116.82 75.7384 118.12 74.6984C118.32 74.5384 118.6 74.5784 118.76 74.7684C118.92 74.9684 118.88 75.2484 118.69 75.4084C117.36 76.4684 115.9 77.4984 114.35 78.4584C114.28 78.5084 114.19 78.5284 114.11 78.5284V78.5384ZM20.2396 72.0084C20.1196 72.0084 19.9996 71.9584 19.9096 71.8584C18.6496 70.4984 17.5596 69.0784 16.6596 67.6284C16.5296 67.4184 16.5896 67.1284 16.8096 66.9984C17.0196 66.8684 17.2996 66.9284 17.4396 67.1484C18.2996 68.5484 19.3596 69.9184 20.5796 71.2384C20.7496 71.4184 20.7396 71.7084 20.5596 71.8784C20.4696 71.9584 20.3596 71.9984 20.2496 71.9984L20.2396 72.0084ZM122.27 71.9584C122.16 71.9584 122.05 71.9184 121.96 71.8384C121.78 71.6684 121.76 71.3784 121.93 71.1984C123.15 69.8784 124.2 68.4984 125.05 67.0984C125.18 66.8784 125.46 66.8184 125.68 66.9484C125.9 67.0784 125.96 67.3584 125.83 67.5784C124.94 69.0284 123.86 70.4584 122.6 71.8184C122.51 71.9184 122.39 71.9684 122.27 71.9684V71.9584ZM14.8596 63.0884C14.6596 63.0884 14.4796 62.9584 14.4196 62.7684C13.8796 61.0284 13.6096 59.2484 13.5996 57.4684C13.5996 57.2184 13.7996 57.0084 14.0496 57.0084C14.2696 57.0384 14.5096 57.2084 14.5096 57.4584C14.5096 59.1484 14.7796 60.8384 15.2896 62.4884C15.3596 62.7284 15.2296 62.9884 14.9896 63.0584C14.9496 63.0684 14.8996 63.0784 14.8596 63.0784V63.0884ZM127.6 63.0184C127.6 63.0184 127.51 63.0184 127.47 62.9984C127.23 62.9284 127.09 62.6684 127.17 62.4284C127.67 60.7784 127.93 59.0784 127.93 57.3984V57.2584C127.93 57.0084 128.13 56.7984 128.39 56.7984C128.65 56.7984 128.85 56.9984 128.85 57.2584V57.3884C128.85 59.1784 128.58 60.9584 128.06 62.6984C128 62.8984 127.82 63.0184 127.62 63.0184H127.6ZM14.8196 52.7484C14.8196 52.7484 14.7296 52.7484 14.6896 52.7284C14.4496 52.6584 14.3096 52.3984 14.3796 52.1584C14.8696 50.5084 15.6096 48.8684 16.5696 47.2784C16.6996 47.0584 16.9896 46.9984 17.1996 47.1284C17.4196 47.2584 17.4796 47.5384 17.3496 47.7584C16.4296 49.2784 15.7196 50.8484 15.2496 52.4284C15.1896 52.6284 15.0096 52.7584 14.8096 52.7584L14.8196 52.7484ZM127.56 52.5484C127.37 52.5484 127.19 52.4284 127.12 52.2284C126.63 50.6584 125.91 49.0884 124.97 47.5784C124.84 47.3684 124.9 47.0784 125.12 46.9484C125.34 46.8184 125.62 46.8784 125.75 47.0984C126.73 48.6684 127.48 50.3084 128 51.9484C128.08 52.1884 127.94 52.4484 127.7 52.5184C127.66 52.5284 127.61 52.5384 127.56 52.5384V52.5484ZM20.1396 43.7984C20.0296 43.7984 19.9196 43.7584 19.8296 43.6784C19.6396 43.5084 19.6296 43.2184 19.7996 43.0384C20.9496 41.7884 22.2596 40.5784 23.6996 39.4184C23.8996 39.2584 24.1796 39.2884 24.3396 39.4884C24.4996 39.6884 24.4696 39.9684 24.2696 40.1284C22.8696 41.2584 21.5896 42.4384 20.4696 43.6484C20.3796 43.7484 20.2596 43.7984 20.1296 43.7984H20.1396ZM122.16 43.6484C122.04 43.6484 121.92 43.5984 121.83 43.4984C120.71 42.2984 119.42 41.1184 118.01 39.9984C117.81 39.8384 117.78 39.5584 117.94 39.3584C118.1 39.1584 118.38 39.1284 118.58 39.2884C120.03 40.4384 121.35 41.6484 122.5 42.8884C122.67 43.0684 122.66 43.3584 122.48 43.5284C122.39 43.6084 122.28 43.6484 122.17 43.6484H122.16ZM28.2696 37.1984C28.1196 37.1984 27.9696 37.1184 27.8796 36.9884C27.7496 36.7784 27.8096 36.4884 28.0296 36.3584C29.4796 35.4584 31.0396 34.5884 32.6596 33.7884C32.8796 33.6784 33.1596 33.7684 33.2696 33.9984C33.3796 34.2284 33.2896 34.4984 33.0596 34.6084C31.4596 35.3984 29.9296 36.2484 28.5096 37.1384C28.4296 37.1884 28.3496 37.2084 28.2696 37.2084V37.1984ZM113.98 37.0884C113.9 37.0884 113.81 37.0684 113.74 37.0184C112.31 36.1384 110.78 35.2984 109.18 34.5084C108.95 34.3984 108.86 34.1284 108.97 33.8984C109.08 33.6684 109.36 33.5784 109.58 33.6884C111.21 34.4884 112.77 35.3484 114.22 36.2384C114.43 36.3684 114.5 36.6484 114.37 36.8684C114.28 37.0084 114.13 37.0884 113.98 37.0884ZM37.6596 32.5184C37.4796 32.5184 37.3096 32.4084 37.2396 32.2284C37.1496 31.9984 37.2596 31.7284 37.4896 31.6384C39.0896 30.9984 40.7696 30.4084 42.4696 29.8684C42.7096 29.7884 42.9696 29.9284 43.0396 30.1684C43.1196 30.4084 42.9796 30.6684 42.7396 30.7384C41.0596 31.2684 39.3996 31.8584 37.8196 32.4884C37.7596 32.5084 37.7096 32.5184 37.6496 32.5184H37.6596ZM104.56 32.4384C104.5 32.4384 104.45 32.4384 104.39 32.4084C102.81 31.7884 101.15 31.1984 99.4596 30.6684C99.2196 30.5884 99.0896 30.3384 99.1596 30.0984C99.2296 29.8584 99.4896 29.7284 99.7296 29.7984C101.44 30.3384 103.11 30.9284 104.72 31.5584C104.95 31.6484 105.07 31.9184 104.98 32.1484C104.91 32.3284 104.74 32.4384 104.56 32.4384ZM47.6696 29.3284C47.4596 29.3284 47.2796 29.1884 47.2296 28.9784C47.1696 28.7384 47.3196 28.4884 47.5596 28.4284C49.2396 28.0084 50.9696 27.6384 52.7196 27.3084C52.9596 27.2584 53.2096 27.4284 53.2496 27.6784C53.2996 27.9284 53.1296 28.1684 52.8896 28.2084C51.1596 28.5284 49.4396 28.8984 47.7796 29.3184C47.7396 29.3184 47.7096 29.3284 47.6696 29.3284ZM94.5496 29.2784C94.5496 29.2784 94.4796 29.2784 94.4396 29.2684C92.7696 28.8584 91.0496 28.4884 89.3296 28.1784C89.0796 28.1384 88.9196 27.8984 88.9596 27.6484C88.9996 27.3984 89.2496 27.2284 89.4896 27.2784C91.2296 27.5984 92.9696 27.9684 94.6596 28.3784C94.9096 28.4384 95.0496 28.6884 94.9896 28.9284C94.9396 29.1384 94.7496 29.2784 94.5496 29.2784ZM57.9996 27.3984C57.7696 27.3984 57.5796 27.2284 57.5496 26.9984C57.5196 26.7484 57.6896 26.5184 57.9396 26.4884C59.6596 26.2684 61.4296 26.0784 63.1896 25.9484C63.4596 25.9284 63.6596 26.1184 63.6796 26.3684C63.6996 26.6184 63.5096 26.8384 63.2596 26.8584C61.5096 26.9884 59.7596 27.1684 58.0496 27.3884C58.0296 27.3884 58.0096 27.3884 57.9896 27.3884L57.9996 27.3984ZM84.2096 27.3684C84.2096 27.3684 84.1696 27.3684 84.1496 27.3684C82.4496 27.1484 80.6896 26.9784 78.9396 26.8484C78.6896 26.8284 78.4996 26.6084 78.5196 26.3584C78.5396 26.1084 78.7396 25.9084 79.0096 25.9384C80.7796 26.0684 82.5396 26.2484 84.2596 26.4684C84.5096 26.4984 84.6896 26.7284 84.6496 26.9784C84.6196 27.2084 84.4196 27.3784 84.1996 27.3784L84.2096 27.3684ZM68.4696 26.5884C68.2196 26.5884 68.0196 26.3884 68.0096 26.1484C68.0096 25.8984 68.1996 25.6884 68.4496 25.6784C70.1996 25.6384 71.9796 25.6284 73.7296 25.6784C73.9796 25.6784 74.1796 25.8984 74.1796 26.1484C74.1796 26.3984 73.9696 26.5984 73.7196 26.5984H73.7096C71.9696 26.5584 70.2096 26.5584 68.4796 26.5984H68.4696V26.5884Z" fill="#150035"/>
<path id="Vector_2" d="M120.23 33.9408C120.23 33.9408 120.23 32.4808 120.23 32.1908C120.23 32.1608 120.21 32.1409 120.18 32.1309L108.43 35.1708C108.43 35.1708 108.42 35.1708 108.41 35.1708L111.76 28.5709C111.76 28.5709 111.71 28.5609 111.69 28.5709L100.55 34.9909C100.55 34.9909 100.52 35.0009 100.5 34.9909L99.1503 34.6109C99.1503 34.6109 99.0703 34.6308 99.0703 34.6708C99.0703 35.0208 99.0703 36.3108 99.0703 36.3508C99.0903 36.5908 99.2103 36.8108 99.4403 36.9408L106.58 41.0809C107.19 41.4309 107.94 41.4309 108.55 41.0809L119.85 34.5709C120.09 34.4309 120.22 34.1908 120.23 33.9408Z" fill="#FBB937"/>
<path id="Vector_3" d="M107.58 41.6703C107.18 41.6703 106.79 41.5703 106.44 41.3603L99.2995 37.2203C98.9995 37.0503 98.8095 36.7503 98.7795 36.4103C98.7795 36.3403 98.7795 35.3003 98.7695 34.6903C98.7695 34.5703 98.8195 34.4603 98.9195 34.3903C99.0095 34.3203 99.1395 34.3003 99.2495 34.3303L100.5 34.6803L111.56 28.3103C111.67 28.2403 111.82 28.2403 111.94 28.3103L112.2 28.4603L109.02 34.7203L120.21 31.8203L120.29 31.8403C120.45 31.8903 120.57 32.0303 120.57 32.2003V32.6103C120.57 33.1403 120.57 33.9503 120.57 33.9603V33.9903C120.55 34.3403 120.35 34.6703 120.04 34.8503L108.74 41.3603C108.39 41.5603 108 41.6603 107.6 41.6603L107.58 41.6703ZM99.3895 35.0203C99.3895 35.5103 99.3895 36.2803 99.3895 36.3503C99.3895 36.4303 99.4395 36.5903 99.5995 36.6803L106.74 40.8203C107.25 41.1203 107.88 41.1203 108.39 40.8203L119.69 34.3103C119.82 34.2303 119.9 34.1003 119.91 33.9403V32.5303L108.41 35.5103L108.25 35.4503L107.98 35.3003L111.02 29.3103L100.69 35.2603C100.6 35.3103 100.5 35.3203 100.4 35.3003L99.3595 35.0103L99.3895 35.0203Z" fill="#150035"/>
<path id="Vector_4" d="M120.19 32.1389L108.44 35.1789C108.44 35.1789 108.43 35.1789 108.42 35.1789L107.52 37.7989V41.3489C107.88 41.3589 108.24 41.2789 108.56 41.0889L119.86 34.5789C120.1 34.4389 120.23 34.1989 120.24 33.9489C120.24 33.9489 120.24 32.4689 120.24 32.1889C120.24 32.1589 120.22 32.1389 120.19 32.1289V32.1389Z" fill="#150035"/>
<path id="Vector_5" d="M107.581 41.6681C107.581 41.6681 107.531 41.6681 107.511 41.6681H107.211L107.231 37.6981L108.251 34.7281L108.481 34.8581L120.201 31.8281L120.281 31.8481C120.441 31.8981 120.561 32.0381 120.561 32.2081V32.6181C120.561 33.1481 120.561 33.9581 120.561 33.9681C120.541 34.3481 120.341 34.6781 120.031 34.8681L108.731 41.3781C108.391 41.5781 108.001 41.6781 107.591 41.6781L107.581 41.6681ZM107.831 37.8481V41.0181C108.031 40.9881 108.231 40.9181 108.401 40.8181L119.701 34.3081C119.831 34.2281 119.911 34.0981 119.921 33.9381C119.921 33.8981 119.921 33.1281 119.921 32.6081V32.5281L108.651 35.4481L107.831 37.8481Z" fill="#150035"/>
<path id="Vector_6" d="M100.17 35.5881C100.17 35.5881 100.28 35.2981 100.41 34.9281L99.1601 34.5781C99.1601 34.5781 99.0801 34.5981 99.0801 34.6381C99.0801 34.9881 99.0801 36.2781 99.0801 36.3181C99.1001 36.5581 99.2201 36.7781 99.4501 36.9081L100.17 37.3281V35.5881Z" fill="#150035"/>
<path id="Vector_7" d="M100.48 37.8787L99.2898 37.1887C98.9898 37.0187 98.7998 36.7187 98.7698 36.3787C98.7698 36.3087 98.7698 35.2687 98.7598 34.6587C98.7598 34.5387 98.8098 34.4287 98.9098 34.3587C98.9998 34.2887 99.1298 34.2687 99.2398 34.2987L100.82 34.7387L100.71 35.0587C100.61 35.3387 100.53 35.5687 100.49 35.6687V37.8987L100.48 37.8787ZM99.3798 34.9787C99.3798 35.4687 99.3798 36.2387 99.3798 36.3087C99.3798 36.3887 99.4298 36.5487 99.5898 36.6387L99.8398 36.7887L99.8598 35.4887C99.8598 35.4887 99.9098 35.3587 99.9798 35.1487L99.3698 34.9787H99.3798Z" fill="#150035"/>
<path id="Vector_8" d="M106.619 39.3683L99.4492 35.2083C98.9492 34.9183 98.9492 34.1883 99.4492 33.8983L110.779 27.3683C111.369 27.0283 112.089 27.0283 112.679 27.3683L119.849 31.5283C120.349 31.8183 120.349 32.5483 119.849 32.8383L108.519 39.3683C107.929 39.7083 107.209 39.7083 106.619 39.3683Z" fill="white"/>
<path id="Vector_9" d="M107.57 39.9394C107.19 39.9394 106.8 39.8394 106.46 39.6394L99.2898 35.4794C98.9598 35.2894 98.7598 34.9394 98.7598 34.5494C98.7598 34.1594 98.9598 33.8194 99.2998 33.6194L110.63 27.0894C111.31 26.6994 112.16 26.6994 112.84 27.0894L120.01 31.2494C120.34 31.4394 120.54 31.7894 120.54 32.1794C120.54 32.5694 120.34 32.9094 120 33.1094L108.67 39.6394C108.33 39.8394 107.95 39.9394 107.57 39.9394ZM111.73 27.4294C111.46 27.4294 111.18 27.4994 110.94 27.6394L99.6098 34.1694C99.4698 34.2494 99.3898 34.3894 99.3898 34.5594C99.3898 34.7194 99.4698 34.8694 99.6098 34.9494L106.78 39.1094C107.27 39.3894 107.88 39.3994 108.37 39.1094L119.7 32.5794C119.84 32.4994 119.92 32.3494 119.92 32.1894C119.92 32.0294 119.84 31.8794 119.7 31.7994L112.53 27.6394C112.28 27.4994 112.01 27.4294 111.73 27.4294Z" fill="#150035"/>
<path id="Vector_10" d="M112.321 23.3282L110.011 21.9182C109.871 21.8382 109.741 21.8382 109.651 21.8982C109.651 21.8982 109.641 21.8982 109.631 21.9082L107.291 23.2982C107.231 23.3282 107.221 23.3982 107.251 23.4582L109.461 27.3282C109.461 27.3282 109.481 27.3682 109.481 27.3882V27.8082C109.481 28.1982 109.721 28.6582 110.011 28.8282L107.931 27.7082C107.931 27.7082 107.961 27.7382 107.971 27.7482L110.171 31.5982C110.201 31.6582 110.281 31.6782 110.331 31.6382L112.681 30.2482C112.781 30.1782 112.851 30.0382 112.851 29.8282V24.3382C112.851 23.9482 112.611 23.4882 112.321 23.3182V23.3282Z" fill="white"/>
<path id="Vector_11" d="M110.281 31.9703C110.281 31.9703 110.211 31.9703 110.171 31.9603C110.061 31.9303 109.961 31.8603 109.911 31.7603L107.711 27.9103C107.711 27.9103 107.751 27.9603 107.781 27.9803L108.081 27.4303L109.191 28.0303C109.181 27.9603 109.171 27.8903 109.171 27.8103V27.4403L106.991 23.6103C106.871 23.4103 106.941 23.1503 107.141 23.0303L109.481 21.6403C109.681 21.5003 109.941 21.5103 110.171 21.6403L112.481 23.0503C112.871 23.2803 113.161 23.8303 113.161 24.3403V29.8303C113.161 30.1303 113.051 30.3703 112.861 30.5003L110.491 31.9003C110.421 31.9403 110.351 31.9603 110.271 31.9603L110.281 31.9703ZM108.771 28.5103L110.351 31.2703L112.531 29.9803C112.531 29.9803 112.541 29.9403 112.541 29.8303V24.3403C112.541 24.0403 112.341 23.7003 112.161 23.5903L109.851 22.1703C109.831 22.1603 109.811 22.1503 109.801 22.1503L107.621 23.4503L109.731 27.1503C109.771 27.2103 109.791 27.2903 109.791 27.3603V27.7803C109.791 28.0803 109.991 28.4203 110.171 28.5303L109.871 29.0703L108.781 28.4803L108.771 28.5103Z" fill="#150035"/>
<path id="Vector_12" d="M107.84 26.9005C107.84 26.9005 108.69 21.8905 109.53 26.1505L107.92 27.7005C107.92 27.7005 107.96 27.7405 107.98 27.7605L110.16 31.5705C110.2 31.6505 110.3 31.6705 110.37 31.6305L112.69 30.2605C112.79 30.1905 112.86 30.0505 112.86 29.8405V24.4105C112.86 24.4105 112.83 24.3705 112.81 24.3805L110.39 25.8205L107.86 26.9005H107.84Z" fill="#150035"/>
<path id="Vector_13" d="M110.29 31.9595C110.29 31.9595 110.21 31.9595 110.17 31.9395C110.05 31.9095 109.95 31.8295 109.88 31.7195L107.7 27.9195L107.48 27.6895L108.04 27.1495L107.43 27.4095L107.53 26.8495C107.84 25.0495 108.26 24.1295 108.79 24.1195C109.22 24.1195 109.5 24.5795 109.76 25.7395L110.22 25.5395L112.79 24.0195L112.98 24.1095C113.09 24.1695 113.16 24.2895 113.16 24.4095V29.8395C113.16 30.1395 113.05 30.3795 112.86 30.5095L110.52 31.8895C110.45 31.9295 110.37 31.9495 110.28 31.9495L110.29 31.9595ZM108.33 27.7395L110.35 31.2695L112.53 29.9795C112.53 29.9795 112.54 29.9395 112.54 29.8295V24.8895L110.49 26.0995L109.65 26.4595L108.33 27.7395ZM108.79 24.7895C108.63 24.9995 108.42 25.6395 108.25 26.3795L109.17 25.9895C109 25.1995 108.86 24.8995 108.78 24.7895H108.79Z" fill="#150035"/>
<path id="Vector_14" d="M109.84 31.7083L107.53 30.2983C107.24 30.1283 107 29.6683 107 29.2783V23.7883C107 23.3983 107.24 23.2183 107.53 23.3883L109.84 24.7983C110.13 24.9683 110.37 25.4283 110.37 25.8183V31.3083C110.37 31.6983 110.13 31.8783 109.84 31.7083Z" fill="#FBB937"/>
<path id="Vector_15" d="M110.049 32.0912C109.929 32.0912 109.799 32.0512 109.679 31.9812L107.369 30.5612C106.979 30.3412 106.689 29.7812 106.689 29.2812V23.7913C106.689 23.4713 106.809 23.2112 107.029 23.0912C107.219 22.9812 107.469 22.9913 107.689 23.1213L110.009 24.5413C110.399 24.7613 110.689 25.3212 110.689 25.8212V31.3112C110.689 31.6312 110.569 31.8912 110.349 32.0112C110.259 32.0612 110.159 32.0912 110.059 32.0912H110.049ZM109.999 31.4513C109.999 31.4513 110.039 31.4712 110.049 31.4712C110.039 31.4712 110.059 31.4212 110.059 31.3212V25.8312C110.059 25.5312 109.859 25.1912 109.679 25.0812L107.359 23.6612C107.359 23.6612 107.319 23.6412 107.309 23.6412C107.319 23.6412 107.299 23.6913 107.299 23.7913V29.2812C107.299 29.5813 107.499 29.9212 107.679 30.0312L109.989 31.4412L109.999 31.4513Z" fill="#150035"/>
<path id="Vector_16" d="M111.475 22.592L109.09 24.0781L109.418 24.6043L111.803 23.1182L111.475 22.592Z" fill="#150035"/>
<path id="Vector_17" d="M112.558 27.1699L110.459 28.4336L110.707 28.8448L112.806 27.5811L112.558 27.1699Z" fill="#FBB937"/>
<path id="Vector_18" d="M28.3696 59.1088L28.3396 53.9588C28.3396 53.9588 28.3096 53.8888 28.2796 53.8788L26.6696 53.4788C26.6696 53.4788 26.6596 53.4788 26.6496 53.4788L21.7396 50.7088C21.7396 50.7088 21.6996 50.6688 21.6996 50.6388V47.7688C21.6996 47.7088 21.6396 47.6688 21.5896 47.6888L19.9096 48.3688H19.8896L10.4396 49.1188L2.32961 50.1888C2.32961 50.1888 2.25961 50.2288 2.25961 50.2688L2.20961 54.3188C2.20961 54.3188 2.16961 54.4088 2.11961 54.3988L0.439609 54.2188C0.439609 54.2188 0.349609 54.2488 0.349609 54.2988V59.7488C0.349609 59.7488 0.349609 59.7688 0.359609 59.7788C0.349609 59.8788 0.359609 59.9888 0.399609 60.0888L1.78961 63.0788C2.01961 63.5788 2.90961 63.8788 3.77961 63.7388L5.35961 63.4988C5.65961 63.7288 5.98961 63.9488 6.34961 64.1588C6.55961 64.2788 6.78961 64.3988 7.01961 64.5088V65.9888C7.09961 66.3588 7.55961 66.6888 8.21961 66.7888L13.4096 67.5888C14.2796 67.7188 15.1696 67.4288 15.3996 66.9288L15.8196 66.0188C16.8196 65.9488 17.7996 65.7988 18.7396 65.5688L19.8996 66.2388C20.5396 66.6088 21.5696 66.6088 22.1996 66.2388L25.9996 64.0488C26.3596 63.8388 26.5096 63.5588 26.4596 63.2888C26.4596 63.2788 26.4696 63.2688 26.4696 63.2588V60.2388L27.1996 60.1288C27.9896 60.0088 28.4896 59.5688 28.3896 59.1088H28.3696Z" fill="#FBB937"/>
<path id="Vector_19" d="M13.8095 67.9584C13.6595 67.9584 13.4995 67.9484 13.3395 67.9184L8.14947 67.1184C7.36947 66.9984 6.79947 66.5884 6.69947 66.0684V66.0084L6.68947 64.7184C6.51947 64.6284 6.34947 64.5384 6.17947 64.4484C5.85947 64.2684 5.54947 64.0584 5.25947 63.8484L3.80947 64.0684C2.79947 64.2184 1.77947 63.8584 1.48947 63.2284L0.0994731 60.2384C0.0394731 60.1084 0.00947313 59.9684 0.0194731 59.8184V59.7684V54.3184C0.0194731 54.2084 0.0694731 54.0984 0.149473 54.0284C0.229473 53.9584 0.339473 53.9184 0.459473 53.9284L1.88947 54.0784L1.93947 50.2884C1.93947 50.0984 2.08947 49.9284 2.27947 49.8984L10.3895 48.8284L19.8295 48.0784L21.4695 47.4184C21.5895 47.3684 21.7295 47.3884 21.8395 47.4584C21.9495 47.5284 22.0095 47.6584 22.0095 47.7884V50.5184L26.7795 53.2084L28.3595 53.5984C28.5295 53.6384 28.6595 53.7984 28.6595 53.9784L28.6895 59.0984C28.7295 59.3284 28.6795 59.5584 28.5295 59.7684C28.2895 60.1184 27.8195 60.3684 27.2395 60.4584L26.7695 60.5284V63.3584V63.3684C26.7895 63.7484 26.5595 64.1084 26.1495 64.3484L22.3495 66.5384C21.6195 66.9584 20.4695 66.9584 19.7395 66.5384L18.6895 65.9384C17.8395 66.1384 16.9495 66.2784 16.0295 66.3484L15.6795 67.0984C15.4295 67.6284 14.6695 67.9784 13.8195 67.9784L13.8095 67.9584ZM7.31947 65.9684C7.37947 66.1684 7.70947 66.4184 8.24947 66.4984L13.4395 67.2984C14.2295 67.4184 14.9495 67.1384 15.0995 66.8084L15.5995 65.7284H15.7795C16.7695 65.6384 17.7295 65.4984 18.6495 65.2784L18.7695 65.2484L20.0295 65.9784C20.5695 66.2884 21.4795 66.2884 22.0195 65.9784L25.8195 63.7884C25.9295 63.7284 26.1695 63.5684 26.1295 63.3584L26.1095 63.2584L26.1295 63.2084V59.9884L27.1295 59.8384C27.6095 59.7684 27.8995 59.5684 27.9995 59.4084C28.0495 59.3284 28.0695 59.2584 28.0495 59.1884V59.1284L28.0195 54.1584L26.4795 53.7584L21.5695 50.9884C21.4495 50.9184 21.3695 50.7884 21.3695 50.6484V48.1184L19.8995 48.6984L10.4395 49.4484L2.53947 50.4984L2.48947 54.3484C2.48947 54.4584 2.43947 54.5684 2.35947 54.6384C2.27947 54.7084 2.15947 54.7484 2.05947 54.7384L0.629473 54.5884L0.649473 59.7584V59.8484C0.629473 59.8984 0.649473 59.9484 0.649473 59.9884L2.03947 62.9784C2.18947 63.3084 2.90947 63.5884 3.69947 63.4684L5.40947 63.2084L5.51947 63.2884C5.81947 63.5184 6.14947 63.7284 6.47947 63.9284C6.68947 64.0484 6.90947 64.1584 7.12947 64.2684L7.29947 64.3484V65.9884L7.31947 65.9684Z" fill="#150035"/>
<path id="Vector_20" d="M2.43969 63.6284C2.81969 63.7784 3.28969 63.8284 3.76969 63.7584L5.34969 63.5184V55.3984H2.42969V63.6184L2.43969 63.6284Z" fill="#150035"/>
<path id="Vector_21" d="M5.67086 64.0998L5.28086 63.8398L3.82086 64.0698C3.31086 64.1498 2.78086 64.0998 2.33086 63.9198L2.13086 63.8398V55.0898H5.67086V64.0998ZM2.75086 63.3998C3.05086 63.4798 3.39086 63.4998 3.72086 63.4498L5.04086 63.2498V55.7198H2.75086V63.3998Z" fill="#150035"/>
<path id="Vector_22" d="M15.3906 66.9495L15.8106 66.0395C16.8106 65.9695 17.7906 65.8195 18.7306 65.5895L19.8906 66.2595C20.5306 66.6295 21.5606 66.6295 22.1906 66.2595L25.9906 64.0695C26.3506 63.8595 26.5006 63.5795 26.4506 63.3095C26.4506 63.2995 26.4606 63.2895 26.4606 63.2795V60.2595L27.1906 60.1495C27.9806 60.0295 28.4806 59.5895 28.3806 59.1295L28.3506 53.9795C28.3506 53.9795 28.3206 53.9095 28.2906 53.8995L26.6806 53.4995C26.6806 53.4995 26.6706 53.4995 26.6606 53.4995L26.2506 53.2695C24.9206 53.9095 23.4706 54.6295 23.4306 54.6795C23.3706 54.7695 19.2506 58.3195 19.2506 58.3195L13.3906 59.8195V62.1395L13.4106 67.6395C14.2806 67.7695 15.1706 67.4795 15.4006 66.9795L15.3906 66.9495Z" fill="#150035"/>
<path id="Vector_23" d="M13.8105 67.9584C13.6605 67.9584 13.5005 67.9484 13.3405 67.9184L13.0805 67.8784L13.0605 59.5484L19.0905 58.0084C20.6805 56.6384 23.0405 54.5984 23.1905 54.4484C23.2305 54.3884 23.2505 54.3484 26.1005 52.9684L26.2505 52.8984L26.7705 53.1984L28.3505 53.5884C28.5205 53.6284 28.6505 53.7884 28.6505 53.9684L28.6805 59.0884C28.7205 59.3184 28.6705 59.5484 28.5205 59.7584C28.2805 60.1084 27.8105 60.3584 27.2305 60.4484L26.7605 60.5184V63.3484V63.3584C26.7805 63.7384 26.5505 64.0984 26.1405 64.3384L22.3405 66.5284C21.6105 66.9484 20.4605 66.9484 19.7305 66.5284L18.6805 65.9284C17.8305 66.1284 16.9405 66.2684 16.0205 66.3384L15.6705 67.0884C15.4205 67.6184 14.6605 67.9684 13.8105 67.9684V67.9584ZM13.7005 67.3284C14.3805 67.3584 14.9605 67.1084 15.1005 66.8184L15.6005 65.7384H15.7805C16.7705 65.6484 17.7305 65.5084 18.6505 65.2884L18.7705 65.2584L20.0305 65.9884C20.5705 66.2984 21.4805 66.2984 22.0205 65.9884L25.8205 63.7984C25.9305 63.7384 26.1705 63.5784 26.1305 63.3684L26.1105 63.2684L26.1305 63.2184V59.9984L27.1305 59.8484C27.6105 59.7784 27.9005 59.5784 28.0005 59.4184C28.0505 59.3384 28.0705 59.2684 28.0505 59.1984V59.1384L28.0205 54.1684L26.4805 53.7684L26.2205 53.6184C24.0905 54.6484 23.6805 54.8684 23.6105 54.9184C23.4305 55.0984 22.6805 55.7584 19.4405 58.5484L19.3805 58.5984L13.6805 60.0584L13.7005 67.3484V67.3284Z" fill="#150035"/>
<path id="Vector_24" d="M24.9298 49.8302L23.3498 50.0702C23.0498 49.8402 22.7198 49.6202 22.3598 49.4102C21.9998 49.2002 21.6198 49.0102 21.2198 48.8402L21.6398 47.9302C21.8698 47.4302 21.3598 46.9102 20.4898 46.7802L15.2998 45.9802C14.4298 45.8502 13.5398 46.1402 13.3098 46.6402L12.8898 47.5502C11.8898 47.6202 10.9098 47.7702 9.96982 48.0002L8.80982 47.3302C8.16982 46.9602 7.13982 46.9602 6.50982 47.3302L2.70982 49.5202C2.06982 49.8902 2.06982 50.4802 2.70982 50.8502L3.86982 51.5202C3.47982 52.0602 3.21982 52.6302 3.08982 53.2002L1.50982 53.4402C0.639821 53.5702 0.129821 54.0902 0.359821 54.5902L1.74982 57.5802C1.97982 58.0802 2.86982 58.3802 3.73982 58.2402L5.31982 58.0002C5.61982 58.2302 5.94982 58.4502 6.30982 58.6602C6.66982 58.8702 7.04982 59.0602 7.44982 59.2302L7.02982 60.1402C6.79982 60.6402 7.30982 61.1602 8.17982 61.2902L13.3698 62.0902C14.2398 62.2202 15.1298 61.9302 15.3598 61.4302L15.7798 60.5202C16.7798 60.4502 17.7598 60.3002 18.6998 60.0702L19.8598 60.7402C20.4998 61.1102 21.5298 61.1102 22.1598 60.7402L25.9598 58.5502C26.5998 58.1802 26.5998 57.5902 25.9598 57.2202L24.7998 56.5502C25.1898 56.0102 25.4498 55.4402 25.5798 54.8702L27.1598 54.6302C28.0298 54.5002 28.5398 53.9802 28.3098 53.4802L26.9198 50.4902C26.6898 49.9902 25.7998 49.6902 24.9298 49.8302Z" fill="white"/>
<path id="Vector_25" d="M13.7999 62.45C13.6499 62.45 13.4899 62.44 13.3299 62.41L8.13995 61.61C7.49995 61.51 6.98995 61.21 6.77995 60.82C6.63995 60.57 6.63995 60.28 6.75995 60.02L7.04995 59.39C6.73995 59.24 6.43995 59.09 6.16995 58.93C5.84995 58.75 5.53995 58.55 5.24995 58.33L3.79995 58.55C2.77995 58.71 1.76995 58.34 1.47995 57.71L0.0899466 54.72C-0.0300534 54.46 -0.0200534 54.18 0.109947 53.92C0.319947 53.52 0.829947 53.23 1.46995 53.13L2.84995 52.92C2.96995 52.47 3.16995 52.04 3.42995 51.62L2.56995 51.12C2.15995 50.88 1.93995 50.55 1.93995 50.19C1.93995 49.83 2.15995 49.49 2.56995 49.26L6.36995 47.07C7.09995 46.65 8.24995 46.65 8.97995 47.07L10.0299 47.67C10.8799 47.47 11.7799 47.33 12.6899 47.26L13.0399 46.51C13.3299 45.88 14.3499 45.51 15.3599 45.67L20.5499 46.47C21.1899 46.57 21.6999 46.87 21.9099 47.26C22.0499 47.51 22.0599 47.8 21.9299 48.06L21.6399 48.69C21.9499 48.84 22.2499 48.99 22.5199 49.15C22.8399 49.33 23.1499 49.53 23.4399 49.75L24.8899 49.53C25.8999 49.37 26.9199 49.74 27.2099 50.37L28.5999 53.36C28.7199 53.62 28.7099 53.9 28.5799 54.16C28.3699 54.56 27.8599 54.85 27.2199 54.95L25.8399 55.16C25.7199 55.61 25.5199 56.04 25.2599 56.46L26.1199 56.96C26.5299 57.2 26.7499 57.53 26.7499 57.89C26.7499 58.25 26.5299 58.59 26.1199 58.82L22.3199 61.01C21.5899 61.43 20.4399 61.43 19.7099 61.01L18.6599 60.41C17.8099 60.61 16.9099 60.75 15.9999 60.82L15.6499 61.57C15.3999 62.1 14.6399 62.45 13.7899 62.45H13.7999ZM5.41995 57.68L5.52995 57.76C5.82995 57.99 6.15995 58.2 6.48995 58.4C6.81995 58.59 7.19995 58.78 7.59995 58.96L7.88995 59.09L7.32995 60.29C7.28995 60.37 7.28995 60.45 7.32995 60.53C7.41995 60.7 7.70995 60.92 8.23995 61L13.4299 61.8C14.2199 61.92 14.9399 61.64 15.0899 61.31L15.5899 60.23H15.7699C16.7599 60.14 17.7199 59.99 18.6399 59.77L18.7599 59.74L20.0199 60.47C20.5599 60.78 21.4699 60.78 22.0099 60.47L25.8099 58.28C26.0099 58.16 26.1299 58.02 26.1299 57.89C26.1299 57.76 26.0099 57.61 25.8099 57.5L24.3599 56.66L24.5599 56.38C24.9199 55.88 25.1699 55.35 25.2899 54.81L25.3399 54.6L27.1299 54.32C27.6599 54.24 27.9499 54.02 28.0399 53.85C28.0799 53.77 28.0899 53.69 28.0399 53.61L26.6499 50.62C26.4999 50.29 25.7799 50.01 24.9899 50.13L23.2799 50.39L23.1699 50.31C22.8699 50.08 22.5399 49.87 22.2099 49.67C21.8799 49.48 21.4999 49.29 21.0999 49.11L20.8099 48.98L21.3699 47.78C21.4099 47.7 21.4099 47.62 21.3699 47.54C21.2799 47.37 20.9899 47.15 20.4599 47.07L15.2699 46.27C14.4799 46.15 13.7599 46.43 13.6099 46.76L13.1099 47.84H12.9299C11.9399 47.93 10.9799 48.08 10.0599 48.29L9.93995 48.32L8.67995 47.59C8.13995 47.28 7.22995 47.28 6.68995 47.59L2.88995 49.78C2.68995 49.9 2.56995 50.04 2.56995 50.17C2.56995 50.3 2.68995 50.45 2.88995 50.56L4.33995 51.4L4.13995 51.68C3.77995 52.18 3.52995 52.71 3.40995 53.25L3.35995 53.46L1.56995 53.74C1.03995 53.82 0.749947 54.04 0.659947 54.21C0.619947 54.29 0.609947 54.37 0.659947 54.45L2.04995 57.44C2.19995 57.77 2.91995 58.05 3.70995 57.93L5.41995 57.67V57.68Z" fill="#150035"/>
<path id="Vector_26" d="M19.2007 51.2406C21.8807 52.7906 21.8807 55.3006 19.2007 56.8506C16.5207 58.4006 12.1607 58.4006 9.4807 56.8506C6.8007 55.3006 6.8007 52.7906 9.4807 51.2406C12.1607 49.6906 16.5207 49.6906 19.2007 51.2406Z" fill="#FBB937"/>
<path id="Vector_27" d="M14.3404 58.3217C12.5204 58.3217 10.7104 57.9217 9.32039 57.1217C7.92039 56.3117 7.15039 55.2217 7.15039 54.0417C7.15039 52.8617 7.92039 51.7717 9.32039 50.9617C12.0904 49.3617 16.5904 49.3617 19.3504 50.9617C20.7504 51.7717 21.5204 52.8617 21.5204 54.0417C21.5204 55.2217 20.7504 56.3117 19.3504 57.1217C17.9704 57.9217 16.1504 58.3217 14.3304 58.3217H14.3404ZM14.3404 50.3917C12.6404 50.3917 10.9304 50.7617 9.64039 51.5117C8.44039 52.2017 7.78039 53.1017 7.78039 54.0517C7.78039 55.0017 8.44039 55.8917 9.64039 56.5917C12.2304 58.0917 16.4504 58.0917 19.0504 56.5917C20.2504 55.9017 20.9104 55.0017 20.9104 54.0517C20.9104 53.1017 20.2504 52.2117 19.0504 51.5117C17.7504 50.7617 16.0504 50.3917 14.3504 50.3917H14.3404Z" fill="#150035"/>
<path id="Vector_28" d="M14.3407 50.0781C12.5807 50.0781 10.8207 50.4681 9.4807 51.2381C6.8007 52.7881 6.8007 55.2981 9.4807 56.8481C10.7207 57.5581 12.3107 57.9481 13.9307 57.9981H14.3407V50.0781Z" fill="#150035"/>
<path id="Vector_29" d="M14.6502 58.3195H13.9302C12.1902 58.2595 10.5502 57.8395 9.33016 57.1295C7.93016 56.3195 7.16016 55.2295 7.16016 54.0495C7.16016 52.8695 7.93016 51.7795 9.33016 50.9695C10.6702 50.1895 12.4602 49.7695 14.3502 49.7695H14.6602V58.3195H14.6502ZM14.0302 50.3995C12.3702 50.4395 10.8202 50.8395 9.64016 51.5195C8.44016 52.2095 7.78016 53.1095 7.78016 54.0595C7.78016 54.9995 8.44016 55.8995 9.64016 56.5995C10.7802 57.2595 12.3102 57.6495 13.9402 57.7095H14.0302V50.4095V50.3995Z" fill="#150035"/>
<path id="Vector_30" d="M9.80078 56.6398C9.80078 56.8598 9.80078 56.8098 9.80078 57.0298C12.4108 58.3398 16.3308 58.3298 18.9108 56.9798C18.9108 56.7598 18.9108 56.8098 18.9108 56.5898C16.3008 55.2798 12.3808 55.2898 9.80078 56.6398Z" fill="#FBB937"/>
<path id="Vector_31" d="M14.3102 58.3113C12.6502 58.3113 11.0002 57.9813 9.66023 57.3113L9.49023 57.2213V56.4613L9.65023 56.3613C12.3102 54.9813 16.3402 54.9513 19.0402 56.3113L19.2102 56.4013V57.1713L19.0502 57.2613C17.7002 57.9613 16.0002 58.3113 14.3002 58.3113H14.3102ZM10.1202 56.8313C12.5902 57.9913 16.1602 57.9713 18.6002 56.7913C16.1302 55.6313 12.5502 55.6513 10.1202 56.8313Z" fill="#150035"/>
<path id="Vector_32" d="M7.31922 60.5781H6.69922V66.0081H7.31922V60.5781Z" fill="#150035"/>
<path id="Vector_33" d="M12.0399 50.7812H11.4199V55.4113H12.0399V50.7812Z" fill="#FBB937"/>
<path id="Vector_34" d="M16.2098 60.9219H15.5898V65.6819H16.2098V60.9219Z" fill="#FBB937"/>
<path id="Vector_35" d="M21.5204 61.4102H20.9004V66.1702H21.5204V61.4102Z" fill="#FBB937"/>
<path id="Vector_36" d="M26.8309 58.5312H26.2109V60.0513H26.8309V58.5312Z" fill="#FBB937"/>
<path id="Vector_37" d="M28.6005 56.3086H27.9805V57.4786H28.6005V56.3086Z" fill="#FBB937"/>
<path id="Vector_38" d="M113.139 85.2988L109.259 84.3988V80.0987L101.469 79.8688L101.499 76.8487L95.7992 78.5687L88.8692 78.0788L86.5692 76.7188V79.5587L82.7792 80.6488L80.3992 80.2487L78.7692 80.0788L78.7892 83.3387L76.8092 84.1287L74.8892 85.2988L74.9092 93.5387C74.8792 93.6187 74.8792 93.6987 74.9092 93.7787L75.9092 95.9388C76.0292 96.2088 76.5092 96.3587 76.9692 96.2887L78.8492 95.9987C78.8492 95.9987 78.6192 98.8187 78.8492 98.9587L81.8192 100.669C82.1192 100.849 82.6192 100.849 82.9292 100.669L84.4492 99.7887C85.1192 100.069 85.8292 100.299 86.5492 100.509V101.819C86.4292 102.089 86.6992 102.359 87.1592 102.429L90.8992 103.009C91.3592 103.079 91.8292 102.919 91.9592 102.659L92.4992 101.499C93.5192 101.549 94.5392 101.549 95.5592 101.499L96.0992 102.659C96.2192 102.929 96.6992 103.079 97.1592 103.009L100.899 102.429C101.319 102.369 101.579 102.139 101.529 101.899V100.499C102.249 100.289 102.949 100.059 103.619 99.7787L105.139 100.659C105.439 100.839 105.939 100.839 106.249 100.659L109.219 98.9487C109.429 98.8287 109.289 95.9987 109.289 95.9987L111.109 96.2787C111.569 96.3487 112.039 96.1887 112.169 95.9287L113.169 93.7687C113.209 93.6887 113.149 85.2988 113.149 85.2988H113.139Z" fill="#FBB937"/>
<path id="Vector_39" d="M96.9209 103.35C96.4109 103.35 95.9609 103.14 95.8109 102.8L95.3609 101.84C94.4709 101.88 93.5809 101.88 92.6909 101.84L92.2409 102.8C92.0609 103.2 91.4609 103.42 90.8509 103.33L87.1109 102.75C86.7209 102.69 86.4209 102.51 86.2809 102.25C86.1909 102.09 86.1809 101.91 86.2409 101.74C86.2409 101.56 86.2309 101.27 86.2209 100.74C85.5709 100.54 84.9809 100.34 84.4509 100.13L83.0609 100.93C82.6609 101.16 82.0409 101.16 81.6409 100.93L78.6709 99.2198C78.5109 99.1298 78.2809 98.9998 78.4809 96.3598L76.9909 96.5898C76.3809 96.6798 75.7909 96.4598 75.6009 96.0598L74.6009 93.8998C74.5409 93.7698 74.5309 93.6199 74.5709 93.4799L74.5509 85.0998L74.7209 85.0098L76.6709 83.8298L78.4509 83.1199L78.4309 79.7498H78.7509L80.4209 79.9198L82.7509 80.3098L86.2509 79.3098V76.5298L86.5509 76.3398L86.7109 76.4198L88.9709 77.7598L95.7709 78.2398L101.571 76.4898L101.821 76.6798V76.8298L101.801 79.5499L109.591 79.7798V80.0898V84.1398L113.471 85.0398V85.2898C113.531 93.7498 113.511 93.8098 113.471 93.8998L112.471 96.0598C112.291 96.4598 111.691 96.6798 111.081 96.5898L109.641 96.3699C109.751 99.0198 109.561 99.1299 109.401 99.2299L106.431 100.94C106.031 101.17 105.411 101.17 105.011 100.94L103.621 100.14C103.091 100.35 102.521 100.55 101.871 100.74V101.88C101.891 102.03 101.851 102.19 101.751 102.33C101.601 102.54 101.311 102.7 100.971 102.75L97.2309 103.33C97.1409 103.34 97.0509 103.35 96.9609 103.35H96.9209ZM95.7509 101.19L96.3809 102.54C96.4209 102.64 96.7409 102.77 97.1109 102.72L100.851 102.14C101.101 102.1 101.211 102 101.221 101.96V101.91V100.28L101.441 100.21C102.221 99.9798 102.901 99.7498 103.501 99.4998L103.641 99.4398L105.301 100.4C105.511 100.52 105.891 100.52 106.091 100.4L108.971 98.7299C109.041 98.3899 109.021 97.0998 108.971 96.0098L108.951 95.6298L111.151 95.9698C111.521 96.0298 111.831 95.8898 111.881 95.7898L112.861 93.6798C112.881 93.1498 112.861 88.6598 112.831 85.5298L108.951 84.6298V84.3798V80.3798L101.161 80.1498V79.8398L101.181 77.2398L95.8609 78.8598L88.7309 78.3298L86.8709 77.2299V79.7598L86.6509 79.8298L83.0709 80.8598V80.9398H82.7309L80.3309 80.5398L79.0609 80.4099L79.0809 83.5198L78.9009 83.6098L76.9209 84.3998L75.1709 85.4598L75.1909 93.5798L75.1709 93.6298L76.1709 95.7798C76.2109 95.8698 76.5209 96.0098 76.9009 95.9598L79.1709 95.6098L79.1409 95.9998C79.0509 97.0798 79.0109 98.3698 79.0709 98.7098L81.9609 100.38C82.1709 100.5 82.5509 100.5 82.7509 100.38L84.4109 99.4198L84.5509 99.4799C85.1609 99.7299 85.8409 99.9599 86.6209 100.19L86.8409 100.26V100.49C86.8409 100.49 86.8409 101.35 86.8509 101.67L86.9009 101.72L86.8309 101.91C86.8309 101.96 86.9409 102.07 87.1909 102.11L90.9309 102.69C91.3009 102.75 91.6109 102.61 91.6609 102.51L92.2909 101.16H92.5009C93.5009 101.22 94.5209 101.22 95.5209 101.17H95.7309L95.7509 101.19Z" fill="#150035"/>
<path id="Vector_40" d="M84.1001 92.7695L82.0801 94.4895L82.3001 95.6795V100.8C82.5201 100.81 82.7501 100.77 82.9201 100.68L84.4401 99.7995L84.4101 94.6895L84.1001 92.7795V92.7695Z" fill="#150035"/>
<path id="Vector_41" d="M82.3705 101.112C82.3705 101.112 82.3105 101.112 82.2805 101.112L81.9805 101.092V95.7019L81.7305 94.3619L84.3105 92.1719L84.7205 94.6819L84.7505 99.9719L83.0705 100.942C82.8805 101.052 82.6405 101.112 82.3705 101.112ZM82.4105 94.6019L82.6005 95.6719V100.462C82.6605 100.452 82.7105 100.432 82.7505 100.402L84.1205 99.6119L84.1005 94.7119L83.8805 93.3619L82.4205 94.6019H82.4105Z" fill="#150035"/>
<path id="Vector_42" d="M76.9199 91.2003L76.9499 96.1803C76.9499 96.2403 76.9999 96.2803 77.0599 96.2703L78.7499 96.0103C78.7499 96.0103 78.8299 95.9603 78.8299 95.9103L78.7499 93.7503C78.7499 93.7503 78.7799 93.6703 78.8199 93.6603L82.1799 92.7503C82.2399 92.7303 82.2699 92.6603 82.2399 92.6103L80.3499 89.3003C80.3499 89.3003 80.3099 89.2503 80.2699 89.2503L77.7499 89.0703C77.7499 89.0703 77.6699 89.0903 77.6499 89.1303L76.9299 91.1503C76.9299 91.1503 76.9299 91.1703 76.9299 91.1803L76.9199 91.2003Z" fill="#150035"/>
<path id="Vector_43" d="M77.0394 96.5902C76.9394 96.5902 76.8494 96.5602 76.7794 96.4902C76.6894 96.4102 76.6394 96.3002 76.6394 96.1802L76.6094 91.1402L76.6294 91.0602L77.3494 89.0402C77.4094 88.8702 77.5794 88.7602 77.7594 88.7702L80.2794 88.9502C80.4194 88.9502 80.5394 89.0402 80.5994 89.1502L82.4894 92.4602C82.5494 92.5702 82.5594 92.7002 82.5094 92.8202C82.4594 92.9402 82.3594 93.0202 82.2394 93.0602L79.0494 93.9202L79.1194 95.9002C79.1194 96.1102 78.9794 96.2802 78.7794 96.3202L77.0894 96.5802C77.0894 96.5802 77.0494 96.5802 77.0294 96.5802L77.0394 96.5902ZM77.2294 91.2402L77.2494 95.9302L78.4994 95.7402L78.4294 93.7802C78.4294 93.5902 78.5494 93.4202 78.7294 93.3702L81.8094 92.5402L80.1094 89.5802L77.8694 89.4202L77.2094 91.2502L77.2294 91.2402Z" fill="#150035"/>
<path id="Vector_44" d="M91.9606 102.599L92.5006 101.439C93.5206 101.489 94.5406 101.489 95.5606 101.439L96.1006 102.599C96.2206 102.869 96.7006 103.019 97.1606 102.949L100.901 102.369C101.321 102.309 101.581 102.079 101.531 101.839V100.439C102.251 100.229 102.951 99.9991 103.621 99.7191L105.141 100.599C105.441 100.779 105.941 100.779 106.251 100.599L109.221 98.8891C109.431 98.7691 109.291 95.9391 109.291 95.9391L111.111 96.2191C111.571 96.2891 112.041 96.1291 112.171 95.8691L113.171 93.7091C113.211 93.6291 113.151 85.2391 113.151 85.2391L109.271 84.3391V80.0391L101.481 79.8091L101.511 76.7891L97.7706 77.9191L90.8906 94.5691V97.8591L90.9206 102.969C91.3806 103.039 91.8506 102.879 91.9806 102.619L91.9606 102.599Z" fill="#150035"/>
<path id="Vector_45" d="M91.1303 103.28C91.0403 103.28 90.9503 103.28 90.8603 103.26L90.6003 103.22L90.5703 94.4802L90.5903 94.4202L97.5203 77.6301L101.56 76.4102L101.81 76.6002V76.7502L101.79 79.4702L109.58 79.7001V80.0102V84.0602L113.46 84.9602V85.2102C113.52 93.6702 113.5 93.7302 113.46 93.8102L112.46 95.9702C112.28 96.3702 111.68 96.5902 111.07 96.5002L109.63 96.2802C109.74 98.9302 109.55 99.0402 109.39 99.1402L106.42 100.85C106.02 101.08 105.4 101.08 105 100.85L103.61 100.05C103.09 100.26 102.51 100.46 101.86 100.65V101.79C101.88 101.94 101.84 102.1 101.74 102.24C101.59 102.45 101.3 102.61 100.96 102.66L97.2203 103.24C96.6103 103.33 96.0103 103.11 95.8303 102.71L95.3803 101.74C94.4903 101.78 93.6003 101.78 92.7103 101.74L92.2603 102.71C92.1003 103.05 91.6503 103.26 91.1403 103.26L91.1303 103.28ZM95.7503 101.12L96.3803 102.47C96.4203 102.56 96.7303 102.7 97.1103 102.65L100.85 102.07C101.1 102.03 101.21 101.93 101.22 101.89V101.84V100.21L101.44 100.14C102.23 99.9102 102.9 99.6802 103.5 99.4302L103.64 99.3702L105.3 100.33C105.51 100.45 105.89 100.45 106.09 100.33L108.97 98.6602C109.04 98.3202 109.02 97.0302 108.97 95.9402L108.95 95.5602L111.15 95.9002C111.52 95.9602 111.83 95.8202 111.88 95.7202L112.86 93.6102C112.88 93.0802 112.86 88.5902 112.83 85.4602L108.95 84.5602V84.3102V80.3102L101.16 80.0802V79.7701L101.18 77.1702L97.9803 78.1301L91.1903 94.5901V97.8202L91.2103 102.63C91.4603 102.61 91.6403 102.52 91.6703 102.44L92.3003 101.09H92.5103C93.5103 101.15 94.5303 101.15 95.5303 101.1H95.7403L95.7503 101.12Z" fill="#150035"/>
<path id="Vector_46" d="M105.051 78.2018L103.581 79.0518C102.741 78.7018 101.851 78.4118 100.931 78.1618L101.471 77.0118C101.591 76.7418 101.321 76.4718 100.861 76.4018L97.1207 75.8218C96.6607 75.7518 96.1907 75.9118 96.0607 76.1718L95.5207 77.3318C94.5007 77.2818 93.4807 77.2818 92.4607 77.3318L91.9207 76.1718C91.8007 75.9018 91.3207 75.7518 90.8607 75.8218L87.1207 76.4018C86.6607 76.4718 86.3907 76.7418 86.5107 77.0118L87.0507 78.1618C86.1307 78.4018 85.2507 78.7018 84.4007 79.0518L82.9307 78.2018C82.5907 78.0118 82.0507 78.0118 81.7107 78.2018L78.9707 79.7818C78.6307 79.9718 78.6307 80.2918 78.9707 80.4918L80.4407 81.3418C79.8407 81.8318 79.3307 82.3418 78.9107 82.8718L76.9107 82.5618C76.4507 82.4918 75.9807 82.6518 75.8507 82.9118L74.8507 85.0718C74.7307 85.3418 75.0007 85.6118 75.4607 85.6818L77.4607 85.9918C77.3707 86.5818 77.3707 87.1718 77.4607 87.7518L75.4607 88.0618C75.0007 88.1318 74.7307 88.4018 74.8507 88.6718L75.8507 90.8318C75.9707 91.1018 76.4507 91.2518 76.9107 91.1818L78.9107 90.8718C79.3307 91.4018 79.8407 91.9118 80.4407 92.4018L78.9707 93.2518C78.6307 93.4418 78.6307 93.7618 78.9707 93.9618L81.7107 95.5418C82.0507 95.7318 82.5907 95.7318 82.9307 95.5418L84.4007 94.6918C85.2407 95.0418 86.1307 95.3318 87.0507 95.5718L86.5107 96.7218C86.3907 96.9918 86.6607 97.2618 87.1207 97.3318L90.8607 97.9118C91.3207 97.9818 91.7907 97.8218 91.9207 97.5618L92.4607 96.4018C93.4807 96.4518 94.5007 96.4518 95.5207 96.4018L96.0607 97.5618C96.1807 97.8318 96.6607 97.9818 97.1207 97.9118L100.861 97.3318C101.321 97.2618 101.591 96.9918 101.471 96.7218L100.931 95.5718C101.851 95.3318 102.731 95.0318 103.581 94.6818L105.051 95.5318C105.391 95.7218 105.931 95.7218 106.271 95.5318L109.011 93.9518C109.351 93.7618 109.351 93.4418 109.011 93.2418L107.541 92.3918C108.141 91.9018 108.651 91.3918 109.071 90.8618L111.071 91.1718C111.531 91.2418 112.001 91.0818 112.131 90.8218L113.131 88.6618C113.251 88.3918 112.981 88.1218 112.521 88.0518L110.521 87.7418C110.611 87.1518 110.611 86.5618 110.521 85.9818L112.521 85.6718C112.981 85.6018 113.251 85.3318 113.131 85.0618L112.131 82.9018C112.011 82.6318 111.531 82.4818 111.071 82.5518L109.071 82.8618C108.651 82.3318 108.131 81.8218 107.541 81.3318L109.011 80.4818C109.351 80.2918 109.351 79.9718 109.011 79.7718L106.271 78.1918C105.931 78.0018 105.391 78.0018 105.051 78.1918V78.2018Z" fill="white"/>
<path id="Vector_47" d="M91.1009 98.2417C91.0109 98.2417 90.9209 98.2417 90.8309 98.2217L87.0909 97.6417C86.7009 97.5817 86.4009 97.4017 86.2609 97.1417C86.1709 96.9617 86.1609 96.7717 86.2409 96.5817L86.6209 95.7617C85.8709 95.5517 85.1309 95.3017 84.4409 95.0217L83.1109 95.7917C82.6709 96.0417 82.0109 96.0417 81.5809 95.7917L78.8409 94.2117C78.5809 94.0617 78.4309 93.8317 78.4309 93.5917C78.4309 93.3517 78.5809 93.1217 78.8409 92.9717L79.9209 92.3517C79.5009 91.9817 79.1309 91.6017 78.8009 91.2117L76.9809 91.4917C76.3709 91.5817 75.7809 91.3617 75.5909 90.9617L74.5909 88.8017C74.5109 88.6217 74.5109 88.4217 74.6109 88.2517C74.7509 87.9917 75.0509 87.8117 75.4409 87.7517L77.1409 87.4917C77.1009 87.0817 77.1009 86.6617 77.1409 86.2517L75.4409 85.9917C75.0509 85.9317 74.7509 85.7517 74.6109 85.4917C74.5209 85.3117 74.5109 85.1217 74.5909 84.9417L75.5909 82.7817C75.7709 82.3817 76.3709 82.1617 76.9809 82.2517L78.8009 82.5317C79.1309 82.1417 79.5009 81.7617 79.9209 81.3917L78.8409 80.7717C78.5809 80.6217 78.4309 80.3917 78.4309 80.1517C78.4309 79.9117 78.5809 79.6817 78.8409 79.5317L81.5809 77.9517C82.0209 77.7017 82.6809 77.7017 83.1109 77.9517L84.4409 78.7217C85.1409 78.4417 85.8709 78.1917 86.6209 77.9817L86.2409 77.1617C86.1609 76.9817 86.1609 76.7817 86.2609 76.6117C86.4009 76.3617 86.7009 76.1717 87.0909 76.1117L90.8309 75.5317C91.4409 75.4417 92.0409 75.6617 92.2209 76.0617L92.6709 77.0317C93.5609 76.9917 94.4509 76.9917 95.3409 77.0317L95.7909 76.0617C95.9709 75.6617 96.5709 75.4417 97.1809 75.5317L100.921 76.1117C101.311 76.1717 101.611 76.3517 101.751 76.6117C101.841 76.7917 101.851 76.9817 101.771 77.1617L101.391 77.9817C102.141 78.1917 102.871 78.4417 103.571 78.7217L104.901 77.9517C105.341 77.7017 106.001 77.7017 106.431 77.9517L109.171 79.5317C109.431 79.6817 109.581 79.9117 109.581 80.1517C109.581 80.3917 109.431 80.6217 109.171 80.7717L108.091 81.3917C108.511 81.7617 108.891 82.1417 109.211 82.5317L111.031 82.2517C111.641 82.1617 112.241 82.3817 112.421 82.7817L113.421 84.9417C113.501 85.1217 113.501 85.3217 113.401 85.4917C113.261 85.7417 112.961 85.9317 112.571 85.9917L110.871 86.2517C110.911 86.6617 110.911 87.0817 110.871 87.4917L112.571 87.7517C112.961 87.8117 113.261 87.9917 113.401 88.2517C113.491 88.4317 113.501 88.6217 113.421 88.8017L112.421 90.9617C112.241 91.3617 111.641 91.5817 111.031 91.4917L109.211 91.2117C108.881 91.6017 108.511 91.9817 108.091 92.3517L109.171 92.9717C109.431 93.1217 109.581 93.3517 109.581 93.5917C109.581 93.8417 109.431 94.0617 109.171 94.2117L106.431 95.7917C105.991 96.0417 105.331 96.0417 104.901 95.7917L103.571 95.0217C102.871 95.3017 102.141 95.5517 101.391 95.7617L101.771 96.5817C101.851 96.7617 101.851 96.9617 101.751 97.1317C101.611 97.3917 101.311 97.5717 100.921 97.6317L97.1809 98.2117C96.5709 98.3017 95.9809 98.0817 95.7909 97.6817L95.3409 96.7117C94.4509 96.7517 93.5609 96.7517 92.6709 96.7117L92.2209 97.6817C92.0609 98.0217 91.6109 98.2317 91.1109 98.2317L91.1009 98.2417ZM84.3909 94.3417L84.5309 94.4017C85.3609 94.7417 86.2309 95.0317 87.1409 95.2717L87.5009 95.3717L86.8109 96.8617C86.8109 96.8617 86.9309 96.9917 87.1909 97.0317L90.9309 97.6117C91.3009 97.6717 91.6109 97.5317 91.6609 97.4317L92.2909 96.0817H92.5009C93.5009 96.1417 94.5209 96.1417 95.5209 96.0917H95.7309L96.3609 97.4317C96.4009 97.5217 96.7109 97.6617 97.0909 97.6117L100.831 97.0317C101.091 96.9917 101.201 96.8817 101.211 96.8517L100.521 95.3717L100.881 95.2717C101.781 95.0317 102.661 94.7417 103.491 94.4017L103.631 94.3417L105.231 95.2617C105.471 95.4017 105.901 95.4017 106.141 95.2617L108.881 93.6817C108.951 93.6417 108.981 93.6017 108.981 93.5917C108.981 93.5917 108.951 93.5517 108.881 93.5117L107.021 92.4417L107.371 92.1517C107.951 91.6817 108.451 91.1817 108.861 90.6717L108.971 90.5317L111.151 90.8717C111.521 90.9317 111.831 90.7917 111.881 90.6917L112.881 88.5317C112.881 88.5317 112.761 88.4017 112.501 88.3617L110.191 88.0017L110.241 87.6917C110.331 87.1417 110.331 86.5817 110.241 86.0217L110.191 85.7117L112.501 85.3517C112.761 85.3117 112.871 85.2017 112.881 85.1717L111.881 83.0217C111.841 82.9317 111.531 82.7917 111.151 82.8417L108.971 83.1817L108.861 83.0417C108.451 82.5317 107.951 82.0317 107.371 81.5617L107.021 81.2717L108.881 80.2017C108.951 80.1617 108.971 80.1217 108.981 80.1117C108.981 80.1117 108.951 80.0717 108.881 80.0317L106.141 78.4517C105.901 78.3117 105.471 78.3117 105.231 78.4517L103.631 79.3717L103.491 79.3117C102.661 78.9717 101.781 78.6817 100.881 78.4417L100.521 78.3417L101.211 76.8517C101.211 76.8517 101.091 76.7217 100.831 76.6817L97.0909 76.1017C96.7209 76.0417 96.4109 76.1817 96.3609 76.2817L95.7309 77.6317H95.5209C94.5209 77.5717 93.5009 77.5717 92.5009 77.6217H92.2909L91.6609 76.2817C91.6209 76.1917 91.3109 76.0517 90.9309 76.1017L87.1909 76.6817C86.9309 76.7217 86.8209 76.8317 86.8109 76.8617L87.5009 78.3417L87.1409 78.4417C86.2409 78.6817 85.3609 78.9717 84.5309 79.3117L84.3909 79.3717L82.7909 78.4517C82.5509 78.3117 82.1209 78.3117 81.8809 78.4517L79.1409 80.0317C79.0709 80.0717 79.0409 80.1117 79.0409 80.1217C79.0409 80.1217 79.0709 80.1617 79.1409 80.2017L81.0009 81.2717L80.6509 81.5617C80.0709 82.0317 79.5709 82.5317 79.1609 83.0417L79.0509 83.1817L76.8709 82.8417C76.5009 82.7817 76.1909 82.9217 76.1409 83.0217L75.1409 85.1817C75.1409 85.1817 75.2609 85.3117 75.5209 85.3517L77.8309 85.7117L77.7809 86.0217C77.6909 86.5717 77.6909 87.1317 77.7809 87.6917L77.8309 88.0017L75.5209 88.3617C75.2609 88.4017 75.1509 88.5117 75.1409 88.5417L76.1409 90.6917C76.1809 90.7817 76.5009 90.9217 76.8709 90.8717L79.0509 90.5317L79.1609 90.6717C79.5709 91.1817 80.0709 91.6817 80.6509 92.1517L81.0009 92.4417L79.1409 93.5117C79.0709 93.5517 79.0409 93.5917 79.0409 93.6017C79.0409 93.6017 79.0709 93.6417 79.1409 93.6817L81.8809 95.2617C82.1209 95.4017 82.5509 95.4017 82.7909 95.2617L84.3909 94.3417Z" fill="#150035"/>
<path id="Vector_48" d="M97.6994 84.7209C99.7494 85.9009 99.7494 87.8209 97.6994 89.0009C95.6494 90.1809 92.3395 90.1809 90.2895 89.0009C88.2395 87.8209 88.2395 85.9009 90.2895 84.7209C92.3395 83.5409 95.6494 83.5409 97.6994 84.7209Z" fill="#FBB937"/>
<path id="Vector_49" d="M93.9992 90.1898C92.5992 90.1898 91.1992 89.8798 90.1392 89.2698C89.0492 88.6398 88.4492 87.7898 88.4492 86.8598C88.4492 85.9298 89.0492 85.0798 90.1392 84.4498C92.2692 83.2198 95.7292 83.2198 97.8592 84.4498C98.9492 85.0798 99.5492 85.9298 99.5492 86.8598C99.5492 87.7898 98.9492 88.6398 97.8592 89.2698C96.7992 89.8798 95.3992 90.1898 93.9992 90.1898ZM93.9992 84.1398C92.7192 84.1398 91.4292 84.4198 90.4492 84.9898C89.5592 85.4998 89.0692 86.1698 89.0692 86.8598C89.0692 87.5498 89.5592 88.2099 90.4492 88.7299C92.4092 89.8599 95.5892 89.8599 97.5392 88.7299C98.4292 88.2199 98.9192 87.5498 98.9192 86.8598C98.9192 86.1698 98.4292 85.5098 97.5392 84.9898C96.5592 84.4298 95.2792 84.1398 93.9892 84.1398H93.9992Z" fill="#150035"/>
<path id="Vector_50" d="M93.9992 83.8398C92.6592 83.8398 91.3192 84.1399 90.2992 84.7299C88.2492 85.9099 88.2492 87.8298 90.2992 89.0098C91.2392 89.5498 92.4592 89.8398 93.6892 89.8898H93.9992V83.8498V83.8398Z" fill="#150035"/>
<path id="Vector_51" d="M94.3094 90.2012H93.6795C92.3395 90.1512 91.0794 89.8313 90.1294 89.2812C89.0394 88.6512 88.4395 87.8013 88.4395 86.8713C88.4395 85.9413 89.0394 85.0913 90.1294 84.4613C91.1694 83.8613 92.5394 83.5312 93.9894 83.5312H94.2995V90.1913L94.3094 90.2012ZM93.6895 84.1712C92.4595 84.2112 91.3194 84.5113 90.4594 85.0113C89.5694 85.5213 89.0795 86.1912 89.0795 86.8812C89.0795 87.5712 89.5694 88.2313 90.4594 88.7513C91.3194 89.2413 92.4695 89.5412 93.6895 89.5912V84.1813V84.1712Z" fill="#150035"/>
<path id="Vector_52" d="M90.2891 88.9788C90.2891 88.9788 90.2891 88.9788 90.2891 88.9988C92.3491 90.1788 95.6991 90.1688 97.7291 88.9588C97.7291 88.9488 97.7291 88.9588 97.7291 88.9388C95.6691 87.7588 92.3191 87.7688 90.2891 88.9788Z" fill="#FBB937"/>
<path id="Vector_53" d="M93.9707 90.1894C92.5807 90.1894 91.2007 89.8894 90.1307 89.2794L89.9707 89.1894V88.8294L90.1207 88.7194C92.2407 87.4594 95.7207 87.4394 97.8807 88.6794L98.0407 88.7693V89.1294L97.8907 89.2394C96.8207 89.8794 95.4007 90.1993 93.9707 90.1993V90.1894ZM90.9507 88.9894C92.7607 89.7794 95.2807 89.7694 97.0607 88.9594C95.2507 88.1694 92.7307 88.1794 90.9507 88.9894Z" fill="#150035"/>
<path id="Vector_54" d="M92.3192 84.3711H91.6992V87.9011H92.3192V84.3711Z" fill="#FBB937"/>
<path id="Vector_55" d="M86.2427 97.0364L86.2285 101.816L86.8485 101.818L86.8627 97.0383L86.2427 97.0364Z" fill="#150035"/>
<path id="Vector_56" d="M96.8192 98.3984H96.1992V102.638H96.8192V98.3984Z" fill="#FBB937"/>
<path id="Vector_57" d="M105.751 96.1992H105.131V100.429H105.751V96.1992Z" fill="#FBB937"/>
<path id="Vector_58" d="M111.77 91.7109H111.15V95.9509H111.77V91.7109Z" fill="#FBB937"/>
<path id="Vector_59" d="M121.849 77.781L121.809 73.421C121.809 73.421 121.779 73.331 121.729 73.321L119.629 72.801C119.629 72.801 119.609 72.801 119.599 72.791L113.199 69.181C113.199 69.181 113.149 69.131 113.149 69.091V65.351C113.149 65.271 113.069 65.221 112.999 65.251L110.809 66.131C110.809 66.131 110.789 66.131 110.779 66.131L98.4491 67.101L87.8791 68.501C87.8291 68.501 87.7891 68.551 87.7891 68.601L87.7191 73.881C87.7191 73.941 87.6591 73.991 87.5991 73.981L85.4091 73.751C85.3491 73.751 85.2891 73.791 85.2891 73.861V78.611C85.2891 78.611 85.2891 78.641 85.2991 78.651C85.2791 78.781 85.2991 78.921 85.3591 79.061L87.1691 82.961C87.4691 83.611 88.6391 84.001 89.7691 83.831L91.8291 83.511C92.2191 83.811 92.6491 84.101 93.1291 84.371C93.4091 84.531 93.6991 84.681 93.9991 84.831V86.771C94.1091 87.251 94.6991 87.681 95.5591 87.811L102.319 88.861C103.449 89.041 104.609 88.651 104.919 87.991L105.469 86.801C106.769 86.701 108.049 86.511 109.269 86.211L110.779 87.081C111.609 87.561 112.949 87.561 113.779 87.081L118.729 84.221C119.199 83.951 119.389 83.581 119.329 83.231C119.329 83.221 119.349 83.201 119.349 83.191V79.261L120.299 79.111C121.339 78.951 121.979 78.371 121.849 77.781Z" fill="#FBB937"/>
<path id="Vector_60" d="M102.88 89.2198C102.68 89.2198 102.48 89.2098 102.28 89.1698L95.52 88.1198C94.55 87.9698 93.83 87.4598 93.71 86.8298V86.7698L93.7 85.0298C93.43 84.8898 93.2 84.7698 92.99 84.6498C92.57 84.4098 92.16 84.1398 91.77 83.8498L89.84 84.1498C88.56 84.3498 87.27 83.8898 86.91 83.1098L85.1 79.2098C85.03 79.0498 84.99 78.8798 85.01 78.6898V78.6298L85 73.8798C85 73.7598 85.05 73.6498 85.14 73.5698C85.23 73.4898 85.35 73.4498 85.46 73.4698L87.43 73.6798L87.5 68.6298C87.5 68.4198 87.66 68.2498 87.86 68.2198L98.43 66.8198L110.75 65.8498L112.91 64.9798C113.04 64.9298 113.19 64.9398 113.3 65.0198C113.42 65.0998 113.48 65.2298 113.48 65.3698V68.9898L119.76 72.5298L121.83 73.0498C122.02 73.0998 122.15 73.2598 122.15 73.4598L122.19 77.7898C122.24 78.0698 122.18 78.3498 122 78.5998C121.7 79.0298 121.11 79.3498 120.38 79.4598L119.69 79.5698V83.3098V83.3298C119.73 83.7998 119.45 84.2298 118.92 84.5398L113.97 87.3998C113.04 87.9398 111.59 87.9398 110.66 87.3998L109.26 86.5898C108.13 86.8598 106.93 87.0398 105.71 87.1398L105.23 88.1598C104.92 88.8198 103.96 89.2498 102.9 89.2498L102.88 89.2198ZM94.32 86.7398C94.4 87.0298 94.83 87.3898 95.61 87.5098L102.37 88.5598C103.44 88.7298 104.42 88.3298 104.64 87.8698L105.27 86.5098H105.45C106.75 86.3998 108.01 86.2098 109.2 85.9198L109.32 85.8898L110.93 86.8198C111.66 87.2398 112.89 87.2398 113.62 86.8198L118.57 83.9598C118.9 83.7698 119.06 83.5298 119.02 83.2998L119 83.1998L119.03 83.1398V78.9998L120.25 78.8098C120.81 78.7198 121.26 78.4998 121.45 78.2098C121.53 78.0898 121.56 77.9698 121.54 77.8498V77.7898L121.5 73.5898L119.45 73.0598L113.05 69.4598C112.92 69.3798 112.84 69.2498 112.84 69.0998V65.6698L110.82 66.4698L98.49 67.4398L88.11 68.8098L88.04 73.9098C88.04 74.0298 87.99 74.1398 87.9 74.2198C87.81 74.2998 87.69 74.3298 87.58 74.3198L85.62 74.1098L85.64 78.6198V78.7098C85.62 78.7998 85.64 78.8798 85.67 78.9498L87.48 82.8498C87.69 83.3098 88.68 83.6998 89.75 83.5398L91.94 83.1998L92.05 83.2798C92.46 83.5898 92.87 83.8598 93.31 84.1198C93.55 84.2598 93.82 84.3998 94.16 84.5698L94.33 84.6598V86.7598L94.32 86.7398Z" fill="#150035"/>
<path id="Vector_61" d="M88.0508 83.6691C88.5408 83.8591 89.1608 83.9391 89.7808 83.8391L91.8408 83.5191C91.8408 83.5191 91.8408 83.5191 91.8508 83.5191V75.2891H88.0508V83.6591V83.6691Z" fill="#150035"/>
<path id="Vector_62" d="M89.2305 84.1883C88.7805 84.1883 88.3305 84.1083 87.9305 83.9583L87.7305 83.8783V74.9883H92.1605V84.1583L91.7505 83.8583L89.8205 84.1583C89.6205 84.1883 89.4305 84.2083 89.2305 84.2083V84.1883ZM88.3605 83.4383C88.7805 83.5683 89.2705 83.5983 89.7305 83.5283L91.5405 83.2483V75.6083H88.3605V83.4383Z" fill="#150035"/>
<path id="Vector_63" d="M104.931 88L105.481 86.81C106.781 86.71 108.061 86.52 109.281 86.22L110.791 87.09C111.621 87.57 112.961 87.57 113.791 87.09L118.741 84.23C119.211 83.96 119.401 83.59 119.341 83.24C119.341 83.23 119.361 83.21 119.361 83.2V79.27L120.311 79.12C121.351 78.96 121.991 78.38 121.861 77.79L121.821 73.43C121.821 73.43 121.791 73.34 121.741 73.33L119.641 72.81C119.641 72.81 119.621 72.81 119.611 72.8L119.081 72.5C117.351 73.34 115.451 74.27 115.411 74.34C115.331 74.46 109.951 79.08 109.951 79.08L102.311 81.04V84.06L102.331 88.88C103.461 89.06 104.621 88.67 104.931 88.01V88Z" fill="#150035"/>
<path id="Vector_64" d="M102.88 89.2206C102.68 89.2206 102.48 89.2106 102.28 89.1706L102.02 89.1306L101.99 80.7806L109.8 78.7806C111.88 76.9906 114.99 74.3006 115.17 74.1206C115.21 74.0506 115.24 74.0006 118.94 72.2106L119.09 72.1406L119.74 72.5106L121.81 73.0306C122 73.0806 122.13 73.2406 122.13 73.4406L122.17 77.7706C122.22 78.0506 122.16 78.3306 121.98 78.5806C121.68 79.0106 121.09 79.3306 120.36 79.4406L119.67 79.5506V83.2906V83.3106C119.71 83.7806 119.43 84.2106 118.9 84.5206L113.95 87.3806C113.02 87.9206 111.57 87.9206 110.64 87.3806L109.24 86.5706C108.11 86.8406 106.91 87.0206 105.69 87.1206L105.21 88.1406C104.9 88.8006 103.94 89.2306 102.88 89.2306V89.2206ZM102.64 88.5906C103.6 88.6606 104.45 88.2906 104.64 87.8706L105.27 86.5106H105.45C106.75 86.4006 108.01 86.2106 109.2 85.9206L109.32 85.8906L110.93 86.8206C111.66 87.2406 112.89 87.2406 113.62 86.8206L118.57 83.9606C118.9 83.7706 119.06 83.5306 119.02 83.3006L119 83.2006L119.03 83.1406V79.0006L120.25 78.8106C120.81 78.7206 121.26 78.5006 121.45 78.2106C121.53 78.0906 121.56 77.9706 121.54 77.8506V77.7906L121.5 73.5906L119.45 73.0606L119.06 72.8406C116.18 74.2406 115.67 74.5106 115.59 74.5606C115.39 74.7606 114.49 75.5606 110.14 79.3006L110.08 79.3506L102.6 81.2706L102.62 88.5906H102.64Z" fill="#150035"/>
<path id="Vector_65" d="M117.369 68.0314L115.309 68.3514C114.919 68.0514 114.489 67.7614 114.009 67.4914C113.539 67.2214 113.039 66.9714 112.519 66.7414L113.069 65.5514C113.369 64.9014 112.699 64.2314 111.569 64.0514L104.809 63.0014C103.679 62.8314 102.519 63.2114 102.209 63.8714L101.659 65.0614C100.359 65.1614 99.0792 65.3514 97.8592 65.6514L96.3492 64.7814C95.5192 64.3014 94.1792 64.3014 93.3492 64.7814L88.3992 67.6414C87.5692 68.1214 87.5692 68.8914 88.3992 69.3714L89.9092 70.2414C89.3992 70.9514 89.0592 71.6914 88.8992 72.4314L86.8392 72.7514C85.7092 72.9314 85.0392 73.6014 85.3392 74.2514L87.1492 78.1514C87.4492 78.8014 88.6192 79.1914 89.7492 79.0214L91.8092 78.7014C92.1992 79.0014 92.6292 79.2914 93.1092 79.5614C93.5792 79.8314 94.0792 80.0814 94.5992 80.3114L94.0492 81.5014C93.7492 82.1514 94.4192 82.8214 95.5492 83.0014L102.309 84.0514C103.439 84.2314 104.599 83.8414 104.909 83.1814L105.459 81.9914C106.759 81.8914 108.039 81.7014 109.259 81.4014L110.769 82.2714C111.599 82.7514 112.939 82.7514 113.769 82.2714L118.719 79.4114C119.549 78.9314 119.549 78.1614 118.719 77.6814L117.209 76.8114C117.719 76.1014 118.059 75.3614 118.219 74.6214L120.279 74.3014C121.409 74.1314 122.079 73.4514 121.779 72.8014L119.969 68.9014C119.669 68.2514 118.499 67.8614 117.369 68.0314Z" fill="white"/>
<path id="Vector_66" d="M102.861 84.3991C102.661 84.3991 102.461 84.3891 102.261 84.3491L95.5007 83.2991C94.6907 83.1791 94.0607 82.8091 93.7907 82.3191C93.6307 82.0091 93.6207 81.6691 93.7607 81.3591L94.1807 80.4591C93.7407 80.2591 93.3307 80.0391 92.9607 79.8291C92.5407 79.5891 92.1307 79.3191 91.7407 79.0291L89.8107 79.3291C88.5307 79.5291 87.2407 79.0691 86.8807 78.2891L85.0707 74.3891C84.9307 74.0791 84.9407 73.7391 85.1007 73.4291C85.3607 72.9391 86.0007 72.5691 86.8107 72.4491L88.6707 72.1591C88.8307 71.5391 89.1107 70.9291 89.4907 70.3391L88.2807 69.6391C87.7807 69.3491 87.5007 68.9491 87.5007 68.4991C87.5007 68.0491 87.7807 67.6491 88.2807 67.3591L93.2307 64.4991C94.1607 63.9591 95.6107 63.9591 96.5407 64.4991L97.9407 65.3091C99.0707 65.0391 100.271 64.8591 101.491 64.7591L101.971 63.7391C102.331 62.9591 103.621 62.4991 104.901 62.6991L111.661 63.7491C112.461 63.8691 113.101 64.2391 113.371 64.7291C113.531 65.0391 113.541 65.3691 113.401 65.6891L112.981 66.5891C113.421 66.7891 113.831 66.9991 114.201 67.2191C114.621 67.4591 115.031 67.7291 115.421 68.0191L117.351 67.7191C118.631 67.5191 119.921 67.9791 120.281 68.7591L122.091 72.6591C122.231 72.9691 122.221 73.3091 122.061 73.6191C121.801 74.1091 121.161 74.4791 120.351 74.5991L118.491 74.8891C118.331 75.5091 118.051 76.1191 117.671 76.7091L118.881 77.4091C119.381 77.6991 119.661 78.0991 119.661 78.5491C119.661 78.9991 119.381 79.3991 118.881 79.6891L113.931 82.5491C113.001 83.0891 111.551 83.0891 110.621 82.5491L109.221 81.7391C108.091 82.0091 106.891 82.1891 105.671 82.2891L105.191 83.3091C104.881 83.9691 103.921 84.3991 102.861 84.3991ZM91.9007 78.3691L92.0107 78.4491C92.4107 78.7491 92.8307 79.0291 93.2707 79.2891C93.7107 79.5391 94.2007 79.7891 94.7207 80.0191L95.0107 80.1491L94.3207 81.6291C94.2607 81.7591 94.2607 81.8991 94.3307 82.0291C94.4607 82.2791 94.8607 82.5791 95.5807 82.6891L102.341 83.7391C103.411 83.9091 104.391 83.5091 104.611 83.0491L105.241 81.6891H105.421C106.711 81.5791 107.981 81.3891 109.171 81.0991L109.291 81.0691L110.901 81.9991C111.631 82.4191 112.861 82.4191 113.591 81.9991L118.541 79.1391C118.841 78.9691 119.001 78.7491 119.001 78.5391C119.001 78.3291 118.831 78.1191 118.541 77.9391L116.731 76.8991L116.931 76.6191C117.411 75.9591 117.731 75.2591 117.891 74.5391L117.941 74.3291L120.211 73.9791C120.931 73.8691 121.331 73.5691 121.461 73.3191C121.531 73.1891 121.541 73.0591 121.471 72.9191L119.661 69.0191C119.451 68.5591 118.461 68.1691 117.391 68.3291L115.201 68.6691L115.091 68.5891C114.691 68.2891 114.261 68.0091 113.831 67.7491C113.391 67.4991 112.901 67.2491 112.381 67.0191L112.091 66.8891L112.781 65.4091C112.841 65.2791 112.841 65.1491 112.771 65.0091C112.641 64.7591 112.241 64.4591 111.521 64.3491L104.761 63.2991C103.691 63.1291 102.711 63.5291 102.491 63.9891L101.861 65.3491H101.681C100.391 65.4591 99.1207 65.6491 97.9307 65.9391L97.8107 65.9691L96.2007 65.0391C95.4707 64.6191 94.2407 64.6191 93.5107 65.0391L88.5607 67.8991C88.2607 68.0691 88.0907 68.2891 88.0907 68.4991C88.0907 68.7091 88.2607 68.9191 88.5607 69.0991L90.3707 70.1391L90.1707 70.4191C89.6907 71.0791 89.3707 71.7791 89.2107 72.4991L89.1607 72.7091L86.8907 73.0591C86.1707 73.1691 85.7707 73.4691 85.6407 73.7191C85.5707 73.8491 85.5607 73.9791 85.6307 74.1191L87.4407 78.0191C87.6507 78.4791 88.6407 78.8691 89.7107 78.7091L91.9007 78.3691Z" fill="#150035"/>
<path id="Vector_67" d="M107.95 70.9914C110.37 72.3914 110.37 74.6514 107.95 76.0514C105.53 77.4514 101.6 77.4514 99.1802 76.0514C96.7602 74.6514 96.7602 72.3914 99.1802 70.9914C101.6 69.5914 105.53 69.5914 107.95 70.9914Z" fill="#FBB937"/>
<path id="Vector_68" d="M103.561 77.4081C101.921 77.4081 100.271 77.0481 99.0208 76.3281C97.7508 75.5981 97.0508 74.5981 97.0508 73.5281C97.0508 72.4581 97.7508 71.4581 99.0208 70.7281C101.521 69.2781 105.601 69.2781 108.101 70.7281C109.371 71.4581 110.071 72.4581 110.071 73.5281C110.071 74.5981 109.371 75.5981 108.101 76.3281C106.851 77.0481 105.201 77.4081 103.561 77.4081ZM103.561 70.2481C102.031 70.2481 100.501 70.5881 99.3308 71.2581C98.2608 71.8781 97.6708 72.6781 97.6708 73.5181C97.6708 74.3581 98.2608 75.1581 99.3308 75.7781C101.661 77.1281 105.461 77.1281 107.791 75.7781C108.861 75.1581 109.451 74.3581 109.451 73.5181C109.451 72.6781 108.861 71.8781 107.791 71.2581C106.621 70.5881 105.091 70.2481 103.561 70.2481Z" fill="#150035"/>
<path id="Vector_69" d="M103.56 69.9492C101.97 69.9492 100.39 70.2992 99.1802 70.9992C96.7602 72.3992 96.7602 74.6592 99.1802 76.0592C100.3 76.6992 101.73 77.0492 103.19 77.0992H103.56V69.9492Z" fill="#150035"/>
<path id="Vector_70" d="M103.871 77.4106H103.191C101.611 77.3606 100.131 76.9706 99.0208 76.3306C97.7508 75.6006 97.0508 74.6006 97.0508 73.5306C97.0508 72.4606 97.7508 71.4606 99.0208 70.7306C100.241 70.0306 101.851 69.6406 103.561 69.6406H103.871V77.4106ZM103.251 70.2706C101.771 70.3106 100.391 70.6706 99.3308 71.2706C98.2608 71.8906 97.6708 72.6906 97.6708 73.5306C97.6708 74.3706 98.2608 75.1706 99.3308 75.7906C100.361 76.3806 101.731 76.7406 103.201 76.7906H103.251V70.2706Z" fill="#150035"/>
<path id="Vector_71" d="M99.1699 76.0317C99.1699 76.0317 99.1699 76.0417 99.1699 76.0617C101.61 77.4617 105.57 77.4417 107.98 76.0117C107.98 76.0017 107.98 76.0017 107.98 75.9817C105.54 74.5817 101.58 74.6017 99.1699 76.0317Z" fill="#FBB937"/>
<path id="Vector_72" d="M103.53 77.4006C101.9 77.4006 100.27 77.0406 99.0096 76.3306L98.8496 76.2406V75.8806L98.9996 75.7606C101.49 74.2806 105.59 74.2606 108.12 75.7106L108.28 75.8006V76.1606L108.13 76.2806C106.87 77.0306 105.2 77.4106 103.52 77.4106L103.53 77.4006ZM99.8196 76.0406C102.02 77.0506 105.16 77.0306 107.33 76.0006C105.13 74.9906 101.99 75.0006 99.8196 76.0406Z" fill="#150035"/>
<path id="Vector_73" d="M94.3192 82.0508H93.6992V86.7708H94.3192V82.0508Z" fill="#150035"/>
<path id="Vector_74" d="M101.511 70.5781H100.891V74.7581H101.511V70.5781Z" fill="#FBB937"/>
<path id="Vector_75" d="M105.899 82.4883H105.279V86.3383H105.899V82.4883Z" fill="#FBB937"/>
<path id="Vector_76" d="M112.831 83.1289H112.211V86.9789H112.831V83.1289Z" fill="#FBB937"/>
<path id="Vector_77" d="M119.751 74.75H119.131V78H119.751V74.75Z" fill="#FBB937"/>
<path id="Vector_78" d="M89.1897 53.8689L89.2097 50.0389H87.8597C86.9097 48.6489 85.4797 47.3489 83.5297 46.2189C75.9597 41.8489 63.6797 41.8489 56.1097 46.2189C54.1597 47.3389 52.7297 48.6489 51.7797 50.0389H50.4297L50.4497 53.8589C50.4497 54.0589 50.4497 54.7289 50.4497 54.7289L50.4897 54.8989C50.7297 57.5689 52.5797 60.0189 56.0997 62.0589C63.6697 66.4289 75.9497 66.4289 83.5197 62.0589C87.0497 60.0289 88.9097 57.3989 89.1497 54.7389C89.1497 54.7389 89.1897 54.0689 89.1797 53.8789L89.1897 53.8689Z" fill="#FBB937"/>
<path id="Vector_79" d="M69.8195 65.8209C64.7595 65.8209 59.7095 64.7109 55.8595 62.4909C52.2995 60.4409 50.2795 57.8409 50.0095 54.9809L49.9695 54.7409C49.9695 54.7409 49.9595 54.0509 49.9695 53.8409L49.9395 49.5409H51.5295C52.5495 48.1309 54.0095 46.8709 55.8695 45.7909C63.5695 41.3509 76.0895 41.3509 83.7895 45.7909C85.6495 46.8609 87.1095 48.1209 88.1295 49.5409H89.7195L89.6995 53.8609C89.6995 54.0809 89.6695 54.7609 89.6695 54.7609C89.3995 57.7209 87.3095 60.4609 83.7895 62.4909C79.9395 64.7109 74.8895 65.8209 69.8295 65.8209H69.8195ZM50.9595 54.6709L50.9995 54.8509C51.2395 57.4309 53.0395 59.7009 56.3695 61.6209C63.7895 65.9109 75.8695 65.9109 83.2895 61.6209C86.5195 59.7509 88.4395 57.2909 88.6695 54.6809C88.6695 54.6809 88.6995 54.0709 88.6895 53.8809V53.8609L88.7095 50.5309H87.5995L87.4495 50.3109C86.5095 48.9309 85.1095 47.7009 83.2895 46.6509C75.8695 42.3709 63.7895 42.3709 56.3695 46.6509C54.5395 47.7009 53.1395 48.9409 52.2095 50.3109L52.0595 50.5309H50.9395L50.9595 53.8509C50.9595 54.0309 50.9595 54.5009 50.9595 54.6609V54.6709Z" fill="#150035"/>
<path id="Vector_80" d="M87.8602 50.0391C86.9102 48.6491 85.4802 47.3491 83.5302 46.2191C80.3602 44.3891 76.3602 43.3391 72.2402 43.0391V65.2291C76.3702 64.9291 80.3602 63.8791 83.5302 62.0491C87.0602 60.0191 88.9202 57.3891 89.1602 54.7291C89.1602 54.7291 89.2002 54.0591 89.1902 53.8691L89.2102 50.0391H87.8602Z" fill="#150035"/>
<path id="Vector_81" d="M83.5291 42.1291C91.0991 46.4991 91.0991 53.5891 83.5291 57.9591C75.9591 62.3291 63.6791 62.3291 56.1091 57.9591C48.5391 53.5891 48.5391 46.4991 56.1091 42.1291C63.6791 37.7591 75.9591 37.7591 83.5291 42.1291Z" fill="white"/>
<path id="Vector_82" d="M69.8197 61.7194C64.7597 61.7194 59.7097 60.6094 55.8597 58.3894C52.0397 56.1794 49.9297 53.2194 49.9297 50.0394C49.9297 46.8594 52.0397 43.8994 55.8597 41.6894C63.5597 37.2494 76.0797 37.2494 83.7797 41.6894C87.5997 43.8994 89.7097 46.8594 89.7097 50.0394C89.7097 53.2194 87.5997 56.1794 83.7797 58.3894C79.9297 60.6094 74.8797 61.7194 69.8197 61.7194ZM69.8197 39.3394C64.9497 39.3394 60.0697 40.4094 56.3597 42.5494C52.8597 44.5694 50.9297 47.2294 50.9297 50.0294C50.9297 52.8294 52.8597 55.4894 56.3597 57.5094C63.7797 61.7994 75.8597 61.7994 83.2797 57.5094C86.7797 55.4894 88.7097 52.8294 88.7097 50.0294C88.7097 47.2294 86.7797 44.5694 83.2797 42.5494C79.5697 40.4094 74.6897 39.3394 69.8197 39.3394Z" fill="#150035"/>
<path id="Vector_83" d="M54.7705 56.8398H54.0605V60.9498H54.7705V56.8398Z" fill="#150035"/>
<path id="Vector_84" d="M68.7705 61.2383H68.0605V65.3483H68.7705V61.2383Z" fill="#150035"/>
<path id="Vector_85" d="M84.1198 57.9805H83.7598V61.5805H84.1198V57.9805Z" fill="#FBB937"/>
<path id="Vector_86" d="M86.5102 55.9492H86.1602V59.5492H86.5102V55.9492Z" fill="#FBB937"/>
<path id="Vector_87" d="M79.9 44.22C85.47 47.44 85.47 52.65 79.9 55.86C74.33 59.08 65.3 59.08 59.74 55.86C54.17 52.65 54.17 47.43 59.74 44.22C65.31 41.01 74.33 41.01 79.9 44.22Z" fill="#FBB937"/>
<path id="Vector_88" d="M69.8205 58.7617C66.0805 58.7617 62.3405 57.9417 59.4905 56.2917C56.6405 54.6417 55.0605 52.4217 55.0605 50.0417C55.0605 47.6617 56.6305 45.4417 59.4905 43.7917C65.1805 40.5017 74.4505 40.5017 80.1505 43.7917C83.0005 45.4417 84.5705 47.6617 84.5705 50.0417C84.5705 52.4317 83.0005 54.6417 80.1505 56.2917C77.3005 57.9417 73.5605 58.7617 69.8205 58.7617ZM69.8205 42.3117C66.2605 42.3117 62.7005 43.0917 59.9905 44.6617C57.4605 46.1217 56.0605 48.0417 56.0605 50.0517C56.0605 52.0617 57.4505 53.9817 59.9905 55.4417C65.4105 58.5717 74.2305 58.5717 79.6605 55.4417C82.1905 53.9817 83.5905 52.0617 83.5905 50.0517C83.5905 48.0417 82.2006 46.1217 79.6605 44.6617C76.9506 43.1017 73.3905 42.3117 69.8305 42.3117H69.8205Z" fill="#150035"/>
<path id="Vector_89" d="M79.8996 47.4817C74.3296 44.2717 65.2996 44.2717 59.7396 47.4817C57.6796 48.6717 56.3796 50.1317 55.8496 51.6717C56.3896 53.2117 57.6796 54.6717 59.7396 55.8617C65.3096 59.0817 74.3396 59.0817 79.8996 55.8617C81.9596 54.6717 83.2496 53.2117 83.7896 51.6717C83.2496 50.1317 81.9596 48.6717 79.8996 47.4817Z" fill="#FBB937"/>
<path id="Vector_90" d="M69.8203 58.7595C66.0803 58.7595 62.3403 57.9395 59.4903 56.2895C57.3903 55.0795 55.9703 53.5395 55.3803 51.8295L55.3203 51.6695L55.3803 51.5095C55.9803 49.7995 57.4003 48.2595 59.4903 47.0495C65.1803 43.7595 74.4503 43.7595 80.1503 47.0495C82.2503 48.2595 83.6703 49.7995 84.2603 51.5095L84.3203 51.6695L84.2603 51.8295C83.6703 53.5395 82.2403 55.0795 80.1503 56.2895C77.3003 57.9395 73.5603 58.7595 69.8203 58.7595ZM56.3803 51.6695C56.9303 53.0795 58.1703 54.3795 59.9903 55.4295C65.4103 58.5595 74.2403 58.5595 79.6603 55.4295C81.4703 54.3795 82.7203 53.0795 83.2703 51.6695C82.7203 50.2595 81.4803 48.9595 79.6603 47.9095C74.2403 44.7795 65.4203 44.7795 59.9903 47.9095C58.1703 48.9595 56.9303 50.2595 56.3803 51.6695Z" fill="#150035"/>
<path id="Vector_91" d="M73.3409 42.0117H72.6309V45.2717H73.3409V42.0117Z" fill="#150035"/>
<path id="Vector_92" d="M76.4307 42.9492H75.7207V46.2092H76.4307V42.9492Z" fill="#150035"/>
<path id="Vector_93" d="M67.1305 42.0117V45.0717L62.5805 46.2117L57.5205 49.1517L55.8505 51.0917L55.5605 49.0917L57.5205 45.8817L60.2005 43.9717L63.6305 42.6317L67.1305 42.0117Z" fill="#150035"/>
<path id="Vector_94" d="M59.3196 66.1391C57.0196 65.3691 54.9296 64.3591 53.0996 63.1291L53.4996 62.5391C55.2696 63.7291 57.3096 64.7191 59.5496 65.4591L59.3196 66.1291V66.1391Z" fill="#150035"/>
<path id="Vector_95" d="M52.2196 62.2986C49.5996 60.1286 48.6396 58.2086 48.5996 58.1286L49.2396 57.8086C49.2396 57.8086 50.1896 59.6786 52.6796 61.7486L52.2296 62.2986H52.2196Z" fill="#150035"/>
<path id="Vector_96" d="M87.5392 42.5703C86.2992 41.5603 84.9292 40.6903 83.4492 39.9603L83.7592 39.3203C85.2892 40.0703 86.7092 40.9703 87.9892 42.0103L87.5392 42.5603V42.5703Z" fill="#150035"/>
<path id="Vector_97" d="M82.2794 39.4392C75.4394 36.5492 68.5294 37.5092 68.4594 37.5192L68.3594 36.8192C68.4294 36.8192 75.5294 35.8292 82.5594 38.7892L82.2794 39.4492V39.4392Z" fill="#150035"/>
<path id="Vector_98" d="M74.1903 54.1194C73.5503 54.6394 74.0803 55.3694 74.1903 55.4894C74.1903 55.4894 74.1903 55.4994 74.1703 55.4994C73.9503 55.4394 72.6903 55.1394 71.7903 55.4994C71.7803 55.4994 71.7603 55.4994 71.7703 55.4994C72.4103 54.9794 71.8703 54.2494 71.7703 54.1194C71.7703 54.1194 71.7703 54.1094 71.7903 54.1094C72.0103 54.1694 73.2803 54.4794 74.1803 54.1094C74.1903 54.1094 74.2103 54.1094 74.2003 54.1194H74.1903Z" fill="#150035"/>
<path id="Vector_99" d="M70.7391 52.1294C70.1091 52.6494 70.6291 53.3794 70.7391 53.5094C70.7391 53.5094 70.7391 53.5194 70.7191 53.5094C70.4991 53.4494 69.2391 53.1494 68.3391 53.5094C68.3291 53.5094 68.3091 53.5094 68.3191 53.4994C68.9491 52.9794 68.4191 52.2494 68.3191 52.1194C68.3191 52.1194 68.3191 52.1094 68.3391 52.1094C68.5591 52.1694 69.8291 52.4794 70.7291 52.1094C70.7391 52.1094 70.7591 52.1094 70.7491 52.1194L70.7391 52.1294Z" fill="#150035"/>
<path id="Vector_100" d="M77.6493 52.1211C77.0093 52.6411 77.5393 53.3711 77.6493 53.5011C77.6493 53.5011 77.6493 53.5111 77.6293 53.5111C77.4093 53.4511 76.1493 53.1511 75.2493 53.5111C75.2393 53.5111 75.2193 53.5111 75.2293 53.5111C75.8593 52.9911 75.3293 52.2611 75.2293 52.1311C75.2293 52.1311 75.2293 52.1211 75.2493 52.1211C75.4693 52.1811 76.7393 52.4911 77.6393 52.1211C77.6493 52.1211 77.6693 52.1211 77.6593 52.1311L77.6493 52.1211Z" fill="#150035"/>
<path id="Vector_101" d="M74.2001 50.1311C73.5601 50.6511 74.0901 51.3811 74.2001 51.5111C74.2001 51.5111 74.2001 51.5211 74.1801 51.5211C73.9601 51.4611 72.7001 51.1611 71.8001 51.5211C71.7901 51.5211 71.7701 51.5211 71.7801 51.5111C72.4101 50.9911 71.8801 50.2611 71.7801 50.1311C71.7801 50.1311 71.7801 50.1211 71.8001 50.1211C72.0201 50.1811 73.2901 50.4911 74.1901 50.1211C74.2001 50.1211 74.2201 50.1211 74.2101 50.1311H74.2001Z" fill="#150035"/>
<path id="Vector_102" d="M57.1419 48.8811L56.7871 49.4961L72.2488 58.4157L72.6036 57.8007L57.1419 48.8811Z" fill="#150035"/>
<path id="Vector_103" d="M69.8599 44.7546L69.5078 45.3711L83.0631 53.1123L83.4152 52.4958L69.8599 44.7546Z" fill="#150035"/>
<path id="Vector_104" d="M67.9903 49.7404C67.0103 48.2404 66.7703 45.2804 67.4703 43.1304C68.1703 40.9904 69.5303 40.4704 70.5103 41.9704C71.4903 43.4704 71.7303 46.4304 71.0303 48.5804C70.3303 50.7204 68.9703 51.2404 67.9903 49.7404Z" fill="#FBB937"/>
<path id="Vector_105" d="M69.2395 51.0696C68.8195 51.0696 68.1795 50.8896 67.5995 49.9996C66.5295 48.3696 66.2795 45.2896 67.0295 42.9996C67.4695 41.6396 68.2195 40.7896 69.0695 40.6796C69.4595 40.6296 70.2195 40.6996 70.8995 41.7396C71.9695 43.3696 72.2195 46.4496 71.4695 48.7396C71.0295 50.0996 70.2895 50.9496 69.4295 51.0596C69.3695 51.0596 69.3095 51.0696 69.2395 51.0696ZM69.2495 41.5896C69.2495 41.5896 69.1995 41.5896 69.1795 41.5896C68.8095 41.6396 68.2795 42.1096 67.8995 43.2796C67.2495 45.2696 67.4695 48.1096 68.3695 49.4896C68.5395 49.7596 68.8995 50.1996 69.3095 50.1396C69.6795 50.0896 70.2095 49.6196 70.5895 48.4496C71.2395 46.4596 71.0195 43.6196 70.1195 42.2396C69.9595 41.9896 69.6295 41.5896 69.2495 41.5896Z" fill="#150035"/>
<path id="Vector_106" d="M71.8304 48.2591C70.4004 49.0791 68.0904 49.0791 66.6604 48.2591C65.2304 47.4391 65.2304 46.0991 66.6604 45.2791C68.0904 44.4591 70.4004 44.4591 71.8304 45.2791C73.2604 46.0991 73.2604 47.4391 71.8304 48.2591Z" fill="#150035"/>
<path id="Vector_107" d="M73.1507 45.6819C70.9907 46.9219 67.5007 46.9219 65.3407 45.6819C63.1807 44.4319 63.1807 42.4219 65.3407 41.1719C67.5007 39.9219 70.9907 39.9219 73.1507 41.1719C75.3107 42.4119 75.3107 44.4319 73.1507 45.6819Z" fill="#FBB937"/>
<path id="Vector_108" d="M69.2498 47.0712C67.7498 47.0712 66.2498 46.7413 65.1098 46.0813C63.9198 45.3913 63.2598 44.4512 63.2598 43.4212C63.2598 42.3912 63.9198 41.4613 65.1098 40.7713C67.3898 39.4512 71.0998 39.4512 73.3798 40.7713C74.5698 41.4613 75.2298 42.4012 75.2298 43.4212C75.2298 44.4412 74.5698 45.3913 73.3798 46.0813C72.2398 46.7413 70.7398 47.0712 69.2398 47.0712H69.2498ZM69.2498 40.7013C67.9198 40.7013 66.5898 40.9913 65.5798 41.5813C64.6898 42.1013 64.1898 42.7512 64.1898 43.4312C64.1898 44.1112 64.6798 44.7713 65.5798 45.2913C67.6098 46.4613 70.8998 46.4613 72.9298 45.2913C73.8198 44.7713 74.3198 44.1212 74.3198 43.4412C74.3198 42.7612 73.8298 42.1012 72.9298 41.5912C71.9198 41.0112 70.5898 40.7112 69.2598 40.7112L69.2498 40.7013Z" fill="#150035"/>
<path id="Vector_109" d="M73.1507 43.9202C70.9907 45.1602 67.5007 45.1602 65.3407 43.9202C63.1807 42.6802 63.1807 40.6602 65.3407 39.4102C67.5007 38.1602 70.9907 38.1602 73.1507 39.4102C75.3107 40.6602 75.3107 42.6702 73.1507 43.9202Z" fill="#FBB937"/>
<path id="Vector_110" d="M69.2498 45.3095C67.7498 45.3095 66.2498 44.9795 65.1098 44.3195C63.9198 43.6295 63.2598 42.6895 63.2598 41.6595C63.2598 40.6295 63.9198 39.6895 65.1098 39.0095C67.3898 37.6895 71.0998 37.6895 73.3798 39.0095C74.5698 39.6995 75.2298 40.6395 75.2298 41.6595C75.2298 42.6895 74.5698 43.6295 73.3798 44.3195C72.2398 44.9795 70.7398 45.3095 69.2398 45.3095H69.2498ZM69.2498 38.9395C67.9198 38.9395 66.5898 39.2295 65.5798 39.8195C64.6898 40.3395 64.1898 40.9995 64.1898 41.6695C64.1898 42.3395 64.6798 43.0095 65.5798 43.5295C67.6098 44.6995 70.8998 44.6995 72.9298 43.5295C73.8198 43.0095 74.3198 42.3595 74.3198 41.6695C74.3198 40.9795 73.8298 40.3295 72.9298 39.8195C71.9198 39.2295 70.5898 38.9395 69.2598 38.9395H69.2498Z" fill="#150035"/>
<path id="Vector_111" d="M73.1507 42.1002C70.9907 43.3502 67.5007 43.3502 65.3407 42.1002C63.1807 40.8502 63.1807 38.8402 65.3407 37.5902C67.5007 36.3502 70.9907 36.3502 73.1507 37.5902C75.3107 38.8402 75.3107 40.8502 73.1507 42.1002Z" fill="#FBB937"/>
<path id="Vector_112" d="M69.2498 43.4914C67.7498 43.4914 66.2498 43.1614 65.1098 42.5014C63.9198 41.8114 63.2598 40.8714 63.2598 39.8414C63.2598 38.8114 63.9198 37.8714 65.1098 37.1814C67.3898 35.8614 71.0998 35.8614 73.3798 37.1814C74.5698 37.8714 75.2298 38.8114 75.2298 39.8414C75.2298 40.8614 74.5698 41.8114 73.3798 42.5014C72.2398 43.1614 70.7398 43.4914 69.2398 43.4914H69.2498ZM69.2498 37.1214C67.9198 37.1214 66.5898 37.4114 65.5798 38.0014C64.6898 38.5214 64.1898 39.1814 64.1898 39.8514C64.1898 40.5214 64.6798 41.1914 65.5798 41.7014C67.6098 42.8714 70.8998 42.8714 72.9298 41.7014C73.8198 41.1814 74.3198 40.5314 74.3198 39.8514C74.3198 39.1714 73.8298 38.5114 72.9298 38.0014C71.9198 37.4114 70.5898 37.1214 69.2598 37.1214H69.2498Z" fill="#150035"/>
<path id="Vector_113" d="M73.1507 40.19C70.9907 41.43 67.5007 41.43 65.3407 40.19C63.1807 38.94 63.1807 36.93 65.3407 35.68C67.5007 34.44 70.9907 34.44 73.1507 35.68C75.3107 36.93 75.3107 38.95 73.1507 40.19Z" fill="#FBB937"/>
<path id="Vector_114" d="M69.2498 41.5712C67.7498 41.5712 66.2498 41.2413 65.1098 40.5813C63.9198 39.8913 63.2598 38.9513 63.2598 37.9312C63.2598 36.9112 63.9198 35.9613 65.1098 35.2713C67.3898 33.9512 71.0998 33.9512 73.3798 35.2713C74.5698 35.9613 75.2298 36.9012 75.2298 37.9312C75.2298 38.9612 74.5698 39.9013 73.3798 40.5813C72.2398 41.2413 70.7398 41.5712 69.2398 41.5712H69.2498ZM69.2498 35.2013C67.9198 35.2013 66.5898 35.4913 65.5798 36.0813C64.6898 36.6013 64.1898 37.2612 64.1898 37.9412C64.1898 38.6212 64.6798 39.2813 65.5798 39.7913C67.6098 40.9613 70.8998 40.9613 72.9298 39.7913C73.8198 39.2713 74.3198 38.6112 74.3198 37.9412C74.3198 37.2712 73.8298 36.6013 72.9298 36.0813C71.9198 35.5013 70.5898 35.2013 69.2598 35.2013H69.2498Z" fill="#150035"/>
<path id="Vector_115" d="M83.8894 15.7416C83.8894 7.65156 77.3294 1.10156 69.2494 1.10156C61.1694 1.10156 54.6094 7.66156 54.6094 15.7416C54.6094 19.0016 55.6894 22.0116 57.4994 24.4416C57.4994 24.4416 61.6994 29.7316 63.7694 36.2716C63.8994 36.9716 64.4194 37.6516 65.3494 38.1916C67.5094 39.4416 70.9994 39.4416 73.1594 38.1916C74.0894 37.6516 74.5994 36.9716 74.7194 36.2716C76.7894 29.7316 81.0094 24.4416 81.0094 24.4416C82.8094 22.0016 83.8994 19.0016 83.8994 15.7416H83.8894Z" fill="#FFFDFD"/>
<path id="Vector_116" d="M69.2506 39.5789C67.7506 39.5789 66.2506 39.2489 65.1106 38.5889C64.0806 37.9989 63.4606 37.2189 63.3006 36.3489C61.2906 30.0189 57.1706 24.7789 57.1306 24.7289C55.1706 22.0889 54.1406 18.9889 54.1406 15.7389C54.1406 7.40891 60.9206 0.628906 69.2506 0.628906C77.5806 0.628906 84.3506 7.40891 84.3506 15.7389C84.3506 18.9889 83.3206 22.0889 81.3706 24.7189C81.3206 24.7789 77.1706 30.0289 75.1506 36.4089C75.0506 36.9689 74.6506 37.8589 73.3806 38.5989C72.2406 39.2589 70.7406 39.5889 69.2406 39.5889L69.2506 39.5789ZM69.2506 1.55891C61.4306 1.55891 55.0706 7.91891 55.0706 15.7389C55.0706 18.7889 56.0406 21.6989 57.8606 24.1689C57.8906 24.2089 62.1306 29.5889 64.2006 36.1289C64.3206 36.7689 64.8006 37.3489 65.5806 37.7889C67.6106 38.9589 70.9006 38.9589 72.9306 37.7889C73.7006 37.3489 74.1606 36.7889 74.2706 36.1789C76.3506 29.5789 80.6106 24.1989 80.6506 24.1489C82.4706 21.6989 83.4306 18.7789 83.4306 15.7389C83.4306 7.91891 77.0706 1.55891 69.2506 1.55891Z" fill="#150035"/>
<path id="Vector_117" d="M73.1507 38.2014C70.9907 39.4514 67.5007 39.4514 65.3407 38.2014C63.1807 36.9614 63.1807 34.9414 65.3407 33.6914C67.5007 32.4414 70.9907 32.4414 73.1507 33.6914C75.3107 34.9414 75.3107 36.9514 73.1507 38.2014Z" fill="#FBB937"/>
<path id="Vector_118" d="M69.2498 39.5808C67.7498 39.5808 66.2498 39.2508 65.1098 38.5908C63.9198 37.9008 63.2598 36.9608 63.2598 35.9408C63.2598 34.9208 63.9198 33.9708 65.1098 33.2908C67.3898 31.9708 71.0998 31.9708 73.3798 33.2908C74.5698 33.9808 75.2298 34.9208 75.2298 35.9408C75.2298 36.9608 74.5698 37.9108 73.3798 38.5908C72.2398 39.2508 70.7398 39.5808 69.2398 39.5808H69.2498ZM69.2498 33.2108C67.9198 33.2108 66.5898 33.5008 65.5798 34.0908C64.6898 34.6108 64.1898 35.2708 64.1898 35.9408C64.1898 36.6108 64.6798 37.2808 65.5798 37.7908C67.6098 38.9608 70.8998 38.9608 72.9298 37.7908C73.8198 37.2708 74.3198 36.6208 74.3198 35.9408C74.3198 35.2608 73.8298 34.6008 72.9298 34.0908C71.9198 33.5108 70.5898 33.2108 69.2598 33.2108H69.2498Z" fill="#150035"/>
<path id="Vector_119" d="M69.201 36.0795C68.541 36.0795 67.931 35.7995 67.491 35.2895C67.081 34.8095 66.881 34.2295 66.921 33.6495C67.031 31.9095 67.101 25.7595 63.281 19.4295C63.151 19.2095 63.171 18.9295 63.351 18.7395C63.521 18.5495 63.791 18.4995 64.021 18.6095L67.151 20.1295C67.221 20.1595 67.271 20.1495 67.301 20.1295C67.331 20.1195 67.381 20.0895 67.411 20.0195L68.941 16.3795C69.031 16.1595 69.281 16.0195 69.481 16.0195C69.711 16.0195 69.921 16.1595 70.011 16.3795C70.291 17.0595 71.051 18.9395 71.431 19.8895C71.461 19.9795 71.571 20.0295 71.671 19.9995L75.361 18.8395C75.611 18.7595 75.871 18.8495 76.021 19.0695C76.161 19.2795 76.151 19.5595 75.991 19.7495C74.821 21.2095 71.031 26.5195 71.471 33.6695C71.501 34.1295 71.391 34.5795 71.171 34.9595C70.791 35.5995 70.161 35.9995 69.421 36.0595C69.351 36.0595 69.281 36.0595 69.221 36.0595L69.201 36.0795ZM64.631 19.9395C68.021 26.1395 67.951 31.9995 67.841 33.7095C67.821 34.0495 67.931 34.3895 68.161 34.6595C68.471 35.0195 68.881 35.1895 69.321 35.1495C69.761 35.1095 70.131 34.8695 70.351 34.4995C70.481 34.2795 70.541 34.0095 70.531 33.7295C70.141 27.2895 73.011 22.2895 74.601 20.0395L71.931 20.8795C71.371 21.0495 70.781 20.7795 70.561 20.2295C70.281 19.5395 69.811 18.3595 69.461 17.5095L68.261 20.3795C68.141 20.6595 67.911 20.8895 67.621 20.9895C67.341 21.0995 67.011 21.0795 66.741 20.9495L64.631 19.9295V19.9395Z" fill="#150035"/>
<path id="Vector_120" d="M60.8295 38.5889C60.8295 38.5889 60.1095 35.6989 58.7695 32.7589L59.6095 32.3789C60.9895 35.4089 61.6995 38.2589 61.7295 38.3789L60.8295 38.5989V38.5889Z" fill="#150035"/>
<path id="Vector_121" d="M57.7591 30.7689C56.8891 29.2489 55.9791 28.0989 55.0391 27.3489L55.6191 26.6289C56.6491 27.4589 57.6391 28.6989 58.5691 30.3189L57.7691 30.7789L57.7591 30.7689Z" fill="#150035"/>
<path id="Vector_122" d="M85.8799 11.2183C84.0999 3.14828 78.2299 0.888281 78.1699 0.858281L78.4899 -0.0117188C78.7499 0.0882813 84.8799 2.42828 86.7799 11.0083L85.8799 11.2083V11.2183Z" fill="#150035"/>
<path id="Vector_123" d="M87.0404 17.9981L86.1504 17.7381C86.7304 15.7381 86.1504 13.0581 86.1504 13.0281L87.0504 12.8281C87.0804 12.9481 87.6904 15.7781 87.0504 17.9981H87.0404Z" fill="#150035"/>
</g>
<defs>
<clipPath id="clip0_1309_2596">
<rect width="128.83" height="103.35" fill="white"/>
</clipPath>
</defs>
</svg>
