<svg width="1200" height="167" viewBox="0 0 1200 167" fill="none" xmlns="http://www.w3.org/2000/svg">
<g clip-path="url(#clip0_1034_15726)">
<path d="M93.3956 101.801C93.3956 93.5736 93.5259 85.2371 93.7866 77.0528C94.0472 68.7924 94.1884 60.445 94.1884 52.2389C94.1884 50.8912 94.0689 49.5434 93.83 48.2392C93.5802 46.8588 93.1024 45.6197 92.4291 44.5546C91.734 43.4677 90.7892 42.5656 89.6272 41.8808C88.4435 41.1743 86.9774 40.8157 85.2724 40.8157C83.8606 40.8157 82.5574 41.1743 81.4062 41.8917C80.2768 42.5873 79.3646 43.5112 78.6695 44.6307C78.0179 45.6958 77.3663 47.1523 76.693 49.1087C76.0414 50.9781 75.4224 53.1845 74.8468 55.6409C74.2821 58.0756 73.7391 60.6515 73.2504 63.3035C72.7617 65.923 72.3056 68.5315 71.882 71.0531C71.4585 73.6073 71.0893 75.9442 70.7961 78.0093C70.568 79.6179 70.3834 80.9874 70.2313 82.1177C64.4321 81.7156 58.5352 81.596 52.7034 81.7373C46.9802 81.8786 41.2027 82.2156 35.5012 82.7481C35.6641 81.5634 35.8922 80.2048 36.1854 78.7157C36.598 76.618 37.0867 74.4008 37.6515 72.1183C38.2162 69.8141 38.8243 67.4555 39.4651 65.0317C40.1058 62.5971 40.6923 60.3254 41.2244 58.1951C41.7565 56.0866 42.1909 54.1627 42.5384 52.4672C42.8968 50.7173 43.0706 49.3478 43.0706 48.2718C43.0706 45.9349 42.1583 43.8481 40.3556 42.0982C38.5637 40.3483 36.4786 39.457 34.1437 39.457C31.8088 39.457 29.5174 40.3483 27.4757 42.1091C25.5318 43.772 23.7616 45.9241 22.1978 48.5109C20.6665 51.0434 19.2438 53.9019 17.9732 57.0213C16.7135 60.1298 15.6275 63.2383 14.7587 66.2816C13.8899 69.3141 13.1297 72.2052 12.5324 74.8681C11.9242 77.531 11.5007 79.7048 11.2618 81.3243C11.1206 82.3351 10.936 83.2264 10.7188 83.9655C10.5342 84.6285 10.2627 85.2045 9.926 85.661C9.6002 86.1066 9.13322 86.5088 8.54679 86.8457C7.93863 87.2044 7.11327 87.487 6.08157 87.6935C4.08334 88.1283 2.55209 89.0521 1.52039 90.4434C0.510418 91.802 0 93.4975 0 95.4648C0 97.106 0.336659 98.4864 1.02084 99.5624C1.68329 100.617 2.55209 101.475 3.60551 102.084C4.60462 102.671 5.73406 103.106 6.97209 103.399C7.87347 103.606 8.77484 103.812 9.67622 103.997L10.4581 108.714C10.8382 110.997 11.3378 113.486 11.946 116.116C12.5541 118.757 13.2926 121.42 14.1288 124.05C14.9759 126.724 16.0184 129.191 17.2239 131.398C18.4511 133.658 19.8629 135.517 21.4267 136.919C23.0991 138.419 25.0431 139.191 27.2042 139.191C29.626 139.191 31.7002 138.289 33.3835 136.517C35.0559 134.767 35.8922 132.658 35.8922 130.256C35.8922 128.8 35.5989 127.507 35.0342 126.398C34.589 125.55 34.2632 124.594 34.0568 123.572C33.6876 121.67 33.4487 119.757 33.3401 117.855C33.2315 115.975 33.1772 114.029 33.1772 112.062C33.1772 110.312 33.2097 108.605 33.2858 106.997C33.3401 105.66 33.4378 104.301 33.5464 102.932C36.0333 102.682 38.5094 102.508 40.9312 102.41C47.3168 102.149 53.8762 102.236 60.3053 102.301C63.6393 102.334 67.0494 102.323 70.4268 102.258C70.5788 103.454 70.7852 104.997 71.0458 106.877C71.3933 109.323 71.8277 112.018 72.3599 114.877C72.892 117.757 73.5653 120.757 74.369 123.768C75.1726 126.8 76.1066 129.604 77.1383 132.093C78.2025 134.658 79.4732 136.789 80.9067 138.419C82.4814 140.212 84.2841 141.114 86.2606 141.114C88.5086 141.114 90.4852 140.332 92.1684 138.778C93.8735 137.202 94.7314 135.256 94.7314 132.974C94.7314 127.757 94.5033 122.485 94.0472 117.301C93.602 112.203 93.3739 106.997 93.3739 101.823L93.3956 101.801Z" fill="#FFDC5A"/>
<path d="M194.643 97.3571C194.187 96.7919 193.742 96.1507 193.318 95.4333C193.079 95.0312 192.786 94.216 192.786 92.5856C192.786 89.6728 192.742 86.1077 192.677 81.9884C192.601 77.8908 192.351 73.5541 191.939 69.1195C191.515 64.6633 190.842 60.1852 189.93 55.8051C189.007 51.3705 187.638 47.349 185.857 43.8275C184.044 40.2516 181.698 37.2952 178.863 35.0562C175.953 32.752 172.326 31.5781 168.079 31.5781C163.833 31.5781 159.348 32.8824 155.286 35.4366C151.323 37.9473 147.532 41.2406 144.025 45.2513C140.549 49.2293 137.281 53.7943 134.305 58.8266C131.362 63.8155 128.647 68.9348 126.247 74.0432C123.858 79.1299 121.729 84.0861 119.916 88.7815C118.221 93.1617 116.82 96.9658 115.724 100.129C114.594 100.085 113.324 99.9657 111.944 99.7592C110.087 99.4874 108.317 99.4005 106.656 99.52C104.875 99.6505 103.343 100.15 102.084 101.02C100.683 101.987 99.9658 103.748 99.9658 106.237C99.9658 108.367 100.498 110.139 101.551 111.509C102.55 112.802 103.821 113.845 105.331 114.606C106.764 115.324 108.317 115.889 109.935 116.28C111.162 116.584 112.303 116.856 113.367 117.106C113.356 118.149 113.324 119.356 113.258 120.747C113.182 122.508 113.161 124.388 113.204 126.334C113.248 128.29 113.378 130.257 113.606 132.181C113.845 134.17 114.29 135.975 114.92 137.572C115.582 139.246 116.549 140.626 117.776 141.692C119.068 142.811 120.741 143.376 122.75 143.376C125.27 143.376 127.213 142.148 128.375 139.822C129.407 137.768 130.146 135.322 130.58 132.573C131.004 129.899 131.329 127.116 131.557 124.301C131.742 122.019 132.057 120.149 132.491 118.726C139.29 118.867 145.936 118.878 152.246 118.769C158.414 118.66 164.691 118.193 170.903 117.378C170.946 118.454 170.957 119.66 170.957 120.975C170.957 122.834 171.001 124.747 171.077 126.649C171.153 128.584 171.327 130.507 171.598 132.388C171.87 134.333 172.38 136.116 173.108 137.692C173.857 139.322 174.889 140.648 176.159 141.626C177.484 142.648 179.2 143.159 181.253 143.159C184.141 143.159 186.444 142.192 188.094 140.279C189.626 138.507 190.788 136.322 191.548 133.801C192.286 131.344 192.742 128.736 192.894 126.051C193.046 123.421 193.123 121.084 193.123 119.084L193.014 113.715C192.949 112.226 193.09 111.095 193.427 110.346C193.796 109.519 194.219 108.813 194.665 108.226C195.164 107.574 195.653 106.911 196.109 106.259C196.706 105.422 196.989 104.302 196.989 102.846C196.989 101.39 196.695 100.259 196.131 99.4005C195.675 98.7049 195.175 98.031 194.643 97.3897V97.3571ZM171.337 100.259C169.111 100.498 166.603 100.672 163.888 100.77C160.771 100.879 157.534 100.944 154.266 100.944H137.465C137.834 99.7157 138.345 98.2484 138.986 96.5637C139.898 94.1834 140.973 91.564 142.2 88.7706C143.438 85.9556 144.85 83.0318 146.37 80.0755C147.891 77.1408 149.465 74.2714 151.062 71.5433C152.626 68.8587 154.233 66.3697 155.829 64.1198C157.404 61.9134 158.914 60.1309 160.293 58.8158C163.844 55.4464 165.354 56.5115 165.853 56.8702C167.439 58.0006 168.709 60.5222 169.622 64.3589C170.588 68.4022 171.185 73.6736 171.413 80.0102C171.631 86.1295 171.598 92.9335 171.337 100.259Z" fill="#FFDC5A"/>
<path d="M278.862 82.433C274.29 80.4765 269.186 79.031 263.669 78.1506C258.206 77.2811 252.798 76.5637 247.596 76.042C239.636 75.2268 234.238 73.9117 231.556 72.1292C230.513 71.4336 229.938 70.6945 229.851 69.9336C229.742 69.0098 230.285 67.8903 231.48 66.5969C233.641 64.2166 236.693 62.1515 240.548 60.4342C244.458 58.6951 248.715 57.4017 253.189 56.5866C257.674 55.7714 262.181 55.4344 266.59 55.5757C270.967 55.7279 274.8 56.3909 278.058 57.5756C279.427 58.0104 280.567 58.4669 281.457 58.9234C282.554 59.4994 283.662 59.782 284.748 59.782C286.225 59.782 287.593 59.4234 288.81 58.7277C290.004 58.043 291.014 57.1191 291.829 55.967C292.611 54.8584 293.23 53.5758 293.686 52.1411C294.131 50.7064 294.359 49.2391 294.359 47.7827C294.359 44.0764 293.11 41.0331 290.667 38.7397C288.343 36.5659 285.508 34.8486 282.239 33.6313C279.025 32.4357 275.691 31.6314 272.324 31.2401C269.001 30.8597 266.221 30.6641 264.081 30.6641C260.845 30.6641 257.12 31.088 253.015 31.9357C248.921 32.7835 244.718 34.0226 240.526 35.6203C236.323 37.2289 232.121 39.2614 228.037 41.6635C223.932 44.0872 220.24 46.9132 217.09 50.076C213.919 53.2498 211.313 56.8257 209.336 60.695C207.338 64.6187 206.317 68.9554 206.317 73.5856C206.317 77.8571 207.447 81.2808 209.662 83.7481C211.823 86.1501 214.701 87.987 218.231 89.2261C221.663 90.4216 225.594 91.2477 229.905 91.6716C234.151 92.0846 238.539 92.3781 242.926 92.5302C247.281 92.6824 251.56 92.9106 255.665 93.215C259.705 93.5084 263.31 94.1062 266.406 94.9975H266.449C270.239 95.9431 273.084 97.356 274.909 99.2038C276.69 101.019 277.548 102.812 277.548 104.693C277.548 106.573 276.722 108.334 275.017 110.073C273.28 111.844 270.619 113.181 267.133 114.04C264.027 114.779 260.172 115.312 255.665 115.605C251.136 115.909 245.706 116.062 239.549 116.062C238.028 116.062 236.432 115.909 234.792 115.627C233.12 115.333 231.491 115.007 229.949 114.67C228.407 114.333 226.984 114.007 225.702 113.703C224.312 113.377 223.15 113.225 222.162 113.225C219.588 113.225 217.536 114.366 216.08 116.616C214.723 118.724 214.028 121.083 214.028 123.626C214.028 126.17 214.701 128.376 216.026 130.365C217.308 132.3 219.013 133.984 221.098 135.387C223.129 136.756 225.442 137.919 227.972 138.854C230.459 139.778 232.989 140.528 235.487 141.115C237.974 141.691 240.396 142.104 242.666 142.332C244.925 142.56 246.858 142.68 248.4 142.68C251.408 142.68 254.688 142.332 258.152 141.636C261.605 140.941 265.081 139.886 268.458 138.506C271.836 137.126 275.17 135.365 278.351 133.3C281.566 131.213 284.411 128.735 286.822 125.931C289.233 123.126 291.21 119.909 292.676 116.377C294.164 112.812 294.924 108.866 294.924 104.649C294.924 98.9538 293.382 94.2584 290.352 90.6934C287.376 87.2044 283.51 84.4328 278.873 82.4438L278.862 82.433Z" fill="#FFDC5A"/>
<path d="M396.128 101.801C396.128 93.5736 396.258 85.2371 396.519 77.0528C396.78 68.7924 396.921 60.445 396.921 52.2389C396.921 50.8912 396.801 49.5434 396.562 48.2392C396.313 46.8588 395.835 45.6197 395.161 44.5546C394.466 43.4677 393.522 42.5656 392.36 41.8808C391.176 41.1743 389.71 40.8157 388.005 40.8157C386.593 40.8157 385.29 41.1743 384.139 41.8917C383.009 42.5873 382.097 43.5112 381.402 44.6307C380.75 45.6958 380.099 47.1523 379.425 49.1087C378.774 50.9781 378.155 53.1845 377.579 55.6409C377.015 58.0756 376.472 60.6515 375.983 63.3035C375.494 65.923 375.038 68.5315 374.614 71.0531C374.191 73.6073 373.822 75.9442 373.528 78.0093C373.3 79.6179 373.116 80.9874 372.964 82.1177C367.165 81.7156 361.268 81.596 355.436 81.7373C349.713 81.8786 343.935 82.2156 338.234 82.7481C338.397 81.5634 338.625 80.2048 338.918 78.7157C339.33 76.618 339.819 74.4008 340.384 72.1183C340.949 69.8141 341.557 67.4555 342.198 65.0317C342.838 62.5971 343.425 60.3254 343.957 58.1951C344.489 56.0866 344.923 54.1627 345.271 52.4672C345.629 50.7173 345.803 49.3478 345.803 48.2718C345.803 45.9349 344.891 43.8481 343.088 42.0982C341.296 40.3483 339.211 39.457 336.876 39.457C334.541 39.457 332.25 40.3483 330.208 42.1091C328.264 43.772 326.494 45.9241 324.93 48.5109C323.399 51.0434 321.976 53.9019 320.706 57.0213C319.446 60.1298 318.36 63.2383 317.491 66.2816C316.622 69.3141 315.862 72.2052 315.265 74.8681C314.657 77.531 314.233 79.7048 313.994 81.3243C313.853 82.3351 313.668 83.2264 313.451 83.9655C313.267 84.6285 312.995 85.2045 312.658 85.661C312.333 86.1066 311.866 86.5088 311.279 86.8457C310.671 87.2044 309.846 87.487 308.814 87.6935C306.816 88.1283 305.285 89.0521 304.253 90.4434C303.243 91.802 302.732 93.4975 302.732 95.4648C302.732 97.106 303.069 98.4864 303.753 99.5624C304.416 100.617 305.284 101.475 306.338 102.084C307.337 102.671 308.466 103.106 309.704 103.399C310.606 103.606 311.507 103.812 312.409 103.997L313.191 108.714C313.571 110.997 314.07 113.486 314.678 116.116C315.287 118.757 316.025 121.42 316.861 124.05C317.708 126.724 318.751 129.191 319.956 131.398C321.183 133.658 322.595 135.517 324.159 136.919C325.832 138.419 327.775 139.191 329.937 139.191C332.358 139.191 334.433 138.289 336.116 136.517C337.788 134.767 338.625 132.658 338.625 130.256C338.625 128.8 338.331 127.507 337.767 126.398C337.321 125.55 336.996 124.594 336.789 123.572C336.42 121.67 336.181 119.757 336.072 117.855C335.964 115.975 335.91 114.029 335.91 112.062C335.91 110.312 335.942 108.605 336.018 106.997C336.072 105.66 336.17 104.301 336.279 102.932C338.766 102.682 341.242 102.508 343.664 102.41C350.049 102.149 356.609 102.236 363.038 102.301C366.372 102.334 369.782 102.323 373.159 102.258C373.311 103.454 373.518 104.997 373.778 106.877C374.126 109.323 374.56 112.018 375.092 114.877C375.624 117.757 376.298 120.757 377.101 123.768C377.905 126.8 378.839 129.604 379.871 132.093C380.935 134.658 382.206 136.789 383.639 138.419C385.214 140.212 387.017 141.114 388.993 141.114C391.241 141.114 393.218 140.332 394.901 138.778C396.606 137.202 397.464 135.256 397.464 132.974C397.464 127.757 397.236 122.485 396.78 117.301C396.334 112.203 396.106 106.997 396.106 101.823L396.128 101.801Z" fill="#FFDC5A"/>
<path d="M481.867 40.9128C481.465 40.7063 480.564 40.4128 477.023 39.7933C474.461 39.3368 471.289 38.8368 467.619 38.3042C463.948 37.7717 459.984 37.2065 455.749 36.5978C451.481 35.9892 447.43 35.4566 443.683 35.0001C439.893 34.5436 436.592 34.1632 433.79 33.8588C430.912 33.5436 429.088 33.4023 428.219 33.4023C425.808 33.4023 423.734 33.9784 422.05 35.1196C420.389 36.2391 419.01 37.8478 417.956 39.8694C417.142 41.3367 416.436 43.3148 415.806 45.9343C415.209 48.4124 414.611 51.2383 414.036 54.3468C413.471 57.4228 412.95 60.7052 412.494 64.118C412.037 67.5309 411.603 70.8459 411.19 74.074C410.767 77.3021 410.398 80.2911 410.05 83.0627C409.713 85.8234 409.42 88.0841 409.203 89.8014C408.964 91.3883 408.53 92.1056 408.204 92.4317C407.628 93.0078 406.998 93.5186 406.347 93.9316C405.543 94.4425 404.827 95.0403 404.24 95.725C403.523 96.5402 403.176 97.7466 403.176 99.3987C403.176 101.203 403.751 102.714 404.903 103.898C405.771 104.811 406.77 105.605 407.856 106.279C407.911 107.898 407.922 109.855 407.889 112.105C407.846 114.691 407.911 117.452 408.063 120.311C408.215 123.169 408.508 126.071 408.921 128.941C409.344 131.853 410.039 134.538 410.973 136.908C411.929 139.342 413.254 141.44 414.894 143.125C416.61 144.885 418.836 145.951 421.442 146.277C422.17 146.407 422.93 146.472 423.712 146.472C423.907 146.472 424.103 146.472 424.288 146.461C425.178 146.429 426.079 146.407 426.97 146.407C434.007 146.407 441.327 146.027 448.722 145.266C456.107 144.505 463.34 143.429 470.225 142.07C471.507 141.831 472.821 141.429 474.146 140.864C475.481 140.299 476.719 139.56 477.816 138.657C478.924 137.755 479.869 136.658 480.618 135.418C481.4 134.114 481.791 132.669 481.791 131.103C481.791 128.604 480.911 126.517 479.163 124.908C477.447 123.321 475.329 122.517 472.864 122.517C469.519 122.517 465.957 122.713 462.297 123.093C458.648 123.473 454.923 123.919 451.253 124.408C447.539 124.908 443.825 125.419 440.11 125.941C436.809 126.419 433.551 126.767 430.402 126.995C430.098 124.778 429.859 122.56 429.707 120.398C429.522 117.919 429.424 115.365 429.424 112.8C429.424 111.833 429.446 110.898 429.479 109.996C429.5 109.409 429.533 108.822 429.576 108.224C430.847 108.137 432.563 108.105 434.681 108.137C437.45 108.17 440.241 108.018 443.01 107.67C445.845 107.311 448.364 106.616 450.503 105.583C452.914 104.42 454.185 102.507 454.185 100.062C454.185 98.8553 453.827 97.7358 453.132 96.7576C452.458 95.812 451.6 95.0946 450.601 94.6381L450.493 94.5946C450.286 94.5294 449.874 94.4207 448.44 94.2142C447.408 94.0621 446.17 93.9099 444.639 93.7577C443.119 93.6056 441.522 93.4643 439.882 93.3556C438.221 93.2469 436.635 93.1273 435.115 93.0186C433.595 92.8991 432.226 92.8121 431.01 92.736C430.434 92.7034 429.935 92.66 429.511 92.6274C430.065 86.8668 430.489 81.0302 430.771 75.2805C431.053 69.5525 431.683 63.7702 432.639 58.0749C435.224 58.1184 437.83 58.3575 440.404 58.7923C443.368 59.2922 446.355 59.8248 449.298 60.3791C452.295 60.9443 455.325 61.466 458.312 61.9225C461.342 62.379 464.393 62.6181 467.391 62.6181C469.193 62.6181 471.268 62.4007 473.548 61.9769C475.861 61.5421 478.077 60.8247 480.129 59.8465C482.214 58.8466 484.006 57.5097 485.462 55.9011C487.004 54.1838 487.786 52.0644 487.786 49.608C487.786 47.6298 487.199 45.8582 486.026 44.3365C484.908 42.891 483.496 41.728 481.845 40.9019L481.867 40.9128Z" fill="#FFDC5A"/>
<path d="M568.019 59.4661C564.75 56.238 560.83 53.673 556.366 51.847C551.892 50.021 547.005 49.0971 541.814 49.0971C537.47 49.0971 533.343 49.7493 529.542 51.0318C526.306 52.1187 523.037 53.4447 519.812 54.9555C519.779 54.2925 519.736 53.6295 519.671 52.9774C519.551 51.6731 519.225 50.4992 518.715 49.4667C518.172 48.3798 517.325 47.4777 516.195 46.8038C515.066 46.1299 513.6 45.793 511.721 45.793C509.734 45.793 507.79 46.5429 505.933 48.0211C504.239 49.3689 502.783 50.684 501.6 51.9448C499.265 54.5207 497.191 57.814 495.442 61.7269C493.715 65.6071 492.282 69.759 491.174 74.0632C490.066 78.3781 489.241 82.7257 488.709 86.9864C488.177 91.2579 487.905 95.1272 487.905 98.4857C487.905 99.9639 488.025 102.007 488.253 104.551C488.481 107.116 488.872 109.942 489.404 112.941C489.936 115.963 490.609 119.028 491.413 122.071C492.217 125.158 493.238 128.006 494.432 130.56C495.648 133.158 497.093 135.321 498.733 136.994C500.492 138.799 502.523 139.712 504.793 139.712C506.259 139.712 507.638 139.364 508.898 138.668C509.842 138.147 510.842 137.897 511.949 137.897C514.773 137.897 517.672 138.07 520.572 138.397C523.548 138.744 526.578 138.918 529.553 138.918C533.756 138.918 537.948 138.147 542.031 136.636C546.082 135.125 549.948 133.06 553.532 130.473C557.094 127.897 560.45 124.865 563.48 121.441C566.499 118.039 569.16 114.322 571.397 110.398C573.623 106.474 575.382 102.355 576.609 98.1705C577.847 93.9534 578.466 89.7797 578.466 85.7582C578.466 80.4867 577.543 75.5522 575.719 71.0742C573.894 66.5962 571.31 62.6942 568.041 59.4553L568.019 59.4661ZM559.071 88.3341C558.669 92.5295 557.431 96.6815 555.378 100.67C553.315 104.681 550.535 108.453 547.114 111.887C543.682 115.322 539.848 118.202 535.722 120.452C531.617 122.691 527.262 124.158 522.787 124.821C518.617 125.441 514.556 125.049 510.7 123.647C510.635 122.582 510.581 121.343 510.516 119.93C510.44 118.191 510.364 116.387 510.288 114.528C510.212 112.681 510.157 110.887 510.114 109.148C510.07 107.42 510.06 105.942 510.06 104.735C510.06 103.529 510.016 102.322 509.94 100.975C509.864 99.6922 509.864 98.377 509.94 97.0619C510.016 95.7359 510.168 94.4642 510.385 93.2686C510.592 92.16 510.961 91.16 511.482 90.3014C513.643 86.8668 516.054 83.5626 518.661 80.4758C521.224 77.4325 524.188 74.8892 527.468 72.9219C530.987 70.8677 534.342 69.4982 537.427 68.8352C540.489 68.183 543.324 68.0961 545.865 68.5526C548.374 69.0091 550.567 69.9547 552.381 71.3568C554.216 72.7697 555.682 74.5196 556.747 76.5739C558.68 80.2259 559.462 84.1713 559.071 88.3015V88.3341Z" fill="#FFDC5A"/>
<path d="M704.333 42.763C700.912 40.8174 697.035 39.4153 692.81 38.6001C688.629 37.7958 684.448 37.3828 680.387 37.3828C674.653 37.3828 668.897 38.0567 663.271 39.4044C657.961 40.6761 652.802 42.5238 647.926 44.915C647.036 43.6542 646.058 42.5238 645.005 41.5456C643.593 40.2196 641.736 39.5457 639.488 39.5457C636.958 39.5457 634.699 40.7522 632.787 43.1325C631.017 45.3389 629.486 48.1757 628.237 51.5668C627.01 54.9036 625.978 58.6643 625.185 62.7619C624.382 66.8377 623.752 70.8592 623.296 74.7286C622.84 78.6414 622.514 82.239 622.329 85.4237C622.145 88.63 622.047 91.0755 622.047 92.7059C622.047 94.5101 622.09 96.9448 622.156 99.9555C622.232 103.021 622.438 106.39 622.785 109.977C623.133 113.574 623.632 117.281 624.273 120.976C624.925 124.748 625.859 128.204 627.053 131.247C628.27 134.356 629.812 136.932 631.636 138.921C633.58 141.04 635.991 142.116 638.793 142.116C642.192 142.116 644.733 140.899 646.341 138.508C647.861 136.247 648.621 133.66 648.621 130.791C648.621 127.737 648.502 124.65 648.274 121.617C648.067 118.889 647.894 116.161 647.752 113.509C650.402 113.042 653.063 112.629 655.68 112.259C658.688 111.846 661.708 111.324 664.651 110.716C668.256 110.02 672.079 108.955 675.999 107.542C679.93 106.129 683.851 104.368 687.63 102.303C691.409 100.238 695.048 97.8578 698.458 95.2166C701.879 92.5646 704.93 89.5539 707.504 86.2714C710.089 82.989 712.185 79.4022 713.738 75.609C715.301 71.7831 716.094 67.6638 716.094 63.3705C716.094 58.3273 714.986 54.0667 712.793 50.719C710.621 47.404 707.765 44.7194 704.3 42.7521L704.333 42.763ZM691.431 65.4574C689.835 69.2289 687.391 72.5983 684.155 75.4677C680.875 78.3806 677.139 80.8478 673.045 82.8042C668.94 84.7715 664.596 86.2714 660.155 87.2714C655.713 88.2713 651.467 88.7822 647.557 88.7822H646.71L646.829 70.7723C646.829 69.5441 647.34 68.4355 648.382 67.392C649.544 66.2399 651.086 65.1748 652.976 64.2509C654.92 63.2944 657.114 62.4575 659.503 61.7619C661.914 61.0554 664.346 60.4468 666.736 59.9685C669.125 59.4794 671.351 59.1208 673.339 58.9034C675.337 58.686 676.933 58.5664 678.106 58.5664C678.975 58.5664 680.235 58.6425 681.874 58.7947C683.471 58.936 685.078 59.2186 686.642 59.6207C688.152 60.012 689.476 60.5772 690.573 61.2945C691.475 61.8923 691.898 62.5988 691.898 63.5118C691.898 64.0444 691.735 64.7074 691.42 65.4791L691.431 65.4574Z" fill="#FFDC5A"/>
<path d="M750.673 69.5533C747.36 67.9556 743.711 67.3469 739.813 67.7491C735.936 68.1404 732.319 69.4446 729.04 71.6184C725.771 73.7922 723.001 76.7921 720.808 80.5636C718.592 84.3569 717.474 88.9001 717.474 94.0737C717.474 97.0627 717.951 100.019 718.896 102.878C719.841 105.758 721.242 108.356 723.056 110.616C724.88 112.888 727.117 114.714 729.702 116.073C732.308 117.442 735.284 118.127 738.553 118.127C742.05 118.127 745.297 117.355 748.196 115.844C751.064 114.344 753.583 112.323 755.679 109.834C757.764 107.356 759.404 104.53 760.577 101.443C761.761 98.3452 762.358 95.0954 762.358 91.7912C762.358 85.9329 761.228 81.1179 759.013 77.4659C756.787 73.814 753.985 71.1511 750.662 69.5533H750.673ZM745.275 99.3343C743.472 101.204 741.561 102.215 739.422 102.421C737.337 102.617 735.469 101.943 733.72 100.367C731.993 98.8126 731.125 96.1606 731.125 92.476C731.125 90.0957 731.559 88.1393 732.406 86.6502C733.264 85.1503 734.317 83.9982 735.555 83.2265C736.794 82.4548 738.097 82.0852 739.53 82.0852C740.964 82.0852 742.289 82.4331 743.538 83.1395C744.765 83.8351 745.818 84.9112 746.665 86.335C747.501 87.748 747.936 89.5522 747.936 91.6934C747.936 94.9976 747.067 97.4974 745.286 99.356L745.275 99.3343Z" fill="#FFDC5A"/>
<path d="M793.221 95.1487C795.263 94.9965 797.348 94.6813 799.401 94.214C801.518 93.7357 803.386 92.9966 804.95 92.0293C806.742 90.9315 807.687 89.2686 807.687 87.2361C807.687 85.0732 806.948 83.3993 805.504 82.2798C804.136 81.2255 802.485 80.693 800.585 80.693C799.89 80.693 799.042 80.7364 798 80.8125C797.012 80.8886 795.98 80.9647 794.883 81.0408C793.765 81.1169 792.7 81.2147 791.712 81.3342C791.354 81.3777 791.017 81.4103 790.713 81.4321C790.843 80.9429 791.017 80.4321 791.212 79.8887L792.516 76.3019C792.972 75.0411 793.384 73.7912 793.732 72.5956C794.101 71.3348 794.286 70.1718 794.286 69.161C794.286 66.835 793.602 65.1503 792.255 64.1395C791.006 63.2048 789.258 62.7266 787.064 62.7266C784.87 62.7266 782.915 63.4874 781.46 64.9873C780.124 66.3677 779.006 68.0524 778.126 70.0196C777.268 71.9217 776.562 73.9759 776.019 76.1063C775.563 77.8888 775.14 79.4865 774.738 80.8451C773.88 81.0408 773.033 81.2364 772.197 81.4538C771.078 81.7473 770.046 82.1711 769.134 82.7037C768.146 83.2906 767.342 84.0841 766.756 85.0732C766.169 86.0731 765.865 87.3665 765.865 88.9208C765.865 90.2033 766.202 91.3337 766.854 92.2684C767.462 93.1488 768.244 93.877 769.156 94.4422C770.003 94.9639 770.926 95.4204 771.903 95.79C772.544 96.0291 773.174 96.2465 773.782 96.4312C773.717 99.1702 774.032 101.768 774.705 104.159C775.465 106.833 776.704 109.202 778.387 111.213C780.081 113.224 782.22 114.822 784.74 115.941C787.249 117.061 790.17 117.626 793.417 117.626C794.633 117.626 795.969 117.463 797.403 117.147C798.858 116.821 800.237 116.311 801.497 115.615C802.789 114.908 803.897 113.963 804.787 112.832C805.732 111.615 806.21 110.115 806.21 108.354C806.21 106.355 805.645 104.67 804.538 103.333C803.365 101.931 801.801 101.279 800.009 101.474C797.109 101.768 794.872 101.92 793.363 101.92C791.69 101.92 790.854 101.637 790.452 101.387C790.159 101.214 789.768 100.877 789.67 99.9854C789.562 99.0072 789.507 97.6486 789.507 95.953V95.4422C790.507 95.3335 791.745 95.2139 793.221 95.1052V95.1487Z" fill="#FFDC5A"/>
<path d="M859.728 105.53C859.185 104.802 858.653 104.095 858.121 103.411C857.665 102.813 857.295 102.15 857.046 101.443C856.318 99.324 855.797 97.085 855.504 94.7808C855.21 92.4548 855.058 90.1506 855.058 87.9224C855.058 85.6943 855.167 83.3357 855.395 81.1511C855.623 78.8795 855.742 76.5318 855.742 74.1623C855.742 73.0754 855.688 71.9668 855.569 70.8582C855.438 69.6843 855.145 68.5865 854.667 67.6083C854.168 66.5649 853.429 65.7063 852.474 65.0759C851.496 64.4237 850.204 64.0977 848.629 64.0977C846.902 64.0977 845.48 64.6411 844.394 65.728C843.612 66.5106 842.863 67.3801 842.167 68.3148H837.943C833.805 68.3148 830.091 68.9778 826.909 70.2712C823.695 71.5755 820.98 73.4776 818.84 75.9014C816.712 78.3143 815.072 81.2163 813.964 84.5204C812.867 87.792 812.313 91.4657 812.313 95.4329C812.313 97.7045 812.574 100.161 813.074 102.748C813.584 105.378 814.442 107.845 815.615 110.095C816.82 112.388 818.428 114.323 820.393 115.845C822.435 117.432 824.965 118.236 827.93 118.236C829.57 118.236 831.069 117.986 832.404 117.486C833.708 116.997 834.935 116.323 836.086 115.464C837.183 114.638 838.236 113.725 839.214 112.747C839.93 112.03 840.636 111.291 841.31 110.519L843.275 112.323C844.263 113.225 845.317 114.073 846.414 114.812C847.532 115.573 848.727 116.203 849.987 116.693C851.279 117.193 852.691 117.453 854.189 117.453C856.144 117.453 857.904 116.932 859.402 115.899C861.031 114.78 861.857 113.062 861.857 110.802C861.857 109.715 861.628 108.726 861.162 107.845C860.76 107.084 860.271 106.313 859.717 105.541L859.728 105.53ZM835.304 89.3789C834.718 91.7918 833.871 94.1286 832.774 96.3133C830.222 101.422 828.734 101.748 828.343 101.737C828.332 101.737 826.996 101.596 826.996 95.096C826.996 93.6504 827.137 92.1505 827.431 90.6397C827.713 89.1724 828.202 87.8137 828.897 86.5964C829.57 85.4117 830.439 84.4444 831.481 83.7053C832.459 83.0097 833.762 82.651 835.337 82.651C835.684 82.651 836.075 82.6727 836.499 82.7053C836.542 82.7053 836.575 82.7053 836.607 82.7053C836.249 85.0313 835.814 87.2703 835.304 89.368V89.3789Z" fill="#FFDC5A"/>
<path d="M891.146 95.1487C893.188 94.9965 895.273 94.6813 897.326 94.214C899.443 93.7357 901.311 92.9966 902.875 92.0293C904.667 90.9315 905.612 89.2686 905.612 87.2361C905.612 85.0732 904.873 83.3993 903.429 82.2798C902.061 81.2255 900.41 80.693 898.509 80.693C897.814 80.693 896.967 80.7364 895.925 80.8125C894.936 80.8886 893.905 80.9647 892.808 81.0408C891.689 81.1169 890.625 81.2147 889.637 81.3342C889.278 81.3777 888.942 81.4103 888.638 81.4321C888.768 80.9429 888.942 80.4321 889.137 79.8887L890.44 76.3019C890.896 75.0411 891.309 73.7912 891.657 72.5956C892.026 71.3348 892.211 70.1718 892.211 69.161C892.211 66.835 891.526 65.1503 890.18 64.1395C888.931 63.2048 887.182 62.7266 884.989 62.7266C882.795 62.7266 880.84 63.4874 879.385 64.9873C878.049 66.3677 876.931 68.0524 876.051 70.0196C875.193 71.9217 874.487 73.9759 873.944 76.1063C873.488 77.8888 873.064 79.4865 872.663 80.8451C871.805 81.0408 870.958 81.2364 870.121 81.4538C869.003 81.7473 867.971 82.1711 867.059 82.7037C866.071 83.2906 865.267 84.0841 864.681 85.0732C864.094 86.0731 863.79 87.3665 863.79 88.9208C863.79 90.2033 864.127 91.3337 864.778 92.2684C865.386 93.1488 866.168 93.877 867.081 94.4422C867.928 94.9639 868.851 95.4204 869.828 95.79C870.469 96.0291 871.099 96.2465 871.707 96.4312C871.642 99.1702 871.957 101.768 872.63 104.159C873.39 106.833 874.628 109.202 876.312 111.213C878.006 113.224 880.145 114.822 882.665 115.941C885.173 117.061 888.095 117.626 891.342 117.626C892.558 117.626 893.894 117.463 895.327 117.147C896.783 116.821 898.162 116.311 899.422 115.615C900.714 114.908 901.822 113.963 902.712 112.832C903.657 111.615 904.135 110.115 904.135 108.354C904.135 106.355 903.57 104.67 902.462 103.333C901.289 101.931 899.726 101.279 897.934 101.474C895.034 101.768 892.797 101.92 891.287 101.92C889.615 101.92 888.779 101.637 888.377 101.387C888.084 101.214 887.693 100.877 887.595 99.9854C887.486 99.0072 887.432 97.6486 887.432 95.953V95.4422C888.431 95.3335 889.669 95.2139 891.146 95.1052V95.1487Z" fill="#FFDC5A"/>
<path d="M943.219 69.5533C939.907 67.9556 936.247 67.3469 932.359 67.7491C928.482 68.1404 924.866 69.4446 921.586 71.6184C918.317 73.7922 915.548 76.7921 913.355 80.5636C911.139 84.3569 910.021 88.9001 910.021 94.0737C910.021 97.0627 910.498 100.019 911.443 102.878C912.388 105.758 913.789 108.356 915.602 110.616C917.427 112.888 919.664 114.714 922.249 116.073C924.855 117.442 927.831 118.127 931.1 118.127C934.597 118.127 937.844 117.355 940.743 115.844C943.61 114.344 946.13 112.323 948.226 109.834C950.311 107.356 951.951 104.53 953.124 101.443C954.307 98.3452 954.905 95.0954 954.905 91.7912C954.905 85.9329 953.775 81.1179 951.56 77.4659C949.334 73.814 946.532 71.1511 943.209 69.5533H943.219ZM937.822 99.3343C936.019 101.204 934.108 102.215 931.968 102.421C929.872 102.617 928.015 101.943 926.267 100.367C924.54 98.8126 923.671 96.1606 923.671 92.476C923.671 90.0957 924.106 88.1393 924.953 86.6502C925.811 85.1503 926.864 83.9982 928.102 83.2265C929.34 82.4548 930.644 82.0852 932.077 82.0852C933.511 82.0852 934.836 82.4331 936.084 83.1395C937.312 83.8351 938.365 84.9112 939.212 86.335C940.048 87.748 940.483 89.5522 940.483 91.6934C940.483 94.9976 939.614 97.4974 937.833 99.356L937.822 99.3343Z" fill="#FFDC5A"/>
<path d="M1063.79 122.997C1061.86 122.997 1059.91 123.323 1057.99 123.964C1056.15 124.573 1054.26 125.279 1052.36 126.029C1050.51 126.768 1048.58 127.453 1046.65 128.051C1044.79 128.627 1042.84 128.909 1040.84 128.909C1036.07 128.909 1031.97 127.833 1028.64 125.725C1025.29 123.594 1022.54 120.714 1020.48 117.171C1018.39 113.595 1016.95 109.465 1016.18 104.921C1015.4 100.335 1015.19 95.5633 1015.57 90.7483C1015.94 85.9334 1016.88 81.151 1018.36 76.5643C1019.84 71.9885 1021.85 67.8366 1024.35 64.2281C1026.83 60.6522 1029.81 57.7502 1033.18 55.5981C1036.52 53.4895 1040.31 52.4135 1044.48 52.4135C1046.78 52.4135 1048.72 52.8483 1050.26 53.696C1051.9 54.609 1053.39 55.609 1054.7 56.6633C1056.07 57.7719 1057.36 58.7936 1058.57 59.7392C1059.98 60.8369 1061.54 61.3913 1063.22 61.3913C1066.78 61.3913 1068.38 59.6305 1069.09 58.1523C1069.99 56.272 1070.44 54.196 1070.44 52.0005C1070.44 48.6094 1069.48 45.4791 1067.59 42.6966C1065.74 39.9903 1063.42 37.6426 1060.67 35.7079C1057.93 33.795 1054.89 32.3168 1051.62 31.2951C1048.35 30.2843 1045.23 29.7734 1042.33 29.7734C1034.75 29.7734 1027.89 31.5016 1021.97 34.9253C1016.07 38.3273 1011.02 42.8597 1006.98 48.4137C1002.95 53.946 999.811 60.3261 997.672 67.3801C995.532 74.4123 994.338 81.6945 994.099 89.031C993.871 96.3785 994.642 103.672 996.401 110.704C998.16 117.769 1001.01 124.17 1004.86 129.703C1008.73 135.268 1013.71 139.811 1019.7 143.213C1025.7 146.626 1032.93 148.354 1041.19 148.354C1042.59 148.354 1044.36 148.213 1046.44 147.941C1048.53 147.669 1050.73 147.245 1052.99 146.669C1055.25 146.093 1057.53 145.354 1059.77 144.463C1062.03 143.572 1064.08 142.495 1065.88 141.289C1067.72 140.05 1069.24 138.626 1070.41 137.061C1071.65 135.398 1072.27 133.474 1072.27 131.355C1072.27 129.094 1071.41 127.105 1069.73 125.464C1068.04 123.823 1066.06 122.997 1063.8 122.997H1063.79Z" fill="#FFDC5A"/>
<path d="M1098.61 70.3035C1098.61 68.0754 1097.92 66.119 1096.54 64.4887C1095.12 62.804 1093.12 61.9453 1090.6 61.9453C1088.55 61.9453 1086.77 62.7496 1085.31 64.3474C1083.98 65.8038 1082.85 67.6733 1081.92 69.9014C1081.02 72.0861 1080.32 74.5533 1079.82 77.2162C1079.33 79.8248 1078.92 82.4442 1078.61 85.0201C1078.31 87.5743 1078.11 89.9981 1078.04 92.2154C1077.96 94.4218 1077.92 96.1499 1077.92 97.3673C1077.92 99.0085 1078.07 100.965 1078.38 103.204C1078.7 105.465 1079.25 107.671 1080.03 109.747C1080.84 111.877 1081.97 113.725 1083.38 115.225C1084.91 116.844 1086.91 117.671 1089.34 117.671C1091.21 117.671 1092.76 117.29 1093.96 116.54C1095.14 115.801 1096.06 114.801 1096.73 113.573C1097.36 112.399 1097.77 111.073 1097.97 109.638C1098.17 108.269 1098.27 106.888 1098.27 105.562C1098.27 102.345 1098.09 99.1172 1097.75 95.9543C1097.41 92.8675 1097.25 89.6829 1097.25 86.4657C1097.25 83.8898 1097.47 81.2269 1097.91 78.5748C1098.38 75.8032 1098.6 73.0317 1098.6 70.3253L1098.61 70.3035Z" fill="#FFDC5A"/>
<path d="M1151.41 101.659C1151.03 100.072 1150.61 98.2243 1150.16 96.1157C1149.7 93.9963 1149.29 91.7681 1148.92 89.5183C1148.55 87.2466 1148.27 84.975 1148.07 82.7795C1147.89 80.6166 1147.86 78.671 1148.02 76.9972C1148.1 76.0081 1148 75.0517 1147.68 74.1495C1147.37 73.2474 1146.87 72.4322 1146.19 71.7149C1145.54 71.0193 1144.77 70.4432 1143.9 70.0085C1143 69.552 1142.07 69.3237 1141.14 69.3237C1139.47 69.3237 1138.07 69.9215 1136.99 71.0954C1136.05 72.1279 1135.19 73.4865 1134.47 75.1495C1133.78 76.7472 1133.13 78.5515 1132.55 80.5079C1132 82.3882 1131.34 84.312 1130.6 86.2141C1129.86 88.0835 1128.99 89.9095 1127.99 91.6377C1127.06 93.268 1125.88 94.6593 1124.51 95.7788C1124.15 95.9962 1123.72 96.2461 1123.22 96.5287C1122.73 96.8113 1122.49 96.8439 1122.4 96.8439C1121.93 96.8439 1121.62 96.6483 1121.32 96.2027C1120.91 95.5614 1120.6 94.7897 1120.4 93.8876C1120.18 92.9094 1120.04 91.8986 1119.97 90.866C1119.89 89.8008 1119.86 88.9205 1119.86 88.2683C1119.86 85.888 1120.22 83.5729 1120.94 81.3883C1121.74 78.9754 1122.13 76.5081 1122.13 74.0626C1122.13 71.8018 1121.39 69.9215 1119.93 68.4651C1118.48 67.0086 1116.71 66.2695 1114.68 66.2695C1112.5 66.2695 1110.69 67.2151 1109.27 69.0846C1107.99 70.7584 1106.94 72.8018 1106.15 75.1386C1105.37 77.432 1104.83 79.8557 1104.51 82.3447C1104.21 84.8011 1104.04 86.8771 1104.04 88.5074C1104.04 91.3877 1104.36 94.3115 1104.98 97.2026C1105.61 100.137 1106.6 102.844 1107.93 105.235C1109.29 107.68 1111.06 109.691 1113.19 111.213C1115.37 112.778 1118.05 113.571 1121.15 113.571C1124.24 113.571 1127.09 112.778 1129.42 111.224C1131.25 110.006 1133.08 108.528 1134.89 106.833C1135.23 107.572 1135.6 108.3 1135.98 109.017C1136.62 110.224 1137.36 111.311 1138.17 112.234C1139 113.191 1139.93 113.973 1140.94 114.56C1142.01 115.191 1143.3 115.506 1144.78 115.506C1146.64 115.506 1148.14 115.017 1149.24 114.039C1150.3 113.115 1151.06 111.908 1151.5 110.463C1151.92 109.104 1152.09 107.615 1152 106.05C1151.93 104.561 1151.72 103.094 1151.41 101.648V101.659Z" fill="#FFDC5A"/>
<path d="M1198.54 87.0871C1197.4 84.522 1195.84 82.1743 1193.91 80.0875C1191.98 78.0006 1189.76 76.2725 1187.32 74.9791C1183.17 72.7727 1178.58 72.4466 1174.33 73.7617C1173.4 74.0552 1172.46 74.3921 1171.55 74.7726C1171.58 74.6421 1171.63 74.5008 1171.67 74.3595C1172.02 73.1422 1172.35 71.8597 1172.7 70.5228C1173.05 69.1968 1173.34 67.9686 1173.61 66.8708C1173.99 65.2839 1174.04 64.697 1174.04 64.4036C1174.04 62.795 1173.42 61.4363 1172.19 60.3494C1171.01 59.306 1169.62 58.7734 1168.06 58.7734C1166.13 58.7734 1164.47 59.643 1163.12 61.3494C1161.92 62.8819 1160.89 64.8818 1160.05 67.2947C1159.23 69.6641 1158.59 72.2836 1158.13 75.0878C1157.67 77.8811 1157.3 80.6309 1157.04 83.283C1156.77 85.9676 1156.6 88.4457 1156.53 90.6304C1156.45 92.7933 1156.42 94.4889 1156.42 95.6736C1156.42 97.1518 1156.48 99.1843 1156.6 101.695C1156.72 104.293 1157.06 106.901 1157.65 109.445C1158.24 112.053 1159.13 114.336 1160.28 116.249C1161.56 118.379 1163.51 119.498 1165.92 119.498C1168.01 119.498 1169.56 118.857 1170.53 117.596C1171.18 116.749 1171.81 115.759 1172.41 114.64C1177.11 115.553 1181.66 115.303 1186.06 113.694C1188.74 112.705 1191.16 111.325 1193.25 109.586C1195.35 107.836 1197.07 105.695 1198.35 103.228C1199.63 100.739 1200.3 97.9235 1200.3 94.8801C1200.3 92.3151 1199.71 89.6957 1198.56 87.1088L1198.54 87.0871ZM1180.94 94.6302C1180.12 95.1627 1179.11 95.554 1177.96 95.7931C1176.75 96.0431 1175.49 96.1735 1174.2 96.1735C1173.53 96.1735 1172.91 96.1735 1172.33 96.2062C1172.47 95.8149 1172.64 95.391 1172.82 94.9345C1173.24 93.8693 1173.79 92.8259 1174.43 91.826C1175.06 90.8478 1175.77 90.0109 1176.56 89.3261C1177.23 88.7392 1177.9 88.4566 1178.63 88.4566C1178.93 88.4566 1179.25 88.5761 1179.59 88.8153C1180.03 89.1413 1180.43 89.5217 1180.78 89.9674C1181.13 90.413 1181.4 90.8912 1181.58 91.3803C1181.77 91.8586 1181.86 92.3042 1181.86 92.7064C1181.86 93.9019 1181.33 94.3802 1180.93 94.6302H1180.94Z" fill="#FFDC5A"/>
<path d="M93.3956 90.5732C93.3956 82.3454 93.5259 74.0089 93.7866 65.8245C94.0472 57.5641 94.1884 49.2167 94.1884 40.9998C94.1884 39.6521 94.0689 38.3043 93.83 37C93.5802 35.6197 93.1024 34.3806 92.4291 33.3046C91.734 32.2177 90.7892 31.3156 89.6272 30.6308C88.4435 29.9243 86.9774 29.5657 85.2724 29.5657C83.8606 29.5657 82.5574 29.9243 81.4062 30.6417C80.2768 31.3373 79.3646 32.2612 78.6695 33.3807C78.0179 34.4458 77.3663 35.9023 76.693 37.8587C76.0414 39.7281 75.4224 41.9345 74.8468 44.3909C74.2821 46.8256 73.7391 49.4015 73.2504 52.0535C72.7617 54.673 72.3056 57.2815 71.882 59.8031C71.4585 62.3573 71.0893 64.6942 70.7961 66.7593C70.568 68.3679 70.3834 69.7374 70.2313 70.8677C64.4321 70.4656 58.5352 70.346 52.7034 70.4873C46.9802 70.6286 41.2027 70.9656 35.5012 71.4981C35.6641 70.3134 35.8922 68.9548 36.1854 67.4657C36.598 65.368 37.0867 63.1508 37.6515 60.8683C38.2162 58.5641 38.8243 56.2055 39.4651 53.7817C40.1058 51.3471 40.6923 49.0754 41.2244 46.9451C41.7565 44.8365 42.1909 42.9127 42.5384 41.2172C42.8968 39.4673 43.0706 38.0869 43.0706 37.0218C43.0706 34.6849 42.1583 32.5981 40.3556 30.8482C38.5637 29.0983 36.4786 28.207 34.1437 28.207C31.8088 28.207 29.5174 29.0983 27.4757 30.8591C25.5318 32.522 23.7616 34.6741 22.1978 37.2609C20.6665 39.7933 19.2438 42.6519 17.9732 45.7713C16.7135 48.8798 15.6275 51.9883 14.7587 55.0316C13.8899 58.0641 13.1297 60.9552 12.5324 63.6181C11.9242 66.281 11.5007 68.4548 11.2618 70.0743C11.1206 71.0851 10.936 71.9764 10.7188 72.7155C10.5342 73.3785 10.2627 73.9545 9.926 74.4219C9.6002 74.8675 9.13322 75.2697 8.54679 75.6066C7.93863 75.9653 7.11327 76.2479 6.08157 76.4544C4.08334 76.8891 2.55209 77.813 1.52039 79.2042C0.510418 80.5629 0 82.2584 0 84.2257C0 85.8669 0.336659 87.2473 1.02084 88.3233C1.68329 89.3776 2.55209 90.2362 3.60551 90.8449C4.60462 91.4318 5.73406 91.8666 6.97209 92.16C7.87347 92.3666 8.77484 92.5731 9.67622 92.7578L10.4581 97.475C10.8382 99.7574 11.3378 102.246 11.946 104.877C12.5541 107.518 13.2926 110.181 14.1288 112.811C14.9759 115.485 16.0184 117.952 17.2239 120.159C18.4511 122.419 19.8629 124.278 21.4267 125.68C23.0991 127.18 25.0431 127.952 27.2042 127.952C29.626 127.952 31.7002 127.049 33.3835 125.278C35.0559 123.528 35.8922 121.419 35.8922 119.017C35.8922 117.561 35.5989 116.267 35.0342 115.159C34.589 114.311 34.2632 113.355 34.0568 112.333C33.6876 110.431 33.4487 108.507 33.3401 106.616C33.2315 104.735 33.1772 102.79 33.1772 100.823C33.1772 99.0727 33.2097 97.3663 33.2858 95.7577C33.3401 94.4208 33.4378 93.0622 33.5464 91.6927C36.0333 91.4427 38.5094 91.2688 40.9312 91.171C47.3168 90.9101 53.8762 90.9862 60.3053 91.0623C63.6393 91.0949 67.0494 91.084 70.4268 91.0188C70.5788 92.2144 70.7852 93.7578 71.0458 95.6381C71.3933 98.0836 71.8277 100.779 72.3599 103.638C72.892 106.518 73.5653 109.518 74.369 112.528C75.1726 115.561 76.1066 118.365 77.1383 120.854C78.2025 123.419 79.4732 125.55 80.9067 127.18C82.4814 128.973 84.2841 129.875 86.2606 129.875C88.5086 129.875 90.4852 129.093 92.1684 127.539C93.8735 125.963 94.7314 124.017 94.7314 121.735C94.7314 116.517 94.5033 111.246 94.0472 106.061C93.602 100.964 93.3739 95.7577 93.3739 90.584L93.3956 90.5732Z" fill="black"/>
<path d="M194.643 86.1392C194.187 85.574 193.742 84.9328 193.318 84.2154C193.079 83.8133 192.786 82.9981 192.786 81.3677C192.786 78.4549 192.742 74.8898 192.677 70.7705C192.601 66.6729 192.351 62.3362 191.939 57.9016C191.515 53.4454 190.842 48.9673 189.93 44.598C189.007 40.1635 187.638 36.142 185.857 32.6204C184.044 29.0445 181.698 26.0882 178.863 23.8492C175.953 21.5449 172.326 20.3711 168.079 20.3711C163.833 20.3711 159.348 21.6754 155.286 24.2296C151.323 26.7403 147.532 30.0336 144.025 34.0443C140.549 38.0223 137.281 42.5873 134.305 47.6196C131.362 52.6085 128.647 57.7277 126.247 62.8362C123.858 67.9228 121.729 72.8791 119.916 77.5745C118.221 81.9547 116.82 85.7588 115.724 88.9217C114.594 88.8782 113.324 88.7586 111.944 88.5521C110.087 88.2804 108.317 88.1935 106.656 88.313C104.875 88.4434 103.343 88.9434 102.084 89.8129C100.683 90.7803 99.9658 92.541 99.9658 95.03C99.9658 97.1604 100.498 98.932 101.551 100.301C102.55 101.595 103.821 102.638 105.331 103.399C106.764 104.116 108.317 104.682 109.935 105.073C111.162 105.377 112.303 105.649 113.367 105.899C113.356 106.942 113.324 108.149 113.258 109.54C113.182 111.301 113.161 113.181 113.204 115.127C113.248 117.083 113.378 119.05 113.606 120.974C113.845 122.963 114.29 124.768 114.92 126.365C115.582 128.039 116.549 129.419 117.776 130.485C119.068 131.604 120.741 132.169 122.75 132.169C125.27 132.169 127.213 130.941 128.375 128.615C129.407 126.561 130.146 124.115 130.58 121.366C131.004 118.692 131.329 115.909 131.557 113.094C131.742 110.812 132.057 108.942 132.491 107.518C139.29 107.649 145.936 107.671 152.246 107.562C158.414 107.453 164.691 106.986 170.903 106.171C170.946 107.247 170.957 108.453 170.957 109.768C170.957 111.627 171.001 113.54 171.077 115.442C171.153 117.377 171.327 119.3 171.598 121.181C171.87 123.126 172.38 124.909 173.108 126.485C173.857 128.115 174.889 129.441 176.159 130.419C177.484 131.441 179.2 131.952 181.253 131.952C184.141 131.952 186.444 130.985 188.094 129.072C189.626 127.3 190.788 125.115 191.548 122.594C192.286 120.137 192.742 117.529 192.894 114.844C193.046 112.214 193.123 109.877 193.123 107.877L193.014 102.508C192.949 101.019 193.09 99.8885 193.427 99.1385C193.796 98.3125 194.219 97.606 194.665 97.0191C195.164 96.3669 195.653 95.7039 196.109 95.0518C196.706 94.2149 196.989 93.0954 196.989 91.6389C196.989 90.1825 196.695 89.0521 196.131 88.1935C195.675 87.4978 195.175 86.824 194.654 86.1827L194.643 86.1392ZM165.853 45.6414C167.439 46.7718 168.709 49.2934 169.622 53.141C170.588 57.1843 171.185 62.4557 171.413 68.7923C171.631 74.9116 171.598 81.7155 171.337 89.0412C169.111 89.2803 166.603 89.4543 163.888 89.5521C160.771 89.6608 157.534 89.726 154.266 89.726H137.465C137.834 88.4978 138.345 87.0305 138.986 85.3458C139.898 82.9655 140.973 80.3461 142.2 77.5527C143.438 74.7377 144.85 71.8139 146.37 68.8576C147.891 65.9229 149.465 63.0535 151.062 60.3254C152.626 57.6408 154.233 55.1518 155.829 52.9019C157.404 50.6955 158.914 48.913 160.293 47.5979C163.844 44.2285 165.354 45.2936 165.853 45.6523V45.6414Z" fill="black"/>
<path d="M278.862 71.2181C274.29 69.2617 269.186 67.8161 263.669 66.9357C258.206 66.0662 252.798 65.3489 247.596 64.8272C239.636 64.012 234.238 62.6968 231.556 60.9143C230.513 60.2187 229.938 59.4796 229.851 58.7188C229.742 57.7949 230.285 56.6754 231.48 55.382C233.641 53.0017 236.693 50.9366 240.548 49.2193C244.458 47.4803 248.715 46.1869 253.189 45.3717C257.674 44.5565 262.181 44.2196 266.59 44.3609C270.967 44.5131 274.8 45.1761 278.058 46.3608C279.427 46.7955 280.567 47.252 281.457 47.7085C282.554 48.2846 283.662 48.5672 284.748 48.5672C286.225 48.5672 287.593 48.2085 288.81 47.5129C290.004 46.8281 291.014 45.9043 291.829 44.7522C292.611 43.6435 293.23 42.361 293.686 40.9263C294.131 39.4916 294.359 38.0243 294.359 36.5678C294.359 32.8615 293.11 29.8182 290.667 27.5249C288.343 25.3511 285.508 23.6338 282.239 22.4164C279.025 21.2209 275.691 20.4166 272.324 20.0253C269.001 19.6449 266.221 19.4492 264.081 19.4492C260.845 19.4492 257.12 19.8731 253.015 20.7209C248.921 21.5687 244.718 22.8077 240.526 24.4055C236.323 26.0141 232.121 28.0466 228.037 30.4486C223.932 32.8724 220.24 35.6983 217.09 38.8612C213.919 42.0349 211.313 45.6108 209.336 49.4802C207.338 53.4039 206.317 57.7406 206.317 62.3708C206.317 66.6423 207.447 70.066 209.662 72.5332C211.823 74.9353 214.701 76.7721 218.231 78.0112C221.663 79.2068 225.594 80.0328 229.905 80.4567C234.151 80.8697 238.539 81.1632 242.926 81.3154C247.281 81.4675 251.56 81.6958 255.665 82.0001C259.705 82.2936 263.31 82.8914 266.449 83.7935C270.239 84.7282 273.084 86.1412 274.909 87.9889C276.69 89.804 277.548 91.5974 277.548 93.4778C277.548 95.3581 276.722 97.1189 275.017 98.8579C273.28 100.63 270.619 101.966 267.133 102.825C264.027 103.564 260.172 104.097 255.665 104.39C251.136 104.695 245.706 104.847 239.549 104.847C238.028 104.847 236.432 104.695 234.792 104.412C233.12 104.118 231.491 103.792 229.949 103.455C228.407 103.119 226.984 102.792 225.702 102.488C224.312 102.162 223.15 102.01 222.162 102.01C219.588 102.01 217.536 103.151 216.08 105.401C214.723 107.51 214.028 109.868 214.028 112.411C214.028 114.955 214.701 117.161 216.026 119.15C217.308 121.085 219.013 122.77 221.098 124.172C223.129 125.541 225.442 126.704 227.972 127.639C230.459 128.563 232.989 129.313 235.487 129.9C237.974 130.476 240.396 130.889 242.666 131.117C244.925 131.345 246.858 131.465 248.4 131.465C251.408 131.465 254.688 131.117 258.152 130.421C261.605 129.726 265.081 128.671 268.458 127.291C271.836 125.911 275.17 124.15 278.351 122.085C281.566 119.998 284.411 117.52 286.822 114.716C289.233 111.912 291.21 108.694 292.676 105.162C294.164 101.597 294.924 97.6514 294.924 93.4343C294.924 87.7389 293.382 83.0435 290.352 79.4785C287.376 75.9896 283.51 73.218 278.873 71.229L278.862 71.2181Z" fill="black"/>
<path d="M396.128 90.5732C396.128 82.3454 396.258 74.0089 396.519 65.8245C396.78 57.5641 396.921 49.2167 396.921 40.9998C396.921 39.6521 396.801 38.3043 396.562 37C396.313 35.6197 395.835 34.3806 395.161 33.3046C394.466 32.2177 393.522 31.3156 392.36 30.6308C391.176 29.9243 389.71 29.5657 388.005 29.5657C386.593 29.5657 385.29 29.9243 384.139 30.6417C383.009 31.3373 382.097 32.2612 381.402 33.3807C380.75 34.4458 380.099 35.9023 379.425 37.8587C378.774 39.7281 378.155 41.9345 377.579 44.3909C377.015 46.8256 376.472 49.4015 375.983 52.0535C375.494 54.673 375.038 57.2815 374.614 59.8031C374.191 62.3573 373.822 64.6942 373.528 66.7593C373.3 68.3679 373.116 69.7374 372.964 70.8677C367.165 70.4656 361.268 70.346 355.436 70.4873C349.713 70.6286 343.935 70.9656 338.234 71.4981C338.397 70.3134 338.625 68.9548 338.918 67.4657C339.33 65.368 339.819 63.1508 340.384 60.8683C340.949 58.5641 341.557 56.2055 342.198 53.7817C342.838 51.3471 343.425 49.0754 343.957 46.9451C344.489 44.8365 344.923 42.9127 345.271 41.2172C345.629 39.4673 345.803 38.0869 345.803 37.0218C345.803 34.6849 344.891 32.5981 343.088 30.8482C341.296 29.0983 339.211 28.207 336.876 28.207C334.541 28.207 332.25 29.0983 330.208 30.8591C328.264 32.522 326.494 34.6741 324.93 37.2609C323.399 39.7933 321.976 42.6519 320.706 45.7713C319.446 48.8798 318.36 51.9883 317.491 55.0316C316.622 58.0641 315.862 60.9552 315.265 63.6181C314.657 66.281 314.233 68.4548 313.994 70.0743C313.853 71.0851 313.668 71.9764 313.451 72.7155C313.267 73.3785 312.995 73.9545 312.658 74.4219C312.333 74.8675 311.866 75.2697 311.279 75.6066C310.671 75.9653 309.846 76.2479 308.814 76.4544C306.816 76.8891 305.285 77.813 304.253 79.2042C303.243 80.5629 302.732 82.2584 302.732 84.2257C302.732 85.8669 303.069 87.2473 303.753 88.3233C304.416 89.3776 305.284 90.2362 306.338 90.8449C307.337 91.4318 308.466 91.8666 309.704 92.16C310.606 92.3666 311.507 92.5731 312.409 92.7578L313.191 97.475C313.571 99.7574 314.07 102.246 314.678 104.877C315.287 107.518 316.025 110.181 316.861 112.811C317.708 115.485 318.751 117.952 319.956 120.159C321.183 122.419 322.595 124.278 324.159 125.68C325.832 127.18 327.775 127.952 329.937 127.952C332.358 127.952 334.433 127.049 336.116 125.278C337.788 123.528 338.625 121.419 338.625 119.017C338.625 117.561 338.331 116.267 337.767 115.159C337.321 114.311 336.996 113.355 336.789 112.333C336.42 110.431 336.181 108.507 336.072 106.616C335.964 104.735 335.91 102.79 335.91 100.823C335.91 99.0727 335.942 97.3663 336.018 95.7577C336.072 94.4208 336.17 93.0622 336.279 91.6927C338.766 91.4427 341.242 91.2688 343.664 91.171C350.049 90.9101 356.609 90.9862 363.038 91.0623C366.372 91.0949 369.782 91.084 373.159 91.0188C373.311 92.2144 373.518 93.7578 373.778 95.6381C374.126 98.0836 374.56 100.779 375.092 103.638C375.624 106.518 376.298 109.518 377.101 112.528C377.905 115.561 378.839 118.365 379.871 120.854C380.935 123.419 382.206 125.55 383.639 127.18C385.214 128.973 387.017 129.875 388.993 129.875C391.241 129.875 393.218 129.093 394.901 127.539C396.606 125.963 397.464 124.017 397.464 121.735C397.464 116.517 397.236 111.246 396.78 106.061C396.334 100.964 396.106 95.7577 396.106 90.584L396.128 90.5732Z" fill="black"/>
<path d="M481.867 29.6871C481.465 29.4806 480.564 29.1871 477.023 28.5676C474.461 28.1111 471.289 27.6111 467.619 27.0894C463.948 26.5568 459.984 25.9916 455.749 25.383C451.481 24.7743 447.43 24.2417 443.683 23.7852C439.893 23.3287 436.592 22.9483 433.79 22.644C430.912 22.3288 429.088 22.1875 428.219 22.1875C425.808 22.1875 423.734 22.7636 422.05 23.9048C420.389 25.0243 419.01 26.6329 417.956 28.6545C417.142 30.111 416.436 32.1 415.806 34.7194C415.209 37.1975 414.611 40.0235 414.036 43.132C413.471 46.2079 412.95 49.4903 412.494 52.9032C412.037 56.3161 411.603 59.6311 411.19 62.8592C410.767 66.0873 410.398 69.0762 410.05 71.8478C409.713 74.6085 409.42 76.8693 409.203 78.5866C408.964 80.1734 408.53 80.8908 408.204 81.2169C407.628 81.7929 406.998 82.3038 406.347 82.7168C405.543 83.2276 404.827 83.8254 404.24 84.5102C403.523 85.3253 403.176 86.5318 403.176 88.1839C403.176 89.9881 403.751 91.4989 404.903 92.6945C405.771 93.6075 406.77 94.4009 407.856 95.0748C407.911 96.6943 407.922 98.6507 407.889 100.901C407.846 103.487 407.911 106.248 408.063 109.107C408.215 111.965 408.508 114.867 408.921 117.737C409.344 120.649 410.039 123.334 410.973 125.704C411.929 128.138 413.254 130.236 414.894 131.921C416.61 133.681 418.836 134.747 421.442 135.073C422.17 135.203 422.93 135.268 423.712 135.268C423.907 135.268 424.103 135.268 424.288 135.257C425.178 135.225 426.079 135.203 426.97 135.203C434.007 135.203 441.327 134.823 448.722 134.062C456.107 133.301 463.34 132.225 470.225 130.866C471.507 130.627 472.821 130.225 474.146 129.66C475.481 129.095 476.719 128.356 477.816 127.453C478.924 126.551 479.869 125.454 480.618 124.215C481.4 122.91 481.791 121.465 481.791 119.9C481.791 117.4 480.911 115.313 479.163 113.704C477.447 112.117 475.329 111.313 472.864 111.313C469.519 111.313 465.957 111.509 462.297 111.889C458.648 112.27 454.923 112.715 451.253 113.204C447.539 113.693 443.825 114.215 440.11 114.737C436.809 115.204 433.551 115.563 430.402 115.791C430.098 113.574 429.859 111.357 429.707 109.194C429.522 106.715 429.424 104.161 429.424 101.596C429.424 100.629 429.446 99.6941 429.479 98.792C429.5 98.2051 429.533 97.6181 429.576 97.0203C430.847 96.9334 432.563 96.9008 434.681 96.9334C437.45 96.966 440.241 96.8138 443.01 96.466C445.845 96.1074 448.364 95.4117 450.503 94.3792C452.914 93.2162 454.185 91.3033 454.185 88.8577C454.185 87.6513 453.827 86.5318 453.132 85.5536C452.458 84.608 451.6 83.8906 450.601 83.4341L450.493 83.3907C450.286 83.3254 449.874 83.2168 448.44 83.0102C447.408 82.8581 446.17 82.7059 444.639 82.5537C443.119 82.4016 441.522 82.2603 439.882 82.1516C438.221 82.0429 436.635 81.9233 435.115 81.8147C433.595 81.6951 432.226 81.6082 431.01 81.5321C430.434 81.4995 429.935 81.456 429.511 81.4234C430.065 75.6628 430.489 69.8262 430.771 64.0765C431.053 58.3486 431.683 52.5663 432.639 46.8709C435.224 46.9144 437.83 47.1535 440.404 47.5883C443.368 48.0882 446.355 48.6208 449.298 49.1751C452.295 49.7403 455.325 50.262 458.312 50.7185C461.342 51.175 464.393 51.4142 467.391 51.4142C469.193 51.4142 471.268 51.1968 473.548 50.7729C475.861 50.3381 478.077 49.6208 480.129 48.6426C482.214 47.6426 484.006 46.3057 485.462 44.6971C487.004 42.9798 487.786 40.8604 487.786 38.404C487.786 36.4258 487.199 34.6542 486.026 33.1326C484.908 31.687 483.496 30.524 481.845 29.698L481.867 29.6871Z" fill="black"/>
<path d="M568.019 48.2513C564.75 45.0232 560.83 42.4581 556.366 40.6321C551.892 38.8062 547.005 37.8823 541.814 37.8823C537.47 37.8823 533.343 38.5344 529.542 39.817C526.306 40.9039 523.037 42.2299 519.812 43.7407C519.779 43.0777 519.736 42.4147 519.671 41.7625C519.551 40.4582 519.225 39.2844 518.715 38.2518C518.172 37.1649 517.325 36.2628 516.195 35.5889C515.066 34.9151 513.6 34.5781 511.721 34.5781C509.734 34.5781 507.79 35.3281 505.933 36.8063C504.239 38.154 502.783 39.4692 501.6 40.73C499.265 43.3059 497.191 46.5992 495.442 50.512C493.715 54.3923 492.282 58.5442 491.174 62.8483C490.066 67.1633 489.241 71.5109 488.709 75.7715C488.177 80.043 487.905 83.9124 487.905 87.2709C487.905 88.7491 488.025 90.7924 488.253 93.3358C488.481 95.9008 488.872 98.7268 489.404 101.727C489.936 104.748 490.609 107.813 491.413 110.857C492.217 113.943 493.238 116.791 494.432 119.345C495.648 121.943 497.093 124.106 498.733 125.78C500.492 127.584 502.523 128.497 504.793 128.497C506.259 128.497 507.638 128.149 508.898 127.453C509.842 126.932 510.842 126.682 511.949 126.682C514.773 126.682 517.672 126.856 520.572 127.182C523.548 127.53 526.578 127.703 529.553 127.703C533.756 127.703 537.948 126.932 542.031 125.421C546.082 123.91 549.948 121.845 553.532 119.258C557.094 116.682 560.45 113.65 563.48 110.226C566.499 106.824 569.16 103.107 571.397 99.1833C573.623 95.2596 575.382 91.1402 576.609 86.9557C577.847 82.7385 578.466 78.5648 578.466 74.5433C578.466 69.2719 577.543 64.3374 575.719 59.8593C573.894 55.3813 571.31 51.4794 568.041 48.2404L568.019 48.2513ZM559.071 77.1193C558.669 81.3147 557.431 85.4666 555.378 89.4555C553.315 93.4662 550.535 97.2377 547.114 100.661C543.682 104.096 539.848 106.976 535.722 109.226C531.617 111.465 527.262 112.933 522.787 113.596C518.617 114.215 514.556 113.824 510.7 112.422C510.635 111.357 510.581 110.117 510.516 108.704C510.44 106.965 510.364 105.161 510.288 103.303C510.212 101.455 510.157 99.6615 510.114 97.9225C510.07 96.1943 510.06 94.7161 510.06 93.5097C510.06 92.3032 510.016 91.0968 509.94 89.749C509.864 88.4665 509.864 87.1513 509.94 85.8362C510.016 84.5102 510.168 83.2385 510.385 82.0429C510.592 80.9343 510.961 79.9343 511.482 79.0757C513.643 75.6411 516.054 72.3369 518.661 69.2501C521.224 66.2068 524.188 63.6635 527.468 61.6962C530.987 59.642 534.342 58.2725 537.427 57.6095C540.489 56.9573 543.324 56.8704 545.865 57.3269C548.374 57.7834 550.567 58.729 552.381 60.1311C554.216 61.544 555.682 63.2939 556.747 65.3482C558.68 69.0002 559.462 72.9456 559.071 77.0758V77.1193Z" fill="black"/>
<path d="M704.333 31.5325C700.912 29.5869 697.035 28.1848 692.81 27.3697C688.629 26.5654 684.448 26.1523 680.387 26.1523C674.653 26.1523 668.897 26.8262 663.271 28.174C657.961 29.4456 652.802 31.2934 647.926 33.6845C647.036 32.4237 646.058 31.2934 645.005 30.3043C643.593 28.9783 641.736 28.3044 639.488 28.3044C636.958 28.3044 634.699 29.5109 632.787 31.8912C631.017 34.0976 629.486 36.9344 628.237 40.3255C627.01 43.6623 625.978 47.4229 625.185 51.5205C624.382 55.5964 623.752 59.6179 623.296 63.4872C622.84 67.4001 622.514 70.9977 622.329 74.1823C622.145 77.3887 622.047 79.8342 622.047 81.4645C622.047 83.2688 622.09 85.7034 622.156 88.7141C622.232 91.7792 622.438 95.1486 622.785 98.7353C623.133 102.333 623.632 106.039 624.273 109.735C624.925 113.506 625.859 116.963 627.053 120.006C628.27 123.114 629.812 125.69 631.636 127.679C633.58 129.799 635.991 130.875 638.793 130.875C642.192 130.875 644.733 129.658 646.341 127.266C647.861 125.006 648.621 122.419 648.621 119.549C648.621 116.495 648.502 113.408 648.274 110.376C648.067 107.648 647.894 104.92 647.752 102.268C650.402 101.8 653.063 101.387 655.68 101.018C658.688 100.605 661.708 100.083 664.651 99.4744C668.256 98.7788 672.079 97.7136 675.999 96.3007C679.93 94.8877 683.851 93.1269 687.63 91.0618C691.409 88.9967 695.048 86.6164 698.458 83.9753C701.879 81.3232 704.93 78.3125 707.504 75.0301C710.089 71.7477 712.185 68.1609 713.738 64.3676C715.301 60.5418 716.094 56.4224 716.094 52.1292C716.094 47.086 714.986 42.8253 712.793 39.4777C710.621 36.1627 707.765 33.478 704.3 31.5107L704.333 31.5325ZM673.36 47.6512C675.358 47.4338 676.955 47.3142 678.128 47.3142C678.997 47.3142 680.256 47.3903 681.896 47.5425C683.493 47.6838 685.1 47.9664 686.664 48.3685C688.173 48.7598 689.498 49.3141 690.595 50.0423C691.496 50.6401 691.92 51.3466 691.92 52.2596C691.92 52.7922 691.757 53.4552 691.431 54.2269C689.835 57.9984 687.391 61.3678 684.155 64.2372C680.875 67.1501 677.139 69.6173 673.045 71.5738C668.94 73.541 664.596 75.041 660.155 76.0409C655.713 77.0409 651.467 77.5517 647.557 77.5517H646.71L646.829 59.5418C646.829 58.3136 647.34 57.205 648.382 56.1616C649.544 55.0095 651.086 53.9443 652.976 53.0204C654.92 52.064 657.114 51.2271 659.503 50.5314C661.914 49.825 664.346 49.2163 666.736 48.7381C669.125 48.249 671.351 47.8903 673.339 47.6729L673.36 47.6512Z" fill="black"/>
<path d="M750.673 58.3385C747.36 56.7407 743.711 56.1321 739.813 56.5342C735.936 56.9255 732.319 58.2298 729.04 60.4036C725.771 62.5774 723.001 65.5881 720.808 69.3487C718.592 73.142 717.474 77.6852 717.474 82.8589C717.474 85.8478 717.951 88.8042 718.896 91.6627C719.841 94.543 721.242 97.1407 723.056 99.4014C724.88 101.673 727.117 103.499 729.702 104.858C732.308 106.227 735.284 106.912 738.553 106.912C742.05 106.912 745.297 106.14 748.196 104.629C751.064 103.129 753.583 101.119 755.679 98.6189C757.764 96.1408 759.404 93.3148 760.577 90.2389C761.761 87.1412 762.358 83.8914 762.358 80.5873C762.358 74.7289 761.228 69.9139 759.013 66.262C756.787 62.61 753.985 59.9471 750.662 58.3493L750.673 58.3385ZM747.925 80.4677C747.925 83.7719 747.056 86.2717 745.275 88.1303C743.472 89.9998 741.561 91.0106 739.422 91.2171C737.337 91.4128 735.469 90.7389 733.72 89.1629C731.993 87.6086 731.125 84.9566 731.125 81.272C731.125 78.9026 731.559 76.9353 732.406 75.4462C733.264 73.9463 734.317 72.7942 735.555 72.0225C736.794 71.2508 738.097 70.8813 739.53 70.8813C740.964 70.8813 742.289 71.2291 743.538 71.9356C744.765 72.6312 745.818 73.7072 746.665 75.131C747.501 76.544 747.936 78.3483 747.936 80.4894L747.925 80.4677Z" fill="black"/>
<path d="M793.221 83.9338C795.263 83.7817 797.348 83.4665 799.401 82.9991C801.518 82.5209 803.386 81.7818 804.95 80.8145C806.742 79.7167 807.687 78.0537 807.687 76.0212C807.687 73.8583 806.948 72.1845 805.504 71.065C804.136 70.0107 802.485 69.4781 800.585 69.4781C799.89 69.4781 799.042 69.5216 798 69.5977C797.012 69.6738 795.98 69.7498 794.883 69.8259C793.765 69.902 792.7 69.9998 791.712 70.1194C791.354 70.1629 791.017 70.1955 790.713 70.2172C790.843 69.7281 791.017 69.2173 791.212 68.6738L792.516 65.0871C792.972 63.8263 793.384 62.5763 793.732 61.3807C794.101 60.1199 794.286 58.957 794.286 57.9461C794.286 55.6202 793.602 53.9355 792.255 52.9247C791.006 51.99 789.258 51.5117 787.064 51.5117C784.87 51.5117 782.915 52.2725 781.46 53.7725C780.124 55.1528 779.006 56.8375 778.126 58.8048C777.268 60.7069 776.562 62.7611 776.019 64.8914C775.563 66.6739 775.14 68.2717 774.738 69.6303C773.88 69.8259 773.033 70.0216 772.197 70.2389C771.078 70.5324 770.046 70.9563 769.134 71.4889C768.146 72.0758 767.342 72.8692 766.756 73.8583C766.169 74.8583 765.865 76.1517 765.865 77.7059C765.865 78.9885 766.202 80.1188 766.854 81.0536C767.462 81.934 768.244 82.6622 769.156 83.2274C770.003 83.7491 770.926 84.2056 771.903 84.5751C772.544 84.8142 773.174 85.0316 773.782 85.2164C773.717 87.9554 774.032 90.553 774.705 92.9442C775.465 95.618 776.704 97.9874 778.387 99.9982C780.081 102.009 782.22 103.607 784.74 104.726C787.249 105.846 790.17 106.411 793.417 106.411C794.633 106.411 795.969 106.248 797.403 105.933C798.858 105.607 800.237 105.096 801.497 104.4C802.789 103.694 803.897 102.748 804.787 101.618C805.732 100.4 806.21 98.9004 806.21 97.1396C806.21 95.1397 805.645 93.4551 804.538 92.1182C803.365 90.7161 801.801 90.0639 800.009 90.2596C797.109 90.553 794.872 90.7052 793.363 90.7052C791.69 90.7052 790.854 90.4226 790.452 90.1726C790.159 89.9987 789.768 89.6618 789.67 88.7705C789.562 87.7923 789.507 86.4337 789.507 84.7382V84.2273C790.507 84.1186 791.745 83.9991 793.221 83.8904V83.9338Z" fill="black"/>
<path d="M859.739 94.3145C859.196 93.5862 858.664 92.8798 858.132 92.1841C857.675 91.5864 857.306 90.9234 857.056 90.2169C856.329 88.0974 855.808 85.8584 855.514 83.5542C855.221 81.2282 855.069 78.924 855.069 76.6959C855.069 74.4677 855.178 72.1092 855.406 69.9245C855.634 67.6529 855.753 65.3052 855.753 62.9358C855.753 61.8489 855.699 60.7402 855.579 59.6316C855.449 58.4577 855.156 57.36 854.678 56.3818C854.179 55.3384 853.44 54.4797 852.484 53.8493C851.507 53.1972 850.215 52.8711 848.64 52.8711C846.913 52.8711 845.491 53.4145 844.405 54.5014C843.623 55.284 842.873 56.1535 842.178 57.0774H837.954C833.816 57.0774 830.102 57.7404 826.92 59.0338C823.705 60.3381 820.99 62.2401 818.851 64.6639C816.723 67.0768 815.083 69.9788 813.975 73.283C812.878 76.5546 812.324 80.2283 812.324 84.1955C812.324 86.4671 812.585 88.9235 813.084 91.5103C813.595 94.1406 814.453 96.6078 815.626 98.8577C816.831 101.151 818.438 103.086 820.404 104.607C822.446 106.194 824.976 106.999 827.941 106.999C829.581 106.999 831.079 106.749 832.415 106.249C833.718 105.759 834.946 105.075 836.097 104.227C837.194 103.401 838.247 102.488 839.224 101.51C839.941 100.792 840.647 100.053 841.32 99.2816L843.286 101.086C844.274 101.988 845.328 102.836 846.425 103.575C847.543 104.336 848.738 104.966 849.997 105.455C851.29 105.955 852.702 106.216 854.2 106.216C856.155 106.216 857.914 105.694 859.413 104.662C861.042 103.542 861.867 101.825 861.867 99.5642C861.867 98.4773 861.639 97.4882 861.172 96.6078C860.77 95.847 860.282 95.0753 859.728 94.3145H859.739ZM828.354 90.5212C828.354 90.5212 827.007 90.3799 827.007 83.8803C827.007 82.4347 827.148 80.9348 827.441 79.424C827.724 77.9567 828.212 76.5981 828.907 75.3807C829.581 74.196 830.45 73.2287 831.492 72.4896C832.469 71.794 833.773 71.4353 835.347 71.4353C835.695 71.4353 836.086 71.457 836.509 71.4896C836.553 71.4896 836.585 71.4896 836.618 71.4896C836.26 73.8156 835.825 76.0546 835.315 78.1523C834.728 80.5652 833.881 82.9021 832.784 85.0867C830.232 90.1951 828.744 90.5212 828.354 90.5103V90.5212Z" fill="black"/>
<path d="M891.146 83.9338C893.188 83.7817 895.273 83.4665 897.326 82.9991C899.443 82.5209 901.311 81.7818 902.875 80.8145C904.667 79.7167 905.612 78.0537 905.612 76.0212C905.612 73.8583 904.873 72.1845 903.429 71.065C902.061 70.0107 900.41 69.4781 898.509 69.4781C897.814 69.4781 896.967 69.5216 895.925 69.5977C894.936 69.6738 893.905 69.7498 892.808 69.8259C891.689 69.902 890.625 69.9998 889.637 70.1194C889.278 70.1629 888.942 70.1955 888.638 70.2172C888.768 69.7281 888.942 69.2173 889.137 68.6738L890.44 65.0871C890.896 63.8263 891.309 62.5763 891.657 61.3807C892.026 60.1199 892.211 58.957 892.211 57.9461C892.211 55.6202 891.526 53.9355 890.18 52.9247C888.931 51.99 887.182 51.5117 884.989 51.5117C882.795 51.5117 880.84 52.2725 879.385 53.7725C878.049 55.1528 876.931 56.8375 876.051 58.8048C875.193 60.7069 874.487 62.7611 873.944 64.8914C873.488 66.6739 873.064 68.2717 872.663 69.6303C871.805 69.8259 870.958 70.0216 870.121 70.2389C869.003 70.5324 867.971 70.9563 867.059 71.4889C866.071 72.0758 865.267 72.8692 864.681 73.8583C864.094 74.8583 863.79 76.1517 863.79 77.7059C863.79 78.9885 864.127 80.1188 864.778 81.0536C865.386 81.934 866.168 82.6622 867.081 83.2274C867.928 83.7491 868.851 84.2056 869.828 84.5751C870.469 84.8142 871.099 85.0316 871.707 85.2164C871.642 87.9554 871.957 90.553 872.63 92.9442C873.39 95.618 874.628 97.9874 876.312 99.9982C878.006 102.009 880.145 103.607 882.665 104.726C885.173 105.846 888.095 106.411 891.342 106.411C892.558 106.411 893.894 106.248 895.327 105.933C896.783 105.607 898.162 105.096 899.422 104.4C900.714 103.694 901.822 102.748 902.712 101.618C903.657 100.4 904.135 98.9004 904.135 97.1396C904.135 95.1397 903.57 93.4551 902.462 92.1182C901.289 90.7161 899.726 90.0639 897.934 90.2596C895.034 90.553 892.797 90.7052 891.287 90.7052C889.615 90.7052 888.779 90.4226 888.377 90.1726C888.084 89.9987 887.693 89.6618 887.595 88.7705C887.486 87.7923 887.432 86.4337 887.432 84.7382V84.2273C888.431 84.1186 889.669 83.9991 891.146 83.8904V83.9338Z" fill="black"/>
<path d="M943.219 58.3385C939.907 56.7407 936.247 56.1321 932.359 56.5342C928.482 56.9255 924.866 58.2298 921.586 60.4036C918.317 62.5774 915.548 65.5881 913.355 69.3487C911.139 73.142 910.021 77.6852 910.021 82.8589C910.021 85.8478 910.498 88.8042 911.443 91.6627C912.388 94.543 913.789 97.1407 915.602 99.4014C917.427 101.673 919.664 103.499 922.249 104.858C924.855 106.227 927.831 106.912 931.1 106.912C934.597 106.912 937.844 106.14 940.743 104.629C943.61 103.129 946.13 101.119 948.226 98.6189C950.311 96.1408 951.951 93.3148 953.124 90.2389C954.307 87.1412 954.905 83.8914 954.905 80.5873C954.905 74.7289 953.775 69.9139 951.56 66.262C949.334 62.61 946.532 59.9471 943.209 58.3493L943.219 58.3385ZM940.472 80.4677C940.472 83.7719 939.603 86.2717 937.822 88.1303C936.019 89.9998 934.108 91.0106 931.968 91.2171C929.872 91.4128 928.015 90.7389 926.267 89.1629C924.54 87.6086 923.671 84.9566 923.671 81.272C923.671 78.9026 924.106 76.9353 924.953 75.4462C925.811 73.9463 926.864 72.7942 928.102 72.0225C929.34 71.2508 930.644 70.8813 932.077 70.8813C933.511 70.8813 934.836 71.2291 936.084 71.9356C937.312 72.6312 938.365 73.7072 939.212 75.131C940.048 76.544 940.483 78.3483 940.483 80.4894L940.472 80.4677Z" fill="black"/>
<path d="M1063.79 111.767C1061.86 111.767 1059.91 112.093 1057.99 112.734C1056.15 113.354 1054.26 114.049 1052.36 114.799C1050.51 115.538 1048.58 116.223 1046.65 116.821C1044.79 117.397 1042.84 117.68 1040.84 117.68C1036.07 117.68 1031.97 116.604 1028.64 114.495C1025.29 112.365 1022.54 109.484 1020.48 105.941C1018.39 102.365 1016.95 98.2351 1016.18 93.6918C1015.4 89.1051 1015.19 84.3337 1015.57 79.5187C1015.94 74.7038 1016.88 69.9214 1018.36 65.3347C1019.84 60.7589 1021.85 56.6069 1024.35 52.9984C1026.83 49.4226 1029.81 46.5205 1033.18 44.3685C1036.52 42.2599 1040.31 41.1839 1044.48 41.1839C1046.78 41.1839 1048.72 41.6186 1050.26 42.4664C1051.9 43.3794 1053.39 44.3794 1054.7 45.4336C1056.07 46.5423 1057.36 47.564 1058.57 48.5096C1059.98 49.6073 1061.54 50.1616 1063.22 50.1616C1066.78 50.1616 1068.38 48.4009 1069.09 46.9336C1069.99 45.0532 1070.44 42.9773 1070.44 40.7817C1070.44 37.3906 1069.48 34.2603 1067.59 31.4779C1065.74 28.7715 1063.42 26.4238 1060.67 24.4891C1057.93 22.5762 1054.89 21.098 1051.62 20.0763C1048.35 19.0655 1045.23 18.5547 1042.33 18.5547C1034.75 18.5547 1027.89 20.2829 1021.97 23.7066C1016.07 27.1086 1011.02 31.6409 1006.98 37.195C1002.95 42.7273 999.811 49.1074 997.672 56.1613C995.532 63.1935 994.338 70.4757 994.099 77.8232C993.871 85.1706 994.642 92.4637 996.401 99.4959C998.16 106.561 1001.01 112.963 1004.86 118.495C1008.73 124.06 1013.71 128.614 1019.7 132.005C1025.7 135.418 1032.93 137.146 1041.19 137.146C1042.59 137.146 1044.36 137.005 1046.44 136.744C1048.53 136.472 1050.73 136.048 1052.99 135.472C1055.25 134.896 1057.53 134.157 1059.77 133.266C1062.03 132.375 1064.08 131.298 1065.88 130.092C1067.72 128.853 1069.24 127.429 1070.41 125.864C1071.65 124.201 1072.27 122.277 1072.27 120.158C1072.27 117.897 1071.41 115.908 1069.73 114.267C1068.04 112.626 1066.06 111.8 1063.8 111.8L1063.79 111.767Z" fill="black"/>
<path d="M1098.61 59.0887C1098.61 56.8606 1097.92 54.9042 1096.54 53.2738C1095.12 51.5891 1093.12 50.7305 1090.6 50.7305C1088.55 50.7305 1086.77 51.5348 1085.31 53.1325C1083.98 54.589 1082.85 56.4584 1081.92 58.6866C1081.02 60.8712 1080.32 63.3385 1079.82 66.0014C1079.33 68.6099 1078.92 71.2293 1078.61 73.8053C1078.31 76.3595 1078.11 78.7833 1078.04 81.0005C1077.96 83.2069 1077.92 84.9351 1077.92 86.1524C1077.92 87.7936 1078.07 89.7501 1078.38 91.9891C1078.7 94.2498 1079.25 96.4562 1080.03 98.5322C1080.84 100.662 1081.97 102.51 1083.38 104.01C1084.91 105.63 1086.91 106.456 1089.34 106.456C1091.21 106.456 1092.76 106.075 1093.96 105.325C1095.14 104.586 1096.06 103.586 1096.73 102.358C1097.36 101.184 1097.77 99.8582 1097.97 98.4235C1098.17 97.054 1098.27 95.6736 1098.27 94.3476C1098.27 91.1304 1098.09 87.9023 1097.75 84.7395C1097.41 81.6527 1097.25 78.4681 1097.25 75.2509C1097.25 72.6749 1097.47 70.012 1097.91 67.36C1098.38 64.5884 1098.6 61.8168 1098.6 59.1104L1098.61 59.0887Z" fill="black"/>
<path d="M1151.41 90.4541V90.4323C1151.03 88.8455 1150.61 86.9977 1150.16 84.8892C1149.7 82.7697 1149.29 80.5416 1148.92 78.2917C1148.55 76.0201 1148.27 73.7485 1148.07 71.5529C1147.89 69.39 1147.86 67.4445 1148.02 65.7706C1148.1 64.7816 1148 63.8251 1147.68 62.923C1147.37 62.0208 1146.87 61.2057 1146.19 60.4883C1145.54 59.7927 1144.77 59.2167 1143.9 58.7819C1143 58.3254 1142.07 58.0971 1141.14 58.0971C1139.47 58.0971 1138.07 58.6949 1136.99 59.8688C1136.05 60.9013 1135.19 62.26 1134.47 63.9229C1133.78 65.5207 1133.13 67.3249 1132.55 69.2813C1132 71.1616 1131.34 73.0855 1130.6 74.9875C1129.86 76.857 1128.99 78.683 1127.99 80.4111C1127.06 82.0415 1125.88 83.4327 1124.51 84.5522C1124.15 84.7696 1123.72 85.0196 1123.22 85.3022C1122.72 85.5848 1122.49 85.6174 1122.4 85.6174C1121.93 85.6174 1121.62 85.4217 1121.32 84.9761C1120.91 84.3348 1120.6 83.5631 1120.4 82.661C1120.18 81.6828 1120.04 80.672 1119.97 79.6394C1119.89 78.5743 1119.86 77.6939 1119.86 77.0418C1119.86 74.6615 1120.22 72.3464 1120.94 70.1617C1121.74 67.7488 1122.13 65.2815 1122.13 62.836C1122.13 60.5753 1121.39 58.6949 1119.93 57.2385C1118.48 55.7821 1116.71 55.043 1114.68 55.043C1112.5 55.043 1110.69 55.9886 1109.27 57.858C1107.99 59.5318 1106.94 61.5643 1106.15 63.912C1105.37 66.2054 1104.83 68.6292 1104.51 71.1182C1104.21 73.5746 1104.04 75.6505 1104.04 77.2809C1104.04 80.1612 1104.36 83.0849 1104.98 85.976C1105.61 88.9107 1106.6 91.617 1107.93 94.0082C1109.29 96.4537 1111.06 98.4645 1113.19 99.9861C1115.37 101.551 1118.05 102.345 1121.15 102.345C1124.24 102.345 1127.09 101.551 1129.42 99.997C1131.25 98.7797 1133.08 97.3015 1134.89 95.606C1135.23 96.345 1135.6 97.0733 1135.98 97.7906C1136.62 98.9971 1137.36 100.084 1138.17 101.008C1139 101.964 1139.93 102.747 1140.94 103.334C1142.01 103.964 1143.3 104.279 1144.78 104.279C1146.64 104.279 1148.14 103.79 1149.24 102.812C1150.3 101.888 1151.06 100.682 1151.5 99.2362C1151.92 97.8776 1152.09 96.3885 1152 94.8234C1151.93 93.3343 1151.72 91.867 1151.41 90.4432V90.4541Z" fill="black"/>
<path d="M1198.54 75.8683C1197.4 73.3141 1195.84 70.9556 1193.91 68.8687C1191.98 66.7819 1189.76 65.0537 1187.32 63.7603C1183.17 61.5539 1178.58 61.2278 1174.33 62.543C1173.4 62.8365 1172.46 63.1734 1171.55 63.5538C1171.58 63.4234 1171.63 63.2821 1171.67 63.1408C1172.02 61.9235 1172.35 60.6409 1172.7 59.304C1173.05 57.978 1173.34 56.7607 1173.61 55.6521C1173.99 54.0652 1174.04 53.4783 1174.04 53.1848C1174.04 51.5762 1173.42 50.2176 1172.19 49.1307C1171.01 48.0873 1169.62 47.5547 1168.06 47.5547C1166.13 47.5547 1164.47 48.4242 1163.12 50.1306C1161.92 51.6632 1160.89 53.663 1160.05 56.076C1159.23 58.4345 1158.59 61.0648 1158.13 63.869C1157.67 66.6623 1157.3 69.4122 1157.04 72.0642C1156.77 74.7488 1156.6 77.227 1156.53 79.4116C1156.45 81.5746 1156.42 83.2701 1156.42 84.4548C1156.42 85.933 1156.48 87.9655 1156.6 90.4762C1156.72 93.0739 1157.06 95.6825 1157.65 98.2258C1158.24 100.834 1159.13 103.117 1160.28 105.03C1161.56 107.16 1163.51 108.28 1165.92 108.28C1168.01 108.28 1169.56 107.638 1170.53 106.378C1171.18 105.53 1171.81 104.541 1172.41 103.421C1177.11 104.334 1181.66 104.084 1186.06 102.465C1188.74 101.476 1191.16 100.095 1193.25 98.3562C1195.35 96.6063 1197.07 94.4652 1198.35 91.9979C1199.63 89.5089 1200.3 86.6938 1200.3 83.6505C1200.3 81.0855 1199.71 78.466 1198.56 75.8792L1198.54 75.8683ZM1178.63 77.227C1178.93 77.227 1179.25 77.3465 1179.59 77.5856C1180.03 77.9117 1180.43 78.2921 1180.78 78.7378C1181.13 79.1834 1181.4 79.6616 1181.58 80.1507C1181.77 80.629 1181.86 81.0746 1181.86 81.4767C1181.86 82.6723 1181.33 83.1506 1180.93 83.4005C1180.11 83.9331 1179.1 84.3244 1177.95 84.5635C1176.74 84.8135 1175.48 84.9439 1174.19 84.9439C1173.52 84.9439 1172.9 84.9439 1172.32 84.9765C1172.46 84.5853 1172.62 84.1614 1172.81 83.7049C1173.23 82.6397 1173.78 81.5963 1174.42 80.5963C1175.05 79.6181 1175.76 78.7812 1176.55 78.0965C1177.22 77.5096 1177.89 77.227 1178.62 77.227H1178.63Z" fill="black"/>
</g>
<defs>
<clipPath id="clip0_1034_15726">
<rect width="1200" height="167" fill="white"/>
</clipPath>
</defs>
</svg>
