<svg width="280" height="134" viewBox="0 0 280 134" fill="none" xmlns="http://www.w3.org/2000/svg">
<path d="M45.2071 39.8861C45.2071 35.9012 45.2702 31.8636 45.3963 27.8998C45.5225 23.8991 45.5908 19.8563 45.5908 15.8819C45.5908 15.2292 45.533 14.5765 45.4173 13.9448C45.2964 13.2762 45.0651 12.6761 44.7392 12.1603C44.4028 11.6338 43.9455 11.1969 43.383 10.8653C42.81 10.5231 42.1004 10.3494 41.2751 10.3494C40.5917 10.3494 39.961 10.5231 39.4037 10.8706C38.8571 11.2075 38.4155 11.6549 38.0791 12.1971C37.7637 12.713 37.4483 13.4184 37.1224 14.3659C36.807 15.2713 36.5073 16.3399 36.2287 17.5296C35.9554 18.7087 35.6926 19.9563 35.456 21.2408C35.2195 22.5094 34.9987 23.7728 34.7937 24.994C34.5887 26.2311 34.4099 27.3629 34.268 28.363C34.1576 29.1421 34.0683 29.8054 33.9947 30.3528C31.1876 30.1581 28.3333 30.1002 25.5105 30.1686C22.7402 30.237 19.9437 30.4002 17.1839 30.6582C17.2628 30.0844 17.3732 29.4264 17.5151 28.7052C17.7149 27.6892 17.9514 26.6154 18.2248 25.5099C18.4981 24.3939 18.7925 23.2516 19.1026 22.0777C19.4128 20.8986 19.6966 19.7984 19.9542 18.7666C20.2118 17.7454 20.422 16.8137 20.5902 15.9925C20.7637 15.145 20.8478 14.4817 20.8478 13.9606C20.8478 12.8288 20.4063 11.8181 19.5337 10.9706C18.6663 10.1231 17.657 9.69141 16.5269 9.69141C15.3967 9.69141 14.2875 10.1231 13.2993 10.9758C12.3584 11.7812 11.5015 12.8235 10.7446 14.0764C10.0034 15.3029 9.31476 16.6873 8.69973 18.1981C8.08996 19.7036 7.5643 21.2092 7.14377 22.6831C6.72324 24.1518 6.35527 25.552 6.06616 26.8417C5.77179 28.1314 5.56678 29.1842 5.45113 29.9686C5.3828 30.4581 5.29343 30.8898 5.1883 31.2477C5.09894 31.5688 4.96752 31.8478 4.80457 32.0689C4.64687 32.2848 4.42083 32.4795 4.13697 32.6427C3.8426 32.8164 3.4431 32.9533 2.94372 33.0533C1.9765 33.2639 1.23531 33.7113 0.735929 34.3851C0.247062 35.0431 0 35.8643 0 36.8171C0 37.612 0.162956 38.2805 0.494124 38.8017C0.814779 39.3123 1.23531 39.7281 1.7452 40.0229C2.22881 40.3072 2.7755 40.5177 3.37476 40.6599C3.81106 40.7599 4.24736 40.8599 4.68366 40.9494L5.06214 43.234C5.24612 44.3394 5.48793 45.5449 5.7823 46.8188C6.07667 48.098 6.43412 49.3877 6.83888 50.6616C7.2489 51.9565 7.75354 53.1515 8.33703 54.2201C8.93103 55.315 9.61439 56.2152 10.3713 56.8942C11.1809 57.6207 12.1218 57.9944 13.1679 57.9944C14.3401 57.9944 15.3441 57.5575 16.1589 56.6995C16.9684 55.8519 17.3732 54.8307 17.3732 53.6674C17.3732 52.962 17.2313 52.3356 16.9579 51.7986C16.7424 51.388 16.5847 50.9248 16.4848 50.43C16.3061 49.5088 16.1904 48.5823 16.1379 47.6611C16.0853 46.7504 16.059 45.8081 16.059 44.8553C16.059 44.0078 16.0748 43.1814 16.1116 42.4023C16.1379 41.7548 16.1852 41.0968 16.2378 40.4335C17.4415 40.3124 18.64 40.2282 19.8123 40.1808C22.9032 40.0545 26.0782 40.0966 29.1901 40.1282C30.8039 40.144 32.4545 40.1387 34.0893 40.1071C34.1629 40.6862 34.2628 41.4337 34.3889 42.3444C34.5571 43.5288 34.7674 44.8343 35.025 46.2187C35.2825 47.6137 35.6085 49.0666 35.9975 50.5247C36.3864 51.9934 36.8385 53.3515 37.3379 54.557C37.853 55.7993 38.4681 56.8311 39.1619 57.6207C39.9242 58.4892 40.7968 58.9262 41.7535 58.9262C42.8416 58.9262 43.7983 58.5471 44.6131 57.7944C45.4384 57.0311 45.8536 56.0888 45.8536 54.9834C45.8536 52.4566 45.7433 49.9036 45.5225 47.3926C45.307 44.9238 45.1966 42.4023 45.1966 39.8966L45.2071 39.8861Z" fill="#FFDC5A"/>
<path d="M94.215 37.7331C93.9943 37.4594 93.7787 37.1488 93.5737 36.8014C93.4581 36.6066 93.3162 36.2118 93.3162 35.4222C93.3162 34.0114 93.2951 32.2848 93.2636 30.2897C93.2268 28.3052 93.1059 26.2048 92.9061 24.0571C92.7011 21.8988 92.3752 19.73 91.9337 17.6086C91.4869 15.4609 90.8245 13.5132 89.9624 11.8076C89.0846 10.0757 87.9491 8.6439 86.5772 7.5595C85.1684 6.44352 83.4127 5.875 81.3573 5.875C79.302 5.875 77.131 6.50669 75.165 7.74374C73.2463 8.95974 71.4118 10.5547 69.7139 12.4972C68.0317 14.4238 66.4495 16.6347 65.0092 19.072C63.5846 21.4882 62.2705 23.9676 61.1088 26.4417C59.9523 28.9053 58.922 31.3057 58.0441 33.5797C57.2241 35.7012 56.546 37.5436 56.0151 39.0754C55.4684 39.0544 54.8534 38.9965 54.1858 38.8964C53.2869 38.7648 52.43 38.7227 51.6258 38.7806C50.7637 38.8438 50.0225 39.086 49.4127 39.5071C48.7346 39.9756 48.3877 40.8284 48.3877 42.0338C48.3877 43.0656 48.6453 43.9236 49.1552 44.5869C49.6388 45.2133 50.2538 45.7187 50.9845 46.0872C51.6783 46.4346 52.43 46.7083 53.2133 46.8978C53.8073 47.0452 54.3592 47.1768 54.8744 47.2979C54.8691 47.8032 54.8534 48.3875 54.8218 49.0613C54.785 49.9141 54.7745 50.8248 54.7955 51.7671C54.8166 52.7146 54.8796 53.6674 54.99 54.5991C55.1057 55.5625 55.3212 56.4363 55.6261 57.2101C55.9467 58.0208 56.4146 58.6893 57.0086 59.2052C57.6341 59.7474 58.4436 60.0211 59.4161 60.0211C60.6357 60.0211 61.5766 59.4263 62.1391 58.2998C62.6384 57.3049 62.9959 56.1205 63.2061 54.7886C63.4112 53.4937 63.5689 52.1461 63.6792 50.7827C63.7686 49.6772 63.9211 48.7718 64.1313 48.0822C67.422 48.1507 70.639 48.1559 73.6931 48.1033C76.6789 48.0506 79.7172 47.8243 82.724 47.4295C82.7451 47.9506 82.7503 48.5349 82.7503 49.1719C82.7503 50.072 82.7714 50.9985 82.8081 51.9197C82.8449 52.8567 82.929 53.7885 83.0605 54.6992C83.1919 55.6414 83.4389 56.5047 83.7911 57.268C84.1538 58.0576 84.6532 58.6998 85.2683 59.1736C85.9096 59.6684 86.7401 59.9158 87.7336 59.9158C89.1319 59.9158 90.2463 59.4473 91.0453 58.5209C91.7865 57.6628 92.3489 56.6047 92.7169 55.3835C93.0744 54.1938 93.2951 52.9304 93.3687 51.6302C93.4423 50.3563 93.4791 49.2245 93.4791 48.2559L93.4265 45.6555C93.395 44.9343 93.4633 44.3869 93.6263 44.0236C93.805 43.6236 94.01 43.2814 94.2256 42.9972C94.4674 42.6813 94.7039 42.3602 94.9247 42.0444C95.2138 41.639 95.3505 41.0968 95.3505 40.3914C95.3505 39.6861 95.2086 39.1386 94.9352 38.7227C94.7144 38.3858 94.4726 38.0595 94.215 37.7489V37.7331ZM82.9343 39.1386C81.8567 39.2544 80.6424 39.3386 79.3283 39.386C77.8196 39.4386 76.2531 39.4702 74.6709 39.4702H66.5389C66.7176 38.8754 66.9646 38.1647 67.2748 37.3488C67.7163 36.196 68.2368 34.9273 68.8308 33.5745C69.43 32.2111 70.1134 30.7951 70.8493 29.3632C71.5852 27.9419 72.3474 26.5522 73.1202 25.2309C73.8771 23.9307 74.6551 22.7253 75.4278 21.6356C76.19 20.567 76.9207 19.7037 77.5883 19.0667C79.3072 17.4349 80.0379 17.9508 80.2797 18.1245C81.0472 18.6719 81.6622 19.8932 82.1038 21.7514C82.5716 23.7096 82.8607 26.2627 82.9711 29.3316C83.0762 32.2953 83.0605 35.5906 82.9343 39.1386Z" fill="#FFDC5A"/>
<path d="M134.98 30.5063C132.767 29.5588 130.296 28.8587 127.626 28.4323C124.981 28.0111 122.364 27.6637 119.846 27.411C115.993 27.0162 113.38 26.3793 112.082 25.516C111.577 25.1791 111.298 24.8211 111.256 24.4526C111.204 24.0052 111.467 23.463 112.045 22.8366C113.091 21.6837 114.568 20.6836 116.434 19.8519C118.327 19.0096 120.387 18.3832 122.553 17.9884C124.724 17.5936 126.905 17.4304 129.04 17.4988C131.158 17.5725 133.014 17.8936 134.591 18.4674C135.253 18.678 135.805 18.8991 136.236 19.1201C136.767 19.3991 137.303 19.536 137.829 19.536C138.544 19.536 139.206 19.3623 139.795 19.0254C140.373 18.6938 140.862 18.2463 141.256 17.6883C141.634 17.1514 141.934 16.5302 142.155 15.8354C142.37 15.1405 142.481 14.4299 142.481 13.7245C142.481 11.9294 141.876 10.4555 140.694 9.34479C139.569 8.29198 138.197 7.46026 136.614 6.87068C135.058 6.29164 133.445 5.9021 131.815 5.71259C130.207 5.52835 128.861 5.43359 127.825 5.43359C126.259 5.43359 124.456 5.63889 122.469 6.04949C120.487 6.46009 118.453 7.06019 116.424 7.83401C114.389 8.61309 112.355 9.59747 110.379 10.7608C108.392 11.9347 106.604 13.3034 105.08 14.8352C103.545 16.3723 102.283 18.1042 101.327 19.9782C100.359 21.8785 99.8652 23.9789 99.8652 26.2214C99.8652 28.2901 100.412 29.9483 101.484 31.1433C102.53 32.3066 103.923 33.1962 105.632 33.7963C107.293 34.3754 109.196 34.7755 111.283 34.9808C113.338 35.1808 115.462 35.3229 117.585 35.3966C119.693 35.4703 121.764 35.5809 123.751 35.7283C125.707 35.8704 127.452 36.1599 128.95 36.5916H128.971C130.806 37.0495 132.183 37.7339 133.066 38.6288C133.928 39.5078 134.344 40.3764 134.344 41.2871C134.344 42.1978 133.944 43.0506 133.119 43.8928C132.278 44.7509 130.99 45.3983 129.302 45.8142C127.799 46.1721 125.933 46.4301 123.751 46.5722C121.559 46.7196 118.931 46.7933 115.951 46.7933C115.215 46.7933 114.442 46.7196 113.648 46.5827C112.839 46.4406 112.05 46.2827 111.304 46.1195C110.557 45.9563 109.869 45.7984 109.248 45.651C108.575 45.4931 108.013 45.4194 107.535 45.4194C106.289 45.4194 105.295 45.9721 104.591 47.0618C103.934 48.083 103.597 49.2253 103.597 50.4571C103.597 51.6889 103.923 52.7575 104.565 53.7208C105.185 54.6578 106.01 55.4737 107.02 56.1528C108.003 56.8161 109.122 57.3793 110.347 57.832C111.551 58.2795 112.776 58.6427 113.985 58.927C115.188 59.206 116.361 59.406 117.459 59.5165C118.553 59.6271 119.488 59.685 120.235 59.685C121.691 59.685 123.278 59.5165 124.955 59.1796C126.627 58.8427 128.309 58.3321 129.944 57.6636C131.579 56.9951 133.192 56.1423 134.733 55.1421C136.288 54.1314 137.666 52.9312 138.833 51.5731C140 50.2149 140.956 48.6568 141.666 46.946C142.386 45.2194 142.754 43.3085 142.754 41.266C142.754 38.5077 142.008 36.2336 140.541 34.507C139.101 32.8172 137.229 31.4749 134.985 30.5116L134.98 30.5063Z" fill="#FFDC5A"/>
<path d="M191.741 39.8861C191.741 35.9012 191.804 31.8636 191.93 27.8998C192.057 23.8991 192.125 19.8563 192.125 15.8819C192.125 15.2292 192.067 14.5765 191.952 13.9448C191.831 13.2762 191.599 12.6761 191.273 12.1603C190.937 11.6338 190.48 11.1969 189.917 10.8653C189.344 10.5231 188.635 10.3494 187.809 10.3494C187.126 10.3494 186.495 10.5231 185.938 10.8706C185.391 11.2075 184.95 11.6549 184.613 12.1971C184.298 12.713 183.982 13.4184 183.657 14.3659C183.341 15.2713 183.042 16.3399 182.763 17.5296C182.49 18.7087 182.227 19.9563 181.99 21.2408C181.754 22.5094 181.533 23.7728 181.328 24.994C181.123 26.2311 180.944 27.3629 180.802 28.363C180.692 29.1421 180.602 29.8054 180.529 30.3528C177.722 30.1581 174.867 30.1002 172.045 30.1686C169.274 30.237 166.478 30.4002 163.718 30.6582C163.797 30.0844 163.907 29.4264 164.049 28.7052C164.249 27.6892 164.486 26.6154 164.759 25.5099C165.032 24.3939 165.327 23.2516 165.637 22.0777C165.947 20.8986 166.231 19.7984 166.488 18.7666C166.746 17.7454 166.956 16.8137 167.124 15.9925C167.298 15.145 167.382 14.4817 167.382 13.9606C167.382 12.8288 166.94 11.8181 166.068 10.9706C165.201 10.1231 164.191 9.69141 163.061 9.69141C161.931 9.69141 160.822 10.1231 159.833 10.9758C158.893 11.7812 158.036 12.8235 157.279 14.0764C156.538 15.3029 155.849 16.6873 155.234 18.1981C154.624 19.7036 154.098 21.2092 153.678 22.6831C153.257 24.1518 152.889 25.552 152.6 26.8417C152.306 28.1314 152.101 29.1842 151.985 29.9686C151.917 30.4581 151.828 30.8898 151.722 31.2477C151.633 31.5688 151.502 31.8478 151.339 32.0689C151.181 32.2848 150.955 32.4795 150.671 32.6427C150.377 32.8164 149.977 32.9533 149.478 33.0533C148.511 33.2639 147.769 33.7113 147.27 34.3851C146.781 35.0431 146.534 35.8643 146.534 36.8171C146.534 37.612 146.697 38.2805 147.028 38.8017C147.349 39.3123 147.769 39.7281 148.279 40.0229C148.763 40.3072 149.31 40.5177 149.909 40.6599C150.345 40.7599 150.782 40.8599 151.218 40.9494L151.596 43.234C151.78 44.3394 152.022 45.5449 152.316 46.8188C152.611 48.098 152.968 49.3877 153.373 50.6616C153.783 51.9565 154.288 53.1515 154.871 54.2201C155.465 55.315 156.149 56.2152 156.906 56.8942C157.715 57.6207 158.656 57.9944 159.702 57.9944C160.874 57.9944 161.878 57.5575 162.693 56.6995C163.503 55.8519 163.907 54.8307 163.907 53.6674C163.907 52.962 163.765 52.3356 163.492 51.7986C163.277 51.388 163.119 50.9248 163.019 50.43C162.84 49.5088 162.725 48.5823 162.672 47.6611C162.619 46.7504 162.593 45.8081 162.593 44.8553C162.593 44.0078 162.609 43.1814 162.646 42.4023C162.672 41.7548 162.719 41.0968 162.772 40.4335C163.976 40.3124 165.174 40.2282 166.346 40.1808C169.437 40.0545 172.612 40.0966 175.724 40.1282C177.338 40.144 178.989 40.1387 180.623 40.1071C180.697 40.6862 180.797 41.4337 180.923 42.3444C181.091 43.5288 181.302 44.8343 181.559 46.2187C181.817 47.6137 182.143 49.0666 182.532 50.5247C182.921 51.9934 183.373 53.3515 183.872 54.557C184.387 55.7993 185.002 56.8311 185.696 57.6207C186.458 58.4892 187.331 58.9262 188.288 58.9262C189.376 58.9262 190.332 58.5471 191.147 57.7944C191.973 57.0311 192.388 56.0888 192.388 54.9834C192.388 52.4566 192.277 49.9036 192.057 47.3926C191.841 44.9238 191.731 42.4023 191.731 39.8966L191.741 39.8861Z" fill="#FFDC5A"/>
<path d="M233.242 10.3953C233.047 10.2953 232.611 10.1531 230.897 9.85308C229.657 9.63199 228.122 9.38984 226.345 9.1319C224.568 8.87396 222.65 8.60023 220.6 8.30545C218.534 8.01066 216.573 7.75272 214.76 7.53163C212.925 7.31054 211.327 7.1263 209.971 6.9789C208.578 6.82625 207.695 6.75781 207.274 6.75781C206.107 6.75781 205.103 7.03681 204.288 7.58953C203.484 8.13173 202.817 8.91081 202.307 9.88993C201.912 10.6006 201.571 11.5586 201.266 12.8273C200.977 14.0275 200.688 15.3961 200.409 16.9017C200.136 18.3914 199.883 19.9811 199.663 21.634C199.442 23.287 199.231 24.8925 199.032 26.4559C198.827 28.0193 198.648 29.467 198.48 30.8093C198.317 32.1464 198.175 33.2413 198.07 34.073C197.954 34.8416 197.744 35.189 197.586 35.3469C197.308 35.6259 197.003 35.8733 196.687 36.0734C196.298 36.3208 195.951 36.6103 195.667 36.9419C195.321 37.3367 195.152 37.921 195.152 38.7212C195.152 39.595 195.431 40.3267 195.988 40.9005C196.409 41.3427 196.892 41.727 197.418 42.0533C197.444 42.8377 197.449 43.7852 197.434 44.8749C197.413 46.1277 197.444 47.4648 197.518 48.8492C197.591 50.2337 197.733 51.6392 197.933 53.0289C198.138 54.4397 198.475 55.7399 198.927 56.8875C199.389 58.0666 200.031 59.0826 200.824 59.8985C201.655 60.7513 202.732 61.2672 203.994 61.4251C204.346 61.4882 204.714 61.5198 205.093 61.5198C205.187 61.5198 205.282 61.5198 205.371 61.5146C205.802 61.4988 206.239 61.4882 206.67 61.4882C210.076 61.4882 213.619 61.304 217.199 60.9355C220.773 60.567 224.274 60.0459 227.607 59.3879C228.227 59.2721 228.863 59.0773 229.504 58.8036C230.151 58.5298 230.75 58.1719 231.281 57.735C231.817 57.2981 232.275 56.7664 232.637 56.1663C233.016 55.5346 233.205 54.8345 233.205 54.0764C233.205 52.8657 232.779 51.855 231.933 51.0759C231.102 50.3074 230.077 49.9178 228.884 49.9178C227.265 49.9178 225.541 50.0126 223.769 50.1968C222.003 50.3811 220.2 50.5969 218.423 50.8338C216.626 51.0759 214.828 51.3233 213.03 51.576C211.432 51.8076 209.855 51.9761 208.331 52.0866C208.184 51.0128 208.068 49.9389 207.994 48.8913C207.905 47.6911 207.858 46.4541 207.858 45.2118C207.858 44.7433 207.868 44.2906 207.884 43.8536C207.894 43.5694 207.91 43.2851 207.931 42.9956C208.546 42.9535 209.377 42.9377 210.402 42.9535C211.742 42.9693 213.093 42.8956 214.434 42.7271C215.806 42.5534 217.025 42.2165 218.061 41.7164C219.228 41.1532 219.843 40.2267 219.843 39.0423C219.843 38.458 219.669 37.9158 219.333 37.442C219.007 36.984 218.592 36.6366 218.108 36.4155L218.056 36.3945C217.956 36.3629 217.756 36.3102 217.062 36.2102C216.563 36.1365 215.963 36.0628 215.222 35.9891C214.486 35.9154 213.714 35.847 212.92 35.7944C212.116 35.7417 211.348 35.6838 210.612 35.6312C209.876 35.5733 209.214 35.5312 208.625 35.4943C208.347 35.4785 208.105 35.4575 207.9 35.4417C208.168 32.6517 208.373 29.8249 208.509 27.0402C208.646 24.2661 208.951 21.4656 209.414 18.7072C210.665 18.7283 211.926 18.8441 213.172 19.0547C214.607 19.2968 216.053 19.5547 217.477 19.8232C218.928 20.0969 220.395 20.3496 221.84 20.5707C223.307 20.7918 224.784 20.9076 226.235 20.9076C227.107 20.9076 228.111 20.8023 229.215 20.597C230.335 20.3865 231.407 20.039 232.401 19.5653C233.41 19.081 234.277 18.4335 234.982 17.6544C235.728 16.8227 236.107 15.7962 236.107 14.6065C236.107 13.6485 235.823 12.7904 235.255 12.0535C234.714 11.3533 234.03 10.7901 233.231 10.39L233.242 10.3953Z" fill="#FFDC5A"/>
<path d="M274.943 19.3839C273.361 17.8205 271.463 16.5782 269.303 15.6938C267.137 14.8094 264.772 14.362 262.259 14.362C260.156 14.362 258.159 14.6778 256.319 15.299C254.753 15.8254 253.17 16.4676 251.609 17.1993C251.593 16.8782 251.572 16.5571 251.541 16.2413C251.483 15.6096 251.325 15.0411 251.078 14.541C250.815 14.0146 250.405 13.5776 249.859 13.2513C249.312 12.9249 248.602 12.7617 247.693 12.7617C246.731 12.7617 245.79 13.1249 244.891 13.8409C244.071 14.4936 243.367 15.1305 242.794 15.7412C241.663 16.9888 240.659 18.5838 239.813 20.4788C238.977 22.3581 238.283 24.369 237.747 26.4535C237.211 28.5434 236.812 30.649 236.554 32.7125C236.296 34.7813 236.165 36.6553 236.165 38.2819C236.165 38.9978 236.223 39.9874 236.333 41.2192C236.444 42.4615 236.633 43.8302 236.89 45.2831C237.148 46.7465 237.474 48.231 237.863 49.7049C238.252 51.1999 238.746 52.5791 239.324 53.8161C239.913 55.0742 240.612 56.1218 241.406 56.9324C242.257 57.8063 243.24 58.2485 244.339 58.2485C245.049 58.2485 245.716 58.08 246.326 57.7431C246.783 57.4904 247.267 57.3694 247.803 57.3694C249.17 57.3694 250.573 57.4536 251.977 57.6115C253.417 57.78 254.884 57.8642 256.324 57.8642C258.359 57.8642 260.388 57.4904 262.364 56.7587C264.325 56.027 266.196 55.0269 267.931 53.774C269.655 52.5264 271.279 51.0577 272.746 49.3996C274.207 47.7519 275.495 45.9516 276.578 44.0513C277.656 42.151 278.507 40.1559 279.101 38.1292C279.701 36.0868 280 34.0654 280 32.1177C280 29.5646 279.553 27.1747 278.67 25.0059C277.787 22.8371 276.536 20.9473 274.954 19.3786L274.943 19.3839ZM270.612 33.3652C270.417 35.3972 269.818 37.408 268.825 39.34C267.826 41.2824 266.48 43.109 264.824 44.7725C263.163 46.4359 261.308 47.8309 259.31 48.9205C257.323 50.0049 255.215 50.7156 253.049 51.0367C251.031 51.3367 249.065 51.1472 247.199 50.4682C247.167 49.9523 247.141 49.3522 247.109 48.6679C247.073 47.8256 247.036 46.9518 246.999 46.0516C246.962 45.1567 246.936 44.2882 246.915 43.4459C246.894 42.6089 246.889 41.893 246.889 41.3087C246.889 40.7244 246.868 40.1401 246.831 39.4873C246.794 38.8662 246.794 38.2292 246.831 37.5923C246.868 36.9501 246.941 36.3342 247.046 35.7551C247.146 35.2182 247.325 34.7339 247.577 34.318C248.623 32.6546 249.79 31.0543 251.052 29.5593C252.292 28.0854 253.727 26.8536 255.315 25.9008C257.018 24.9059 258.642 24.2426 260.135 23.9215C261.618 23.6057 262.99 23.5636 264.22 23.7847C265.434 24.0057 266.496 24.4637 267.374 25.1428C268.262 25.8271 268.972 26.6746 269.487 27.6695C270.423 29.4383 270.801 31.3491 270.612 33.3495V33.3652Z" fill="#FFDC5A"/>
<path d="M45.2071 34.4474C45.2071 30.4625 45.2702 26.4249 45.3963 22.4611C45.5225 18.4604 45.5908 14.4176 45.5908 10.438C45.5908 9.78524 45.533 9.1325 45.4173 8.50081C45.2964 7.83228 45.0651 7.23217 44.7392 6.71103C44.4028 6.18463 43.9455 5.74771 43.383 5.41607C42.81 5.07391 42.1004 4.90019 41.2751 4.90019C40.5917 4.90019 39.961 5.07391 39.4037 5.42134C38.8571 5.75824 38.4155 6.20568 38.0791 6.74788C37.7637 7.26376 37.4483 7.96914 37.1224 8.91667C36.807 9.82209 36.5073 10.8907 36.2287 12.0804C35.9554 13.2595 35.6926 14.5071 35.456 15.7915C35.2195 17.0602 34.9987 18.3235 34.7937 19.5448C34.5887 20.7819 34.4099 21.9136 34.268 22.9138C34.1576 23.6929 34.0683 24.3562 33.9947 24.9036C31.1876 24.7089 28.3333 24.6509 25.5105 24.7194C22.7402 24.7878 19.9437 24.951 17.1839 25.2089C17.2628 24.6352 17.3732 23.9771 17.5151 23.256C17.7149 22.24 17.9514 21.1661 18.2248 20.0607C18.4981 18.9447 18.7925 17.8024 19.1026 16.6285C19.4128 15.4494 19.6966 14.3492 19.9542 13.3174C20.2118 12.2962 20.422 11.3645 20.5902 10.5433C20.7637 9.69575 20.8478 9.02722 20.8478 8.51134C20.8478 7.37957 20.4063 6.36887 19.5337 5.52135C18.6663 4.67384 17.657 4.24219 16.5269 4.24219C15.3967 4.24219 14.2875 4.67384 13.2993 5.52662C12.3584 6.33202 11.5015 7.3743 10.7446 8.62715C10.0034 9.85367 9.31476 11.2381 8.69973 12.7489C8.08996 14.2544 7.5643 15.7599 7.14377 17.2339C6.72324 18.7026 6.35527 20.1028 6.06616 21.3925C5.77179 22.6822 5.56678 23.735 5.45113 24.5193C5.3828 25.0089 5.29343 25.4406 5.1883 25.7985C5.09894 26.1196 4.96752 26.3986 4.80457 26.625C4.64687 26.8408 4.42083 27.0356 4.13697 27.1988C3.8426 27.3725 3.4431 27.5093 2.94372 27.6093C1.9765 27.8199 1.23531 28.2674 0.735929 28.9412C0.247062 29.5992 0 30.4204 0 31.3731C0 32.168 0.162956 32.8366 0.494124 33.3577C0.814779 33.8683 1.23531 34.2842 1.7452 34.579C2.22881 34.8632 2.7755 35.0738 3.37476 35.2159C3.81106 35.3159 4.24736 35.4159 4.68366 35.5054L5.06214 37.79C5.24612 38.8955 5.48793 40.101 5.7823 41.3749C6.07667 42.654 6.43412 43.9437 6.83888 45.2176C7.2489 46.5126 7.75354 47.7075 8.33703 48.7761C8.93103 49.8711 9.61439 50.7712 10.3713 51.4503C11.1809 52.1767 12.1218 52.5505 13.1679 52.5505C14.3401 52.5505 15.3441 52.1135 16.1589 51.2555C16.9684 50.408 17.3732 49.3868 17.3732 48.2234C17.3732 47.518 17.2313 46.8916 16.9579 46.3547C16.7424 45.9441 16.5847 45.4808 16.4848 44.986C16.3061 44.0648 16.1904 43.1331 16.1379 42.2171C16.0853 41.3064 16.059 40.3642 16.059 39.4114C16.059 38.5639 16.0748 37.7374 16.1116 36.9583C16.1379 36.3108 16.1852 35.6528 16.2378 34.9896C17.4415 34.8685 18.64 34.7843 19.8123 34.7369C22.9032 34.6105 26.0782 34.6474 29.1901 34.6842C30.8039 34.7 32.4545 34.6948 34.0893 34.6632C34.1629 35.2422 34.2628 35.9897 34.3889 36.9004C34.5571 38.0848 34.7674 39.3903 35.025 40.7748C35.2825 42.1697 35.6085 43.6226 35.9975 45.0808C36.3864 46.5494 36.8385 47.9076 37.3379 49.113C37.853 50.3553 38.4681 51.3871 39.1619 52.1767C39.9242 53.0453 40.7968 53.4822 41.7535 53.4822C42.8416 53.4822 43.7983 53.1032 44.6131 52.3504C45.4384 51.5871 45.8536 50.6449 45.8536 49.5394C45.8536 47.0127 45.7433 44.4596 45.5225 41.9486C45.307 39.4798 45.1966 36.9583 45.1966 34.4526L45.2071 34.4474Z" fill="black"/>
<path d="M94.215 32.302C93.9943 32.0283 93.7787 31.7177 93.5737 31.3703C93.4581 31.1755 93.3162 30.7807 93.3162 29.9911C93.3162 28.5804 93.2951 26.8537 93.2636 24.8587C93.2268 22.8741 93.1059 20.7738 92.9061 18.626C92.7011 16.4678 92.3752 14.299 91.9337 12.1828C91.4869 10.0351 90.8245 8.08737 89.9624 6.38181C89.0846 4.64994 87.9491 3.21811 86.5772 2.13372C85.1684 1.01774 83.4127 0.449219 81.3573 0.449219C79.302 0.449219 77.131 1.08091 75.165 2.31796C73.2463 3.53396 71.4118 5.12897 69.7139 7.07141C68.0317 8.99805 66.4495 11.209 65.0092 13.6462C63.5846 16.0624 62.2705 18.5418 61.1088 21.0159C59.9523 23.4795 58.922 25.8799 58.0441 28.154C57.2241 30.2754 56.546 32.1178 56.0151 33.6496C55.4684 33.6286 54.8534 33.5707 54.1858 33.4707C53.2869 33.3391 52.43 33.2969 51.6258 33.3549C50.7637 33.418 50.0225 33.6602 49.4127 34.0813C48.7346 34.5498 48.3877 35.4026 48.3877 36.608C48.3877 37.6398 48.6453 38.4978 49.1552 39.1611C49.6388 39.7875 50.2538 40.2929 50.9845 40.6614C51.6783 41.0088 52.43 41.2825 53.2133 41.472C53.8073 41.6194 54.3592 41.751 54.8744 41.8721C54.8691 42.3775 54.8534 42.9618 54.8218 43.6356C54.785 44.4883 54.7745 45.399 54.7955 46.3413C54.8166 47.2888 54.8796 48.2416 54.99 49.1734C55.1057 50.1367 55.3212 51.0105 55.6261 51.7843C55.9467 52.595 56.4146 53.2635 57.0086 53.7794C57.6341 54.3216 58.4436 54.5953 59.4161 54.5953C60.6357 54.5953 61.5766 54.0005 62.1391 52.874C62.6384 51.8791 62.9959 50.6947 63.2061 49.3629C63.4112 48.0679 63.5689 46.7203 63.6792 45.3569C63.7686 44.2515 63.9211 43.346 64.1313 42.6564C67.422 42.7196 70.639 42.7301 73.6931 42.6775C76.6789 42.6249 79.7172 42.3985 82.724 42.0037C82.7451 42.5248 82.7503 43.1092 82.7503 43.7461C82.7503 44.6463 82.7714 45.5727 82.8081 46.4939C82.8449 47.4309 82.929 48.3627 83.0605 49.2734C83.1919 50.2156 83.4389 51.0789 83.7911 51.8422C84.1538 52.6318 84.6532 53.2741 85.2683 53.7478C85.9096 54.2426 86.7401 54.49 87.7336 54.49C89.1319 54.49 90.2463 54.0216 91.0453 53.0951C91.7865 52.237 92.3489 51.179 92.7169 49.9577C93.0744 48.768 93.2951 47.5046 93.3687 46.2044C93.4423 44.9305 93.4791 43.7987 93.4791 42.8302L93.4265 40.2297C93.395 39.5085 93.4633 38.9611 93.6263 38.5979C93.805 38.1978 94.01 37.8556 94.2256 37.5714C94.4674 37.2555 94.7039 36.9344 94.9247 36.6186C95.2138 36.2132 95.3505 35.671 95.3505 34.9657C95.3505 34.2603 95.2086 33.7128 94.9352 33.2969C94.7144 32.96 94.4726 32.6337 94.2203 32.3231L94.215 32.302ZM80.2797 12.6882C81.0472 13.2356 81.6622 14.4569 82.1038 16.3204C82.5716 18.2786 82.8607 20.8317 82.9711 23.9006C83.0762 26.8643 83.0605 30.1596 82.9343 33.7075C81.8567 33.8234 80.6424 33.9076 79.3283 33.955C77.8196 34.0076 76.2531 34.0392 74.6709 34.0392H66.5389C66.7176 33.4443 66.9646 32.7337 67.2748 31.9178C67.7163 30.7649 68.2368 29.4963 68.8308 28.1434C69.43 26.78 70.1134 25.364 70.8493 23.9322C71.5852 22.5109 72.3474 21.1212 73.1202 19.7999C73.8771 18.4997 74.6551 17.2942 75.4278 16.2045C76.19 15.1359 76.9207 14.2726 77.5883 13.6357C79.3072 12.0038 80.0379 12.5197 80.2797 12.6934V12.6882Z" fill="black"/>
<path d="M134.98 25.0727C132.767 24.1252 130.296 23.4251 127.626 22.9987C124.981 22.5775 122.364 22.2301 119.846 21.9774C115.993 21.5826 113.38 20.9457 112.082 20.0824C111.577 19.7455 111.298 19.3875 111.256 19.019C111.204 18.5716 111.467 18.0294 112.045 17.403C113.091 16.2501 114.568 15.25 116.434 14.4183C118.327 13.576 120.387 12.9496 122.553 12.5548C124.724 12.16 126.905 11.9968 129.04 12.0652C131.158 12.1389 133.014 12.46 134.591 13.0338C135.253 13.2444 135.805 13.4655 136.236 13.6866C136.767 13.9655 137.303 14.1024 137.829 14.1024C138.544 14.1024 139.206 13.9287 139.795 13.5918C140.373 13.2602 140.862 12.8127 141.256 12.2547C141.634 11.7178 141.934 11.0966 142.155 10.4018C142.37 9.70693 142.481 8.99628 142.481 8.29089C142.481 6.49585 141.876 5.02191 140.694 3.9112C139.569 2.85838 138.197 2.02666 136.614 1.43709C135.058 0.858042 133.445 0.468501 131.815 0.278995C130.207 0.0947531 128.861 0 127.825 0C126.259 0 124.456 0.205298 122.469 0.615895C120.487 1.02649 118.453 1.62659 116.424 2.40041C114.389 3.17949 112.355 4.16387 110.379 5.32723C108.392 6.50111 106.604 7.86977 105.08 9.40161C103.545 10.9387 102.283 12.6706 101.327 14.5446C100.359 16.4449 99.8652 18.5453 99.8652 20.7878C99.8652 22.8565 100.412 24.5147 101.484 25.7097C102.53 26.873 103.923 27.7626 105.632 28.3628C107.293 28.9418 109.196 29.3419 111.283 29.5472C113.338 29.7472 115.462 29.8893 117.585 29.963C119.693 30.0367 121.764 30.1473 123.751 30.2947C125.707 30.4368 127.452 30.7263 128.971 31.1632C130.806 31.6159 132.183 32.3003 133.066 33.1952C133.928 34.0743 134.344 34.9428 134.344 35.8535C134.344 36.7642 133.944 37.617 133.119 38.4592C132.278 39.3173 130.99 39.9647 129.302 40.3806C127.799 40.7386 125.933 40.9965 123.751 41.1386C121.559 41.286 118.931 41.3597 115.951 41.3597C115.215 41.3597 114.442 41.286 113.648 41.1492C112.839 41.007 112.05 40.8491 111.304 40.6859C110.557 40.5227 109.869 40.3648 109.248 40.2174C108.575 40.0595 108.013 39.9858 107.535 39.9858C106.289 39.9858 105.295 40.5385 104.591 41.6282C103.934 42.6494 103.597 43.7917 103.597 45.0235C103.597 46.2553 103.923 47.3239 104.565 48.2872C105.185 49.2242 106.01 50.0401 107.02 50.7192C108.003 51.3825 109.122 51.9457 110.347 52.3984C111.551 52.8459 112.776 53.2091 113.985 53.4934C115.188 53.7724 116.361 53.9724 117.459 54.0829C118.553 54.1935 119.488 54.2514 120.235 54.2514C121.691 54.2514 123.278 54.0829 124.955 53.746C126.627 53.4091 128.309 52.8985 129.944 52.23C131.579 51.5615 133.192 50.7087 134.733 49.7085C136.288 48.6978 137.666 47.4976 138.833 46.1395C140 44.7814 140.956 43.2232 141.666 41.5124C142.386 39.7858 142.754 37.8749 142.754 35.8325C142.754 33.0741 142.008 30.8 140.541 29.0734C139.101 27.3836 137.229 26.0413 134.985 25.078L134.98 25.0727Z" fill="black"/>
<path d="M191.741 34.4474C191.741 30.4625 191.804 26.4249 191.93 22.4611C192.057 18.4604 192.125 14.4176 192.125 10.438C192.125 9.78524 192.067 9.1325 191.952 8.50081C191.831 7.83228 191.599 7.23217 191.273 6.71103C190.937 6.18463 190.48 5.74771 189.917 5.41607C189.344 5.07391 188.635 4.90019 187.809 4.90019C187.126 4.90019 186.495 5.07391 185.938 5.42134C185.391 5.75824 184.95 6.20568 184.613 6.74788C184.298 7.26376 183.982 7.96914 183.657 8.91667C183.341 9.82209 183.042 10.8907 182.763 12.0804C182.49 13.2595 182.227 14.5071 181.99 15.7915C181.754 17.0602 181.533 18.3235 181.328 19.5448C181.123 20.7819 180.944 21.9136 180.802 22.9138C180.692 23.6929 180.602 24.3562 180.529 24.9036C177.722 24.7089 174.867 24.6509 172.045 24.7194C169.274 24.7878 166.478 24.951 163.718 25.2089C163.797 24.6352 163.907 23.9771 164.049 23.256C164.249 22.24 164.486 21.1661 164.759 20.0607C165.032 18.9447 165.327 17.8024 165.637 16.6285C165.947 15.4494 166.231 14.3492 166.488 13.3174C166.746 12.2962 166.956 11.3645 167.124 10.5433C167.298 9.69575 167.382 9.02722 167.382 8.51134C167.382 7.37957 166.94 6.36887 166.068 5.52135C165.201 4.67384 164.191 4.24219 163.061 4.24219C161.931 4.24219 160.822 4.67384 159.833 5.52662C158.893 6.33202 158.036 7.3743 157.279 8.62715C156.538 9.85367 155.849 11.2381 155.234 12.7489C154.624 14.2544 154.098 15.7599 153.678 17.2339C153.257 18.7026 152.889 20.1028 152.6 21.3925C152.306 22.6822 152.101 23.735 151.985 24.5193C151.917 25.0089 151.828 25.4406 151.722 25.7985C151.633 26.1196 151.502 26.3986 151.339 26.625C151.181 26.8408 150.955 27.0356 150.671 27.1988C150.377 27.3725 149.977 27.5093 149.478 27.6093C148.511 27.8199 147.769 28.2674 147.27 28.9412C146.781 29.5992 146.534 30.4204 146.534 31.3731C146.534 32.168 146.697 32.8366 147.028 33.3577C147.349 33.8683 147.769 34.2842 148.279 34.579C148.763 34.8632 149.31 35.0738 149.909 35.2159C150.345 35.3159 150.782 35.4159 151.218 35.5054L151.596 37.79C151.78 38.8955 152.022 40.101 152.316 41.3749C152.611 42.654 152.968 43.9437 153.373 45.2176C153.783 46.5126 154.288 47.7075 154.871 48.7761C155.465 49.8711 156.149 50.7712 156.906 51.4503C157.715 52.1767 158.656 52.5505 159.702 52.5505C160.874 52.5505 161.878 52.1135 162.693 51.2555C163.503 50.408 163.907 49.3868 163.907 48.2234C163.907 47.518 163.765 46.8916 163.492 46.3547C163.277 45.9441 163.119 45.4808 163.019 44.986C162.84 44.0648 162.725 43.1331 162.672 42.2171C162.619 41.3064 162.593 40.3642 162.593 39.4114C162.593 38.5639 162.609 37.7374 162.646 36.9583C162.672 36.3108 162.719 35.6528 162.772 34.9896C163.976 34.8685 165.174 34.7843 166.346 34.7369C169.437 34.6105 172.612 34.6474 175.724 34.6842C177.338 34.7 178.989 34.6948 180.623 34.6632C180.697 35.2422 180.797 35.9897 180.923 36.9004C181.091 38.0848 181.302 39.3903 181.559 40.7748C181.817 42.1697 182.143 43.6226 182.532 45.0808C182.921 46.5494 183.373 47.9076 183.872 49.113C184.387 50.3553 185.002 51.3871 185.696 52.1767C186.458 53.0453 187.331 53.4822 188.288 53.4822C189.376 53.4822 190.332 53.1032 191.147 52.3504C191.973 51.5871 192.388 50.6449 192.388 49.5394C192.388 47.0127 192.277 44.4596 192.057 41.9486C191.841 39.4798 191.731 36.9583 191.731 34.4526L191.741 34.4474Z" fill="black"/>
<path d="M233.242 4.96033C233.047 4.86031 232.611 4.71818 230.897 4.41813C229.657 4.19704 228.122 3.95489 226.345 3.70222C224.568 3.44428 222.65 3.17055 220.6 2.87576C218.534 2.58097 216.573 2.32303 214.76 2.10194C212.925 1.88085 211.327 1.69661 209.971 1.54922C208.578 1.39656 207.695 1.32812 207.274 1.32812C206.107 1.32812 205.103 1.60712 204.288 2.15985C203.484 2.70204 202.817 3.48113 202.307 4.46024C201.912 5.16562 201.571 6.12895 201.266 7.39759C200.977 8.59779 200.688 9.96645 200.409 11.472C200.136 12.9617 199.883 14.5514 199.663 16.2044C199.442 17.8573 199.231 19.4628 199.032 21.0262C198.827 22.5897 198.648 24.0373 198.48 25.3796C198.317 26.7167 198.175 27.8116 198.07 28.6433C197.954 29.4119 197.744 29.7593 197.586 29.9172C197.308 30.1962 197.003 30.4436 196.687 30.6437C196.298 30.8911 195.951 31.1806 195.667 31.5122C195.321 31.907 195.152 32.4914 195.152 33.2915C195.152 34.1653 195.431 34.897 195.988 35.4761C196.409 35.9183 196.892 36.3025 197.418 36.6289C197.444 37.4133 197.449 38.3608 197.434 39.4504C197.413 40.7033 197.444 42.0404 197.518 43.4248C197.591 44.8093 197.733 46.2148 197.933 47.6045C198.138 49.0152 198.475 50.3155 198.927 51.463C199.389 52.6422 200.031 53.6581 200.824 54.4741C201.655 55.3269 202.732 55.8427 203.994 56.0007C204.346 56.0638 204.714 56.0954 205.093 56.0954C205.187 56.0954 205.282 56.0954 205.371 56.0901C205.802 56.0743 206.239 56.0638 206.67 56.0638C210.076 56.0638 213.619 55.8796 217.199 55.5111C220.773 55.1426 224.274 54.6215 227.607 53.9635C228.227 53.8476 228.863 53.6529 229.504 53.3792C230.151 53.1054 230.75 52.7475 231.281 52.3105C231.817 51.8736 232.275 51.342 232.637 50.7419C233.016 50.1102 233.205 49.41 233.205 48.652C233.205 47.4413 232.779 46.4306 231.933 45.6515C231.102 44.883 230.077 44.4934 228.884 44.4934C227.265 44.4934 225.541 44.5882 223.769 44.7724C222.003 44.9567 220.2 45.1725 218.423 45.4094C216.626 45.6462 214.828 45.8989 213.03 46.1516C211.432 46.378 209.855 46.5517 208.331 46.6622C208.184 45.5883 208.068 44.5145 207.994 43.4669C207.905 42.2667 207.858 41.0297 207.858 39.7873C207.858 39.3188 207.868 38.8661 207.884 38.4292C207.894 38.145 207.91 37.8607 207.931 37.5712C208.546 37.5291 209.377 37.5133 210.402 37.5291C211.742 37.5449 213.093 37.4712 214.434 37.3027C215.806 37.129 217.025 36.7921 218.061 36.292C219.228 35.7288 219.843 34.8023 219.843 33.6179C219.843 33.0336 219.669 32.4914 219.333 32.0176C219.007 31.5596 218.592 31.2122 218.108 30.9911L218.056 30.97C217.956 30.9385 217.756 30.8858 217.062 30.7858C216.563 30.7121 215.963 30.6384 215.222 30.5647C214.486 30.491 213.714 30.4226 212.92 30.3699C212.116 30.3173 211.348 30.2594 210.612 30.2068C209.876 30.1489 209.214 30.1067 208.625 30.0699C208.347 30.0541 208.105 30.033 207.9 30.0173C208.168 27.2273 208.373 24.4005 208.509 21.6158C208.646 18.8417 208.951 16.0412 209.414 13.2828C210.665 13.3039 211.926 13.4197 213.172 13.6302C214.607 13.8724 216.053 14.1303 217.477 14.3988C218.928 14.6725 220.395 14.9252 221.84 15.1463C223.307 15.3674 224.784 15.4832 226.235 15.4832C227.107 15.4832 228.111 15.3779 229.215 15.1726C230.335 14.962 231.407 14.6146 232.401 14.1408C233.41 13.6566 234.277 13.0091 234.982 12.23C235.728 11.3983 236.107 10.3718 236.107 9.1821C236.107 8.22404 235.823 7.366 235.255 6.62903C234.714 5.92891 234.03 5.36566 233.231 4.96559L233.242 4.96033Z" fill="black"/>
<path d="M274.943 13.9503C273.361 12.3869 271.463 11.1446 269.303 10.2602C267.137 9.37584 264.772 8.9284 262.259 8.9284C260.156 8.9284 258.159 9.24424 256.319 9.8654C254.753 10.3918 253.17 11.034 251.609 11.7657C251.593 11.4446 251.572 11.1235 251.541 10.8077C251.483 10.176 251.325 9.60746 251.078 9.10738C250.815 8.58097 250.405 8.14405 249.859 7.81768C249.312 7.49131 248.602 7.32812 247.693 7.32812C246.731 7.32812 245.79 7.69134 244.891 8.40726C244.071 9.06 243.367 9.69695 242.794 10.3076C241.663 11.5552 240.659 13.1502 239.813 15.0452C238.977 16.9245 238.283 18.9354 237.747 21.0199C237.211 23.1098 236.812 25.2154 236.554 27.2789C236.296 29.3477 236.165 31.2217 236.165 32.8483C236.165 33.5642 236.223 34.5538 236.333 35.7856C236.444 37.0279 236.633 38.3966 236.89 39.8495C237.148 41.3129 237.474 42.7974 237.863 44.2713C238.252 45.7663 238.746 47.1455 239.324 48.3825C239.913 49.6406 240.612 50.6882 241.406 51.4988C242.257 52.3727 243.24 52.8149 244.339 52.8149C245.049 52.8149 245.716 52.6464 246.326 52.3095C246.783 52.0568 247.267 51.9358 247.803 51.9358C249.17 51.9358 250.573 52.02 251.977 52.1779C253.417 52.3464 254.884 52.4306 256.324 52.4306C258.359 52.4306 260.388 52.0568 262.364 51.3251C264.325 50.5934 266.196 49.5933 267.931 48.3404C269.655 47.0928 271.279 45.6242 272.746 43.966C274.207 42.3183 275.495 40.518 276.578 38.6177C277.656 36.7174 278.507 34.7223 279.101 32.6956C279.701 30.6532 280 28.6318 280 26.6841C280 24.131 279.553 21.7411 278.67 19.5723C277.787 17.4035 276.536 15.5137 274.954 13.945L274.943 13.9503ZM270.612 27.9317C270.417 29.9636 269.818 31.9744 268.825 33.9064C267.826 35.8488 266.48 37.6754 264.824 39.3336C263.163 40.997 261.308 42.392 259.31 43.4817C257.323 44.5661 255.215 45.2767 253.049 45.5978C251.031 45.8979 249.065 45.7084 247.199 45.0293C247.167 44.5134 247.141 43.9133 247.109 43.229C247.073 42.3868 247.036 41.5129 246.999 40.6128C246.962 39.7179 246.936 38.8493 246.915 38.0071C246.894 37.1701 246.889 36.4542 246.889 35.8699C246.889 35.2855 246.868 34.7012 246.831 34.0485C246.794 33.4273 246.794 32.7904 246.831 32.1534C246.868 31.5112 246.941 30.8953 247.046 30.3163C247.146 29.7793 247.325 29.295 247.577 28.8792C248.623 27.2157 249.79 25.6155 251.052 24.1205C252.292 22.6465 253.727 21.4147 255.315 20.462C257.018 19.467 258.642 18.8038 260.135 18.4827C261.618 18.1668 262.99 18.1247 264.22 18.3458C265.434 18.5669 266.496 19.0249 267.374 19.7039C268.262 20.3883 268.972 21.2358 269.487 22.2307C270.423 23.9994 270.801 25.9103 270.612 27.9106V27.9317Z" fill="black"/>
<path d="M39.8295 81.9534C38.1737 81.0111 36.2971 80.332 34.2523 79.9372C32.2285 79.5477 30.2047 79.3477 28.2387 79.3477C25.4632 79.3477 22.6771 79.674 19.9542 80.3268C17.3837 80.9427 14.8868 81.8376 12.5266 82.9956C12.0955 82.385 11.6224 81.8376 11.1125 81.3638C10.4292 80.7216 9.53028 80.3952 8.44216 80.3952C7.21736 80.3952 6.12399 80.9795 5.19882 82.1323C4.34199 83.2009 3.6008 84.5749 2.99629 86.2173C2.40229 87.8333 1.90291 89.6547 1.51918 91.6392C1.13018 93.6133 0.825305 95.561 0.604526 97.435C0.383747 99.33 0.226041 101.072 0.136678 102.615C0.0473149 104.168 0 105.352 0 106.142C0 107.016 0.0210458 108.195 0.0525856 109.653C0.0893821 111.137 0.189235 112.769 0.357447 114.506C0.52566 116.249 0.767495 118.044 1.07764 119.834C1.39303 121.66 1.8451 123.334 2.42333 124.808C3.01208 126.314 3.7585 127.561 4.64162 128.524C5.58256 129.551 6.74954 130.072 8.10576 130.072C9.75108 130.072 10.9811 129.483 11.7591 128.324C12.495 127.23 12.863 125.977 12.863 124.587C12.863 123.108 12.8052 121.613 12.6948 120.144C12.5949 118.823 12.5108 117.502 12.4425 116.217C13.7251 115.991 15.013 115.791 16.2798 115.612C17.7359 115.412 19.1973 115.159 20.6218 114.864C22.367 114.527 24.2173 114.011 26.115 113.327C28.0179 112.643 29.9155 111.79 31.7448 110.79C33.5741 109.79 35.3351 108.637 36.9857 107.358C38.6416 106.073 40.1187 104.615 41.3645 103.025C42.6156 101.436 43.6301 99.6985 44.3818 97.8613C45.1387 96.0084 45.5225 94.0133 45.5225 91.934C45.5225 89.4915 44.9863 87.428 43.9245 85.8067C42.8731 84.2011 41.4907 82.9009 39.8138 81.9481L39.8295 81.9534ZM33.5847 92.9447C32.8119 94.7713 31.6292 96.4032 30.0627 97.7929C28.4752 99.2037 26.6669 100.399 24.6852 101.346C22.6982 102.299 20.5955 103.025 18.4456 103.51C16.2956 103.994 14.2403 104.241 12.3479 104.241H11.9378L11.9956 95.5188C11.9956 94.924 12.2427 94.3871 12.7473 93.8817C13.3098 93.3237 14.0563 92.8079 14.9709 92.3604C15.9119 91.8972 16.9737 91.4918 18.1302 91.1549C19.2971 90.8128 20.4746 90.518 21.6311 90.2864C22.7875 90.0495 23.8652 89.8758 24.8271 89.7705C25.7943 89.6652 26.567 89.6073 27.1348 89.6073C27.5553 89.6073 28.1651 89.6442 28.9588 89.7179C29.7316 89.7863 30.5095 89.9232 31.2665 90.1179C31.9972 90.3074 32.6385 90.5812 33.1694 90.9286C33.6057 91.2181 33.8107 91.5603 33.8107 92.0025C33.8107 92.2604 33.7318 92.5815 33.5794 92.9552L33.5847 92.9447Z" fill="#FFDC5A"/>
<path d="M62.259 94.9281C60.6557 94.1543 58.8895 93.8595 57.0024 94.0543C55.1257 94.2438 53.3753 94.8755 51.7878 95.9283C50.2055 96.9811 48.8651 98.434 47.8032 100.261C46.7309 102.098 46.1895 104.298 46.1895 106.804C46.1895 108.251 46.4207 109.683 46.8781 111.068C47.3354 112.463 48.0135 113.721 48.8914 114.816C49.7745 115.916 50.8574 116.8 52.1084 117.458C53.37 118.122 54.8104 118.453 56.3926 118.453C58.0852 118.453 59.657 118.079 61.0605 117.348C62.4483 116.621 63.6678 115.642 64.6823 114.437C65.6916 113.237 66.4853 111.868 67.053 110.373C67.626 108.873 67.9151 107.299 67.9151 105.698C67.9151 102.861 67.3684 100.529 66.2961 98.7604C65.2185 96.9916 63.8623 95.7019 62.2537 94.9281H62.259ZM59.6465 109.352C58.7739 110.257 57.8487 110.747 56.8131 110.847C55.8039 110.941 54.8997 110.615 54.0534 109.852C53.2176 109.099 52.797 107.815 52.797 106.03C52.797 104.877 53.0073 103.93 53.4173 103.208C53.8326 102.482 54.3425 101.924 54.9418 101.55C55.541 101.177 56.1718 100.998 56.8657 100.998C57.5596 100.998 58.2009 101.166 58.8054 101.508C59.3994 101.845 59.9093 102.366 60.3193 103.056C60.7241 103.74 60.9343 104.614 60.9343 105.651C60.9343 107.251 60.5138 108.462 59.6517 109.362L59.6465 109.352Z" fill="#FFDC5A"/>
<path d="M82.8548 107.328C83.843 107.254 84.8523 107.101 85.8458 106.875C86.8708 106.643 87.775 106.285 88.5319 105.817C89.3993 105.285 89.8566 104.48 89.8566 103.495C89.8566 102.448 89.4991 101.637 88.8 101.095C88.1377 100.584 87.3387 100.326 86.4188 100.326C86.0823 100.326 85.6723 100.348 85.1677 100.384C84.6893 100.421 84.19 100.458 83.659 100.495C83.1176 100.532 82.6025 100.579 82.1241 100.637C81.9506 100.658 81.7877 100.674 81.6405 100.684C81.7035 100.448 81.7877 100.2 81.8823 99.9369L82.5131 98.1998C82.7339 97.5892 82.9336 96.9838 83.1018 96.4048C83.2806 95.7941 83.3699 95.2309 83.3699 94.7413C83.3699 93.6148 83.0388 92.7989 82.3869 92.3093C81.7824 91.8566 80.9361 91.625 79.8742 91.625C78.8124 91.625 77.8662 91.9935 77.1618 92.7199C76.5153 93.3885 75.9738 94.2044 75.548 95.1572C75.1328 96.0784 74.7911 97.0733 74.5283 98.1051C74.3075 98.9684 74.1025 99.7422 73.908 100.4C73.4927 100.495 73.0827 100.59 72.6779 100.695C72.1365 100.837 71.6371 101.042 71.1955 101.3C70.7172 101.585 70.3282 101.969 70.0443 102.448C69.7605 102.932 69.6133 103.559 69.6133 104.311C69.6133 104.933 69.7763 105.48 70.0917 105.933C70.386 106.359 70.7645 106.712 71.2061 106.986C71.6161 107.238 72.0629 107.459 72.536 107.638C72.8461 107.754 73.151 107.859 73.4454 107.949C73.4139 109.275 73.5663 110.534 73.8922 111.692C74.2602 112.987 74.8594 114.134 75.6742 115.108C76.4942 116.082 77.5298 116.856 78.7493 117.398C79.9636 117.94 81.3777 118.214 82.9494 118.214C83.5381 118.214 84.1847 118.135 84.8786 117.982C85.583 117.824 86.2506 117.577 86.8603 117.24C87.4859 116.898 88.022 116.44 88.4531 115.892C88.9104 115.303 89.1417 114.576 89.1417 113.724C89.1417 112.755 88.8684 111.939 88.3322 111.292C87.7645 110.612 87.0075 110.297 86.1402 110.391C84.7366 110.534 83.6538 110.607 82.9231 110.607C82.1136 110.607 81.7088 110.47 81.5143 110.349C81.3724 110.265 81.1832 110.102 81.1359 109.67C81.0833 109.196 81.057 108.538 81.057 107.717V107.47C81.5406 107.417 82.1398 107.359 82.8548 107.307V107.328Z" fill="#FFDC5A"/>
<path d="M115.046 112.352C114.783 111.999 114.526 111.657 114.268 111.325C114.047 111.036 113.869 110.715 113.748 110.372C113.396 109.346 113.143 108.262 113.001 107.146C112.859 106.019 112.786 104.903 112.786 103.824C112.786 102.745 112.838 101.603 112.949 100.544C113.059 99.4443 113.117 98.3072 113.117 97.1597C113.117 96.6333 113.091 96.0963 113.033 95.5594C112.97 94.9909 112.828 94.4592 112.597 93.9854C112.355 93.4801 111.997 93.0642 111.535 92.7589C111.062 92.4431 110.436 92.2852 109.674 92.2852C108.838 92.2852 108.149 92.5484 107.624 93.0748C107.245 93.4538 106.883 93.8749 106.546 94.3276H104.501C102.499 94.3276 100.701 94.6487 99.1606 95.2751C97.6047 95.9068 96.2905 96.828 95.2549 98.0019C94.2246 99.1705 93.4309 100.576 92.8947 102.176C92.3638 103.761 92.0957 105.54 92.0957 107.461C92.0957 108.562 92.2219 109.751 92.4637 111.004C92.7107 112.278 93.126 113.473 93.6937 114.563C94.2772 115.673 95.0552 116.61 96.0066 117.347C96.9949 118.116 98.2197 118.505 99.6547 118.505C100.449 118.505 101.174 118.384 101.82 118.142C102.451 117.905 103.045 117.579 103.602 117.163C104.133 116.763 104.643 116.321 105.116 115.847C105.463 115.5 105.805 115.142 106.131 114.768L107.082 115.642C107.561 116.079 108.071 116.489 108.602 116.847C109.143 117.216 109.721 117.521 110.331 117.758C110.957 118 111.64 118.126 112.365 118.126C113.311 118.126 114.163 117.874 114.888 117.374C115.677 116.831 116.076 116 116.076 114.905C116.076 114.378 115.966 113.899 115.74 113.473C115.546 113.105 115.309 112.731 115.041 112.357L115.046 112.352ZM103.224 104.529C102.94 105.698 102.53 106.83 101.999 107.888C100.764 110.362 100.044 110.52 99.8545 110.515C99.8492 110.515 99.2027 110.446 99.2027 107.298C99.2027 106.598 99.271 105.872 99.4129 105.14C99.5496 104.429 99.7862 103.771 100.123 103.182C100.449 102.608 100.869 102.139 101.374 101.782C101.847 101.445 102.478 101.271 103.24 101.271C103.408 101.271 103.597 101.281 103.802 101.297C103.823 101.297 103.839 101.297 103.855 101.297C103.681 102.424 103.471 103.508 103.224 104.524V104.529Z" fill="#FFDC5A"/>
<path d="M130.254 107.328C131.242 107.254 132.252 107.101 133.245 106.875C134.27 106.643 135.174 106.285 135.931 105.817C136.799 105.285 137.256 104.48 137.256 103.495C137.256 102.448 136.899 101.637 136.199 101.095C135.537 100.584 134.738 100.326 133.818 100.326C133.482 100.326 133.072 100.348 132.567 100.384C132.089 100.421 131.589 100.458 131.058 100.495C130.517 100.532 130.002 100.579 129.523 100.637C129.35 100.658 129.187 100.674 129.04 100.684C129.103 100.448 129.187 100.2 129.282 99.9369L129.912 98.1998C130.133 97.5892 130.333 96.9838 130.501 96.4048C130.68 95.7941 130.769 95.2309 130.769 94.7413C130.769 93.6148 130.438 92.7989 129.786 92.3093C129.182 91.8566 128.335 91.625 127.274 91.625C126.212 91.625 125.266 91.9935 124.561 92.7199C123.915 93.3885 123.373 94.2044 122.947 95.1572C122.532 96.0784 122.19 97.0733 121.928 98.1051C121.707 98.9684 121.502 99.7422 121.307 100.4C120.892 100.495 120.482 100.59 120.077 100.695C119.536 100.837 119.037 101.042 118.595 101.3C118.117 101.585 117.728 101.969 117.444 102.448C117.16 102.932 117.013 103.559 117.013 104.311C117.013 104.933 117.176 105.48 117.491 105.933C117.785 106.359 118.164 106.712 118.605 106.986C119.015 107.238 119.462 107.459 119.935 107.638C120.246 107.754 120.55 107.859 120.845 107.949C120.813 109.275 120.966 110.534 121.292 111.692C121.66 112.987 122.259 114.134 123.074 115.108C123.894 116.082 124.929 116.856 126.149 117.398C127.363 117.94 128.777 118.214 130.349 118.214C130.938 118.214 131.584 118.135 132.278 117.982C132.982 117.824 133.65 117.577 134.26 117.24C134.885 116.898 135.421 116.44 135.852 115.892C136.31 115.303 136.541 114.576 136.541 113.724C136.541 112.755 136.268 111.939 135.732 111.292C135.164 110.612 134.407 110.297 133.54 110.391C132.136 110.534 131.053 110.607 130.323 110.607C129.513 110.607 129.108 110.47 128.914 110.349C128.772 110.265 128.583 110.102 128.535 109.67C128.483 109.196 128.456 108.538 128.456 107.717V107.47C128.94 107.417 129.539 107.359 130.254 107.307V107.328Z" fill="#FFDC5A"/>
<path d="M155.459 94.9281C153.856 94.1543 152.084 93.8595 150.203 94.0543C148.326 94.2438 146.575 94.8755 144.988 95.9283C143.406 96.9811 142.065 98.434 141.003 100.261C139.931 102.098 139.39 104.298 139.39 106.804C139.39 108.251 139.621 109.683 140.078 111.068C140.536 112.463 141.214 113.721 142.092 114.816C142.975 115.916 144.058 116.8 145.309 117.458C146.57 118.122 148.011 118.453 149.593 118.453C151.285 118.453 152.857 118.079 154.261 117.348C155.648 116.621 156.868 115.642 157.882 114.437C158.892 113.237 159.686 111.868 160.253 110.373C160.826 108.873 161.115 107.299 161.115 105.698C161.115 102.861 160.569 100.529 159.496 98.7604C158.419 96.9916 157.062 95.7019 155.454 94.9281H155.459ZM152.847 109.352C151.974 110.257 151.049 110.747 150.013 110.847C148.999 110.941 148.1 110.615 147.254 109.852C146.418 109.099 145.997 107.815 145.997 106.03C145.997 104.877 146.208 103.93 146.618 103.208C147.033 102.482 147.543 101.924 148.142 101.55C148.741 101.177 149.372 100.998 150.066 100.998C150.76 100.998 151.401 101.166 152.006 101.508C152.6 101.845 153.109 102.366 153.519 103.056C153.924 103.74 154.135 104.614 154.135 105.651C154.135 107.251 153.714 108.462 152.852 109.362L152.847 109.352Z" fill="#FFDC5A"/>
<path d="M213.819 120.814C212.889 120.814 211.942 120.972 211.012 121.282C210.124 121.577 209.209 121.919 208.289 122.283C207.39 122.641 206.46 122.972 205.524 123.262C204.625 123.541 203.679 123.678 202.712 123.678C200.404 123.678 198.417 123.156 196.809 122.135C195.184 121.103 193.854 119.708 192.856 117.992C191.846 116.26 191.147 114.26 190.774 112.06C190.396 109.838 190.296 107.527 190.48 105.195C190.658 102.863 191.116 100.547 191.831 98.3258C192.545 96.1097 193.518 94.0988 194.732 92.3511C195.931 90.6193 197.371 89.2138 199.006 88.1715C200.62 87.1502 202.454 86.6291 204.473 86.6291C205.587 86.6291 206.528 86.8397 207.269 87.2503C208.063 87.6924 208.788 88.1767 209.419 88.6873C210.082 89.2243 210.707 89.7191 211.296 90.1771C211.974 90.7087 212.731 90.9772 213.546 90.9772C215.27 90.9772 216.043 90.1244 216.384 89.4085C216.821 88.4978 217.041 87.4924 217.041 86.4291C217.041 84.7867 216.574 83.2706 215.659 81.923C214.765 80.6123 213.64 79.4752 212.31 78.5382C210.986 77.6118 209.514 76.8959 207.932 76.401C206.349 75.9115 204.835 75.6641 203.432 75.6641C199.763 75.6641 196.446 76.501 193.576 78.1592C190.721 79.8069 188.277 82.002 186.322 84.6919C184.371 87.3713 182.852 90.4613 181.817 93.8777C180.781 97.2836 180.203 100.81 180.087 104.364C179.977 107.922 180.35 111.454 181.202 114.86C182.053 118.282 183.43 121.382 185.297 124.062C187.168 126.757 189.581 128.957 192.477 130.605C195.384 132.258 198.885 133.095 202.88 133.095C203.558 133.095 204.415 133.027 205.424 132.895C206.434 132.763 207.501 132.558 208.594 132.279C209.687 132 210.791 131.642 211.874 131.21C212.968 130.779 213.961 130.258 214.834 129.673C215.722 129.073 216.458 128.384 217.026 127.626C217.625 126.82 217.925 125.888 217.925 124.862C217.925 123.767 217.509 122.804 216.694 122.009C215.88 121.214 214.918 120.814 213.824 120.814H213.819Z" fill="#FFDC5A"/>
<path d="M230.677 95.2942C230.677 94.215 230.341 93.2675 229.673 92.4779C228.985 91.662 228.017 91.2461 226.798 91.2461C225.804 91.2461 224.942 91.6356 224.238 92.4095C223.591 93.1148 223.045 94.0203 222.598 95.0994C222.162 96.1575 221.82 97.3524 221.578 98.6421C221.342 99.9055 221.142 101.174 220.995 102.422C220.847 103.659 220.753 104.833 220.716 105.906C220.679 106.975 220.658 107.812 220.658 108.402C220.658 109.197 220.732 110.144 220.884 111.228C221.037 112.323 221.305 113.392 221.683 114.397C222.072 115.429 222.619 116.324 223.302 117.051C224.043 117.835 225.011 118.235 226.188 118.235C227.092 118.235 227.844 118.051 228.422 117.687C228.995 117.33 229.442 116.845 229.763 116.25C230.068 115.682 230.267 115.04 230.367 114.345C230.462 113.682 230.509 113.013 230.509 112.371C230.509 110.813 230.425 109.249 230.257 107.717C230.094 106.222 230.015 104.68 230.015 103.122C230.015 101.874 230.125 100.585 230.336 99.3001C230.562 97.9578 230.672 96.6154 230.672 95.3047L230.677 95.2942Z" fill="#FFDC5A"/>
<path d="M256.23 110.48C256.046 109.711 255.846 108.816 255.625 107.795C255.405 106.768 255.205 105.689 255.026 104.6C254.847 103.499 254.711 102.399 254.616 101.336C254.527 100.288 254.516 99.3461 254.59 98.5355C254.632 98.0564 254.579 97.5932 254.427 97.1563C254.274 96.7194 254.033 96.3246 253.707 95.9771C253.391 95.6402 253.018 95.3612 252.597 95.1507C252.161 94.9296 251.709 94.819 251.262 94.819C250.453 94.819 249.775 95.1086 249.254 95.6771C248.797 96.1772 248.382 96.8352 248.035 97.6406C247.698 98.4144 247.383 99.2882 247.104 100.236C246.836 101.146 246.516 102.078 246.158 102.999C245.801 103.905 245.38 104.789 244.897 105.626C244.444 106.416 243.877 107.09 243.209 107.632C243.036 107.737 242.831 107.858 242.589 107.995C242.352 108.132 242.231 108.148 242.189 108.148C241.963 108.148 241.811 108.053 241.669 107.837C241.469 107.526 241.317 107.153 241.222 106.716C241.117 106.242 241.049 105.752 241.012 105.252C240.975 104.737 240.959 104.31 240.959 103.994C240.959 102.841 241.133 101.72 241.485 100.662C241.869 99.4935 242.058 98.2986 242.058 97.1142C242.058 96.0193 241.701 95.1086 240.996 94.4032C240.292 93.6978 239.435 93.3398 238.452 93.3398C237.401 93.3398 236.523 93.7978 235.834 94.7032C235.214 95.5139 234.709 96.5035 234.325 97.6353C233.947 98.746 233.684 99.9199 233.532 101.125C233.385 102.315 233.306 103.321 233.306 104.11C233.306 105.505 233.458 106.921 233.758 108.321C234.063 109.743 234.541 111.053 235.188 112.211C235.845 113.396 236.701 114.37 237.732 115.107C238.788 115.865 240.087 116.249 241.585 116.249C243.083 116.249 244.46 115.865 245.59 115.112C246.474 114.522 247.362 113.807 248.235 112.985C248.403 113.343 248.581 113.696 248.765 114.043C249.076 114.628 249.433 115.154 249.822 115.602C250.227 116.065 250.674 116.444 251.162 116.728C251.683 117.033 252.308 117.186 253.023 117.186C253.922 117.186 254.648 116.949 255.184 116.475C255.694 116.028 256.062 115.444 256.277 114.744C256.477 114.086 256.561 113.364 256.519 112.606C256.482 111.885 256.382 111.174 256.23 110.474V110.48Z" fill="#FFDC5A"/>
<path d="M279.043 103.42C278.491 102.178 277.74 101.041 276.804 100.03C275.868 99.0192 274.796 98.1822 273.613 97.5557C271.605 96.4871 269.382 96.3292 267.326 96.9662C266.874 97.1083 266.422 97.2715 265.981 97.4557C265.996 97.3926 266.018 97.3241 266.039 97.2557C266.207 96.6661 266.37 96.045 266.538 95.3975C266.706 94.7553 266.848 94.1604 266.979 93.6288C267.163 92.8602 267.184 92.5759 267.184 92.4338C267.184 91.6547 266.885 90.9967 266.291 90.4703C265.718 89.965 265.045 89.707 264.293 89.707C263.358 89.707 262.553 90.1282 261.902 90.9546C261.318 91.6968 260.819 92.6654 260.414 93.8341C260.02 94.9816 259.71 96.2503 259.484 97.6084C259.263 98.9612 259.084 100.293 258.958 101.577C258.826 102.878 258.742 104.078 258.711 105.136C258.674 106.184 258.658 107.005 258.658 107.579C258.658 108.294 258.685 109.279 258.742 110.495C258.8 111.753 258.968 113.016 259.252 114.248C259.536 115.511 259.967 116.617 260.524 117.543C261.145 118.575 262.091 119.117 263.258 119.117C264.267 119.117 265.019 118.807 265.487 118.196C265.802 117.786 266.107 117.307 266.396 116.764C268.672 117.206 270.875 117.085 273.004 116.306C274.302 115.827 275.474 115.159 276.483 114.317C277.503 113.469 278.334 112.432 278.954 111.237C279.574 110.032 279.895 108.668 279.895 107.194C279.895 105.952 279.611 104.683 279.054 103.43L279.043 103.42ZM270.528 107.073C270.128 107.331 269.639 107.521 269.082 107.636C268.499 107.757 267.889 107.821 267.263 107.821C266.937 107.821 266.638 107.821 266.359 107.836C266.428 107.647 266.506 107.442 266.596 107.221C266.801 106.705 267.064 106.199 267.374 105.715C267.679 105.241 268.026 104.836 268.404 104.504C268.73 104.22 269.056 104.083 269.408 104.083C269.555 104.083 269.708 104.141 269.871 104.257C270.086 104.415 270.281 104.599 270.449 104.815C270.617 105.031 270.748 105.262 270.838 105.499C270.927 105.731 270.969 105.947 270.969 106.141C270.969 106.72 270.717 106.952 270.522 107.073H270.528Z" fill="#FFDC5A"/>
<path d="M39.8295 76.5159C38.1737 75.5736 36.2971 74.8945 34.2523 74.4997C32.2285 74.1102 30.2047 73.9102 28.2387 73.9102C25.4632 73.9102 22.6771 74.2365 19.9542 74.8893C17.3837 75.5052 14.8868 76.4001 12.5266 77.5582C12.0955 76.9475 11.6224 76.4001 11.1125 75.921C10.4292 75.2788 9.53028 74.9524 8.44216 74.9524C7.21736 74.9524 6.12399 75.5368 5.19882 76.6896C4.34199 77.7582 3.6008 79.1321 2.99629 80.7745C2.40229 82.3906 1.90291 84.2119 1.51918 86.1965C1.13018 88.1705 0.825305 90.1182 0.604526 91.9922C0.383747 93.8873 0.226041 95.6297 0.136678 97.172C0.0473149 98.7249 0 99.9094 0 100.699C0 101.573 0.0210458 102.752 0.0525856 104.21C0.0893821 105.695 0.189235 107.326 0.357447 109.064C0.52566 110.806 0.767495 112.601 1.07764 114.391C1.39303 116.217 1.8451 117.891 2.42333 119.365C3.01208 120.871 3.7585 122.118 4.64162 123.082C5.58256 124.108 6.74954 124.629 8.10576 124.629C9.75108 124.629 10.9811 124.04 11.7591 122.882C12.495 121.787 12.863 120.534 12.863 119.144C12.863 117.665 12.8052 116.17 12.6948 114.701C12.5949 113.38 12.5108 112.059 12.4425 110.774C13.7251 110.548 15.013 110.348 16.2798 110.169C17.7359 109.969 19.1973 109.716 20.6218 109.422C22.367 109.085 24.2173 108.569 26.115 107.884C28.0179 107.2 29.9155 106.347 31.7448 105.347C33.5741 104.347 35.3351 103.194 36.9857 101.915C38.6416 100.631 40.1187 99.1724 41.3645 97.5826C42.6156 95.9929 43.6301 94.2557 44.3818 92.4186C45.1387 90.5656 45.5225 88.5706 45.5225 86.4913C45.5225 84.0487 44.9863 81.9852 43.9245 80.3639C42.8731 78.7584 41.4907 77.4581 39.8138 76.5053L39.8295 76.5159ZM24.8376 84.3225C25.8048 84.2172 26.5776 84.1593 27.1453 84.1593C27.5658 84.1593 28.1756 84.1961 28.9693 84.2698C29.7421 84.3383 30.52 84.4751 31.277 84.6699C32.0077 84.8594 32.649 85.1279 33.1799 85.4806C33.6162 85.7701 33.8212 86.1122 33.8212 86.5544C33.8212 86.8124 33.7424 87.1335 33.5847 87.5072C32.8119 89.3339 31.6292 90.9657 30.0627 92.3554C28.4752 93.7662 26.6669 94.9611 24.6852 95.9087C22.6982 96.8615 20.5955 97.5879 18.4456 98.0722C16.2956 98.5565 14.2403 98.8039 12.3479 98.8039H11.9378L11.9956 90.0814C11.9956 89.4865 12.2427 88.9496 12.7473 88.4442C13.3098 87.8862 14.0563 87.3704 14.9709 86.9229C15.9119 86.4597 16.9737 86.0543 18.1302 85.7174C19.2971 85.3753 20.4746 85.0805 21.6311 84.8489C22.7875 84.612 23.8652 84.4383 24.8271 84.333L24.8376 84.3225Z" fill="black"/>
<path d="M62.259 89.4984C60.6557 88.7246 58.8895 88.4298 57.0024 88.6246C55.1257 88.8141 53.3753 89.4458 51.7878 90.4986C50.2055 91.5514 48.8651 93.0096 47.8032 94.8309C46.7309 96.6681 46.1895 98.8685 46.1895 101.374C46.1895 102.822 46.4207 104.254 46.8781 105.638C47.3354 107.033 48.0135 108.291 48.8914 109.386C49.7745 110.486 50.8574 111.371 52.1084 112.029C53.37 112.692 54.8104 113.024 56.3926 113.024C58.0852 113.024 59.657 112.65 61.0605 111.918C62.4483 111.192 63.6678 110.218 64.6823 109.007C65.6916 107.807 66.4853 106.438 67.053 104.948C67.626 103.448 67.9151 101.874 67.9151 100.274C67.9151 97.4366 67.3684 95.1047 66.2961 93.3359C65.2185 91.5672 63.8623 90.2775 62.2537 89.5037L62.259 89.4984ZM60.9291 100.216C60.9291 101.816 60.5086 103.027 59.6465 103.927C58.7739 104.833 57.8487 105.322 56.8131 105.422C55.8039 105.517 54.8997 105.191 54.0534 104.427C53.2176 103.675 52.797 102.39 52.797 100.606C52.797 99.458 53.0073 98.5052 53.4173 97.7841C53.8326 97.0576 54.3425 96.4996 54.9418 96.1259C55.541 95.7521 56.1718 95.5732 56.8657 95.5732C57.5596 95.5732 58.2009 95.7416 58.8054 96.0838C59.3994 96.4207 59.9093 96.9418 60.3193 97.6314C60.7241 98.3157 60.9343 99.1896 60.9343 100.227L60.9291 100.216Z" fill="black"/>
<path d="M82.8548 101.894C83.843 101.82 84.8523 101.668 85.8458 101.441C86.8708 101.21 87.775 100.852 88.5319 100.383C89.3993 99.8516 89.8566 99.0462 89.8566 98.0619C89.8566 97.0143 89.4991 96.2036 88.8 95.6614C88.1377 95.1508 87.3387 94.8929 86.4188 94.8929C86.0823 94.8929 85.6723 94.914 85.1677 94.9508C84.6893 94.9877 84.19 95.0245 83.659 95.0613C83.1176 95.0982 82.6025 95.1456 82.1241 95.2035C81.9506 95.2245 81.7877 95.2403 81.6405 95.2509C81.7035 95.014 81.7877 94.7666 81.8823 94.5034L82.5131 92.7662C82.7339 92.1556 82.9336 91.5502 83.1018 90.9712C83.2806 90.3605 83.3699 89.7973 83.3699 89.3077C83.3699 88.1812 83.0388 87.3653 82.3869 86.8757C81.7824 86.423 80.9361 86.1914 79.8742 86.1914C78.8124 86.1914 77.8662 86.5599 77.1618 87.2863C76.5153 87.9549 75.9738 88.7708 75.548 89.7236C75.1328 90.6448 74.7911 91.6397 74.5283 92.6715C74.3075 93.5348 74.1025 94.3086 73.908 94.9666C73.4927 95.0613 73.0827 95.1561 72.6779 95.2614C72.1365 95.4035 71.6371 95.6088 71.1955 95.8667C70.7172 96.151 70.3282 96.5353 70.0443 97.0143C69.7605 97.4986 69.6133 98.125 69.6133 98.8778C69.6133 99.4989 69.7763 100.046 70.0917 100.499C70.386 100.926 70.7645 101.278 71.2061 101.552C71.6161 101.805 72.0629 102.026 72.536 102.205C72.8461 102.32 73.151 102.426 73.4454 102.515C73.4139 103.842 73.5663 105.1 73.8922 106.258C74.2602 107.553 74.8594 108.701 75.6742 109.674C76.4942 110.648 77.5298 111.422 78.7493 111.964C79.9636 112.506 81.3777 112.78 82.9494 112.78C83.5381 112.78 84.1847 112.701 84.8786 112.549C85.583 112.391 86.2506 112.143 86.8603 111.806C87.4859 111.464 88.022 111.006 88.4531 110.459C88.9104 109.869 89.1417 109.143 89.1417 108.29C89.1417 107.321 88.8684 106.505 88.3322 105.858C87.7645 105.179 87.0075 104.863 86.1402 104.958C84.7366 105.1 83.6538 105.174 82.9231 105.174C82.1136 105.174 81.7088 105.037 81.5143 104.916C81.3724 104.831 81.1832 104.668 81.1359 104.237C81.0833 103.763 81.057 103.105 81.057 102.284V102.036C81.5406 101.984 82.1398 101.926 82.8548 101.873V101.894Z" fill="black"/>
<path d="M115.052 106.92C114.789 106.567 114.532 106.225 114.274 105.888C114.053 105.598 113.875 105.277 113.754 104.935C113.401 103.908 113.149 102.824 113.007 101.708C112.865 100.582 112.792 99.4656 112.792 98.3865C112.792 97.3073 112.844 96.165 112.955 95.107C113.065 94.0068 113.123 92.8697 113.123 91.7222C113.123 91.1958 113.097 90.6588 113.039 90.1219C112.976 89.5534 112.834 89.0217 112.602 88.5479C112.361 88.0426 112.003 87.6267 111.541 87.3214C111.067 87.0056 110.442 86.8477 109.68 86.8477C108.844 86.8477 108.155 87.1109 107.63 87.6373C107.251 88.0163 106.888 88.4374 106.552 88.8848H104.507C102.504 88.8848 100.707 89.206 99.1665 89.8324C97.6105 90.4641 96.2964 91.3853 95.2608 92.5592C94.2305 93.7278 93.4368 95.1333 92.9006 96.7336C92.3697 98.318 92.1016 100.097 92.1016 102.019C92.1016 103.119 92.2277 104.309 92.4695 105.561C92.7166 106.835 93.1319 108.03 93.6996 109.12C94.2831 110.231 95.0611 111.168 96.0125 111.905C97.0007 112.673 98.2255 113.063 99.6606 113.063C100.454 113.063 101.18 112.942 101.826 112.699C102.457 112.463 103.051 112.131 103.608 111.72C104.139 111.32 104.649 110.878 105.122 110.404C105.469 110.057 105.811 109.699 106.137 109.325L107.088 110.199C107.567 110.636 108.076 111.047 108.607 111.404C109.149 111.773 109.727 112.078 110.337 112.315C110.962 112.557 111.646 112.684 112.371 112.684C113.317 112.684 114.169 112.431 114.894 111.931C115.683 111.389 116.082 110.557 116.082 109.462C116.082 108.936 115.972 108.457 115.746 108.03C115.551 107.662 115.315 107.288 115.047 106.92H115.052ZM99.8604 105.082C99.8604 105.082 99.2085 105.014 99.2085 101.866C99.2085 101.166 99.2769 100.439 99.4188 99.7078C99.5555 98.9971 99.792 98.3391 100.128 97.7495C100.454 97.1757 100.875 96.7072 101.38 96.3493C101.853 96.0124 102.483 95.8387 103.246 95.8387C103.414 95.8387 103.603 95.8492 103.808 95.865C103.829 95.865 103.845 95.865 103.861 95.865C103.687 96.9915 103.477 98.0759 103.23 99.0919C102.946 100.26 102.536 101.392 102.005 102.45C100.77 104.924 100.05 105.082 99.8604 105.077V105.082Z" fill="black"/>
<path d="M130.254 101.894C131.242 101.82 132.252 101.668 133.245 101.441C134.27 101.21 135.174 100.852 135.931 100.383C136.799 99.8516 137.256 99.0462 137.256 98.0619C137.256 97.0143 136.899 96.2036 136.199 95.6614C135.537 95.1508 134.738 94.8929 133.818 94.8929C133.482 94.8929 133.072 94.914 132.567 94.9508C132.089 94.9877 131.589 95.0245 131.058 95.0613C130.517 95.0982 130.002 95.1456 129.523 95.2035C129.35 95.2245 129.187 95.2403 129.04 95.2509C129.103 95.014 129.187 94.7666 129.282 94.5034L129.912 92.7662C130.133 92.1556 130.333 91.5502 130.501 90.9712C130.68 90.3605 130.769 89.7973 130.769 89.3077C130.769 88.1812 130.438 87.3653 129.786 86.8757C129.182 86.423 128.335 86.1914 127.274 86.1914C126.212 86.1914 125.266 86.5599 124.561 87.2863C123.915 87.9549 123.373 88.7708 122.947 89.7236C122.532 90.6448 122.19 91.6397 121.928 92.6715C121.707 93.5348 121.502 94.3086 121.307 94.9666C120.892 95.0613 120.482 95.1561 120.077 95.2614C119.536 95.4035 119.037 95.6088 118.595 95.8667C118.117 96.151 117.728 96.5353 117.444 97.0143C117.16 97.4986 117.013 98.125 117.013 98.8778C117.013 99.4989 117.176 100.046 117.491 100.499C117.785 100.926 118.164 101.278 118.605 101.552C119.015 101.805 119.462 102.026 119.935 102.205C120.246 102.32 120.55 102.426 120.845 102.515C120.813 103.842 120.966 105.1 121.292 106.258C121.66 107.553 122.259 108.701 123.074 109.674C123.894 110.648 124.929 111.422 126.149 111.964C127.363 112.506 128.777 112.78 130.349 112.78C130.938 112.78 131.584 112.701 132.278 112.549C132.982 112.391 133.65 112.143 134.26 111.806C134.885 111.464 135.421 111.006 135.852 110.459C136.31 109.869 136.541 109.143 136.541 108.29C136.541 107.321 136.268 106.505 135.732 105.858C135.164 105.179 134.407 104.863 133.54 104.958C132.136 105.1 131.053 105.174 130.323 105.174C129.513 105.174 129.108 105.037 128.914 104.916C128.772 104.831 128.583 104.668 128.535 104.237C128.483 103.763 128.456 103.105 128.456 102.284V102.036C128.94 101.984 129.539 101.926 130.254 101.873V101.894Z" fill="black"/>
<path d="M155.459 89.4984C153.856 88.7246 152.084 88.4298 150.203 88.6246C148.326 88.8141 146.575 89.4458 144.988 90.4986C143.406 91.5514 142.065 93.0096 141.003 94.8309C139.931 96.6681 139.39 98.8685 139.39 101.374C139.39 102.822 139.621 104.254 140.078 105.638C140.536 107.033 141.214 108.291 142.092 109.386C142.975 110.486 144.058 111.371 145.309 112.029C146.57 112.692 148.011 113.024 149.593 113.024C151.285 113.024 152.857 112.65 154.261 111.918C155.648 111.192 156.868 110.218 157.882 109.007C158.892 107.807 159.686 106.438 160.253 104.948C160.826 103.448 161.115 101.874 161.115 100.274C161.115 97.4366 160.569 95.1047 159.496 93.3359C158.419 91.5672 157.062 90.2775 155.454 89.5037L155.459 89.4984ZM154.129 100.216C154.129 101.816 153.709 103.027 152.847 103.927C151.974 104.833 151.049 105.322 150.013 105.422C148.999 105.517 148.1 105.191 147.254 104.427C146.418 103.675 145.997 102.39 145.997 100.606C145.997 99.458 146.208 98.5052 146.618 97.7841C147.033 97.0576 147.543 96.4996 148.142 96.1259C148.741 95.7521 149.372 95.5732 150.066 95.5732C150.76 95.5732 151.401 95.7416 152.006 96.0838C152.6 96.4207 153.109 96.9418 153.519 97.6314C153.924 98.3157 154.135 99.1896 154.135 100.227L154.129 100.216Z" fill="black"/>
<path d="M213.819 115.375C212.889 115.375 211.942 115.533 211.012 115.844C210.124 116.144 209.209 116.48 208.289 116.844C207.39 117.202 206.46 117.533 205.524 117.823C204.625 118.102 203.679 118.239 202.712 118.239C200.404 118.239 198.417 117.718 196.809 116.696C195.184 115.665 193.854 114.27 192.856 112.554C191.846 110.822 191.147 108.821 190.774 106.621C190.396 104.399 190.296 102.089 190.48 99.7566C190.658 97.4246 191.116 95.1084 191.831 92.887C192.545 90.6708 193.518 88.6599 194.732 86.9123C195.931 85.1804 197.371 83.7749 199.006 82.7326C200.62 81.7114 202.454 81.1902 204.473 81.1902C205.587 81.1902 206.528 81.4008 207.269 81.8114C208.063 82.2536 208.788 82.7379 209.419 83.2485C210.082 83.7854 210.707 84.2802 211.296 84.7382C211.974 85.2699 212.731 85.5384 213.546 85.5384C215.27 85.5384 216.043 84.6856 216.384 83.9749C216.821 83.0642 217.041 82.0588 217.041 80.9955C217.041 79.3531 216.574 77.837 215.659 76.4894C214.765 75.1787 213.64 74.0416 212.31 73.1046C210.986 72.1782 209.514 71.4623 207.932 70.9674C206.349 70.4779 204.835 70.2305 203.432 70.2305C199.763 70.2305 196.446 71.0675 193.576 72.7256C190.721 74.3733 188.277 76.5684 186.322 79.2583C184.371 81.9377 182.852 85.0277 181.817 88.4441C180.781 91.85 180.203 95.3769 180.087 98.9354C179.977 102.494 180.35 106.026 181.202 109.432C182.053 112.854 183.43 115.954 185.297 118.633C187.168 121.329 189.581 123.534 192.477 125.177C195.384 126.83 198.885 127.667 202.88 127.667C203.558 127.667 204.415 127.598 205.424 127.472C206.434 127.34 207.501 127.135 208.594 126.856C209.687 126.577 210.791 126.219 211.874 125.787C212.968 125.356 213.961 124.835 214.834 124.25C215.722 123.65 216.458 122.961 217.026 122.203C217.625 121.397 217.925 120.465 217.925 119.439C217.925 118.344 217.509 117.381 216.694 116.586C215.88 115.791 214.918 115.391 213.824 115.391L213.819 115.375Z" fill="black"/>
<path d="M230.677 89.8606C230.677 88.7814 230.341 87.8339 229.673 87.0443C228.985 86.2284 228.017 85.8125 226.798 85.8125C225.804 85.8125 224.942 86.202 224.238 86.9759C223.591 87.6812 223.045 88.5867 222.598 89.6658C222.162 90.7239 221.82 91.9188 221.578 93.2085C221.342 94.4719 221.142 95.7405 220.995 96.9881C220.847 98.2252 220.753 99.399 220.716 100.473C220.679 101.542 220.658 102.378 220.658 102.968C220.658 103.763 220.732 104.71 220.884 105.795C221.037 106.89 221.305 107.958 221.683 108.964C222.072 109.996 222.619 110.89 223.302 111.617C224.043 112.401 225.011 112.801 226.188 112.801C227.092 112.801 227.844 112.617 228.422 112.254C228.995 111.896 229.442 111.412 229.763 110.817C230.068 110.248 230.267 109.606 230.367 108.911C230.462 108.248 230.509 107.579 230.509 106.937C230.509 105.379 230.425 103.816 230.257 102.284C230.094 100.789 230.015 99.2464 230.015 97.6882C230.015 96.4406 230.125 95.1509 230.336 93.8665C230.562 92.5242 230.672 91.1818 230.672 89.8711L230.677 89.8606Z" fill="black"/>
<path d="M256.23 105.053V105.042C256.046 104.274 255.846 103.379 255.625 102.357C255.405 101.331 255.205 100.252 255.026 99.1622C254.847 98.062 254.711 96.9618 254.616 95.8984C254.527 94.8509 254.516 93.9086 254.59 93.098C254.632 92.6189 254.579 92.1557 254.427 91.7188C254.274 91.2819 254.033 90.8871 253.707 90.5396C253.391 90.2027 253.018 89.9237 252.597 89.7132C252.161 89.4921 251.709 89.3815 251.262 89.3815C250.453 89.3815 249.775 89.6711 249.254 90.2396C248.797 90.7397 248.382 91.3977 248.035 92.2031C247.698 92.9769 247.383 93.8507 247.104 94.7983C246.836 95.7089 246.516 96.6407 246.158 97.5619C245.801 98.4673 245.38 99.3517 244.897 100.189C244.444 100.978 243.877 101.652 243.209 102.194C243.036 102.3 242.831 102.421 242.589 102.557C242.347 102.694 242.231 102.71 242.189 102.71C241.963 102.71 241.811 102.615 241.669 102.4C241.469 102.089 241.317 101.715 241.222 101.278C241.117 100.805 241.049 100.315 241.012 99.8149C240.975 99.299 240.959 98.8726 240.959 98.5568C240.959 97.404 241.133 96.2827 241.485 95.2246C241.869 94.056 242.058 92.8611 242.058 91.6767C242.058 90.5817 241.701 89.6711 240.996 88.9657C240.292 88.2603 239.435 87.9023 238.452 87.9023C237.401 87.9023 236.523 88.3603 235.834 89.2657C235.214 90.0764 234.709 91.0608 234.325 92.1978C233.947 93.3085 233.684 94.4824 233.532 95.6879C233.385 96.8776 233.306 97.883 233.306 98.6726C233.306 100.068 233.458 101.484 233.758 102.884C234.063 104.305 234.541 105.616 235.188 106.774C235.845 107.958 236.701 108.932 237.732 109.669C238.788 110.427 240.087 110.812 241.585 110.812C243.083 110.812 244.46 110.427 245.59 109.674C246.474 109.085 247.362 108.369 248.235 107.548C248.403 107.906 248.581 108.258 248.765 108.606C249.076 109.19 249.433 109.717 249.822 110.164C250.227 110.627 250.674 111.006 251.162 111.291C251.683 111.596 252.308 111.749 253.023 111.749C253.922 111.749 254.648 111.512 255.184 111.038C255.694 110.59 256.062 110.006 256.277 109.306C256.477 108.648 256.561 107.927 256.519 107.169C256.482 106.448 256.382 105.737 256.23 105.047V105.053Z" fill="black"/>
<path d="M279.043 97.9863C278.491 96.7493 277.74 95.607 276.804 94.5963C275.868 93.5856 274.796 92.7486 273.613 92.1221C271.605 91.0535 269.382 90.8956 267.326 91.5326C266.874 91.6747 266.422 91.8379 265.981 92.0221C265.996 91.959 266.018 91.8905 266.039 91.8221C266.207 91.2325 266.37 90.6114 266.538 89.9639C266.706 89.3217 266.848 88.7321 266.979 88.1952C267.163 87.4266 267.184 87.1423 267.184 87.0002C267.184 86.2211 266.885 85.5631 266.291 85.0367C265.718 84.5314 265.045 84.2734 264.293 84.2734C263.358 84.2734 262.553 84.6946 261.902 85.521C261.318 86.2633 260.819 87.2318 260.414 88.4005C260.02 89.5428 259.71 90.8167 259.484 92.1748C259.263 93.5277 259.084 94.8595 258.958 96.1439C258.826 97.4441 258.742 98.6443 258.711 99.7024C258.674 100.75 258.658 101.571 258.658 102.145C258.658 102.861 258.685 103.845 258.742 105.061C258.8 106.319 258.968 107.583 259.252 108.814C259.536 110.078 259.967 111.183 260.524 112.11C261.145 113.142 262.091 113.684 263.258 113.684C264.267 113.684 265.019 113.373 265.487 112.763C265.802 112.352 266.107 111.873 266.396 111.331C268.672 111.773 270.875 111.652 273.004 110.867C274.302 110.388 275.474 109.72 276.483 108.878C277.503 108.03 278.334 106.993 278.954 105.798C279.574 104.593 279.895 103.229 279.895 101.755C279.895 100.513 279.611 99.2444 279.054 97.9916L279.043 97.9863ZM269.408 98.6443C269.555 98.6443 269.708 98.7022 269.871 98.818C270.086 98.976 270.281 99.1602 270.449 99.376C270.617 99.5918 270.748 99.8235 270.838 100.06C270.927 100.292 270.969 100.508 270.969 100.703C270.969 101.282 270.717 101.513 270.522 101.634C270.123 101.892 269.634 102.082 269.077 102.198C268.493 102.319 267.884 102.382 267.258 102.382C266.932 102.382 266.633 102.382 266.354 102.398C266.422 102.208 266.501 102.003 266.59 101.782C266.795 101.266 267.058 100.76 267.368 100.276C267.673 99.8024 268.02 99.3971 268.399 99.0654C268.725 98.7812 269.051 98.6443 269.403 98.6443H269.408Z" fill="black"/>
</svg>
