<svg width="102" height="69" viewBox="0 0 102 69" fill="none" xmlns="http://www.w3.org/2000/svg">
<g id="transparency" clip-path="url(#clip0_1309_7618)">
<path id="Vector" d="M26.8309 44.2282L25.5909 44.9482C25.4609 45.0182 25.2409 45.0082 25.0909 44.9282L23.9209 44.2482C23.7709 44.1682 23.7609 44.0382 23.8809 43.9582L25.1209 43.2382C25.2509 43.1682 25.4709 43.1782 25.6209 43.2582L26.7909 43.9382C26.9409 44.0182 26.9509 44.1482 26.8309 44.2282Z" fill="#150035"/>
<path id="Vector_2" d="M26.6708 47.6501L25.4308 48.3701C25.3008 48.4401 25.0808 48.4301 24.9308 48.3501L23.7608 47.6701C23.6108 47.5901 23.6008 47.4601 23.7208 47.3801L24.9608 46.6601C25.0908 46.5901 25.3108 46.6001 25.4608 46.6801L26.6308 47.3601C26.7808 47.4401 26.7908 47.5701 26.6708 47.6501Z" fill="#150035"/>
<path id="Vector_3" d="M29.7099 45.9001L28.4699 46.6201C28.3399 46.6901 28.1199 46.6801 27.9699 46.6001L26.7999 45.9201C26.6499 45.8401 26.6399 45.7101 26.7599 45.6301L27.9999 44.9101C28.1299 44.8401 28.3499 44.8501 28.4999 44.9301L29.6699 45.6101C29.8199 45.6901 29.8299 45.8201 29.7099 45.9001Z" fill="#150035"/>
<path id="Vector_4" d="M32.6005 47.5681L31.3605 48.2881C31.2305 48.3581 31.0105 48.3481 30.8605 48.2681L29.6905 47.5881C29.5405 47.5081 29.5305 47.3781 29.6505 47.2981L30.8905 46.5781C31.0205 46.5081 31.2405 46.5181 31.3905 46.5981L32.5605 47.2781C32.7105 47.3581 32.7205 47.4881 32.6005 47.5681Z" fill="#150035"/>
<path id="Vector_5" d="M44.6298 47.4782L43.3898 48.1982C43.2598 48.2682 43.0398 48.2582 42.8898 48.1782L41.7198 47.4982C41.5698 47.4182 41.5598 47.2882 41.6798 47.2082L42.9198 46.4882C43.0498 46.4182 43.2698 46.4282 43.4198 46.5082L44.5898 47.1882C44.7398 47.2682 44.7498 47.3982 44.6298 47.4782Z" fill="#150035"/>
<path id="Vector_6" d="M47.6708 45.7282L46.4308 46.4482C46.3008 46.5182 46.0808 46.5082 45.9308 46.4282L44.7608 45.7482C44.6108 45.6682 44.6008 45.5382 44.7208 45.4582L45.9608 44.7382C46.0908 44.6682 46.3108 44.6782 46.4608 44.7582L47.6308 45.4382C47.7808 45.5182 47.7908 45.6482 47.6708 45.7282Z" fill="#150035"/>
<path id="Vector_7" d="M50.7099 43.9704L49.4699 44.6904C49.3399 44.7604 49.1199 44.7504 48.9699 44.6704L47.7999 43.9904C47.6499 43.9104 47.6399 43.7804 47.7599 43.7004L48.9999 42.9804C49.1299 42.9104 49.3499 42.9204 49.4999 43.0004L50.6699 43.6804C50.8199 43.7604 50.8299 43.8904 50.7099 43.9704Z" fill="#150035"/>
<path id="Vector_8" d="M26.9794 40.7399L25.7394 41.4599C25.6094 41.5299 25.3894 41.5199 25.2394 41.4399L24.0694 40.7599C23.9194 40.6799 23.9094 40.5499 24.0294 40.4699L25.2694 39.7499C25.3994 39.6799 25.6194 39.6899 25.7694 39.7699L26.9394 40.4499C27.0894 40.5299 27.0994 40.6599 26.9794 40.7399Z" fill="#150035"/>
<path id="Vector_9" d="M29.87 42.4118L28.63 43.1318C28.5 43.2018 28.28 43.1918 28.13 43.1118L26.96 42.4318C26.81 42.3518 26.8 42.2218 26.92 42.1418L28.16 41.4218C28.29 41.3518 28.51 41.3618 28.66 41.4418L29.83 42.1218C29.98 42.2018 29.99 42.3318 29.87 42.4118Z" fill="#150035"/>
<path id="Vector_10" d="M32.7606 44.0681L31.5206 44.7881C31.3906 44.8581 31.1706 44.8481 31.0206 44.7681L29.8506 44.0881C29.7006 44.0081 29.6906 43.8781 29.8106 43.7981L31.0506 43.0781C31.1806 43.0081 31.4006 43.0181 31.5506 43.0981L32.7206 43.7781C32.8706 43.8581 32.8806 43.9881 32.7606 44.0681Z" fill="#150035"/>
<path id="Vector_11" d="M35.8095 45.8415L34.5695 46.5615C34.4395 46.6315 34.2195 46.6215 34.0695 46.5415L32.8995 45.8615C32.7495 45.7815 32.7395 45.6515 32.8595 45.5715L34.0995 44.8515C34.2295 44.7815 34.4495 44.7915 34.5995 44.8715L35.7695 45.5515C35.9195 45.6315 35.9295 45.7615 35.8095 45.8415Z" fill="#150035"/>
<path id="Vector_12" d="M38.7001 47.5017L37.4601 48.2217C37.3301 48.2917 37.1101 48.2817 36.9601 48.2017L35.7901 47.5217C35.6401 47.4417 35.6301 47.3117 35.7501 47.2317L36.9901 46.5117C37.1201 46.4417 37.3401 46.4517 37.4901 46.5317L38.6601 47.2117C38.8101 47.2917 38.8201 47.4217 38.7001 47.5017Z" fill="#150035"/>
<path id="Vector_13" d="M41.7392 45.7517L40.4991 46.4717C40.3691 46.5417 40.1491 46.5317 39.9991 46.4517L38.8292 45.7717C38.6792 45.6917 38.6691 45.5617 38.7891 45.4817L40.0291 44.7617C40.1591 44.6917 40.3791 44.7017 40.5291 44.7817L41.6991 45.4617C41.8491 45.5417 41.8592 45.6717 41.7392 45.7517Z" fill="#150035"/>
<path id="Vector_14" d="M44.7802 43.9899L43.5402 44.7099C43.4102 44.7799 43.1902 44.7699 43.0402 44.6899L41.8702 44.0099C41.7202 43.9299 41.7102 43.7999 41.8302 43.7199L43.0702 42.9999C43.2002 42.9299 43.4202 42.9399 43.5702 43.0199L44.7402 43.6999C44.8902 43.7799 44.9002 43.9099 44.7802 43.9899Z" fill="#150035"/>
<path id="Vector_15" d="M47.8192 42.2399L46.5792 42.9599C46.4492 43.0299 46.2292 43.0199 46.0792 42.9399L44.9092 42.2599C44.7592 42.1799 44.7492 42.0499 44.8692 41.9699L46.1092 41.2499C46.2392 41.1799 46.4592 41.1899 46.6092 41.2699L47.7792 41.9499C47.9292 42.0299 47.9392 42.1599 47.8192 42.2399Z" fill="#150035"/>
<path id="Vector_16" d="M50.87 40.4782L49.63 41.1982C49.5 41.2682 49.28 41.2582 49.13 41.1782L47.96 40.4982C47.81 40.4182 47.8 40.2882 47.92 40.2082L49.16 39.4882C49.29 39.4182 49.51 39.4282 49.66 39.5082L50.83 40.1882C50.98 40.2682 50.99 40.3982 50.87 40.4782Z" fill="#150035"/>
<path id="Vector_17" d="M27.1395 37.2009L25.8995 37.9209C25.7695 37.9909 25.5495 37.9809 25.3995 37.9009L24.2295 37.2209C24.0795 37.1409 24.0695 37.0109 24.1895 36.9309L25.4295 36.2109C25.5595 36.1409 25.7795 36.1509 25.9295 36.2309L27.0995 36.9109C27.2495 36.9909 27.2595 37.1209 27.1395 37.2009Z" fill="#150035"/>
<path id="Vector_18" d="M30.0204 38.861L28.7804 39.581C28.6504 39.651 28.4304 39.641 28.2804 39.561L27.1104 38.881C26.9604 38.801 26.9504 38.671 27.0704 38.591L28.3104 37.871C28.4404 37.801 28.6604 37.811 28.8104 37.891L29.9804 38.571C30.1304 38.651 30.1404 38.781 30.0204 38.861Z" fill="#150035"/>
<path id="Vector_19" d="M32.9091 40.529L31.6691 41.249C31.5391 41.319 31.3191 41.309 31.1691 41.229L29.9991 40.549C29.8491 40.469 29.8391 40.339 29.9591 40.259L31.1991 39.539C31.3291 39.469 31.5491 39.479 31.6991 39.559L32.8691 40.239C33.0191 40.319 33.0291 40.449 32.9091 40.529Z" fill="#150035"/>
<path id="Vector_20" d="M35.9696 42.2907L34.7296 43.0107C34.5996 43.0807 34.3796 43.0707 34.2296 42.9907L33.0596 42.3107C32.9096 42.2307 32.8996 42.1007 33.0196 42.0207L34.2596 41.3007C34.3896 41.2307 34.6096 41.2407 34.7596 41.3207L35.9296 42.0007C36.0796 42.0807 36.0896 42.2107 35.9696 42.2907Z" fill="#150035"/>
<path id="Vector_21" d="M38.8505 43.9587L37.6105 44.6787C37.4805 44.7487 37.2605 44.7387 37.1105 44.6587L35.9405 43.9787C35.7905 43.8987 35.7805 43.7687 35.9005 43.6887L37.1405 42.9687C37.2705 42.8987 37.4905 42.9087 37.6405 42.9887L38.8105 43.6687C38.9605 43.7487 38.9705 43.8787 38.8505 43.9587Z" fill="#150035"/>
<path id="Vector_22" d="M41.8895 42.2087L40.6495 42.9287C40.5195 42.9987 40.2995 42.9887 40.1495 42.9087L38.9795 42.2287C38.8295 42.1487 38.8195 42.0187 38.9395 41.9387L40.1795 41.2187C40.3095 41.1487 40.5295 41.1587 40.6795 41.2387L41.8495 41.9187C41.9995 41.9987 42.0095 42.1287 41.8895 42.2087Z" fill="#150035"/>
<path id="Vector_23" d="M44.9403 40.4509L43.7003 41.1709C43.5703 41.2409 43.3503 41.2309 43.2003 41.1509L42.0303 40.4709C41.8803 40.3909 41.8703 40.2609 41.9903 40.1809L43.2303 39.4609C43.3603 39.3909 43.5803 39.4009 43.7303 39.4809L44.9003 40.1609C45.0503 40.2409 45.0603 40.3709 44.9403 40.4509Z" fill="#150035"/>
<path id="Vector_24" d="M47.9794 38.6892L46.7394 39.4092C46.6094 39.4792 46.3894 39.4692 46.2394 39.3892L45.0694 38.7092C44.9194 38.6292 44.9094 38.4992 45.0294 38.4192L46.2694 37.6992C46.3994 37.6292 46.6194 37.6392 46.7694 37.7192L47.9394 38.3992C48.0894 38.4792 48.0994 38.6092 47.9794 38.6892Z" fill="#150035"/>
<path id="Vector_25" d="M51.0204 36.9392L49.7804 37.6592C49.6504 37.7292 49.4304 37.7192 49.2804 37.6392L48.1104 36.9592C47.9604 36.8792 47.9504 36.7492 48.0704 36.6692L49.3104 35.9492C49.4404 35.8792 49.6604 35.8892 49.8104 35.9692L50.9804 36.6492C51.1304 36.7292 51.1404 36.8592 51.0204 36.9392Z" fill="#150035"/>
<path id="Vector_26" d="M27.2899 33.7087L26.0499 34.4287C25.9199 34.4987 25.6999 34.4887 25.5499 34.4087L24.3799 33.7287C24.2299 33.6487 24.2199 33.5187 24.3399 33.4387L25.5799 32.7187C25.7099 32.6487 25.9299 32.6587 26.0799 32.7387L27.2499 33.4187C27.3999 33.4987 27.4099 33.6287 27.2899 33.7087Z" fill="#150035"/>
<path id="Vector_27" d="M30.1806 35.3688L28.9406 36.0888C28.8106 36.1588 28.5906 36.1488 28.4406 36.0688L27.2706 35.3888C27.1206 35.3088 27.1106 35.1788 27.2306 35.0988L28.4706 34.3788C28.6006 34.3088 28.8206 34.3188 28.9706 34.3988L30.1406 35.0788C30.2906 35.1588 30.3006 35.2888 30.1806 35.3688Z" fill="#150035"/>
<path id="Vector_28" d="M33.0692 37.0407L31.8292 37.7607C31.6992 37.8307 31.4792 37.8207 31.3292 37.7407L30.1592 37.0607C30.0092 36.9807 29.9992 36.8507 30.1192 36.7707L31.3592 36.0507C31.4892 35.9807 31.7092 35.9907 31.8592 36.0707L33.0292 36.7507C33.1792 36.8307 33.1892 36.9607 33.0692 37.0407Z" fill="#150035"/>
<path id="Vector_29" d="M36.12 38.7985L34.88 39.5185C34.75 39.5885 34.53 39.5785 34.38 39.4985L33.21 38.8185C33.06 38.7385 33.05 38.6085 33.17 38.5285L34.41 37.8085C34.54 37.7385 34.76 37.7485 34.91 37.8285L36.08 38.5085C36.23 38.5885 36.24 38.7185 36.12 38.7985Z" fill="#150035"/>
<path id="Vector_30" d="M39.0106 40.4704L37.7706 41.1904C37.6406 41.2604 37.4206 41.2504 37.2706 41.1704L36.1006 40.4904C35.9506 40.4104 35.9406 40.2804 36.0606 40.2004L37.3006 39.4804C37.4306 39.4104 37.6506 39.4204 37.8006 39.5004L38.9706 40.1804C39.1206 40.2604 39.1306 40.3904 39.0106 40.4704Z" fill="#150035"/>
<path id="Vector_31" d="M42.0497 38.7087L40.8097 39.4287C40.6797 39.4987 40.4597 39.4887 40.3097 39.4087L39.1397 38.7287C38.9897 38.6487 38.9797 38.5187 39.0997 38.4387L40.3397 37.7187C40.4697 37.6487 40.6897 37.6587 40.8397 37.7387L42.0097 38.4187C42.1597 38.4987 42.1697 38.6287 42.0497 38.7087Z" fill="#150035"/>
<path id="Vector_32" d="M45.0907 36.9587L43.8507 37.6787C43.7207 37.7487 43.5007 37.7387 43.3507 37.6587L42.1807 36.9787C42.0307 36.8987 42.0207 36.7687 42.1407 36.6887L43.3807 35.9687C43.5107 35.8987 43.7307 35.9087 43.8807 35.9887L45.0507 36.6687C45.2007 36.7487 45.2107 36.8787 45.0907 36.9587Z" fill="#150035"/>
<path id="Vector_33" d="M48.1298 35.2009L46.8898 35.9209C46.7598 35.9909 46.5398 35.9809 46.3898 35.9009L45.2198 35.2209C45.0698 35.1409 45.0598 35.0109 45.1798 34.9309L46.4198 34.2109C46.5498 34.1409 46.7698 34.1509 46.9198 34.2309L48.0898 34.9109C48.2398 34.9909 48.2498 35.1209 48.1298 35.2009Z" fill="#150035"/>
<path id="Vector_34" d="M51.1708 33.4392L49.9308 34.1592C49.8008 34.2292 49.5808 34.2192 49.4308 34.1392L48.2608 33.4592C48.1108 33.3792 48.1008 33.2492 48.2208 33.1692L49.4608 32.4492C49.5908 32.3792 49.8108 32.3892 49.9608 32.4692L51.1308 33.1492C51.2808 33.2292 51.2908 33.3592 51.1708 33.4392Z" fill="#150035"/>
<path id="Vector_35" d="M23.7509 46.0915L22.5109 46.8115C22.3809 46.8815 22.1609 46.8715 22.0109 46.7915L20.8409 46.1115C20.6909 46.0315 20.6809 45.9015 20.8009 45.8215L22.0409 45.1015C22.1709 45.0315 22.3909 45.0415 22.5409 45.1215L23.7109 45.8015C23.8609 45.8815 23.8709 46.0115 23.7509 46.0915Z" fill="#150035"/>
<path id="Vector_36" d="M17.8192 46.111L16.5792 46.831C16.4492 46.901 16.2292 46.891 16.0792 46.811L14.9092 46.131C14.7592 46.051 14.7492 45.921 14.8692 45.841L16.1092 45.121C16.2392 45.051 16.4592 45.061 16.6092 45.141L17.7792 45.821C17.9292 45.901 17.9392 46.031 17.8192 46.111Z" fill="#150035"/>
<path id="Vector_37" d="M20.8602 44.361L19.6202 45.081C19.4902 45.151 19.2702 45.141 19.1202 45.061L17.9502 44.381C17.8002 44.301 17.7902 44.171 17.9102 44.091L19.1502 43.371C19.2802 43.301 19.5002 43.311 19.6502 43.391L20.8202 44.071C20.9702 44.151 20.9802 44.281 20.8602 44.361Z" fill="#150035"/>
<path id="Vector_38" d="M23.8993 42.5993L22.6593 43.3193C22.5293 43.3893 22.3093 43.3793 22.1593 43.2993L20.9893 42.6193C20.8393 42.5393 20.8293 42.4093 20.9493 42.3293L22.1893 41.6093C22.3193 41.5393 22.5393 41.5493 22.6893 41.6293L23.8593 42.3093C24.0093 42.3893 24.0193 42.5193 23.8993 42.5993Z" fill="#150035"/>
<path id="Vector_39" d="M26.9403 40.8415L25.7003 41.5615C25.5703 41.6315 25.3503 41.6215 25.2003 41.5415L24.0303 40.8615C23.8803 40.7815 23.8703 40.6515 23.9903 40.5715L25.2303 39.8515C25.3603 39.7815 25.5803 39.7915 25.7303 39.8715L26.9003 40.5515C27.0503 40.6315 27.0603 40.7615 26.9403 40.8415Z" fill="#150035"/>
<path id="Vector_40" d="M6.10048 39.2282L4.86048 39.9482C4.73048 40.0182 4.51048 40.0082 4.36048 39.9282L3.19048 39.2482C3.04048 39.1682 3.03048 39.0382 3.15048 38.9582L4.39048 38.2382C4.52048 38.1682 4.74048 38.1782 4.89048 38.2582L6.06048 38.9382C6.21048 39.0182 6.22048 39.1482 6.10048 39.2282Z" fill="#150035"/>
<path id="Vector_41" d="M8.98915 40.9001L7.74915 41.6201C7.61915 41.6901 7.39915 41.6801 7.24915 41.6001L6.07915 40.9201C5.92915 40.8401 5.91915 40.7101 6.03915 40.6301L7.27915 39.9101C7.40915 39.8401 7.62915 39.8501 7.77915 39.9301L8.94915 40.6101C9.09915 40.6901 9.10915 40.8201 8.98915 40.9001Z" fill="#150035"/>
<path id="Vector_42" d="M12.0399 42.6618L10.7999 43.3818C10.6699 43.4518 10.4499 43.4418 10.2999 43.3618L9.12993 42.6818C8.97993 42.6018 8.96993 42.4718 9.08993 42.3918L10.3299 41.6718C10.4599 41.6018 10.6799 41.6118 10.8299 41.6918L11.9999 42.3718C12.1499 42.4518 12.1599 42.5818 12.0399 42.6618Z" fill="#150035"/>
<path id="Vector_43" d="M14.9306 44.3298L13.6906 45.0498C13.5606 45.1198 13.3406 45.1098 13.1906 45.0298L12.0206 44.3498C11.8706 44.2698 11.8606 44.1398 11.9806 44.0598L13.2206 43.3398C13.3506 43.2698 13.5706 43.2798 13.7206 43.3598L14.8906 44.0398C15.0406 44.1198 15.0506 44.2498 14.9306 44.3298Z" fill="#150035"/>
<path id="Vector_44" d="M17.9696 42.5681L16.7296 43.2881C16.5996 43.3581 16.3796 43.3481 16.2296 43.2681L15.0596 42.5881C14.9096 42.5081 14.8996 42.3781 15.0196 42.2981L16.2596 41.5781C16.3896 41.5081 16.6096 41.5181 16.7596 41.5981L17.9296 42.2781C18.0796 42.3581 18.0896 42.4881 17.9696 42.5681Z" fill="#150035"/>
<path id="Vector_45" d="M21.0106 40.8103L19.7706 41.5302C19.6406 41.6002 19.4206 41.5902 19.2706 41.5102L18.1006 40.8303C17.9506 40.7503 17.9406 40.6202 18.0606 40.5402L19.3006 39.8202C19.4306 39.7502 19.6506 39.7602 19.8006 39.8402L20.9706 40.5202C21.1206 40.6002 21.1306 40.7303 21.0106 40.8103Z" fill="#150035"/>
<path id="Vector_46" d="M24.0595 39.0603L22.8195 39.7802C22.6895 39.8502 22.4695 39.8402 22.3195 39.7602L21.1495 39.0803C20.9995 39.0003 20.9895 38.8702 21.1095 38.7902L22.3495 38.0702C22.4795 38.0002 22.6995 38.0102 22.8495 38.0902L24.0195 38.7702C24.1695 38.8502 24.1795 38.9803 24.0595 39.0603Z" fill="#150035"/>
<path id="Vector_47" d="M27.1005 37.2985L25.8605 38.0185C25.7305 38.0885 25.5105 38.0785 25.3605 37.9985L24.1905 37.3185C24.0405 37.2385 24.0305 37.1085 24.1505 37.0285L25.3905 36.3085C25.5205 36.2385 25.7405 36.2485 25.8905 36.3285L27.0605 37.0085C27.2105 37.0885 27.2205 37.2185 27.1005 37.2985Z" fill="#150035"/>
<path id="Vector_48" d="M3.37001 34.0681L2.13001 34.7881C2.00001 34.8581 1.78001 34.8481 1.63001 34.7681L0.46001 34.0881C0.31001 34.0081 0.30001 33.8781 0.42001 33.7981L1.66001 33.0781C1.79001 33.0081 2.01001 33.0181 2.16001 33.0981L3.33001 33.7781C3.48001 33.8581 3.49001 33.9881 3.37001 34.0681Z" fill="#150035"/>
<path id="Vector_49" d="M6.26063 35.7399L5.02063 36.4599C4.89063 36.5299 4.67063 36.5199 4.52063 36.4399L3.35063 35.7599C3.20063 35.6799 3.19063 35.5499 3.31063 35.4699L4.55063 34.7499C4.68063 34.6799 4.90064 34.6899 5.05063 34.7699L6.22063 35.4499C6.37063 35.5299 6.38063 35.6599 6.26063 35.7399Z" fill="#150035"/>
<path id="Vector_50" d="M9.13954 37.4001L7.89954 38.1201C7.76954 38.1901 7.54954 38.1801 7.39954 38.1001L6.22954 37.4201C6.07954 37.3401 6.06954 37.2101 6.18954 37.1301L7.42954 36.4101C7.55954 36.3401 7.77954 36.3501 7.92954 36.4301L9.09954 37.1101C9.24954 37.1901 9.25954 37.3201 9.13954 37.4001Z" fill="#150035"/>
<path id="Vector_51" d="M12.2001 39.1696L10.9601 39.8896C10.8301 39.9596 10.6101 39.9496 10.4601 39.8696L9.29009 39.1896C9.14009 39.1096 9.13009 38.9796 9.25009 38.8996L10.4901 38.1796C10.6201 38.1096 10.8401 38.1196 10.9901 38.1996L12.1601 38.8796C12.3101 38.9596 12.3201 39.0896 12.2001 39.1696Z" fill="#150035"/>
<path id="Vector_52" d="M15.0809 40.8298L13.8409 41.5498C13.7109 41.6198 13.4909 41.6098 13.3409 41.5298L12.1709 40.8498C12.0209 40.7698 12.0109 40.6398 12.1309 40.5598L13.3709 39.8398C13.5009 39.7698 13.7209 39.7798 13.8709 39.8598L15.0409 40.5398C15.1909 40.6198 15.2009 40.7498 15.0809 40.8298Z" fill="#150035"/>
<path id="Vector_53" d="M18.1298 39.0798L16.8898 39.7998C16.7598 39.8698 16.5398 39.8598 16.3898 39.7798L15.2198 39.0998C15.0698 39.0198 15.0598 38.8898 15.1798 38.8098L16.4198 38.0898C16.5498 38.0198 16.7698 38.0298 16.9198 38.1098L18.0898 38.7898C18.2398 38.8698 18.2498 38.9998 18.1298 39.0798Z" fill="#150035"/>
<path id="Vector_54" d="M21.1708 37.3181L19.9308 38.0381C19.8008 38.1081 19.5808 38.0981 19.4308 38.0181L18.2608 37.3381C18.1108 37.2581 18.1008 37.1281 18.2208 37.0481L19.4608 36.3281C19.5908 36.2581 19.8108 36.2681 19.9608 36.3481L21.1308 37.0281C21.2808 37.1081 21.2908 37.2381 21.1708 37.3181Z" fill="#150035"/>
<path id="Vector_55" d="M24.2099 35.5681L22.9699 36.2881C22.8399 36.3581 22.6199 36.3481 22.4699 36.2681L21.2999 35.5881C21.1499 35.5081 21.1399 35.3781 21.2599 35.2981L22.4999 34.5781C22.6299 34.5081 22.8499 34.5181 22.9999 34.5981L24.1699 35.2781C24.3199 35.3581 24.3299 35.4881 24.2099 35.5681Z" fill="#150035"/>
<path id="Vector_56" d="M27.2509 33.8103L26.0109 34.5302C25.8809 34.6002 25.6609 34.5902 25.5109 34.5102L24.3409 33.8303C24.1909 33.7503 24.1809 33.6202 24.3009 33.5402L25.5409 32.8202C25.6709 32.7502 25.8909 32.7602 26.0409 32.8402L27.2109 33.5202C27.3609 33.6002 27.3709 33.7303 27.2509 33.8103Z" fill="#150035"/>
<path id="Vector_57" d="M63.8098 24.2296V19.1396L62.5498 19.3796C61.1098 16.5296 58.4498 13.8496 54.5598 11.6096C48.1898 7.92957 40.5498 1.71957 32.1998 1.82957C24.3698 1.93957 15.8198 8.14957 9.83984 11.6096C5.94984 13.8596 3.28984 16.5396 1.84984 19.3896L0.589844 19.1396V24.5096C0.589844 29.1796 3.67984 33.8496 9.84984 37.4196C22.1998 44.5496 42.2198 44.5496 54.5598 37.4196C60.8598 33.7796 63.9398 28.9996 63.8098 24.2296ZM48.7998 34.0896C44.2198 36.7396 37.8398 33.3296 31.8398 33.3296C25.8298 33.3296 20.1998 36.7396 15.6198 34.0896C6.45984 28.7996 6.45984 20.2196 15.6198 14.9296C24.7798 9.63957 39.6398 9.63957 48.7998 14.9296C57.9598 20.2196 57.9598 28.7996 48.7998 34.0896Z" fill="#150035"/>
<path id="Vector_58" d="M9.55 37.9305C3.39 34.3705 0 29.6105 0 24.5105V18.4205L1.54 18.7205C3.11 15.8505 5.87 13.2205 9.55 11.0905C10.59 10.4905 11.7 9.81047 12.87 9.09047C18.52 5.63047 25.56 1.33047 32.19 1.23047C32.27 1.23047 32.35 1.23047 32.43 1.23047C39.16 1.23047 45.35 5.15047 50.83 8.61047C52.24 9.50047 53.57 10.3405 54.85 11.0805C58.53 13.2005 61.29 15.8305 62.86 18.7005L64.4 18.4105V24.3405C64.48 29.5005 61.09 34.3205 54.85 37.9205C48.61 41.5305 40.4 43.3305 32.2 43.3305C24 43.3305 15.79 41.5305 9.55 37.9205V37.9305ZM63.22 19.8505L62.22 20.0405L62.02 19.6405C60.59 16.8205 57.91 14.2205 54.26 12.1105C52.95 11.3605 51.62 10.5105 50.2 9.61047C44.86 6.23047 38.82 2.41047 32.43 2.41047C32.36 2.41047 32.28 2.41047 32.21 2.41047C25.9 2.50047 19.02 6.71047 13.49 10.0905C12.31 10.8105 11.19 11.5005 10.14 12.1005C6.49 14.2105 3.81 16.8105 2.38 19.6405L2.18 20.0405L1.18 19.8405V24.5005C1.18 29.1605 4.36 33.5605 10.14 36.9005C22.31 43.9205 42.1 43.9205 54.27 36.9005C60.17 33.4905 63.35 28.9905 63.23 24.2405V23.7705V19.8505H63.22ZM38.41 34.8305C36.24 34.3805 33.99 33.9205 31.83 33.9205C29.67 33.9205 27.49 34.3905 25.4 34.8405C21.79 35.6305 18.38 36.3705 15.32 34.6005C10.7 31.9305 8.15 28.3505 8.15 24.5105C8.15 20.6705 10.7 17.0905 15.32 14.4205C24.63 9.04047 39.78 9.04047 49.09 14.4205C53.71 17.0905 56.26 20.6705 56.26 24.5105C56.26 28.3505 53.71 31.9305 49.09 34.6005C47.7 35.4005 46.19 35.6905 44.59 35.6905C42.64 35.6905 40.56 35.2605 38.42 34.8205L38.41 34.8305ZM38.65 33.6805C42.33 34.4305 45.81 35.1505 48.5 33.5905C52.74 31.1405 55.08 27.9205 55.08 24.5205C55.08 21.1205 52.74 17.9005 48.5 15.4505C39.51 10.2605 24.89 10.2605 15.9 15.4505C11.66 17.9005 9.32 21.1205 9.32 24.5205C9.32 27.9205 11.66 31.1405 15.9 33.5905C18.57 35.1305 21.62 34.4705 25.15 33.7005C27.3 33.2305 29.52 32.7505 31.83 32.7505C34.14 32.7505 36.42 33.2205 38.65 33.6805Z" fill="#150035"/>
<path id="Vector_59" d="M54.5604 5.92172C42.2104 -1.20828 22.1904 -1.20828 9.85039 5.92172C-2.49961 13.0517 -2.49961 24.6117 9.85039 31.7417C22.2004 38.8717 42.2204 38.8717 54.5604 31.7417C66.9104 24.6117 66.9104 13.0517 54.5604 5.92172ZM48.7904 28.4117C39.6304 33.7017 24.7704 33.7017 15.6104 28.4117C6.45039 23.1217 6.45039 14.5417 15.6104 9.25172C24.7704 3.96172 39.6304 3.96172 48.7904 9.25172C57.9504 14.5417 57.9504 23.1217 48.7904 28.4117Z" fill="#FBB937"/>
<path id="Vector_60" d="M9.55 32.2414C3.39 28.6914 0 23.9214 0 18.8314C0 13.7414 3.39 8.97141 9.55 5.41141C22.04 -1.79859 42.36 -1.79859 54.85 5.41141C61.01 8.97141 64.4 13.7314 64.4 18.8314C64.4 23.9314 61.01 28.6914 54.85 32.2514C48.6 35.8614 40.4 37.6614 32.2 37.6614C24 37.6614 15.79 35.8614 9.55 32.2514V32.2414ZM10.14 6.42141C4.36 9.76141 1.18 14.1714 1.18 18.8314C1.18 23.4914 4.36 27.8914 10.15 31.2314C22.32 38.2514 42.11 38.2514 54.28 31.2314C60.06 27.8914 63.25 23.4914 63.25 18.8314C63.25 14.1714 60.07 9.77141 54.28 6.43141C48.2 2.92141 40.21 1.16141 32.22 1.16141C24.23 1.16141 16.24 2.92141 10.16 6.43141L10.14 6.42141ZM15.32 28.9114C10.7 26.2414 8.15 22.6614 8.15 18.8214C8.15 14.9814 10.7 11.4014 15.32 8.73141C24.63 3.35141 39.78 3.35141 49.09 8.73141C53.71 11.4014 56.26 14.9814 56.26 18.8214C56.26 22.6614 53.71 26.2414 49.09 28.9114C44.43 31.6014 38.32 32.9414 32.2 32.9414C26.08 32.9414 19.97 31.6014 15.31 28.9114H15.32ZM48.5 9.76141C39.52 4.57141 24.89 4.57141 15.9 9.76141C11.66 12.2114 9.32 15.4314 9.32 18.8314C9.32 22.2314 11.66 25.4514 15.9 27.9014C24.89 33.0914 39.51 33.0914 48.5 27.9014C52.74 25.4514 55.08 22.2314 55.08 18.8314C55.08 15.4314 52.74 12.2114 48.5 9.76141Z" fill="#150035"/>
<path id="Vector_61" d="M45.5406 35.5508H44.6406V41.1508H45.5406V35.5508Z" fill="#FBB937"/>
<path id="Vector_62" d="M6.73008 29.5H5.83008V35.1H6.73008V29.5Z" fill="#FBB937"/>
<path id="Vector_63" d="M14.4293 33.7109H13.5293V39.3109H14.4293V33.7109Z" fill="#FBB937"/>
<path id="Vector_64" d="M45.5406 7.51953H44.6406V13.1195H45.5406V7.51953Z" fill="#FBB937"/>
<path id="Vector_65" d="M20.8609 7.03906H19.9609V12.6391H20.8609V7.03906Z" fill="#FBB937"/>
<path id="Vector_66" d="M37.43 11.8089C31.81 8.56891 22.71 8.56891 17.09 11.8089C11.47 15.0489 11.47 20.3089 17.09 23.5489C22.71 26.7889 31.81 26.7889 37.43 23.5489C43.05 20.3089 43.05 15.0489 37.43 11.8089Z" fill="white"/>
<path id="Vector_67" d="M97.7803 55.2298C97.8803 55.0498 97.8203 54.8298 97.6503 54.7298L56.1803 30.9998C56.1803 30.9998 55.9403 30.9498 55.8003 31.0298L52.1903 33.1198C51.8503 33.3198 51.5703 33.8498 51.5703 34.2998V38.2498C51.5703 38.4498 51.6303 38.5898 51.7203 38.6798L93.1903 62.3998C93.3603 62.4998 93.5903 62.4398 93.6903 62.2698L97.8003 55.2298H97.7803Z" fill="white"/>
<path id="Vector_68" d="M92.8905 62.9181L51.4205 39.1981L51.2905 39.0881C51.1505 38.9381 50.9805 38.6781 50.9805 38.2581V34.3081C50.9805 33.6481 51.3705 32.9181 51.8905 32.6181L55.5105 30.5281C55.8305 30.3481 56.2005 30.4081 56.3105 30.4281L56.4005 30.4481L97.9505 54.2181C98.1705 54.3481 98.3305 54.5481 98.4005 54.7981C98.4705 55.0481 98.4305 55.3081 98.3005 55.5281L94.1905 62.5781C94.0105 62.8781 93.6905 63.0481 93.3705 63.0481C93.2105 63.0481 93.0505 63.0081 92.9005 62.9181H92.8905ZM56.0205 31.5881L52.4805 33.6281C52.3505 33.7081 52.1605 34.0181 52.1605 34.2981L52.1405 38.2481L93.2905 61.7881L97.1705 55.1281L56.0205 31.5881Z" fill="#150035"/>
<path id="Vector_69" d="M97.5796 60.5507L93.9696 62.6407C93.6296 62.8407 93.3496 62.6307 93.3496 62.1707V58.2207C93.3496 57.7707 93.6296 57.2407 93.9696 57.0407L97.5796 54.9507C97.9196 54.7507 98.1996 54.9607 98.1996 55.4207V59.3707C98.1996 59.8207 97.9196 60.3507 97.5796 60.5507Z" fill="#FBB937"/>
<path id="Vector_70" d="M93.2698 63.1795C92.9498 62.9895 92.7598 62.6295 92.7598 62.1695V58.2195C92.7598 57.5595 93.1498 56.8295 93.6698 56.5295L97.2798 54.4395C97.6098 54.2495 97.9698 54.2295 98.2698 54.4095C98.5898 54.5995 98.7798 54.9595 98.7798 55.4195V59.3695C98.7798 60.0295 98.3898 60.7595 97.8698 61.0595L94.2498 63.1495C94.0698 63.2495 93.8898 63.2995 93.7098 63.2995C93.5498 63.2995 93.3998 63.2595 93.2598 63.1795H93.2698ZM97.2898 60.0395C97.4198 59.9595 97.6098 59.6495 97.6098 59.3695V55.6195L94.2598 57.5495C94.1298 57.6295 93.9398 57.9395 93.9398 58.2195V61.9695L97.2898 60.0395Z" fill="#150035"/>
<path id="Vector_71" d="M51.5605 35.5781V38.2581L93.3505 62.1681V59.5381L51.5605 35.5781Z" fill="#150035"/>
<path id="Vector_72" d="M55.449 34.5939L55.002 35.375L76.5616 47.7123L77.0086 46.9312L55.449 34.5939Z" fill="#150035"/>
<path id="Vector_73" d="M81.0992 49.3789L80.6523 50.1602L87.7962 54.2465L88.2431 53.4653L81.0992 49.3789Z" fill="#150035"/>
<path id="Vector_74" d="M32.6792 29.4781C44.2392 29.4781 49.8192 23.2381 49.8792 23.1681L49.1992 22.5781C49.1292 22.6581 42.1092 30.4781 27.3392 28.1481L27.1992 29.0381C29.1592 29.3481 30.9892 29.4781 32.6892 29.4781H32.6792Z" fill="white"/>
<path id="Vector_75" d="M41.8105 25.8397C47.7705 23.4097 49.1405 19.1397 49.2005 18.9497L48.3405 18.6797C48.3405 18.6797 47.0205 22.7397 41.4805 24.9897L41.8205 25.8297L41.8105 25.8397Z" fill="white"/>
<path id="Vector_76" d="M12.0498 22.1309C13.0398 20.3009 14.5698 18.7309 16.6098 17.4809L16.1398 16.7109C13.9598 18.0409 12.3198 19.7209 11.2598 21.7009L12.0598 22.1309H12.0498Z" fill="#FBB937"/>
<path id="Vector_77" d="M52.0094 37.0781H51.1094V38.7681H52.0094V37.0781Z" fill="#FBB937"/>
<path id="Vector_78" d="M28.8895 20.88C29.4895 20.54 30.4595 20.54 31.0495 20.88C31.6495 21.22 31.6495 21.78 31.0495 22.13C30.4495 22.47 29.4795 22.47 28.8895 22.13C28.2895 21.79 28.2895 21.23 28.8895 20.88ZM29.2995 21.12C28.9295 21.33 28.9295 21.68 29.2995 21.9C29.6695 22.11 30.2795 22.11 30.6495 21.9C31.0195 21.69 31.0195 21.34 30.6495 21.12C30.2795 20.91 29.6695 20.91 29.2995 21.12Z" fill="#150035"/>
<path id="Vector_79" d="M25.5391 23.8303L25.9391 24.0703L27.6991 23.0503L27.2891 22.8203L25.5391 23.8303Z" fill="#150035"/>
<path id="Vector_80" d="M25.5391 23.0503L27.2891 24.0703L27.6991 23.8303L25.9391 22.8203L25.5391 23.0503Z" fill="#150035"/>
<path id="Vector_81" d="M22.2801 20.9386C22.8801 20.5986 23.8501 20.5986 24.4401 20.9386C25.0401 21.2786 25.0401 21.8386 24.4401 22.1886C23.8401 22.5286 22.8701 22.5286 22.2801 22.1886C21.6801 21.8486 21.6801 21.2886 22.2801 20.9386ZM22.6901 21.1786C22.3201 21.3886 22.3201 21.7386 22.6901 21.9586C23.0601 22.1686 23.6701 22.1686 24.0401 21.9586C24.4101 21.7486 24.4101 21.3986 24.0401 21.1786C23.6701 20.9686 23.0601 20.9686 22.6901 21.1786Z" fill="#150035"/>
<path id="Vector_82" d="M22.2898 17.0714C22.8898 16.7314 23.8598 16.7314 24.4498 17.0714C25.0498 17.4114 25.0498 17.9714 24.4498 18.3214C23.8498 18.6614 22.8798 18.6614 22.2898 18.3214C21.6898 17.9814 21.6898 17.4214 22.2898 17.0714ZM22.6998 17.3114C22.3298 17.5214 22.3298 17.8714 22.6998 18.0914C23.0698 18.3014 23.6798 18.3014 24.0498 18.0914C24.4198 17.8814 24.4198 17.5314 24.0498 17.3114C23.6798 17.1014 23.0698 17.1014 22.6998 17.3114Z" fill="#150035"/>
<path id="Vector_83" d="M24.9694 19.3792L26.2994 18.6092C26.5294 18.4792 26.9094 18.4792 27.1394 18.6092L28.4694 19.3792C28.6994 19.5092 28.6994 19.7292 28.4694 19.8592L27.1394 20.6292C26.9094 20.7592 26.5294 20.7592 26.2994 20.6292L24.9694 19.8592C24.7394 19.7292 24.7394 19.5092 24.9694 19.3792ZM26.6994 18.8492L25.3694 19.6192C25.3694 19.6192 25.3694 19.6192 25.3694 19.6292L26.7194 20.3992L28.0494 19.6192L26.6994 18.8492Z" fill="#150035"/>
<path id="Vector_84" d="M35.4207 17.1105C36.0207 16.7705 36.9907 16.7705 37.5807 17.1105C38.1807 17.4505 38.1807 18.0105 37.5807 18.3605C36.9807 18.7005 36.0107 18.7005 35.4207 18.3605C34.8207 18.0205 34.8207 17.4605 35.4207 17.1105ZM35.8307 17.3505C35.4607 17.5605 35.4607 17.9105 35.8307 18.1305C36.2007 18.3405 36.8107 18.3405 37.1807 18.1305C37.5507 17.9205 37.5507 17.5705 37.1807 17.3505C36.8107 17.1405 36.2007 17.1405 35.8307 17.3505Z" fill="#150035"/>
<path id="Vector_85" d="M32.0703 20.0608L32.4703 20.3008L34.2303 19.2808L33.8203 19.0508L32.0703 20.0608Z" fill="#150035"/>
<path id="Vector_86" d="M32.0703 19.2808L33.8203 20.3008L34.2303 20.0608L32.4703 19.0508L32.0703 19.2808Z" fill="#150035"/>
<path id="Vector_87" d="M28.8094 17.1691C29.4094 16.8291 30.3794 16.8291 30.9694 17.1691C31.5694 17.5091 31.5694 18.0691 30.9694 18.4191C30.3694 18.7591 29.3994 18.7591 28.8094 18.4191C28.2094 18.0791 28.2094 17.5191 28.8094 17.1691ZM29.2194 17.4091C28.8494 17.6191 28.8494 17.9691 29.2194 18.1891C29.5894 18.3991 30.1994 18.3991 30.5694 18.1891C30.9394 17.9791 30.9394 17.6291 30.5694 17.4091C30.1994 17.1991 29.5894 17.1991 29.2194 17.4091Z" fill="#150035"/>
<path id="Vector_88" d="M28.8191 13.3019C29.4191 12.9619 30.3891 12.9619 30.9791 13.3019C31.5791 13.6419 31.5791 14.2019 30.9791 14.5519C30.3791 14.8919 29.4091 14.8919 28.8191 14.5519C28.2191 14.2119 28.2191 13.6519 28.8191 13.3019ZM29.2291 13.5419C28.8591 13.7519 28.8591 14.1019 29.2291 14.3219C29.5991 14.5319 30.2091 14.5319 30.5791 14.3219C30.9491 14.1119 30.9491 13.7619 30.5791 13.5419C30.2091 13.3319 29.5991 13.3319 29.2291 13.5419Z" fill="#150035"/>
<path id="Vector_89" d="M21.4108 13.6605L22.7408 12.8905C22.9708 12.7605 23.3508 12.7605 23.5808 12.8905L24.9108 13.6605C25.1408 13.7905 25.1408 14.0105 24.9108 14.1405L23.5808 14.9105C23.3508 15.0405 22.9708 15.0405 22.7408 14.9105L21.4108 14.1405C21.1808 14.0105 21.1808 13.7905 21.4108 13.6605ZM23.1408 13.1305L21.8108 13.9005C21.8108 13.9005 21.8108 13.9005 21.8108 13.9105L23.1608 14.6805L24.4908 13.9005L23.1408 13.1305Z" fill="#150035"/>
<path id="Vector_90" d="M25.4297 12.3616L25.8397 12.5916L27.5897 11.5816L27.1897 11.3516L25.4297 12.3616Z" fill="#150035"/>
<path id="Vector_91" d="M25.4297 11.5816L27.1897 12.5916L27.5897 12.3616L25.8397 11.3516L25.4297 11.5816Z" fill="#150035"/>
<path id="Vector_92" d="M25.4707 16.2483L25.8807 16.4883L27.6307 15.4683L27.2207 15.2383L25.4707 16.2483Z" fill="#150035"/>
<path id="Vector_93" d="M25.4707 15.4683L27.2207 16.4883L27.6307 16.2483L25.8807 15.2383L25.4707 15.4683Z" fill="#150035"/>
<path id="Vector_94" d="M65.5692 49.0681L64.3292 49.7881C64.1992 49.8581 63.9792 49.8481 63.8292 49.7681L62.6592 49.0881C62.5092 49.0081 62.4992 48.8781 62.6192 48.7981L63.8592 48.0781C63.9892 48.0081 64.2092 48.0181 64.3592 48.0981L65.5292 48.7781C65.6792 48.8581 65.6892 48.9881 65.5692 49.0681Z" fill="#150035"/>
<path id="Vector_95" d="M65.4208 52.5017L64.1808 53.2217C64.0508 53.2917 63.8308 53.2817 63.6808 53.2017L62.5108 52.5217C62.3608 52.4417 62.3508 52.3117 62.4708 52.2317L63.7108 51.5117C63.8408 51.4417 64.0608 51.4517 64.2108 51.5317L65.3808 52.2117C65.5308 52.2917 65.5408 52.4217 65.4208 52.5017Z" fill="#150035"/>
<path id="Vector_96" d="M68.4599 50.7399L67.2199 51.4599C67.0899 51.5299 66.8699 51.5199 66.7199 51.4399L65.5499 50.7599C65.3999 50.6799 65.3899 50.5499 65.5099 50.4699L66.7499 49.7499C66.8799 49.6799 67.0999 49.6899 67.2499 49.7699L68.4198 50.4499C68.5698 50.5299 68.5798 50.6599 68.4599 50.7399Z" fill="#150035"/>
<path id="Vector_97" d="M68.4696 54.2595L67.2296 54.9795C67.0996 55.0495 66.8796 55.0395 66.7296 54.9595L65.5596 54.2795C65.4096 54.1995 65.3996 54.0695 65.5196 53.9895L66.7596 53.2695C66.8896 53.1995 67.1096 53.2095 67.2596 53.2895L68.4296 53.9695C68.5796 54.0495 68.5896 54.1795 68.4696 54.2595Z" fill="#150035"/>
<path id="Vector_98" d="M71.5106 52.5017L70.2706 53.2217C70.1406 53.2917 69.9206 53.2817 69.7706 53.2017L68.6006 52.5217C68.4506 52.4417 68.4406 52.3117 68.5606 52.2317L69.8006 51.5117C69.9306 51.4417 70.1506 51.4517 70.3006 51.5317L71.4706 52.2117C71.6206 52.2917 71.6306 52.4217 71.5106 52.5017Z" fill="#150035"/>
<path id="Vector_99" d="M71.3602 55.9313L70.1202 56.6513C69.9902 56.7213 69.7702 56.7113 69.6202 56.6313L68.4502 55.9513C68.3002 55.8713 68.2902 55.7413 68.4102 55.6613L69.6502 54.9413C69.7802 54.8713 70.0002 54.8813 70.1502 54.9613L71.3202 55.6413C71.4702 55.7213 71.4802 55.8513 71.3602 55.9313Z" fill="#150035"/>
<path id="Vector_100" d="M74.3993 54.1696L73.1593 54.8896C73.0293 54.9596 72.8093 54.9496 72.6593 54.8696L71.4893 54.1896C71.3393 54.1096 71.3293 53.9796 71.4493 53.8996L72.6893 53.1796C72.8193 53.1096 73.0393 53.1196 73.1893 53.1996L74.3593 53.8796C74.5093 53.9596 74.5193 54.0896 74.3993 54.1696Z" fill="#150035"/>
<path id="Vector_101" d="M74.2509 57.5915L73.0109 58.3115C72.8809 58.3815 72.6609 58.3715 72.5109 58.2915L71.3409 57.6115C71.1909 57.5315 71.1809 57.4015 71.3009 57.3215L72.5409 56.6015C72.6709 56.5315 72.8909 56.5415 73.0409 56.6215L74.2109 57.3015C74.3609 57.3815 74.3709 57.5115 74.2509 57.5915Z" fill="#150035"/>
<path id="Vector_102" d="M77.2899 55.8415L76.0499 56.5615C75.9199 56.6315 75.6999 56.6215 75.5499 56.5415L74.3799 55.8615C74.2299 55.7815 74.2199 55.6515 74.3399 55.5715L75.5799 54.8515C75.7099 54.7815 75.9299 54.7915 76.0799 54.8715L77.2499 55.5515C77.3999 55.6315 77.4099 55.7615 77.2899 55.8415Z" fill="#150035"/>
<path id="Vector_103" d="M77.2997 59.361L76.0597 60.081C75.9297 60.151 75.7097 60.141 75.5597 60.061L74.3897 59.381C74.2397 59.301 74.2297 59.171 74.3497 59.091L75.5897 58.371C75.7197 58.301 75.9397 58.311 76.0897 58.391L77.2597 59.071C77.4097 59.151 77.4197 59.281 77.2997 59.361Z" fill="#150035"/>
<path id="Vector_104" d="M80.3407 57.5993L79.1007 58.3193C78.9707 58.3893 78.7507 58.3793 78.6007 58.2993L77.4307 57.6193C77.2807 57.5393 77.2707 57.4093 77.3907 57.3293L78.6307 56.6093C78.7607 56.5393 78.9807 56.5493 79.1307 56.6293L80.3007 57.3093C80.4507 57.3893 80.4607 57.5193 80.3407 57.5993Z" fill="#150035"/>
<path id="Vector_105" d="M80.1903 61.0212L78.9503 61.7412C78.8203 61.8112 78.6003 61.8012 78.4503 61.7212L77.2803 61.0412C77.1303 60.9612 77.1203 60.8312 77.2403 60.7512L78.4803 60.0312C78.6103 59.9612 78.8303 59.9712 78.9803 60.0512L80.1503 60.7312C80.3003 60.8112 80.3103 60.9412 80.1903 61.0212Z" fill="#150035"/>
<path id="Vector_106" d="M83.2294 59.2712L81.9894 59.9912C81.8594 60.0612 81.6394 60.0512 81.4894 59.9712L80.3194 59.2912C80.1694 59.2112 80.1594 59.0812 80.2794 59.0012L81.5194 58.2812C81.6494 58.2112 81.8694 58.2212 82.0194 58.3012L83.1894 58.9812C83.3394 59.0612 83.3494 59.1912 83.2294 59.2712Z" fill="#150035"/>
<path id="Vector_107" d="M83.081 62.6892L81.8409 63.4092C81.7109 63.4792 81.4909 63.4692 81.3409 63.3892L80.1709 62.7092C80.0209 62.6292 80.0109 62.4992 80.1309 62.4192L81.371 61.6992C81.501 61.6292 81.721 61.6392 81.871 61.7192L83.041 62.3992C83.191 62.4792 83.201 62.6092 83.081 62.6892Z" fill="#150035"/>
<path id="Vector_108" d="M86.12 60.9392L84.88 61.6592C84.75 61.7292 84.53 61.7192 84.38 61.6392L83.21 60.9592C83.06 60.8792 83.05 60.7492 83.17 60.6692L84.41 59.9492C84.54 59.8792 84.76 59.8892 84.91 59.9692L86.08 60.6492C86.23 60.7292 86.24 60.8592 86.12 60.9392Z" fill="#150035"/>
<path id="Vector_109" d="M86.1298 64.4587L84.8898 65.1787C84.7598 65.2487 84.5398 65.2387 84.3898 65.1587L83.2198 64.4787C83.0698 64.3987 83.0598 64.2687 83.1798 64.1887L84.4198 63.4687C84.5498 63.3987 84.7698 63.4087 84.9198 63.4887L86.0898 64.1687C86.2398 64.2487 86.2498 64.3787 86.1298 64.4587Z" fill="#150035"/>
<path id="Vector_110" d="M89.1708 62.7009L87.9308 63.4209C87.8008 63.4909 87.5808 63.4809 87.4308 63.4009L86.2608 62.7209C86.1108 62.6409 86.1008 62.5109 86.2208 62.4309L87.4608 61.7109C87.5908 61.6409 87.8108 61.6509 87.9608 61.7309L89.1308 62.4109C89.2808 62.4909 89.2908 62.6209 89.1708 62.7009Z" fill="#150035"/>
<path id="Vector_111" d="M89.0204 66.1188L87.7804 66.8388C87.6504 66.9088 87.4304 66.8988 87.2804 66.8188L86.1104 66.1388C85.9604 66.0588 85.9504 65.9288 86.0704 65.8488L87.3104 65.1288C87.4404 65.0588 87.6604 65.0688 87.8104 65.1488L88.9804 65.8288C89.1304 65.9088 89.1404 66.0388 89.0204 66.1188Z" fill="#150035"/>
<path id="Vector_112" d="M92.0595 64.3688L90.8195 65.0888C90.6895 65.1588 90.4695 65.1488 90.3195 65.0688L89.1495 64.3888C88.9995 64.3088 88.9895 64.1788 89.1095 64.0988L90.3495 63.3788C90.4795 63.3088 90.6995 63.3188 90.8495 63.3988L92.0195 64.0788C92.1695 64.1588 92.1795 64.2888 92.0595 64.3688Z" fill="#150035"/>
<path id="Vector_113" d="M91.8993 67.7907L90.6593 68.5107C90.5293 68.5807 90.3093 68.5707 90.1593 68.4907L88.9893 67.8107C88.8393 67.7307 88.8293 67.6007 88.9493 67.5207L90.1893 66.8007C90.3193 66.7307 90.5393 66.7407 90.6893 66.8207L91.8593 67.5007C92.0093 67.5807 92.0193 67.7107 91.8993 67.7907Z" fill="#150035"/>
<path id="Vector_114" d="M53.8505 42.1892L52.6105 42.9092C52.4805 42.9792 52.2605 42.9692 52.1105 42.8892L50.9405 42.2092C50.7905 42.1292 50.7805 41.9992 50.9005 41.9192L52.1405 41.1992C52.2705 41.1292 52.4905 41.1392 52.6405 41.2192L53.8105 41.8992C53.9605 41.9792 53.9705 42.1092 53.8505 42.1892Z" fill="#150035"/>
<path id="Vector_115" d="M53.7001 45.611L52.4601 46.331C52.3301 46.401 52.1101 46.391 51.9601 46.311L50.7901 45.631C50.6401 45.551 50.6301 45.421 50.7501 45.341L51.9901 44.621C52.1201 44.551 52.3401 44.561 52.4901 44.641L53.6601 45.321C53.8101 45.401 53.8201 45.531 53.7001 45.611Z" fill="#150035"/>
<path id="Vector_116" d="M56.7392 43.8493L55.4991 44.5693C55.3691 44.6393 55.1491 44.6293 54.9991 44.5493L53.8292 43.8693C53.6792 43.7893 53.6691 43.6593 53.7891 43.5793L55.0291 42.8593C55.1591 42.7893 55.3791 42.7993 55.5291 42.8793L56.6991 43.5593C56.8491 43.6393 56.8592 43.7693 56.7392 43.8493Z" fill="#150035"/>
<path id="Vector_117" d="M56.5907 47.279L55.3507 47.999C55.2207 48.069 55.0007 48.059 54.8507 47.979L53.6807 47.299C53.5307 47.219 53.5207 47.089 53.6407 47.009L54.8807 46.289C55.0107 46.219 55.2307 46.229 55.3807 46.309L56.5507 46.989C56.7007 47.069 56.7107 47.199 56.5907 47.279Z" fill="#150035"/>
<path id="Vector_118" d="M59.6298 45.5212L58.3898 46.2412C58.2598 46.3112 58.0398 46.3012 57.8898 46.2212L56.7198 45.5412C56.5698 45.4612 56.5598 45.3312 56.6798 45.2512L57.9198 44.5312C58.0498 44.4612 58.2698 44.4712 58.4198 44.5512L59.5898 45.2312C59.7398 45.3112 59.7498 45.4412 59.6298 45.5212Z" fill="#150035"/>
<path id="Vector_119" d="M59.6395 49.0407L58.3995 49.7607C58.2695 49.8307 58.0495 49.8207 57.8995 49.7407L56.7295 49.0607C56.5795 48.9807 56.5695 48.8507 56.6895 48.7707L57.9295 48.0507C58.0595 47.9807 58.2795 47.9907 58.4295 48.0707L59.5995 48.7507C59.7495 48.8307 59.7595 48.9607 59.6395 49.0407Z" fill="#150035"/>
<path id="Vector_120" d="M62.6806 47.279L61.4406 47.999C61.3106 48.069 61.0906 48.059 60.9406 47.979L59.7706 47.299C59.6206 47.219 59.6106 47.089 59.7306 47.009L60.9706 46.289C61.1006 46.219 61.3206 46.229 61.4706 46.309L62.6406 46.989C62.7906 47.069 62.8006 47.199 62.6806 47.279Z" fill="#150035"/>
<path id="Vector_121" d="M62.5302 50.7087L61.2902 51.4287C61.1602 51.4987 60.9402 51.4887 60.7902 51.4087L59.6202 50.7287C59.4702 50.6487 59.4602 50.5187 59.5802 50.4387L60.8202 49.7187C60.9502 49.6487 61.1702 49.6587 61.3202 49.7387L62.4902 50.4187C62.6402 50.4987 62.6502 50.6287 62.5302 50.7087Z" fill="#150035"/>
<path id="Vector_122" d="M94.9501 66.029L93.7101 66.749C93.5801 66.819 93.3601 66.809 93.2101 66.729L92.0401 66.049C91.8901 65.969 91.8801 65.839 92.0001 65.759L93.2401 65.039C93.3701 64.969 93.5901 64.979 93.7401 65.059L94.9101 65.739C95.0601 65.819 95.0701 65.949 94.9501 66.029Z" fill="#150035"/>
<path id="Vector_123" d="M97.9891 64.279L96.7491 64.999C96.6191 65.069 96.3991 65.059 96.2491 64.979L95.0792 64.299C94.9292 64.219 94.9191 64.089 95.0391 64.009L96.2791 63.289C96.4091 63.219 96.6291 63.229 96.7791 63.309L97.9491 63.989C98.0991 64.069 98.1091 64.199 97.9891 64.279Z" fill="#150035"/>
<path id="Vector_124" d="M101.03 62.5212L99.7902 63.2412C99.6602 63.3112 99.4402 63.3012 99.2902 63.2212L98.1202 62.5412C97.9702 62.4612 97.9602 62.3312 98.0802 62.2512L99.3202 61.5312C99.4502 61.4612 99.6702 61.4712 99.8202 61.5512L100.99 62.2312C101.14 62.3112 101.15 62.4412 101.03 62.5212Z" fill="#150035"/>
<path id="Vector_125" d="M98.0009 67.7985L96.7609 68.5185C96.6309 68.5885 96.4109 68.5785 96.2609 68.4985L95.0909 67.8185C94.9409 67.7385 94.9309 67.6085 95.0509 67.5285L96.2909 66.8085C96.4209 66.7385 96.6409 66.7485 96.7909 66.8285L97.9609 67.5085C98.1109 67.5885 98.1209 67.7185 98.0009 67.7985Z" fill="#150035"/>
<path id="Vector_126" d="M101.04 66.0407L99.7999 66.7607C99.6699 66.8307 99.4499 66.8207 99.2999 66.7407L98.1299 66.0607C97.9799 65.9807 97.9699 65.8507 98.0899 65.7707L99.3299 65.0507C99.4599 64.9807 99.6799 64.9907 99.8299 65.0707L101 65.7507C101.15 65.8307 101.16 65.9607 101.04 66.0407Z" fill="#150035"/>
</g>
<defs>
<clipPath id="clip0_1309_7618">
<rect width="101.13" height="68.56" fill="white"/>
</clipPath>
</defs>
</svg>
