<svg width="52" height="52" viewBox="0 0 52 52" fill="none" xmlns="http://www.w3.org/2000/svg">
<path d="M26 51C39.8071 51 51 39.8071 51 26C51 12.1929 39.8071 1 26 1C12.1929 1 1 12.1929 1 26C1 39.8071 12.1929 51 26 51Z" stroke="#191A23" stroke-width="2" stroke-miterlimit="10"/>
<g clip-path="url(#clip0_1802_20149)">
<path d="M28.7526 26.4428C28.7526 31.5382 24.6576 35.6704 19.6058 35.6704C14.554 35.6704 10.459 31.5382 10.459 26.4428C10.459 21.3474 14.554 17.2168 19.6058 17.2168C24.6576 17.2168 28.7526 21.3474 28.7526 26.4428Z" fill="#000001"/>
<path d="M38.7874 26.4424C38.7874 31.2389 36.7399 35.1287 34.214 35.1287C31.6882 35.1287 29.6406 31.2389 29.6406 26.4424C29.6406 21.646 31.6882 17.7578 34.214 17.7578C36.7399 17.7578 38.7874 21.646 38.7874 26.4424Z" fill="#000001"/>
<path d="M42.8917 26.445C42.8917 30.7404 42.171 34.2263 41.2837 34.2263C40.3965 34.2263 39.6758 30.7421 39.6758 26.445C39.6758 22.1479 40.3965 18.6621 41.2837 18.6621C42.171 18.6621 42.8917 22.1463 42.8917 26.445Z" fill="#000001"/>
</g>
<defs>
<clipPath id="clip0_1802_20149">
<rect width="32.4324" height="18.4536" fill="white" transform="translate(10.459 17.2168)"/>
</clipPath>
</defs>
</svg>
