<svg width="760" height="577" viewBox="0 0 760 577" fill="none" xmlns="http://www.w3.org/2000/svg">
<path d="M721.498 415.764C719.13 420.058 714.702 423.198 708.243 425.156C701.779 427.116 693.371 427.863 683.214 427.425C662.904 426.548 635.831 420.947 603.862 411.163C539.941 391.598 456.655 355.374 369.171 307.119C281.686 258.863 206.618 207.74 155.972 164.11C130.642 142.289 111.463 122.378 99.8872 105.667C94.0984 97.3091 90.2444 89.7985 88.4543 83.2858C86.6655 76.778 86.9592 71.3573 89.3276 67.0636C91.696 62.7698 96.1243 59.6298 102.583 57.6712C109.047 55.7112 117.455 54.9646 127.612 55.4027C147.922 56.2789 174.995 61.8801 206.964 71.6646C270.885 91.2289 354.171 127.453 441.655 175.709C529.14 223.965 604.208 275.087 654.854 318.717C680.184 340.538 699.363 360.449 710.939 377.161C716.728 385.518 720.581 393.029 722.372 399.542C724.16 406.049 723.867 411.47 721.498 415.764Z" stroke="#FDC500" stroke-width="2"/>
<path d="M695.634 462.65C693.266 466.944 688.837 470.084 682.379 472.043C675.915 474.003 667.506 474.749 657.349 474.311C637.039 473.435 609.966 467.834 577.998 458.049C514.077 438.485 430.791 402.261 343.306 354.005C255.822 305.75 180.754 254.627 130.107 210.997C104.778 189.176 85.5983 169.265 74.023 152.553C68.2341 144.196 64.3801 136.685 62.59 130.173C60.8012 123.665 61.0949 118.244 63.4633 113.95C65.8317 109.657 70.2601 106.516 76.7188 104.558C83.1825 102.598 91.591 101.851 101.748 102.289C122.058 103.166 149.131 108.767 181.099 118.551C245.02 138.116 328.306 174.34 415.791 222.595C503.276 270.851 578.344 321.974 628.99 365.604C654.319 387.425 673.499 407.336 685.074 424.047C690.863 432.405 694.717 439.915 696.507 446.428C698.296 452.936 698.002 458.357 695.634 462.65Z" stroke="#FDC500" stroke-width="2"/>
<path d="M669.772 509.537C667.403 513.831 662.975 516.971 656.516 518.93C650.053 520.89 641.644 521.636 631.487 521.198C611.177 520.322 584.104 514.721 552.136 504.936C488.215 485.372 404.929 449.148 317.444 400.892C229.959 352.636 154.891 301.513 104.245 257.883C78.9156 236.063 59.736 216.152 48.1607 199.44C42.3718 191.083 38.5178 183.572 36.7277 177.059C34.9389 170.551 35.2326 165.131 37.601 160.837C39.9694 156.543 44.3978 153.403 50.8565 151.445C57.3202 149.485 65.7287 148.738 75.8858 149.176C96.1959 150.052 123.269 155.654 155.237 165.438C219.158 185.002 302.444 221.226 389.929 269.482C477.413 317.738 552.481 368.861 603.128 412.491C628.457 434.311 647.637 454.223 659.212 470.934C665.001 479.292 668.855 486.802 670.645 493.315C672.434 499.823 672.14 505.243 669.772 509.537Z" stroke="#FDC500" stroke-width="2"/>
</svg>
