<svg width="20" height="20" viewBox="0 0 20 20" fill="none" xmlns="http://www.w3.org/2000/svg">
<g id="location_on_FILL1_wght400_GRAD0_opsz24">
<path id="Vector" d="M10.0007 17.7721C9.80621 17.7721 9.61176 17.7374 9.41732 17.668C9.22287 17.5985 9.04926 17.4944 8.89648 17.3555C7.99371 16.5221 7.1951 15.7096 6.50065 14.918C5.80621 14.1263 5.22635 13.3589 4.76107 12.6159C4.29579 11.8728 3.94162 11.1576 3.69857 10.4701C3.45551 9.78255 3.33398 9.1263 3.33398 8.5013C3.33398 6.41797 4.00412 4.75825 5.3444 3.52214C6.68468 2.28602 8.23676 1.66797 10.0007 1.66797C11.7645 1.66797 13.3166 2.28602 14.6569 3.52214C15.9972 4.75825 16.6673 6.41797 16.6673 8.5013C16.6673 9.1263 16.5458 9.78255 16.3027 10.4701C16.0597 11.1576 15.7055 11.8728 15.2402 12.6159C14.775 13.3589 14.1951 14.1263 13.5007 14.918C12.8062 15.7096 12.0076 16.5221 11.1048 17.3555C10.952 17.4944 10.7784 17.5985 10.584 17.668C10.3895 17.7374 10.1951 17.7721 10.0007 17.7721ZM10.0007 10.0013C10.459 10.0013 10.8513 9.83811 11.1777 9.51172C11.5041 9.18533 11.6673 8.79297 11.6673 8.33464C11.6673 7.8763 11.5041 7.48394 11.1777 7.15755C10.8513 6.83116 10.459 6.66797 10.0007 6.66797C9.54232 6.66797 9.14996 6.83116 8.82357 7.15755C8.49718 7.48394 8.33398 7.8763 8.33398 8.33464C8.33398 8.79297 8.49718 9.18533 8.82357 9.51172C9.14996 9.83811 9.54232 10.0013 10.0007 10.0013Z" fill="black"/>
</g>
</svg>
