<svg width="120" height="81" viewBox="0 0 120 81" fill="none" xmlns="http://www.w3.org/2000/svg">
<g id="_&#229;&#175;&#131;&#226;&#145;&#184;&#226;&#148;&#129;_&#239;&#167;&#143;&#226;&#145;&#164;&#235;&#177;&#182;" clip-path="url(#clip0_1309_12879)">
<path id="Vector" d="M4.60573 44.2975L3.17218 45.1262C3.02557 45.2075 2.76492 45.2075 2.60202 45.11L1.24992 44.33C1.08702 44.2325 1.05444 44.0862 1.20105 44.005L2.6346 43.1762C2.78121 43.095 3.04186 43.095 3.20476 43.1925L4.55686 43.9725C4.71976 44.07 4.75235 44.2162 4.60573 44.2975Z" fill="#150035"/>
<path id="Vector_2" d="M7.9612 46.2311L6.52765 47.0598C6.38104 47.1411 6.12039 47.1411 5.95749 47.0436L4.60539 46.2636C4.44249 46.1661 4.40991 46.0198 4.55652 45.9386L5.99007 45.1098C6.13668 45.0286 6.39733 45.0286 6.56023 45.1261L7.91233 45.9061C8.07523 46.0036 8.10781 46.1498 7.9612 46.2311Z" fill="#150035"/>
<path id="Vector_3" d="M4.42604 48.2467L2.99249 49.0755C2.84588 49.1567 2.58524 49.1567 2.42233 49.0592L1.07023 48.2792C0.907331 48.1817 0.87475 48.0355 1.02136 47.9542L2.45491 47.1255C2.60153 47.0442 2.86217 47.0442 3.02508 47.1417L4.37717 47.9217C4.54008 48.0192 4.57266 48.1655 4.42604 48.2467Z" fill="#150035"/>
<path id="Vector_4" d="M11.4964 48.2623L10.0628 49.0911C9.91619 49.1723 9.65555 49.1723 9.49265 49.0748L8.14055 48.2948C7.97764 48.1973 7.94506 48.0511 8.09168 47.9698L9.52523 47.1411C9.67184 47.0598 9.93248 47.0598 10.0954 47.1573L11.4475 47.9373C11.6104 48.0348 11.643 48.1811 11.4964 48.2623Z" fill="#150035"/>
<path id="Vector_5" d="M7.9612 50.2936L6.52765 51.1223C6.38104 51.2036 6.12039 51.2036 5.95749 51.1061L4.60539 50.3261C4.44249 50.2286 4.40991 50.0823 4.55652 50.0011L5.99007 49.1723C6.13668 49.0911 6.39733 49.0911 6.56023 49.1886L7.91233 49.9686C8.07523 50.0661 8.10781 50.2123 7.9612 50.2936Z" fill="#150035"/>
<path id="Vector_6" d="M14.8362 50.1803L13.4027 51.0091C13.256 51.0903 12.9954 51.0903 12.8325 50.9928L11.4804 50.2128C11.3175 50.1153 11.2849 49.969 11.4315 49.8878L12.8651 49.059C13.0117 48.9778 13.2723 48.9778 13.4352 49.0753L14.7873 49.8553C14.9502 49.9528 14.9828 50.099 14.8362 50.1803Z" fill="#150035"/>
<path id="Vector_7" d="M11.3167 52.2115L9.88312 53.0403C9.73651 53.1216 9.47586 53.1215 9.31296 53.024L7.96086 52.244C7.79796 52.1465 7.76538 52.0003 7.91199 51.919L9.34554 51.0903C9.49215 51.009 9.7528 51.009 9.9157 51.1065L11.2678 51.8865C11.4307 51.984 11.4633 52.1303 11.3167 52.2115Z" fill="#150035"/>
<path id="Vector_8" d="M18.176 52.1139L16.7425 52.9426C16.5959 53.0239 16.3352 53.0239 16.1723 52.9264L14.8202 52.1464C14.6573 52.0489 14.6248 51.9026 14.7714 51.8214L16.2049 50.9926C16.3515 50.9114 16.6122 50.9114 16.7751 51.0089L18.1272 51.7889C18.2901 51.8864 18.3227 52.0326 18.176 52.1139Z" fill="#150035"/>
<path id="Vector_9" d="M14.6565 54.1451L13.223 54.9739C13.0764 55.0551 12.8157 55.0551 12.6528 54.9576L11.3007 54.1776C11.1378 54.0801 11.1052 53.9339 11.2518 53.8526L12.6854 53.0239C12.832 52.9426 13.0926 52.9426 13.2555 53.0401L14.6076 53.8201C14.7705 53.9176 14.8031 54.0639 14.6565 54.1451Z" fill="#150035"/>
<path id="Vector_10" d="M21.7112 54.1451L20.2777 54.9739C20.131 55.0551 19.8704 55.0551 19.7075 54.9576L18.3554 54.1776C18.1925 54.0801 18.1599 53.9339 18.3065 53.8526L19.7401 53.0239C19.8867 52.9426 20.1473 52.9426 20.3102 53.0401L21.6623 53.8201C21.8252 53.9176 21.8578 54.0639 21.7112 54.1451Z" fill="#150035"/>
<path id="Vector_11" d="M18.1917 56.1764L16.7581 57.0051C16.6115 57.0864 16.3509 57.0864 16.188 56.9889L14.8359 56.2089C14.673 56.1114 14.6404 55.9651 14.787 55.8839L16.2205 55.0551C16.3672 54.9739 16.6278 54.9739 16.7907 55.0714L18.1428 55.8514C18.3057 55.9489 18.3383 56.0951 18.1917 56.1764Z" fill="#150035"/>
<path id="Vector_12" d="M25.0667 56.0787L23.6331 56.9075C23.4865 56.9887 23.2259 56.9887 23.063 56.8912L21.7109 56.1112C21.548 56.0137 21.5154 55.8675 21.662 55.7862L23.0955 54.9575C23.2422 54.8762 23.5028 54.8762 23.6657 54.9737L25.0178 55.7537C25.1807 55.8512 25.2133 55.9975 25.0667 56.0787Z" fill="#150035"/>
<path id="Vector_13" d="M21.5315 58.11L20.098 58.9387C19.9514 59.02 19.6907 59.02 19.5278 58.9225L18.1757 58.1425C18.0128 58.045 17.9802 57.8987 18.1268 57.8175L19.5604 56.9887C19.707 56.9075 19.9676 56.9075 20.1305 57.005L21.4826 57.785C21.6455 57.8825 21.6781 58.0287 21.5315 58.11Z" fill="#150035"/>
<path id="Vector_14" d="M28.4065 57.9967L26.973 58.8255C26.8264 58.9067 26.5657 58.9067 26.4028 58.8092L25.0507 58.0292C24.8878 57.9317 24.8552 57.7855 25.0018 57.7042L26.4354 56.8755C26.582 56.7942 26.8426 56.7942 27.0055 56.8917L28.3576 57.6717C28.5205 57.7692 28.5531 57.9155 28.4065 57.9967Z" fill="#150035"/>
<path id="Vector_15" d="M24.887 60.028L23.4534 60.8567C23.3068 60.938 23.0462 60.938 22.8833 60.8405L21.5312 60.0605C21.3683 59.963 21.3357 59.8167 21.4823 59.7355L22.9159 58.9067C23.0625 58.8255 23.3231 58.8254 23.486 58.9229L24.8381 59.703C25.001 59.8005 25.0336 59.9467 24.887 60.028Z" fill="#150035"/>
<path id="Vector_16" d="M31.9397 60.0436L30.5062 60.8723C30.3596 60.9536 30.0989 60.9536 29.936 60.8561L28.5839 60.0761C28.421 59.9786 28.3884 59.8323 28.535 59.7511L29.9686 58.9223C30.1152 58.8411 30.3758 58.8411 30.5387 58.9386L31.8908 59.7186C32.0537 59.8161 32.0863 59.9623 31.9397 60.0436Z" fill="#150035"/>
<path id="Vector_17" d="M28.4221 62.0748L26.9886 62.9036C26.842 62.9848 26.5813 62.9848 26.4184 62.8873L25.0663 62.1073C24.9034 62.0098 24.8708 61.8636 25.0175 61.7823L26.451 60.9536C26.5976 60.8723 26.8583 60.8723 27.0212 60.9698L28.3733 61.7498C28.5362 61.8473 28.5688 61.9936 28.4221 62.0748Z" fill="#150035"/>
<path id="Vector_18" d="M35.2796 61.9615L33.846 62.7903C33.6994 62.8716 33.4388 62.8715 33.2758 62.774L31.9238 61.994C31.7608 61.8965 31.7283 61.7503 31.8749 61.669L33.3084 60.8403C33.455 60.759 33.7157 60.759 33.8786 60.8565L35.2307 61.6366C35.3936 61.7341 35.4262 61.8803 35.2796 61.9615Z" fill="#150035"/>
<path id="Vector_19" d="M31.762 63.9928L30.3284 64.8216C30.1818 64.9028 29.9212 64.9028 29.7583 64.8053L28.4062 64.0253C28.2433 63.9278 28.2107 63.7815 28.3573 63.7003L29.7908 62.8715C29.9375 62.7903 30.1981 62.7903 30.361 62.8878L31.7131 63.6678C31.876 63.7653 31.9086 63.9115 31.762 63.9928Z" fill="#150035"/>
<path id="Vector_20" d="M38.635 63.8951L37.2015 64.7239C37.0549 64.8051 36.7942 64.8052 36.6313 64.7077L35.2792 63.9276C35.1163 63.8301 35.0837 63.6839 35.2303 63.6026L36.6639 62.7739C36.8105 62.6926 37.0712 62.6926 37.2341 62.7901L38.5862 63.5701C38.7491 63.6676 38.7816 63.8139 38.635 63.8951Z" fill="#150035"/>
<path id="Vector_21" d="M35.1018 65.9264L33.6683 66.7551C33.5217 66.8364 33.261 66.8364 33.0981 66.7389L31.746 65.9589C31.5831 65.8614 31.5505 65.7151 31.6971 65.6339L33.1307 64.8051C33.2773 64.7239 33.538 64.7239 33.7009 64.8214L35.053 65.6014C35.2159 65.6989 35.2484 65.8451 35.1018 65.9264Z" fill="#150035"/>
<path id="Vector_22" d="M42.1702 65.9264L40.7366 66.7551C40.59 66.8364 40.3294 66.8364 40.1665 66.7389L38.8144 65.9589C38.6515 65.8614 38.6189 65.7151 38.7655 65.6339L40.1991 64.8051C40.3457 64.7239 40.6063 64.7239 40.7692 64.8214L42.1213 65.6014C42.2842 65.6989 42.3168 65.8451 42.1702 65.9264Z" fill="#150035"/>
<path id="Vector_23" d="M38.6526 67.9576L37.2191 68.7864C37.0724 68.8676 36.8118 68.8677 36.6489 68.7702L35.2968 67.9901C35.1339 67.8926 35.1013 67.7464 35.2479 67.6651L36.6815 66.8364C36.8281 66.7551 37.0887 66.7551 37.2516 66.8526L38.6037 67.6326C38.7666 67.7301 38.7992 67.8764 38.6526 67.9576Z" fill="#150035"/>
<path id="Vector_24" d="M45.51 67.86L44.0765 68.6887C43.9299 68.77 43.6692 68.77 43.5063 68.6725L42.1542 67.8925C41.9913 67.795 41.9587 67.6487 42.1053 67.5675L43.5389 66.7387C43.6855 66.6575 43.9462 66.6575 44.1091 66.755L45.4612 67.535C45.6241 67.6325 45.6566 67.7787 45.51 67.86Z" fill="#150035"/>
<path id="Vector_25" d="M41.9924 69.8912L40.5589 70.72C40.4123 70.8012 40.1516 70.8012 39.9887 70.7037L38.6366 69.9237C38.4737 69.8262 38.4412 69.68 38.5878 69.5987L40.0213 68.77C40.1679 68.6887 40.4286 68.6887 40.5915 68.7862L41.9436 69.5662C42.1065 69.6637 42.1391 69.81 41.9924 69.8912Z" fill="#150035"/>
<path id="Vector_26" d="M48.8499 69.778L47.4163 70.6067C47.2697 70.688 47.0091 70.688 46.8462 70.5905L45.4941 69.8105C45.3312 69.713 45.2986 69.5667 45.4452 69.4855L46.8787 68.6567C47.0254 68.5755 47.286 68.5754 47.4489 68.6729L48.801 69.453C48.9639 69.5505 48.9965 69.6967 48.8499 69.778Z" fill="#150035"/>
<path id="Vector_27" d="M45.3303 71.8092L43.8968 72.638C43.7502 72.7192 43.4895 72.7192 43.3266 72.6217L41.9745 71.8417C41.8116 71.7442 41.779 71.598 41.9257 71.5167L43.3592 70.688C43.5058 70.6067 43.7665 70.6067 43.9294 70.7042L45.2815 71.4842C45.4444 71.5817 45.477 71.728 45.3303 71.8092Z" fill="#150035"/>
<path id="Vector_28" d="M52.4007 71.8248L50.9671 72.6536C50.8205 72.7348 50.5598 72.7348 50.3969 72.6373L49.0448 71.8573C48.8819 71.7598 48.8494 71.6136 48.996 71.5323L50.4295 70.7036C50.5761 70.6223 50.8368 70.6223 50.9997 70.7198L52.3518 71.4998C52.5147 71.5973 52.5473 71.7436 52.4007 71.8248Z" fill="#150035"/>
<path id="Vector_29" d="M48.8655 73.8561L47.4319 74.6848C47.2853 74.7661 47.0247 74.7661 46.8618 74.6686L45.5097 73.8886C45.3468 73.7911 45.3142 73.6448 45.4608 73.5636L46.8944 72.7348C47.041 72.6536 47.3016 72.6536 47.4645 72.7511L48.8166 73.5311C48.9795 73.6286 49.0121 73.7748 48.8655 73.8561Z" fill="#150035"/>
<path id="Vector_30" d="M55.7405 73.7428L54.3069 74.5715C54.1603 74.6528 53.8997 74.6528 53.7368 74.5553L52.3847 73.7753C52.2218 73.6778 52.1892 73.5315 52.3358 73.4503L53.7694 72.6215C53.916 72.5403 54.1766 72.5403 54.3395 72.6378L55.6916 73.4178C55.8545 73.5153 55.8871 73.6615 55.7405 73.7428Z" fill="#150035"/>
<path id="Vector_31" d="M52.2229 75.774L50.7894 76.6028C50.6428 76.6841 50.3821 76.6841 50.2192 76.5866L48.8671 75.8066C48.7042 75.709 48.6716 75.5628 48.8182 75.4815L50.2518 74.6528C50.3984 74.5715 50.659 74.5715 50.8219 74.669L52.174 75.4491C52.337 75.5466 52.3695 75.6928 52.2229 75.774Z" fill="#150035"/>
<path id="Vector_32" d="M59.0803 75.6764L57.6468 76.5051C57.5002 76.5864 57.2395 76.5864 57.0766 76.4889L55.7245 75.7089C55.5616 75.6114 55.529 75.4651 55.6757 75.3839L57.1092 74.5551C57.2558 74.4739 57.5165 74.4739 57.6794 74.5714L59.0315 75.3514C59.1944 75.4489 59.227 75.5951 59.0803 75.6764Z" fill="#150035"/>
<path id="Vector_33" d="M55.5608 77.7076L54.1273 78.5364C53.9806 78.6176 53.72 78.6176 53.5571 78.5201L52.205 77.7401C52.0421 77.6426 52.0095 77.4964 52.1561 77.4151L53.5897 76.5864C53.7363 76.5051 53.9969 76.5051 54.1598 76.6026L55.5119 77.3826C55.6748 77.4801 55.7074 77.6264 55.5608 77.7076Z" fill="#150035"/>
<path id="Vector_34" d="M62.6155 77.7076L61.182 78.5364C61.0353 78.6176 60.7747 78.6176 60.6118 78.5201L59.2597 77.7401C59.0968 77.6426 59.0642 77.4964 59.2108 77.4151L60.6444 76.5864C60.791 76.5051 61.0516 76.5051 61.2145 76.6026L62.5666 77.3826C62.7295 77.4801 62.7621 77.6264 62.6155 77.7076Z" fill="#150035"/>
<path id="Vector_35" d="M59.096 79.7389L57.6624 80.5676C57.5158 80.6489 57.2552 80.6489 57.0923 80.5514L55.7402 79.7714C55.5773 79.6739 55.5447 79.5276 55.6913 79.4464L57.1248 78.6176C57.2714 78.5364 57.5321 78.5364 57.695 78.6339L59.0471 79.4139C59.21 79.5114 59.2426 79.6576 59.096 79.7389Z" fill="#150035"/>
<path id="Vector_36" d="M66.1507 75.6764L64.7171 76.5051C64.5705 76.5864 64.3098 76.5864 64.1469 76.4889L62.7948 75.7089C62.6319 75.6114 62.5994 75.4651 62.746 75.3839L64.1795 74.5551C64.3261 74.4739 64.5868 74.4739 64.7497 74.5714L66.1018 75.3514C66.2647 75.4489 66.2973 75.5951 66.1507 75.6764Z" fill="#150035"/>
<path id="Vector_37" d="M69.6682 73.6451L68.2347 74.4739C68.0881 74.5551 67.8274 74.5551 67.6645 74.4576L66.3124 73.6776C66.1495 73.5801 66.1169 73.4339 66.2636 73.3526L67.6971 72.5239C67.8437 72.4426 68.1044 72.4426 68.2673 72.5401L69.6194 73.3201C69.7823 73.4176 69.8148 73.5639 69.6682 73.6451Z" fill="#150035"/>
<path id="Vector_38" d="M73.1878 71.6295L71.7542 72.4583C71.6076 72.5395 71.347 72.5395 71.1841 72.442L69.832 71.662C69.669 71.5645 69.6365 71.4183 69.7831 71.337L71.2166 70.5083C71.3632 70.427 71.6239 70.427 71.7868 70.5245L73.1389 71.3045C73.3018 71.402 73.3344 71.5483 73.1878 71.6295Z" fill="#150035"/>
<path id="Vector_39" d="M76.7073 69.5983L75.2737 70.427C75.1271 70.5083 74.8665 70.5083 74.7036 70.4108L73.3515 69.6308C73.1886 69.5333 73.156 69.387 73.3026 69.3058L74.7362 68.477C74.8828 68.3958 75.1434 68.3958 75.3063 68.4933L76.6584 69.2733C76.8213 69.3708 76.8539 69.517 76.7073 69.5983Z" fill="#150035"/>
<path id="Vector_40" d="M80.2425 67.567L78.8089 68.3958C78.6623 68.477 78.4016 68.477 78.2387 68.3795L76.8866 67.5995C76.7237 67.502 76.6912 67.3558 76.8378 67.2745L78.2713 66.4458C78.4179 66.3645 78.6786 66.3645 78.8415 66.462L80.1936 67.242C80.3565 67.3395 80.3891 67.4858 80.2425 67.567Z" fill="#150035"/>
<path id="Vector_41" d="M83.76 65.5358L82.3265 66.3645C82.1799 66.4458 81.9192 66.4458 81.7563 66.3483L80.4042 65.5683C80.2413 65.4708 80.2087 65.3245 80.3553 65.2433L81.7889 64.4145C81.9355 64.3333 82.1962 64.3333 82.3591 64.4308L83.7112 65.2108C83.8741 65.3083 83.9066 65.4545 83.76 65.5358Z" fill="#150035"/>
<path id="Vector_42" d="M87.2796 63.5045L85.846 64.3333C85.6994 64.4145 85.4388 64.4145 85.2758 64.317L83.9238 63.537C83.7608 63.4395 83.7283 63.2933 83.8749 63.212L85.3084 62.3833C85.455 62.302 85.7157 62.302 85.8786 62.3995L87.2307 63.1795C87.3936 63.277 87.4262 63.4233 87.2796 63.5045Z" fill="#150035"/>
<path id="Vector_43" d="M90.8147 61.4733L89.3812 62.302C89.2346 62.3833 88.9739 62.3833 88.811 62.2858L87.4589 61.5058C87.296 61.4083 87.2634 61.262 87.41 61.1808L88.8436 60.352C88.9902 60.2708 89.2508 60.2708 89.4137 60.3683L90.7658 61.1483C90.9288 61.2458 90.9613 61.392 90.8147 61.4733Z" fill="#150035"/>
<path id="Vector_44" d="M94.3323 59.442L92.8987 60.2708C92.7521 60.352 92.4915 60.352 92.3286 60.2545L90.9765 59.4745C90.8136 59.377 90.781 59.2308 90.9276 59.1495L92.3612 58.3208C92.5078 58.2395 92.7684 58.2395 92.9313 58.337L94.2834 59.117C94.4463 59.2145 94.4789 59.3608 94.3323 59.442Z" fill="#150035"/>
<path id="Vector_45" d="M97.8518 57.4108L96.4183 58.2395C96.2717 58.3208 96.011 58.3208 95.8481 58.2233L94.496 57.4433C94.3331 57.3458 94.3005 57.1995 94.4471 57.1183L95.8807 56.2895C96.0273 56.2083 96.288 56.2083 96.4509 56.3058L97.803 57.0858C97.9659 57.1833 97.9984 57.3295 97.8518 57.4108Z" fill="#150035"/>
<path id="Vector_46" d="M101.369 55.3951L99.9359 56.2239C99.7892 56.3051 99.5286 56.3051 99.3657 56.2076L98.0136 55.4276C97.8507 55.3301 97.8181 55.1839 97.9647 55.1026L99.3983 54.2739C99.5449 54.1926 99.8055 54.1926 99.9684 54.2901L101.321 55.0701C101.483 55.1676 101.516 55.3139 101.369 55.3951Z" fill="#150035"/>
<path id="Vector_47" d="M104.905 53.3639L103.471 54.1926C103.324 54.2739 103.064 54.2739 102.901 54.1764L101.549 53.3964C101.386 53.2989 101.353 53.1526 101.5 53.0714L102.933 52.2426C103.08 52.1614 103.341 52.1614 103.504 52.2589L104.856 53.0389C105.019 53.1364 105.051 53.2826 104.905 53.3639Z" fill="#150035"/>
<path id="Vector_48" d="M108.424 51.3326L106.991 52.1614C106.844 52.2426 106.583 52.2426 106.42 52.1451L105.068 51.3651C104.905 51.2676 104.873 51.1214 105.019 51.0401L106.453 50.2114C106.6 50.1301 106.86 50.1301 107.023 50.2276L108.375 51.0076C108.538 51.1051 108.571 51.2514 108.424 51.3326Z" fill="#150035"/>
<path id="Vector_49" d="M111.942 49.3014L110.508 50.1301C110.362 50.2114 110.101 50.2114 109.938 50.1139L108.586 49.3339C108.423 49.2364 108.39 49.0901 108.537 49.0089L109.971 48.1801C110.117 48.0989 110.378 48.0989 110.541 48.1964L111.893 48.9764C112.056 49.0739 112.088 49.2201 111.942 49.3014Z" fill="#150035"/>
<path id="Vector_50" d="M115.461 47.2701L114.028 48.0989C113.881 48.1801 113.62 48.1801 113.457 48.0826L112.105 47.3026C111.942 47.2051 111.91 47.0589 112.057 46.9776L113.49 46.1489C113.637 46.0676 113.897 46.0676 114.06 46.1651L115.412 46.9451C115.575 47.0426 115.608 47.1889 115.461 47.2701Z" fill="#150035"/>
<path id="Vector_51" d="M65.971 79.6412L64.5374 80.47C64.3908 80.5512 64.1302 80.5512 63.9673 80.4537L62.6152 79.6737C62.4523 79.5762 62.4197 79.43 62.5663 79.3487L63.9998 78.52C64.1465 78.4387 64.4071 78.4387 64.57 78.5362L65.9221 79.3162C66.085 79.4137 66.1176 79.56 65.971 79.6412Z" fill="#150035"/>
<path id="Vector_52" d="M69.4905 77.61L68.0569 78.4387C67.9103 78.52 67.6497 78.52 67.4868 78.4225L66.1347 77.6425C65.9718 77.545 65.9392 77.3987 66.0858 77.3175L67.5194 76.4887C67.666 76.4075 67.9266 76.4075 68.0895 76.505L69.4416 77.285C69.6045 77.3825 69.6371 77.5287 69.4905 77.61Z" fill="#150035"/>
<path id="Vector_53" d="M73.0081 75.5787L71.5745 76.4075C71.4279 76.4887 71.1673 76.4887 71.0044 76.3912L69.6523 75.6112C69.4894 75.5137 69.4568 75.3675 69.6034 75.2862L71.0369 74.4575C71.1836 74.3762 71.4442 74.3762 71.6071 74.4737L72.9592 75.2537C73.1221 75.3512 73.1547 75.4975 73.0081 75.5787Z" fill="#150035"/>
<path id="Vector_54" d="M76.5276 73.5475L75.0941 74.3762C74.9474 74.4575 74.6868 74.4575 74.5239 74.36L73.1718 73.58C73.0089 73.4825 72.9763 73.3362 73.1229 73.255L74.5565 72.4262C74.7031 72.345 74.9637 72.345 75.1266 72.4425L76.4787 73.2225C76.6416 73.32 76.6742 73.4662 76.5276 73.5475Z" fill="#150035"/>
<path id="Vector_55" d="M80.0628 71.5162L78.6292 72.345C78.4826 72.4262 78.2219 72.4262 78.059 72.3287L76.707 71.5487C76.544 71.4512 76.5115 71.305 76.6581 71.2237L78.0916 70.395C78.2382 70.3137 78.4989 70.3137 78.6618 70.4112L80.0139 71.1912C80.1768 71.2887 80.2094 71.435 80.0628 71.5162Z" fill="#150035"/>
<path id="Vector_56" d="M83.5803 69.485L82.1468 70.3137C82.0002 70.395 81.7395 70.395 81.5766 70.2975L80.2245 69.5175C80.0616 69.42 80.029 69.2737 80.1757 69.1925L81.6092 68.3637C81.7558 68.2825 82.0165 68.2825 82.1794 68.38L83.5315 69.16C83.6944 69.2575 83.727 69.4037 83.5803 69.485Z" fill="#150035"/>
<path id="Vector_57" d="M87.0999 67.4537L85.6663 68.2825C85.5197 68.3637 85.2591 68.3637 85.0962 68.2662L83.7441 67.4862C83.5812 67.3887 83.5486 67.2425 83.6952 67.1612L85.1287 66.3325C85.2753 66.2512 85.536 66.2512 85.6989 66.3487L87.051 67.1287C87.2139 67.2262 87.2465 67.3725 87.0999 67.4537Z" fill="#150035"/>
<path id="Vector_58" d="M90.635 65.4381L89.2015 66.2669C89.0549 66.3481 88.7942 66.3481 88.6313 66.2506L87.2792 65.4706C87.1163 65.3731 87.0837 65.2269 87.2303 65.1456L88.6639 64.3169C88.8105 64.2356 89.0712 64.2356 89.2341 64.3331L90.5862 65.1131C90.7491 65.2106 90.7816 65.3569 90.635 65.4381Z" fill="#150035"/>
<path id="Vector_59" d="M94.1526 63.4069L92.7191 64.2356C92.5724 64.3169 92.3118 64.3169 92.1489 64.2194L90.7968 63.4394C90.6339 63.3419 90.6013 63.1956 90.7479 63.1144L92.1815 62.2856C92.3281 62.2044 92.5887 62.2044 92.7516 62.3019L94.1037 63.0819C94.2666 63.1794 94.2992 63.3256 94.1526 63.4069Z" fill="#150035"/>
<path id="Vector_60" d="M97.6721 61.3756L96.2386 62.2044C96.092 62.2856 95.8313 62.2856 95.6684 62.1881L94.3163 61.4081C94.1534 61.3106 94.1208 61.1644 94.2675 61.0831L95.701 60.2544C95.8476 60.1731 96.1083 60.1731 96.2712 60.2706L97.6233 61.0506C97.7862 61.1481 97.8188 61.2944 97.6721 61.3756Z" fill="#150035"/>
<path id="Vector_61" d="M101.192 59.3444L99.7581 60.1731C99.6115 60.2544 99.3509 60.2544 99.188 60.1569L97.8359 59.3769C97.673 59.2794 97.6404 59.1331 97.787 59.0519L99.2205 58.2231C99.3672 58.1419 99.6278 58.1419 99.7907 58.2394L101.143 59.0194C101.306 59.1169 101.338 59.2631 101.192 59.3444Z" fill="#150035"/>
<path id="Vector_62" d="M104.727 57.3131L103.293 58.1419C103.147 58.2231 102.886 58.2231 102.723 58.1256L101.371 57.3456C101.208 57.2481 101.176 57.1019 101.322 57.0206L102.756 56.1919C102.902 56.1106 103.163 56.1106 103.326 56.2081L104.678 56.9881C104.841 57.0856 104.873 57.2319 104.727 57.3131Z" fill="#150035"/>
<path id="Vector_63" d="M108.244 55.2819L106.811 56.1106C106.664 56.1919 106.404 56.1919 106.241 56.0944L104.889 55.3144C104.726 55.2169 104.693 55.0706 104.84 54.9894L106.273 54.1606C106.42 54.0794 106.681 54.0794 106.843 54.1769L108.196 54.9569C108.358 55.0544 108.391 55.2006 108.244 55.2819Z" fill="#150035"/>
<path id="Vector_64" d="M111.764 53.2506L110.33 54.0794C110.184 54.1606 109.923 54.1606 109.76 54.0631L108.408 53.2831C108.245 53.1856 108.213 53.0394 108.359 52.9581L109.793 52.1294C109.939 52.0481 110.2 52.0481 110.363 52.1456L111.715 52.9256C111.878 53.0231 111.911 53.1694 111.764 53.2506Z" fill="#150035"/>
<path id="Vector_65" d="M115.282 51.235L113.848 52.0637C113.701 52.145 113.441 52.145 113.278 52.0475L111.926 51.2675C111.763 51.17 111.73 51.0237 111.877 50.9425L113.31 50.1137C113.457 50.0325 113.718 50.0325 113.881 50.13L115.233 50.91C115.396 51.0075 115.428 51.1537 115.282 51.235Z" fill="#150035"/>
<path id="Vector_66" d="M118.817 49.2037L117.383 50.0325C117.237 50.1137 116.976 50.1137 116.813 50.0162L115.461 49.2362C115.298 49.1387 115.265 48.9925 115.412 48.9112L116.846 48.0825C116.992 48.0012 117.253 48.0012 117.416 48.0987L118.768 48.8787C118.931 48.9762 118.963 49.1225 118.817 49.2037Z" fill="#150035"/>
<path id="Vector_67" d="M118.981 45.2545L117.547 46.0833C117.401 46.1645 117.14 46.1645 116.977 46.067L115.625 45.287C115.462 45.1895 115.429 45.0433 115.576 44.962L117.01 44.1333C117.156 44.052 117.417 44.052 117.58 44.1495L118.932 44.9295C119.095 45.027 119.127 45.1733 118.981 45.2545Z" fill="#150035"/>
<path id="Vector_68" d="M82.7672 15.6342L82.8324 15.3742C83.5003 15.228 84.1356 15.0167 84.6895 14.708C85.7484 14.0905 86.2208 13.278 86.123 12.4817V5.64047L82.5066 4.32422L75.404 9.34548L61.1337 8.04548L60.759 7.83423L60.482 7.99673L58.739 7.83423H51.7178H49.4698L49.4209 16.333H41.6667L34.4175 17.5517L31.9902 17.4055V24.393L38.7996 28.3255L38.9788 28.8618L35.3786 29.138V36.0768C35.346 37.4743 37.0728 38.8881 40.6241 39.1156C43.589 38.7743 45.1528 37.653 45.3809 36.4343C46.619 33.6555 49.7467 34.6143 49.763 34.6143L60.759 40.9518L71.755 34.6143C71.755 34.6143 72.0156 34.338 72.0319 33.948C72.0319 33.948 72.0319 33.8505 72.0319 33.8018V26.8468C72.26 26.9443 72.488 27.0418 72.6998 27.1555C73.5469 27.643 74.0193 28.2443 74.1333 28.878C75.3714 31.6568 78.4992 30.698 78.5154 30.698L89.5114 24.3605V17.373L82.7346 15.6017L82.7672 15.6342Z" fill="#FFDC5A"/>
<path id="Vector_69" d="M60.7744 41.4852L60.5463 41.3715L49.5666 35.0502C49.1919 34.9527 46.8135 34.4002 45.8035 36.5777C45.4777 38.1215 43.5555 39.2427 40.6721 39.584C36.9253 39.3565 35.1659 37.894 34.9379 36.4315H34.9216V36.0902V28.7615L35.3289 28.6965L38.1634 28.469L31.5332 24.6502V24.374V17.1914L31.8427 16.9152H32.0545L34.4003 17.0777L41.6006 15.8752H48.9964L49.0453 7.36016H49.5177H58.7869L60.416 7.50641L60.7907 7.29516L61.3119 7.58767L75.3216 8.85517L82.4894 3.78516L86.6271 5.29641V5.62141L86.5946 12.9177C86.4968 13.7464 85.9104 14.5264 84.9329 15.0789C84.6723 15.2252 84.3954 15.3552 84.0858 15.4689L90.0155 17.0127V17.3702V24.6015L89.8038 24.7477L78.7752 31.1015C78.6612 31.1502 75.1587 32.2227 73.7415 29.0865L73.7089 28.989C73.6112 28.469 73.2039 27.9815 72.5034 27.5915V33.8315C72.5034 33.8315 72.5034 33.929 72.5034 33.994C72.4708 34.5302 72.145 34.904 72.0961 34.9365L71.9821 35.0177L60.7744 41.4852ZM50.0227 34.2702L60.7581 40.4452L71.4608 34.2865C71.4608 34.2865 71.5749 34.0915 71.5912 33.9452V33.9127V33.8315V26.2102L72.2102 26.4702C72.4708 26.5677 72.7152 26.6815 72.9432 26.8115C73.8555 27.3315 74.4257 28.014 74.5886 28.794C75.5986 30.9877 77.977 30.4352 78.3516 30.3215L89.087 24.1465V17.7602L82.1962 15.9564L82.4731 14.9977L82.75 14.9489C83.4179 14.8189 83.9881 14.6077 84.4605 14.3314C85.3239 13.8439 85.7475 13.2102 85.666 12.5439L85.6171 12.0402H85.6823V5.96266L82.5871 4.84141L75.566 9.81392H75.4194L60.921 8.46517L60.7744 8.38392L60.5952 8.48142L58.7218 8.31892H49.9413L49.8924 16.8177H49.42H41.6658L34.384 18.0364L32.4292 17.9064V24.1627L39.1734 28.0465L39.5806 29.2977L35.8176 29.5902V35.7977V36.139C35.8013 37.2277 37.3 38.5115 40.6232 38.7227C43.5066 38.3815 44.7447 37.2927 44.9076 36.399L44.9402 36.3015C46.0316 33.8477 48.5566 33.864 49.811 34.2215H49.925L50.0227 34.319V34.2702Z" fill="#150035"/>
<path id="Vector_70" d="M40.737 32.0299V39.0011L42.6918 38.6761L44.7933 37.4736L45.5101 36.1249L46.5526 34.9874L48.1491 34.4836H48.9473V27.4961H48.0188L46.5038 28.0161L45.6893 28.7311L44.8259 30.4374L43.2457 31.6399L40.7207 31.9974L40.737 32.0299Z" fill="#150035"/>
<path id="Vector_71" d="M60.7578 33.9799V40.9511C60.7578 40.9511 60.7578 40.9511 60.7741 40.9511L71.9656 34.3049L72.2425 27.4961L70.9719 27.9348L60.7741 33.9636L60.7578 33.9799Z" fill="#150035"/>
<path id="Vector_72" d="M69.4082 19.3717V25.238L66.7529 24.7505L64.2441 22.703L64.4396 20.6067L67.1112 19.3555H69.4082V19.3717Z" fill="#150035"/>
<path id="Vector_73" d="M77.0007 23.8855V30.873L78.532 30.7268L89.5279 24.3892V17.418C89.5279 17.418 89.5279 17.418 89.5117 17.418L79.3791 23.398L76.9844 23.9017L77.0007 23.8855Z" fill="#150035"/>
<path id="Vector_74" d="M85.9586 6.46875L86.0889 13.0825L86.0726 13.0988L84.6879 14.7075H84.6716L78.5302 11.0675L78.2695 10.1738L79.4587 9.10126L82.505 8.45126L85.3233 7.3625L85.9586 6.46875Z" fill="#150035"/>
<path id="Vector_75" d="M74.6056 21.9219H73.6934V28.9256H74.6056V21.9219Z" fill="#150035"/>
<path id="Vector_76" d="M54.8947 9.83203H53.9824V15.5683H54.8947V9.83203Z" fill="#150035"/>
<path id="Vector_77" d="M118.312 33.9947H112.464L108 35.051L107.332 34.661C107.332 34.661 104.531 33.7997 103.178 36.0585H96.3365C96.3365 36.0585 96.3365 36.0585 96.3365 36.0422L100.849 33.816V31.5897C100.849 31.5897 100.849 31.4922 100.849 31.4435V24.4559H90.7815L90.0321 24.7159L89.576 24.4559L87.7026 25.5447L80.486 28.0635L70.3208 22.1484H64.2119V29.4122C64.2771 30.111 64.7495 30.7935 65.6781 31.3297C66.5252 31.8172 67.5678 32.0935 68.6755 32.1585C69.4574 32.2722 70.0439 32.4185 70.5163 32.581L69.2294 33.816L65.9713 33.2147L60.8398 34.0272V41.0147L71.8358 47.3523C71.8358 47.3523 74.9799 48.3273 76.2179 45.5322C76.332 44.8985 76.8044 44.2972 77.6515 43.8097C77.8633 43.696 78.0913 43.5822 78.3194 43.501V50.456C78.2705 50.911 78.5963 51.2523 78.5963 51.2523L89.5923 57.5898L100.588 51.2523C100.588 51.2523 103.732 50.2773 104.97 53.0723C105.198 54.291 106.762 55.4123 109.727 55.7535C113.36 55.526 115.038 54.0635 114.956 52.6498V45.7597L110.916 45.3372C110.916 45.3372 110.916 45.3372 110.916 45.321L118.361 41.031V34.0435L118.312 33.9947Z" fill="#FFDC5A"/>
<path id="Vector_78" d="M89.5113 58.1096L89.267 57.9309L78.2058 51.5446C78.2058 51.5446 77.7334 51.0246 77.7986 50.3909V44.1996C77.0981 44.6058 76.6908 45.0933 76.5931 45.5971L76.5605 45.6946C75.1758 48.7821 71.7711 47.8071 71.6245 47.7583L71.5268 47.7096L60.3027 41.2421V40.9658V33.6046L60.6937 33.5233L65.874 32.7108H65.9881L69.0181 33.2796L69.5719 32.7433C69.2624 32.6783 68.9203 32.6133 68.5456 32.5483C67.3727 32.4833 66.265 32.1746 65.3853 31.6708C64.3753 31.0858 63.7726 30.2733 63.7074 29.3958V21.6445H64.1635H70.3702L70.4679 21.6933L80.4865 27.527L87.4587 25.0895L89.5276 23.9033L90.0326 24.1958L90.7494 23.9683H101.273V24.4395V31.4271C101.273 31.4758 101.273 31.5408 101.273 31.6058V34.0758L101.012 34.2058L98.1941 35.6033H102.886C104.303 33.5233 106.893 34.0921 107.366 34.2058L107.577 34.3033L108.05 34.5796L112.448 33.5558H118.752V34.0271V41.2908L118.492 41.4208L112.253 45.0121L115.348 45.3371V45.7596L115.315 53.1046C115.071 54.5509 113.328 55.9809 109.679 56.2084C106.698 55.8671 104.792 54.7459 104.466 53.2021C103.456 51.0084 101.077 51.5609 100.703 51.6746L89.495 58.1259L89.5113 58.1096ZM78.8411 50.8784L89.5439 57.0534L100.426 50.7971C100.572 50.7484 103.977 49.7733 105.362 52.8609L105.394 52.9584C105.557 53.8521 106.795 54.9409 109.744 55.2821C113.067 55.0709 114.533 53.7709 114.468 52.6496L114.436 52.1621H114.468V46.1171L110.493 45.7108L110.363 45.0446L117.873 40.7221V34.4333H112.513L107.919 35.5058L107.072 35.0346C106.584 34.9208 104.58 34.5308 103.537 36.2533L103.407 36.4808H103.146H95.946L95.7668 35.7658L96.0926 35.5871L100.361 33.4746V24.8295H90.8145L89.9349 25.1383L89.5276 24.8945L87.8334 25.902H87.7194L80.3724 28.4695L80.177 28.3395L70.1421 22.5058H64.6034V29.3308C64.6523 29.8671 65.0921 30.4358 65.8414 30.8583C66.5908 31.2971 67.5682 31.5571 68.6271 31.6221C69.409 31.7358 70.0444 31.8821 70.5819 32.0608L71.2987 32.3046L69.3439 34.1896H69.1484L65.874 33.6046L61.1987 34.3358V40.6896L71.934 46.8646C72.2761 46.9621 74.6708 47.5308 75.6971 45.3371C75.86 44.5733 76.4302 43.8908 77.3424 43.3546C77.5705 43.2246 77.8148 43.1108 78.0592 43.0133L78.6945 42.7533V50.3746C78.6782 50.5859 78.776 50.7484 78.8248 50.8296L78.8411 50.8784Z" fill="#150035"/>
<path id="Vector_79" d="M100.571 25.4325V31.5263V31.5425L98.9586 31.965L95.3258 31.7213L93.1918 30.4375L93.1755 30.4213L92.752 28.715V28.6988L93.8271 27.3338H93.8434L96.3195 26.3913H96.3358L99.1215 25.9525L100.539 24.75L100.571 25.4325Z" fill="#150035"/>
<path id="Vector_80" d="M79.8019 35.9297L79.134 36.2384L77.2769 36.8884L76.0226 37.7497L75.2895 39.2447L74.8008 40.1384L73.2532 40.8372L71.8359 40.7234V47.711L74.3121 47.256L75.9737 45.8747L77.3747 43.8435L77.8471 43.1935L79.8019 42.251V35.9297Z" fill="#150035"/>
<path id="Vector_81" d="M89.543 50.3088V57.28C89.543 57.28 89.543 57.28 89.5593 57.28L98.9099 51.9013L100.865 50.8775V43.9062C100.865 43.9062 100.865 43.9062 100.848 43.9062L89.543 50.3088Z" fill="#150035"/>
<path id="Vector_82" d="M108.293 48.7025V55.6738L112.105 55.5438L114.777 53.6263L114.923 52.0013V47.0938C114.923 47.0938 114.923 47.0938 114.907 47.0938L112.838 48.4913L110.492 49.0113L108.309 48.7188L108.293 48.7025Z" fill="#150035"/>
<path id="Vector_83" d="M107.919 41.8939L111.258 42.6902L113.474 43.4377L118.328 40.7564V33.7852C118.328 33.7852 118.328 33.7852 118.312 33.7852L109.434 38.9039L107.511 40.0089L107.039 40.7889L107.332 41.5039L107.919 41.9264V41.8939Z" fill="#150035"/>
<path id="Vector_84" d="M105.492 46.4258H104.58V53.5271H105.492V46.4258Z" fill="#150035"/>
<path id="Vector_85" d="M69.2287 25.043H68.3164V29.658H69.2287V25.043Z" fill="#150035"/>
<path id="Vector_86" d="M60.7575 33.9947H54.9093L50.4457 35.051L49.7778 34.661C49.7778 34.661 46.9759 33.7997 45.6238 36.0585H38.7818C38.7818 36.0585 38.7818 36.0585 38.7818 36.0422L43.2942 33.816V31.5897C43.2942 31.5897 43.2942 31.4922 43.2942 31.4435V24.4559H33.2268L32.4775 24.7159L32.0213 24.4559L30.1479 25.5447L22.9313 28.0635L12.7661 22.1484H6.65726V29.4122C6.72242 30.111 7.19484 30.7935 8.12339 31.3297C8.97049 31.8172 10.0131 32.0935 11.1208 32.1585C11.9027 32.2722 12.4892 32.4185 12.9616 32.581L11.6747 33.816L8.41661 33.2147L3.28516 34.0272V41.0147L14.2811 47.3523C14.2811 47.3523 17.4252 48.3273 18.6632 45.5322C18.7773 44.8985 19.2497 44.2972 20.0968 43.8097C20.3086 43.696 20.5366 43.5822 20.7647 43.501V50.456C20.7158 50.911 21.0416 51.2523 21.0416 51.2523L32.0376 57.5898L43.0336 51.2523C43.0336 51.2523 46.1776 50.2773 47.4157 53.0723C47.6438 54.291 49.2076 55.4123 52.1725 55.7535C55.8052 55.526 57.4831 54.0635 57.4017 52.6498V45.7597L53.3617 45.3372C53.3617 45.3372 53.3617 45.3372 53.3617 45.321L60.8064 41.031V34.0435L60.7575 33.9947Z" fill="#FFDC5A"/>
<path id="Vector_87" d="M31.9566 58.1096L31.7123 57.9309L20.6511 51.5446C20.6511 51.5446 20.1787 51.0246 20.2439 50.3909V44.1996C19.5434 44.6058 19.1361 45.0933 19.0384 45.5971L19.0058 45.6946C17.6211 48.7821 14.2164 47.8071 14.0698 47.7583L13.9721 47.7096L2.74805 41.2421V40.9658V33.6046L3.13902 33.5233L8.31934 32.7108H8.43338L11.4634 33.2796L12.0173 32.7433C11.7077 32.6783 11.3656 32.6133 10.991 32.5483C9.81805 32.4833 8.71031 32.1746 7.83063 31.6708C6.82063 31.0858 6.21789 30.2733 6.15273 29.3958V21.6445H6.60886H12.8155L12.9132 21.6933L22.9318 27.527L29.904 25.0895L31.9729 23.9033L32.4779 24.1958L33.1947 23.9683H43.7183V24.4395V31.4271C43.7183 31.4758 43.7183 31.5408 43.7183 31.6058V34.0758L43.4576 34.2058L40.6394 35.6033H45.331C46.7645 33.5233 49.3384 34.0921 49.8108 34.2058L50.0226 34.3033L50.495 34.5796L54.8934 33.5558H61.1978V34.0271V41.2908L60.9371 41.4208L54.6979 45.0121L57.7931 45.3371V45.7596L57.7605 53.1046C57.5162 54.5509 55.7731 55.9809 52.1241 56.2084C49.1429 55.8671 47.237 54.7459 46.9112 53.2021C45.9012 51.0084 43.5228 51.5609 43.1481 51.6746L31.9403 58.1259L31.9566 58.1096ZM21.2865 50.8784L31.9892 57.0534L42.8712 50.7971C43.0178 50.7484 46.4224 49.7733 47.8071 52.8609L47.8397 52.9584C48.0026 53.8521 49.2407 54.9409 52.1892 55.2821C55.5125 55.0709 56.9786 53.7709 56.9134 52.6496L56.8808 52.1621H56.9134V46.1171L52.9386 45.7108L52.8083 45.0446L60.3181 40.7221V34.4333H54.9586L50.3647 35.5058L49.5176 35.0346C49.0289 34.9208 47.0252 34.5308 45.9826 36.2533L45.8523 36.4808H45.5916H38.3913L38.2121 35.7658L38.5379 35.5871L42.806 33.4746V24.8295H33.2599L32.3802 25.1383L31.9729 24.8945L30.2787 25.902H30.1647L22.8177 28.4695L22.6223 28.3395L12.5874 22.5058H7.0487V29.3308C7.09757 29.8671 7.53741 30.4358 8.28676 30.8583C9.03612 31.2971 10.0135 31.5571 11.0724 31.6221C11.8543 31.7358 12.4897 31.8821 13.0273 32.0608L13.744 32.3046L11.7892 34.1896H11.5937L8.31934 33.6046L3.64402 34.3358V40.6896L14.3794 46.8646C14.7214 46.9621 17.1161 47.5308 18.1424 45.3371C18.3053 44.5733 18.8755 43.8908 19.7877 43.3546C20.0158 43.2246 20.2602 43.1108 20.5045 43.0133L21.1398 42.7533V50.3746C21.1236 50.5859 21.2213 50.7484 21.2702 50.8296L21.2865 50.8784Z" fill="#150035"/>
<path id="Vector_88" d="M43.0186 25.4325V31.5263V31.5425L41.4058 31.965L37.7731 31.7213L35.6228 30.4375V30.4213L35.1992 28.715V28.6988L36.2744 27.3338L38.7668 26.3913L41.5525 25.9525H41.5687L42.986 24.75L43.0186 25.4325Z" fill="#150035"/>
<path id="Vector_89" d="M22.2309 35.9297L21.5793 36.2384L19.7222 36.8884L18.4679 37.7497L17.7348 39.2447L17.2461 40.1384L15.6985 40.8372L14.2812 40.7234V47.711L16.7411 47.256L18.419 45.8747L19.82 43.8435L20.2924 43.1935L22.2309 42.251V35.9297Z" fill="#150035"/>
<path id="Vector_90" d="M31.9902 50.3088V57.28C31.9902 57.28 31.9902 57.28 32.0065 57.28L41.3572 51.9013L43.312 50.8775V43.9062C43.312 43.9062 43.312 43.9062 43.2957 43.9062L31.9902 50.3088Z" fill="#150035"/>
<path id="Vector_91" d="M50.7227 48.7025V55.6738L54.5346 55.5438L57.2062 53.6263L57.3528 52.0013V47.0938C57.3528 47.0938 57.3528 47.0938 57.3365 47.0938L55.2677 48.4913L52.9219 49.0113L50.7389 48.7188L50.7227 48.7025Z" fill="#150035"/>
<path id="Vector_92" d="M50.3484 41.8939L53.6879 42.6902L55.9034 43.4377L60.758 40.7564V33.7852C60.758 33.7852 60.758 33.7852 60.7417 33.7852L51.8634 38.9039L49.9412 40.0089L49.4688 40.7889L49.762 41.5039L50.3484 41.9264V41.8939Z" fill="#150035"/>
<path id="Vector_93" d="M47.9377 46.4258H47.0254V53.5271H47.9377V46.4258Z" fill="#150035"/>
<path id="Vector_94" d="M11.6759 25.043H10.7637V29.658H11.6759V25.043Z" fill="#150035"/>
<path id="Vector_95" d="M82.7672 48.8139L82.8324 48.5539C83.5003 48.4077 84.1356 48.1964 84.6895 47.8877C85.7484 47.2702 86.2208 46.4577 86.123 45.6614V38.8202L82.5066 37.5039L75.404 42.5252L61.1337 41.2252L60.759 41.0139L60.482 41.1764L58.739 41.0139H49.4698L49.4209 49.5127H41.6667L34.4175 50.7314L31.9902 50.5852V57.5727L38.7996 61.5052L38.9788 62.0415L35.3786 62.3177V69.2565C35.346 70.654 37.0728 72.0677 40.6241 72.2952C43.589 71.954 45.1528 70.8327 45.3809 69.614C46.619 66.8352 49.7467 67.794 49.763 67.794L60.759 74.1315L71.755 67.794C71.755 67.794 72.0156 67.5177 72.0319 67.1277C72.0319 67.1277 72.0319 67.0302 72.0319 66.9815V60.0265C72.26 60.124 72.488 60.2215 72.6998 60.3352C73.5469 60.8227 74.0193 61.424 74.1333 62.0577C75.3714 64.8365 78.4992 63.8777 78.5154 63.8777L89.5114 57.5402V50.5527L82.7346 48.7814L82.7672 48.8139Z" fill="#FFDC5A"/>
<path id="Vector_96" d="M60.775 74.6682L60.547 74.5545L49.5673 68.2332C49.1926 68.1357 46.8142 67.5832 45.8042 69.7607C45.4784 71.3045 43.5561 72.4257 40.6727 72.767C37.04 72.5395 35.2644 71.1582 34.9711 69.7282H34.9223V61.9444L35.3132 61.8794L38.1477 61.6519L31.5176 57.8332V57.5569V50.3744L31.8271 50.0982H32.0389L34.3847 50.2607L41.585 49.0582H48.9808L49.0297 40.5431H49.5021H58.7713L60.4003 40.6894L60.775 40.4781L61.2963 40.7706L75.306 42.0381L82.4412 36.9844L82.653 37.0331L86.6115 38.4631V38.7881L86.5789 46.0844C86.4812 46.9131 85.8947 47.6931 84.9173 48.2457C84.6567 48.3919 84.3797 48.5219 84.0702 48.6357L89.9999 50.1794V50.5369V57.7032L89.7718 57.9144L78.7759 64.2519C78.6618 64.3007 75.1594 65.3732 73.7421 62.2369L73.7096 62.1394C73.6118 61.6194 73.2046 61.1319 72.5041 60.7419V66.9819C72.5041 66.9819 72.5041 67.0794 72.5041 67.1444C72.4715 67.6807 72.1457 68.0544 72.0968 68.0869L71.9828 68.1682L60.775 74.6357V74.6682ZM50.0234 67.4532L60.7587 73.6282L71.4615 67.4694C71.4615 67.4694 71.5755 67.2744 71.5918 67.1282V67.0957V67.0144V59.3932L72.2108 59.6532C72.4715 59.7507 72.7158 59.8644 72.9439 59.9944C73.8562 60.5144 74.4263 61.1969 74.5892 61.9769C75.5992 64.1707 77.9939 63.6182 78.3523 63.5044L89.0876 57.3294V50.9432L82.1968 49.1394L82.4738 48.1806L82.7507 48.1319C83.4186 48.0019 83.9888 47.7906 84.4612 47.5144C85.3246 47.0269 85.7481 46.3931 85.6667 45.7269L85.6178 45.2231H85.683V39.1456L82.5878 38.0081L75.5667 42.9806H75.42L60.9216 41.6319L60.775 41.5506L60.5958 41.6481L58.7224 41.4856H49.942L49.8931 49.9844H49.4207H41.6665L34.3847 51.2032L32.4298 51.0732V57.3294L39.174 61.2132L39.5813 62.4644L35.8182 62.7569V68.8344V69.2895C35.8019 70.3782 37.3006 71.662 40.6239 71.857C43.5073 71.5157 44.7453 70.4269 44.9082 69.5332L44.9408 69.4357C46.0323 66.9819 48.5573 66.9982 49.8116 67.3557H49.9257L50.0234 67.4532Z" fill="#150035"/>
<path id="Vector_97" d="M80.9101 35.848C77.9452 36.1892 76.3814 37.3105 76.1533 38.5292C74.9152 41.308 71.7875 40.3492 71.7712 40.3492L60.7752 34.0117L49.7792 40.3492C49.7792 40.3492 48.085 42.153 52.9396 42.868C55.0573 42.998 57.0122 43.908 57.6149 45.598C57.0447 48.6693 51.6689 49.4005 48.8507 47.7593C48.0036 47.2718 47.5312 46.6705 47.4171 46.0367C46.1791 43.258 43.0513 44.2167 43.035 44.2167L32.0391 50.5543C32.0391 50.5543 32.0391 50.5543 32.0391 50.5705L43.035 56.908C43.035 56.908 44.7292 58.7118 39.8747 59.4268C37.757 59.5568 35.8021 60.4668 35.1994 62.1568C35.7696 65.228 41.1454 65.9593 43.9636 64.318C44.8107 63.8305 45.2831 63.2293 45.3971 62.5955C46.6352 59.8168 49.763 60.7755 49.7792 60.7755L60.7752 67.113L71.7712 60.7755C71.7712 60.7755 73.4654 58.9718 68.6109 58.2568C66.4931 58.1268 64.5383 57.2168 63.9356 55.5268C64.5057 52.4555 69.8815 51.7243 72.6998 53.3655C73.5469 53.853 74.0193 54.4543 74.1333 55.088C75.3714 57.8668 78.4991 56.908 78.5154 56.908L89.5114 50.5705C89.5114 50.5705 89.5114 50.5705 89.5114 50.5543L78.5154 44.2167C78.5154 44.2167 76.8212 42.413 81.6757 41.698C82.7672 41.633 83.8261 41.3567 84.6732 40.8692C87.5077 39.2442 86.2533 36.1405 80.9101 35.8155V35.848Z" fill="white"/>
<path id="Vector_98" d="M60.7744 67.6829L60.5463 67.5691L49.5666 61.2479C49.1919 61.1504 46.8135 60.5979 45.8035 62.7754C45.6406 63.5391 45.0705 64.2216 44.1582 64.7579C42.236 65.8629 39.1897 65.9604 37.0719 65.0016C35.7524 64.4004 34.9379 63.4579 34.7098 62.2879L34.6772 62.1416L34.7424 61.9954C35.3289 60.3054 37.2185 59.1679 39.7924 59.0054C42.2197 58.6479 42.6921 58.0304 42.7735 57.7866C42.855 57.5754 42.7247 57.3641 42.6758 57.2829L31.5332 50.8641V50.3441L31.745 50.1979L42.8387 43.8116C42.9853 43.7628 46.39 42.7878 47.7747 45.8753L47.8073 45.9728C47.905 46.4928 48.3285 46.9803 49.029 47.3866C50.6906 48.3453 53.4437 48.4266 55.2845 47.5816C55.985 47.2566 56.8647 46.6553 57.109 45.6316C56.4411 44.0716 54.5189 43.4053 52.8898 43.3078C50.6418 42.9828 49.42 42.3816 49.0942 41.4878C48.8661 40.8541 49.1919 40.2691 49.42 40.0253L49.5177 39.9441L60.7255 33.4766L60.9536 33.5903L71.9332 39.9116C72.3079 40.0091 74.6863 40.5616 75.6963 38.3841C76.0221 36.8403 77.9444 35.7191 80.8441 35.3778H80.8929C84.5908 35.6053 86.2199 37.0516 86.5294 38.3353C86.79 39.4241 86.171 40.5291 84.8841 41.2603C84.0044 41.7641 82.8966 42.0728 81.6912 42.1541C79.2639 42.5116 78.7915 43.1291 78.71 43.3728C78.6286 43.5841 78.7589 43.7953 78.8078 43.8766L89.9504 50.2954V50.8154L89.7386 50.9616L78.7426 57.2991C78.6286 57.3479 75.1262 58.4204 73.7089 55.2841L73.6763 55.1866C73.5786 54.6666 73.155 54.1791 72.4545 53.7729C70.7929 52.8141 68.0561 52.7329 66.199 53.5779C65.4986 53.9029 64.6189 54.5041 64.3745 55.5279C64.9936 57.0879 66.9484 57.7541 68.5937 57.8516C70.8418 58.1766 72.0636 58.7779 72.3894 59.6716C72.6174 60.3054 72.2916 60.8904 72.0636 61.1341L71.9658 61.2154L60.7581 67.6829H60.7744ZM50.0227 60.4679L60.7581 66.6429L71.4608 60.4679C71.526 60.3866 71.64 60.1754 71.5586 59.9641C71.4771 59.7204 71.0047 59.1191 68.5286 58.7454C66.0036 58.5829 64.1139 57.4616 63.4948 55.7066L63.446 55.4141L63.4948 55.3654C63.7392 54.2441 64.5537 53.3341 65.8407 52.7491C67.9584 51.7741 71.0047 51.8716 72.927 52.9929C73.8392 53.5129 74.4094 54.1954 74.5723 54.9754C75.5823 57.1691 77.9607 56.6166 78.3354 56.5029L88.6146 50.5879L78.1887 44.5591C77.9607 44.3153 77.6349 43.7303 77.8629 43.0966C78.1724 42.2028 79.4105 41.6016 81.6097 41.2766C82.7174 41.2116 83.6786 40.9353 84.4442 40.5128C85.3728 39.9766 85.8126 39.2778 85.6497 38.5791C85.4379 37.6528 84.0533 36.5153 80.9092 36.3203C77.977 36.6616 76.7552 37.7503 76.5923 38.6441L76.5597 38.7416C75.4683 41.1953 72.9432 41.1791 71.6889 40.8216H71.5749L71.4771 40.7241L60.7418 34.5491L50.039 40.7241C49.9739 40.8053 49.8598 41.0166 49.9413 41.2278C50.0227 41.4716 50.4952 42.0728 52.9713 42.4466C55.4963 42.6091 57.386 43.7303 58.005 45.4853L58.0702 45.6641L58.005 45.7778C57.7769 46.9153 56.9624 47.8416 55.6592 48.4266C53.5414 49.4016 50.4952 49.2879 48.5729 48.1828C47.6606 47.6628 47.0905 46.9803 46.9276 46.2003C45.9176 44.0066 43.5392 44.5591 43.1645 44.6728L32.8853 50.5879L43.3111 56.6166C43.5392 56.8604 43.865 57.4454 43.6369 58.0791C43.3274 58.9729 42.0893 59.5741 39.8901 59.8991C38.196 60.0129 36.2411 60.6791 35.6221 62.2391C35.8339 63.2304 36.7298 63.8316 37.4466 64.1729C39.2874 65.0179 42.0405 64.9366 43.7021 63.9779C44.4026 63.5716 44.8261 63.0841 44.9239 62.5641L44.9564 62.4666C46.0479 60.0129 48.5729 60.0291 49.8273 60.3866H49.9413L50.039 60.4841L50.0227 60.4679Z" fill="#150035"/>
<path id="Vector_99" d="M40.737 65.2095V72.1808L42.6918 71.8558L44.7933 70.6533L45.5101 69.3045L46.5526 68.167L48.1491 67.6633H48.9473V60.6758H48.0188L46.5038 61.1958L45.6893 61.9108L44.8259 63.617L43.2457 64.8195L40.7207 65.177L40.737 65.2095Z" fill="#150035"/>
<path id="Vector_100" d="M60.7578 67.1595V74.1308C60.7578 74.1308 60.7578 74.1308 60.7741 74.1308L71.9656 67.4845L72.2425 60.6758L70.9719 61.1145L60.7741 67.1433L60.7578 67.1595Z" fill="#150035"/>
<path id="Vector_101" d="M69.4082 52.5514V58.4177L66.7529 57.9302L64.2441 55.8827L64.4396 53.7864L67.1112 52.5352H69.4082V52.5514Z" fill="#150035"/>
<path id="Vector_102" d="M77.0007 57.0691V64.0566L78.532 63.9103L89.5279 57.5728V50.6016C89.5279 50.6016 89.5279 50.6016 89.5117 50.6016L79.3791 56.5816L76.9844 57.0853L77.0007 57.0691Z" fill="#150035"/>
<path id="Vector_103" d="M85.9586 39.6484L86.0889 46.2622L86.0726 46.2785L84.6879 47.8872H84.6716L78.5302 44.2472L78.2695 43.3697L79.4587 42.2809L82.505 41.6309L85.3233 40.5584L85.9586 39.6484Z" fill="#150035"/>
<path id="Vector_104" d="M74.6056 55.1055H73.6934V62.1092H74.6056V55.1055Z" fill="#150035"/>
<path id="Vector_105" d="M54.8947 43.0312H53.9824V48.7675H54.8947V43.0312Z" fill="#150035"/>
<path id="Vector_106" d="M49.7615 40.3305L60.7575 33.993C60.7575 33.993 60.7575 33.993 60.7575 33.9768L49.7615 27.6392C49.7615 27.6392 46.6175 26.6642 45.3794 29.4593C45.1513 30.678 43.5875 31.7993 40.6226 32.1568C35.2794 31.8318 34.025 28.728 36.8595 27.103C37.7066 26.6155 38.7492 26.3392 39.857 26.2742C44.6952 25.5592 43.0173 23.7555 43.0173 23.7555L32.0213 17.418L21.0253 23.7555C21.0253 23.7555 17.8813 24.7305 16.6432 21.9355C16.4152 20.7167 14.8513 19.5955 11.8865 19.2542C6.54322 19.5792 5.28887 22.683 8.12339 24.308C8.97049 24.7955 10.0131 25.0717 11.1208 25.1367C15.959 25.8517 14.2811 27.6555 14.2811 27.6555L3.28516 33.993C3.28516 33.993 3.28516 33.993 3.28516 34.0093L14.2811 40.3468C14.2811 40.3468 17.4252 41.3218 18.6632 38.5268C18.8913 37.308 20.4552 36.1868 23.42 35.8293C28.7633 36.1543 30.0176 39.258 27.1831 40.883C26.336 41.3705 25.2934 41.6468 24.1857 41.7118C19.3474 42.4268 21.0253 44.2305 21.0253 44.2305L32.0213 50.5681L43.0173 44.2305C43.0173 44.2305 46.1613 43.2555 47.3994 46.0505C47.6275 47.2693 49.1913 48.3905 52.1562 48.7318C57.4994 48.4068 58.7538 45.303 55.9192 43.678C55.0721 43.1905 54.0296 42.9143 52.9218 42.8493C48.0836 42.1343 49.7615 40.3305 49.7615 40.3305Z" fill="white"/>
<path id="Vector_107" d="M31.956 51.1066L31.7116 50.9279L20.6505 44.5416C20.4224 44.2979 20.0966 43.7129 20.3247 43.0791C20.6342 42.1854 21.8722 41.5841 24.0714 41.2591C25.1792 41.1941 26.1403 40.9179 26.906 40.4791C27.8345 39.9429 28.2743 39.2441 28.1114 38.5454C27.8997 37.6191 26.515 36.4654 23.3384 36.2704C20.455 36.6116 19.2169 37.6841 19.054 38.5941L19.0214 38.6916C17.6368 41.7791 14.2321 40.8041 14.0855 40.7554L13.9877 40.7066L2.76367 34.2391V33.7191L2.97545 33.5729L13.9063 27.2678C13.9714 27.1866 14.0855 26.9753 14.004 26.7641C13.9226 26.5203 13.4501 25.9191 10.974 25.5453C9.8011 25.4803 8.69336 25.1716 7.81368 24.6678C6.52674 23.9203 5.924 22.8316 6.16835 21.7428C6.47787 20.4591 8.1069 18.9966 11.7722 18.7691H11.984L12.0166 18.7853C14.8185 19.1428 16.6756 20.2478 17.0014 21.7591C18.0114 23.9528 20.3898 23.4003 20.7645 23.2866L31.9397 16.8516L32.1677 16.9653L43.294 23.4003C43.5221 23.6441 43.8479 24.2291 43.6198 24.8628C43.3103 25.7566 42.0723 26.3578 39.8731 26.6828C38.7653 26.7478 37.8042 27.0241 37.0386 27.4466C36.11 27.9828 35.6702 28.6816 35.8331 29.3803C36.0448 30.3066 37.4295 31.4603 40.6061 31.6553C43.4895 31.3141 44.7276 30.2253 44.8905 29.3316L44.9231 29.2341C46.0308 26.7803 48.5395 26.7966 49.7939 27.1541L50.0057 27.2516L61.1808 33.6866V34.2229L60.9528 34.3691L50.0382 40.6579C49.9731 40.7391 49.8591 40.9504 49.9405 41.1616C50.022 41.4054 50.4944 42.0066 52.9705 42.3804C54.1434 42.4454 55.2511 42.7541 56.1308 43.2579C57.4178 44.0054 58.0205 45.0941 57.7762 46.1829C57.4666 47.4666 55.8376 48.9291 52.1723 49.1566C49.1911 48.8154 47.2689 47.6941 46.9431 46.1504C45.9331 43.9566 43.5547 44.5091 43.18 44.6229L31.9723 51.0741L31.956 51.1066ZM21.2695 43.8754L31.9723 50.0504L42.789 43.7779H42.9031C44.1411 43.4204 46.6661 43.4041 47.7739 45.8579L47.8065 45.9554C47.9694 46.8491 49.2074 47.9379 52.1723 48.2791C55.2674 48.0841 56.6521 46.9304 56.8802 46.0041C57.0431 45.3054 56.6033 44.6066 55.6747 44.0704C54.9253 43.6316 53.9479 43.3716 52.8891 43.3066C50.641 42.9816 49.4192 42.3804 49.0934 41.4866C48.8653 40.8529 49.1911 40.2679 49.4192 40.0241L49.517 39.9429L59.845 33.9954L49.517 28.0641C49.012 27.9341 46.7802 27.5116 45.8028 29.6078C45.4769 31.1516 43.5547 32.2728 40.655 32.6141C36.8919 32.3866 35.2629 30.9403 34.9697 29.6403C34.709 28.5516 35.3281 27.4466 36.615 26.7153C37.4947 26.2116 38.6024 25.9028 39.8079 25.8216C42.2352 25.4641 42.7076 24.8466 42.789 24.6028C42.8705 24.3916 42.7402 24.1803 42.6913 24.0991L31.9885 17.9241L21.2043 24.1316C21.0903 24.1803 17.5879 25.2528 16.1706 22.1166L16.138 22.0191C15.9751 21.1253 14.7371 20.0528 11.8048 19.6953C8.67707 19.8903 7.29239 21.0441 7.08061 21.9541C6.91771 22.6528 7.35755 23.3516 8.2861 23.8878C9.03545 24.3266 10.0129 24.5866 11.088 24.6516C13.3361 24.9766 14.5579 25.5778 14.8837 26.4716C15.1118 27.1053 14.7859 27.6903 14.5579 27.9341L14.4601 28.0153L4.13206 33.9629L14.4113 39.8779C14.7534 39.9754 17.148 40.5441 18.1743 38.3504C18.5001 36.8066 20.4224 35.6854 23.3221 35.3441C27.0852 35.5716 28.7142 37.0179 29.0074 38.3179C29.2681 39.4066 28.649 40.5116 27.3621 41.2429C26.4824 41.7466 25.3747 42.0554 24.1692 42.1366C21.7419 42.4941 21.2695 43.1116 21.188 43.3554C21.1066 43.5666 21.2369 43.7779 21.2858 43.8591L21.2695 43.8754Z" fill="#150035"/>
<path id="Vector_108" d="M80.9101 2.64813C77.9452 2.98938 76.3814 4.11063 76.1533 5.34564C74.9152 8.12439 71.7875 7.16564 71.7712 7.16564L60.7752 0.828125L49.7792 7.16564C49.7792 7.16564 48.085 8.96939 52.9396 9.6844C55.0573 9.8144 57.0122 10.7244 57.6149 12.4144C57.0447 15.4857 51.6689 16.2169 48.8507 14.5757C48.0036 14.0882 47.5312 13.4869 47.4171 12.8532C46.1791 10.0744 43.0513 11.0331 43.035 11.0331L32.0391 17.3707C32.0391 17.3707 32.0391 17.3707 32.0391 17.3869L43.035 23.7244C43.035 23.7244 44.7292 25.5282 39.8747 26.2432C37.757 26.3732 35.8021 27.2832 35.1994 28.9732C35.7696 32.0444 41.1454 32.7757 43.9636 31.1344C44.8107 30.6469 45.2831 30.0457 45.3971 29.4119C46.6352 26.6332 49.763 27.5919 49.7792 27.5919L60.7752 33.9295L71.7712 27.5919C71.7712 27.5919 73.4654 25.7882 68.6109 25.0732C66.4931 24.9432 64.5383 24.0332 63.9356 22.3432C64.5057 19.2719 69.8815 18.5407 72.6998 20.1819C73.5469 20.6694 74.0193 21.2707 74.1333 21.9044C75.3714 24.6832 78.4991 23.7244 78.5154 23.7244L89.5114 17.3869C89.5114 17.3869 89.5114 17.3869 89.5114 17.3707L78.5154 11.0331C78.5154 11.0331 76.8212 9.22939 81.6757 8.51439C82.7672 8.44939 83.8261 8.17314 84.6732 7.68564C87.5077 6.06064 86.2533 2.95688 80.9101 2.63188V2.64813Z" fill="white"/>
<path id="Vector_109" d="M60.7744 34.4837L60.5463 34.3699L49.5666 28.0487C49.1919 27.9512 46.8135 27.3987 45.8035 29.5762C45.6406 30.3399 45.0705 31.0224 44.1582 31.5587C42.236 32.6637 39.1897 32.7612 37.0719 31.8024C35.7524 31.2012 34.9379 30.2587 34.7098 29.0887L34.6772 28.9424L34.7424 28.7962C35.3289 27.1062 37.2185 25.9687 39.7924 25.8062C42.2197 25.4487 42.6921 24.8312 42.7735 24.5874C42.855 24.3762 42.7247 24.1649 42.6758 24.0837L31.5332 17.6649V17.1449L31.745 16.9986L42.8387 10.6124C42.9853 10.5636 46.39 9.58862 47.7747 12.6761L47.8073 12.7736C47.905 13.2936 48.3285 13.7811 49.029 14.1874C50.6906 15.1461 53.4437 15.2274 55.2845 14.3824C55.985 14.0574 56.8647 13.4561 57.109 12.4324C56.4411 10.8724 54.5189 10.2061 52.8898 10.1086C50.6418 9.78362 49.42 9.18237 49.0942 8.28861C48.8661 7.65486 49.1919 7.06986 49.42 6.82611L49.5177 6.74486L60.7255 0.277344L60.9536 0.391094L71.9332 6.71236C72.3079 6.80986 74.6863 7.36236 75.6963 5.18486C76.0221 3.6411 77.9444 2.51985 80.8441 2.1786H80.8929C84.5908 2.4061 86.2199 3.85235 86.5294 5.13611C86.79 6.22486 86.171 7.32986 84.8841 8.06111C84.0044 8.56486 82.8966 8.87362 81.6912 8.95487C79.2639 9.31237 78.7915 9.92987 78.71 10.1736C78.6286 10.3849 78.7589 10.5961 78.8078 10.6774L89.9504 17.0961V17.6161L89.7386 17.7624L78.7426 24.0999C78.6286 24.1487 75.1262 25.2212 73.7089 22.0849L73.6763 21.9874C73.5786 21.4674 73.155 20.9799 72.4545 20.5736C70.7929 19.6149 68.0561 19.5336 66.199 20.3786C65.4986 20.7036 64.6189 21.3049 64.3745 22.3286C64.9936 23.8887 66.9484 24.5549 68.5937 24.6524C70.8418 24.9774 72.0636 25.5787 72.3894 26.4724C72.6174 27.1062 72.2916 27.6912 72.0636 27.9349L71.9658 28.0162L60.7581 34.4837H60.7744ZM50.0227 27.2687L60.7581 33.4437L71.4608 27.2687C71.526 27.1874 71.64 26.9762 71.5586 26.7649C71.4771 26.5212 71.0047 25.9199 68.5286 25.5462C66.0036 25.3837 64.1139 24.2624 63.4948 22.5074L63.446 22.2149L63.4948 22.1661C63.7392 21.0449 64.5537 20.1349 65.8407 19.5499C67.9584 18.5749 71.0047 18.6724 72.927 19.7936C73.8392 20.3136 74.4094 20.9961 74.5723 21.7761C75.5823 23.9699 77.9607 23.4174 78.3354 23.3037L88.6146 17.3886L78.1887 11.3599C77.9607 11.1161 77.6349 10.5311 77.8629 9.89737C78.1724 9.00362 79.4105 8.40236 81.6097 8.07736C82.7174 8.01236 83.6786 7.73611 84.4442 7.29736C85.3728 6.76111 85.8126 6.06236 85.6497 5.36361C85.4379 4.43735 84.0533 3.29985 80.9092 3.10485C77.977 3.4461 76.7552 4.53485 76.5923 5.42861L76.5597 5.52611C75.4683 7.97986 72.9432 7.96361 71.6889 7.60611H71.5749L71.4771 7.50861L60.7418 1.3336L50.039 7.50861C49.9739 7.58986 49.8598 7.80111 49.9413 8.01236C50.0227 8.25611 50.4952 8.85736 52.9713 9.23112C55.4963 9.39362 57.386 10.5149 58.005 12.2699L58.0702 12.4486L58.005 12.5624C57.7769 13.6999 56.9624 14.6261 55.6592 15.2111C53.5414 16.1861 50.4952 16.0724 48.5729 14.9674C47.6606 14.4474 47.0905 13.7649 46.9276 12.9849C45.9176 10.7911 43.5392 11.3436 43.1645 11.4574L32.8853 17.3724L43.3111 23.4012C43.5392 23.6449 43.865 24.2299 43.6369 24.8637C43.3274 25.7574 42.0893 26.3587 39.8901 26.6837C38.196 26.7974 36.2411 27.4637 35.6221 29.0237C35.8339 30.0149 36.7298 30.6162 37.4466 30.9574C39.2874 31.8024 42.0405 31.7212 43.7021 30.7624C44.4026 30.3562 44.8261 29.8687 44.9239 29.3487L44.9564 29.2512C46.0479 26.7974 48.5729 26.8137 49.8273 27.1712H49.9413L50.039 27.2687H50.0227Z" fill="#150035"/>
<path id="Vector_110" d="M107.316 40.3305L118.312 33.993C118.312 33.993 118.312 33.993 118.312 33.9768L107.316 27.6392C107.316 27.6392 104.172 26.6642 102.934 29.4593C102.706 30.678 101.142 31.7993 98.1773 32.1568C92.8341 31.8318 91.5797 28.728 94.4142 27.103C95.2613 26.6155 96.3039 26.3392 97.4117 26.2742C102.25 25.5592 100.572 23.7555 100.572 23.7555L89.576 17.418L78.58 23.7555C78.58 23.7555 75.436 24.7305 74.1979 21.9355C73.9699 20.7167 72.406 19.5955 69.4411 19.2542C64.0979 19.5792 62.8436 22.683 65.6781 24.308C66.5252 24.7955 67.5678 25.0717 68.6755 25.1367C73.5137 25.8517 71.8358 27.6555 71.8358 27.6555L60.8398 33.993C60.8398 33.993 60.8398 33.993 60.8398 34.0093L71.8358 40.3468C71.8358 40.3468 74.9799 41.3218 76.2179 38.5268C76.446 37.308 78.0099 36.1868 80.9747 35.8293C86.3179 36.1543 87.5723 39.258 84.7378 40.883C83.8907 41.3705 82.8481 41.6468 81.7404 41.7118C76.9021 42.4268 78.58 44.2305 78.58 44.2305L89.576 50.5681L100.572 44.2305C100.572 44.2305 103.716 43.2555 104.954 46.0505C105.182 47.2693 106.746 48.3905 109.711 48.7318C115.054 48.4068 116.308 45.303 113.474 43.678C112.627 43.1905 111.584 42.9143 110.477 42.8493C105.638 42.1343 107.316 40.3305 107.316 40.3305Z" fill="white"/>
<path id="Vector_111" d="M89.5107 51.1066L89.2663 50.9279L78.2052 44.5416C77.9771 44.2979 77.6513 43.7129 77.8794 43.0791C78.1889 42.1854 79.4269 41.5841 81.6261 41.2591C82.7339 41.1941 83.695 40.9179 84.4606 40.4791C85.3892 39.9429 85.829 39.2441 85.6661 38.5454C85.4544 37.6191 84.0697 36.4654 80.8931 36.2704C78.0097 36.6116 76.7716 37.6841 76.6087 38.5941L76.5761 38.6916C75.1914 41.7791 71.7868 40.8041 71.6401 40.7554L71.5424 40.7066L60.3184 34.2391V33.7029L60.5464 33.5566L71.461 27.2678C71.5261 27.1866 71.6401 26.9753 71.575 26.7641C71.4935 26.5203 71.0211 25.9191 68.545 25.5453C67.3721 25.4803 66.2643 25.1716 65.3847 24.6678C64.0977 23.9203 63.495 22.8316 63.7393 21.7428C64.0489 20.4591 65.6779 18.9966 69.3432 18.7691H69.555L69.5876 18.7853C72.3895 19.1428 74.2466 20.2478 74.5724 21.7591C75.5824 23.9528 77.9608 23.4003 78.3355 23.2866L89.5107 16.8516L89.7387 16.9653L100.865 23.4003C101.093 23.6441 101.419 24.2291 101.191 24.8628C100.881 25.7566 99.6432 26.3578 97.4441 26.6828C96.3363 26.7478 95.3752 27.0241 94.6095 27.4466C93.681 27.9828 93.2411 28.6816 93.404 29.3803C93.6158 30.3066 95.0005 31.4603 98.1771 31.6553C101.061 31.3141 102.299 30.2253 102.461 29.3316L102.494 29.2341C103.586 26.7803 106.111 26.7966 107.365 27.1541L107.577 27.2516L118.752 33.6866V34.2229L118.524 34.3691L107.609 40.6579C107.544 40.7391 107.43 40.9504 107.511 41.1616C107.593 41.4054 108.065 42.0066 110.541 42.3804C111.714 42.4454 112.822 42.7541 113.702 43.2579C114.989 44.0054 115.591 45.0941 115.347 46.1829C115.038 47.4666 113.409 48.9291 109.743 49.1566C106.762 48.8154 104.84 47.6941 104.514 46.1504C103.504 43.9566 101.126 44.5091 100.751 44.6229L89.5432 51.0741L89.5107 51.1066ZM78.8242 43.8754L89.5269 50.0504L100.344 43.7779H100.458C101.696 43.4204 104.221 43.4041 105.329 45.8579L105.361 45.9554C105.524 46.8491 106.762 47.9379 109.727 48.2791C112.822 48.0841 114.207 46.9304 114.435 46.0041C114.598 45.3054 114.158 44.6066 113.229 44.0704C112.48 43.6316 111.503 43.3716 110.444 43.3066C108.196 42.9816 106.974 42.3804 106.648 41.4866C106.42 40.8529 106.746 40.2679 106.974 40.0241L107.072 39.9429L117.4 33.9954L107.072 28.0641C106.567 27.9341 104.335 27.5116 103.357 29.6078C103.032 31.1516 101.109 32.2728 98.2097 32.6141C94.4466 32.3866 92.8176 30.9403 92.5244 29.6403C92.2637 28.5516 92.8828 27.4466 94.1697 26.7153C95.0494 26.2116 96.1571 25.9028 97.3626 25.8216C99.7899 25.4641 100.262 24.8466 100.344 24.6028C100.425 24.3916 100.295 24.1803 100.246 24.0991L89.5432 17.9241L78.759 24.1316C78.645 24.1803 75.1426 25.2528 73.7253 22.1166L73.6927 22.0191C73.5298 21.1253 72.2918 20.0528 69.3595 19.6953C66.2318 19.8903 64.8471 21.0441 64.6353 21.9541C64.4724 22.6528 64.9122 23.3516 65.8408 23.8878C66.5901 24.3266 67.5676 24.5866 68.6427 24.6516C70.8908 24.9766 72.1126 25.5778 72.4384 26.4716C72.6664 27.1053 72.3406 27.6903 72.1126 27.9341L72.0148 28.0153L61.6867 33.9629L71.966 39.8779C72.3081 39.9754 74.7027 40.5441 75.729 38.3504C76.0548 36.8066 77.9771 35.6854 80.8768 35.3441C84.6398 35.5716 86.2689 37.0179 86.5621 38.3179C86.8227 39.4066 86.2037 40.5116 84.9168 41.2429C84.0371 41.7466 82.9294 42.0554 81.7239 42.1366C79.2966 42.4941 78.8242 43.1116 78.7427 43.3554C78.6613 43.5666 78.7916 43.7779 78.8405 43.8591L78.8242 43.8754Z" fill="#150035"/>
</g>
<defs>
<clipPath id="clip0_1309_12879">
<rect width="118.154" height="80.3077" fill="white" transform="translate(0.923828 0.308594)"/>
</clipPath>
</defs>
</svg>
