<svg width="20" height="20" viewBox="0 0 20 20" fill="none" xmlns="http://www.w3.org/2000/svg">
<g id="format_quote_FILL1_wght400_GRAD0_opsz24">
<path id="Vector" d="M5.45898 13.75L6.66732 11.6667C5.75065 11.6667 4.96593 11.3403 4.31315 10.6875C3.66037 10.0347 3.33398 9.25 3.33398 8.33333C3.33398 7.41667 3.66037 6.63194 4.31315 5.97917C4.96593 5.32639 5.75065 5 6.66732 5C7.58398 5 8.36871 5.32639 9.02148 5.97917C9.67426 6.63194 10.0007 7.41667 10.0007 8.33333C10.0007 8.65278 9.96246 8.94792 9.88607 9.21875C9.80968 9.48958 9.6951 9.75 9.54232 10L6.89648 14.5833C6.82704 14.7083 6.72982 14.809 6.60482 14.8854C6.47982 14.9618 6.34093 15 6.18815 15C5.86871 15 5.62912 14.8611 5.4694 14.5833C5.30968 14.3056 5.30621 14.0278 5.45898 13.75ZM12.959 13.75L14.1673 11.6667C13.2507 11.6667 12.4659 11.3403 11.8132 10.6875C11.1604 10.0347 10.834 9.25 10.834 8.33333C10.834 7.41667 11.1604 6.63194 11.8132 5.97917C12.4659 5.32639 13.2507 5 14.1673 5C15.084 5 15.8687 5.32639 16.5215 5.97917C17.1743 6.63194 17.5007 7.41667 17.5007 8.33333C17.5007 8.65278 17.4625 8.94792 17.3861 9.21875C17.3097 9.48958 17.1951 9.75 17.0423 10L14.3965 14.5833C14.327 14.7083 14.2298 14.809 14.1048 14.8854C13.9798 14.9618 13.8409 15 13.6882 15C13.3687 15 13.1291 14.8611 12.9694 14.5833C12.8097 14.3056 12.8062 14.0278 12.959 13.75Z" fill="black"/>
</g>
</svg>
