<svg width="286" height="306" viewBox="0 0 286 306" fill="none" xmlns="http://www.w3.org/2000/svg">
<g clip-path="url(#clip0_1087_29025)">
<path d="M79.0053 150.594C72.7276 147.345 63.5809 141.464 56.7305 134.707C48.3437 126.43 44.6651 115.747 44.6266 115.642C44.6211 115.62 44.6101 115.598 44.6046 115.582C43.8612 113.858 45.8932 110.372 47.5232 107.564C48.6906 105.554 49.7974 103.654 50.1334 102.162C51.7909 94.7718 50.0563 88.3013 45.4856 84.8375C42.3964 82.4972 38.5416 81.9685 35.2265 83.3672C33.3377 78.3065 30.7055 74.9033 27.3849 73.2458C22.3848 70.7567 19.2349 72.0619 17.4672 73.5927C15.0883 75.6578 14.0916 79.2427 14.5762 81.4399C14.0695 81.4399 13.5629 81.4729 13.0508 81.5555C10.6939 81.93 8.93173 82.9818 7.81936 84.6779C6.12328 87.266 6.45369 90.5921 6.70149 91.9908C3.86551 92.7122 1.32689 94.5295 0.401751 97.404C-0.688589 100.774 0.677089 104.271 2.1529 107.25C3.46902 109.91 7.94051 112.812 12.6708 115.885C16.7293 118.517 20.9255 121.243 22.0819 123.297C31.1846 139.481 45.3645 158.865 74.4512 165.137C74.9854 165.253 75.5471 165.313 76.1198 165.313H76.2685C77.1936 165.313 78.1353 165.077 79.0714 164.614C81.6981 163.309 83.2841 160.748 83.3061 157.769C83.3336 154.735 81.6871 151.987 79.0163 150.605L79.0053 150.594Z" fill="#FF9000"/>
<path d="M79.0053 150.594C72.7276 147.345 63.5809 141.464 56.7305 134.707C48.3437 126.43 44.6651 115.747 44.6266 115.642C44.6211 115.62 44.6101 115.598 44.6046 115.582C43.8612 113.858 45.8932 110.372 47.5232 107.564C48.6906 105.554 49.7974 103.654 50.1334 102.162C51.7909 94.7718 50.0563 88.3013 45.4856 84.8375C42.3964 82.4972 38.5416 81.9685 35.2265 83.3672C33.3377 78.3065 30.7055 74.9033 27.3849 73.2458C22.3848 70.7567 19.2349 72.0619 17.4672 73.5927C15.0883 75.6578 14.0916 79.2427 14.5762 81.4399C14.0695 81.4399 13.5629 81.4729 13.0508 81.5555C10.6939 81.93 8.93173 82.9818 7.81936 84.6779C6.12328 87.266 6.45369 90.5921 6.70149 91.9908C3.86551 92.7122 1.32689 94.5295 0.401751 97.404C-0.688589 100.774 0.677089 104.271 2.1529 107.25C3.46902 109.91 7.94051 112.812 12.6708 115.885C16.7293 118.517 20.9255 121.243 22.0819 123.297C31.1846 139.481 45.3645 158.865 74.4512 165.137C74.9854 165.253 75.5471 165.313 76.1198 165.313H76.2685C77.1936 165.313 78.1353 165.077 79.0714 164.614C81.6981 163.309 83.2841 160.748 83.3061 157.769C83.3336 154.735 81.6871 151.987 79.0163 150.605L79.0053 150.594ZM76.1088 163.65C75.6572 163.65 75.2112 163.606 74.7927 163.513C46.3502 157.384 32.4456 138.363 23.5136 122.476C22.159 120.064 17.9849 117.355 13.5629 114.486C9.22359 111.672 4.74108 108.764 3.62321 106.507C2.29608 103.825 1.05706 100.708 1.96567 97.8996C3.22672 93.9898 8.27092 92.503 11.999 93.6208C15.9418 94.7993 19.9948 96.8919 21.0411 99.5516C21.8451 102.834 19.7415 104.359 18.9926 104.789C18.932 104.816 18.8714 104.849 18.8109 104.882C18.7283 104.921 18.6457 104.965 18.5576 104.998C16.3163 105.846 13.1059 105.185 11.4483 104.012C11.4373 104.001 11.4208 103.99 11.4098 103.985C11.3051 103.907 11.206 103.83 11.1124 103.753L8.31497 101.16C7.97906 100.851 7.45592 100.868 7.14754 101.204C6.83916 101.54 6.85568 102.063 7.19159 102.371L9.01984 104.067L8.63437 104.117C8.18281 104.177 7.86342 104.59 7.91849 105.042C7.97355 105.46 8.32599 105.763 8.73899 105.763C8.77204 105.763 8.81058 105.763 8.84362 105.758L10.7269 105.515C12.847 106.876 16.4154 107.58 19.1413 106.545C19.3781 106.457 19.6204 106.347 19.8627 106.215C21.0907 105.675 24.7967 104.414 27.0049 107.498C27.1646 107.718 27.4124 107.845 27.6768 107.845C27.7208 107.845 27.7649 107.845 27.8089 107.834C28.1173 107.784 28.3761 107.558 28.4642 107.261C29.5546 103.676 32.7981 102.173 35.0393 101.545C35.6946 101.545 36.3499 101.457 36.9887 101.264C39.632 100.477 42.0494 98.1034 43.9823 94.4083C44.1916 94.0063 44.0374 93.5052 43.6354 93.2959C43.2279 93.0867 42.7323 93.2409 42.523 93.6429C40.9756 96.6055 39.0592 98.6485 37.0823 99.4745C36.8676 99.4911 36.4325 99.5406 35.8598 99.6452C34.351 99.7444 31.8289 99.5626 30.5293 97.5251C29.874 96.4954 29.7308 95.1848 30.0887 93.6208C30.1658 93.4722 30.2539 93.329 30.3586 93.2023C30.3806 93.1748 30.4026 93.1473 30.4191 93.1142L31.3773 91.5173C31.3938 91.4897 31.4159 91.4567 31.4324 91.4236L32.3795 89.8377C32.5007 89.6339 32.6163 89.4302 32.7155 89.2154C32.9963 88.6262 33.178 88.1031 33.3432 87.635C33.7452 86.4951 33.9655 85.8673 35.1439 85.2285C38.0625 83.6481 41.6419 84.006 44.4834 86.1537C48.5199 89.2099 50.0287 95.0581 48.5144 101.798C48.2335 103.043 47.1927 104.838 46.0859 106.732C44.0869 110.163 42.0219 113.715 43.0627 116.204C43.327 116.981 47.0275 127.465 55.5575 135.885C62.5401 142.774 71.8465 148.76 78.2344 152.064C80.349 153.16 81.6541 155.341 81.6321 157.747C81.61 160.093 80.371 162.103 78.3115 163.122C77.6011 163.474 76.9072 163.65 76.2409 163.65H76.0922H76.1088ZM9.20156 85.5755C10.0496 84.2869 11.4318 83.4829 13.3096 83.1855C14.6312 82.9763 15.8923 83.0919 17.0542 83.5269C19.5323 84.4631 21.801 85.9444 23.6899 87.8057C24.1855 88.4555 24.6811 89.0062 25.1822 89.4632C25.9421 90.4104 26.6085 91.4236 27.1701 92.4975C27.2638 92.7343 27.8585 94.3863 27.5776 95.8676C27.2748 96.7762 26.6525 98.3622 22.3517 98.4227C20.4464 94.7277 14.5762 92.6737 12.4726 92.0459C11.173 91.6549 9.74123 91.5503 8.32599 91.6935C8.12774 90.5205 7.83038 87.6625 9.20156 85.5755ZM16.2502 81.3132C15.7821 79.898 16.443 76.671 18.5521 74.8373C20.54 73.1136 23.3374 73.0751 26.6525 74.7216C29.6317 76.2029 32.0161 79.3748 33.7562 84.1437C32.743 84.8541 32.3245 85.6636 31.9996 86.5171C31.8949 86.7319 30.678 89.1493 28.8497 89.3366C28.2495 89.3972 27.6162 89.2099 26.9664 88.7749C25.9366 87.5249 24.9564 86.7099 24.8298 86.6052C22.7812 84.5897 20.3252 82.9873 17.6434 81.9795C17.2084 81.8143 16.7568 81.6932 16.2943 81.5996C16.2943 81.5004 16.2888 81.4068 16.2557 81.3077L16.2502 81.3132Z" fill="black"/>
<path d="M101.761 226.667C76.7877 224.09 74.172 191.099 70.3393 166.291C66.5066 141.483 69.5683 115.97 76.2921 91.7843C90.9897 90.0937 105.412 85.9967 118.804 79.6969C123.838 77.329 128.733 74.6528 133.942 72.7144C147.021 67.8574 161.537 66.8111 175.287 69.157C191.78 71.971 200.751 82.3622 203.763 86.1729C206.775 89.9836 210.833 93.5134 215.685 93.7282L222.293 98.0345C222.293 98.0345 212.926 195.306 204.936 207.311C196.945 219.316 183.195 235.081 101.761 226.673V226.667Z" fill="#FFCAA0"/>
<path d="M142.389 229.287C130.621 229.287 117.113 228.494 101.738 226.902C91.4349 225.839 84.0008 219.573 79.0117 207.739C74.6778 197.458 72.745 184.263 71.0379 172.622C70.724 170.48 70.4156 168.376 70.0962 166.322C66.5939 143.656 68.5984 118.551 76.0545 91.7111L76.0986 91.5514L76.2583 91.5349C90.9944 89.8443 105.273 85.7803 118.693 79.4696C120.18 78.7702 121.684 78.0323 123.132 77.3164C126.59 75.6093 130.17 73.8472 133.848 72.4815C146.69 67.7071 161.029 66.4736 175.319 68.9076C186.746 70.857 196.642 76.7712 203.944 86.0116C207.716 90.786 211.67 93.2971 215.684 93.4733H215.75L222.54 97.9007L222.523 98.0439C222.144 102.02 213.057 195.514 205.128 207.43C201.036 213.581 195.452 220.509 180.953 224.865C171.14 227.811 158.375 229.281 142.384 229.281L142.389 229.287ZM101.788 226.423C186.124 235.129 197.776 217.629 204.737 207.166C212.457 195.563 221.62 102.438 222.039 98.143L215.607 93.9524C211.466 93.7431 207.418 91.1714 203.575 86.309C196.35 77.1622 186.553 71.3085 175.248 69.3812C161.046 66.9582 146.789 68.1862 134.03 72.9275C130.373 74.2877 126.805 76.0444 123.358 77.7459C121.904 78.4618 120.401 79.2052 118.908 79.9046C105.488 86.2154 91.2147 90.2849 76.484 91.9975C69.083 118.711 67.095 143.695 70.5808 166.245C70.9002 168.299 71.2086 170.403 71.5225 172.545C75.0578 196.698 79.0722 224.072 101.788 226.418V226.423Z" fill="black"/>
<path d="M97.4098 82.3306C102.305 100.233 108.308 119.061 108.308 119.061L103.572 125.003L96.2314 125.322C96.2314 125.322 91.9581 100.784 83.1583 81.0806C74.364 61.3774 59.0938 49.4167 59.0938 49.4167L63.6368 44.3064L72.3761 42.4727C72.3761 42.4727 92.5088 64.4336 97.4043 82.3361L97.4098 82.3306Z" fill="#FFB500"/>
<path d="M59.0938 49.405L68.2185 47.4335L72.3761 42.4609L63.6368 44.2947L59.0938 49.405Z" fill="#EFD63D"/>
<path d="M97.4105 82.3322C102.306 100.235 108.308 119.062 108.308 119.062L103.573 125.004C103.495 124.591 98.644 97.977 90.2737 79.722C81.8373 61.3239 68.2246 47.4414 68.2246 47.4414L72.3822 42.4688C72.3822 42.4688 92.515 64.4297 97.4105 82.3322Z" fill="#FF9000"/>
<path d="M96.2268 126.037C95.8743 126.037 95.5714 125.784 95.5109 125.437C95.4668 125.195 91.1495 100.756 82.4929 81.3663C73.8748 62.065 58.7973 50.0933 58.6431 49.9777C58.4834 49.8566 58.3842 49.6693 58.3677 49.4711C58.3512 49.2728 58.4173 49.0746 58.5495 48.9204L63.0925 43.8101C63.1972 43.6945 63.3348 43.6119 63.489 43.5843L72.2283 41.7506C72.4761 41.6955 72.7404 41.7836 72.9111 41.9709C73.1148 42.1911 93.2201 64.2733 98.1046 82.1372C102.939 99.8195 108.931 118.647 108.991 118.834C109.063 119.066 109.019 119.319 108.865 119.506L104.145 125.426C104.019 125.602 103.815 125.712 103.589 125.723L96.2488 126.037C96.2488 126.037 96.2268 126.037 96.2157 126.037H96.2268ZM60.1409 49.3279C63.065 51.7894 76.0389 63.3426 83.82 80.777C91.7773 98.5859 96.0891 120.585 96.827 124.561L103.204 124.292L107.494 118.911C106.629 116.18 101.172 98.8668 96.7058 82.5227C92.2233 66.1346 74.5466 45.9798 72.1181 43.2649L64.0232 44.961L60.1409 49.3279Z" fill="black"/>
<path d="M114.42 58.0836C113.511 67.5828 113.208 102.501 113.208 102.501L106.121 104.72L98.9238 100.849C98.9238 100.849 98.9844 76.2339 100.972 58.7664C102.757 43.1162 100.68 18.3027 100.68 18.3027L108.473 16.7773L115.45 20.1585C115.45 20.1585 115.56 46.2165 114.425 58.0891L114.42 58.0836Z" fill="#FFC800"/>
<path d="M100.682 18.3027L108.468 16.7773L115.445 20.1585L108.947 21.6123L100.682 18.3027Z" fill="#FFDB46"/>
<path d="M114.42 58.0814C113.511 67.5805 113.208 102.499 113.208 102.499L106.121 104.718C106.121 104.718 108.698 69.7502 109.524 57.6518C110.35 45.5535 108.952 21.61 108.952 21.61L115.45 20.1562C115.45 20.1562 115.56 46.2143 114.425 58.0869L114.42 58.0814Z" fill="#FF9700"/>
<path d="M106.122 105.447C106.001 105.447 105.885 105.419 105.781 105.359L98.5832 101.488C98.3465 101.361 98.1978 101.113 98.2033 100.843C98.2033 100.595 98.2859 75.9912 100.257 58.6779C102.008 43.281 99.982 18.6052 99.9599 18.3574C99.9269 17.9884 100.18 17.6525 100.544 17.5809L108.336 16.0556C108.49 16.028 108.65 16.0445 108.793 16.1161L115.77 19.4973C116.018 19.6184 116.177 19.8717 116.177 20.1471C116.177 20.4059 116.276 46.3758 115.153 58.1493C114.255 67.5108 113.947 102.154 113.942 102.501C113.942 102.815 113.732 103.096 113.435 103.189L106.348 105.408C106.276 105.43 106.205 105.441 106.133 105.441L106.122 105.447ZM99.6571 100.414L106.199 103.933L112.493 101.961C112.537 97.5392 112.862 66.7949 113.705 58.0116C114.74 47.1633 114.735 24.123 114.724 20.6097L108.374 17.5314L101.458 18.886C101.766 22.9115 103.308 44.7128 101.7 58.8431C99.8828 74.8073 99.6791 97.0326 99.6571 100.414Z" fill="black"/>
<path d="M79.8496 29.7589L85.6317 31.9065L93.2806 29.054L87.9446 25.8711L79.8496 29.7589Z" fill="#FFDB46"/>
<path d="M102.08 113.195L95.3512 109.125C95.3512 109.125 87.4985 79.9394 85.6042 63.799C83.7099 47.6532 79.8496 29.7617 79.8496 29.7617L85.6317 31.9094C85.6317 31.9094 97.1188 99.8684 102.08 113.2V113.195Z" fill="#FFC800"/>
<path d="M108.996 109.732L102.08 113.196C97.118 99.8639 85.6309 31.9049 85.6309 31.9049L93.2743 29.0469C93.2743 29.0469 99.7612 74.8191 102.79 85.3536C105.819 95.888 108.996 109.732 108.996 109.732Z" fill="#FF9700"/>
<path d="M102.079 113.92C101.947 113.92 101.82 113.887 101.705 113.815L94.9755 109.746C94.8158 109.647 94.7002 109.493 94.6506 109.311C94.5735 109.019 86.7649 79.8883 84.8871 63.8801C83.0203 47.9546 79.1821 30.0906 79.1435 29.9089C79.072 29.5785 79.2372 29.2481 79.54 29.0994L87.635 25.2116C87.8552 25.107 88.1141 25.118 88.3233 25.2447L93.6539 28.4276C93.8411 28.5377 93.9733 28.7304 94.0008 28.9507C94.0669 29.4078 100.493 74.7119 103.494 85.1583C106.496 95.5881 109.679 109.432 109.712 109.575C109.789 109.9 109.629 110.236 109.326 110.385L102.41 113.849C102.305 113.898 102.195 113.926 102.085 113.926L102.079 113.92ZM95.9722 108.65L102.112 112.362L108.159 109.333C107.536 106.646 104.744 94.7566 102.096 85.5493C99.1827 75.4113 93.2078 33.7251 92.6076 29.4849L87.9103 26.6819L80.6799 30.1512C81.3462 33.3176 84.6338 49.2927 86.3244 63.6984C88.092 78.7649 95.1627 105.594 95.9777 108.639L95.9722 108.65Z" fill="black"/>
<path d="M114.834 92.0912C113.529 110.875 109.542 125.958 109.542 125.958L102.355 128.953L95.9124 124.102C95.9124 124.102 104.508 105.148 102.482 88.8091C100.456 72.4706 85.8516 50.4325 85.8516 50.4325L90.2129 45.3222L97.6966 44.7109C97.6966 44.7109 116.133 73.3131 114.828 92.0967L114.834 92.0912Z" fill="#FFDB46"/>
<path d="M85.8574 50.4286L93.1153 49.3437L97.7025 44.707L90.2133 45.3238L85.8574 50.4286Z" fill="#FFEF5A"/>
<path d="M114.834 92.0912C113.529 110.875 109.542 125.958 109.542 125.958L102.356 128.953C102.356 128.953 113.264 98.9636 108.215 80.3177C103.165 61.6663 93.1152 49.3476 93.1152 49.3476L97.7024 44.7109C97.7024 44.7109 116.139 73.3131 114.834 92.0967V92.0912Z" fill="#FFB500"/>
<path d="M102.355 129.682C102.201 129.682 102.046 129.633 101.92 129.534L95.4768 124.682C95.207 124.479 95.1134 124.11 95.251 123.801C95.3392 123.614 103.737 104.836 101.76 88.8938C99.7776 72.9132 85.3884 51.0458 85.2397 50.8255C85.058 50.5557 85.08 50.1978 85.2948 49.9555L89.6562 44.8452C89.7828 44.6965 89.959 44.6084 90.1518 44.5919L97.6355 43.9751C97.9108 43.9531 98.1586 44.0798 98.3073 44.3055C99.0672 45.484 116.86 73.3262 115.554 92.1318C114.26 110.772 110.285 125.982 110.24 126.136C110.185 126.356 110.026 126.533 109.816 126.621L102.63 129.616C102.542 129.655 102.443 129.671 102.349 129.671L102.355 129.682ZM96.8095 123.867L102.459 128.124L108.924 125.431C109.519 123.074 112.928 108.988 114.101 92.0437C115.296 74.8516 99.4362 48.8596 97.3161 45.4675L90.5703 46.0236L86.7596 50.4896C88.9183 53.8212 101.325 73.5079 103.208 88.7231C105.042 103.542 98.1806 120.651 96.8095 123.873V123.867Z" fill="black"/>
<path d="M199.005 85.1926C185.342 98.1501 172.203 106.559 172.203 106.559L164.885 103.905L163.42 95.9749C163.42 95.9749 182.572 87.8249 192.132 74.4214C201.692 61.0179 205.839 34.9048 205.839 34.9048L212.507 34.0898L218.438 38.699C218.438 38.699 212.672 72.2352 199.01 85.1871L199.005 85.1926Z" fill="#FFB500"/>
<path d="M205.838 34.9072L211.917 39.0207L218.432 38.7068L212.501 34.0977L205.838 34.9072Z" fill="#EFD63D"/>
<path d="M199.005 85.1913C185.342 98.1487 172.203 106.558 172.203 106.558L164.885 103.903C164.885 103.903 193.201 89.1892 202.099 72.0411C210.993 54.8875 211.924 39.017 211.924 39.017L218.438 38.7031C218.438 38.7031 212.672 72.2393 199.01 85.1913H199.005Z" fill="#FF9000"/>
<path d="M172.197 107.288C172.114 107.288 172.031 107.271 171.949 107.244L164.63 104.589C164.388 104.501 164.212 104.292 164.162 104.039L162.697 96.1088C162.637 95.7729 162.813 95.4425 163.127 95.3104C163.314 95.2278 182.202 87.0832 191.531 74.0047C200.881 60.8931 205.072 35.0553 205.11 34.791C205.16 34.4716 205.419 34.2238 205.738 34.1852L212.407 33.3702C212.6 33.3427 212.792 33.3978 212.941 33.5189L218.872 38.1281C219.081 38.2933 219.186 38.5631 219.142 38.8275C218.905 40.2041 213.178 72.7491 199.494 85.7231C185.936 98.5759 172.714 107.089 172.582 107.177C172.461 107.255 172.329 107.293 172.191 107.293L172.197 107.288ZM165.517 103.367L172.103 105.757C174.135 104.424 186.173 96.3511 198.497 84.6658C211.003 72.8097 216.9 42.9355 217.633 39.0037L212.286 34.8461L206.454 35.5564C205.793 39.4717 201.614 62.3579 192.709 74.8417C184.036 87.0006 167.411 94.9579 164.223 96.4062L165.506 103.361L165.517 103.367Z" fill="black"/>
<path d="M182.517 97.7921L175.023 96.52L169.521 90.3194C169.521 90.3194 178.288 65.2746 185.579 50.5606C192.87 35.841 198.674 18.1367 198.674 18.1367L205.029 18.3129L211.703 22.1897C211.703 22.1897 200.877 46.403 195.855 61.4364C190.833 76.4699 182.517 97.7866 182.517 97.7866V97.7921Z" fill="#FFB500"/>
<path d="M198.68 18.1367L204.842 21.9639L211.709 22.1952L205.034 18.3129L198.68 18.1367Z" fill="#EFD63D"/>
<path d="M182.516 97.793L175.021 96.521C175.021 96.521 185.209 67.7701 192.037 52.7201C198.866 37.6701 204.835 21.9648 204.835 21.9648L211.702 22.1961C211.702 22.1961 200.876 46.4094 195.854 61.4429C190.831 76.4763 182.516 97.793 182.516 97.793Z" fill="#FF9000"/>
<path d="M182.523 98.5177C182.484 98.5177 182.44 98.5177 182.401 98.5067L174.907 97.2346C174.741 97.2071 174.593 97.1245 174.483 97.0034L168.981 90.8027C168.805 90.6045 168.75 90.3292 168.838 90.0813C168.926 89.828 177.704 64.8218 184.929 50.2399C192.11 35.7406 197.925 18.0914 197.986 17.9152C198.085 17.6123 198.377 17.4251 198.696 17.4141L205.051 17.5958C205.172 17.5958 205.293 17.6343 205.398 17.6949L212.072 21.5717C212.391 21.7589 212.523 22.1554 212.369 22.4968C212.259 22.7391 201.499 46.8532 196.543 61.6775C191.57 76.5567 183.277 97.8514 183.194 98.0662C183.084 98.347 182.814 98.5287 182.517 98.5287L182.523 98.5177ZM175.402 95.8469L182.06 96.9758C183.398 93.5286 190.656 74.712 195.172 61.2094C199.715 47.6297 209.087 26.324 210.783 22.4968L204.83 19.0386L199.197 18.8789C198.178 21.9076 192.771 37.6845 186.234 50.8842C179.549 64.3758 171.514 86.8764 170.353 90.1584L175.402 95.8469Z" fill="black"/>
<path d="M135.433 84.1486L126.496 85.283L121.154 83.1573C121.154 83.1573 128.236 46.5594 128.181 29.0864C128.131 11.6134 128.159 3.0339 128.159 3.0339L135.973 0.726562L144.007 4.88968C144.007 4.88968 140.45 23.3594 140.147 43.8115C139.85 64.2636 135.428 84.1486 135.428 84.1486H135.433Z" fill="#FFB500"/>
<path d="M128.16 3.02839L135.688 6.76749L144.014 4.88417L135.974 0.726562L128.16 3.02839Z" fill="#EFD63D"/>
<path d="M135.434 84.1456L126.496 85.28C126.496 85.28 132.46 67.7299 134.365 46.7161C136.265 25.7023 135.687 6.77003 135.687 6.77003L144.013 4.88672C144.013 4.88672 140.456 23.3564 140.153 43.8085C139.856 64.2607 135.434 84.1456 135.434 84.1456Z" fill="#FF9000"/>
<path d="M126.496 86.009C126.403 86.009 126.315 85.9925 126.227 85.9595L120.885 83.8339C120.56 83.7072 120.373 83.3658 120.439 83.0189C120.511 82.6554 127.504 46.2887 127.455 29.0911C127.405 11.8164 127.433 3.11569 127.433 3.03309C127.433 2.7137 127.647 2.42734 127.956 2.33924L135.77 0.0263937C135.952 -0.028674 136.144 -0.00664692 136.309 0.0759546L144.344 4.23356C144.63 4.38225 144.784 4.70164 144.724 5.01552C144.691 5.19725 141.172 23.6614 140.88 43.8162C140.583 64.1086 136.183 84.0982 136.139 84.2964C136.073 84.5938 135.825 84.8196 135.522 84.8581L126.585 85.9925C126.557 85.9925 126.524 85.998 126.491 85.998L126.496 86.009ZM121.981 82.705L126.59 84.5387L134.828 83.4924C135.505 80.2875 139.156 62.1647 139.426 43.7997C139.696 25.4401 142.62 8.47377 143.198 5.28536L135.902 1.50771L128.886 3.57826C128.886 5.72039 128.864 14.2339 128.908 29.0856C128.958 45.2094 122.889 77.9031 121.981 82.705Z" fill="black"/>
<path d="M137.356 70.4189C136.69 62.3956 138.832 53.2489 139.829 44.851C141.233 32.984 141.486 27.8516 141.486 27.8516L136.04 23.7656L130.605 27.8461C130.605 27.8461 126.453 48.6232 127.438 68.3815C128.424 88.1452 141.437 111.868 141.437 111.868L152.362 110.541L154.956 106.587C154.956 106.587 138.964 89.7862 137.356 70.4245V70.4189Z" fill="black"/>
<path d="M174.78 89.9462L167.412 90.3757L160.551 85.7004C160.551 85.7004 170.055 64.5159 175.111 41.2608C180.16 18.0058 182.402 8.83149 182.402 8.83149L189.032 8.45703L196.554 13.0497C196.554 13.0497 183.591 57.9794 180.204 71.7408C176.823 85.5022 174.775 89.9407 174.775 89.9407L174.78 89.9462Z" fill="#FFB500"/>
<path d="M182.406 8.83149L190.435 13.6774L196.559 13.0497L189.036 8.45703L182.406 8.83149Z" fill="#EFD63D"/>
<path d="M174.78 89.9473L167.412 90.3768C167.412 90.3768 180.672 53.2006 183.811 38.7839C186.95 24.3727 190.43 13.6786 190.43 13.6786L196.554 13.0508C196.554 13.0508 183.591 57.9805 180.204 71.7419C176.823 85.5033 174.775 89.9418 174.775 89.9418L174.78 89.9473Z" fill="#FF9000"/>
<path d="M167.418 91.1032C167.275 91.1032 167.132 91.0591 167.01 90.9765L160.149 86.3013C159.857 86.103 159.752 85.723 159.896 85.4037C159.989 85.1944 169.428 64.0154 174.411 41.1017C179.406 18.1 181.686 8.74396 181.708 8.65586C181.785 8.34748 182.055 8.1217 182.374 8.10518L189.004 7.73623C189.159 7.72521 189.296 7.76376 189.423 7.84085L196.945 12.4335C197.226 12.6042 197.358 12.9401 197.265 13.254C197.132 13.7056 184.269 58.3269 180.926 71.9176C177.567 85.5909 175.535 90.0679 175.452 90.2496C175.342 90.4919 175.105 90.6571 174.835 90.6681L167.467 91.0976C167.467 91.0976 167.44 91.0976 167.423 91.0976L167.418 91.1032ZM161.465 85.4422L167.627 89.6384L174.296 89.2474C174.846 87.8927 176.735 82.8761 179.511 71.5707C182.661 58.7619 194.241 18.4964 195.712 13.3807L188.856 9.19552L182.991 9.52592C182.451 11.7782 180.166 21.4481 175.827 41.4156C171.267 62.4019 162.99 81.9289 161.465 85.4422Z" fill="black"/>
<path d="M165.952 53.1482C166.497 72.2181 165.341 87.0809 165.341 87.0809L157.158 88.5567L150.654 85.7537C150.654 85.7537 150.561 53.5942 155.55 32.4703C160.545 11.3518 162.802 5.25582 162.802 5.25582L169.421 2.60156L178.282 7.77792C178.282 7.77792 165.418 34.0782 165.958 53.1482H165.952Z" fill="#FFB500"/>
<path d="M162.797 5.25813L171.734 9.09635L178.276 7.78023L169.416 2.60938L162.797 5.25813Z" fill="#EFD63D"/>
<path d="M165.953 53.1499C166.498 72.2198 165.342 87.0826 165.342 87.0826L157.159 88.5584C157.159 88.5584 156.52 54.9231 162.126 34.3939C165.017 23.8209 171.735 9.10127 171.735 9.10127L178.277 7.78516C178.277 7.78516 165.413 34.0855 165.953 53.1554V53.1499Z" fill="#FF9000"/>
<path d="M157.152 89.2786C157.053 89.2786 156.954 89.2565 156.866 89.218L150.362 86.415C150.098 86.2994 149.927 86.0406 149.922 85.7487C149.922 85.4238 149.883 53.2588 154.834 32.3C159.779 11.3743 162.02 5.25081 162.114 4.9975C162.185 4.80476 162.334 4.65058 162.527 4.57348L169.146 1.91922C169.355 1.83662 169.587 1.85314 169.785 1.96327L178.645 7.13963C178.976 7.33237 179.097 7.74538 178.932 8.0868C178.805 8.34562 166.15 34.4477 166.679 53.1156C167.219 72.0038 166.073 86.9767 166.062 87.1254C166.035 87.4558 165.792 87.7257 165.467 87.7862L157.284 89.262C157.24 89.2676 157.196 89.2731 157.158 89.2731L157.152 89.2786ZM151.376 85.2751L157.24 87.8027L164.652 86.4701C164.851 83.5901 165.704 69.9388 165.225 53.1762C164.73 35.7583 175.418 12.1508 177.335 8.07578L169.361 3.41706L163.375 5.8125C162.874 7.2718 160.583 14.3205 156.255 32.6415C151.668 52.0473 151.398 81.2056 151.381 85.2806L151.376 85.2751Z" fill="black"/>
<path d="M157.963 23.7656C157.963 23.7656 148.486 50.4294 147.957 55.7875C147.429 61.1511 138.811 99.4506 138.811 99.4506L145.022 102.672L150.232 101.097L160.469 27.2955L157.963 23.7656Z" fill="black"/>
<path d="M183.305 35.3076L167.418 28.8867L164.582 110.558L170.761 113.807L173.861 72.7757L180.91 47.7309L183.305 35.3076Z" fill="black"/>
<path d="M149.641 102.418L147.048 106.372L136.122 107.699C136.122 107.699 123.11 83.9706 122.124 64.2123C121.138 44.454 125.29 23.677 125.29 23.677L133.165 22.9336L138.991 26.6837C138.991 26.6837 130.439 46.8935 132.042 66.2553C133.65 85.6171 149.641 102.418 149.641 102.418Z" fill="#FFC800"/>
<path d="M125.291 23.677L131.552 26.6562L138.992 26.6782L133.166 22.9336L125.291 23.677Z" fill="#FFDB46"/>
<path d="M149.642 102.421L147.048 106.375C147.048 106.375 125.869 82.8937 127.169 61.219C128.463 39.5499 131.558 26.6641 131.558 26.6641L138.997 26.6861C138.997 26.6861 130.445 46.8959 132.048 66.2577C133.656 85.6195 149.647 102.421 149.647 102.421H149.642Z" fill="#FF9700"/>
<path d="M136.116 108.419C135.852 108.419 135.609 108.276 135.477 108.045C135.345 107.808 122.371 83.9416 121.391 64.2439C120.411 44.6233 124.53 23.7416 124.574 23.5324C124.634 23.2185 124.899 22.9817 125.218 22.9542L133.093 22.2108C133.253 22.1942 133.418 22.2328 133.555 22.3209L139.382 26.071C139.679 26.2637 139.795 26.6382 139.657 26.9631C139.574 27.1614 131.193 47.239 132.762 66.1933C134.326 85.0705 150.004 101.75 150.164 101.921C150.395 102.164 150.428 102.538 150.246 102.819L147.653 106.773C147.537 106.954 147.344 107.07 147.135 107.098L136.21 108.425C136.182 108.425 136.149 108.425 136.122 108.425L136.116 108.419ZM125.896 24.3419C125.268 27.7065 121.958 46.4626 122.839 64.1668C123.731 82.0913 134.772 103.606 136.518 106.91L146.617 105.682L148.716 102.483C146.232 99.7185 132.779 83.9912 131.309 66.3034C129.86 48.7919 136.722 30.3938 138.082 26.9576L132.977 23.6701L125.896 24.3419Z" fill="black"/>
<path d="M207.413 121.377L201.4 121.333L194.742 117.302C194.742 117.302 197.721 94.0028 204.346 76.3757C210.971 58.7485 221.599 37.4924 221.599 37.4924L229.402 37.4648L235.14 42.5861C235.14 42.5861 219.963 64.9106 214.132 83.1104C208.294 101.31 207.413 121.377 207.413 121.377Z" fill="#FFC800"/>
<path d="M221.604 37.5002L228.614 42.9133L235.145 42.5884L229.401 37.4727L221.604 37.5002Z" fill="#FFDB46"/>
<path d="M207.412 121.377L201.399 121.333C201.399 121.333 200.881 96.3044 211.03 74.3104C221.185 52.3219 228.613 42.9053 228.613 42.9053L235.139 42.5859C235.139 42.5859 219.962 64.9104 214.131 83.1102C208.293 101.31 207.412 121.377 207.412 121.377Z" fill="#FF9700"/>
<path d="M207.413 122.104L201.4 122.06C201.268 122.06 201.141 122.022 201.031 121.955L194.373 117.925C194.126 117.776 193.993 117.495 194.032 117.209C194.06 116.977 197.099 93.6232 203.68 76.1227C210.244 58.6607 220.855 37.3826 220.966 37.1678C221.087 36.92 221.34 36.7658 221.61 36.7658L229.413 36.7383C229.589 36.7383 229.765 36.8044 229.898 36.92L235.636 42.0358C235.905 42.2781 235.955 42.6856 235.751 42.9885C235.603 43.2087 220.569 65.434 214.831 83.3255C209.087 101.228 208.157 121.201 208.146 121.399C208.129 121.79 207.81 122.093 207.419 122.093L207.413 122.104ZM201.604 120.612L206.725 120.645C206.945 116.928 208.25 99.0749 213.438 82.8905C218.741 66.3482 231.858 46.2154 234.182 42.7076L229.121 38.1976L222.045 38.2251C220.553 41.2318 211.059 60.5716 205.018 76.6403C199.01 92.6209 195.981 113.558 195.519 116.933L201.598 120.612H201.604Z" fill="black"/>
<path d="M203.801 40.1911L199.693 34.9102L191.598 37.4378C191.598 37.4378 187.204 52.4272 183.272 65.8637C179.638 78.3035 173.432 117.55 173.432 117.55L177.876 121.565L185.524 120.573C185.524 120.573 187.689 101.322 188.663 88.7168C189.633 76.1118 203.801 40.1911 203.801 40.1911Z" fill="black"/>
<path d="M157.329 23.2091C157.329 23.2091 151.184 56.3323 148.001 66.0793C144.818 75.8263 137.378 105.794 137.378 105.794L132.081 107.033L126.084 103.421C126.084 103.421 137.114 65.7434 137.984 60.4238C138.854 55.1043 143.717 22.0307 143.717 22.0307L149.35 19.3984L157.329 23.2036V23.2091Z" fill="#FFC800"/>
<path d="M143.717 22.0401L149.35 19.4023L157.335 23.2075L152.792 26.9411L143.717 22.0401Z" fill="#FFDB46"/>
<path d="M157.329 23.2086C157.329 23.2086 151.183 56.3318 148 66.0788C144.817 75.8258 137.378 105.794 137.378 105.794L132.08 107.033C132.08 107.033 142.978 71.4809 146.679 55.2855C150.385 39.0901 152.791 26.9367 152.791 26.9367L157.329 23.2031V23.2086Z" fill="#FF9700"/>
<path d="M132.081 107.761C131.949 107.761 131.822 107.728 131.706 107.657L125.709 104.044C125.429 103.873 125.296 103.532 125.384 103.218C125.495 102.844 136.415 65.5244 137.263 60.3095C138.116 55.056 142.946 22.2632 142.99 21.9328C143.023 21.6905 143.177 21.4813 143.403 21.3821L149.036 18.7499C149.234 18.6563 149.46 18.6563 149.658 18.7499L157.638 22.5551C157.935 22.6983 158.1 23.0176 158.04 23.3425C157.786 24.6972 151.844 56.6254 148.689 66.3063C145.55 75.9156 138.16 105.674 138.083 105.972C138.017 106.236 137.808 106.44 137.543 106.506L132.246 107.745C132.191 107.756 132.136 107.767 132.081 107.767V107.761ZM126.943 103.092L132.207 106.258L136.789 105.184C137.714 101.467 144.372 74.8694 147.318 65.8493C150.225 56.9448 155.705 27.9792 156.52 23.6234L149.355 20.2092L144.388 22.533C143.838 26.2611 139.52 55.5957 138.711 60.5463C137.89 65.5629 128.353 98.2896 126.948 103.092H126.943Z" fill="black"/>
<path d="M174.417 64.3211C172.495 76.111 168.602 109.647 168.602 109.647L160.27 109.912L154.092 106.668C154.092 106.668 164.037 56.1821 165.188 43.478C166.24 31.8917 167.699 23.2461 167.699 23.2461L174.649 23.3948L182.821 25.7131C182.821 25.7131 176.339 52.5366 174.417 64.3266V64.3211Z" fill="#FFC800"/>
<path d="M167.699 23.2422L175.816 26.7445L182.826 25.7092L174.649 23.3909L167.699 23.2422Z" fill="#FFDB46"/>
<path d="M174.416 64.3244C172.495 76.1144 168.601 109.651 168.601 109.651L160.27 109.915C160.27 109.915 166.889 69.0161 170.297 54.5719C173.706 40.1277 175.81 26.7407 175.81 26.7407L182.82 25.7109C182.82 25.7109 176.338 52.5344 174.416 64.3244Z" fill="#FF9700"/>
<path d="M160.27 110.639C160.154 110.639 160.038 110.611 159.934 110.556L153.755 107.313C153.469 107.164 153.32 106.845 153.381 106.531C153.48 106.024 163.331 55.9346 164.466 43.4122C165.506 31.9306 166.971 23.2134 166.982 23.1253C167.043 22.7728 167.346 22.5195 167.698 22.5195H167.715L174.664 22.6682C174.725 22.6682 174.785 22.6792 174.846 22.6957L183.018 25.0141C183.392 25.1187 183.618 25.5042 183.525 25.8842C183.459 26.154 177.027 52.8123 175.132 64.4425C173.232 76.0838 169.361 109.4 169.323 109.736C169.279 110.094 168.981 110.369 168.623 110.38L160.292 110.644C160.292 110.644 160.275 110.644 160.27 110.644V110.639ZM154.906 106.272L160.435 109.174L167.951 108.937C168.497 104.29 171.938 74.988 173.695 64.2002C175.43 53.5612 180.925 30.4658 181.95 26.2146L174.538 24.111L168.315 23.9788C167.968 26.1595 166.79 33.858 165.914 43.5333C164.835 55.428 155.98 100.82 154.911 106.266L154.906 106.272Z" fill="black"/>
<path d="M184.648 85.8507C183.679 98.4557 181.509 117.707 181.509 117.707L173.86 118.699L169.416 114.684C169.416 114.684 175.622 75.4374 179.257 62.9976C183.183 49.5611 187.583 34.5717 187.583 34.5717L193.789 33.1289L200.469 36.0805C200.469 36.0805 185.617 73.2457 184.648 85.8507Z" fill="#FFC800"/>
<path d="M187.588 34.5717L194.312 37.2535L200.468 36.0805L193.789 33.1289L187.588 34.5717Z" fill="#FFDB46"/>
<path d="M184.647 85.8499C183.678 98.4549 181.508 117.707 181.508 117.707L173.859 118.698C173.859 118.698 177.141 86.5988 183.491 66.3174C189.84 46.036 194.311 37.2472 194.311 37.2472L200.468 36.0742C200.468 36.0742 185.616 73.2394 184.647 85.8444V85.8499Z" fill="#FF9700"/>
<path d="M173.866 119.422C173.684 119.422 173.514 119.356 173.381 119.235L168.937 115.22C168.756 115.055 168.668 114.807 168.706 114.565C168.767 114.174 174.962 75.131 178.569 62.7848C182.495 49.3483 186.895 34.3589 186.895 34.3589C186.967 34.1056 187.17 33.9129 187.429 33.8578L193.635 32.415C193.79 32.3765 193.949 32.393 194.092 32.4591L200.772 35.4107C201.13 35.5704 201.301 35.9834 201.152 36.3468C201.003 36.7158 186.333 73.5506 185.381 85.9077C184.417 98.3806 182.264 117.599 182.242 117.792C182.203 118.122 181.944 118.387 181.614 118.431L173.965 119.422C173.932 119.422 173.905 119.427 173.872 119.427L173.866 119.422ZM170.204 114.405L174.108 117.93L180.86 117.054C181.223 113.777 183.062 97.0314 183.932 85.7866C184.841 73.9801 197.496 41.6223 199.544 36.4515L193.729 33.8798L188.173 35.1739C187.446 37.6575 183.514 51.0554 179.968 63.1923C176.575 74.7896 170.865 110.281 170.21 114.4L170.204 114.405Z" fill="black"/>
<path d="M167.368 50.2746L159.229 47.7305L158.552 47.9893L154.741 49.4376C154.741 49.4376 148.105 80.4407 146.767 95.0887C145.429 109.737 140.814 131.571 140.814 131.571L149.493 134.831L153.777 133.553C153.777 133.553 158.508 115.029 158.811 102.71C159.108 90.3914 167.363 50.2746 167.363 50.2746H167.368Z" fill="black"/>
<path d="M151.806 47.0091L148.409 45.302L139.95 42.9727L137.681 43.9253C137.681 43.9253 137.263 52.4939 136.525 69.9558C135.787 87.4123 127.064 123.652 127.064 123.652L132.301 126.02L141.277 125.288C141.277 125.288 146.597 105.623 147.814 85.204C149.036 64.7794 151.801 47.0036 151.801 47.0036L151.806 47.0091Z" fill="black"/>
<path d="M207.292 70.0763L204.819 65.7975L199.687 63.7105L193.051 63.5508C193.051 63.5508 190.083 72.5158 183.189 95.2918C176.289 118.068 165.121 138.426 165.121 138.426L171.586 143.636L178.965 143.795C178.965 143.795 181.361 139.533 185.832 126.086C190.304 112.638 207.292 70.0708 207.292 70.0708V70.0763Z" fill="black"/>
<path d="M135.252 37.9304L129.987 34.9127L124.205 34.0977L125.786 37.9083C125.786 37.9083 125.631 56.5432 123.159 72.7772C120.681 89.0111 119.938 115.537 119.938 115.537L127.063 119.777L134.591 118.715C134.591 118.715 136.034 95.8781 136.254 80.0296C136.474 64.1811 135.263 37.9359 135.263 37.9359L135.252 37.9304Z" fill="black"/>
<path d="M126.81 117.869L119.282 118.932L112.156 114.692C112.156 114.692 112.905 88.1657 115.378 71.9318C117.856 55.6978 118.004 37.0629 118.004 37.0629L124.111 35.3008L131.65 36.9693C131.65 36.9693 128.693 63.3302 128.467 79.1732C128.247 95.0217 126.804 117.858 126.804 117.858L126.81 117.869Z" fill="#FFDB46"/>
<path d="M118.01 37.0692L125.042 38.8423L131.656 36.9755L124.117 35.3125L118.01 37.0692Z" fill="#FFEF5A"/>
<path d="M126.811 117.871L119.283 118.934C119.283 118.934 120.258 88.4483 122.191 72.0326C124.124 55.617 125.043 38.8434 125.043 38.8434L131.651 36.9766C131.651 36.9766 128.694 63.3374 128.468 79.1804C128.248 95.0289 126.805 117.865 126.805 117.865L126.811 117.871Z" fill="#FFB500"/>
<path d="M119.289 119.66C119.157 119.66 119.03 119.627 118.92 119.556L111.794 115.316C111.569 115.183 111.431 114.936 111.442 114.671C111.448 114.407 112.218 87.9139 114.674 71.8231C117.114 55.8259 117.29 37.2461 117.296 37.0589C117.296 36.7395 117.51 36.4531 117.819 36.365L123.926 34.6029C124.042 34.5698 124.168 34.5643 124.284 34.5918L131.823 36.2604C132.186 36.343 132.428 36.6789 132.39 37.0534C132.362 37.3177 129.433 63.5574 129.212 79.1856C128.998 94.8744 127.56 117.678 127.549 117.909C127.527 118.251 127.268 118.537 126.927 118.581L119.399 119.644C119.366 119.644 119.333 119.649 119.3 119.649L119.289 119.66ZM112.901 114.291L119.438 118.179L126.123 117.232C126.349 113.542 127.549 93.4096 127.748 79.1691C127.946 64.8515 130.407 41.7011 130.859 37.5435L124.141 36.0566L118.727 37.6151C118.678 40.809 118.32 57.4835 116.101 72.0434C113.832 86.9282 113.006 110.811 112.901 114.286V114.291Z" fill="black"/>
<path d="M145.549 130.831L141.265 132.108L132.586 128.848C132.586 128.848 137.201 107.014 138.539 92.366C139.877 77.718 146.513 46.7149 146.513 46.7149L151.001 45.0078L159.14 47.5519C159.14 47.5519 150.885 87.6687 150.588 99.9874C150.29 112.306 145.554 130.831 145.554 130.831H145.549Z" fill="#FFC800"/>
<path d="M146.508 46.7149L153.166 49.4848L159.135 47.5519L150.996 45.0078L146.508 46.7149Z" fill="#FFDB46"/>
<path d="M145.55 130.836L141.266 132.113C141.266 132.113 145.016 101.452 146.315 87.0625C147.609 72.6679 153.166 49.4954 153.166 49.4954L159.141 47.5625C159.141 47.5625 150.886 87.6793 150.589 99.9979C150.291 112.317 145.555 130.841 145.555 130.841L145.55 130.836Z" fill="#FF9700"/>
<path d="M141.265 132.838C141.177 132.838 141.095 132.821 141.012 132.794L132.333 129.534C131.997 129.407 131.805 129.054 131.876 128.702C131.92 128.482 136.496 106.741 137.818 92.3023C139.145 77.7754 145.737 46.8769 145.803 46.5631C145.852 46.3208 146.023 46.1225 146.254 46.0344L150.742 44.3273C150.897 44.2667 151.062 44.2612 151.216 44.3108L159.355 46.8549C159.713 46.9651 159.928 47.3285 159.851 47.692C159.768 48.0939 151.607 87.8803 151.31 99.9952C151.012 112.253 146.304 130.817 146.254 130.998C146.188 131.246 146.001 131.444 145.759 131.516L141.474 132.794C141.408 132.816 141.337 132.821 141.265 132.821V132.838ZM133.424 128.388L141.293 131.345L144.949 130.255C145.632 127.496 149.591 111.075 149.861 99.9732C150.142 88.4365 157.202 53.4355 158.298 48.0554L151.029 45.7811L147.146 47.2569C146.381 50.8804 140.505 78.8768 139.266 92.4344C138.066 105.59 134.184 124.743 133.429 128.388H133.424Z" fill="black"/>
<path d="M132.555 125.179L123.579 125.911L118.342 123.544C118.342 123.544 127.065 87.3035 127.802 69.8471C128.54 52.3906 128.959 43.8166 128.959 43.8166L136.872 41.8672L144.708 46.3882C144.708 46.3882 140.319 64.6762 139.097 85.1008C137.874 105.52 132.56 125.185 132.56 125.185L132.555 125.179Z" fill="#FFDB46"/>
<path d="M128.953 43.8166L136.305 47.8916L144.708 46.3882L136.866 41.8672L128.953 43.8166Z" fill="#FFEF5A"/>
<path d="M132.554 125.178L123.578 125.91C123.578 125.91 130.329 108.646 133.182 87.737C136.029 66.8278 136.31 47.8901 136.31 47.8901L144.713 46.3867C144.713 46.3867 140.324 64.6747 139.102 85.0993C137.879 105.518 132.565 125.183 132.565 125.183L132.554 125.178Z" fill="#FFB500"/>
<path d="M123.578 126.738C123.462 126.738 123.347 126.716 123.237 126.666L118 124.304C117.636 124.139 117.444 123.742 117.537 123.357C117.625 122.993 126.254 86.9954 126.976 69.8198C127.708 52.5561 128.127 43.8719 128.132 43.7838C128.149 43.4204 128.408 43.112 128.76 43.0239L136.673 41.0745C136.877 41.0249 137.097 41.0525 137.284 41.1626L145.121 45.6837C145.44 45.8654 145.594 46.2343 145.512 46.5923C145.467 46.774 141.123 65.051 139.922 85.1617C138.711 105.432 133.408 125.212 133.358 125.411C133.264 125.747 132.973 125.989 132.626 126.016L123.65 126.749C123.65 126.749 123.606 126.749 123.584 126.749L123.578 126.738ZM119.299 123.07L123.721 125.069L131.904 124.403C132.769 121.055 137.18 103.246 138.27 85.046C139.36 66.8407 143 50.1331 143.766 46.796L136.745 42.7486L129.751 44.4722C129.647 46.7299 129.245 55.2049 128.628 69.8804C127.95 85.9106 120.489 118.043 119.299 123.07Z" fill="black"/>
<path d="M183.216 130.677L175.848 131.106L168.986 126.431C168.986 126.431 178.491 105.246 183.546 81.9913C188.596 58.7362 190.837 49.562 190.837 49.562L197.467 49.1875L204.99 53.7801C204.99 53.7801 192.027 98.7099 188.64 112.471C185.259 126.233 183.21 130.671 183.21 130.671L183.216 130.677Z" fill="#FFDB46"/>
<path d="M190.844 49.5565L198.873 54.4079L204.996 53.7801L197.468 49.1875L190.844 49.5565Z" fill="#FFEF5A"/>
<path d="M183.216 130.682L175.848 131.111C175.848 131.111 189.108 93.935 192.247 79.5183C195.386 65.1071 198.866 54.4129 198.866 54.4129L204.989 53.7852C204.989 53.7852 192.027 98.7149 188.64 112.476C185.259 126.238 183.21 130.676 183.21 130.676L183.216 130.682Z" fill="#FFB500"/>
<path d="M175.848 131.836C175.704 131.836 175.561 131.792 175.44 131.709L168.579 127.034C168.287 126.836 168.182 126.456 168.325 126.136C168.419 125.927 177.858 104.748 182.841 81.8343C187.836 58.8325 190.116 49.4765 190.138 49.3884C190.215 49.08 190.485 48.8542 190.804 48.8377L197.434 48.4688C197.588 48.4688 197.726 48.4963 197.853 48.5734L205.375 53.166C205.656 53.3367 205.788 53.6726 205.694 53.9865C205.562 54.4381 192.698 99.0594 189.356 112.65C185.997 126.323 183.965 130.8 183.882 130.982C183.772 131.224 183.535 131.39 183.265 131.401L175.897 131.83C175.897 131.83 175.87 131.83 175.853 131.83L175.848 131.836ZM169.895 126.175L176.051 130.371L182.72 129.98C183.271 128.625 185.159 123.609 187.935 112.303C191.085 99.4944 202.666 59.229 204.136 54.1132L197.28 49.928L191.415 50.2584C190.876 52.5107 188.59 62.1806 184.251 82.1481C179.691 103.129 171.415 122.661 169.889 126.175H169.895Z" fill="black"/>
<path d="M183.211 65.4521L182.435 53.8438L179.246 57.0268L177.121 51.6797L175.948 56.0025L169.103 54.7635L168.034 61.4983C168.034 61.4983 165.215 67.3575 158.276 87.9197C151.343 108.482 148.441 140.515 148.441 140.515L154.659 143.913L162.946 143.208C162.946 143.208 181.229 126.731 182.462 107.695C182.732 103.57 180.617 89.4231 182.996 84.5606C184.742 80.9977 178.652 86.0254 178.652 86.0254C178.652 86.0254 175.083 83.4592 175.419 82.5176C179.268 71.6637 183.206 65.4686 183.211 65.4631V65.4521Z" fill="black"/>
<path d="M165.661 98.4646C166.206 117.535 165.05 132.397 165.05 132.397L156.867 133.873L150.363 131.07C150.363 131.07 150.27 98.9106 155.259 77.7867C160.254 56.6682 162.511 50.5722 162.511 50.5722L169.13 47.918L177.991 53.0943C177.991 53.0943 165.127 79.3946 165.667 98.4646H165.661Z" fill="#FFDB46"/>
<path d="M162.512 50.5667L171.444 54.4104L177.986 53.0943L169.131 47.918L162.512 50.5667Z" fill="#FFEF5A"/>
<path d="M165.66 98.4663C166.205 117.536 165.049 132.399 165.049 132.399L156.866 133.875C156.866 133.875 156.227 100.239 161.833 79.7103C164.724 69.1373 171.442 54.4177 171.442 54.4177L177.984 53.1016C177.984 53.1016 165.12 79.4019 165.66 98.4718V98.4663Z" fill="#FFB500"/>
<path d="M187.039 85.1009L198.818 80.7891L192.926 103.075L187.039 85.1009Z" fill="black"/>
<path d="M156.867 134.595C156.768 134.595 156.669 134.573 156.581 134.534L150.077 131.731C149.813 131.615 149.642 131.357 149.637 131.065C149.637 130.74 149.598 98.5748 154.549 77.616C159.494 56.6903 161.735 50.5668 161.829 50.3135C161.9 50.1208 162.049 49.9666 162.242 49.8895L168.861 47.2352C169.07 47.1526 169.301 47.1691 169.5 47.2848L178.36 52.4611C178.69 52.6539 178.812 53.0669 178.646 53.4083C178.52 53.6671 165.865 79.7692 166.394 98.4371C166.933 117.331 165.788 132.298 165.777 132.447C165.75 132.777 165.507 133.047 165.182 133.108L156.999 134.584C156.955 134.589 156.911 134.595 156.873 134.595H156.867ZM151.091 130.586L156.955 133.113L164.367 131.781C164.566 128.901 165.419 115.249 164.94 98.4867C164.444 81.0688 175.133 57.4668 177.049 53.3863L169.076 48.7276L163.09 51.123C162.589 52.5823 160.298 59.6309 155.97 77.952C151.382 97.3578 151.113 126.522 151.096 130.586H151.091Z" fill="black"/>
<path d="M211.73 98.8734C202 108.901 188.492 124.981 188.492 124.981L182.737 123.472L182.506 113.698C182.506 113.698 207.171 87.6671 216.433 74.4564C225.69 61.2512 232.039 50.8984 232.039 50.8984L238.785 53.8776L240.498 60.304C240.498 60.304 221.461 88.8456 211.73 98.8679V98.8734Z" fill="#FFC800"/>
<path d="M232.033 50.8984L234.456 57.5837L240.492 60.304L238.779 53.8776L232.033 50.8984Z" fill="#FFDB46"/>
<path d="M211.729 98.8718C201.999 108.9 188.491 124.979 188.491 124.979L182.736 123.47C182.736 123.47 210.479 93.745 218.475 82.357C226.471 70.9635 234.461 57.582 234.461 57.582L240.502 60.3079C240.502 60.3079 221.465 88.8495 211.735 98.8718H211.729Z" fill="#FF9700"/>
<path d="M188.487 125.707C188.426 125.707 188.365 125.702 188.305 125.685L182.55 124.177C182.236 124.094 182.016 123.813 182.011 123.488L181.779 113.714C181.779 113.521 181.845 113.334 181.978 113.196C182.225 112.937 206.714 87.0499 215.839 74.0374C224.98 61.0029 231.357 50.6171 231.423 50.518C231.616 50.2096 232.007 50.0885 232.337 50.2317L239.083 53.2108C239.286 53.2989 239.435 53.4752 239.49 53.6899L241.203 60.1163C241.258 60.3201 241.219 60.5348 241.104 60.7055C240.911 60.9919 221.918 89.4178 212.254 99.3741C202.655 109.264 189.18 125.283 189.048 125.443C188.911 125.608 188.701 125.702 188.492 125.702L188.487 125.707ZM183.442 122.91L188.228 124.166C190.265 121.748 202.364 107.48 211.207 98.3663C220.272 89.0213 237.728 63.123 239.705 60.1769L238.169 54.4058L232.32 51.8231C230.889 54.125 225.007 63.492 217.023 74.88C208.289 87.3363 185.64 111.434 183.233 113.984L183.442 122.91Z" fill="black"/>
<path d="M192.352 100.039C183.277 116.229 172.902 133.047 172.902 133.047L176.063 139.952L183.112 142.034C183.112 142.034 193.189 119.252 206.488 102.264C219.787 85.2702 237.491 77.3515 237.491 77.3515L234.319 71.294L226.279 67.4062C226.279 67.4062 201.438 83.855 192.358 100.039H192.352Z" fill="#FFB500"/>
<path d="M237.485 77.3515L229.104 73.2324L226.273 67.4062L234.308 71.294L237.485 77.3515Z" fill="#FFEF5A"/>
<path d="M192.352 100.042C183.277 116.232 172.902 133.049 172.902 133.049L176.063 139.955C176.239 139.575 187.38 114.915 199.913 99.2322C212.54 83.4222 229.11 73.2402 229.11 73.2402L226.279 67.4141C226.279 67.4141 201.438 83.8628 192.358 100.047L192.352 100.042Z" fill="#FFDB46"/>
<path d="M183.107 142.761C183.041 142.761 182.969 142.75 182.903 142.734L175.854 140.658C175.634 140.592 175.458 140.427 175.381 140.217L172.242 133.35C172.143 133.13 172.159 132.871 172.286 132.668C172.391 132.497 182.754 115.679 191.719 99.6875C200.778 83.5361 225.625 66.9663 225.872 66.8011C226.087 66.6579 226.357 66.6414 226.588 66.7515L234.628 70.6393C234.766 70.7054 234.881 70.821 234.953 70.9587L238.125 77.0161C238.218 77.1923 238.235 77.4016 238.169 77.5888C238.103 77.7761 237.96 77.9303 237.778 78.0129C237.602 78.0899 220.074 86.0637 207.05 102.711C193.961 119.429 183.867 142.101 183.768 142.326C183.646 142.596 183.382 142.761 183.101 142.761H183.107ZM176.587 139.358L182.705 141.164C184.384 137.486 193.884 117.182 205.91 101.824C217.678 86.7906 233.059 78.7122 236.489 77.0271L233.775 71.8508L226.329 68.2494C223.317 70.2979 201.296 85.5792 192.98 100.403C184.698 115.178 175.221 130.663 173.718 133.103L176.581 139.364L176.587 139.358Z" fill="black"/>
<path d="M137.103 100.546L129.851 109.346L122.136 108.162L123.171 100.761L119.575 105.607L112.504 102.529L111.805 102.066L113.093 88.7178L109.079 99.1532C109.079 99.1532 103.82 84.5823 100.263 84.2133C89.9155 83.1505 98.7153 121.12 116.992 122.733C123.633 123.322 136.145 123.79 141.354 120.508C150.479 114.765 150.226 103.421 150.226 103.421L143.893 110.139L136.36 109.798L137.103 100.53V100.546Z" fill="black"/>
<path d="M219.115 140.471C220.745 131.363 223.482 98.5753 223.482 98.5753C223.482 98.5753 214.599 93.3274 208.525 90.6511C188.866 81.989 172.467 80.8711 172.467 80.8711C162.588 96.2074 145.583 112.849 127.361 111.973C99.1499 110.613 100.835 80.8711 100.835 80.8711L67.9981 88.6466C67.9981 88.6466 48.6804 171 67.3043 211.828C72.7615 223.788 88.3511 231.288 100.345 232.048C118.853 233.221 149.063 232.687 170.54 232.054C186.102 231.597 199.979 222.164 206.124 207.857C214.726 187.857 215.557 160.378 219.115 140.476V140.471Z" fill="#FF5A00"/>
<path d="M160.622 232.229C157.318 232.889 167.246 232.058 170.319 231.97C185.881 231.513 199.758 222.08 205.904 207.773C214.505 187.772 215.337 160.294 218.894 140.392C220.524 131.284 223.261 98.4967 223.261 98.4967C223.261 98.4967 214.379 93.2488 208.305 90.5725C206.669 89.8511 205.056 89.1848 203.47 88.5625L199.4 123.756C199.4 123.756 196.564 152.595 188.525 190.696C185.606 204.529 180.699 212.052 177.985 216.991C175.27 221.931 170.749 230.197 160.622 232.229Z" fill="#D04A00"/>
<path d="M152.587 231.833C145.995 230.874 142.135 229.768 138.098 228.606C133.566 227.306 128.886 225.962 119.838 224.586C94.3637 220.703 83.0198 222.89 79.3633 223.991C85.5529 228.011 93.3119 230.704 100.173 231.139C110.994 231.827 135.802 232.02 152.587 231.838V231.833Z" fill="#D04A00"/>
<path d="M170.43 231.799C170.276 231.121 169.858 231.133 168.613 231.16C166.708 231.204 162.258 231.309 158.31 230.885C148.249 229.8 143.541 228.445 138.557 227.019C133.975 225.708 129.24 224.348 120.093 222.955C90.8355 218.494 79.9871 221.876 77.6743 222.823L77.2613 222.525C76.8923 222.261 76.3802 222.344 76.1104 222.707C75.8405 223.071 75.9176 223.588 76.2811 223.858C83.093 228.935 91.9864 232.272 100.07 232.785C107.774 233.275 125.401 233.555 141.035 233.555C155.755 233.555 168.712 233.302 169.957 232.74C170.315 232.581 170.513 232.184 170.425 231.799H170.43ZM119.84 224.585C128.887 225.962 133.568 227.305 138.1 228.605C142.137 229.761 145.997 230.868 152.588 231.832C135.804 232.014 110.996 231.821 100.175 231.133C93.3135 230.697 85.5545 228.01 79.3649 223.985C83.0214 222.883 94.3653 220.697 119.84 224.579V224.585Z" fill="black"/>
<path d="M160.765 231.415L100.521 220.881C100.075 220.798 99.6568 221.096 99.5687 221.536C99.4806 221.977 99.7669 222.406 100.207 222.5C101.65 222.808 105.582 224.003 106.441 225.782C107.151 227.258 106.694 227.687 106.067 228.277C105.957 228.381 105.846 228.48 105.753 228.579C105.45 228.899 104.635 229.752 104.998 230.678C105.549 232.076 107.856 232.208 116.436 232.715L116.717 232.732C121.651 233.018 138.672 233.073 150.022 233.073C156.068 233.073 160.507 233.056 160.633 233.056C161.063 233.056 161.415 232.726 161.454 232.302C161.492 231.878 161.195 231.493 160.771 231.421L160.765 231.415Z" fill="black"/>
<path d="M186.46 198.227C186.025 198.089 185.563 198.326 185.42 198.761C184.572 201.388 183.613 204.014 182.562 206.558C182.385 206.982 182.589 207.461 183.008 207.638C183.112 207.682 183.217 207.698 183.322 207.698C183.646 207.698 183.955 207.506 184.087 207.186C185.155 204.598 186.13 201.933 186.989 199.267C187.127 198.832 186.89 198.37 186.455 198.227H186.46Z" fill="black"/>
<path d="M189.108 187.984C188.657 187.896 188.227 188.199 188.144 188.645C188.023 189.289 187.665 191.117 187.428 191.828C187.285 192.263 187.522 192.725 187.957 192.869C188.045 192.896 188.128 192.913 188.216 192.913C188.563 192.913 188.888 192.692 188.998 192.345C189.312 191.382 189.747 189.047 189.769 188.948C189.851 188.502 189.554 188.067 189.108 187.984Z" fill="black"/>
<path d="M199.787 120.56C199.335 120.51 198.922 120.83 198.867 121.281C196.318 142.295 192.683 169.988 189.853 182.566C189.6 183.7 189.319 184.851 189.021 185.98C188.906 186.421 189.17 186.872 189.611 186.988C189.682 187.004 189.754 187.015 189.82 187.015C190.189 187.015 190.519 186.768 190.618 186.399C190.921 185.253 191.202 184.086 191.466 182.929C194.313 170.286 197.953 142.537 200.508 121.485C200.563 121.033 200.239 120.62 199.787 120.565V120.56Z" fill="black"/>
<path d="M200.495 114.635C200.044 114.58 199.631 114.905 199.576 115.356L199.383 116.975C199.328 117.427 199.653 117.84 200.104 117.895C200.137 117.895 200.171 117.901 200.204 117.901C200.617 117.901 200.974 117.592 201.024 117.174L201.217 115.549C201.272 115.098 200.947 114.685 200.495 114.629V114.635Z" fill="black"/>
<path d="M223.68 97.7786C223.592 97.7236 214.688 92.4756 208.636 89.8103C189.07 81.1922 172.467 79.9697 172.302 79.9587C172.005 79.9312 171.713 80.0799 171.553 80.3332C161.624 95.7411 144.768 111.903 127.185 111.055C119.354 110.675 113.159 108.016 108.77 103.148C100.791 94.2928 101.435 80.9555 101.446 80.8233C101.463 80.5645 101.353 80.3112 101.149 80.146C100.951 79.9808 100.687 79.9147 100.428 79.9752L67.5909 87.7508C67.288 87.8224 67.0512 88.0592 66.9796 88.3676C66.9301 88.5768 62.1116 109.304 59.6281 134.757C57.3373 158.298 56.6379 190.821 66.3353 212.083C71.9963 224.5 87.9439 232.017 100.075 232.783C108.066 233.289 118.215 233.476 128.942 233.476C142.962 233.476 157.951 233.151 170.347 232.788C186.163 232.325 200.414 222.634 206.67 208.096C212.766 193.916 215.018 175.793 217 159.801C217.854 152.918 218.664 146.409 219.715 140.528C221.334 131.486 224.066 98.8855 224.093 98.5551C224.121 98.2412 223.961 97.9383 223.691 97.7731L223.68 97.7786ZM218.08 140.241C217.023 146.167 216.208 152.692 215.354 159.598C213.383 175.479 211.147 193.481 205.144 207.44C199.148 221.389 185.469 230.69 170.292 231.136C168.838 231.18 167.346 231.219 165.826 231.263C173.547 227.782 177.825 219.5 181.091 213.156C181.625 212.121 182.126 211.146 182.605 210.276C182.825 209.874 182.677 209.373 182.275 209.153C181.873 208.933 181.372 209.081 181.151 209.483C180.727 210.26 180.287 211.113 179.824 212.005C179.758 212.138 179.687 212.27 179.621 212.402C175.997 219.434 171.08 228.972 161.58 230.905C161.222 230.976 160.865 231.042 160.496 231.092C160.27 231.125 160.077 231.246 159.95 231.411C139.707 231.896 115.781 232.122 100.169 231.13C88.5166 230.393 73.2243 223.223 67.8277 211.394C50.2831 172.929 66.908 96.1706 68.461 89.2431L99.7559 81.8365C99.7559 85.3278 100.362 96.2973 107.52 104.255C112.212 109.469 118.798 112.316 127.091 112.713C145.198 113.589 162.445 97.3216 172.66 81.6548C175.199 81.8971 187.506 83.3068 202.573 89.1055C202.33 91.3192 201.466 99.2434 200.249 109.629C200.194 110.081 200.519 110.494 200.976 110.543C201.009 110.543 201.042 110.543 201.075 110.543C201.488 110.543 201.846 110.235 201.895 109.811C203.041 100.031 203.878 92.4315 204.17 89.7222C205.42 90.2233 206.686 90.752 207.969 91.3192C213.157 93.6045 220.519 97.8447 222.392 98.935C222.034 103.159 219.572 131.893 218.08 140.236V140.241Z" fill="black"/>
<path d="M206.934 163.038C203.508 162.636 200.303 166.909 199.61 172.774C198.916 178.639 201.041 183.551 204.45 183.953C204.599 183.969 204.747 183.98 204.896 183.98C208.14 183.98 211.108 179.828 211.774 174.217C212.468 168.352 210.342 163.44 206.934 163.038Z" fill="black"/>
<path d="M214.67 175.499C214.543 175.318 214.89 163.033 214.67 163L206 168C206 168 204.576 173.952 204.427 174.299C204.278 174.646 204.388 175.053 204.691 175.279C204.752 175.323 210.903 180.004 211.404 186.249C211.437 186.662 211.773 186.987 212.192 187.009C212.203 187.009 212.219 187.009 212.23 187.009C212.632 187.009 212.974 186.722 213.045 186.326L214.813 176.122C214.851 175.901 214.802 175.681 214.67 175.499Z" fill="black"/>
<path d="M285.526 109.684C284.596 106.809 282.062 104.992 279.226 104.27C279.469 102.877 279.805 99.5512 278.109 96.963C276.996 95.2669 275.234 94.2151 272.877 93.8407C272.365 93.7581 271.858 93.725 271.352 93.725C271.836 91.5278 270.834 87.9429 268.461 85.8779C266.693 84.347 263.543 83.0419 258.543 85.531C255.222 87.183 252.59 90.5917 250.701 95.6524C247.381 94.2537 243.532 94.7823 240.437 97.1227C235.866 100.581 234.132 107.057 235.789 114.447C236.125 115.939 237.232 117.839 238.399 119.849C240.029 122.652 242.061 126.143 241.318 127.867C241.307 127.889 241.301 127.911 241.296 127.928C241.257 128.032 237.579 138.715 229.192 146.992C222.342 153.749 213.195 159.63 206.917 162.879C204.246 164.261 202.6 167.009 202.627 170.043C202.649 173.022 204.235 175.578 206.862 176.888C207.798 177.356 208.745 177.588 209.665 177.588H209.814C210.386 177.588 210.943 177.527 211.482 177.411C240.569 171.145 254.749 151.761 263.852 135.571C265.008 133.517 269.204 130.791 273.263 128.159C277.993 125.086 282.464 122.19 283.781 119.524C285.256 116.545 286.617 113.043 285.532 109.678L285.526 109.684Z" fill="#FF9000"/>
<path d="M285.526 109.684C284.596 106.809 282.062 104.992 279.226 104.27C279.469 102.877 279.805 99.5512 278.109 96.963C276.996 95.2669 275.234 94.2151 272.877 93.8407C272.365 93.7581 271.858 93.725 271.352 93.725C271.836 91.5278 270.834 87.9429 268.461 85.8779C266.693 84.347 263.543 83.0419 258.543 85.531C255.222 87.183 252.59 90.5917 250.701 95.6524C247.381 94.2537 243.532 94.7823 240.437 97.1227C235.866 100.581 234.132 107.057 235.789 114.447C236.125 115.939 237.232 117.839 238.399 119.849C240.029 122.652 242.061 126.143 241.318 127.867C241.307 127.889 241.301 127.911 241.296 127.928C241.257 128.032 237.579 138.715 229.192 146.992C222.342 153.749 213.195 159.63 206.917 162.879C204.246 164.261 202.6 167.009 202.627 170.043C202.649 173.022 204.235 175.578 206.862 176.888C207.798 177.356 208.745 177.588 209.665 177.588H209.814C210.386 177.588 210.943 177.527 211.482 177.411C240.569 171.145 254.749 151.761 263.852 135.571C265.008 133.517 269.204 130.791 273.263 128.159C277.993 125.086 282.464 122.19 283.781 119.524C285.256 116.545 286.617 113.043 285.532 109.678L285.526 109.684ZM272.359 126.777C267.938 129.646 263.763 132.355 262.409 134.767C253.477 150.654 239.572 169.674 211.13 175.803C210.711 175.897 210.265 175.941 209.814 175.941H209.665C208.999 175.941 208.305 175.765 207.594 175.412C205.535 174.388 204.296 172.378 204.274 170.038C204.252 167.626 205.557 165.451 207.671 164.355C214.054 161.051 223.366 155.065 230.348 148.176C238.884 139.756 242.579 129.271 242.849 128.495C243.889 126.011 241.824 122.459 239.826 119.023C238.724 117.123 237.678 115.334 237.397 114.089C235.883 107.349 237.392 101.506 241.428 98.4443C244.269 96.2967 247.849 95.9387 250.767 97.5192C251.946 98.158 252.166 98.7858 252.568 99.9257C252.733 100.388 252.915 100.917 253.196 101.506C253.295 101.721 253.411 101.93 253.532 102.128L254.446 103.654C254.479 103.703 254.507 103.758 254.54 103.808L255.492 105.405C255.509 105.432 255.531 105.465 255.553 105.493C255.657 105.625 255.746 105.763 255.823 105.912C256.181 107.475 256.037 108.792 255.382 109.821C254.088 111.859 251.56 112.035 250.052 111.941C249.479 111.837 249.044 111.787 248.829 111.771C246.852 110.945 244.936 108.902 243.383 105.939C243.174 105.537 242.673 105.377 242.271 105.592C241.869 105.801 241.709 106.302 241.924 106.704C243.856 110.4 246.274 112.767 248.917 113.56C249.561 113.753 250.211 113.841 250.867 113.841C253.108 114.464 256.357 115.972 257.442 119.557C257.535 119.86 257.789 120.08 258.097 120.13C258.141 120.135 258.185 120.141 258.229 120.141C258.493 120.141 258.741 120.014 258.901 119.794C261.109 116.71 264.815 117.977 266.043 118.511C266.291 118.643 266.533 118.753 266.77 118.841C269.49 119.871 273.048 119.172 275.179 117.806L277.062 118.048C277.095 118.048 277.134 118.054 277.167 118.054C277.574 118.054 277.932 117.751 277.987 117.333C278.042 116.881 277.723 116.468 277.272 116.407L276.892 116.358L278.72 114.662C279.056 114.353 279.072 113.83 278.764 113.494C278.455 113.158 277.932 113.142 277.596 113.45L274.815 116.027C274.722 116.11 274.623 116.187 274.513 116.264C274.496 116.275 274.48 116.286 274.463 116.297C272.789 117.481 269.584 118.137 267.354 117.288C267.266 117.255 267.189 117.211 267.106 117.173C267.045 117.145 266.99 117.112 266.93 117.079C266.181 116.655 264.066 115.13 264.876 111.842C265.928 109.188 269.981 107.095 273.918 105.917C277.651 104.805 282.685 106.286 283.951 110.196C284.86 112.999 283.621 116.121 282.294 118.803C281.176 121.061 276.693 123.968 272.354 126.782L272.359 126.777ZM267.37 87.1224C269.479 88.9507 270.14 92.1776 269.672 93.5984C269.639 93.6975 269.628 93.7911 269.634 93.8902C269.171 93.9838 268.72 94.105 268.284 94.2702C265.603 95.2834 263.147 96.8804 261.098 98.8959C260.966 99.0005 259.986 99.8155 258.956 101.071C258.301 101.506 257.673 101.693 257.073 101.633C255.239 101.446 254.016 99.006 253.923 98.8078C253.598 97.9542 253.179 97.1447 252.166 96.4344C253.906 91.6655 256.296 88.4936 259.27 87.0068C262.579 85.3602 265.382 85.3988 267.37 87.1224ZM276.721 97.8551C278.092 99.9422 277.8 102.8 277.596 103.973C276.176 103.824 274.744 103.935 273.444 104.326C271.341 104.953 265.476 107.007 263.565 110.702C259.248 110.636 258.637 109.056 258.339 108.147C258.058 106.66 258.659 105.008 258.747 104.777C259.303 103.703 259.975 102.69 260.729 101.748C261.23 101.297 261.731 100.741 262.222 100.091C264.11 98.2241 266.379 96.7427 268.857 95.8121C270.019 95.3716 271.28 95.2614 272.602 95.4707C274.48 95.768 275.862 96.572 276.71 97.8606L276.721 97.8551Z" fill="black"/>
<path d="M66.3513 288.812C44.8914 288.812 22.0879 291.825 22.0879 297.409C22.0879 302.992 44.8914 306.005 66.3513 306.005C87.8112 306.005 110.615 302.992 110.615 297.409C110.615 291.825 87.8112 288.812 66.3513 288.812Z" fill="black"/>
<path d="M218.267 288.812C196.807 288.812 174.004 291.825 174.004 297.409C174.004 302.992 196.807 306.005 218.267 306.005C239.727 306.005 262.531 302.992 262.531 297.409C262.531 291.825 239.727 288.812 218.267 288.812Z" fill="black"/>
<path d="M94.9758 256.064C91.0439 250.161 86.0548 246.267 82.8278 246.598C81.6824 246.713 80.8124 247.374 80.3718 248.459C79.9533 249.5 78.3839 252.187 78.3673 252.215C78.2737 252.374 78.2462 252.567 78.2958 252.743C78.3453 252.925 78.461 253.074 78.6207 253.167C83.3069 255.849 90.8732 259.852 94.2268 259.852C94.8436 259.852 95.3227 259.715 95.609 259.406C96.4461 258.509 95.6531 257.066 94.9813 256.058L94.9758 256.064Z" fill="black"/>
<path d="M189.075 267.658C187.412 262.856 183.337 261.953 178.838 260.522C176.911 259.91 169.052 256.975 171.58 246.87C173.028 241.077 174.735 236.352 186.112 238.665C192.385 239.937 189.714 232.553 204.45 232.701C209.389 232.751 213.922 235.592 216.069 240.047C218.184 244.431 219.478 249.525 217.771 254.046L218.327 255.296C223.349 267.697 218.949 295.055 210.182 299.185C201.41 303.315 186.492 302.687 181.69 289.14C178.981 281.502 182.087 274.36 187.742 269.052C192.087 264.977 199.698 265.329 201.135 265.836" fill="#FFCB6E"/>
<path d="M199.896 302.231C196.856 302.231 193.872 301.692 191.262 300.607C186.36 298.564 182.781 294.692 180.909 289.406C178.359 282.209 180.644 274.565 187.175 268.442C187.495 268.144 187.831 267.863 188.178 267.605C186.724 263.838 183.58 262.863 179.631 261.63C179.284 261.525 178.937 261.415 178.585 261.305C176.09 260.512 168.161 257.114 170.776 246.662C172.39 240.214 174.554 235.467 186.278 237.846C188.481 238.292 189.252 237.582 190.65 236.293C192.715 234.388 195.562 231.772 204.456 231.866C209.698 231.921 214.55 234.983 216.813 239.674C219.445 245.132 220.067 249.95 218.658 254.003L219.082 254.945C224.131 267.412 220.012 295.452 210.535 299.918C207.281 301.449 203.547 302.226 199.896 302.226V302.231ZM198.327 266.338C195.491 266.338 191.107 267.015 188.31 269.642C184.764 272.968 179.29 279.885 182.473 288.85C184.207 293.751 187.385 297.192 191.906 299.076C197.236 301.301 204.274 301.042 209.836 298.421C217.903 294.621 222.678 268.199 217.567 255.589L217.022 254.366C216.934 254.168 216.929 253.942 217.006 253.739C218.399 250.06 217.837 245.567 215.337 240.39C213.344 236.26 209.07 233.562 204.45 233.512C204.307 233.512 204.169 233.512 204.032 233.512C196.113 233.512 193.613 235.814 191.785 237.505C190.347 238.826 188.993 240.076 185.964 239.465C174.857 237.213 173.662 241.998 172.395 247.064C170.193 255.87 176.355 258.854 179.103 259.73C179.449 259.84 179.796 259.95 180.138 260.055C184.081 261.283 187.82 262.445 189.609 266.707C194.109 264.257 199.858 264.499 201.421 265.05C201.851 265.198 202.077 265.672 201.928 266.101C201.779 266.531 201.306 266.757 200.876 266.608C200.463 266.465 199.538 266.344 198.343 266.344L198.327 266.338Z" fill="black"/>
<path d="M176.861 256.599C176.454 256.599 176.096 256.296 176.041 255.878C175.98 255.426 176.299 255.013 176.751 254.953C176.751 254.953 177.164 254.897 177.764 254.732C178.871 254.424 180.898 253.664 182.015 252.012C183.26 250.173 183.541 247.348 182.682 245.288C182.236 244.214 181.266 242.854 179.207 242.474C178.761 242.392 178.464 241.957 178.546 241.511C178.629 241.064 179.064 240.767 179.51 240.85C181.685 241.257 183.354 242.606 184.207 244.655C185.281 247.227 184.945 250.635 183.387 252.937C181.971 255.03 179.532 255.96 178.205 256.324C177.483 256.522 176.988 256.588 176.966 256.594C176.927 256.594 176.894 256.599 176.856 256.599H176.861Z" fill="black"/>
<path d="M181.492 241.56C181.492 241.56 181.073 241.318 180.556 241.108C179.95 240.866 179.184 240.673 178.424 240.982C177.967 241.169 176.822 241.455 176.585 240.525C176.398 239.792 177.251 239.484 177.251 239.484C177.251 239.484 177.626 238.548 177.373 238.261C177.119 237.975 176.679 237.947 176.392 238.201L169.156 244.583C168.991 244.726 168.903 244.941 168.925 245.161C168.942 245.382 169.063 245.58 169.25 245.695L177.78 250.971C177.89 251.043 178.017 251.076 178.144 251.076C178.298 251.076 178.452 251.026 178.579 250.921C178.738 250.795 182.488 247.766 182.665 244.666C182.725 243.553 181.486 241.554 181.486 241.554L181.492 241.56Z" fill="black"/>
<path d="M171.481 249.77C171.162 249.831 170.605 250.073 170.402 250.992C169.664 254.374 174.427 258.895 174.972 259.401C175.104 259.522 175.275 259.589 175.446 259.589C175.6 259.589 175.754 259.539 175.886 259.434C176.156 259.214 176.222 258.834 176.046 258.537C175.831 258.184 176.652 257.138 176.652 257.138C176.652 257.138 176.355 257.116 176.481 256.813C176.547 256.648 177.01 256.598 177.28 256.554C177.428 256.527 177.946 256.395 177.946 256.395C177.946 256.395 173.249 249.429 171.481 249.77Z" fill="black"/>
<path d="M67.0512 289.07C66.4454 288.111 51.9296 265.534 31.6371 260.693C29.875 260.275 27.43 259.878 26.5489 261.304C25.789 262.527 26.5709 264.454 28.9994 267.367C30.8332 269.565 33.0248 271.591 35.5084 273.381C48.7081 282.913 65.8562 290.198 66.0324 290.27C66.137 290.314 66.2472 290.336 66.3518 290.336C66.5886 290.336 66.8199 290.232 66.9796 290.044C67.2109 289.769 67.2384 289.372 67.0457 289.07H67.0512Z" fill="black"/>
<path d="M183.359 247.796C183.134 245.12 180.683 243.583 176.63 243.578C160.291 243.567 155.941 237.3 153.606 233.935C152.984 233.038 152.444 232.256 152.042 232.217C151.288 232.146 150.462 232.003 149.586 231.854C148.38 231.65 146.921 231.402 145.737 231.402C144.812 231.402 144.052 231.557 143.722 231.997C143.408 232.416 143.127 233.605 144.751 236.909C146.547 240.571 150.847 245.984 156.029 249.211C164.383 254.415 176.685 253.677 179.527 253.193C181.74 252.818 183.569 250.235 183.359 247.785V247.796Z" fill="#FF9000"/>
<path d="M185.006 247.658C184.89 246.314 183.954 241.931 176.63 241.925C161.156 241.914 157.125 236.11 154.966 232.993C154.074 231.704 153.364 230.686 152.207 230.576C151.514 230.509 150.715 230.372 149.867 230.229C146.866 229.722 143.765 229.193 142.405 231.016C141.425 232.332 141.7 234.436 143.275 237.646C145.175 241.512 149.702 247.222 155.164 250.626C161.249 254.42 168.865 255.18 174.003 255.18C177.423 255.18 179.752 254.844 179.807 254.833C182.913 254.304 185.292 251.017 185.011 247.658H185.006ZM156.029 249.221C150.847 245.989 146.552 240.576 144.751 236.919C143.132 233.621 143.413 232.426 143.721 232.007C144.052 231.561 144.812 231.413 145.737 231.413C146.921 231.413 148.375 231.66 149.586 231.864C150.462 232.013 151.293 232.156 152.042 232.228C152.439 232.266 152.978 233.043 153.606 233.946C155.941 237.31 160.291 243.572 176.63 243.588C180.683 243.588 183.133 245.13 183.359 247.806C183.568 250.262 181.74 252.839 179.526 253.214C176.69 253.693 164.383 254.436 156.029 249.232V249.221Z" fill="black"/>
<path d="M110.752 228.147C110.626 228.13 110.494 228.125 110.361 228.125C108.054 228.125 105.51 230.284 103.473 234.001C100.102 240.157 95.697 247.817 91.5504 252.443C90.2948 253.842 89.8378 255.763 90.3224 257.575C90.807 259.387 92.1671 260.819 93.9513 261.402L95.2234 261.815C97.9602 262.707 100.884 261.386 102.019 258.737C102.894 256.7 104.8 253.853 107.002 250.56C111.435 243.935 117.509 234.86 115.549 230.664C114.888 229.248 113.319 228.422 110.747 228.142L110.752 228.147Z" fill="#FF9000"/>
<path d="M117.052 229.971C116.138 228.016 114.078 226.849 110.928 226.507C107.839 226.166 104.507 228.677 102.024 233.209C98.6922 239.289 94.3528 246.844 90.3164 251.343C88.6864 253.16 88.0916 255.649 88.7249 258.012C89.3582 260.368 91.1203 262.224 93.4387 262.979L94.7108 263.392C95.4597 263.634 96.2196 263.75 96.963 263.75C99.7605 263.75 102.376 262.109 103.538 259.394C104.353 257.494 106.22 254.708 108.379 251.481C113.544 243.76 119.403 235.004 117.052 229.966V229.971ZM107.007 250.566C104.805 253.86 102.899 256.706 102.024 258.744C100.889 261.387 97.9653 262.709 95.2284 261.822L93.9563 261.409C92.1721 260.826 90.812 259.399 90.3274 257.582C89.8428 255.765 90.2998 253.848 91.5554 252.45C95.7075 247.83 100.107 240.164 103.478 234.008C105.515 230.291 108.059 228.132 110.366 228.132C110.499 228.132 110.625 228.137 110.757 228.154C113.329 228.435 114.899 229.255 115.559 230.676C117.52 234.872 111.446 243.947 107.013 250.572L107.007 250.566Z" fill="black"/>
<path d="M72.8384 257.634C77.4421 256.268 80.6195 249.88 80.6195 249.88C84.254 248.471 89.948 251.114 89.948 251.114C89.948 251.114 95.3226 248.718 98.9956 252.562C103.566 257.348 105.857 261.836 104.8 264.011C102.426 268.89 100.961 274.358 99.4031 278.818C96.9085 285.944 94.6287 289.469 91.6495 294.138C91.6495 294.138 73.1578 288.593 68.9066 286.363C53.7575 278.427 43.0248 269.303 31.4551 257.469C31.4551 257.469 45.5854 230.563 66.9187 248.597C73.4276 254.099 75.1182 263.713 74.2702 272.194" fill="#FFCB6E"/>
<path d="M91.644 294.969C91.5669 294.969 91.4843 294.958 91.4072 294.936C90.6473 294.71 72.7889 289.341 68.5211 287.1C52.7663 278.851 42.0721 269.522 30.8603 258.052C30.607 257.793 30.552 257.407 30.7172 257.088C30.998 256.559 37.6667 244.081 48.9611 241.878C55.0406 240.689 61.2577 242.743 67.4418 247.969C70.3108 250.392 72.1666 253.426 73.3506 256.565C77.1557 254.891 79.8485 249.566 79.8761 249.511C79.9697 249.329 80.1239 249.186 80.3166 249.109C83.7528 247.776 88.6373 249.654 89.959 250.216C91.2971 249.72 96.0825 248.316 99.5848 251.989C104.552 257.187 106.777 261.818 105.532 264.374C103.847 267.843 102.641 271.554 101.485 275.139C101.033 276.527 100.609 277.838 100.174 279.088C97.6795 286.197 95.3831 289.804 92.47 294.374L92.3379 294.578C92.1837 294.82 91.9194 294.958 91.644 294.958V294.969ZM32.4738 257.336C43.4213 268.493 53.9282 277.59 69.2866 285.635C72.9926 287.579 88.0867 292.199 91.2861 293.168C94.045 288.84 96.2477 285.305 98.6211 278.548C99.0561 277.314 99.4747 276.015 99.9207 274.633C101.044 271.158 102.322 267.221 104.056 263.652C104.767 262.187 103.302 258.267 98.4008 253.134C95.1849 249.764 90.4821 251.785 90.2839 251.873C90.0691 251.967 89.8158 251.967 89.601 251.868C89.5515 251.846 84.4797 249.527 81.2032 250.557C80.5314 251.813 77.8055 256.488 73.8902 258.14C75.5918 263.691 75.3826 269.313 75.0852 272.287C75.0411 272.738 74.6336 273.069 74.1821 273.025C73.7305 272.981 73.3946 272.573 73.4442 272.122C73.736 269.181 73.9453 263.514 72.1391 258.079C72.1005 258.019 72.073 257.953 72.0455 257.876C72.0289 257.826 72.0234 257.771 72.0179 257.721C70.9331 254.61 69.1764 251.598 66.379 249.235C60.5969 244.345 54.8478 242.418 49.286 243.503C40.0181 245.304 33.8505 254.984 32.4738 257.341V257.336Z" fill="black"/>
<path d="M31.4494 258.054C29.8469 257.834 28.2169 258.566 27.4845 260.004C27.2807 260.406 27.1596 260.83 27.1706 261.27C27.2147 262.586 39.1093 265.307 46.4388 271.447C51.4775 275.67 66.3182 289.09 68.1795 290.825C72.7171 295.054 88.7968 299.878 90.9445 298.727C92.2441 298.028 92.0734 296.827 92.2055 296.007C92.4368 294.581 91.5502 293.204 90.157 292.807C85.5368 291.486 74.1323 289.024 70.2115 286.976C66.8358 285.208 62.5075 276.54 51.8299 268.258C46.7086 264.288 40.4695 259.293 31.4439 258.054H31.4494Z" fill="#FF8036"/>
<path d="M89.9314 299.691C85.1075 299.691 71.6875 295.231 67.6125 291.431C65.8283 289.768 50.9655 276.321 45.9048 272.08C41.5269 268.413 35.3814 265.951 31.3174 264.327C27.7215 262.89 26.3778 262.35 26.3393 261.298C26.3227 260.748 26.4549 260.186 26.7413 259.624C27.6113 257.917 29.5442 256.959 31.5542 257.229C40.5743 258.473 46.885 263.369 51.9567 267.306L52.3367 267.598C58.6805 272.521 62.7996 277.565 65.8063 281.244C67.7887 283.672 69.3526 285.589 70.5971 286.238C73.3285 287.67 80.1844 289.394 85.1846 290.655C87.2716 291.183 89.0779 291.635 90.383 292.009C92.1837 292.527 93.3126 294.3 93.0152 296.134C92.9932 296.266 92.9822 296.404 92.9711 296.553C92.8996 297.346 92.7839 298.667 91.3301 299.449C91.0328 299.609 90.5537 299.686 89.9259 299.686L89.9314 299.691ZM28.0023 261.045C28.5199 261.425 30.3262 262.152 31.9341 262.796C36.0973 264.465 42.386 266.981 46.9676 270.819C52.0449 275.071 66.9517 288.557 68.7414 290.225C73.2018 294.388 88.8961 298.821 90.5537 298.001C91.1925 297.659 91.264 297.197 91.3301 296.415C91.3466 296.228 91.3632 296.046 91.3907 295.875C91.5559 294.862 90.9281 293.887 89.9314 293.601C88.6483 293.232 86.8586 292.78 84.7826 292.257C79.419 290.908 72.7393 289.223 69.8317 287.703C68.2898 286.894 66.7094 284.966 64.5287 282.29C61.5716 278.672 57.5241 273.71 51.329 268.903L50.949 268.611C46.037 264.795 39.919 260.048 31.3339 258.864C30.0233 258.683 28.7678 259.288 28.2171 260.373C28.1014 260.604 28.0298 260.83 28.0023 261.039V261.045Z" fill="black"/>
<path d="M215.012 255.008C214.714 257.31 219.087 263.538 217.308 276.11C215.601 288.181 210.507 298.126 202.192 301.303C202.192 301.303 205.155 304.425 211.317 298.979C214.329 296.32 218.602 290.763 220.502 280.658C221.868 273.395 221.256 264.986 218.712 256.528C218.481 255.751 218.382 254.942 218.459 254.138C218.85 250.008 219.356 235.899 208.872 231.45C205.914 230.194 199.785 232.127 198.761 233.107C198.337 233.515 203.871 231.097 209.604 236.505C216.157 242.689 215.403 251.979 215.012 255.008Z" fill="#FF8036"/>
<path d="M204.764 303.026C202.732 303.026 201.669 301.952 201.592 301.869C201.399 301.671 201.322 301.385 201.383 301.115C201.444 300.845 201.636 300.625 201.895 300.526C209.368 297.673 214.687 288.73 216.488 275.988C217.711 267.331 215.959 261.736 214.908 258.394C214.406 256.808 214.082 255.756 214.192 254.891C214.748 250.585 214.814 242.545 209.037 237.093C206.141 234.356 202.842 233.288 199.241 233.91C198.861 233.977 198.288 234.076 197.996 233.503C197.831 233.178 197.925 232.743 198.189 232.495C199.472 231.273 205.965 229.307 209.192 230.678C220.167 235.337 219.687 249.864 219.274 254.203C219.208 254.875 219.285 255.574 219.495 256.279C222.077 264.88 222.705 273.355 221.306 280.801C219.258 291.698 214.506 297.249 211.857 299.59C208.823 302.271 206.455 303.015 204.759 303.015L204.764 303.026ZM204.153 301.33C205.414 301.534 207.584 301.176 210.766 298.362C213.256 296.159 217.727 290.916 219.687 280.509C221.037 273.328 220.425 265.117 217.92 256.769C217.644 255.86 217.551 254.946 217.633 254.06C218.013 250.001 218.487 236.433 208.547 232.214C207.237 231.658 205.111 231.84 203.222 232.264C205.717 232.682 208.041 233.899 210.172 235.909C216.482 241.862 216.427 250.502 215.833 255.117C215.767 255.618 216.103 256.681 216.488 257.914C217.578 261.389 219.407 267.204 218.129 276.23C216.372 288.642 211.328 297.657 204.158 301.335L204.153 301.33Z" fill="black"/>
<path d="M121.479 227.828C119.821 224.843 109.865 226.947 106.853 227.663C106.44 227.762 106.165 228.158 106.225 228.582C106.286 229.006 106.655 229.309 107.079 229.293C109.959 229.155 112.035 229.86 113.257 231.358C115.295 233.852 114.452 237.894 114.353 238.329C114.353 238.351 114.342 238.368 114.337 238.39C114.237 238.83 114.513 239.265 114.953 239.37C115.019 239.387 115.08 239.392 115.146 239.392C115.515 239.392 115.851 239.144 115.945 238.77C115.945 238.759 115.956 238.737 115.961 238.704C116.148 238.01 117.305 236.336 118.329 234.855C120.752 231.352 122.2 229.144 121.473 227.833L121.479 227.828Z" fill="black"/>
<path d="M155.875 234.315C155.831 234.205 154.724 231.567 151.678 230.344C149.129 229.315 146.04 229.59 142.504 231.159C142.196 231.297 142.003 231.605 142.014 231.941C142.069 233.808 142.488 235.625 143.248 237.333L143.952 238.907C144.085 239.205 144.382 239.398 144.707 239.398C144.718 239.398 144.729 239.398 144.74 239.398C145.076 239.387 145.373 239.166 145.489 238.852C145.5 238.825 146.552 235.994 150.461 234.717C151.838 234.265 154.041 235.042 154.768 235.383C155.076 235.526 155.44 235.466 155.687 235.229C155.935 234.992 156.012 234.634 155.88 234.32L155.875 234.315Z" fill="black"/>
<path d="M198.74 241.974C198.515 241.974 198.294 241.88 198.129 241.704C196.004 239.369 193.426 238.262 190.469 238.433C190.012 238.444 189.621 238.108 189.599 237.656C189.572 237.199 189.924 236.808 190.376 236.786C193.801 236.604 196.912 237.91 199.352 240.591C199.66 240.927 199.633 241.45 199.297 241.759C199.137 241.902 198.939 241.974 198.74 241.974Z" fill="black"/>
<path d="M199.385 259.329C197.678 259.329 196.003 258.52 194.159 257.633C192.743 256.951 191.141 256.18 189.313 255.678C185.469 254.627 183.332 253.355 182.787 251.78C182.699 251.526 182.6 251.279 182.666 251.08C182.809 250.662 184.329 250.877 184.329 250.877L184.351 250.844C184.351 250.844 184.263 251.025 184.368 251.284C184.555 251.736 185.452 252.914 189.748 254.087C191.725 254.627 193.399 255.436 194.875 256.147C197.364 257.347 199.159 258.212 201.026 257.281C201.461 257.066 201.83 256.493 202.066 255.678C202.821 253.09 202.276 248.101 199.781 243.949C199.544 243.558 199.671 243.051 200.062 242.815C200.453 242.578 200.96 242.705 201.196 243.096C203.597 247.093 204.655 252.699 203.652 256.141C203.278 257.424 202.623 258.333 201.764 258.762C200.949 259.17 200.161 259.335 199.385 259.335V259.329Z" fill="black"/>
<path d="M189.021 266.02L187.419 265.623C187.419 265.623 187.407 265.645 187.407 265.689C187.407 265.678 187.474 264.335 184.307 261.763C180.634 258.784 175.777 258.663 174.946 258.751C174.918 258.762 174.891 258.778 174.858 258.789C174.434 258.949 173.954 258.729 173.795 258.299C173.668 257.952 173.795 257.534 174.103 257.319C174.918 256.735 181.13 257.06 185.342 260.486C189.34 263.729 189.104 265.667 189.015 266.025L189.021 266.02Z" fill="black"/>
<path d="M181.658 259.355C181.388 259.355 181.14 259.338 180.92 259.305C180.468 259.244 180.22 258.831 180.215 258.374C180.215 258.165 180.507 257.934 180.507 257.934C180.507 257.934 180.87 257.978 181.201 257.967C182.775 257.934 185.468 256.744 186.184 254.145C186.305 253.705 186.762 253.44 187.197 253.567C187.638 253.688 187.897 254.14 187.776 254.58C186.729 258.391 183.646 259.355 181.658 259.355Z" fill="black"/>
<path d="M96.7594 286.119C96.4345 286.119 96.1261 285.926 95.994 285.612C95.1129 283.492 92.2108 281.851 89.1435 280.116C82.8438 276.548 75.0022 272.109 80.575 260.765C86.4673 248.772 92.9542 249.543 93.224 249.581C93.6756 249.647 93.9895 250.066 93.9234 250.517C93.8573 250.969 93.4443 251.283 92.9983 251.222C92.8881 251.211 87.3373 250.743 82.0563 261.498C77.1718 271.443 83.6698 275.121 89.9585 278.679C93.2791 280.557 96.418 282.335 97.5193 284.979C97.6955 285.397 97.4973 285.882 97.0733 286.058C96.9687 286.102 96.864 286.124 96.7539 286.124L96.7594 286.119Z" fill="black"/>
<path d="M84.5722 256.598C84.2914 256.598 84.0216 256.455 83.8619 256.202C82.8982 254.605 81.8354 253.663 80.7781 253.47C79.7428 253.283 79.0049 253.856 78.9774 253.878C78.6249 254.159 78.1018 254.104 77.8209 253.751C77.5346 253.399 77.5842 252.887 77.9311 252.6C77.9861 252.556 79.2472 251.526 81.0314 251.835C82.6063 252.105 84.0326 253.283 85.2771 255.343C85.5139 255.734 85.3872 256.24 84.9963 256.477C84.8641 256.56 84.7154 256.598 84.5722 256.598Z" fill="black"/>
<path d="M82.018 259.611C81.7207 259.611 81.4343 259.451 81.2856 259.165C79.9805 256.659 78.8461 255.987 78.1247 255.866C77.3428 255.734 76.8086 256.224 76.7866 256.241C76.4562 256.549 75.9331 256.538 75.6247 256.213C75.3108 255.888 75.3108 255.376 75.6357 255.057C76.0432 254.655 77.0785 254.027 78.356 254.225C79.9585 254.473 81.4343 255.877 82.7504 258.394C82.9597 258.796 82.8055 259.297 82.398 259.506C82.2769 259.572 82.1447 259.6 82.018 259.6V259.611Z" fill="black"/>
<path d="M79.8257 264.298C79.4898 264.298 79.1704 264.089 79.0492 263.753C78.0415 260.994 76.7199 259.193 75.2275 258.538C74.0711 258.031 73.1956 258.378 73.157 258.395C72.7385 258.571 72.2539 258.373 72.0777 257.96C71.9015 257.547 72.0777 257.068 72.4962 256.88C72.5568 256.853 74.005 256.225 75.8278 256.996C77.7992 257.827 79.4017 259.915 80.6021 263.186C80.7563 263.615 80.5361 264.089 80.112 264.243C80.0184 264.276 79.9248 264.292 79.8312 264.292L79.8257 264.298Z" fill="black"/>
<path d="M91.8141 255.536C91.5773 255.536 91.3405 255.437 91.1808 255.239C90.8889 254.886 90.933 254.369 91.2854 254.077C92.0839 253.411 92.618 253.036 92.6401 253.02C93.0145 252.755 93.5267 252.843 93.791 253.218C94.0553 253.592 93.9672 254.104 93.5928 254.369C93.5928 254.369 93.0861 254.727 92.3482 255.343C92.194 255.47 92.0068 255.536 91.8196 255.536H91.8141Z" fill="black"/>
<path d="M89.9377 274.382C89.822 274.382 89.7064 274.36 89.5962 274.31C88.5059 273.815 87.3825 273.303 86.4519 272.62C86.0829 272.35 86.0058 271.832 86.2701 271.463C86.5345 271.094 87.0576 271.017 87.4266 271.282C88.2195 271.86 89.2218 272.317 90.2791 272.801C90.6921 272.989 90.8793 273.479 90.6866 273.897C90.5489 274.2 90.246 274.382 89.9321 274.382H89.9377ZM84.6897 268.985C84.2877 268.985 83.9408 268.693 83.8747 268.286C83.7976 267.779 83.7536 267.218 83.748 266.623V266.551C83.748 265.912 83.8141 265.257 83.9518 264.602C84.0454 264.156 84.4804 263.869 84.9265 263.958C85.3725 264.051 85.6589 264.486 85.5708 264.932C85.4606 265.477 85.4001 266.023 85.4001 266.546V266.612C85.4001 267.118 85.4386 267.597 85.5102 268.027C85.5818 268.479 85.2734 268.897 84.8219 268.969C84.7778 268.974 84.7338 268.98 84.6952 268.98L84.6897 268.985ZM86.5124 261.43C86.3638 261.43 86.2096 261.391 86.0774 261.303C85.6919 261.061 85.5708 260.554 85.8131 260.163C86.4023 259.227 87.1127 258.275 87.9387 257.333C88.2416 256.991 88.7592 256.953 89.1061 257.256C89.4531 257.559 89.4861 258.076 89.1832 258.423C88.4178 259.299 87.757 260.18 87.2173 261.039C87.0631 261.287 86.7933 261.424 86.5179 261.424L86.5124 261.43Z" fill="black"/>
<path d="M95.323 277.466C95.1412 277.466 94.9595 277.405 94.8053 277.284C94.3978 276.959 93.9793 276.656 93.5278 276.359C93.1478 276.111 93.0377 275.599 93.291 275.213C93.5443 274.833 94.0564 274.723 94.4364 274.977C94.932 275.301 95.389 275.632 95.8406 275.99C96.1985 276.276 96.2536 276.794 95.9728 277.152C95.8076 277.355 95.5708 277.46 95.3285 277.46L95.323 277.466Z" fill="black"/>
<path d="M189.9 267.485C189.9 267.485 195.853 265.508 200.484 268.741L189.9 267.485Z" fill="#FFCB6E"/>
<path d="M200.486 269.563C200.32 269.563 200.155 269.513 200.012 269.414C195.766 266.452 190.215 268.247 190.16 268.263C189.725 268.406 189.257 268.17 189.114 267.74C188.971 267.305 189.208 266.843 189.637 266.694C189.896 266.606 196.036 264.629 200.954 268.054C201.328 268.313 201.422 268.831 201.157 269.205C200.998 269.436 200.739 269.557 200.48 269.557L200.486 269.563Z" fill="black"/>
<path d="M186.092 261.657C184.781 261.657 183.773 261.277 183.707 261.249C183.283 261.084 183.068 260.605 183.234 260.181C183.399 259.757 183.872 259.542 184.302 259.707C184.34 259.724 186.416 260.478 188.107 259.498C189.296 258.81 190.073 257.394 190.409 255.296C190.48 254.845 190.904 254.536 191.356 254.613C191.808 254.685 192.116 255.109 192.039 255.561C191.62 258.182 190.569 259.988 188.922 260.935C187.969 261.486 186.962 261.651 186.092 261.651V261.657Z" fill="black"/>
<path d="M190.039 263.985C187.897 263.985 185.992 263.164 185.876 263.115C185.458 262.933 185.27 262.443 185.452 262.024C185.634 261.606 186.124 261.419 186.537 261.6C186.576 261.617 190.166 263.159 192.424 261.738C193.63 260.978 194.285 259.447 194.368 257.184C194.384 256.727 194.764 256.38 195.227 256.391C195.684 256.407 196.036 256.793 196.02 257.25C195.915 260.097 194.995 262.074 193.294 263.142C192.281 263.775 191.13 263.99 190.039 263.99V263.985Z" fill="black"/>
<path d="M196.052 253.971C195.468 253.971 194.785 253.889 194.02 253.723C193.574 253.63 193.287 253.189 193.387 252.743C193.48 252.297 193.926 252.016 194.367 252.11C195.017 252.248 195.584 252.319 196.052 252.319C196.597 252.319 196.9 252.22 197.054 252.137C197.456 251.923 197.957 252.077 198.172 252.479C198.387 252.881 198.233 253.382 197.831 253.597C197.357 253.845 196.779 253.966 196.057 253.966L196.052 253.971ZM190 252.385C189.895 252.385 189.791 252.363 189.692 252.325C187.957 251.625 186.657 250.97 186.602 250.942C186.195 250.739 186.035 250.238 186.239 249.836C186.443 249.428 186.944 249.268 187.351 249.472C187.362 249.478 188.645 250.127 190.308 250.799C190.732 250.97 190.936 251.449 190.765 251.873C190.633 252.193 190.325 252.391 190 252.391V252.385ZM198.524 249.72C198.15 249.72 197.808 249.461 197.72 249.081C197.517 248.206 197.098 247.291 196.481 246.361C196.228 245.981 196.333 245.469 196.713 245.215C197.093 244.962 197.605 245.067 197.858 245.447C198.585 246.543 199.081 247.638 199.334 248.707C199.439 249.153 199.163 249.593 198.717 249.698C198.657 249.714 198.59 249.72 198.53 249.72H198.524ZM194.224 243.464C194.031 243.464 193.838 243.398 193.684 243.261L193.486 243.09C193.139 242.792 193.095 242.275 193.392 241.928C193.689 241.581 194.207 241.537 194.554 241.834L194.763 242.016C195.105 242.313 195.143 242.836 194.846 243.183C194.681 243.371 194.455 243.464 194.224 243.464Z" fill="black"/>
<path d="M112.74 124.707C112.267 124.624 111.788 124.586 111.309 124.586C109.238 124.586 107.134 125.329 105.152 126.772C100.758 129.977 97.5141 136.117 96.4843 143.204C94.8213 154.658 99.4249 164.978 106.749 166.212C110.235 166.801 113.715 165.865 116.551 163.574C120.235 160.6 122.416 155.611 122.697 149.521C122.801 132.675 120.103 125.946 112.74 124.707Z" fill="white"/>
<path d="M113.015 123.077C110.041 122.576 106.985 123.391 104.177 125.44C99.4298 128.898 95.9385 135.451 94.8482 142.968C93.0585 155.303 98.2679 166.46 106.467 167.842C107.216 167.968 107.965 168.029 108.72 168.029C111.886 168.029 115.025 166.922 117.58 164.863C121.639 161.586 124.04 156.162 124.342 149.581C124.342 149.57 124.342 149.559 124.342 149.548C124.453 131.894 121.275 124.47 113.01 123.077H113.015ZM122.696 149.521C122.415 155.611 120.229 160.606 116.55 163.574C113.714 165.865 110.234 166.801 106.748 166.212C99.4243 164.978 94.8207 154.653 96.4837 143.204C97.5135 136.117 100.751 129.977 105.151 126.772C107.134 125.33 109.237 124.586 111.308 124.586C111.787 124.586 112.266 124.625 112.74 124.707C120.102 125.946 122.801 132.676 122.696 149.521Z" fill="black"/>
<path d="M142.053 123.082C141.557 122.999 141.056 122.961 140.55 122.961C138.33 122.961 136.078 123.754 133.963 125.296C129.475 128.567 126.166 134.74 125.109 141.811C123.379 153.397 128.176 163.843 135.803 165.099C139.459 165.699 143.248 164.68 146.189 162.296C149.922 159.273 152.136 154.272 152.422 148.204C152.532 131.155 149.718 124.349 142.047 123.093L142.053 123.082Z" fill="white"/>
<path d="M142.323 121.452C139.178 120.94 135.957 121.804 133 123.958C128.159 127.487 124.602 134.068 123.484 141.563C121.623 154.041 127.03 165.324 135.544 166.723C136.32 166.85 137.102 166.916 137.879 166.916C141.238 166.916 144.547 165.748 147.235 163.573C151.343 160.247 153.771 154.812 154.079 148.259C154.079 148.248 154.079 148.237 154.079 148.226C154.195 130.368 150.897 122.862 142.323 121.452ZM152.427 148.198C152.141 154.267 149.927 159.273 146.194 162.29C143.253 164.675 139.465 165.693 135.808 165.093C128.181 163.843 123.385 153.397 125.114 141.805C126.171 134.74 129.481 128.567 133.969 125.29C136.083 123.748 138.33 122.955 140.555 122.955C141.056 122.955 141.557 122.994 142.058 123.077C149.729 124.338 152.543 131.144 152.433 148.187L152.427 148.198Z" fill="black"/>
<path d="M112.003 141.25C110.923 134.02 108.247 129.812 104.657 129.719C104.613 129.719 104.574 129.719 104.536 129.719C100.664 129.719 97.0684 134.636 95.5541 142.015C94.4802 147.252 96.6169 154.246 100.125 156.988C101.232 157.853 102.426 158.288 103.649 158.288C104.492 158.288 105.351 158.084 106.21 157.671C111.882 154.951 112.922 147.406 112.003 141.25Z" fill="black"/>
<path d="M141.244 139.83C140.126 132.528 137.356 128.277 133.65 128.172C133.606 128.172 133.562 128.172 133.518 128.172C129.515 128.172 125.787 133.139 124.217 140.601C123.474 144.13 124.19 148.663 126.046 152.137C127.753 155.342 130.093 157.049 132.604 157.049C133.469 157.049 134.355 156.846 135.242 156.433C141.14 153.685 142.169 145.766 141.255 139.824L141.244 139.83Z" fill="black"/>
<path d="M138.495 193.418C143.847 192.724 149.09 190.07 153.247 185.94C157.064 182.151 159.387 177.217 159.74 172.25C155.858 171.055 150.202 171.716 142.663 177.002C135.323 182.151 133.748 189.051 135.003 193.655C136.116 193.655 137.278 193.577 138.5 193.423L138.495 193.418Z" fill="#D04A00"/>
<path d="M159.917 165.399C158.678 163.758 156.613 162.75 154.239 162.635C151.706 162.519 149.294 163.428 147.78 165.085C140.015 173.577 136.309 173.522 131.634 173.445C129.729 173.417 127.575 173.379 124.976 173.913C119.15 175.102 115.868 178.951 116.628 183.715C117.305 187.977 123.5 195.306 134.977 195.306C136.16 195.306 137.405 195.229 138.705 195.059C144.415 194.321 149.993 191.496 154.41 187.112C158.843 182.713 161.403 176.864 161.437 171.066C161.448 168.632 160.952 166.776 159.911 165.399H159.917ZM142.658 177.002C150.197 171.715 155.853 171.055 159.735 172.25C159.388 177.217 157.064 182.145 153.242 185.939C149.079 190.07 143.842 192.729 138.49 193.418C137.273 193.577 136.105 193.649 134.993 193.649C133.737 189.045 135.312 182.145 142.653 176.996L142.658 177.002Z" fill="black"/>
<path d="M85.593 156.015L85.584 158.355L87.9243 158.364L87.9333 156.024L85.593 156.015Z" fill="#F7F7F7"/>
<path d="M127.671 156.175L127.662 158.516L130.002 158.525L130.011 156.184L127.671 156.175Z" fill="#F7F7F7"/>
<path d="M132.349 156.191L132.34 158.531L134.68 158.54L134.689 156.2L132.349 156.191Z" fill="#F7F7F7"/>
<path d="M87.9191 158.367L87.9102 160.707L90.2505 160.716L90.2595 158.376L87.9191 158.367Z" fill="#F7F7F7"/>
<path d="M85.5871 158.355L85.5781 160.695L87.9185 160.704L87.9275 158.364L85.5871 158.355Z" fill="black"/>
<path d="M129.999 158.527L129.99 160.867L132.331 160.876L132.34 158.536L129.999 158.527Z" fill="#F7F7F7"/>
<path d="M132.343 158.539L132.334 160.879L134.674 160.888L134.683 158.548L132.343 158.539Z" fill="black"/>
<path d="M134.681 158.542L134.672 160.883L137.012 160.892L137.021 158.551L134.681 158.542Z" fill="#F7F7F7"/>
<path d="M90.2473 160.71L90.2383 163.051L92.5786 163.06L92.5876 160.719L90.2473 160.71Z" fill="#F7F7F7"/>
<path d="M87.9152 160.703L87.9062 163.043L90.2466 163.052L90.2556 160.712L87.9152 160.703Z" fill="black"/>
<path d="M85.5754 160.691L85.5664 163.031L87.9068 163.04L87.9158 160.7L85.5754 160.691Z" fill="#F7F7F7"/>
<path d="M132.316 160.851L132.307 163.191L134.647 163.2L134.656 160.86L132.316 160.851Z" fill="#F7F7F7"/>
<path d="M134.671 160.878L134.662 163.219L137.002 163.228L137.011 160.887L134.671 160.878Z" fill="black"/>
<path d="M137.009 160.886L137 163.227L139.34 163.236L139.349 160.895L137.009 160.886Z" fill="#F7F7F7"/>
<path d="M92.5852 163.058L92.5762 165.398L94.9165 165.407L94.9255 163.067L92.5852 163.058Z" fill="#F7F7F7"/>
<path d="M90.2414 163.046L90.2324 165.387L92.5728 165.396L92.5818 163.055L90.2414 163.046Z" fill="black"/>
<path d="M87.9035 163.042L87.8945 165.383L90.2349 165.392L90.2439 163.051L87.9035 163.042Z" fill="#F7F7F7"/>
<path d="M134.665 163.214L134.656 165.555L136.997 165.564L137.006 163.223L134.665 163.214Z" fill="#F7F7F7"/>
<path d="M136.997 163.226L136.988 165.566L139.329 165.575L139.338 163.235L136.997 163.226Z" fill="black"/>
<path d="M139.335 163.23L139.326 165.57L141.667 165.579L141.676 163.239L139.335 163.23Z" fill="#F7F7F7"/>
<path d="M90.2199 165.371L90.2109 167.711L92.5513 167.72L92.5603 165.38L90.2199 165.371Z" fill="#F7F7F7"/>
<path d="M94.9133 165.41L94.9043 167.75L97.2447 167.759L97.2536 165.419L94.9133 165.41Z" fill="#F7F7F7"/>
<path d="M136.991 165.562L136.982 167.902L139.323 167.911L139.332 165.571L136.991 165.562Z" fill="#F7F7F7"/>
<path d="M141.669 165.582L141.66 167.922L144.001 167.931L144.01 165.591L141.669 165.582Z" fill="#F7F7F7"/>
<path d="M83.2492 158.343L83.2402 160.684L85.5806 160.693L85.5896 158.352L83.2492 158.343Z" fill="#F7F7F7"/>
<path d="M80.9211 155.999L80.9121 158.34L83.2525 158.349L83.2615 156.008L80.9211 155.999Z" fill="#F7F7F7"/>
<path d="M80.8951 160.669L78.5547 160.658L78.5657 158.318L78.5767 155.978L78.5877 153.637L78.5987 151.297L80.9391 151.308L83.2795 151.319L85.6199 151.33L87.9602 151.341L90.3006 151.352L92.641 151.363L94.9814 151.374L97.3217 151.385L99.6621 151.396L102.003 151.407L104.343 151.418L106.683 151.429L109.024 151.44L111.364 151.451L113.704 151.462L116.045 151.473L118.385 151.484L120.726 151.495L123.066 151.506L125.406 151.517L127.747 151.528L130.087 151.539L132.427 151.55L134.768 151.561L137.108 151.572L139.449 151.583L141.789 151.594L144.129 151.605L146.47 151.616L148.81 151.627L151.15 151.638L153.491 151.649L155.831 151.66L158.172 151.671L160.512 151.682L162.852 151.693L165.193 151.704L167.533 151.715L169.873 151.726L172.214 151.737L174.554 151.748L176.895 151.759L179.235 151.77L179.224 154.111L181.564 154.122L181.553 156.462L183.894 156.473L183.883 158.814L186.223 158.825L186.212 161.165L183.872 161.154L181.531 161.143L181.542 158.803L179.202 158.792L179.213 156.451L176.872 156.44L176.884 154.1L174.543 154.089L172.203 154.078L169.862 154.067L167.522 154.056L165.182 154.045L165.171 156.385L165.16 158.725L165.149 161.066L162.808 161.055L162.797 163.395L160.457 163.384L160.446 165.725L158.105 165.714L158.094 168.054L155.754 168.043L155.743 170.383L153.403 170.372L151.062 170.361L148.722 170.35L146.382 170.339L144.041 170.328L141.701 170.317L139.36 170.306L137.02 170.295L134.68 170.284L134.691 167.944L132.35 167.933L132.361 165.592L130.021 165.581L130.032 163.241L127.692 163.23L127.703 160.89L125.362 160.879L125.373 158.538L125.384 156.198L125.395 153.858L123.055 153.847L120.714 153.835L118.374 153.824L118.363 156.165L118.352 158.505L118.341 160.846L116.001 160.835L115.99 163.175L113.649 163.164L113.638 165.504L111.298 165.493L111.287 167.834L108.947 167.823L108.936 170.163L106.595 170.152L104.255 170.141L101.914 170.13L99.574 170.119L97.2336 170.108L94.8933 170.097L92.5529 170.086L90.2125 170.075L87.8721 170.064L87.8832 167.724L85.5428 167.713L85.5538 165.372L83.2134 165.361L83.2244 163.021L80.8841 163.01L80.8951 160.669ZM127.659 158.511L129.999 158.522L129.988 160.862L132.328 160.873L132.317 163.214L134.658 163.225L134.647 165.565L136.987 165.576L136.976 167.916L139.316 167.927L139.327 165.587L141.668 165.598L141.657 167.938L143.997 167.949L144.008 165.609L141.668 165.598L141.679 163.258L139.338 163.247L139.349 160.906L137.009 160.895L137.02 158.555L134.68 158.544L134.691 156.203L132.35 156.192L132.339 158.533L129.999 158.522L130.01 156.181L127.67 156.17L127.659 158.511ZM85.5648 163.026L87.9052 163.037L87.8942 165.378L90.2345 165.389L90.2235 167.729L92.5639 167.74L92.5749 165.4L94.9153 165.411L94.9043 167.751L97.2447 167.762L97.2557 165.422L94.9153 165.411L94.9263 163.07L92.5859 163.059L92.5969 160.719L90.2566 160.708L90.2676 158.368L87.9272 158.357L87.9382 156.016L85.5978 156.005L85.5868 158.346L83.2465 158.335L83.2575 155.994L80.9171 155.983L80.9061 158.324L83.2465 158.335L83.2354 160.675L85.5758 160.686L85.5648 163.026Z" fill="black"/>
</g>
<defs>
<clipPath id="clip0_1087_29025">
<rect width="285.917" height="306" fill="white"/>
</clipPath>
</defs>
</svg>
