<svg width="120" height="83" viewBox="0 0 120 83" fill="none" xmlns="http://www.w3.org/2000/svg">
<g id="_&#229;&#175;&#131;&#226;&#145;&#184;&#226;&#148;&#129;_&#239;&#167;&#143;&#226;&#145;&#164;&#235;&#177;&#182;" clip-path="url(#clip0_1309_5368)">
<g id="Clip path group">
<mask id="mask0_1309_5368" style="mask-type:luminance" maskUnits="userSpaceOnUse" x="70" y="52" width="34" height="20">
<g id="clippath">
<path id="Vector" d="M72.2076 58.5887L92.9301 70.4969C95.0175 71.7008 98.678 71.5503 101.088 70.1558C103.508 68.7714 103.77 66.6646 101.673 65.4708L80.9504 53.5625C78.863 52.3587 75.2025 52.5092 72.7924 53.9036C70.3723 55.2881 70.1101 57.3948 72.2076 58.5887Z" fill="white"/>
</g>
</mask>
<g mask="url(#mask0_1309_5368)">
<g id="Group">
<path id="Vector_2" d="M93.2505 46.2689L56.623 67.3242L56.9308 67.8541L93.5582 46.7988L93.2505 46.2689Z" fill="#150035"/>
<path id="Vector_3" d="M94.9261 47.162L58.2949 68.2109L58.6026 68.7409L95.2337 47.6919L94.9261 47.162Z" fill="#150035"/>
<path id="Vector_4" d="M96.4456 48.1151L59.8145 69.1641L60.1221 69.694L96.7532 48.645L96.4456 48.1151Z" fill="#150035"/>
<path id="Vector_5" d="M98.1485 48.9965L61.5137 70.0391L61.8212 70.569L98.456 49.5265L98.1485 48.9965Z" fill="#150035"/>
<path id="Vector_6" d="M99.5625 49.977L62.9277 71.0195L63.2353 71.5495L99.8701 50.5069L99.5625 49.977Z" fill="#150035"/>
<path id="Vector_7" d="M101.234 50.8637L64.5996 71.9062L64.9072 72.4362L101.542 51.3936L101.234 50.8637Z" fill="#150035"/>
<path id="Vector_8" d="M102.76 51.8129L66.125 72.8555L66.4326 73.3854L103.067 52.3429L102.76 51.8129Z" fill="#150035"/>
<path id="Vector_9" d="M104.467 52.6581L67.8359 73.707L68.1436 74.237L104.775 53.188L104.467 52.6581Z" fill="#150035"/>
<path id="Vector_10" d="M105.983 53.6151L69.3516 74.6641L69.6592 75.194L106.29 54.145L105.983 53.6151Z" fill="#150035"/>
<path id="Vector_11" d="M107.691 54.516L71.0566 75.5586L71.3642 76.0886L107.999 55.046L107.691 54.516Z" fill="#150035"/>
<path id="Vector_12" d="M109.217 55.4691L72.582 76.5117L72.8896 77.0417L109.524 55.9991L109.217 55.4691Z" fill="#150035"/>
<path id="Vector_13" d="M110.922 56.3246L74.2871 77.3672L74.5947 77.8972L111.229 56.8546L110.922 56.3246Z" fill="#150035"/>
<path id="Vector_14" d="M112.336 57.309L75.7012 78.3516L76.0087 78.8815L112.644 57.839L112.336 57.309Z" fill="#150035"/>
<path id="Vector_15" d="M114.008 58.1776L77.377 79.2266L77.6846 79.7565L114.316 58.7075L114.008 58.1776Z" fill="#150035"/>
<path id="Vector_16" d="M115.533 59.1307L78.9023 80.1797L79.21 80.7096L115.841 59.6607L115.533 59.1307Z" fill="#150035"/>
<path id="Vector_17" d="M117.236 60.0238L80.6016 81.0664L80.9091 81.5964L117.544 60.5538L117.236 60.0238Z" fill="#150035"/>
<path id="Vector_18" d="M118.758 60.9652L82.123 82.0078L82.4306 82.5378L119.065 61.4952L118.758 60.9652Z" fill="#150035"/>
<path id="Vector_19" d="M86.7266 42.684L50.0918 63.7266L50.3994 64.2565L87.0342 43.214L86.7266 42.684Z" fill="#150035"/>
<path id="Vector_20" d="M88.4124 43.5643L51.7812 64.6133L52.0889 65.1432L88.72 44.0943L88.4124 43.5643Z" fill="#150035"/>
<path id="Vector_21" d="M89.9241 44.5097L53.293 65.5586L53.6006 66.0885L90.2318 45.0396L89.9241 44.5097Z" fill="#150035"/>
<path id="Vector_22" d="M91.6348 45.3949L55 66.4375L55.3076 66.9675L91.9424 45.9249L91.6348 45.3949Z" fill="#150035"/>
<path id="Vector_23" d="M93.1563 46.3363L56.5215 67.3789L56.829 67.9089L93.4639 46.8663L93.1563 46.3363Z" fill="#150035"/>
</g>
</g>
</g>
<path id="Vector_24" d="M95.23 12.6112L75.9898 1.55565C74.8906 0.923622 73.8923 0.843365 73.1562 1.21456L66.8739 5.06693C66.8436 5.08699 66.8335 5.11709 66.8436 5.14719C67.126 5.72906 69.7377 11.1665 69.9697 12.1697C70.0705 12.5911 70.8873 16.7444 71.8352 21.59C71.8352 21.59 71.8352 21.59 71.8352 21.6V24.0278C71.8352 25.3922 72.3293 26.897 73.1259 28.2213C73.1259 28.2213 73.1259 28.2313 73.1259 28.2414C74.1142 33.2876 74.9511 37.6014 74.9713 37.7118L83.8149 40.6713H84.4401C84.4401 40.6713 84.4805 40.6111 84.4704 40.581L83.9864 39.2166C83.9864 39.2166 83.9864 39.2166 83.9864 39.2066C83.8553 38.5545 83.7645 37.8221 83.7242 37.0898L92.0334 46.2793C92.0334 46.2793 92.0939 46.3094 92.1241 46.2893L98.1947 42.5573C98.1947 42.5573 98.2552 42.5172 98.2854 42.4971C99.0014 42.0457 99.4451 41.1428 99.4451 39.8587V19.8143C99.4451 17.1658 97.5594 13.9053 95.2502 12.5811L95.23 12.6112Z" fill="#FFDC5A"/>
<path id="Vector_25" d="M92.0722 46.8506C91.9007 46.8506 91.7394 46.7803 91.6184 46.6499L84.4285 38.6944C84.4487 38.8348 84.4789 38.9853 84.5092 39.1257L84.9731 40.4299C85.0638 40.7008 84.9529 41.0018 84.7109 41.1422L84.5899 41.2124L83.7327 41.2325L74.5462 38.1526L74.4656 37.9018L74.2437 36.7983L72.6202 28.4414C71.7631 26.9868 71.2992 25.4318 71.2992 24.0473V21.6596C70.19 15.9814 69.5345 12.6608 69.4437 12.3096C69.2824 11.6375 67.7799 8.35693 66.3581 5.39742C66.227 5.11652 66.3278 4.79549 66.59 4.63497L73.1647 0.571927L73.2152 0.612056C74.1025 0.311089 75.1614 0.471605 76.2504 1.0936L95.4906 12.1491C97.9511 13.5636 99.9578 17.0147 99.9578 19.8338V39.8782C99.9578 41.3027 99.4536 42.3962 98.5562 42.9681C98.4957 43.0082 98.4654 43.0283 98.4251 43.0483L92.3848 46.7603C92.2839 46.8205 92.173 46.8506 92.0621 46.8506H92.0722ZM83.0974 35.6245L92.1528 45.6467L97.8906 42.1153L98.2637 42.5066L97.9814 42.0551C98.5662 41.684 98.8889 40.9115 98.8889 39.8681V19.8238C98.8889 17.3759 97.094 14.2759 94.9562 13.052L75.716 2.01657C74.8185 1.50492 73.9916 1.38454 73.3866 1.69554L73.3462 1.7156L67.4975 5.30713C68.3244 7.04271 70.2606 11.1359 70.4824 12.0588C70.5933 12.5303 71.5614 17.4561 72.3479 21.4991V21.5995L72.358 24.0373C72.358 25.2412 72.8017 26.6758 73.5782 27.9599L73.6488 28.1405L75.4336 37.33L83.7327 40.1089L83.4605 39.3264C83.3193 38.594 83.2185 37.8416 83.1882 37.1394L83.1075 35.6345L83.0974 35.6245Z" fill="#150035"/>
<path id="Vector_26" d="M95.2186 12.6089L76.5834 1.89453L67.5078 7.56273L87.4035 18.0564L91.4572 18.6985L97.6992 15.0066C97.0034 14.0034 96.1362 13.1406 95.1984 12.6089H95.2186Z" fill="white"/>
<path id="Vector_27" d="M91.5785 19.2529L87.1617 18.5305L66.4492 7.60545L76.5735 1.28516L95.481 12.1501C96.449 12.7119 97.3767 13.5947 98.1532 14.7083L98.4759 15.1798L91.5785 19.2629V19.2529ZM87.5852 17.5474L91.3667 18.1393L96.9331 14.8487C96.328 14.0762 95.6423 13.4643 94.9465 13.063L76.6038 2.50909L68.587 7.51516L87.5953 17.5374L87.5852 17.5474Z" fill="#150035"/>
<path id="Vector_28" d="M93.0418 21.9882C93.0418 21.9882 85.2469 23.8141 84.7427 24.0047C84.3293 24.1652 76.6957 30.2848 74.084 33.1541C74.6084 35.8527 82.2923 40.5378 82.2923 40.5478L85.2268 47.6105L91.8318 43.718L92.0234 46.2963C92.0234 46.2963 92.0738 46.2963 92.104 46.3063L98.1746 42.5743C98.1746 42.5743 98.2351 42.5342 98.2653 42.5141C98.9813 42.0627 99.425 41.1598 99.425 39.8756V19.8313C99.425 19.3397 99.3645 18.828 99.2435 18.3164L93.0318 21.9882H93.0418Z" fill="#150035"/>
<path id="Vector_29" d="M98.537 21.0688L93.9238 23.8516L94.478 24.7609L99.0912 21.9781L98.537 21.0688Z" fill="#FFDC5A"/>
<path id="Vector_30" d="M98.5389 39.5922L93.9258 42.375L94.48 43.2843L99.0931 40.5015L98.5389 39.5922Z" fill="#FFDC5A"/>
<path id="Vector_31" d="M69.7978 5.35654L89.0783 16.4321C91.3775 17.7564 93.243 20.9667 93.243 23.6051V43.6896C93.243 46.3281 91.3775 47.4016 89.0783 46.0773L86.88 44.8132C86.4868 44.5825 86.1439 44.7129 86.0632 45.1142C85.8212 46.3181 84.9641 48.5051 81.8381 47.231C81.233 46.9802 80.749 46.0372 80.9204 45.4653C81.1423 44.7731 81.3641 43.7799 81.3641 42.6062C81.3641 42.0845 80.991 41.4324 80.5271 41.1716L69.7877 35.0017C67.4886 33.6775 65.623 30.4672 65.623 27.8287V7.7442C65.623 5.10573 67.4886 4.03228 69.7877 5.35654H69.7978Z" fill="#FFDC5A"/>
<path id="Vector_32" d="M83.5627 48.1447C82.9879 48.1447 82.3426 48.0042 81.6468 47.7133C80.7795 47.3521 80.1644 46.1382 80.4266 45.2955C80.6182 44.6936 80.84 43.7405 80.8501 42.5868C80.8501 42.2558 80.5779 41.7842 80.2854 41.6137L69.546 35.4439C67.0653 34.0193 65.1191 30.6685 65.1191 27.8094V7.74492C65.1191 6.27018 65.6435 5.1566 66.6015 4.60483C67.5595 4.05306 68.7897 4.15338 70.0805 4.89577L89.361 15.9713C91.8417 17.3959 93.7879 20.7467 93.7879 23.6059V43.6904C93.7879 45.1651 93.2635 46.2787 92.3055 46.8304C91.3475 47.3822 90.1173 47.2819 88.8265 46.5395L86.6282 45.2754C86.6282 45.2754 86.6081 45.2654 86.598 45.2554C86.4064 46.1483 85.9728 47.2618 84.9341 47.8136C84.5308 48.0343 84.0669 48.1346 83.5627 48.1346V48.1447ZM67.9527 5.31712C67.6502 5.31712 67.3679 5.38735 67.1359 5.51776C66.5208 5.86889 66.188 6.66144 66.188 7.73488V27.8194C66.188 30.2873 67.9326 33.297 70.0805 34.5309L80.8199 40.7008C81.4552 41.0619 81.9291 41.8745 81.919 42.5968C81.919 43.881 81.6568 44.9444 81.4451 45.6165C81.3543 45.9075 81.677 46.5796 82.0501 46.7301C83.0484 47.1414 83.8451 47.1916 84.4199 46.8806C85.156 46.4893 85.4484 45.5363 85.5493 45.0046C85.6198 44.6535 85.8215 44.3826 86.114 44.2522C86.4266 44.1117 86.7997 44.1518 87.1526 44.3525L89.3509 45.6165C90.2887 46.1583 91.1459 46.2586 91.761 45.9075C92.3761 45.5563 92.7089 44.7638 92.7089 43.6904V23.6059C92.7089 21.1379 90.9644 18.1283 88.8165 16.8943L69.5359 5.81873C68.9611 5.48767 68.4166 5.32715 67.9427 5.32715L67.9527 5.31712Z" fill="#150035"/>
<path id="Vector_33" d="M73.4472 21.1389C73.4472 21.1389 71.9245 21.2292 72.1766 24.7605C72.4287 28.2919 73.7295 29.9372 73.7295 29.9372L76.6841 30.9504C76.6841 30.9504 76.7446 31.0407 76.8556 31.2012C78.711 33.8598 81.2723 35.2843 83.1379 34.7627L84.2673 34.4517L84.0454 26.8372C84.0454 26.8372 82.4018 25.5029 81.6253 24.0583C80.8488 22.6137 81.8774 22.4531 81.8068 20.7376C81.7463 19.0221 80.4757 16.0125 79.1345 15.9924C77.7934 15.9723 78.3883 17.4571 78.6707 18.8315C78.953 20.2059 78.2371 21.47 77.2085 21.9917C76.1799 22.5133 75.9077 23.0952 75.9077 23.0952C75.9077 23.0952 75.3127 22.0117 73.4573 21.159L73.4472 21.1389Z" fill="white"/>
<path id="Vector_34" d="M82.3216 35.3933C80.3754 35.3933 78.1065 33.9286 76.4024 31.5008C76.3721 31.4606 76.3519 31.4205 76.3318 31.3904L73.4074 30.3772L73.3066 30.2568C73.2461 30.1865 71.8948 28.4409 71.6427 24.7892C71.5217 23.0938 71.7738 21.8698 72.399 21.1676C72.8427 20.6559 73.3267 20.6058 73.4175 20.6058H73.5486L73.6696 20.6559C74.799 21.1776 75.5049 21.7896 75.9082 22.221C76.1503 22.0003 76.483 21.7394 76.957 21.4986C77.7234 21.1074 78.3788 20.1042 78.1368 18.9204C78.0965 18.7197 78.046 18.509 77.9956 18.2984C77.7738 17.3553 77.562 16.4625 78.036 15.8906C78.278 15.5897 78.6712 15.4492 79.1351 15.4492C80.8998 15.4693 82.2611 18.8702 82.3317 20.7061C82.362 21.5388 82.1704 22.0504 82.009 22.4617C81.8275 22.9433 81.7469 23.164 82.0796 23.786C82.7956 25.1203 84.3485 26.3944 84.3687 26.4044L84.5603 26.5549L84.7922 34.8315L83.2595 35.2528C82.9569 35.3331 82.6443 35.3732 82.3116 35.3732L82.3216 35.3933ZM74.0629 29.4843L77.0276 30.5076L77.1284 30.6681C77.1284 30.6681 77.1889 30.7584 77.2797 30.8988C78.9838 33.3367 81.3233 34.7111 82.9771 34.2496L83.7031 34.049L83.5015 27.0866C83.0275 26.6753 81.7973 25.5416 81.1317 24.3077C80.567 23.2643 80.7889 22.6724 81.0006 22.1106C81.1317 21.7495 81.2729 21.3783 81.2527 20.7663C81.1922 19.0408 79.9317 16.5427 79.1049 16.5327C78.9133 16.5026 78.8628 16.5628 78.8528 16.5829C78.7116 16.7534 78.9032 17.5861 79.0242 18.0877C79.0746 18.2984 79.125 18.5191 79.1654 18.7398C79.4679 20.2446 78.7418 21.8096 77.4208 22.4718C76.604 22.8831 76.3519 23.3345 76.3519 23.3345L75.8881 24.2073L75.404 23.3446C75.404 23.3446 74.8898 22.4617 73.3772 21.7194C73.0646 21.8899 72.5301 22.6323 72.6814 24.7391C72.873 27.528 73.7704 29.083 74.0427 29.5044L74.0629 29.4843Z" fill="#150035"/>
<path id="Vector_35" d="M76.2101 31.1996C75.6353 30.1362 75.5042 28.5411 75.4941 28.4809L76.553 28.3906C76.553 28.3906 76.674 29.8252 77.1479 30.698L76.2101 31.1996Z" fill="#150035"/>
<path id="Vector_36" d="M76.2115 24.6495L75.1426 24.6194C75.1627 23.6563 75.2737 23.0343 75.4552 22.7734L76.3224 23.3854C76.2821 23.4857 76.2216 24.0977 76.2014 24.6495H76.2115Z" fill="#150035"/>
<path id="Vector_37" d="M85.6802 30.5177L81.9592 28.3809C81.3743 28.0498 80.9004 27.1469 80.9004 26.3744C80.9004 25.602 81.3743 25.2408 81.9592 25.5819L85.6802 27.7188C86.2651 28.0498 86.739 28.9527 86.739 29.7252C86.739 30.4977 86.2651 30.8588 85.6802 30.5177Z" fill="white"/>
<path id="Vector_38" d="M86.1027 31.178C85.8808 31.178 85.6388 31.1078 85.417 30.9773L81.696 28.8405C80.9397 28.4091 80.375 27.3457 80.375 26.3726C80.375 25.7706 80.6069 25.2891 81.0103 25.0583C81.3632 24.8477 81.817 24.8677 82.2304 25.1185L85.9514 27.2554C86.7077 27.6868 87.2724 28.7502 87.2724 29.7233C87.2724 30.3252 87.0405 30.8068 86.6371 31.0375C86.4758 31.1278 86.2943 31.178 86.1027 31.178ZM81.5347 25.9813C81.5145 25.9913 81.4338 26.1017 81.4338 26.3726C81.4338 26.9544 81.8069 27.6868 82.2204 27.9275L85.9413 30.0644C86.0321 30.1146 86.0926 30.1246 86.1027 30.1146C86.1229 30.1045 86.2035 29.9942 86.2035 29.7233C86.2035 29.1414 85.8304 28.4091 85.417 28.1683L81.696 26.0315C81.6153 25.9813 81.5649 25.9813 81.5447 25.9813H81.5347Z" fill="#150035"/>
<path id="Vector_39" d="M85.4281 32.6962L82.2012 30.8402C81.7172 30.5593 81.334 29.8169 81.334 29.1849C81.334 28.5428 81.7273 28.2519 82.2012 28.5328L85.4281 30.3888C85.9121 30.6697 86.2953 31.412 86.2953 32.0441C86.2953 32.6861 85.902 32.9771 85.4281 32.6962Z" fill="white"/>
<path id="Vector_40" d="M85.7803 33.328C85.5786 33.328 85.3669 33.2678 85.1652 33.1574L81.9383 31.3014C81.2929 30.9303 80.7988 30.0173 80.7988 29.1847C80.7988 28.6529 81.0106 28.2316 81.3635 28.0209C81.6862 27.8303 82.0896 27.8504 82.4627 28.0711L85.6895 29.927C86.3349 30.2982 86.829 31.2112 86.829 32.0438C86.829 32.5755 86.6173 32.9969 86.2643 33.2076C86.1131 33.2979 85.9517 33.338 85.7702 33.338L85.7803 33.328ZM85.6996 32.2344C85.6996 32.2344 85.7501 32.2545 85.7601 32.2645C85.74 32.2445 85.7601 32.1642 85.7601 32.0438C85.7601 31.5623 85.4375 31.0105 85.1551 30.85L81.9282 28.994C81.9282 28.994 81.8778 28.974 81.8677 28.9639C81.8879 28.984 81.8677 29.0643 81.8677 29.1847C81.8677 29.6662 82.1904 30.218 82.4728 30.3785L85.6996 32.2344Z" fill="#150035"/>
<path id="Vector_41" d="M85.055 34.7919L82.2012 33.1566C81.7172 32.8757 81.334 32.1333 81.334 31.5013C81.334 30.8592 81.7273 30.5683 82.2012 30.8492L85.055 32.4845C85.539 32.7654 85.9222 33.5077 85.9222 34.1398C85.9222 34.7818 85.5289 35.0728 85.055 34.7919Z" fill="white"/>
<path id="Vector_42" d="M85.4072 35.4237C85.2055 35.4237 84.9938 35.3635 84.7921 35.2531L81.9383 33.6179C81.2929 33.2467 80.7988 32.3337 80.7988 31.5011C80.7988 30.9693 81.0106 30.548 81.3635 30.3373C81.6862 30.1467 82.0896 30.1668 82.4627 30.3875L85.3164 32.0227C85.9618 32.3939 86.4559 33.3069 86.4559 34.1395C86.4559 34.6712 86.2442 35.0926 85.8912 35.3033C85.74 35.3936 85.5786 35.4337 85.3971 35.4337L85.4072 35.4237ZM85.3265 34.3301C85.3265 34.3301 85.377 34.3502 85.387 34.3602C85.3669 34.3402 85.387 34.2599 85.387 34.1395C85.387 33.648 85.0643 33.1062 84.782 32.9457L81.9282 31.3104C81.9282 31.3104 81.8778 31.2904 81.8677 31.2803C81.8879 31.3004 81.8677 31.3807 81.8677 31.5011C81.8677 31.9826 82.1904 32.5344 82.4728 32.6949L85.3265 34.3301Z" fill="#150035"/>
<path id="Vector_43" d="M84.5598 36.8181L82.543 35.6644C82.059 35.3835 81.6758 34.6411 81.6758 34.0091C81.6758 33.367 82.0691 33.0761 82.543 33.357L84.5598 34.5107C85.0438 34.7916 85.427 35.534 85.427 36.166C85.427 36.8081 85.0337 37.099 84.5598 36.8181Z" fill="white"/>
<path id="Vector_44" d="M84.914 37.4499C84.7123 37.4499 84.5005 37.3897 84.2989 37.2794L82.2821 36.1257C81.6367 35.7545 81.1426 34.8415 81.1426 34.0089C81.1426 33.4772 81.3543 33.0558 81.7073 32.8451C82.03 32.6545 82.4333 32.6746 82.8064 32.8953L84.8232 34.049C85.4686 34.4202 85.9627 35.3331 85.9627 36.1658C85.9627 36.6975 85.7509 37.1189 85.398 37.3295C85.2467 37.4198 85.0854 37.46 84.9039 37.46L84.914 37.4499ZM84.8333 36.3564C84.8333 36.3564 84.8837 36.3765 84.8938 36.3865C84.8736 36.3664 84.8938 36.2862 84.8938 36.1658C84.8938 35.6742 84.5711 35.1325 84.2888 34.972L82.272 33.8183C82.272 33.8183 82.2216 33.7982 82.2115 33.7882C82.2316 33.8082 82.2115 33.8885 82.2115 34.0089C82.2115 34.4904 82.5342 35.0422 82.8165 35.2027L84.8333 36.3564Z" fill="#150035"/>
<g id="Clip path group_2">
<mask id="mask1_1309_5368" style="mask-type:luminance" maskUnits="userSpaceOnUse" x="16" y="52" width="34" height="20">
<g id="clippath-1">
<path id="Vector_45" d="M47.8038 58.6863L27.0812 70.5946C24.9938 71.7984 21.3334 71.648 18.9233 70.2535C16.5031 68.869 16.241 66.7623 18.3384 65.5684L39.061 53.6602C41.1484 52.4563 44.8088 52.6068 47.2189 54.0013C49.6391 55.3857 49.9012 57.4925 47.8038 58.6863Z" fill="white"/>
</g>
</mask>
<g mask="url(#mask1_1309_5368)">
<g id="Group_2">
<path id="Vector_46" d="M26.7525 46.3839L26.4453 46.9141L63.0949 67.9312L63.4021 67.401L26.7525 46.3839Z" fill="#150035"/>
<path id="Vector_47" d="M25.0788 47.2863L24.7715 47.8164L61.4174 68.8399L61.7247 68.3098L25.0788 47.2863Z" fill="#150035"/>
<path id="Vector_48" d="M23.5456 48.2355L23.2383 48.7656L59.8842 69.7891L60.1915 69.259L23.5456 48.2355Z" fill="#150035"/>
<path id="Vector_49" d="M21.8384 49.0987L21.5312 49.6289L58.1808 70.646L58.488 70.1158L21.8384 49.0987Z" fill="#150035"/>
<path id="Vector_50" d="M20.4283 50.0675L20.1211 50.5977L56.7707 71.6148L57.0779 71.0846L20.4283 50.0675Z" fill="#150035"/>
<path id="Vector_51" d="M18.7564 50.9659L18.4492 51.4961L55.0988 72.5132L55.406 71.983L18.7564 50.9659Z" fill="#150035"/>
<path id="Vector_52" d="M17.233 51.9073L16.9258 52.4375L53.5754 73.4546L53.8825 72.9244L17.233 51.9073Z" fill="#150035"/>
<path id="Vector_53" d="M15.5299 52.7745L15.2227 53.3047L51.8685 74.3282L52.1758 73.798L15.5299 52.7745Z" fill="#150035"/>
<path id="Vector_54" d="M14.0065 53.7316L13.6992 54.2617L50.3451 75.2852L50.6524 74.7551L14.0065 53.7316Z" fill="#150035"/>
<path id="Vector_55" d="M12.2995 54.6183L11.9922 55.1484L48.6381 76.1719L48.9454 75.6418L12.2995 54.6183Z" fill="#150035"/>
<path id="Vector_56" d="M10.7857 55.5636L10.4785 56.0938L47.1281 77.1109L47.4353 76.5807L10.7857 55.5636Z" fill="#150035"/>
<path id="Vector_57" d="M9.06695 56.4386L8.75977 56.9688L45.4093 77.9859L45.7165 77.4557L9.06695 56.4386Z" fill="#150035"/>
<path id="Vector_58" d="M7.6607 57.4073L7.35352 57.9375L44.0031 78.9546L44.3103 78.4244L7.6607 57.4073Z" fill="#150035"/>
<path id="Vector_59" d="M5.98492 58.294L5.67773 58.8242L42.3273 79.8414L42.6345 79.3112L5.98492 58.294Z" fill="#150035"/>
<path id="Vector_60" d="M4.46158 59.2589L4.1543 59.7891L40.8002 80.8126L41.1075 80.2824L4.46158 59.2589Z" fill="#150035"/>
<path id="Vector_61" d="M2.74859 60.1182L2.44141 60.6484L39.091 81.6656L39.3982 81.1354L2.74859 60.1182Z" fill="#150035"/>
<path id="Vector_62" d="M1.23492 61.0636L0.927734 61.5938L37.5773 82.6109L37.8845 82.0807L1.23492 61.0636Z" fill="#150035"/>
<path id="Vector_63" d="M33.2623 42.7823L32.9551 43.3125L69.6047 64.3296L69.9118 63.7994L33.2623 42.7823Z" fill="#150035"/>
<path id="Vector_64" d="M31.5904 43.6768L31.2832 44.207L67.9328 65.2242L68.24 64.694L31.5904 43.6768Z" fill="#150035"/>
<path id="Vector_65" d="M30.067 44.6182L29.7598 45.1484L66.4093 66.1656L66.7165 65.6354L30.067 44.6182Z" fill="#150035"/>
<path id="Vector_66" d="M28.366 45.4973L28.0586 46.0273L64.7008 67.0572L65.0082 66.5271L28.366 45.4973Z" fill="#150035"/>
<path id="Vector_67" d="M26.8365 46.4386L26.5293 46.9688L63.1789 67.9859L63.4861 67.4557L26.8365 46.4386Z" fill="#150035"/>
</g>
</g>
</g>
<path id="Vector_68" d="M36.6421 47.281L30.4707 43.3183C30.4707 43.3183 30.4707 43.2781 30.4808 43.2781L36.6522 43.0273H36.6623L37.4085 43.7095C37.4085 43.7095 37.4085 43.7095 37.4085 43.7196L37.9429 45.8263C37.9429 45.8263 37.9429 45.8364 37.9429 45.8464L36.6723 47.271C36.6723 47.271 36.6522 47.271 36.6421 47.271V47.281Z" fill="#150035"/>
<path id="Vector_69" d="M36.7415 48.0021L38.5264 45.9957L38.4659 45.7047L37.881 43.4073L37.7196 43.287L36.8423 42.4844L30.0558 42.7653L29.834 43.5378L30.1768 43.7685L36.7314 48.0021H36.7415ZM37.3566 45.7047L36.5499 46.6076L32.1029 43.7484L36.4491 43.5679L36.923 43.9992L37.3566 45.6947V45.7047Z" fill="#150035"/>
<path id="Vector_70" d="M26.2438 12.5994L45.4941 1.54393C46.5932 0.911904 47.5915 0.831646 48.3276 1.20284L54.62 5.05521C54.62 5.05521 54.6604 5.10537 54.6503 5.13547C54.3679 5.71734 51.7562 11.1548 51.5243 12.158C51.4234 12.5794 50.6066 16.7327 49.6587 21.5783C49.6587 21.5783 49.6587 21.5783 49.6587 21.5883V24.0161C49.6587 25.3805 49.1646 26.8853 48.368 28.2096C48.368 28.2096 48.368 28.2196 48.368 28.2296C47.3798 33.2758 46.5428 37.5897 46.5226 37.7L37.679 40.6596H37.0538C37.0538 40.6596 37.0134 40.5994 37.0235 40.5693L37.5076 39.2049C37.5076 39.2049 37.5076 39.2049 37.5076 39.1949C37.6386 38.5428 37.7294 37.8104 37.7697 37.0781L29.4605 46.2676C29.4605 46.2676 29.4 46.2977 29.3698 46.2776L23.2992 42.5456C23.2992 42.5456 23.2387 42.5055 23.2085 42.4854C22.4925 42.034 22.0488 41.1311 22.0488 39.8469V19.8026C22.0488 17.1541 23.9345 13.8936 26.2438 12.5693V12.5994Z" fill="#FFDC5A"/>
<path id="Vector_71" d="M29.4114 46.8497C29.5727 46.8497 29.7441 46.7795 29.8551 46.6491L37.055 38.6835C37.0349 38.824 37.0046 38.9544 36.9844 39.0848V39.1049L36.5105 40.4091C36.4096 40.6799 36.5307 40.9809 36.7828 41.1314L36.9038 41.2016L37.7508 41.2217L46.9272 38.1518L47.0381 37.8208L48.8633 28.4306C49.7205 26.9759 50.1843 25.4209 50.1843 24.0365V21.6488C51.6062 14.3755 51.9793 12.5496 52.0398 12.2988C52.1911 11.6367 53.7037 8.34609 55.1255 5.38659C55.2566 5.11572 55.1557 4.78465 54.8936 4.62414L48.6012 0.771767C47.623 0.280188 46.4331 0.410607 45.223 1.10283L25.9828 12.1583C23.5223 13.5729 21.5156 17.024 21.5156 19.853V39.8974C21.5156 41.322 22.0198 42.4155 22.9173 42.9873C22.9677 43.0174 22.998 43.0375 23.0383 43.0576L29.0786 46.7695C29.1794 46.8297 29.2904 46.8598 29.3912 46.8598L29.4114 46.8497ZM38.3861 35.6337L29.3307 45.6559L23.5929 42.1346L23.24 42.5459L23.5022 42.0844C22.9173 41.7133 22.5946 40.9408 22.5946 39.8974V19.853C22.5946 17.4052 24.3896 14.3052 26.5274 13.0813L45.7575 2.00573C46.655 1.49409 47.4818 1.3737 48.0869 1.6847L53.986 5.2963C53.149 7.03187 51.2129 11.125 51.0011 12.048C50.9104 12.4292 50.2852 15.5994 49.1356 21.4883V21.5886L49.1255 24.0265C49.1255 25.2303 48.6818 26.6649 47.9054 27.949L47.8348 28.1296L46.0499 37.3091L37.7508 40.088L38.0231 39.3055C38.1643 38.5732 38.255 37.8107 38.2954 37.1185L38.376 35.6137L38.3861 35.6337Z" fill="#150035"/>
<path id="Vector_72" d="M26.2642 12.6014L44.5363 2.09766L53.6119 7.76586L34.0692 18.0689L30.0154 18.711L23.7734 15.0192C24.4692 14.0159 25.3365 13.1532 26.2743 12.6215L26.2642 12.6014Z" fill="white"/>
<path id="Vector_73" d="M29.9049 19.2514L34.3217 18.5291L54.6812 7.80467L44.5569 1.48438L26.0125 12.1587C25.0445 12.7205 24.1167 13.6033 23.3403 14.7169L23.0176 15.1884L29.915 19.2715L29.9049 19.2514ZM33.8982 17.546L30.1167 18.1379L24.5503 14.8473C25.1554 14.0748 25.8411 13.4628 26.5369 13.0616L44.5267 2.70831L52.5434 7.71438L33.8982 17.546Z" fill="#150035"/>
<path id="Vector_74" d="M22.2574 19.9098L21.7051 20.8203L27.9472 24.568L28.4995 23.6575L22.2574 19.9098Z" fill="#150035"/>
<path id="Vector_75" d="M22.4331 34.3395L21.8809 35.25L28.123 38.9977L28.6753 38.0872L22.4331 34.3395Z" fill="#150035"/>
<path id="Vector_76" d="M51.6757 5.3465L32.3951 16.4221C30.096 17.7463 28.2305 20.9566 28.2305 23.5951V43.6796C28.2305 46.3181 30.096 47.3915 32.3951 46.0673L34.5935 44.8032C34.9867 44.5725 35.3296 44.7029 35.4103 45.1042C35.6523 46.3081 36.5094 48.4951 39.6354 47.221C40.2405 46.9702 40.7245 46.0271 40.5531 45.4553C40.3312 44.7631 40.1094 43.7699 40.1094 42.5961C40.1094 42.0745 40.4825 41.4224 40.9464 41.1615L51.6858 34.9917C53.9849 33.6675 55.8505 30.4571 55.8505 27.8187V7.7442C55.8505 5.10573 53.9849 4.03228 51.6858 5.35654L51.6757 5.3465Z" fill="#FFDC5A"/>
<path id="Vector_77" d="M37.9224 48.1447C38.4972 48.1447 39.1426 48.0042 39.8384 47.7133C40.7056 47.3621 41.3207 46.1382 41.0585 45.3055C40.8669 44.7036 40.6451 43.7505 40.635 42.5968C40.635 42.2658 40.9073 41.7943 41.1997 41.6237L51.9391 35.4539C54.4198 34.0293 56.366 30.6786 56.366 27.8194V7.74492C56.366 6.27018 55.8416 5.1566 54.8836 4.60483C53.9257 4.05306 52.6954 4.15338 51.4047 4.89577L32.1241 15.9713C29.6435 17.3959 27.6973 20.7467 27.6973 23.6059V43.6904C27.6973 45.1651 28.2216 46.2787 29.1796 46.8304C30.1376 47.3822 31.3678 47.2819 32.6586 46.5395L34.8569 45.2754C34.8569 45.2754 34.8771 45.2654 34.8871 45.2554C35.0787 46.1483 35.5123 47.2618 36.551 47.8136C36.9544 48.0343 37.4182 48.1447 37.9224 48.1447ZM53.5324 5.31712C53.8349 5.31712 54.1173 5.38735 54.3492 5.5278C54.9643 5.87892 55.2971 6.67147 55.2971 7.74492V27.8294C55.2971 30.2973 53.5526 33.307 51.4047 34.541L40.6652 40.7108C40.03 41.0719 39.556 41.8846 39.5661 42.6069C39.5661 43.891 39.8283 44.9544 40.04 45.6266C40.1308 45.9175 39.8081 46.5897 39.435 46.7402C38.4367 47.1515 37.6401 47.2016 37.0653 46.8906C36.3291 46.4994 36.0367 45.5463 35.9359 45.0146C35.8653 44.6635 35.6636 44.3926 35.3712 44.2622C35.0586 44.1217 34.6855 44.1518 34.3325 44.3625L32.1342 45.6266C31.1964 46.1683 30.3393 46.2686 29.7241 45.9175C29.109 45.5664 28.7763 44.7738 28.7763 43.7004V23.6159C28.7763 21.148 30.5208 18.1383 32.6687 16.9043L51.9492 5.82876C52.524 5.4977 53.0685 5.33718 53.5425 5.33718L53.5324 5.31712Z" fill="#150035"/>
<path id="Vector_78" d="M22.0494 37.7188L28.2107 41.4909V44.1996L28.6141 45.8348L23.2091 42.5141L22.1503 41.1899L21.9688 39.655L22.0494 37.7188Z" fill="#150035"/>
<path id="Vector_79" d="M36.4794 22.7907C38.8188 19.45 41.4508 20.7542 42.0356 21.5768C42.0356 21.5768 42.0457 21.5768 42.0558 21.5768C42.6407 20.082 45.2726 15.7581 47.6121 16.4102C50.0625 17.0924 49.5885 20.0218 48.3986 23.4328C47.4306 26.2017 43.0844 33.6255 42.1566 35.1905C42.0558 35.3511 41.9146 35.4413 41.8138 35.3912C40.6945 34.7692 36.7315 32.4718 35.7029 30.7262C34.513 28.6796 34.039 26.292 36.4894 22.8008L36.4794 22.7907Z" fill="white"/>
<path id="Vector_80" d="M41.8651 35.9357C42.1474 35.9357 42.4298 35.7651 42.6113 35.4541C43.4886 33.9694 47.9054 26.4352 48.8936 23.6061C49.9827 20.486 50.1742 18.5197 49.5188 17.2557C49.1659 16.5835 48.5709 16.122 47.7541 15.8913C45.3037 15.2091 42.8533 18.7204 41.8651 20.6967C41.3709 20.3556 40.6752 20.0948 39.8886 20.0948C38.9004 20.0948 37.4382 20.5161 36.0567 22.4925C33.2634 26.4753 34.1609 29.1238 35.25 30.9898C36.3088 32.7956 40.0197 34.9926 41.5625 35.8554C41.6634 35.9156 41.7743 35.9357 41.8852 35.9357H41.8651ZM47.1087 16.8644C47.2297 16.8644 47.3407 16.8745 47.4617 16.9146C47.9961 17.0651 48.3591 17.3359 48.5709 17.7473C49.2364 19.0213 48.5003 21.4993 47.8852 23.2549C46.9575 25.9135 42.823 32.9862 41.7844 34.7619C39.4852 33.4577 36.8836 31.692 36.1575 30.448C35.1693 28.7626 34.4836 26.5656 36.9138 23.0944C37.8012 21.8304 38.8197 21.1582 39.8684 21.1582C40.776 21.1582 41.4113 21.6498 41.5827 21.8906L41.7642 22.1514L42.4096 22.0812L42.5407 21.7702C43.1558 20.1951 45.3541 16.8745 47.0986 16.8745L47.1087 16.8644Z" fill="#150035"/>
</g>
<defs>
<clipPath id="clip0_1309_5368">
<rect width="118.154" height="82.1538" fill="white" transform="translate(0.923828 0.460938)"/>
</clipPath>
</defs>
</svg>
