<svg xmlns="http://www.w3.org/2000/svg" width="334" height="148" viewBox="0 0 334 148" fill="none">
  <g filter="url(#filter0_d_1034_11215)">
    <path d="M26.4973 111.131C46.7938 114.676 69.1503 114.91 91.2038 114.816C91.5218 114.851 91.8551 114.886 92.1731 114.91C108.834 116.204 126.147 116.554 143.505 116.437C148.397 123.225 158.44 136.859 163.923 142.073C165.21 143.379 166.24 144.172 166.876 144.172C166.907 144.172 166.937 144.172 166.952 144.16C166.982 144.16 167.013 144.172 167.028 144.172C167.679 144.172 168.709 143.39 169.981 142.073C175.464 136.859 185.507 123.225 190.399 116.437C207.757 116.542 225.07 116.204 241.731 114.91C242.049 114.886 242.382 114.851 242.7 114.816C264.769 114.91 287.126 114.676 307.407 111.131C343.35 104.856 332.338 66.7418 332.338 46.0751C332.338 21.2097 326.295 5.56976 291.049 2.66569C257.544 -0.0984259 221.086 -0.72822 187.642 0.869601C180.736 1.19615 173.844 1.67433 166.967 2.1292C160.091 1.67433 153.199 1.19615 146.292 0.869597C112.863 -0.739887 76.4055 -0.0984417 42.886 2.66567C7.63978 5.56973 1.59626 21.2097 1.59626 46.0751C1.59626 66.7417 -9.43051 104.868 26.4973 111.142L26.4973 111.131Z" fill="#FEDB5A"/>
    <path d="M26.6694 110.146L25.6268 109.964C17.4128 108.343 11.9021 104.977 8.21488 100.591C4.36054 96.007 2.41721 90.2116 1.56495 83.8725C0.712134 77.5297 0.960669 70.7154 1.43214 64.1498C1.56641 62.28 1.71943 60.4247 1.86939 58.6064C2.24226 54.0856 2.59626 49.7935 2.59626 46.0751C2.59626 33.6748 4.1164 23.8558 9.80406 16.7603C15.4689 9.69326 25.4581 5.10501 42.9681 3.6623L42.886 2.66567L42.9682 3.66228C76.4448 0.901711 112.859 0.261074 146.244 1.86844L146.245 1.86848C152.26 2.15288 158.264 2.55249 164.267 2.95207C165.145 3.01051 166.023 3.06894 166.901 3.12701L166.967 3.13138L167.033 3.12701C167.911 3.06894 168.789 3.01051 169.667 2.95209C175.67 2.55249 181.674 2.15288 187.69 1.86849L187.69 1.86846C221.091 0.27271 257.505 0.901742 290.966 3.6623L291.049 2.66569L290.966 3.66232C308.476 5.10504 318.466 9.69328 324.13 16.7604C329.818 23.8558 331.338 33.6748 331.338 46.0751C331.338 49.7895 331.691 54.0762 332.063 58.591C332.213 60.4136 332.366 62.2734 332.5 64.1478C332.97 70.7122 333.216 77.525 332.36 83.8663C331.505 90.2038 329.559 95.9978 325.701 100.581C321.856 105.149 316.032 108.61 307.235 110.146L307.235 110.146C287.052 113.674 264.779 113.91 242.705 113.816L242.648 113.816L242.591 113.822C242.274 113.857 241.957 113.89 241.658 113.912L241.654 113.913C225.03 115.204 207.748 115.542 190.405 115.437L189.889 115.434L189.588 115.853C184.672 122.672 174.692 136.214 169.292 141.348L169.277 141.363L169.262 141.378C168.645 142.017 168.116 142.495 167.686 142.806C167.32 143.071 167.119 143.145 167.053 143.165C167.023 143.162 166.989 143.16 166.952 143.16L166.845 143.16C166.772 143.135 166.577 143.054 166.231 142.803C165.798 142.488 165.262 142.007 164.635 141.371L164.624 141.359L164.612 141.348C159.212 136.214 149.232 122.672 144.316 115.853L144.015 115.434L143.498 115.437C126.157 115.554 108.874 115.204 92.2506 113.913L92.2463 113.912C91.9476 113.89 91.6298 113.857 91.3131 113.822L91.2565 113.816L91.1995 113.816C69.1407 113.91 46.8673 113.674 26.6694 110.146ZM167.22 143.192L167.211 143.19C167.22 143.191 167.226 143.193 167.224 143.192L167.22 143.192ZM166.886 143.172C166.886 143.172 166.884 143.172 166.879 143.172L166.886 143.172Z" stroke="black" stroke-width="2"/>
  </g>
  <defs>
    <filter id="filter0_d_1034_11215" x="0.000976562" y="0" width="333.927" height="148.172" filterUnits="userSpaceOnUse" color-interpolation-filters="sRGB">
      <feFlood flood-opacity="0" result="BackgroundImageFix"/>
      <feColorMatrix in="SourceAlpha" type="matrix" values="0 0 0 0 0 0 0 0 0 0 0 0 0 0 0 0 0 0 127 0" result="hardAlpha"/>
      <feOffset dy="4"/>
      <feComposite in2="hardAlpha" operator="out"/>
      <feColorMatrix type="matrix" values="0 0 0 0 0 0 0 0 0 0 0 0 0 0 0 0 0 0 1 0"/>
      <feBlend mode="normal" in2="BackgroundImageFix" result="effect1_dropShadow_1034_11215"/>
      <feBlend mode="normal" in="SourceGraphic" in2="effect1_dropShadow_1034_11215" result="shape"/>
    </filter>
  </defs>
</svg>