<svg xmlns="http://www.w3.org/2000/svg" width="304" height="135" viewBox="0 0 304 135" fill="none">
  <g filter="url(#filter0_d_1034_20007)">
    <path d="M278.982 29.9835C260.563 26.7661 240.276 26.5544 220.263 26.6391C219.974 26.6073 219.672 26.5756 219.383 26.5544C204.264 25.3796 188.553 25.0621 172.801 25.1679C168.362 19.0083 159.249 6.63596 154.273 1.90506C153.105 0.719689 152.17 0 151.593 0C151.565 0 151.538 0 151.524 0.0105837C151.497 0.0105837 151.469 0 151.455 0C150.864 0 149.93 0.709105 148.775 1.90506C143.799 6.63596 134.687 19.0083 130.247 25.1679C114.495 25.0727 98.7846 25.3796 83.6651 26.5544C83.3764 26.5756 83.074 26.6073 82.7854 26.6391C62.7589 26.5544 42.4713 26.7661 24.0667 29.9835C-8.5502 35.6775 1.44242 70.2649 1.44242 89.0192C1.44242 111.584 6.92668 125.776 38.9113 128.412C69.3153 130.92 102.4 131.491 132.749 130.041C139.016 129.745 145.27 129.311 151.51 128.898C157.751 129.311 164.005 129.745 170.272 130.041C200.608 131.502 233.692 130.92 264.11 128.412C296.094 125.776 301.578 111.584 301.578 89.0192C301.578 70.2649 311.585 35.6669 278.982 29.9729V29.9835Z" fill="#FFDC5A"/>
    <path d="M278.81 30.9686L279.755 31.1337C287.191 32.6015 292.171 35.6466 295.501 39.6073C298.984 43.7493 300.743 48.9894 301.515 54.7317C302.288 60.4777 302.063 66.6535 301.635 72.6104C301.513 74.3043 301.375 75.9863 301.239 77.6354C300.9 81.7396 300.578 85.6407 300.578 89.0192C300.578 100.269 299.198 109.151 294.058 115.563C288.941 121.947 279.907 126.107 264.027 127.415C233.653 129.92 200.612 130.501 170.32 129.043L170.32 129.043C164.862 128.785 159.415 128.422 153.968 128.059C153.171 128.006 152.374 127.953 151.576 127.901L151.51 127.896L151.444 127.901C150.647 127.953 149.85 128.006 149.053 128.059C143.606 128.422 138.159 128.785 132.701 129.043L132.701 129.043C102.395 130.49 69.3544 129.92 38.9935 127.415C23.1142 126.107 14.0803 121.947 8.96289 115.563C3.82275 109.151 2.44242 100.269 2.44242 89.0192C2.44242 85.6444 2.1218 81.7484 1.78449 77.6496C1.64845 75.9965 1.50969 74.3104 1.38816 72.6122C0.961927 66.6565 0.739179 60.4821 1.51424 54.7375C2.2888 48.9966 4.05084 43.7577 7.53646 39.6166C11.0089 35.4912 16.2728 32.3592 24.2387 30.9686L24.2389 30.9686C42.5448 27.7684 62.7493 27.5544 82.7812 27.6391L82.8381 27.6393L82.8947 27.6331C83.182 27.6015 83.469 27.5715 83.7382 27.5517L83.7425 27.5514C98.824 26.3796 114.504 26.0728 130.241 26.1679L130.757 26.171L131.058 25.7527C135.521 19.5611 144.572 7.28109 149.464 2.62977L149.48 2.61502L149.495 2.59961C150.053 2.02128 150.529 1.59195 150.913 1.31437C151.221 1.09113 151.389 1.02639 151.443 1.00763C151.468 1.00942 151.495 1.01058 151.524 1.01058H151.605C151.663 1.03288 151.828 1.10212 152.124 1.31721C152.511 1.59862 152.993 2.03084 153.561 2.60703L153.572 2.61858L153.584 2.62977C158.476 7.28109 167.528 19.5611 171.99 25.7527L172.292 26.1714L172.808 26.1679C188.544 26.0622 204.224 26.3795 219.306 27.5514L219.31 27.5517C219.579 27.5715 219.866 27.6015 220.154 27.6331L220.21 27.6393L220.267 27.6391C240.285 27.5544 260.49 27.7684 278.81 30.9686ZM151.257 0.979117L151.257 0.979148L151.257 0.979117Z" stroke="black" stroke-width="2"/>
  </g>
  <defs>
    <filter id="filter0_d_1034_20007" x="0" y="0" width="303.026" height="134.832" filterUnits="userSpaceOnUse" color-interpolation-filters="sRGB">
      <feFlood flood-opacity="0" result="BackgroundImageFix"/>
      <feColorMatrix in="SourceAlpha" type="matrix" values="0 0 0 0 0 0 0 0 0 0 0 0 0 0 0 0 0 0 127 0" result="hardAlpha"/>
      <feOffset dy="4"/>
      <feComposite in2="hardAlpha" operator="out"/>
      <feColorMatrix type="matrix" values="0 0 0 0 0 0 0 0 0 0 0 0 0 0 0 0 0 0 1 0"/>
      <feBlend mode="normal" in2="BackgroundImageFix" result="effect1_dropShadow_1034_20007"/>
      <feBlend mode="normal" in="SourceGraphic" in2="effect1_dropShadow_1034_20007" result="shape"/>
    </filter>
  </defs>
</svg>