<svg width="691" height="204" viewBox="0 0 691 204" fill="none" xmlns="http://www.w3.org/2000/svg">
<g filter="url(#filter0_d_1034_22435)">
<mask id="path-1-inside-1_1034_22435" fill="white">
<path fill-rule="evenodd" clip-rule="evenodd" d="M45.1025 0C31.2954 0 20.1025 11.1929 20.1025 25V34.8912L0.102539 49.5675L20.1025 64.2438V175C20.1025 188.807 31.2954 200 45.1026 200H665.103C678.91 200 690.103 188.807 690.103 175V25C690.103 11.1929 678.91 0 665.103 0H45.1025Z"/>
</mask>
<path fill-rule="evenodd" clip-rule="evenodd" d="M45.1025 0C31.2954 0 20.1025 11.1929 20.1025 25V34.8912L0.102539 49.5675L20.1025 64.2438V175C20.1025 188.807 31.2954 200 45.1026 200H665.103C678.91 200 690.103 188.807 690.103 175V25C690.103 11.1929 678.91 0 665.103 0H45.1025Z" fill="#FFF7DA"/>
<path d="M20.1025 34.8912L21.2858 36.5036L22.1025 35.9043V34.8912H20.1025ZM0.102539 49.5675L-1.08069 47.955L-3.27803 49.5675L-1.08069 51.1799L0.102539 49.5675ZM20.1025 64.2438H22.1025V63.2307L21.2858 62.6313L20.1025 64.2438ZM22.1025 25C22.1025 12.2975 32.4 2 45.1025 2V-2C30.1908 -2 18.1025 10.0883 18.1025 25H22.1025ZM22.1025 34.8912V25H18.1025V34.8912H22.1025ZM1.28577 51.1799L21.2858 36.5036L18.9193 33.2787L-1.08069 47.955L1.28577 51.1799ZM21.2858 62.6313L1.28577 47.955L-1.08069 51.1799L18.9193 65.8562L21.2858 62.6313ZM22.1025 175V64.2438H18.1025V175H22.1025ZM45.1026 198C32.4 198 22.1025 187.703 22.1025 175H18.1025C18.1025 189.912 30.1909 202 45.1026 202V198ZM665.103 198H45.1026V202H665.103V198ZM688.103 175C688.103 187.703 677.805 198 665.103 198V202C680.014 202 692.103 189.912 692.103 175H688.103ZM688.103 25V175H692.103V25H688.103ZM665.103 2C677.805 2 688.103 12.2975 688.103 25H692.103C692.103 10.0883 680.014 -2 665.103 -2V2ZM45.1025 2H665.103V-2H45.1025V2Z" fill="#191A23" mask="url(#path-1-inside-1_1034_22435)"/>
</g>
<defs>
<filter id="filter0_d_1034_22435" x="0.102539" y="0" width="690" height="204" filterUnits="userSpaceOnUse" color-interpolation-filters="sRGB">
<feFlood flood-opacity="0" result="BackgroundImageFix"/>
<feColorMatrix in="SourceAlpha" type="matrix" values="0 0 0 0 0 0 0 0 0 0 0 0 0 0 0 0 0 0 127 0" result="hardAlpha"/>
<feOffset dy="4"/>
<feComposite in2="hardAlpha" operator="out"/>
<feColorMatrix type="matrix" values="0 0 0 0 0 0 0 0 0 0 0 0 0 0 0 0 0 0 1 0"/>
<feBlend mode="normal" in2="BackgroundImageFix" result="effect1_dropShadow_1034_22435"/>
<feBlend mode="normal" in="SourceGraphic" in2="effect1_dropShadow_1034_22435" result="shape"/>
</filter>
</defs>
</svg>
