<svg width="691" height="184" viewBox="0 0 691 184" fill="none" xmlns="http://www.w3.org/2000/svg">
<g filter="url(#filter0_d_1034_22433)">
<mask id="path-1-inside-1_1034_22433" fill="white">
<path fill-rule="evenodd" clip-rule="evenodd" d="M645.103 0C658.91 0 670.103 11.1929 670.103 25V31.4021L690.103 44.6107L670.103 57.8194V155C670.103 168.807 658.91 180 645.103 180H25.1025C11.2954 180 0.102539 168.807 0.102539 155V25C0.102539 11.1929 11.2954 0 25.1025 0H645.103Z"/>
</mask>
<path fill-rule="evenodd" clip-rule="evenodd" d="M645.103 0C658.91 0 670.103 11.1929 670.103 25V31.4021L690.103 44.6107L670.103 57.8194V155C670.103 168.807 658.91 180 645.103 180H25.1025C11.2954 180 0.102539 168.807 0.102539 155V25C0.102539 11.1929 11.2954 0 25.1025 0H645.103Z" fill="#FBEEC4"/>
<path d="M670.103 31.4021L669 33.0709L668.103 32.478V31.4021H670.103ZM690.103 44.6107L691.205 42.9418L693.732 44.6107L691.205 46.2796L690.103 44.6107ZM670.103 57.8194H668.103V56.7435L669 56.1505L670.103 57.8194ZM668.103 25C668.103 12.2975 657.805 2 645.103 2V-2C660.014 -2 672.103 10.0883 672.103 25H668.103ZM668.103 31.4021V25H672.103V31.4021H668.103ZM689 46.2796L669 33.0709L671.205 29.7332L691.205 42.9418L689 46.2796ZM669 56.1505L689 42.9418L691.205 46.2796L671.205 59.4883L669 56.1505ZM668.103 155V57.8194H672.103V155H668.103ZM645.103 178C657.805 178 668.103 167.703 668.103 155H672.103C672.103 169.912 660.014 182 645.103 182V178ZM25.1025 178H645.103V182H25.1025V178ZM2.10254 155C2.10254 167.703 12.4 178 25.1025 178V182C10.1909 182 -1.89746 169.912 -1.89746 155H2.10254ZM2.10254 25V155H-1.89746V25H2.10254ZM25.1025 2C12.4 2 2.10254 12.2975 2.10254 25H-1.89746C-1.89746 10.0883 10.1909 -2 25.1025 -2V2ZM645.103 2H25.1025V-2H645.103V2Z" fill="#191A23" mask="url(#path-1-inside-1_1034_22433)"/>
</g>
<defs>
<filter id="filter0_d_1034_22433" x="0.102539" y="0" width="690" height="184" filterUnits="userSpaceOnUse" color-interpolation-filters="sRGB">
<feFlood flood-opacity="0" result="BackgroundImageFix"/>
<feColorMatrix in="SourceAlpha" type="matrix" values="0 0 0 0 0 0 0 0 0 0 0 0 0 0 0 0 0 0 127 0" result="hardAlpha"/>
<feOffset dy="4"/>
<feComposite in2="hardAlpha" operator="out"/>
<feColorMatrix type="matrix" values="0 0 0 0 0 0 0 0 0 0 0 0 0 0 0 0 0 0 1 0"/>
<feBlend mode="normal" in2="BackgroundImageFix" result="effect1_dropShadow_1034_22433"/>
<feBlend mode="normal" in="SourceGraphic" in2="effect1_dropShadow_1034_22433" result="shape"/>
</filter>
</defs>
</svg>
