<svg width="261" height="273" viewBox="0 0 261 273" fill="none" xmlns="http://www.w3.org/2000/svg">
<path d="M145.628 87.0957L145.964 88.9065L147.3 87.6389L207.508 30.5077L171.778 105.423L170.985 107.086L172.811 106.845L255.101 96.0146L182.161 135.621L180.543 136.5L182.161 137.379L255.101 176.985L172.811 166.155L170.985 165.914L171.778 167.577L207.508 242.492L147.3 185.361L145.964 184.093L145.628 185.904L130.5 267.514L115.372 185.904L115.036 184.093L113.7 185.361L53.4921 242.492L89.2218 167.577L90.0146 165.914L88.1887 166.155L5.89863 176.985L78.8388 137.379L80.4572 136.5L78.8388 135.621L5.89861 96.0146L88.1887 106.845L90.0146 107.086L89.2218 105.423L53.4921 30.5077L113.7 87.6389L115.036 88.9065L115.372 87.0957L130.5 5.48634L145.628 87.0957Z" stroke="#FDD945" stroke-width="2"/>
</svg>
