<svg width="99" height="96" viewBox="0 0 99 96" fill="none" xmlns="http://www.w3.org/2000/svg">
<g id="content" clip-path="url(#clip0_1309_12409)">
<path id="Vector" d="M58.5394 95.6029C55.9764 95.6029 53.5498 94.2944 52.1388 92.116C51.6003 91.2871 51.9889 90.1705 52.9227 89.8485C53.5907 89.6224 54.2996 89.9033 54.6882 90.4924C55.8129 92.205 57.9873 93.0134 60.0117 92.3215C61.2728 91.8899 62.268 90.9583 62.786 89.7183C63.2359 88.636 63.2222 87.4098 62.8473 86.3L49.1328 45.6017L51.9889 44.6289L65.7579 85.4779C66.4123 87.4166 66.276 89.4923 65.3694 91.3282C64.4696 93.1641 62.9087 94.5342 60.9797 95.1918C60.1753 95.4658 59.3505 95.596 58.5394 95.596V95.6029Z" fill="#150035"/>
<path id="Vector_2" d="M58.5409 95.9983C55.8144 95.9983 53.2991 94.6282 51.8132 92.3333C51.4928 91.8332 51.4178 91.2304 51.6155 90.6687C51.8131 90.1069 52.2426 89.6753 52.8015 89.4835C53.6127 89.2095 54.5329 89.5383 55.0237 90.285C56.0802 91.888 58.0842 92.5799 59.8905 91.9634C61.0493 91.5661 61.9559 90.7235 62.4331 89.5794C62.8284 88.6341 62.8489 87.5175 62.4808 86.4419L48.6367 45.3668L52.2358 44.1406L52.3585 44.5174L66.1275 85.3664C66.816 87.401 66.6728 89.5863 65.7254 91.5181C64.7779 93.4499 63.1351 94.8885 61.1107 95.5804C60.2791 95.8613 59.4202 96.0051 58.5477 96.0051L58.5409 95.9983ZM53.3945 90.1686C53.2787 90.1686 53.1628 90.1891 53.0469 90.2234C52.7197 90.333 52.4607 90.5933 52.3516 90.9221C52.2358 91.2509 52.2835 91.6072 52.4675 91.9017C53.7899 93.9432 56.1143 95.2105 58.5409 95.2105C59.3248 95.2105 60.1019 95.0803 60.8517 94.8269C62.6784 94.2035 64.1576 92.9019 65.0165 91.1619C65.8753 89.4219 66.0048 87.449 65.3845 85.613L51.745 45.1339L49.6319 45.8532L63.2238 86.1816C63.6464 87.4421 63.6259 88.7574 63.1556 89.8809C62.5898 91.2372 61.5197 92.2374 60.1428 92.7032C57.9956 93.4362 55.6235 92.621 54.3693 90.7166C54.1375 90.3672 53.7763 90.1686 53.4014 90.1686H53.3945Z" fill="#150035"/>
<path id="Vector_3" d="M58.9422 92.895C59.6374 92.6621 60.2782 92.3264 60.8644 91.9222C60.5985 92.0798 60.3123 92.2099 60.0123 92.3127C57.9879 93.0046 55.8135 92.1894 54.6888 90.4836C54.3002 89.8945 53.5913 89.6136 52.9233 89.8397C52.0917 90.1206 51.6964 91.0385 51.9963 91.8195C53.2914 92.7717 54.866 93.306 56.5019 93.306C57.3131 93.306 58.131 93.1758 58.9422 92.9018V92.895Z" fill="#FFDC5A"/>
<path id="Vector_4" d="M56.5025 93.6963C54.8256 93.6963 53.142 93.1414 51.7651 92.1344L51.6697 92.0659L51.6288 91.9563C51.4447 91.4767 51.4652 90.9287 51.6833 90.456C51.9014 89.9833 52.2968 89.6271 52.7944 89.4627C53.6123 89.1818 54.5189 89.5107 55.0165 90.2642C56.073 91.8672 58.0771 92.5591 59.8834 91.9426C60.1492 91.8535 60.4083 91.7302 60.6605 91.5863L61.0831 92.2508C60.456 92.6893 59.7743 93.0318 59.0654 93.2784C58.2338 93.5593 57.375 93.7031 56.5025 93.7031V93.6963ZM52.3309 91.5726C53.8236 92.6276 55.705 93.0866 57.484 92.84C56.2366 92.5728 55.1051 91.8261 54.3621 90.6958C54.0622 90.2368 53.5305 90.045 53.0466 90.2094C52.7535 90.3053 52.5217 90.5177 52.399 90.7917C52.2831 91.0383 52.2627 91.3123 52.3309 91.5658V91.5726Z" fill="#150035"/>
<path id="Vector_5" d="M63.713 83.1813L50.8437 45.0039L49.1191 45.593L62.8337 86.2914C63.2086 87.4011 63.229 88.6274 62.7723 89.7097C62.6292 90.0591 62.4383 90.3811 62.227 90.6756C62.6565 90.1824 63.0245 89.6344 63.3245 89.0384C64.2242 87.2025 64.3605 85.1268 63.713 83.1881V83.1813Z" fill="#FFDC5A"/>
<path id="Vector_6" d="M62.5284 90.937L61.915 90.4438C62.1195 90.1629 62.2899 89.8615 62.4194 89.5601C62.8147 88.6147 62.8352 87.4981 62.4671 86.4226L48.623 45.3475L51.0906 44.5117L51.2133 44.8885L64.0826 83.0659C64.771 85.1004 64.6279 87.2857 63.6804 89.2175C63.3805 89.8204 62.992 90.4027 62.5284 90.9438V90.937ZM49.6251 45.8407L63.2169 86.1691C63.3669 86.6075 63.4555 87.046 63.4964 87.4844C63.8508 86.1211 63.8099 84.6826 63.3464 83.3125L50.6066 45.505L49.6251 45.8407Z" fill="#150035"/>
<path id="Vector_7" d="M60.9875 94.5324L60.7285 93.7857C60.8785 93.7309 64.423 92.4362 64.5048 88.8945L65.2887 88.9151C65.1932 93.0048 61.0284 94.5187 60.9875 94.5324Z" fill="#FFDC5A"/>
<path id="Vector_8" d="M58.9013 94.9912C58.3219 94.9912 57.8925 94.8541 57.8652 94.8473L58.097 94.0938C58.097 94.0938 58.8809 94.3335 59.6375 94.0938L59.8761 94.8473C59.5352 94.9569 59.2012 94.9912 58.9081 94.9912H58.9013Z" fill="#FFDC5A"/>
<path id="Vector_9" d="M55.4655 58.3545L55.0156 57.7106C55.2815 57.5256 55.7586 57.1557 55.9086 56.957L56.5357 57.4297C56.2698 57.7859 55.5473 58.2997 55.4655 58.3545Z" fill="#FFDC5A"/>
<path id="Vector_10" d="M7.32928 23.8077L11.201 21.7525C19.1421 17.5395 26.5106 12.7853 33.0884 7.61327L36.4693 4.95531C36.4693 4.95531 36.5034 4.94161 36.5034 4.95531L38.4051 10.3123C38.4051 10.3123 38.4051 10.3329 38.3983 10.3329L7.32247 23.8282C7.32247 23.8282 7.30883 23.8145 7.32247 23.8008L7.32928 23.8077Z" fill="white"/>
<path id="Vector_11" d="M7.36873 24.2409L6.97338 24.1587L6.88477 23.597L7.14379 23.4531L11.0155 21.398C18.9361 17.1987 26.2842 12.4514 32.8483 7.29299L36.386 4.51172L36.8018 4.61448L36.8768 4.81314L38.9013 10.5195L38.5536 10.6908L7.36873 24.2409ZM36.311 5.58038L33.3255 7.92323C27.8587 12.2184 21.8467 16.2328 15.4189 19.8841L37.9197 10.1085L36.311 5.57353V5.58038Z" fill="#150035"/>
<path id="Vector_12" d="M36.5302 4.92159L40.5996 4.88049C48.9496 4.79828 57.6542 3.90773 66.4745 2.22253L71.0074 1.35938C71.0074 1.35938 71.0347 1.35938 71.0279 1.37993L38.432 10.3129C38.432 10.3129 38.4115 10.3129 38.4115 10.2992L36.5098 4.94214C36.5098 4.94214 36.5234 4.92159 36.537 4.92159H36.5302Z" fill="#FFDC5A"/>
<path id="Vector_13" d="M38.1727 10.7933L38.0363 10.4234L36.0664 4.88142L36.305 4.54575L36.5299 4.53204L40.5993 4.49094C48.9221 4.41559 57.6061 3.51818 66.4061 1.83983L71.2184 0.921875L71.5115 1.42196L71.2457 1.73022L71.1366 1.75763L38.1795 10.7933H38.1727ZM37.0548 5.31299L38.6634 9.84112L62.2685 3.37432C54.8932 4.57315 47.6202 5.21709 40.6061 5.27874L37.048 5.31299H37.0548Z" fill="#150035"/>
<path id="Vector_14" d="M7.28145 23.8653L7.04969 26.5986C6.57936 32.2228 4.88209 38.0594 2.01921 43.937L0.546875 46.9581C0.546875 46.9581 0.553691 46.9786 0.574141 46.9718L38.3368 10.3974C38.3368 10.3974 38.3368 10.3563 38.3164 10.37L7.29508 23.8448C7.29508 23.8448 7.28827 23.8585 7.28145 23.8653Z" fill="white"/>
<path id="Vector_15" d="M0.451072 47.4221L0.0761719 47.0317L0.185234 46.785L1.66439 43.7572C4.51363 37.9275 6.19046 32.1389 6.66079 26.5626L6.89936 23.7197L7.03569 23.5347L7.13793 23.4799L38.4592 9.875L38.8477 10.4299L38.6091 10.6833L0.778258 47.3057L0.451072 47.4221ZM7.64916 24.117L7.43785 26.6311C6.96071 32.3101 5.25661 38.1878 2.36647 44.1065L1.84161 45.1889L36.5778 11.5534L7.64916 24.117Z" fill="#150035"/>
<path id="Vector_16" d="M0.538973 46.9986L3.41548 48.355C9.31846 51.1362 14.2808 54.6231 18.1593 58.7128L20.136 60.7953C20.136 60.7953 20.1769 60.7885 20.2042 60.7816L38.363 10.4105C38.363 10.4105 38.3494 10.3763 38.3358 10.39L0.552606 46.9712C0.552606 46.9712 0.525341 46.9917 0.538973 46.9986Z" fill="white"/>
<path id="Vector_17" d="M20.0746 61.2061L19.8565 61.0623L17.8797 58.9797C14.0353 54.9243 9.11388 51.4717 3.2518 48.711L0.136719 47.245L0.157168 46.6969L0.34121 46.6284L38.288 9.88281L38.8333 10.2253L38.7378 10.5405L20.504 61.1171L20.0746 61.213V61.2061ZM1.21371 46.8751L3.5858 47.9917C9.5365 50.7935 14.5329 54.3078 18.4455 58.4317L20.0269 60.1032L37.4495 11.7941L1.21371 46.8751Z" fill="#150035"/>
<path id="Vector_18" d="M83.9592 38.3101L84.1841 35.5973C84.6544 29.9731 86.3517 24.1366 89.2146 18.2589L90.6869 15.2379C90.6869 15.2379 90.6801 15.2173 90.6597 15.2242L38.4803 10.3398C38.4803 10.3398 38.4531 10.3604 38.4667 10.3741L83.8842 38.3443C83.8842 38.3443 83.9183 38.3238 83.9455 38.3101H83.9592Z" fill="#150035"/>
<path id="Vector_19" d="M83.8771 38.7973L38.0098 10.5462L38.1938 9.92969L38.521 9.94339L90.6185 14.8209L90.7889 14.7661L91.157 15.1703L89.5688 18.4311C86.7196 24.2608 85.0427 30.0494 84.5724 35.6256L84.327 38.5576L83.8703 38.7905L83.8771 38.7973ZM40.0615 10.8819L83.6181 37.7081L83.7953 35.5639C84.2725 29.8849 85.9766 24.0073 88.8667 18.0885L90.0937 15.5676L40.0547 10.8819H40.0615Z" fill="#150035"/>
<path id="Vector_20" d="M90.6992 15.1962L87.8227 13.8398C81.9197 11.0585 76.9574 7.57168 73.0789 3.48198L71.0953 1.38576C71.0953 1.38576 71.0817 1.38576 71.068 1.37891L38.5267 10.2981C38.5267 10.2981 38.5062 10.3324 38.5267 10.3324L90.6855 15.2167C90.6855 15.2167 90.7128 15.1962 90.6992 15.1893V15.1962Z" fill="#FFDC5A"/>
<path id="Vector_21" d="M90.7337 15.6228L38.1658 10.6973L38.0977 10.0191L38.4248 9.91636L71.0616 0.976562L71.2729 1.03137L71.3752 1.12042L73.3656 3.21665C77.21 7.2721 82.1314 10.7316 87.9935 13.4854L91.1086 14.9514L91.0881 15.4857L90.7405 15.6159L90.7337 15.6228ZM40.6129 10.1424L88.5661 14.6363L87.6527 14.2047C81.7088 11.4029 76.7056 7.88863 72.793 3.76468L70.9594 1.82601L40.6197 10.1424H40.6129Z" fill="#150035"/>
<path id="Vector_22" d="M83.8978 38.407L80.0534 40.4416C72.1123 44.6546 64.7438 49.4088 58.166 54.5809L54.7851 57.2388C54.7851 57.2388 54.751 57.2525 54.751 57.2388L38.4395 10.3888C38.4395 10.3888 38.4531 10.3614 38.4667 10.3683L83.9047 38.3454C83.9047 38.3454 83.9047 38.3728 83.9047 38.407H83.8978Z" fill="#FFDC5A"/>
<path id="Vector_23" d="M54.8656 57.6791L54.4498 57.5695L54.3748 57.3777L37.9746 10.2605L38.404 9.89062L38.6631 10.0345L84.2987 38.1349L84.285 38.5939L84.0805 38.7583L80.2361 40.7929C72.3155 44.9922 64.9674 49.7395 58.4033 54.8979L54.8588 57.686L54.8656 57.6791ZM39.1538 11.2539L54.9406 56.6173L57.9193 54.2745C64.5176 49.0887 71.8997 44.3208 79.868 40.0941L83.1535 38.3541L39.1538 11.2539Z" fill="#150035"/>
<path id="Vector_24" d="M54.7155 57.2741L50.6461 57.3152C42.296 57.3974 33.5915 58.288 24.7711 59.9732L20.2655 60.8295C20.2655 60.8295 20.2519 60.8089 20.2246 60.7884L38.4039 10.3967C38.4039 10.3967 38.4311 10.383 38.438 10.3967L54.7495 57.2536C54.7495 57.2536 54.7359 57.2741 54.7223 57.2741H54.7155Z" fill="#FFDC5A"/>
<path id="Vector_25" d="M20.1231 61.2598L19.7891 60.8624L19.864 60.6501L38.1319 9.99808L38.6977 9.98438L38.8067 10.2584L55.1865 57.3071L54.9479 57.6496L54.723 57.6633L50.6536 57.7044C42.3308 57.7797 33.6467 58.6771 24.8468 60.3555L20.1231 61.2598ZM38.4182 11.5189L20.8183 60.3212L24.7037 59.5814C33.5445 57.8893 42.2763 56.9988 50.6468 56.9166L54.2049 56.8823L38.4182 11.5189Z" fill="#150035"/>
<path id="Vector_26" d="M54.7912 57.1858C54.7912 57.1858 54.8184 57.1926 54.8252 57.1858L58.2062 54.5278C60.9668 52.3631 63.8638 50.2737 66.8834 48.2597V48.246L38.5137 10.418L54.7912 57.1858Z" fill="#150035"/>
<path id="Vector_27" d="M54.9143 57.6172L54.4985 57.5145L54.4235 57.3158L37.3145 8.16406L67.3269 48.1705L67.2315 48.4993L67.1088 48.5884C64.0483 50.6298 61.1377 52.7329 58.452 54.8428L54.9143 57.6241V57.6172ZM39.7138 12.6785L54.9893 56.5623L57.9749 54.2194C60.5719 52.178 63.3871 50.1434 66.3386 48.1568L39.7138 12.6785Z" fill="#150035"/>
<path id="Vector_28" d="M76.7461 6.88959C75.4373 5.80037 74.2036 4.67005 73.0789 3.47808L71.0953 1.38185C71.0953 1.38185 71.0817 1.38185 71.068 1.375L38.5267 10.2942C38.5267 10.2942 38.5062 10.3285 38.5267 10.3285L38.7789 10.349L76.7392 6.88959H76.7461Z" fill="#150035"/>
<path id="Vector_29" d="M38.7793 10.7541L38.1658 10.6993L38.0977 10.0211L38.4248 9.91834L71.0616 0.964844L71.2729 1.01965L71.3752 1.1087L73.3656 3.20493C74.4357 4.3284 75.6559 5.46557 76.9987 6.58219L77.3804 6.90415L76.8828 7.28093L38.7793 10.7541ZM70.9594 1.8143L42.4738 9.62377L75.7854 6.58904C74.6948 5.65053 73.6928 4.69832 72.7998 3.75296L70.9662 1.8143H70.9594Z" fill="#150035"/>
<path id="Vector_30" d="M38.439 10.3889C38.439 10.3889 38.4117 10.3752 38.4049 10.3889L20.2324 60.7806C20.2324 60.7806 20.2461 60.8011 20.2733 60.8217L24.7789 59.9654C26.1967 59.6914 27.6146 59.4516 29.0255 59.2187L38.4867 10.5259L38.439 10.3889Z" fill="#150035"/>
<path id="Vector_31" d="M20.1232 61.2519L19.8301 60.9026L19.871 60.6422L38.132 9.99026L38.6978 9.97656L38.8955 10.4903L38.875 10.5931L29.4003 59.3681L29.2503 59.5667L29.0935 59.601C27.4712 59.8613 26.1284 60.1011 24.8606 60.3408L20.1368 61.2451L20.1232 61.2519ZM37.2936 14.6417L20.8253 60.3203L24.7106 59.5804C25.9171 59.3475 27.1918 59.1283 28.705 58.8817L37.3004 14.6485L37.2936 14.6417Z" fill="#150035"/>
<path id="Vector_32" d="M41.8333 4.90234C41.4243 4.90919 41.0085 4.92289 40.5995 4.92975L36.5301 4.97085C36.5301 4.97085 36.496 4.98455 36.5029 4.9914L38.4046 10.3484C38.4046 10.3484 38.4183 10.3621 38.4251 10.3621L38.4932 10.3416L41.8333 4.90234Z" fill="#150035"/>
<path id="Vector_33" d="M38.1727 10.8347L38.0363 10.4716L36.0664 4.92965L36.2982 4.58713L36.5299 4.56658L40.5993 4.52548C40.8447 4.52548 41.0901 4.51863 41.3355 4.51178L42.5488 4.48438L38.7521 10.6703L38.1795 10.8279L38.1727 10.8347ZM37.048 5.35438L38.5339 9.52628L41.1242 5.30643C40.9537 5.30643 40.7765 5.31328 40.6061 5.31328L37.048 5.34753V5.35438Z" fill="#150035"/>
<path id="Vector_34" d="M38.363 10.2734C38.3153 10.3145 38.2335 10.3899 38.1108 10.4927L0.552606 46.8547C0.552606 46.8547 0.525341 46.8752 0.538973 46.8821L3.41548 48.2384C5.13321 49.0468 6.76232 49.9236 8.31645 50.8485H8.3369L38.363 10.2871V10.2734Z" fill="#FFDC5A"/>
<path id="Vector_35" d="M8.5413 51.2469H8.23457L8.11869 51.1921C6.51684 50.233 4.8741 49.363 3.2518 48.5958L0.136719 47.1298L0.157168 46.5954L0.334394 46.5201L37.8381 10.2129L38.3629 9.75391L38.7583 10.0964V10.4252L38.6833 10.528L8.5413 51.2469ZM1.22052 46.7667L3.59262 47.8833C5.14675 48.6163 6.7077 49.4384 8.24138 50.3426L35.3228 13.7408L1.21371 46.7667H1.22052Z" fill="#150035"/>
<path id="Vector_36" d="M7.26131 23.9442L7.02955 26.6776C6.9682 27.4106 6.88641 28.1504 6.77734 28.8903L37.9759 10.5859L7.27494 23.9237C7.27494 23.9237 7.26812 23.9374 7.26131 23.9442Z" fill="#FFDC5A"/>
<path id="Vector_37" d="M6.76349 29.3598L6.36133 29.0721L6.39541 28.8323C6.50447 28.0719 6.58627 27.3389 6.6408 26.6402L6.87937 23.7972L6.94072 23.7082L7.26109 23.9411L6.94754 23.7013L7.00888 23.6123L7.11795 23.5575L37.8189 10.2266L38.1733 10.9322L6.76349 29.3598ZM7.63599 24.1946L7.42468 26.7087C7.38378 27.1745 7.33607 27.654 7.27472 28.1473L32.1613 13.5422L7.63599 24.1946Z" fill="#150035"/>
<path id="Vector_38" d="M36.476 4.95617C36.476 4.95617 36.4487 4.94932 36.4419 4.95617L33.061 7.61413C31.7795 8.62114 30.4639 9.6076 29.1211 10.5804L38.3368 10.2926V10.2104L36.476 4.95617Z" fill="#FFDC5A"/>
<path id="Vector_39" d="M28.8277 10.9932L28.6641 10.4314L28.8822 10.2602C30.3682 9.17781 31.6565 8.21191 32.8084 7.3008L36.3461 4.51953L36.7619 4.62229L36.8369 4.82095L38.7318 10.1574L38.6773 10.6644L28.814 10.9863L28.8277 10.9932ZM36.278 5.58135L33.2924 7.92419C32.3994 8.62293 31.4383 9.35593 30.3613 10.1506L37.8185 9.91081L36.278 5.58135Z" fill="#150035"/>
<path id="Vector_40" d="M45.3378 40.1784L44.5723 40.3477L47.9913 55.9629L48.7569 55.7936L45.3378 40.1784Z" fill="white"/>
<path id="Vector_41" d="M59.8693 26.0902L59.418 26.7344L78.4177 40.1792L78.869 39.535L59.8693 26.0902Z" fill="white"/>
<path id="Vector_42" d="M78.641 9.30078H66.5078V10.0886H78.641V9.30078Z" fill="white"/>
<path id="Vector_43" d="M10.2298 43.6768L7.00391 47.8203L7.62128 48.3058L10.8471 44.1622L10.2298 43.6768Z" fill="white"/>
<path id="Vector_44" d="M43.9254 5.57812L42.7148 7.50781L43.3779 7.92796L44.5885 5.99827L43.9254 5.57812Z" fill="white"/>
<path id="Vector_45" d="M36.5229 5.75724C35.3164 6.19567 36.8228 11.3335 36.8228 11.3335C36.9046 11.5595 37.1363 11.7308 37.4908 11.7925C38.2065 11.9226 39.1676 11.5664 39.6379 11.0047C39.8697 10.7238 39.9379 10.4429 39.8561 10.2169C39.8561 10.2169 37.7225 5.31196 36.5229 5.75039V5.75724Z" fill="#FFDC5A"/>
<path id="Vector_46" d="M37.7972 12.2163C37.6677 12.2163 37.545 12.2026 37.4223 12.182C36.9383 12.0998 36.5839 11.8395 36.4544 11.4696C35.9636 9.79809 34.9888 5.90021 36.3862 5.39328C37.7904 4.87949 39.5354 8.49651 40.217 10.0721C40.3601 10.4626 40.2511 10.8942 39.9375 11.2709C39.4604 11.8464 38.5743 12.2231 37.7972 12.2231V12.2163ZM36.652 6.13312C36.209 6.29753 36.4748 8.77053 37.1905 11.223C37.2178 11.2915 37.3609 11.3737 37.5518 11.4079C38.1312 11.5107 38.9492 11.2161 39.3309 10.7572C39.4604 10.5996 39.5149 10.4557 39.4808 10.3598C38.472 8.03754 37.0747 5.97556 36.6452 6.13312H36.652Z" fill="#150035"/>
<path id="Vector_47" d="M37.4919 6.21644C37.1442 5.85337 36.8034 5.65471 36.5171 5.75746C35.9036 5.98353 35.9923 7.41526 36.224 8.77165C36.2308 8.77165 37.7441 8.18251 37.485 6.20959L37.4919 6.21644Z" fill="white"/>
<path id="Vector_48" d="M35.9232 9.31294L35.8414 8.84711C35.4802 6.75773 35.6574 5.66167 36.3867 5.3945C36.8025 5.24379 37.2729 5.42875 37.7773 5.94938L37.8659 6.04529L37.8795 6.17545C38.1726 8.44293 36.3799 9.14853 36.3663 9.15538L35.9232 9.31979V9.31294ZM36.6798 6.12749C36.6798 6.12749 36.6594 6.12749 36.6526 6.12749C36.6526 6.12749 36.2845 6.31931 36.5231 8.11411C36.8366 7.8264 37.1911 7.29891 37.1161 6.39466C36.8843 6.1823 36.7412 6.12064 36.6798 6.12064V6.12749Z" fill="#150035"/>
<path id="Vector_49" d="M87.6603 80.8455L92.2 77.8999C92.2 77.8999 92.2069 77.8725 92.1932 77.8725L87.6535 77.6875C87.6535 77.6875 87.6467 77.6875 87.6399 77.6875L87.0946 78.1944C87.0946 78.1944 87.0946 78.1944 87.0946 78.2013L86.6992 79.77C86.6992 79.77 86.6992 79.7769 86.6992 79.7837L87.6399 80.8455C87.6399 80.8455 87.6535 80.8524 87.6603 80.8455Z" fill="#150035"/>
<path id="Vector_50" d="M87.5781 81.4366L87.2986 81.1421L86.2012 79.9021L86.2557 79.6555L86.6715 77.9977L86.7874 77.8539L87.469 77.2305H87.6531L92.5336 77.4291L92.7244 78.0731L92.445 78.2717L87.5713 81.4298L87.5781 81.4366ZM87.1964 79.6555L87.728 80.2584L90.7954 78.2717L87.8167 78.1484L87.4963 78.443L87.1895 79.6555H87.1964Z" fill="#150035"/>
<path id="Vector_51" d="M95.3075 55.0797L81.1499 46.8661C80.3456 46.4002 79.6094 46.3386 79.0641 46.6126L74.4358 49.4761C74.4358 49.4761 74.4017 49.5172 74.4153 49.5377C74.6198 49.9693 76.542 54.011 76.7193 54.7577C76.7942 55.0729 77.3941 58.1624 78.0894 61.7589C78.0894 61.7589 78.0894 61.7589 78.0894 61.7657V63.5674C78.0894 64.5812 78.4574 65.6979 79.0368 66.6843C79.0368 66.6843 79.0368 66.6912 79.0368 66.698C79.7594 70.452 80.3797 73.6512 80.3933 73.7334L86.8961 75.9324H87.3528C87.3528 75.9324 87.3801 75.8844 87.3733 75.8639L87.0188 74.85C87.0188 74.85 87.0188 74.85 87.0188 74.8432C86.9234 74.3568 86.8552 73.8156 86.8211 73.2744L92.9286 80.1043C92.9286 80.1043 92.9695 80.1248 92.9899 80.1111L97.4547 77.3367C97.4547 77.3367 97.5024 77.3093 97.5228 77.2956C98.0477 76.9599 98.3749 76.2886 98.3749 75.3364V60.4367C98.3749 58.4638 96.9843 56.0525 95.2871 55.066L95.3075 55.0797Z" fill="#FFDC5A"/>
<path id="Vector_52" d="M92.9837 80.5867C92.8474 80.5867 92.711 80.5319 92.6088 80.4223L87.4556 74.6611C87.4556 74.6611 87.4692 74.7227 87.4761 74.7501L87.8169 75.7297C87.8987 75.9558 87.8032 76.2092 87.5987 76.3326L87.4965 76.3942L86.8421 76.4079L80.0462 74.1062L79.9576 73.8322L78.6148 66.8653C77.9808 65.7761 77.64 64.6115 77.64 63.5771V61.8097C76.5971 56.4115 76.3245 55.0552 76.2768 54.8702C76.1541 54.3359 74.8521 51.5135 74.0069 49.7461C73.8978 49.5132 73.9796 49.2323 74.2046 49.0953L78.8329 46.2318C79.5759 45.8551 80.4688 45.951 81.3822 46.4784L95.5398 54.6921C97.3666 55.7539 98.8526 58.3365 98.8526 60.4601V75.3598C98.8526 76.4353 98.4777 77.2711 97.7892 77.7026C97.7483 77.73 97.7211 77.7437 97.6938 77.7643L93.2563 80.5182C93.1745 80.573 93.0859 80.5935 92.9905 80.5935L92.9837 80.5867ZM86.3105 72.0168L93.0518 79.5591L97.2303 76.9628L97.5234 77.319L97.2916 76.9285C97.7074 76.6682 97.9324 76.1065 97.9324 75.3529V60.4533C97.9324 58.6516 96.6236 56.3773 95.0695 55.473L80.9119 47.2594C80.2711 46.8895 79.6849 46.8073 79.2555 47.0196L74.968 49.6707C75.527 50.8559 76.9788 53.9454 77.1424 54.651C77.2106 54.9319 77.6741 57.2884 78.5193 61.6658V61.7549L78.5262 63.5702C78.5262 64.4539 78.8465 65.5089 79.4123 66.4543L79.4736 66.605L80.7824 73.4006L86.7331 75.4146L86.5627 74.9556V74.9419C86.4672 74.3939 86.3991 73.8253 86.365 73.3115L86.2968 72.0236L86.3105 72.0168Z" fill="#150035"/>
<path id="Vector_53" d="M95.2948 55.0829L81.8529 47.2734L75.1797 51.4796L89.5554 59.1315L92.541 59.6042L97.1352 56.864C96.6172 56.1173 95.9833 55.4802 95.2948 55.0829Z" fill="white"/>
<path id="Vector_54" d="M92.629 60.0829L89.3435 59.5349L74.2793 51.513L81.8455 46.7383L95.5191 54.6848C96.2416 55.1026 96.9301 55.7671 97.5027 56.6029L97.7821 57.0071L92.629 60.0829ZM89.6979 58.6991L92.4449 59.1375L96.4666 56.7399C96.0372 56.1987 95.5532 55.7671 95.0624 55.4794L81.8591 47.8069L76.0788 51.4514L89.6911 58.6991H89.6979Z" fill="#150035"/>
<path id="Vector_55" d="M98.2233 60.4622L93.627 63.2422L94.0944 64.0228L98.6907 61.2429L98.2233 60.4622Z" fill="#150035"/>
<path id="Vector_56" d="M98.0924 71.181L93.4961 73.9609L93.9636 74.7416L98.5599 71.9616L98.0924 71.181Z" fill="#150035"/>
<path id="Vector_57" d="M76.5977 49.689L90.7825 57.9164C92.473 58.896 93.8431 61.2799 93.8431 63.246V78.173C93.8431 80.1323 92.473 80.9269 90.7825 79.9473L89.167 79.0088C88.8739 78.8375 88.6286 78.9334 88.5672 79.228C88.39 80.1254 87.7561 81.749 85.4589 80.7968C85.0091 80.6118 84.6546 79.9131 84.7841 79.4883C84.9477 78.9746 85.1045 78.2347 85.1113 77.3647C85.1113 76.9742 84.8318 76.4947 84.4978 76.3029L76.5977 71.72C74.9072 70.7403 73.5371 68.3564 73.5371 66.3903V51.4633C73.5371 49.5041 74.9072 48.7094 76.5977 49.689Z" fill="#FFDC5A"/>
<path id="Vector_58" d="M86.7187 81.5432C86.2824 81.5432 85.8053 81.4336 85.2872 81.2212C84.6261 80.9472 84.1557 80.0018 84.3534 79.3511C84.4897 78.9058 84.6533 78.207 84.6601 77.3576C84.6601 77.1384 84.4693 76.8027 84.2716 76.6931L76.3714 72.1102C74.531 71.0415 73.0859 68.5274 73.0859 66.3901V51.463C73.0859 50.3464 73.4881 49.497 74.2106 49.0791C74.9332 48.6612 75.867 48.7366 76.8281 49.2914L91.0062 57.5188C92.8466 58.5875 94.2917 61.1016 94.2917 63.2389V78.1659C94.2917 79.2826 93.8895 80.132 93.167 80.5499C92.4444 80.9678 91.5106 80.8924 90.5495 80.3375L88.9817 79.4264C88.8317 80.0772 88.5046 80.8787 87.7479 81.2897C87.4412 81.4541 87.0936 81.5363 86.7119 81.5363L86.7187 81.5432ZM75.2331 49.723C75.0218 49.723 74.8241 49.771 74.6605 49.8669C74.2311 50.1203 73.9925 50.6821 73.9925 51.463V66.3901C73.9925 68.2054 75.2672 70.4181 76.8281 71.3224L84.7283 75.9053C85.2123 76.1862 85.5735 76.8164 85.5667 77.3644C85.5667 78.3235 85.3759 79.125 85.2191 79.6251C85.1577 79.81 85.3895 80.2827 85.6349 80.3786C86.3506 80.6732 86.9232 80.7143 87.3253 80.4951C87.8502 80.2142 88.0479 79.5292 88.1228 79.1456C88.1774 78.8647 88.3342 78.6523 88.5727 78.5427C88.8181 78.4263 89.1112 78.4537 89.3907 78.6181L91.0062 79.5566C91.6742 79.947 92.2877 80.0224 92.7171 79.7689C93.1465 79.5155 93.3851 78.9537 93.3851 78.1728V63.2457C93.3851 61.4304 92.1104 59.2177 90.5495 58.3134L76.3714 50.0861C75.9624 49.8463 75.5739 49.723 75.2331 49.723Z" fill="#150035"/>
<path id="Vector_59" d="M98.3963 73.7422L93.8566 76.544V78.558L93.5703 79.7774L97.5443 77.3044L98.3213 76.3179L98.4508 75.1808L98.3963 73.7422Z" fill="#150035"/>
<path id="Vector_60" d="M87.7826 62.6506C86.0648 60.1707 84.129 61.1366 83.6995 61.7532C83.6995 61.7532 83.6927 61.7532 83.6859 61.7532C83.2565 60.6434 81.3206 57.4306 79.6029 57.9169C77.8034 58.4239 78.1442 60.5955 79.0235 63.137C79.7392 65.1989 82.9361 70.7135 83.6109 71.8712C83.6791 71.9946 83.795 72.0562 83.8631 72.022C84.6811 71.563 87.6053 69.8572 88.3551 68.5556C89.2344 67.0349 89.5753 65.2674 87.7757 62.6643L87.7826 62.6506Z" fill="white"/>
<path id="Vector_61" d="M83.8217 72.482C83.5967 72.482 83.365 72.345 83.2218 72.0984C82.5811 70.9954 79.3229 65.3918 78.5935 63.2819C77.7824 60.939 77.6461 59.473 78.1368 58.5208C78.4027 58.0002 78.8526 57.6508 79.4728 57.4796C81.2724 56.9726 83.0923 59.5278 83.8421 61.0212C84.2102 60.7815 84.7078 60.6034 85.2736 60.6034C86.0097 60.6034 87.1072 60.9185 88.1433 62.405C90.2154 65.3918 89.5474 67.3853 88.7431 68.7827C87.9592 70.1391 85.219 71.7764 84.0807 72.4203C83.9989 72.4683 83.9035 72.4888 83.8149 72.4888L83.8217 72.482ZM79.9636 58.3153C79.8818 58.3153 79.8068 58.329 79.725 58.3496C79.3501 58.4523 79.0979 58.651 78.948 58.9387C78.464 59.8635 79.0093 61.6926 79.4524 62.9804C80.1272 64.926 83.0923 70.0706 83.9103 71.4681C85.5803 70.5091 87.448 69.2212 87.9729 68.3169C88.6886 67.077 89.1862 65.4671 87.4139 62.9119C86.7732 61.9871 86.037 61.5008 85.2872 61.4939C84.6465 61.4939 84.1898 61.8433 84.0739 62.0077L83.9171 62.2338L83.3718 62.1721L83.2696 61.9118C82.8333 60.7883 81.211 58.3153 79.9636 58.3153Z" fill="#150035"/>
<path id="Vector_62" d="M79.5417 62.1848C79.4531 61.9177 79.0305 60.5544 79.6303 59.8009C79.8212 59.5611 80.1892 59.294 80.8709 59.3625L80.7686 60.2667C80.4414 60.2325 80.3596 60.3352 80.3324 60.3695C80.1143 60.6435 80.237 61.4381 80.3937 61.8903L79.5349 62.1848H79.5417Z" fill="#150035"/>
<path id="Vector_63" d="M83.8555 69.5368C83.8555 69.5368 84.7961 69.0641 85.7572 68.3242L83.8555 69.5368Z" fill="#FFDC5A"/>
<path id="Vector_64" d="M84.0545 69.9485L83.6523 69.1333C83.6523 69.1333 84.5657 68.6675 85.4791 67.9688L86.0313 68.688C85.0497 69.4416 84.1022 69.9211 84.0613 69.9417L84.0545 69.9485Z" fill="#150035"/>
</g>
<defs>
<clipPath id="clip0_1309_12409">
<rect width="98.7692" height="95.0769" fill="white" transform="translate(0.0761719 0.921875)"/>
</clipPath>
</defs>
</svg>
